<svg width="60" height="60" viewBox="0 0 60 60" fill="none" xmlns="http://www.w3.org/2000/svg">
<path fill-rule="evenodd" clip-rule="evenodd" d="M43.1409 17.8146C40.7139 17.8146 38.7464 19.7626 38.7464 22.1656C38.7464 24.5686 40.7139 26.5166 43.1409 26.5166C45.5679 26.5166 47.5354 24.5686 47.5354 22.1656C47.5354 19.7626 45.5679 17.8146 43.1409 17.8146ZM34.8937 22.1656C34.8937 17.6558 38.5861 14 43.1409 14C47.6957 14 51.3882 17.6558 51.3882 22.1656C51.3882 26.6753 47.6957 30.3311 43.1409 30.3311C38.5861 30.3311 34.8937 26.6753 34.8937 22.1656ZM37.1938 40.1027C37.9931 41.8364 38.5084 43.7248 38.6816 45.7079C40.1162 46.0204 41.6081 46.1854 43.1408 46.1854C45.9674 46.1854 48.6575 45.6241 51.1068 44.6091C50.701 40.6074 47.2894 37.4834 43.1408 37.4834C40.7822 37.4834 38.6611 38.4919 37.1938 40.1027ZM34.8937 47.2044L36.3442 46.1854C36.3442 43.8618 35.0543 41.3964 34 39.5C33.6501 38.8706 32.9258 39.3997 33.3344 38.806C35.4656 35.709 39.0623 33.6689 43.1408 33.6689C49.6904 33.6689 55 38.9258 55 45.4106C55 45.5748 54.9966 45.7384 54.9898 45.9011C54.9607 46.6001 54.5474 47.2272 53.913 47.5352C50.6597 49.1143 47.002 50 43.1408 50C41.1303 50 39.1741 49.7598 37.3008 49.3062C36.1061 49.0168 36.1781 48.503 36 48.5C34.9362 48.4823 34.8738 48.4805 34.8917 47.4272C36 47 34.8936 47.2786 34.8937 47.2044Z" fill="url(#paint0_linear_549_3121)"/>
<path fill-rule="evenodd" clip-rule="evenodd" d="M22 10.7551C18.6305 10.7551 15.899 13.4608 15.899 16.7985C15.899 20.1361 18.6305 22.8418 22 22.8418C25.3695 22.8418 28.101 20.1361 28.101 16.7985C28.101 13.4608 25.3695 10.7551 22 10.7551ZM12.108 16.7985C12.108 11.3869 16.5368 7 22 7C27.4632 7 31.892 11.3869 31.892 16.7985C31.892 22.21 27.4632 26.5969 22 26.5969C16.5368 26.5969 12.108 22.21 12.108 16.7985ZM8.81619 45.9063C12.7269 48.0342 17.2182 49.2449 22 49.2449C26.7818 49.2449 31.2732 48.0342 35.1839 45.9062C35.0611 43.9246 34.4938 42.0659 33.5807 40.4227C31.3308 36.3742 26.9867 33.6378 22 33.6378C14.9814 33.6378 9.24131 39.06 8.81619 45.9063ZM5 46.7219C5 37.4219 12.6112 29.8827 22 29.8827C28.4237 29.8827 34.0123 33.4125 36.9017 38.6119C38.2396 41.0194 39 43.7855 39 46.7219V46.7279C39 46.822 38.9991 46.9166 38.9975 47.0101C38.9866 47.6572 38.6398 48.2532 38.0801 48.587C33.3821 51.3889 27.8781 53 22 53C16.1219 53 10.6179 51.3889 5.91994 48.587C5.36015 48.2532 5.01343 47.6572 5.00245 47.0101C5.00082 46.9143 5 46.8182 5 46.7219Z" fill="#4B515F"/>
<defs>
<linearGradient id="paint0_linear_549_3121" x1="44.1064" y1="14" x2="44.1064" y2="50" gradientUnits="userSpaceOnUse">
<stop stop-color="#FF4910"/>
<stop offset="1" stop-color="#FF1074"/>
</linearGradient>
</defs>
</svg>
