<svg width="60" height="60" viewBox="0 0 60 60" fill="none" xmlns="http://www.w3.org/2000/svg">
<path fill-rule="evenodd" clip-rule="evenodd" d="M12.1967 7.1967C13.6032 5.79018 15.5109 5 17.5 5H31.465C32.7908 5.00028 34.0628 5.52715 35.0003 6.46473C35.0004 6.46482 35.0002 6.46464 35.0003 6.46473L48.535 19.9995C49.4728 20.9369 49.9997 22.2085 50 23.5345V47.5C50 49.4891 49.2098 51.3968 47.8033 52.8033C46.3968 54.2098 44.4891 55 42.5 55H25C23.6193 55 22.5 53.8807 22.5 52.5C22.5 51.1193 23.6193 50 25 50H42.5C43.163 50 43.7989 49.7366 44.2678 49.2678C44.7366 48.7989 45 48.163 45 47.5V23.5355L31.4647 10.0003L17.5 10C16.837 10 16.2011 10.2634 15.7322 10.7322C15.2634 11.2011 15 11.837 15 12.5V40C15 41.3807 13.8807 42.5 12.5 42.5C11.1193 42.5 10 41.3807 10 40V12.5C10 10.5109 10.7902 8.60322 12.1967 7.1967ZM30.0049 25.0433C32.6429 25.0328 35.1782 26.0652 37.0585 27.9156C37.9994 28.8415 38.7477 29.9446 39.2601 31.1611C39.7726 32.3776 40.0391 33.6836 40.0443 35.0037C40.0496 36.3237 39.7934 37.6317 39.2905 38.8523C38.7877 40.0729 38.0482 41.1818 37.1147 42.1151C36.1811 43.0484 35.072 43.7877 33.8514 44.2902C32.6307 44.7927 31.3226 45.0486 30.0025 45.0431C28.6825 45.0376 27.3766 44.7707 26.1602 44.258C25.7284 44.076 25.311 43.8643 24.9107 43.6248L14.2678 54.2678C13.2915 55.2441 11.7085 55.2441 10.7322 54.2678C9.75592 53.2915 9.75592 51.7085 10.7322 50.7322L21.3978 40.0667C20.5116 38.5414 20.037 36.795 20.0445 35.0013C20.0556 32.3633 21.1086 29.8365 22.9742 27.9713C24.8398 26.1061 27.3669 25.0537 30.0049 25.0433ZM33.5515 31.4794C32.6113 30.5542 31.3437 30.038 30.0247 30.0432C28.7056 30.0484 27.4421 30.5747 26.5093 31.5072C25.5765 32.4398 25.05 33.7032 25.0445 35.0222C25.0389 36.3413 25.5549 37.609 26.4798 38.5494C26.9426 39.02 27.4941 39.3942 28.1023 39.6506C28.7105 39.907 29.3635 40.0404 30.0235 40.0431C30.6835 40.0459 31.3376 39.918 31.9479 39.6667C32.5582 39.4154 33.1128 39.0458 33.5795 38.5791C34.0463 38.1125 34.4161 37.558 34.6675 36.9477C34.9189 36.3375 35.047 35.6835 35.0444 35.0234C35.0418 34.3634 34.9085 33.7104 34.6523 33.1021C34.3961 32.4939 34.0219 31.9423 33.5515 31.4794Z" fill="#4B515F"/>
<path fill-rule="evenodd" clip-rule="evenodd" d="M37.0585 27.9156C35.1782 26.0653 32.6429 25.0329 30.0049 25.0433C27.3669 25.0537 24.8398 26.1061 22.9742 27.9713C21.1086 29.8365 20.0556 32.3633 20.0445 35.0013C20.037 36.7951 20.5116 38.5414 21.3978 40.0667L10.7322 50.7323C9.75592 51.7086 9.75592 53.2915 10.7322 54.2678C11.7085 55.2441 13.2915 55.2441 14.2678 54.2678L24.9107 43.6249C25.311 43.8643 25.7284 44.076 26.1602 44.258C27.3766 44.7708 28.6825 45.0376 30.0025 45.0431C31.3226 45.0487 32.6307 44.7928 33.8514 44.2902C35.072 43.7877 36.1811 43.0484 37.1147 42.1151C38.0482 41.1818 38.7877 40.0729 39.2905 38.8523C39.7934 37.6318 40.0496 36.3237 40.0443 35.0037C40.0391 33.6836 39.7726 32.3777 39.2601 31.1611C38.7477 29.9446 37.9994 28.8415 37.0585 27.9156ZM30.0247 30.0433C31.3437 30.038 32.6113 30.5542 33.5515 31.4794C34.0219 31.9424 34.3961 32.4939 34.6523 33.1022C34.9085 33.7104 35.0418 34.3634 35.0444 35.0234C35.047 35.6835 34.9189 36.3375 34.6675 36.9478C34.4161 37.558 34.0463 38.1125 33.5795 38.5792C33.1128 39.0458 32.5582 39.4155 31.9479 39.6667C31.3376 39.918 30.6835 40.0459 30.0235 40.0432C29.3635 40.0404 28.7105 39.907 28.1023 39.6506C27.4941 39.3942 26.9426 39.02 26.4798 38.5494C25.5549 37.6091 25.0389 36.3413 25.0445 35.0223C25.05 33.7032 25.5765 32.4398 26.5093 31.5073C27.4421 30.5747 28.7056 30.0485 30.0247 30.0433Z" fill="url(#paint0_linear_549_3110)"/>
<defs>
<linearGradient id="paint0_linear_549_3110" x1="25.0222" y1="25.0432" x2="25.0222" y2="55" gradientUnits="userSpaceOnUse">
<stop stop-color="#FF4910"/>
<stop offset="1" stop-color="#FF1074"/>
</linearGradient>
</defs>
</svg>
