<svg width="60" height="60" viewBox="0 0 60 60" fill="none" xmlns="http://www.w3.org/2000/svg">
<path fill-rule="evenodd" clip-rule="evenodd" d="M5.625 12.1875C5.625 9.59867 7.72367 7.5 10.3125 7.5H38.4375C41.0263 7.5 43.125 9.59867 43.125 12.1875V16.875H49.6875C52.2763 16.875 54.375 18.9737 54.375 21.5625V45C54.375 49.1421 51.0171 52.5 46.875 52.5H13.125C8.98287 52.5 5.625 49.1421 5.625 45V12.1875ZM40.3784 48.75H13.125C11.0539 48.75 9.375 47.0711 9.375 45V12.1875C9.375 11.6697 9.79473 11.25 10.3125 11.25H38.4375C38.9553 11.25 39.375 11.6697 39.375 12.1875V45C39.375 46.3661 39.7402 47.6469 40.3784 48.75ZM46.875 48.75C48.9461 48.75 50.625 47.0711 50.625 45V21.5625C50.625 21.0447 50.2053 20.625 49.6875 20.625H43.125V45C43.125 47.0711 44.8039 48.75 46.875 48.75ZM13.125 18.75C13.125 17.7145 13.9645 16.875 15 16.875H22.5C23.5355 16.875 24.375 17.7145 24.375 18.75V26.25C24.375 27.2855 23.5355 28.125 22.5 28.125H15C13.9645 28.125 13.125 27.2855 13.125 26.25V18.75ZM16.875 20.625V24.375H20.625V20.625H16.875ZM28.125 18.75C28.125 17.7145 28.9645 16.875 30 16.875H33.75C34.7855 16.875 35.625 17.7145 35.625 18.75C35.625 19.7855 34.7855 20.625 33.75 20.625H30C28.9645 20.625 28.125 19.7855 28.125 18.75ZM28.125 26.25C28.125 25.2145 28.9645 24.375 30 24.375H33.75C34.7855 24.375 35.625 25.2145 35.625 26.25C35.625 27.2855 34.7855 28.125 33.75 28.125H30C28.9645 28.125 28.125 27.2855 28.125 26.25ZM13.125 33.75C13.125 32.7145 13.9645 31.875 15 31.875H33.75C34.7855 31.875 35.625 32.7145 35.625 33.75C35.625 34.7855 34.7855 35.625 33.75 35.625H15C13.9645 35.625 13.125 34.7855 13.125 33.75ZM13.125 41.25C13.125 40.2145 13.9645 39.375 15 39.375H33.75C34.7855 39.375 35.625 40.2145 35.625 41.25C35.625 42.2855 34.7855 43.125 33.75 43.125H15C13.9645 43.125 13.125 42.2855 13.125 41.25Z" fill="#4B515F"/>
<path fill-rule="evenodd" clip-rule="evenodd" d="M15 16.875C13.9645 16.875 13.125 17.7145 13.125 18.75V26.25C13.125 27.2855 13.9645 28.125 15 28.125H22.5C23.5355 28.125 24.375 27.2855 24.375 26.25V18.75C24.375 17.7145 23.5355 16.875 22.5 16.875H15ZM16.875 24.375V20.625H20.625V24.375H16.875Z" fill="url(#paint0_linear_549_3105)"/>
<defs>
<linearGradient id="paint0_linear_549_3105" x1="18.75" y1="16.875" x2="18.75" y2="28.125" gradientUnits="userSpaceOnUse">
<stop stop-color="#FF4910"/>
<stop offset="1" stop-color="#FF1074"/>
</linearGradient>
</defs>
</svg>
