<svg width="306" height="306" viewBox="0 0 306 306" fill="none" xmlns="http://www.w3.org/2000/svg">
<g opacity="0.8">
<circle r="7.66" transform="matrix(-1 0 0 1 8.16007 153)" stroke="url(#paint0_linear_501_16826)"/>
<circle r="11.74" transform="matrix(-1 0 0 1 12.24 153)" stroke="url(#paint1_linear_501_16826)"/>
<circle r="15.82" transform="matrix(-1 0 0 1 16.32 153)" stroke="url(#paint2_linear_501_16826)"/>
<circle r="19.9" transform="matrix(-1 0 0 1 20.4 153)" stroke="url(#paint3_linear_501_16826)"/>
<circle r="23.98" transform="matrix(-1 0 0 1 24.48 153)" stroke="url(#paint4_linear_501_16826)"/>
<circle r="28.06" transform="matrix(-1 0 0 1 28.56 153)" stroke="url(#paint5_linear_501_16826)"/>
<circle r="32.14" transform="matrix(-1 0 0 1 32.64 153)" stroke="url(#paint6_linear_501_16826)"/>
<circle r="38.26" transform="matrix(-1 0 0 1 38.76 153)" stroke="url(#paint7_linear_501_16826)"/>
<circle r="44.38" transform="matrix(-1 0 0 1 44.88 153)" stroke="url(#paint8_linear_501_16826)"/>
<circle r="50.5" transform="matrix(-1 0 0 1 51 153)" stroke="url(#paint9_linear_501_16826)"/>
<circle r="56.62" transform="matrix(-1 0 0 1 57.12 153)" stroke="url(#paint10_linear_501_16826)"/>
<circle r="62.74" transform="matrix(-1 0 0 1 63.24 153)" stroke="url(#paint11_linear_501_16826)"/>
<circle r="68.86" transform="matrix(-1 0 0 1 69.36 153)" stroke="url(#paint12_linear_501_16826)"/>
<circle r="74.98" transform="matrix(-1 0 0 1 75.48 153)" stroke="url(#paint13_linear_501_16826)"/>
<circle r="81.1" transform="matrix(-1 0 0 1 81.6 153)" stroke="url(#paint14_linear_501_16826)"/>
<circle r="87.22" transform="matrix(-1 0 0 1 87.7199 153)" stroke="url(#paint15_linear_501_16826)"/>
<circle r="7.66" transform="matrix(-1 0 0 1 8.16007 153)" stroke="url(#paint16_linear_501_16826)"/>
<circle r="11.74" transform="matrix(-1 0 0 1 12.24 153)" stroke="url(#paint17_linear_501_16826)"/>
<circle r="15.82" transform="matrix(-1 0 0 1 16.32 153)" stroke="url(#paint18_linear_501_16826)"/>
<circle r="19.9" transform="matrix(-1 0 0 1 20.4 153)" stroke="url(#paint19_linear_501_16826)"/>
<circle r="23.98" transform="matrix(-1 0 0 1 24.48 153)" stroke="url(#paint20_linear_501_16826)"/>
<circle r="28.06" transform="matrix(-1 0 0 1 28.56 153)" stroke="url(#paint21_linear_501_16826)"/>
<circle r="32.14" transform="matrix(-1 0 0 1 32.64 153)" stroke="url(#paint22_linear_501_16826)"/>
<circle r="38.26" transform="matrix(-1 0 0 1 38.76 153)" stroke="url(#paint23_linear_501_16826)"/>
<circle r="44.38" transform="matrix(-1 0 0 1 44.88 153)" stroke="url(#paint24_linear_501_16826)"/>
<circle r="50.5" transform="matrix(-1 0 0 1 51 153)" stroke="url(#paint25_linear_501_16826)"/>
<circle r="56.62" transform="matrix(-1 0 0 1 57.12 153)" stroke="url(#paint26_linear_501_16826)"/>
<circle r="62.74" transform="matrix(-1 0 0 1 63.24 153)" stroke="url(#paint27_linear_501_16826)"/>
<circle r="68.86" transform="matrix(-1 0 0 1 69.36 153)" stroke="url(#paint28_linear_501_16826)"/>
<circle r="74.98" transform="matrix(-1 0 0 1 75.48 153)" stroke="url(#paint29_linear_501_16826)"/>
<circle r="81.1" transform="matrix(-1 0 0 1 81.6 153)" stroke="url(#paint30_linear_501_16826)"/>
<circle r="87.22" transform="matrix(-1 0 0 1 87.7199 153)" stroke="url(#paint31_linear_501_16826)"/>
<circle r="93.34" transform="matrix(-1 0 0 1 93.8401 153)" stroke="url(#paint32_linear_501_16826)"/>
<circle r="99.46" transform="matrix(-1 0 0 1 99.96 153)" stroke="url(#paint33_linear_501_16826)"/>
<circle r="105.58" transform="matrix(-1 0 0 1 106.08 153)" stroke="url(#paint34_linear_501_16826)"/>
<circle r="111.7" transform="matrix(-1 0 0 1 112.2 153)" stroke="url(#paint35_linear_501_16826)"/>
<circle r="117.82" transform="matrix(-1 0 0 1 118.32 153)" stroke="url(#paint36_linear_501_16826)"/>
<circle r="125.98" transform="matrix(-1 0 0 1 126.48 153)" stroke="url(#paint37_linear_501_16826)"/>
<circle r="134.14" transform="matrix(-1 0 0 1 134.64 153)" stroke="url(#paint38_linear_501_16826)"/>
<circle r="142.3" transform="matrix(-1 0 0 1 142.8 153)" stroke="url(#paint39_linear_501_16826)"/>
<circle r="152.5" transform="matrix(-1 0 0 1 153 153)" stroke="url(#paint40_linear_501_16826)"/>
</g>
<defs>
<linearGradient id="paint0_linear_501_16826" x1="8.16" y1="0" x2="8.16" y2="16.32" gradientUnits="userSpaceOnUse">
<stop stop-color="#FF4910"/>
<stop offset="0.0001" stop-color="#E476FF"/>
<stop offset="0.536458" stop-color="#FF4910"/>
<stop offset="1" stop-color="#FF1074"/>
</linearGradient>
<linearGradient id="paint1_linear_501_16826" x1="12.24" y1="0" x2="12.24" y2="24.48" gradientUnits="userSpaceOnUse">
<stop stop-color="#FF4910"/>
<stop offset="0.0001" stop-color="#E476FF"/>
<stop offset="0.536458" stop-color="#FF4910"/>
<stop offset="1" stop-color="#FF1074"/>
</linearGradient>
<linearGradient id="paint2_linear_501_16826" x1="16.32" y1="0" x2="16.32" y2="32.64" gradientUnits="userSpaceOnUse">
<stop stop-color="#FF4910"/>
<stop offset="0.0001" stop-color="#E476FF"/>
<stop offset="0.536458" stop-color="#FF4910"/>
<stop offset="1" stop-color="#FF1074"/>
</linearGradient>
<linearGradient id="paint3_linear_501_16826" x1="20.4" y1="0" x2="20.4" y2="40.8" gradientUnits="userSpaceOnUse">
<stop stop-color="#FF4910"/>
<stop offset="0.0001" stop-color="#E476FF"/>
<stop offset="0.536458" stop-color="#FF4910"/>
<stop offset="1" stop-color="#FF1074"/>
</linearGradient>
<linearGradient id="paint4_linear_501_16826" x1="24.48" y1="0" x2="24.48" y2="48.96" gradientUnits="userSpaceOnUse">
<stop stop-color="#FF4910"/>
<stop offset="0.0001" stop-color="#E476FF"/>
<stop offset="0.536458" stop-color="#FF4910"/>
<stop offset="1" stop-color="#FF1074"/>
</linearGradient>
<linearGradient id="paint5_linear_501_16826" x1="28.56" y1="0" x2="28.56" y2="57.12" gradientUnits="userSpaceOnUse">
<stop stop-color="#FF4910"/>
<stop offset="0.0001" stop-color="#E476FF"/>
<stop offset="0.536458" stop-color="#FF4910"/>
<stop offset="1" stop-color="#FF1074"/>
</linearGradient>
<linearGradient id="paint6_linear_501_16826" x1="32.64" y1="0" x2="32.64" y2="65.28" gradientUnits="userSpaceOnUse">
<stop stop-color="#FF4910"/>
<stop offset="0.0001" stop-color="#E476FF"/>
<stop offset="0.536458" stop-color="#FF4910"/>
<stop offset="1" stop-color="#FF1074"/>
</linearGradient>
<linearGradient id="paint7_linear_501_16826" x1="38.76" y1="0" x2="38.76" y2="77.52" gradientUnits="userSpaceOnUse">
<stop stop-color="#FF4910"/>
<stop offset="0.0001" stop-color="#E476FF"/>
<stop offset="0.536458" stop-color="#FF4910"/>
<stop offset="1" stop-color="#FF1074"/>
</linearGradient>
<linearGradient id="paint8_linear_501_16826" x1="44.88" y1="0" x2="44.88" y2="89.76" gradientUnits="userSpaceOnUse">
<stop stop-color="#FF4910"/>
<stop offset="0.0001" stop-color="#E476FF"/>
<stop offset="0.536458" stop-color="#FF4910"/>
<stop offset="1" stop-color="#FF1074"/>
</linearGradient>
<linearGradient id="paint9_linear_501_16826" x1="51" y1="0" x2="51" y2="102" gradientUnits="userSpaceOnUse">
<stop stop-color="#FF4910"/>
<stop offset="0.0001" stop-color="#E476FF"/>
<stop offset="0.536458" stop-color="#FF4910"/>
<stop offset="1" stop-color="#FF1074"/>
</linearGradient>
<linearGradient id="paint10_linear_501_16826" x1="57.12" y1="0" x2="57.12" y2="114.24" gradientUnits="userSpaceOnUse">
<stop stop-color="#FF4910"/>
<stop offset="0.0001" stop-color="#E476FF"/>
<stop offset="0.536458" stop-color="#FF4910"/>
<stop offset="1" stop-color="#FF1074"/>
</linearGradient>
<linearGradient id="paint11_linear_501_16826" x1="63.24" y1="0" x2="63.24" y2="126.48" gradientUnits="userSpaceOnUse">
<stop stop-color="#FF4910"/>
<stop offset="0.0001" stop-color="#E476FF"/>
<stop offset="0.536458" stop-color="#FF4910"/>
<stop offset="1" stop-color="#FF1074"/>
</linearGradient>
<linearGradient id="paint12_linear_501_16826" x1="69.36" y1="0" x2="69.36" y2="138.72" gradientUnits="userSpaceOnUse">
<stop stop-color="#FF4910"/>
<stop offset="0.0001" stop-color="#E476FF"/>
<stop offset="0.536458" stop-color="#FF4910"/>
<stop offset="1" stop-color="#FF1074"/>
</linearGradient>
<linearGradient id="paint13_linear_501_16826" x1="75.48" y1="0" x2="75.48" y2="150.96" gradientUnits="userSpaceOnUse">
<stop stop-color="#FF4910"/>
<stop offset="0.0001" stop-color="#E476FF"/>
<stop offset="0.536458" stop-color="#FF4910"/>
<stop offset="1" stop-color="#FF1074"/>
</linearGradient>
<linearGradient id="paint14_linear_501_16826" x1="81.6" y1="0" x2="81.6" y2="163.2" gradientUnits="userSpaceOnUse">
<stop stop-color="#FF4910"/>
<stop offset="0.0001" stop-color="#E476FF"/>
<stop offset="0.536458" stop-color="#FF4910"/>
<stop offset="1" stop-color="#FF1074"/>
</linearGradient>
<linearGradient id="paint15_linear_501_16826" x1="87.72" y1="0" x2="87.72" y2="175.44" gradientUnits="userSpaceOnUse">
<stop stop-color="#FF4910"/>
<stop offset="0.0001" stop-color="#E476FF"/>
<stop offset="0.536458" stop-color="#FF4910"/>
<stop offset="1" stop-color="#FF1074"/>
</linearGradient>
<linearGradient id="paint16_linear_501_16826" x1="8.16" y1="0" x2="8.16" y2="16.32" gradientUnits="userSpaceOnUse">
<stop stop-color="#FF4910"/>
<stop offset="0.0001" stop-color="#E476FF"/>
<stop offset="0.536458" stop-color="#FF4910"/>
<stop offset="1" stop-color="#FF1074"/>
</linearGradient>
<linearGradient id="paint17_linear_501_16826" x1="12.24" y1="0" x2="12.24" y2="24.48" gradientUnits="userSpaceOnUse">
<stop stop-color="#FF4910"/>
<stop offset="0.0001" stop-color="#E476FF"/>
<stop offset="0.536458" stop-color="#FF4910"/>
<stop offset="1" stop-color="#FF1074"/>
</linearGradient>
<linearGradient id="paint18_linear_501_16826" x1="16.32" y1="0" x2="16.32" y2="32.64" gradientUnits="userSpaceOnUse">
<stop stop-color="#FF4910"/>
<stop offset="0.0001" stop-color="#E476FF"/>
<stop offset="0.536458" stop-color="#FF4910"/>
<stop offset="1" stop-color="#FF1074"/>
</linearGradient>
<linearGradient id="paint19_linear_501_16826" x1="20.4" y1="0" x2="20.4" y2="40.8" gradientUnits="userSpaceOnUse">
<stop stop-color="#FF4910"/>
<stop offset="0.0001" stop-color="#E476FF"/>
<stop offset="0.536458" stop-color="#FF4910"/>
<stop offset="1" stop-color="#FF1074"/>
</linearGradient>
<linearGradient id="paint20_linear_501_16826" x1="24.48" y1="0" x2="24.48" y2="48.96" gradientUnits="userSpaceOnUse">
<stop stop-color="#FF4910"/>
<stop offset="0.0001" stop-color="#E476FF"/>
<stop offset="0.536458" stop-color="#FF4910"/>
<stop offset="1" stop-color="#FF1074"/>
</linearGradient>
<linearGradient id="paint21_linear_501_16826" x1="28.56" y1="0" x2="28.56" y2="57.12" gradientUnits="userSpaceOnUse">
<stop stop-color="#FF4910"/>
<stop offset="0.0001" stop-color="#E476FF"/>
<stop offset="0.536458" stop-color="#FF4910"/>
<stop offset="1" stop-color="#FF1074"/>
</linearGradient>
<linearGradient id="paint22_linear_501_16826" x1="32.64" y1="0" x2="32.64" y2="65.28" gradientUnits="userSpaceOnUse">
<stop stop-color="#FF4910"/>
<stop offset="0.0001" stop-color="#E476FF"/>
<stop offset="0.536458" stop-color="#FF4910"/>
<stop offset="1" stop-color="#FF1074"/>
</linearGradient>
<linearGradient id="paint23_linear_501_16826" x1="38.76" y1="0" x2="38.76" y2="77.52" gradientUnits="userSpaceOnUse">
<stop stop-color="#FF4910"/>
<stop offset="0.0001" stop-color="#E476FF"/>
<stop offset="0.536458" stop-color="#FF4910"/>
<stop offset="1" stop-color="#FF1074"/>
</linearGradient>
<linearGradient id="paint24_linear_501_16826" x1="44.88" y1="0" x2="44.88" y2="89.76" gradientUnits="userSpaceOnUse">
<stop stop-color="#FF4910"/>
<stop offset="0.0001" stop-color="#E476FF"/>
<stop offset="0.536458" stop-color="#FF4910"/>
<stop offset="1" stop-color="#FF1074"/>
</linearGradient>
<linearGradient id="paint25_linear_501_16826" x1="51" y1="0" x2="51" y2="102" gradientUnits="userSpaceOnUse">
<stop stop-color="#FF4910"/>
<stop offset="0.0001" stop-color="#E476FF"/>
<stop offset="0.536458" stop-color="#FF4910"/>
<stop offset="1" stop-color="#FF1074"/>
</linearGradient>
<linearGradient id="paint26_linear_501_16826" x1="57.12" y1="0" x2="57.12" y2="114.24" gradientUnits="userSpaceOnUse">
<stop stop-color="#FF4910"/>
<stop offset="0.0001" stop-color="#E476FF"/>
<stop offset="0.536458" stop-color="#FF4910"/>
<stop offset="1" stop-color="#FF1074"/>
</linearGradient>
<linearGradient id="paint27_linear_501_16826" x1="63.24" y1="0" x2="63.24" y2="126.48" gradientUnits="userSpaceOnUse">
<stop stop-color="#FF4910"/>
<stop offset="0.0001" stop-color="#E476FF"/>
<stop offset="0.536458" stop-color="#FF4910"/>
<stop offset="1" stop-color="#FF1074"/>
</linearGradient>
<linearGradient id="paint28_linear_501_16826" x1="69.36" y1="0" x2="69.36" y2="138.72" gradientUnits="userSpaceOnUse">
<stop stop-color="#FF4910"/>
<stop offset="0.0001" stop-color="#E476FF"/>
<stop offset="0.536458" stop-color="#FF4910"/>
<stop offset="1" stop-color="#FF1074"/>
</linearGradient>
<linearGradient id="paint29_linear_501_16826" x1="75.48" y1="0" x2="75.48" y2="150.96" gradientUnits="userSpaceOnUse">
<stop stop-color="#FF4910"/>
<stop offset="0.0001" stop-color="#E476FF"/>
<stop offset="0.536458" stop-color="#FF4910"/>
<stop offset="1" stop-color="#FF1074"/>
</linearGradient>
<linearGradient id="paint30_linear_501_16826" x1="81.6" y1="0" x2="81.6" y2="163.2" gradientUnits="userSpaceOnUse">
<stop stop-color="#FF4910"/>
<stop offset="0.0001" stop-color="#E476FF"/>
<stop offset="0.536458" stop-color="#FF4910"/>
<stop offset="1" stop-color="#FF1074"/>
</linearGradient>
<linearGradient id="paint31_linear_501_16826" x1="87.72" y1="0" x2="87.72" y2="175.44" gradientUnits="userSpaceOnUse">
<stop stop-color="#FF4910"/>
<stop offset="0.0001" stop-color="#E476FF"/>
<stop offset="0.536458" stop-color="#FF4910"/>
<stop offset="1" stop-color="#FF1074"/>
</linearGradient>
<linearGradient id="paint32_linear_501_16826" x1="93.84" y1="0" x2="93.84" y2="187.68" gradientUnits="userSpaceOnUse">
<stop stop-color="#FF4910"/>
<stop offset="0.0001" stop-color="#E476FF"/>
<stop offset="0.536458" stop-color="#FF4910"/>
<stop offset="1" stop-color="#FF1074"/>
</linearGradient>
<linearGradient id="paint33_linear_501_16826" x1="99.96" y1="0" x2="99.96" y2="199.92" gradientUnits="userSpaceOnUse">
<stop stop-color="#FF4910"/>
<stop offset="0.0001" stop-color="#E476FF"/>
<stop offset="0.536458" stop-color="#FF4910"/>
<stop offset="1" stop-color="#FF1074"/>
</linearGradient>
<linearGradient id="paint34_linear_501_16826" x1="106.08" y1="0" x2="106.08" y2="212.16" gradientUnits="userSpaceOnUse">
<stop stop-color="#FF4910"/>
<stop offset="0.0001" stop-color="#E476FF"/>
<stop offset="0.536458" stop-color="#FF4910"/>
<stop offset="1" stop-color="#FF1074"/>
</linearGradient>
<linearGradient id="paint35_linear_501_16826" x1="112.2" y1="0" x2="112.2" y2="224.4" gradientUnits="userSpaceOnUse">
<stop stop-color="#FF4910"/>
<stop offset="0.0001" stop-color="#E476FF"/>
<stop offset="0.536458" stop-color="#FF4910"/>
<stop offset="1" stop-color="#FF1074"/>
</linearGradient>
<linearGradient id="paint36_linear_501_16826" x1="118.32" y1="0" x2="118.32" y2="236.64" gradientUnits="userSpaceOnUse">
<stop stop-color="#FF4910"/>
<stop offset="0.0001" stop-color="#E476FF"/>
<stop offset="0.536458" stop-color="#FF4910"/>
<stop offset="1" stop-color="#FF1074"/>
</linearGradient>
<linearGradient id="paint37_linear_501_16826" x1="126.48" y1="0" x2="126.48" y2="252.96" gradientUnits="userSpaceOnUse">
<stop stop-color="#FF4910"/>
<stop offset="0.0001" stop-color="#E476FF"/>
<stop offset="0.536458" stop-color="#FF4910"/>
<stop offset="1" stop-color="#FF1074"/>
</linearGradient>
<linearGradient id="paint38_linear_501_16826" x1="134.64" y1="0" x2="134.64" y2="269.28" gradientUnits="userSpaceOnUse">
<stop stop-color="#FF4910"/>
<stop offset="0.0001" stop-color="#E476FF"/>
<stop offset="0.536458" stop-color="#FF4910"/>
<stop offset="1" stop-color="#FF1074"/>
</linearGradient>
<linearGradient id="paint39_linear_501_16826" x1="142.8" y1="0" x2="142.8" y2="285.6" gradientUnits="userSpaceOnUse">
<stop stop-color="#FF4910"/>
<stop offset="0.0001" stop-color="#E476FF"/>
<stop offset="0.536458" stop-color="#FF4910"/>
<stop offset="1" stop-color="#FF1074"/>
</linearGradient>
<linearGradient id="paint40_linear_501_16826" x1="153" y1="0" x2="153" y2="306" gradientUnits="userSpaceOnUse">
<stop stop-color="#FF4910"/>
<stop offset="0.0001" stop-color="#E476FF"/>
<stop offset="0.536458" stop-color="#FF4910"/>
<stop offset="1" stop-color="#FF1074"/>
</linearGradient>
</defs>
</svg>
