<svg width="150" height="150" viewBox="0 0 150 150" fill="none" xmlns="http://www.w3.org/2000/svg">
<mask id="mask0_519_2617" style="mask-type:alpha" maskUnits="userSpaceOnUse" x="0" y="0" width="150" height="150">
<circle cx="75" cy="75" r="75" fill="#EB5C5B"/>
</mask>
<g mask="url(#mask0_519_2617)">
<circle cx="75" cy="75" r="75" fill="url(#paint0_linear_519_2617)"/>
<path d="M30.8794 95.7604C29.0692 93.9554 27.2591 92.2565 25.449 90.4515C36.8421 92.9998 48.2353 95.4419 59.6284 97.9902C63.4617 98.8396 67.2949 99.7951 71.1281 98.4148C77.3038 96.2913 83.4795 94.274 89.6553 92.1504C101.048 88.328 112.442 84.5056 123.835 80.6832C124.793 80.3647 125.858 80.3647 125.751 78.772C125.645 73.8879 125.751 69.0037 125.751 64.1196C125.325 64.1196 125.219 64.1196 125.112 64.1196C108.608 69.747 92.1042 75.3744 75.4937 80.8956C71.6605 82.1697 67.8273 84.8242 63.4617 82.1697C65.8042 85.0365 66.3366 86.7353 65.8042 90.2392C65.2718 93.3183 63.3552 95.9728 59.6284 94.6986C57.7118 94.0616 55.5823 93.8492 53.6657 93.4245C47.1705 92.1504 40.5689 90.7701 33.8608 89.3898C36.9486 85.7797 38.2264 81.8512 37.0551 77.3917C36.6292 75.7991 36.5227 73.8879 35.032 73.1446C33.4348 72.4014 31.5182 72.2952 29.6016 72.4014C29.8146 73.0385 30.0276 73.5694 30.134 74.1003C28.9628 74.2064 28.7498 73.1446 28.1109 72.6138C26.3008 70.9149 24.7036 69.1099 23 67.4111C23.6389 67.5172 24.2777 67.6234 24.9166 67.8358C36.3098 70.384 47.7029 72.8261 58.9896 75.3743C63.7811 76.4361 68.4661 76.8608 73.1512 75.3743C88.5905 70.384 104.03 65.3937 119.469 60.4034C121.386 59.7663 123.941 59.6601 125.112 58.2798C126.284 56.7934 125.432 54.2451 125.432 52.1216C125.538 49.2548 125.432 46.388 125.432 43.5212C125.432 41.61 125.538 39.805 125.006 38C129.904 42.8842 134.802 47.8744 139.7 52.7586C148.218 61.2528 156.736 69.747 165.574 78.5597C165.574 74.8435 165.574 71.3396 165.574 67.8358C165.681 68.0481 165.787 68.3667 166 68.579C166 72.4014 166 76.2238 166 80.0462C166 80.1524 165.894 80.3647 165.894 80.4709C165.361 83.3377 165.042 86.3106 164.829 89.1774C164.19 89.6021 164.616 90.3454 164.509 90.8763C163.977 92.6813 163.445 94.5925 163.019 96.3975C162.38 98.6272 161.847 100.963 161.315 103.193C160.463 104.255 160.25 105.635 159.931 106.909C158.121 110.838 156.417 114.766 154.287 118.589C153.862 119.332 153.116 119.969 152.903 121.031C152.264 121.986 151.519 122.836 151.093 123.897C149.815 125.278 148.857 126.764 148.005 128.463C147.792 128.675 147.473 128.994 147.26 129.206C146.195 130.799 144.598 131.967 143.746 133.772C143.001 134.197 142.468 134.834 141.936 135.577C140.871 136.745 139.806 137.913 138.848 139.081C137.996 139.824 137.144 140.567 136.293 141.204C135.121 142.266 133.95 143.328 132.779 144.283C132.14 144.814 131.608 145.239 130.969 145.77C127.774 148 124.687 150.229 121.492 152.353C119.682 153.308 117.978 154.264 116.168 155.22C116.062 155.326 115.955 155.432 115.849 155.432C113.719 156.388 111.59 157.343 109.46 158.299C106.692 159.361 103.817 160.316 101.048 161.378C98.5994 161.803 96.2569 162.546 93.9144 163.183C92.8496 163.077 91.7848 163.608 90.8265 163.82C88.2711 163.926 85.8221 164.457 83.3731 164.882C81.6694 163.926 79.8593 165.413 78.1556 164.882C78.5815 164.563 79.3269 164.457 78.4751 163.608C74.2159 159.467 70.0633 155.326 65.9106 151.185C62.5033 147.787 59.2025 144.39 55.7952 140.992C48.1288 133.347 40.3559 125.596 32.6895 117.951C30.5599 115.828 28.4304 113.704 26.4073 111.581C37.8004 114.129 49.1936 116.571 60.4803 119.226C64.7394 120.181 68.892 120.394 73.0447 118.801C90.0812 112.324 107.224 105.953 124.367 99.689C125.538 99.2643 125.751 98.7333 125.751 97.6716C125.645 93.5307 125.751 89.2836 125.751 84.9303C123.409 85.7797 121.279 86.4168 119.15 87.1601C103.497 92.4689 87.8451 97.6716 72.1929 103.087C69.4244 104.042 66.7625 104.679 63.994 103.405C63.994 103.405 63.8876 103.511 63.7811 103.511C65.9106 105.847 66.656 108.396 66.0171 111.368C65.2718 114.66 63.1422 116.465 59.7349 115.722C51.962 113.917 44.0826 112.536 36.2033 111.05C34.9255 110.838 34.819 110.519 35.5644 109.563C38.8652 105.104 38.8652 100.432 36.6292 95.548C36.3097 94.6986 35.6709 94.3801 34.9256 94.274C33.4349 94.0616 31.9441 93.8492 30.347 93.6369C30.4535 94.8048 30.6664 95.2295 30.8794 95.7604Z" fill="url(#paint1_linear_519_2617)"/>
<g filter="url(#filter0_dd_519_2617)">
<path fill-rule="evenodd" clip-rule="evenodd" d="M125.275 38.5668C125.732 40.1144 125.718 41.7401 125.705 43.3099C125.703 43.5694 125.701 43.8281 125.701 44.084C125.701 45.0388 125.713 45.9937 125.725 46.9486C125.748 48.8584 125.772 50.7682 125.701 52.678C125.701 53.3081 125.776 53.9756 125.851 54.6417C126.028 56.2187 126.205 57.7874 125.382 58.8317C124.624 59.8138 123.111 60.1504 121.572 60.4927C120.95 60.6311 120.323 60.7704 119.741 60.9537L73.4459 75.9136C68.7631 77.399 63.974 76.9746 59.2912 75.9136C53.5973 74.6404 47.9299 73.3937 42.2625 72.147C36.5956 70.9004 30.9285 69.6537 25.235 68.3806C24.5964 68.2745 23.9578 68.1684 23.3193 67.9562C23.5024 67.7545 23.6863 67.5536 23.8702 67.3528C25.7172 65.336 27.5566 63.3276 28.4277 60.5293C29.3856 57.2402 28.9599 54.2694 27.6827 51.1926C27.3635 50.4499 26.7249 50.2377 26.0864 50.1316C23.9578 49.7072 23 48.5401 23 46.7364C23 44.8266 23.745 44.084 25.8735 43.4474C32.2591 41.6967 38.6713 39.9196 45.0835 38.1424C51.4956 36.3653 57.9077 34.5881 64.2933 32.8375C65.3211 32.5529 66.3455 32.2683 67.3677 31.9842L67.371 31.9833C72.0633 30.6796 76.7098 29.3886 81.4278 28.1691C82.9817 27.7615 84.4727 28.1683 85.9491 28.5711C86.394 28.6925 86.8377 28.8136 87.2813 28.9119C95.3661 30.6704 103.4 32.5302 111.419 34.3863C115.011 35.2178 118.6 36.0486 122.189 36.8693C123.36 37.0815 124.424 37.6119 125.275 38.5668ZM43.7863 68.9379C49.3587 70.0445 54.8749 71.1398 60.3555 72.3063C62.0583 72.6246 63.229 72.094 64.1868 70.8209C67.6989 65.9403 65.3575 59.2561 59.5041 57.7707C54.0764 56.3914 48.5422 55.1182 43.0081 53.8451C39.3896 52.9963 35.7711 52.1475 32.0462 51.1926C34.7069 56.4975 35.239 61.4842 31.5141 66.4708C35.6398 67.3203 39.7282 68.1321 43.7863 68.9379Z" fill="url(#paint2_linear_519_2617)"/>
<path d="M30.5576 74.4966C30.3827 74.0658 30.2797 73.706 30.1303 73.1837C30.0981 73.0713 30.0638 72.9514 30.0262 72.8217C31.9393 72.717 33.8524 72.8217 35.4466 73.5545C36.7855 74.2138 37.0917 75.8055 37.372 77.2618C37.4032 77.424 37.4341 77.5845 37.466 77.7419C38.6351 82.1386 37.3597 86.012 34.2775 89.5712C36.2047 89.9568 38.1063 90.334 39.9895 90.7075L39.9988 90.7093C44.7593 91.6536 49.4028 92.5746 54.0462 93.5493C54.7001 93.6848 55.3539 93.7985 56.0042 93.9115C57.3622 94.1475 58.7044 94.3808 59.9981 94.8055C63.718 95.957 65.7374 93.4446 66.1625 90.4087C66.6939 86.9541 66.1625 85.2792 63.8243 82.4527C67.3383 84.4788 70.5068 83.2371 73.6084 82.0217C74.3529 81.7299 75.0937 81.4396 75.8343 81.1965C84.7763 78.2606 93.6873 75.2639 102.584 72.2719L102.586 72.2714C110.185 69.7158 117.774 67.1638 125.362 64.6562H126C126 66.2614 125.988 67.8666 125.976 69.4718C125.953 72.6821 125.929 75.8924 126 79.1028C126 80.4113 125.262 80.6294 124.524 80.8475C124.376 80.8911 124.229 80.9347 124.087 80.9871L89.97 92.293C86.8878 93.3399 83.8056 94.3605 80.7234 95.3812C77.6412 96.4019 74.5589 97.4226 71.4767 98.4695C67.7476 99.76 64.2096 98.9795 60.5909 98.1811C60.3935 98.1376 60.1959 98.094 59.9981 98.0507C48.6257 95.5383 37.2534 93.0258 25.8811 90.6181C28.3256 88.315 30.5576 86.012 31.3016 82.6621C31.833 80.2543 31.833 77.8465 30.7701 75.4388C30.8764 75.02 30.9827 74.6013 30.5576 74.4966Z" fill="url(#paint3_linear_519_2617)"/>
<path d="M30.7391 94.6742C30.8452 95.009 30.9383 95.3029 31.0759 95.6404C32.9936 100.345 32.3544 104.631 29.2648 108.708C28.9053 109.193 28.4889 109.585 28.0795 109.971C27.5186 110.499 26.971 111.014 26.6014 111.74C32.3004 112.994 37.9729 114.248 43.6453 115.503C49.319 116.757 54.9927 118.012 60.6931 119.267C64.9546 120.207 69.1095 120.417 73.2644 118.848C85.6406 114.247 97.9614 109.755 110.307 105.253C115.071 103.516 119.839 101.778 124.615 100.031C125.787 99.613 126 99.0902 126 98.0448V85.5C123.657 86.2315 121.527 86.963 119.397 87.6945L119.395 87.6954C114.175 89.4377 108.954 91.1683 103.734 92.899C93.2936 96.3605 82.8529 99.822 72.4121 103.376C69.6422 104.317 66.9787 104.945 64.2088 103.69C64.2088 103.638 64.1822 103.664 64.1422 103.703C64.1022 103.742 64.049 103.795 63.9957 103.795C66.1264 105.99 66.9787 108.499 66.233 111.531C65.4872 114.771 63.25 116.548 59.9473 115.817C53.67 114.382 47.3232 113.22 40.963 112.056C39.4435 111.778 37.9231 111.499 36.4028 111.217C35.1243 111.008 35.0178 110.694 35.7635 109.753C39.0662 105.363 39.0662 100.763 36.8289 95.954C36.4027 95.2223 35.8701 94.8041 35.1243 94.6996L35.1137 94.6981C33.6257 94.4895 32.1375 94.2809 30.5432 94.0723C30.6187 94.2945 30.6808 94.4905 30.7391 94.6742Z" fill="url(#paint4_linear_519_2617)"/>
</g>
</g>
<defs>
<filter id="filter0_dd_519_2617" x="12.8305" y="21.6441" width="120.797" height="109.797" filterUnits="userSpaceOnUse" color-interpolation-filters="sRGB">
<feFlood flood-opacity="0" result="BackgroundImageFix"/>
<feColorMatrix in="SourceAlpha" type="matrix" values="0 0 0 0 0 0 0 0 0 0 0 0 0 0 0 0 0 0 127 0" result="hardAlpha"/>
<feOffset dx="-1.27119" dy="2.54237"/>
<feGaussianBlur stdDeviation="4.44915"/>
<feComposite in2="hardAlpha" operator="out"/>
<feColorMatrix type="matrix" values="0 0 0 0 0.0894444 0 0 0 0 0.1729 0 0 0 0 0.233333 0 0 0 0.11 0"/>
<feBlend mode="normal" in2="BackgroundImageFix" result="effect1_dropShadow_519_2617"/>
<feColorMatrix in="SourceAlpha" type="matrix" values="0 0 0 0 0 0 0 0 0 0 0 0 0 0 0 0 0 0 127 0" result="hardAlpha"/>
<feOffset dx="-1.27119" dy="1.27119"/>
<feGaussianBlur stdDeviation="1.27119"/>
<feComposite in2="hardAlpha" operator="out"/>
<feColorMatrix type="matrix" values="0 0 0 0 0.151562 0 0 0 0 0.334781 0 0 0 0 0.375 0 0 0 0.25 0"/>
<feBlend mode="normal" in2="effect1_dropShadow_519_2617" result="effect2_dropShadow_519_2617"/>
<feBlend mode="normal" in="SourceGraphic" in2="effect2_dropShadow_519_2617" result="shape"/>
</filter>
<linearGradient id="paint0_linear_519_2617" x1="75" y1="0" x2="75" y2="150" gradientUnits="userSpaceOnUse">
<stop stop-color="#FF4910"/>
<stop offset="1" stop-color="#FF1074"/>
</linearGradient>
<linearGradient id="paint1_linear_519_2617" x1="80.5" y1="78.5" x2="123" y2="127" gradientUnits="userSpaceOnUse">
<stop stop-color="#D42727"/>
<stop offset="1" stop-color="#D42727" stop-opacity="0"/>
</linearGradient>
<linearGradient id="paint2_linear_519_2617" x1="106.266" y1="29.4375" x2="41.1855" y2="117.882" gradientUnits="userSpaceOnUse">
<stop stop-color="#CADAE4"/>
<stop offset="0.704033" stop-color="white"/>
</linearGradient>
<linearGradient id="paint3_linear_519_2617" x1="106.266" y1="29.4375" x2="41.1855" y2="117.882" gradientUnits="userSpaceOnUse">
<stop stop-color="#CADAE4"/>
<stop offset="0.704033" stop-color="white"/>
</linearGradient>
<linearGradient id="paint4_linear_519_2617" x1="106.266" y1="29.4375" x2="41.1855" y2="117.882" gradientUnits="userSpaceOnUse">
<stop stop-color="#CADAE4"/>
<stop offset="0.704033" stop-color="white"/>
</linearGradient>
</defs>
</svg>
