<svg width="150" height="150" viewBox="0 0 150 150" fill="none" xmlns="http://www.w3.org/2000/svg">
<mask id="mask0_519_2621" style="mask-type:alpha" maskUnits="userSpaceOnUse" x="0" y="0" width="150" height="150">
<circle cx="75" cy="75" r="75" fill="#EB5C5B"/>
</mask>
<g mask="url(#mask0_519_2621)">
<circle cx="75" cy="75" r="75" fill="url(#paint0_linear_519_2621)"/>
<path d="M159.5 62.5L120.5 41C117 43.8333 109.6 49.5 108 49.5C106 49.5 99.5 52 98 51.5C96.5 51 78 48 76.5 47C75.3 46.2 53.6667 48.3333 43 49.5L39 44.5L35 43L17 73.5C35 101.5 71.4 158.4 73 162C75 166.5 105 162 106 162C106.8 162 124.667 156 133.5 153L159.5 62.5Z" fill="url(#paint1_linear_519_2621)"/>
<g filter="url(#filter0_dd_519_2621)">
<path d="M60.3584 93.8949C60.8509 89.844 58.0115 86.3176 53.9841 85.9971C53.2597 85.9388 52.5064 86.0554 51.84 86.2885C51.2895 86.4925 51.1446 86.3176 50.9707 85.8222C49.3482 81.6256 44.2487 80.1393 40.627 82.733C39.2942 83.6947 38.5698 85.1228 37.8455 86.5217C37.5268 87.1337 37.3529 87.0462 36.9183 86.6965C35.7304 85.6765 34.4555 84.7148 33.2965 83.6656C31.5871 82.121 30.6019 80.1684 30.3701 77.8369C30.1673 75.7386 30.6309 73.8151 31.5291 71.95C34.6583 65.5093 37.7296 59.0686 40.8298 52.5988C41.6121 50.9667 42.3944 49.3638 43.1477 47.7027C43.2926 47.353 43.4085 47.3238 43.7562 47.4404C46.0162 48.2273 48.3341 48.7227 50.71 48.9267C52.5643 49.0724 54.4187 49.0724 56.273 48.8976C60.1845 48.5187 63.9801 47.353 67.9206 46.9741C68.0075 46.9741 68.0655 47.0032 68.2973 47.0324C67.0224 48.0232 65.8055 48.9267 64.6465 49.8884C61.2276 52.7445 57.3161 54.7554 53.4625 56.8828C51.811 57.7863 50.3043 58.9229 49.1454 60.4966C47.0592 63.3527 47.4069 67.491 50.0146 70.2014C52.1587 72.4163 54.9112 73.378 57.8086 74.0483C63.8353 75.5055 69.1375 73.6694 74.179 70.5219C75.1352 69.9391 76.0334 69.2688 76.9605 68.6276C77.3662 68.3362 77.6849 68.3362 78.1195 68.6276C83.7115 72.2705 89.3035 75.9135 94.9245 79.5272C98.1116 81.5673 101.386 83.4907 104.515 85.6182C107.876 87.9205 111.121 90.3686 114.395 92.7583C115.699 93.7201 116.249 95.6727 115.728 97.3338C115.264 98.8493 113.642 99.9859 112.048 100.073C110.31 100.19 109.18 99.1116 107.934 98.2081C103.037 94.5944 98.1406 90.9514 93.244 87.3085C92.8963 87.0462 92.7224 86.9588 92.4907 87.396C92.3748 87.6582 92.1719 87.8622 91.9981 88.0662C91.0999 89.2903 91.0999 89.2903 92.3747 90.2229C97.4742 93.9824 102.574 97.771 107.673 101.53C110.136 103.337 110.397 106.543 108.311 108.583C106.949 109.924 104.457 110.215 102.863 109.079C99.908 106.951 96.9816 104.765 94.0263 102.58C91.4766 100.685 88.8979 98.8202 86.3771 96.8967C85.8846 96.5178 85.6528 96.6053 85.421 97.0716C85.392 97.159 85.334 97.2173 85.2761 97.2756C84.1751 98.8202 84.1751 98.8202 85.6528 99.8985C89.9989 103.104 94.374 106.339 98.7201 109.574C99.9949 110.536 100.748 111.789 100.603 113.421C100.401 115.315 99.3575 116.598 97.5032 117.093C96.2863 117.414 95.1273 117.21 94.0842 116.423C91.5055 114.499 88.9268 112.605 86.3771 110.711C84.2041 109.079 82.002 107.447 79.829 105.815C79.4813 105.552 79.2205 105.581 79.0177 105.989C78.9018 106.223 78.7279 106.397 78.5831 106.601C77.6849 107.855 77.6849 107.855 78.9597 108.816C80.7851 110.157 82.6395 111.498 84.4358 112.867C86.9276 114.762 86.6669 118.317 83.9143 119.512C82.6974 120.037 81.3646 120.007 80.2346 119.162C78.1485 117.647 76.0913 116.073 74.0052 114.558C73.5416 114.208 73.4257 113.916 73.7734 113.392C74.6426 112.08 75.309 110.652 75.28 109.049C75.1931 106.252 73.7154 103.6 70.6442 102.551C69.9778 102.317 69.3114 102.142 68.587 102.201C68.0365 102.259 67.8337 102.055 67.9206 101.501C68.4132 97.771 65.9504 94.6818 62.5604 93.9532C61.836 93.8658 61.1117 93.9241 60.3584 93.8949Z" fill="url(#paint2_linear_519_2621)"/>
<path d="M79.3074 46.6244C83.6825 46.7118 87.9997 47.2947 92.2878 48.2273C97.9088 49.4513 103.472 49.3638 108.948 47.5278C109.527 47.3238 109.73 47.4404 109.991 47.9941C113.874 56.1543 117.785 64.2853 121.639 72.4745C123.58 76.6129 122.769 80.7804 119.523 83.7239C118.278 84.8313 116.8 85.3559 115.148 85.4433C110.889 85.6765 107.209 84.1902 103.733 81.917C97.6191 77.9244 91.4476 74.0483 85.3051 70.1431C82.9582 68.6568 80.6402 67.1122 78.3223 65.5676C77.6559 65.1304 77.2213 64.9847 76.468 65.5967C74.0631 67.5493 71.4554 69.1813 68.616 70.4345C64.8204 72.0957 60.9668 72.154 57.0263 71.0465C54.9692 70.4636 53.0859 69.6185 51.6371 67.9573C49.8987 65.9464 50.2174 62.7989 52.2166 61.0503C53.8682 59.6223 55.7515 58.5732 57.6927 57.6406C61.4594 55.8045 64.7334 53.2691 68.0075 50.6753C69.746 49.3056 71.3975 47.7901 73.6285 47.2364C75.4828 46.7701 77.3662 46.5369 79.3074 46.6244Z" fill="url(#paint3_linear_519_2621)"/>
<path d="M127.752 77.4289C127.057 77.3998 126.709 76.8461 126.419 76.2632C124.391 72.0083 122.363 67.7242 120.335 63.4692C117.582 57.6988 114.83 51.9285 112.077 46.1872C111.961 45.9249 111.845 45.6626 111.758 45.4003C111.324 44.4095 111.556 43.7683 112.483 43.302C114.627 42.2529 116.771 41.2328 118.915 40.2128C119.842 39.7757 120.538 40.0088 121.001 40.9414C124.13 47.5278 127.26 54.1142 130.389 60.6715C132.127 64.3435 133.895 67.9865 135.633 71.6294C136.3 73.0283 136.097 73.6403 134.706 74.3106C132.823 75.214 130.968 76.1175 129.114 76.9918C128.65 77.2249 128.274 77.4581 127.752 77.4289Z" fill="url(#paint4_linear_519_2621)"/>
<path d="M17.0131 72.766C16.9551 72.4454 17.1 72.1248 17.2449 71.8042C20.0843 65.8881 22.8948 59.972 25.7343 54.0559C27.7625 49.7427 29.8196 45.4003 31.8768 41.058C32.3694 40.038 33.0647 39.7465 34.0499 40.242C36.136 41.262 38.2511 42.2529 40.3372 43.2729C41.3513 43.7683 41.6411 44.526 41.1485 45.5752C38.338 51.4622 35.5275 57.3491 32.7171 63.2361C30.6599 67.5785 28.6027 71.9208 26.5456 76.2632C25.9371 77.5455 25.3287 77.7495 24.0538 77.1375C22.0256 76.1466 19.9684 75.1849 17.9113 74.194C17.3318 73.9026 16.9551 73.4946 17.0131 72.766Z" fill="url(#paint5_linear_519_2621)"/>
<path d="M47.4938 108.059C44.3936 108.059 42.4524 104.882 43.9011 102.084C45.2339 99.4905 46.7115 96.955 48.1023 94.3904C48.7977 93.1081 49.4641 91.7966 50.2464 90.5434C51.3764 88.7365 53.8102 88.1828 55.6646 89.232C57.5189 90.2811 58.3591 92.6126 57.374 94.4778C55.3169 98.4413 53.1438 102.376 50.9128 106.252C50.2174 107.505 49.0005 108.146 47.4938 108.059Z" fill="url(#paint6_linear_519_2621)"/>
<path d="M51.4633 111.06C51.3474 109.487 52.3615 108.35 53.0279 107.068C54.4476 104.387 55.9253 101.734 57.403 99.0825C58.7068 96.6927 61.1986 95.9058 63.2847 97.1881C65.1391 98.3247 65.8345 100.627 64.8204 102.551C62.937 106.135 60.9958 109.691 59.0255 113.217C58.1273 114.82 56.1281 115.607 54.4766 115.111C52.4774 114.558 51.4633 113.159 51.4633 111.06Z" fill="url(#paint7_linear_519_2621)"/>
<path d="M36.078 96.4013C35.9042 95.0024 36.8604 93.9241 37.4688 92.7583C38.5698 90.6309 39.7578 88.5617 40.9167 86.4634C41.8149 84.8313 43.1477 84.0736 45.0021 84.2193C46.6536 84.365 47.7546 85.2393 48.392 86.7257C48.9426 87.9788 48.7687 89.232 48.1023 90.456C46.6246 93.1372 45.1469 95.8184 43.6693 98.5287C42.6552 100.394 40.8008 100.918 39.0044 100.51C37.4688 100.132 35.9332 98.6161 36.078 96.4013Z" fill="url(#paint8_linear_519_2621)"/>
<path d="M72.4695 109.195C72.5565 110.011 72.2088 110.769 71.7742 111.527C70.5572 113.683 69.4562 115.898 68.1814 118.026C66.9934 120.007 64.5886 120.561 62.6183 119.395C60.764 118.317 60.0686 115.84 61.1117 113.858C62.3286 111.585 63.6035 109.312 64.8493 107.068C65.8634 105.232 67.7757 104.707 69.5431 105.115C71.2816 105.494 72.6724 107.388 72.4695 109.195Z" fill="url(#paint9_linear_519_2621)"/>
</g>
</g>
<defs>
<filter id="filter0_dd_519_2621" x="6.83051" y="33.6441" width="136.797" height="97.7966" filterUnits="userSpaceOnUse" color-interpolation-filters="sRGB">
<feFlood flood-opacity="0" result="BackgroundImageFix"/>
<feColorMatrix in="SourceAlpha" type="matrix" values="0 0 0 0 0 0 0 0 0 0 0 0 0 0 0 0 0 0 127 0" result="hardAlpha"/>
<feOffset dx="-1.27119" dy="2.54237"/>
<feGaussianBlur stdDeviation="4.44915"/>
<feComposite in2="hardAlpha" operator="out"/>
<feColorMatrix type="matrix" values="0 0 0 0 0.0894444 0 0 0 0 0.1729 0 0 0 0 0.233333 0 0 0 0.11 0"/>
<feBlend mode="normal" in2="BackgroundImageFix" result="effect1_dropShadow_519_2621"/>
<feColorMatrix in="SourceAlpha" type="matrix" values="0 0 0 0 0 0 0 0 0 0 0 0 0 0 0 0 0 0 127 0" result="hardAlpha"/>
<feOffset dx="-1.27119" dy="1.27119"/>
<feGaussianBlur stdDeviation="1.27119"/>
<feComposite in2="hardAlpha" operator="out"/>
<feColorMatrix type="matrix" values="0 0 0 0 0.151562 0 0 0 0 0.334781 0 0 0 0 0.375 0 0 0 0.25 0"/>
<feBlend mode="normal" in2="effect1_dropShadow_519_2621" result="effect2_dropShadow_519_2621"/>
<feBlend mode="normal" in="SourceGraphic" in2="effect2_dropShadow_519_2621" result="shape"/>
</filter>
<linearGradient id="paint0_linear_519_2621" x1="75" y1="0" x2="75" y2="150" gradientUnits="userSpaceOnUse">
<stop stop-color="#FF4910"/>
<stop offset="1" stop-color="#FF1074"/>
</linearGradient>
<linearGradient id="paint1_linear_519_2621" x1="80" y1="57.5" x2="102.5" y2="135" gradientUnits="userSpaceOnUse">
<stop stop-color="#D32727"/>
<stop offset="1" stop-color="#D32727" stop-opacity="0"/>
</linearGradient>
<linearGradient id="paint2_linear_519_2621" x1="76.5" y1="40" x2="76.5" y2="120" gradientUnits="userSpaceOnUse">
<stop stop-color="#DCE5ED"/>
<stop offset="1" stop-color="white"/>
</linearGradient>
<linearGradient id="paint3_linear_519_2621" x1="76.5" y1="40" x2="76.5" y2="120" gradientUnits="userSpaceOnUse">
<stop stop-color="#DCE5ED"/>
<stop offset="1" stop-color="white"/>
</linearGradient>
<linearGradient id="paint4_linear_519_2621" x1="76.5" y1="40" x2="76.5" y2="120" gradientUnits="userSpaceOnUse">
<stop stop-color="#DCE5ED"/>
<stop offset="1" stop-color="white"/>
</linearGradient>
<linearGradient id="paint5_linear_519_2621" x1="76.5" y1="40" x2="76.5" y2="120" gradientUnits="userSpaceOnUse">
<stop stop-color="#DCE5ED"/>
<stop offset="1" stop-color="white"/>
</linearGradient>
<linearGradient id="paint6_linear_519_2621" x1="76.5" y1="40" x2="76.5" y2="120" gradientUnits="userSpaceOnUse">
<stop stop-color="#DCE5ED"/>
<stop offset="1" stop-color="white"/>
</linearGradient>
<linearGradient id="paint7_linear_519_2621" x1="76.5" y1="40" x2="76.5" y2="120" gradientUnits="userSpaceOnUse">
<stop stop-color="#DCE5ED"/>
<stop offset="1" stop-color="white"/>
</linearGradient>
<linearGradient id="paint8_linear_519_2621" x1="76.5" y1="40" x2="76.5" y2="120" gradientUnits="userSpaceOnUse">
<stop stop-color="#DCE5ED"/>
<stop offset="1" stop-color="white"/>
</linearGradient>
<linearGradient id="paint9_linear_519_2621" x1="76.5" y1="40" x2="76.5" y2="120" gradientUnits="userSpaceOnUse">
<stop stop-color="#DCE5ED"/>
<stop offset="1" stop-color="white"/>
</linearGradient>
</defs>
</svg>
