<svg width="326" height="56" viewBox="0 0 326 56" fill="none" xmlns="http://www.w3.org/2000/svg">
<path fill-rule="evenodd" clip-rule="evenodd" d="M220.237 2.48633V17.4197H235.899V55.9977H253.319V17.4197H268.141V2.48633H220.237Z" fill="#4B515F"/>
<path fill-rule="evenodd" clip-rule="evenodd" d="M17.4199 17.4197V55.9979H0V2.4868H5.3515e-06V2.48633H47.9047V17.4197H47.9039V55.9977H30.484V17.4197H17.4199Z" fill="#4B515F"/>
<path fill-rule="evenodd" clip-rule="evenodd" d="M54.7486 2.48877H80.2563C91.595 2.48877 100.787 11.6818 100.787 23.0221C100.787 34.3623 91.595 43.5554 80.2563 43.5554H72.1685V55.9998H54.7486V2.48877ZM78.7009 15.5554H72.1685V28.6221H78.7009C82.3087 28.6221 85.2334 25.697 85.2334 22.0888C85.2334 18.4805 82.3087 15.5554 78.7009 15.5554Z" fill="#4B515F"/>
<path fill-rule="evenodd" clip-rule="evenodd" d="M128.781 0C114.694 0 103.274 11.4217 103.274 25.5111V30.4889C103.274 44.5782 114.694 55.9999 128.781 55.9999H133.758C147.846 55.9999 159.266 44.5782 159.266 30.4889V25.5111C159.266 11.4217 147.846 0 133.758 0H128.781ZM131.27 14.3111C124.741 14.3111 119.449 19.6041 119.449 26.1333V28.6222C119.449 35.1514 124.741 40.4444 131.27 40.4444C137.798 40.4444 143.09 35.1514 143.09 28.6222V26.1333C143.09 19.6041 137.798 14.3111 131.27 14.3111Z" fill="#4B515F"/>
<path fill-rule="evenodd" clip-rule="evenodd" d="M295.515 0C281.428 0 270.007 11.4217 270.007 25.5111V30.4889C270.007 44.5782 281.428 55.9999 295.515 55.9999H300.492C314.58 55.9999 326 44.5782 326 30.4889V25.5111C326 11.4217 314.58 0 300.492 0H295.515ZM298.004 14.3111C291.475 14.3111 286.183 19.6041 286.183 26.1333V28.6222C286.183 35.1514 291.475 40.4444 298.004 40.4444C304.532 40.4444 309.824 35.1514 309.824 28.6222V26.1333C309.824 19.6041 304.532 14.3111 298.004 14.3111Z" fill="#4B515F"/>
<path d="M164.867 25.5111C164.867 11.4217 176.287 0 190.374 0H195.352C205.006 0 213.407 5.36417 217.739 13.275L204.071 22.3654C202.498 17.6836 198.074 14.3111 192.863 14.3111C186.335 14.3111 181.042 19.6041 181.042 26.1333V28.6222C181.042 35.1514 186.335 40.4444 192.863 40.4444C198.298 40.4444 202.877 36.7753 204.258 31.7784L218.643 40.9051C214.659 49.8018 205.729 55.9999 195.352 55.9999H190.374C176.287 55.9999 164.867 44.5782 164.867 30.4889V25.5111Z" fill="#4B515F"/>
</svg>
