<svg width="150" height="150" viewBox="0 0 150 150" fill="none" xmlns="http://www.w3.org/2000/svg">
<mask id="mask0_519_2613" style="mask-type:alpha" maskUnits="userSpaceOnUse" x="0" y="0" width="150" height="150">
<circle cx="75" cy="75" r="75" fill="#EB5C5B"/>
</mask>
<g mask="url(#mask0_519_2613)">
<circle cx="75" cy="75" r="75" fill="url(#paint0_linear_519_2613)"/>
<path d="M142.669 41.2318C129.5 35.7832 102.025 24.5088 97.4741 23C100.002 29.6012 105.059 43.1179 105.059 44.3753C105.059 45.6326 108.852 57.0537 110.748 62.6071V75.1808C110.748 76.4382 105.059 83.0393 105.059 83.668V94.3557C105.059 95.613 89.5728 104.1 88.6247 104.1C87.8662 104.1 78.6165 110.387 74.0864 113.531L50.0667 99.3851L33 101.9L43.1136 113.531C65.5531 131.448 101.014 155.464 102.531 155.967C104.048 156.47 117.069 151.147 123.39 148.423L161 104.1L142.669 41.2318Z" fill="url(#paint1_linear_519_2613)"/>
<path d="M114 61.3167L53.2015 23L39.6557 52.1333L31.1502 49.6L28 56.5667C29.6801 60.4722 33.1033 68.4733 33.3553 69.2333C33.6073 69.9933 29.8901 77.9944 28 81.9L39.6557 97.4167L69.2674 118C81.2381 117.05 105.684 115.213 107.7 115.467C109.716 115.72 112.74 79.4722 114 61.3167Z" fill="url(#paint2_linear_519_2613)"/>
<g filter="url(#filter0_dd_519_2613)">
<path d="M81.1397 114.079C80.4171 114.569 79.6945 115.14 78.972 115.63C79.7748 116.529 80.5777 117.345 81.22 118.325C82.3441 120.04 83.3878 121.755 84.271 123.551C84.9936 125.021 84.4316 126.409 83.147 126.899C81.8623 127.389 80.658 126.817 80.096 125.347C79.1325 122.898 77.6873 120.856 75.8407 119.06C75.7604 118.978 75.5998 118.897 75.4393 118.733C73.9138 120.121 72.6291 121.755 71.6657 123.551C71.3445 124.204 71.0234 124.857 70.7825 125.511C70.2205 126.899 68.9359 127.47 67.7315 126.899C66.5272 126.409 66.0455 125.102 66.5272 123.714C67.6512 120.938 69.257 118.488 71.2642 116.284C71.4248 116.039 71.6657 115.875 71.9065 115.549C71.1839 114.977 70.4613 114.487 69.6584 113.997C69.4979 114.242 69.3373 114.487 69.1767 114.651C66.2863 118.733 62.5127 120.53 57.5348 119.958C52.8781 119.387 48.6228 117.672 44.6083 115.14C43.1631 114.242 43.0026 112.446 44.2872 111.303C46.8564 109.016 49.8271 107.71 53.1189 106.893C54.4839 106.567 55.8488 106.403 57.294 106.158C55.6079 104.934 53.8416 103.709 52.1555 102.484C50.1483 104.035 47.9002 105.179 45.4915 105.75C39.0684 107.302 34.0905 105.097 30.2366 99.8709C29.2732 98.5644 28.4703 97.1763 27.7477 95.7065C27.1054 94.4817 27.5068 93.1752 28.7112 92.6036C31.8424 90.9705 35.2146 89.8273 38.7473 90.0723C39.791 90.1539 40.9151 90.3989 42.0391 90.6439C41.3968 89.3374 40.7545 88.1125 40.1122 86.806C38.0247 87.2143 35.9371 87.2143 33.8496 86.6427C30.7184 85.6629 28.4703 83.6215 26.9448 80.6819C24.9376 77.0074 23.9741 73.0063 23.1712 68.9235C23.0909 68.5153 23.0106 68.0253 22.9304 67.617C22.6092 65.494 23.8938 64.1875 25.9813 64.6774C29.5943 65.5757 32.9665 66.8821 36.0977 69.0052C36.178 69.0868 36.3386 69.1685 36.6597 69.3318C36.6597 68.1886 36.6597 67.2087 36.6597 66.2289C36.6597 66.0656 36.3386 65.8206 36.0977 65.739C33.7694 64.5141 31.6819 63.0443 30.0761 61.0029C28.5506 59.0432 27.6674 56.7569 27.5871 54.3072C27.3463 49.3262 28.5506 44.7535 31.0395 40.4258C31.9227 38.8743 33.5285 38.6293 34.8934 39.8542C36.9006 41.8139 38.2655 44.1003 39.229 46.7132C39.5502 47.6115 39.8713 48.5097 40.2727 49.5712C40.6742 48.673 41.3165 48.0197 41.3165 47.0398C41.2362 45.0801 41.3968 43.1204 41.3165 41.2423C41.0756 36.8329 42.5208 32.9951 45.0901 29.4839C46.7761 27.1976 48.8636 25.1562 51.1117 23.4415C52.4766 22.4616 53.9218 22.7882 54.7247 24.258C56.5714 28.0142 57.6151 31.9336 57.0531 36.1797C56.6517 39.2009 55.2065 41.7323 53.1992 44.0186C51.1117 46.305 48.7031 48.1014 46.0535 49.6528C45.4112 49.9794 45.0098 50.3877 44.6886 51.041C44.3675 51.7759 44.0463 52.5108 43.8054 53.2457C46.1338 51.3676 48.7031 49.9795 51.3526 48.7546C53.2795 47.8564 54.9656 48.9179 54.8853 51.1226C54.8853 54.3888 54.6444 57.5734 53.4401 60.6763C51.3526 65.9839 47.4184 69.1685 42.1997 70.8016C41.4771 71.0466 41.2362 71.2915 41.3968 72.0264C41.7179 73.9862 41.8785 75.9459 42.1194 77.9056C42.1997 77.9056 42.28 77.9056 42.3603 77.9056C42.4405 77.7423 42.5208 77.6607 42.6011 77.4974C43.5646 75.456 44.9295 73.7412 46.6156 72.2714C47.8199 71.2099 49.1045 71.2099 50.2285 72.5163C52.6372 75.2926 54.0824 78.4772 54.7247 82.07C55.5276 86.5611 54.243 90.4805 51.4329 93.9917C51.192 94.2367 51.0314 94.4816 50.7906 94.8083C52.3161 96.768 54.3233 98.1562 56.3305 99.7893C56.0093 98.4011 55.6882 97.0946 55.4473 95.7881C55.2867 94.7266 55.1262 93.7468 55.0459 92.6852C54.9656 91.0521 56.0093 89.909 57.5348 90.1539C62.2719 90.8888 66.6878 92.5219 70.2205 96.0331C72.1474 97.9928 72.9503 100.443 73.1912 103.137C73.3517 105.26 73.1912 107.383 72.6291 109.506C72.4686 110.078 72.6291 110.323 73.1109 110.649C73.8335 111.058 74.4758 111.629 75.1181 112.119C75.4392 112.364 75.6801 112.364 76.0013 112.119C76.6436 111.548 77.2859 111.058 78.0085 110.649C78.4099 110.323 78.5705 110.078 78.4099 109.588C77.7676 106.893 77.607 104.117 78.0888 101.341C78.6508 98.4011 80.2566 96.1148 82.6652 94.4C85.7965 92.032 89.3292 90.8072 93.1028 90.1539C94.8691 89.8273 96.1538 90.9705 95.9129 92.8486C95.672 94.9716 95.11 97.013 94.7086 99.136C94.7086 99.2994 94.6283 99.4626 94.548 99.626C94.6283 99.7076 94.6283 99.7076 94.7086 99.7893C96.5552 98.2378 98.3215 96.6047 100.088 95.0533C99.2047 93.6651 98.3215 92.6036 97.5989 91.3788C95.3509 87.541 95.5114 83.4582 96.7961 79.2937C97.5989 76.7624 98.8033 74.4761 100.57 72.5163C101.694 71.2099 102.978 71.2099 104.263 72.353C106.029 73.9045 107.394 75.7826 108.599 77.9056C108.839 76.5991 109.08 75.211 109.241 73.9045C109.321 73.2513 109.321 72.598 109.401 71.8631C109.482 71.2099 109.321 70.9649 108.679 70.8016C106.11 70.0667 103.781 68.8418 101.774 67.0454C98.723 64.3508 97.0369 60.9213 96.3946 56.9202C96.0735 54.9604 95.9932 52.919 95.9129 50.8777C95.8326 48.9179 97.5187 47.8564 99.285 48.673C102.015 49.8978 104.584 51.2859 106.993 53.164C106.35 51.7759 106.11 50.2244 104.504 49.4079C101.292 47.6931 98.5624 45.3251 96.3143 42.3855C93.8254 38.956 93.1831 35.1182 93.9057 30.9538C94.3071 28.6674 94.9494 26.5443 96.0735 24.503C96.9566 22.7882 98.4018 22.4616 99.847 23.6048C103.621 26.5444 106.832 30.0555 108.599 34.7099C109.241 36.4247 109.562 38.1394 109.562 39.9359C109.562 42.0589 109.642 44.1819 109.562 46.305C109.482 47.5298 109.883 48.5913 110.606 49.6528C110.927 48.7546 111.168 47.8564 111.489 47.0398C112.372 44.5902 113.657 42.3855 115.423 40.5074C115.584 40.2624 115.825 40.0991 116.065 39.8542C117.35 38.711 118.876 38.956 119.759 40.4258C121.445 43.2837 122.488 46.305 122.97 49.5712C123.372 51.9392 123.452 54.2255 122.89 56.5935C122.248 59.6148 120.401 61.9828 117.992 63.7792C116.949 64.5958 115.744 65.249 114.62 65.9023C114.219 66.1472 114.058 66.3922 114.058 66.8005C114.138 67.617 114.058 68.4336 114.058 69.4134C114.299 69.2501 114.46 69.1685 114.62 69.0868C117.751 66.9638 121.124 65.5756 124.817 64.7591C126.664 64.3508 128.028 65.7389 127.707 67.617C126.985 71.7814 126.021 75.8642 124.255 79.702C122.81 82.7233 120.883 85.1729 117.671 86.3978C115.343 87.296 112.934 87.3777 110.525 86.8877C109.883 88.1942 109.241 89.419 108.599 90.8072C109.08 90.6439 109.562 90.5622 109.963 90.4805C112.774 89.8273 115.584 90.2356 118.313 91.1338C119.598 91.5421 120.802 92.1137 122.007 92.6852C123.131 93.2568 123.613 94.4817 123.131 95.5432C121.204 99.7076 118.554 103.137 114.379 105.179C111.168 106.73 107.796 106.485 104.423 105.587C102.256 105.015 100.329 103.954 98.6427 102.566C96.9566 103.79 95.2706 105.015 93.5042 106.24C95.11 106.567 96.7158 106.812 98.2413 107.138C101.132 107.873 103.781 109.18 106.19 111.058C106.993 111.711 107.555 112.527 107.234 113.589C107.073 114.161 106.752 114.732 106.35 115.059C101.774 117.998 96.9566 120.04 91.4167 120.121C87.2417 120.203 84.0301 118.162 81.6215 114.814C81.5412 114.651 81.3806 114.406 81.1397 114.079Z" fill="url(#paint3_linear_519_2613)"/>
</g>
</g>
<defs>
<filter id="filter0_dd_519_2613" x="12.7119" y="16.5254" width="122.669" height="122.034" filterUnits="userSpaceOnUse" color-interpolation-filters="sRGB">
<feFlood flood-opacity="0" result="BackgroundImageFix"/>
<feColorMatrix in="SourceAlpha" type="matrix" values="0 0 0 0 0 0 0 0 0 0 0 0 0 0 0 0 0 0 127 0" result="hardAlpha"/>
<feOffset dx="-1.27119" dy="2.54237"/>
<feGaussianBlur stdDeviation="4.44915"/>
<feComposite in2="hardAlpha" operator="out"/>
<feColorMatrix type="matrix" values="0 0 0 0 0.0894444 0 0 0 0 0.1729 0 0 0 0 0.233333 0 0 0 0.11 0"/>
<feBlend mode="normal" in2="BackgroundImageFix" result="effect1_dropShadow_519_2613"/>
<feColorMatrix in="SourceAlpha" type="matrix" values="0 0 0 0 0 0 0 0 0 0 0 0 0 0 0 0 0 0 127 0" result="hardAlpha"/>
<feOffset dx="-1.27119" dy="1.27119"/>
<feGaussianBlur stdDeviation="1.27119"/>
<feComposite in2="hardAlpha" operator="out"/>
<feColorMatrix type="matrix" values="0 0 0 0 0.151562 0 0 0 0 0.334781 0 0 0 0 0.375 0 0 0 0.25 0"/>
<feBlend mode="normal" in2="effect1_dropShadow_519_2613" result="effect2_dropShadow_519_2613"/>
<feBlend mode="normal" in="SourceGraphic" in2="effect2_dropShadow_519_2613" result="shape"/>
</filter>
<linearGradient id="paint0_linear_519_2613" x1="75" y1="0" x2="75" y2="150" gradientUnits="userSpaceOnUse">
<stop stop-color="#FF4910"/>
<stop offset="1" stop-color="#FF1074"/>
</linearGradient>
<linearGradient id="paint1_linear_519_2613" x1="87.5" y1="79" x2="131.5" y2="118.5" gradientUnits="userSpaceOnUse">
<stop stop-color="#D62626"/>
<stop offset="1" stop-color="#C64949" stop-opacity="0"/>
</linearGradient>
<linearGradient id="paint2_linear_519_2613" x1="50.5" y1="34" x2="95" y2="78" gradientUnits="userSpaceOnUse">
<stop stop-color="#D62626"/>
<stop offset="1" stop-color="#D62626" stop-opacity="0"/>
</linearGradient>
<linearGradient id="paint3_linear_519_2613" x1="103.602" y1="20.9746" x2="52.1186" y2="118.22" gradientUnits="userSpaceOnUse">
<stop stop-color="#C5D7E1"/>
<stop offset="0.659968" stop-color="white"/>
</linearGradient>
</defs>
</svg>
