<svg width="429" height="458" viewBox="0 0 429 458" fill="none" xmlns="http://www.w3.org/2000/svg">
<ellipse cx="214.5" cy="214.259" rx="214.5" ry="214.259" fill="#E7EDF1"/>
<path d="M381.665 214.584C381.665 306.902 306.779 381.742 214.4 381.742C122.021 381.742 47.1348 306.902 47.1348 214.584C47.1348 122.266 122.021 47.4255 214.4 47.4255C306.779 47.4255 381.665 122.266 381.665 214.584Z" fill="#FBFCFD" stroke="url(#paint0_linear_445_2481)" stroke-width="4"/>
<path d="M307.107 154.327L216.107 59.4337L113.607 159.821L160.607 246.723L216.107 341.117L318.107 274.192L307.107 154.327Z" fill="url(#paint1_linear_445_2481)"/>
<mask id="path-4-outside-1_445_2481" maskUnits="userSpaceOnUse" x="62.0454" y="44.4197" width="305" height="343" fill="black">
<rect fill="white" x="62.0454" y="44.4197" width="305" height="343"/>
<path fill-rule="evenodd" clip-rule="evenodd" d="M214.3 382.778V217.142L70.0592 301.178L68.0454 297.726L210.756 214.582L68.0454 131.442L70.0593 127.99L214.3 212.021V48.4197H218.3V210.187L359.39 127.986L361.404 131.439L218.696 214.582L361.408 297.723L359.394 301.175L218.3 218.977L218.3 382.778H214.3Z"/>
</mask>
<path fill-rule="evenodd" clip-rule="evenodd" d="M214.3 382.778V217.142L70.0592 301.178L68.0454 297.726L210.756 214.582L68.0454 131.442L70.0593 127.99L214.3 212.021V48.4197H218.3V210.187L359.39 127.986L361.404 131.439L218.696 214.582L361.408 297.723L359.394 301.175L218.3 218.977L218.3 382.778H214.3Z" fill="url(#paint2_linear_445_2481)"/>
<path d="M214.3 217.142H218.3V210.183L212.287 213.686L214.3 217.142ZM214.3 382.778H210.3V386.778H214.3V382.778ZM70.0592 301.178L66.6041 303.194L68.6185 306.647L72.0729 304.635L70.0592 301.178ZM68.0454 297.726L66.0318 294.27L62.5737 296.285L64.5903 299.742L68.0454 297.726ZM210.756 214.582L212.77 218.038L218.702 214.582L212.77 211.126L210.756 214.582ZM68.0454 131.442L64.5904 129.426L62.5736 132.883L66.0319 134.898L68.0454 131.442ZM70.0593 127.99L72.0728 124.533L68.6186 122.521L66.6043 125.974L70.0593 127.99ZM214.3 212.021L212.287 215.477L218.3 218.981V212.021H214.3ZM214.3 48.4197V44.4197H210.3V48.4197H214.3ZM218.3 48.4197H222.3V44.4197H218.3V48.4197ZM218.3 210.187H214.3V217.146L220.314 213.643L218.3 210.187ZM359.39 127.986L362.845 125.971L360.831 122.518L357.377 124.53L359.39 127.986ZM361.404 131.439L363.418 134.895L366.876 132.88L364.859 129.423L361.404 131.439ZM218.696 214.582L216.682 211.126L210.75 214.582L216.682 218.038L218.696 214.582ZM361.408 297.723L364.863 299.738L366.88 296.281L363.422 294.266L361.408 297.723ZM359.394 301.175L357.381 304.631L360.835 306.643L362.849 303.19L359.394 301.175ZM218.3 218.977L220.314 215.521L214.3 212.017V218.977H218.3ZM218.3 382.778V386.778H222.3V382.778H218.3ZM210.3 217.142V382.778H218.3V217.142H210.3ZM72.0729 304.635L216.314 220.599L212.287 213.686L68.0456 297.722L72.0729 304.635ZM64.5903 299.742L66.6041 303.194L73.5144 299.163L71.5005 295.711L64.5903 299.742ZM208.743 211.126L66.0318 294.27L70.059 301.182L212.77 218.038L208.743 211.126ZM212.77 211.126L70.0589 127.986L66.0319 134.898L208.743 218.038L212.77 211.126ZM71.5005 133.457L73.5144 130.005L66.6043 125.974L64.5904 129.426L71.5005 133.457ZM68.0458 131.446L212.287 215.477L216.314 208.565L72.0728 124.533L68.0458 131.446ZM210.3 48.4197V212.021H218.3V48.4197H210.3ZM218.3 44.4197H214.3V52.4197H218.3V44.4197ZM222.3 210.187V48.4197H214.3V210.187H222.3ZM357.377 124.53L216.287 206.73L220.314 213.643L361.404 131.443L357.377 124.53ZM364.859 129.423L362.845 125.971L355.935 130.002L357.949 133.454L364.859 129.423ZM220.709 218.038L363.418 134.895L359.391 127.982L216.682 211.126L220.709 218.038ZM216.682 218.038L359.395 301.179L363.422 294.266L220.709 211.125L216.682 218.038ZM357.953 295.707L355.939 299.159L362.849 303.19L364.863 299.738L357.953 295.707ZM361.408 297.719L220.314 215.521L216.287 222.433L357.381 304.631L361.408 297.719ZM222.3 382.778L222.3 218.977H214.3L214.3 382.778H222.3ZM214.3 386.778H218.3V378.778H214.3V386.778Z" fill="#FBFCFD" mask="url(#path-4-outside-1_445_2481)"/>
<path d="M32.6133 272.131L31.851 270.017L44.1871 269.929L45.0688 272.374L35.5105 280.167L34.7482 278.053L42.3981 272.002L42.3673 271.916L32.6133 272.131ZM36.931 270.656L39.01 276.423L37.417 276.996L35.338 271.229L36.931 270.656Z" fill="#4B5563"/>
<path d="M43.4224 285.344L41.8729 286.011L40.0319 281.749L41.5814 281.081L43.4224 285.344ZM45.0576 280.275L37.0442 283.728L36.2587 281.91L44.2721 278.456L45.0576 280.275ZM47.1799 285.189L39.1665 288.642L38.3833 286.829L46.3967 283.376L47.1799 285.189Z" fill="#4B5563"/>
<path d="M41.6442 294.146C41.3943 293.653 41.2572 293.165 41.2327 292.681C41.2133 292.199 41.3195 291.755 41.5512 291.349C41.7847 290.947 42.1565 290.617 42.6668 290.359C43.1061 290.137 43.5105 290.034 43.8799 290.051C44.2492 290.068 44.5911 290.172 44.9055 290.365C45.2199 290.559 45.5099 290.808 45.7758 291.115C46.0467 291.423 46.2982 291.756 46.5304 292.114C46.8087 292.545 47.0383 292.894 47.2192 293.158C47.4035 293.422 47.5687 293.597 47.7149 293.684C47.8661 293.773 48.0295 293.773 48.2053 293.684L48.2357 293.669C48.6176 293.475 48.8559 293.213 48.9508 292.881C49.0457 292.549 48.9853 292.17 48.7697 291.745C48.5422 291.296 48.2636 290.989 47.9342 290.825C47.6064 290.664 47.2859 290.606 46.9728 290.649L46.3486 288.815C46.8901 288.711 47.3984 288.734 47.8735 288.883C48.352 289.032 48.7844 289.29 49.1708 289.659C49.5606 290.026 49.8932 290.481 50.1687 291.024C50.3587 291.399 50.5038 291.794 50.6042 292.21C50.7045 292.626 50.7312 293.038 50.6841 293.448C50.6404 293.856 50.4933 294.24 50.2427 294.6C49.9938 294.964 49.6109 295.276 49.0938 295.537L43.8828 298.173L42.9897 296.411L44.0592 295.87L44.0284 295.809C43.7557 295.807 43.4734 295.753 43.1814 295.646C42.8946 295.541 42.6168 295.365 42.3479 295.12C42.0841 294.876 41.8495 294.551 41.6442 294.146ZM43.2338 293.94C43.4203 294.308 43.6547 294.59 43.9369 294.787C44.2224 294.982 44.5237 295.09 44.8406 295.112C45.1592 295.138 45.4621 295.078 45.7493 294.932L46.6668 294.468C46.5904 294.435 46.4969 294.359 46.3862 294.241C46.2772 294.127 46.1647 293.993 46.0487 293.84C45.9328 293.686 45.821 293.533 45.7135 293.379C45.606 293.226 45.513 293.093 45.4345 292.98C45.2588 292.725 45.0739 292.511 44.8799 292.338C44.6859 292.164 44.4812 292.054 44.2658 292.006C44.0538 291.956 43.8295 291.991 43.593 292.111C43.255 292.282 43.0624 292.534 43.0149 292.868C42.9675 293.201 43.0404 293.559 43.2338 293.94Z" fill="#4B5563"/>
<path d="M44.8982 300.081L46.3567 299.222L46.5079 299.482C46.6221 299.678 46.7623 299.818 46.9287 299.901C47.0952 299.984 47.3072 300.009 47.565 299.978C47.826 299.945 48.1476 299.85 48.5299 299.694C48.9123 299.538 49.3728 299.317 49.9116 299.031L53.33 297.225L56.5251 302.723L48.9777 307.1L47.9792 305.382L54.0673 301.851L52.8092 299.687L50.3084 300.979C49.6624 301.315 49.0761 301.561 48.5495 301.717C48.0281 301.875 47.5604 301.941 47.1463 301.914C46.7341 301.891 46.3677 301.773 46.0472 301.561C45.73 301.346 45.4535 301.036 45.2177 300.631L44.8982 300.081Z" fill="#4B5563"/>
<path d="M53.9686 309.732L60.8523 309.351L62.0227 311.109L54.7554 315.936L53.6542 314.282L58.6079 310.992L51.7257 311.385L50.5522 309.622L57.8195 304.795L58.9175 306.445L53.9686 309.732Z" fill="#4B5563"/>
<path d="M61.6858 313.549L63.0359 312.538L67.6173 318.641L66.2672 319.652L64.573 317.395L58.9409 321.614L57.7479 320.025L63.38 315.806L61.6858 313.549Z" fill="#4B5563"/>
<path d="M65.4206 325.321L72.2176 324.169L73.5788 325.784L66.902 331.398L65.6214 329.878L70.1725 326.051L63.3784 327.216L62.0136 325.597L68.6904 319.983L69.9674 321.498L65.4206 325.321Z" fill="#4B5563"/>
<path d="M68.9769 333.696L75.307 327.695L76.723 329.185L74.1678 331.608L74.6841 332.151L79.0463 331.631L80.7517 333.425L75.4188 334.029L74.4451 339.451L72.7319 337.648L73.4713 333.653L72.779 332.924L70.3929 335.187L68.9769 333.696Z" fill="#4B5563"/>
<path d="M77.8702 342.948C77.4664 342.571 77.1701 342.159 76.9811 341.713C76.7975 341.266 76.7449 340.813 76.8234 340.353C76.9047 339.895 77.1408 339.457 77.5316 339.04C77.8681 338.681 78.2127 338.446 78.5655 338.336C78.9183 338.225 79.2754 338.206 79.637 338.28C79.9985 338.354 80.3567 338.489 80.7117 338.686C81.0719 338.883 81.4225 339.11 81.7633 339.366C82.1729 339.676 82.5081 339.925 82.7689 340.112C83.0322 340.296 83.2475 340.404 83.4147 340.436C83.5873 340.468 83.7409 340.412 83.8755 340.268L83.8988 340.243C84.1912 339.931 84.3251 339.603 84.3003 339.258C84.2754 338.914 84.0888 338.578 83.7403 338.253C83.3725 337.909 83.0057 337.716 82.6398 337.675C82.2767 337.636 81.9556 337.691 81.6765 337.839L80.4607 336.329C80.9337 336.046 81.419 335.893 81.9168 335.872C82.4171 335.847 82.912 335.942 83.4015 336.156C83.8935 336.367 84.3622 336.681 84.8075 337.097C85.1145 337.384 85.3864 337.706 85.6233 338.062C85.8603 338.418 86.0269 338.797 86.1233 339.198C86.2222 339.596 86.2158 340.007 86.1039 340.431C85.9947 340.858 85.7422 341.282 85.3461 341.705L81.355 345.965L79.9113 344.615L80.7305 343.741L80.6807 343.694C80.4238 343.786 80.1399 343.831 79.829 343.831C79.5235 343.83 79.2023 343.761 78.8654 343.622C78.5338 343.483 78.2021 343.258 77.8702 342.948ZM79.2929 342.21C79.5944 342.492 79.9114 342.677 80.2439 342.765C80.5791 342.85 80.8993 342.849 81.2045 342.761C81.5126 342.676 81.7766 342.516 81.9966 342.282L82.6994 341.531C82.6161 341.526 82.5022 341.487 82.3578 341.414C82.2161 341.344 82.0645 341.257 81.9029 341.152C81.7413 341.048 81.5837 340.942 81.4301 340.835C81.2765 340.727 81.1434 340.634 81.0309 340.555C80.7784 340.376 80.5313 340.238 80.2896 340.142C80.0479 340.045 79.8176 340.011 79.5988 340.04C79.3826 340.066 79.1839 340.175 79.0027 340.369C78.7439 340.645 78.6494 340.948 78.7193 341.278C78.7892 341.607 78.9804 341.918 79.2929 342.21Z" fill="#4B5563"/>
<path d="M40.9099 170.356L39.1808 169.966L39.3272 169.318C39.3931 169.026 39.4049 168.777 39.3624 168.569C39.32 168.362 39.2323 168.183 39.0993 168.033C38.9671 167.879 38.8045 167.74 38.6114 167.615L38.2628 167.379L29 169.548L29.4856 167.4L36.1982 165.947L30.6758 162.136L31.1539 160.021L39.5259 166.017C39.884 166.288 40.2082 166.58 40.4984 166.894C40.785 167.207 40.9906 167.577 41.1152 168.005C41.237 168.428 41.2295 168.942 41.0927 169.547L40.9099 170.356Z" fill="#4B5563"/>
<path d="M42.9436 161.032L34.5652 158.592L36.6283 151.525L45.0066 153.965L44.4515 155.867L37.6932 153.898L36.7356 157.178L43.4939 159.147L42.9436 161.032Z" fill="#4B5563"/>
<path d="M48.6521 153.305L37.3444 149.293L38.0215 147.389L39.3815 147.871L39.4214 147.759C39.257 147.588 39.0947 147.372 38.9345 147.111C38.7708 146.848 38.6637 146.533 38.6134 146.165C38.5596 145.797 38.6182 145.372 38.7894 144.891C39.0151 144.256 39.381 143.742 39.8872 143.347C40.391 142.948 41.0121 142.71 41.7504 142.635C42.4864 142.555 43.3112 142.677 44.225 143.001C45.128 143.322 45.8428 143.742 46.3693 144.262C46.8958 144.782 47.2344 145.356 47.385 145.984C47.5356 146.611 47.4962 147.248 47.2667 147.893C47.0993 148.364 46.8819 148.726 46.6146 148.981C46.3472 149.235 46.0693 149.418 45.7808 149.528C45.4899 149.634 45.2262 149.703 44.9896 149.735L44.961 149.815L49.3406 151.369L48.6521 153.305ZM42.1315 148.853C42.6633 149.042 43.1558 149.133 43.6088 149.125C44.0631 149.113 44.4534 149.005 44.7797 148.799C45.1037 148.589 45.3386 148.279 45.4844 147.869C45.6366 147.441 45.6498 147.042 45.5241 146.672C45.3948 146.301 45.1563 145.972 44.8085 145.684C44.4584 145.391 44.0264 145.153 43.5124 144.971C43.002 144.79 42.5227 144.702 42.0745 144.707C41.6263 144.713 41.2384 144.82 40.9109 145.029C40.5833 145.238 40.3428 145.559 40.1893 145.99C40.0423 146.403 40.0262 146.793 40.1412 147.159C40.2563 147.525 40.4834 147.853 40.8228 148.142C41.1635 148.428 41.5997 148.665 42.1315 148.853Z" fill="#4B5563"/>
<path d="M50.2503 140.292C50.0336 140.801 49.7479 141.22 49.3931 141.55C49.0362 141.875 48.6279 142.08 48.168 142.164C47.7096 142.245 47.2173 142.173 46.691 141.949C46.238 141.757 45.8989 141.514 45.6739 141.221C45.4489 140.927 45.3091 140.599 45.2545 140.234C45.1999 139.87 45.2045 139.487 45.2682 139.086C45.3299 138.681 45.4229 138.274 45.5473 137.867C45.6988 137.376 45.8178 136.976 45.9041 136.667C45.9869 136.357 46.0147 136.118 45.9874 135.95C45.9582 135.778 45.8529 135.653 45.6717 135.575L45.6403 135.562C45.2465 135.395 44.8918 135.382 44.5764 135.523C44.2609 135.664 44.0096 135.954 43.8227 136.393C43.6253 136.856 43.5698 137.266 43.6562 137.624C43.7441 137.978 43.9057 138.26 44.1409 138.471L43.1377 140.13C42.7091 139.783 42.3993 139.38 42.2082 138.92C42.0136 138.459 41.9331 137.962 41.9667 137.429C41.9967 136.895 42.1312 136.348 42.3701 135.787C42.5348 135.401 42.7441 135.036 42.9979 134.691C43.2518 134.347 43.5508 134.061 43.8949 133.833C44.2356 133.604 44.6244 133.469 45.0615 133.428C45.5001 133.385 45.986 133.476 46.5192 133.703L51.8933 135.989L51.1188 137.806L50.0157 137.337L49.989 137.399C50.1631 137.609 50.3032 137.86 50.4093 138.152C50.5135 138.439 50.558 138.764 50.543 139.128C50.5259 139.486 50.4283 139.875 50.2503 140.292ZM49.0689 139.21C49.2307 138.831 49.296 138.47 49.2648 138.128C49.2302 137.784 49.1193 137.484 48.9322 137.227C48.7465 136.967 48.5056 136.775 48.2094 136.649L47.2631 136.246C47.2867 136.326 47.289 136.446 47.27 136.607C47.2524 136.764 47.2223 136.936 47.1794 137.123C47.1366 137.311 47.091 137.495 47.0427 137.676C46.9944 137.857 46.9523 138.014 46.9163 138.147C46.8344 138.445 46.7896 138.724 46.7817 138.984C46.7739 139.244 46.8209 139.471 46.9229 139.667C47.0213 139.861 47.1925 140.01 47.4365 140.113C47.785 140.262 48.1023 140.247 48.3883 140.068C48.6744 139.889 48.9013 139.603 49.0689 139.21Z" fill="#4B5563"/>
<path d="M52.8453 133.934L45.0234 130.067L46.6489 126.786C47.1075 125.861 47.6546 125.221 48.2901 124.868C48.9273 124.512 49.5769 124.498 50.2389 124.825C50.6768 125.041 50.9594 125.371 51.0865 125.814C51.212 126.252 51.1929 126.755 51.0292 127.324C51.2665 126.931 51.5481 126.623 51.8741 126.4C52.2018 126.173 52.5503 126.041 52.9194 126.004C53.2885 125.967 53.6564 126.039 54.0231 126.221C54.4542 126.434 54.7731 126.733 54.9797 127.118C55.1845 127.498 55.2685 127.947 55.2317 128.464C55.1931 128.977 55.0226 129.539 54.7202 130.149L52.8453 133.934ZM52.2483 131.492L53.2689 129.432C53.4369 129.093 53.489 128.787 53.4252 128.515C53.358 128.241 53.1852 128.035 52.9069 127.898C52.5843 127.738 52.2835 127.71 52.0044 127.813C51.722 127.914 51.4967 128.134 51.3287 128.473L50.3081 130.533L52.2483 131.492ZM49.1165 129.944L49.9052 128.352C50.0296 128.101 50.1006 127.868 50.1184 127.653C50.1327 127.436 50.0972 127.248 50.0119 127.087C49.9231 126.925 49.7854 126.798 49.5986 126.706C49.3304 126.573 49.0654 126.579 48.8034 126.724C48.5431 126.866 48.3172 127.13 48.1257 127.516L47.3545 129.073L49.1165 129.944Z" fill="#4B5563"/>
<path d="M56.8469 125.945L55.3718 125.115L55.5215 124.854C55.6344 124.657 55.685 124.465 55.6735 124.28C55.6619 124.095 55.5779 123.898 55.4216 123.691C55.2621 123.482 55.0189 123.252 54.6921 123C54.3653 122.747 53.943 122.46 53.425 122.138L50.1482 120.087L53.3101 114.571L60.8839 118.902L59.8958 120.626L53.7865 117.132L52.5415 119.304L54.9145 120.818C55.5287 121.209 56.0356 121.592 56.4351 121.969C56.8332 122.341 57.1244 122.712 57.3088 123.083C57.495 123.451 57.5764 123.827 57.5531 124.211C57.5264 124.592 57.3964 124.986 57.1631 125.394L56.8469 125.945Z" fill="#4B5563"/>
<path d="M64.3253 113.857C63.8458 114.588 63.2796 115.12 62.6267 115.453C61.9727 115.78 61.2718 115.903 60.5242 115.82C59.7734 115.736 59.0162 115.444 58.2526 114.945C57.5017 114.453 56.9361 113.879 56.5558 113.223C56.1743 112.562 55.9944 111.87 56.0159 111.147C56.0343 110.421 56.2718 109.711 56.7285 109.014C57.0232 108.565 57.3743 108.189 57.7816 107.885C58.1878 107.577 58.6421 107.367 59.1444 107.257C59.6489 107.144 60.1921 107.151 60.7741 107.279C61.3529 107.404 61.9624 107.676 62.6024 108.095L63.1299 108.441L59.2097 114.417L58.0501 113.658L60.8898 109.329C60.5582 109.116 60.2184 108.996 59.8705 108.967C59.5193 108.936 59.1873 108.997 58.8744 109.15C58.5635 109.299 58.3002 109.539 58.0843 109.868C57.8539 110.219 57.737 110.584 57.7337 110.961C57.7273 111.337 57.8131 111.69 57.9912 112.019C58.1682 112.343 58.4188 112.613 58.7431 112.83L59.7554 113.492C60.18 113.77 60.5952 113.931 61.0011 113.975C61.4038 114.017 61.7773 113.951 62.1216 113.779C62.4627 113.604 62.7557 113.33 63.0006 112.956C63.1646 112.706 63.2782 112.457 63.3414 112.209C63.4013 111.959 63.4104 111.714 63.3686 111.474C63.3267 111.234 63.2277 111.008 63.0716 110.797L64.3046 109.311C64.6628 109.69 64.9069 110.126 65.0369 110.618C65.1658 111.105 65.1731 111.625 65.0588 112.179C64.9414 112.731 64.6969 113.291 64.3253 113.857Z" fill="#4B5563"/>
<path d="M66.8408 101.008L68.1948 102.014L65.4207 105.739L64.0667 104.733L66.8408 101.008ZM61.6293 102.129L68.6315 107.333L67.4479 108.922L60.4457 103.719L61.6293 102.129ZM64.8273 97.8353L71.8295 103.039L70.6493 104.623L63.6471 99.42L64.8273 97.8353Z" fill="#4B5563"/>
<path d="M72.3215 98.0323L70.0193 91.541L71.379 89.9246L78.0607 95.5327L76.7814 97.0535L72.2269 93.2308L74.5408 99.7171L73.1774 101.338L66.4957 95.7298L67.7714 94.2133L72.3215 98.0323Z" fill="#4B5563"/>
<path d="M82.2826 91.2429C81.6812 91.8779 81.0298 92.3014 80.3283 92.5135C79.6267 92.7203 78.9152 92.7173 78.1939 92.5044C77.4698 92.2889 76.7762 91.8679 76.1131 91.2412C75.4609 90.6249 75.0057 89.9604 74.7475 89.2476C74.489 88.5294 74.4344 87.8163 74.5836 87.1083C74.73 86.3976 75.0895 85.74 75.6622 85.1353C76.0319 84.745 76.444 84.4365 76.8985 84.2098C77.353 83.9777 77.8371 83.8519 78.3511 83.8323C78.8676 83.81 79.401 83.913 79.9512 84.1413C80.4988 84.367 81.0504 84.7425 81.6063 85.2677L82.0644 85.7007L77.1483 90.8913L76.1412 89.9397L79.7024 86.1796C79.4136 85.9119 79.1005 85.7333 78.7631 85.6436C78.4229 85.5513 78.0853 85.5526 77.7503 85.6475C77.418 85.7397 77.1164 85.9287 76.8457 86.2146C76.5567 86.5197 76.3772 86.8579 76.3071 87.2292C76.2343 87.5979 76.2564 87.9599 76.3735 88.3153C76.4904 88.6654 76.6892 88.9757 76.97 89.2462L77.8492 90.077C78.2179 90.4255 78.5981 90.6571 78.9898 90.7721C79.3788 90.8844 79.758 90.886 80.1274 90.7767C80.4941 90.6648 80.831 90.4467 81.1382 90.1224C81.3438 89.9053 81.4997 89.6802 81.6057 89.447C81.709 89.2113 81.7613 88.9717 81.7626 88.7281C81.7639 88.4845 81.7063 88.2452 81.59 88.0102L83.0666 86.7649C83.352 87.2013 83.5152 87.6732 83.556 88.1806C83.5968 88.6826 83.5119 89.1962 83.3014 89.7213C83.0881 90.2437 82.7485 90.7509 82.2826 91.2429Z" fill="#4B5563"/>
<path d="M186.612 22.4392L188.775 33.8601L186.72 34.2482L184.883 24.5449L179.881 25.4898L181.718 35.1931L179.663 35.5811L177.501 24.1602L186.612 22.4392Z" fill="#4B5563"/>
<path d="M191.984 36.6982L190.576 24.7944L192.585 24.5574L192.755 25.989L192.873 25.975C192.953 25.7522 193.076 25.511 193.239 25.2517C193.403 24.9886 193.638 24.7532 193.946 24.5455C194.252 24.334 194.66 24.1983 195.168 24.1384C195.837 24.0594 196.461 24.1591 197.039 24.4376C197.621 24.7119 198.109 25.1629 198.504 25.7907C198.902 26.4143 199.158 27.207 199.271 28.169C199.384 29.1196 199.323 29.9459 199.09 30.6478C198.856 31.3497 198.491 31.9071 197.994 32.3201C197.498 32.733 196.909 32.9796 196.228 33.0599C195.732 33.1185 195.31 33.0845 194.963 32.9577C194.616 32.831 194.329 32.6629 194.103 32.4535C193.879 32.2399 193.7 32.0343 193.566 31.8367L193.482 31.8467L194.027 36.4572L191.984 36.6982ZM193.091 28.8867C193.158 29.4466 193.295 29.9276 193.502 30.3298C193.714 30.7315 193.984 31.033 194.313 31.2342C194.645 31.4313 195.028 31.5042 195.46 31.4532C195.912 31.3999 196.276 31.2351 196.552 30.9587C196.828 30.6785 197.018 30.3189 197.122 29.8798C197.23 29.4366 197.252 28.9444 197.188 28.4033C197.124 27.866 196.991 27.3979 196.787 26.999C196.584 26.6002 196.316 26.3003 195.983 26.0995C195.65 25.8988 195.256 25.8252 194.801 25.8789C194.365 25.9304 194.008 26.0888 193.73 26.3539C193.453 26.6191 193.259 26.9676 193.15 27.3996C193.045 27.8311 193.025 28.3268 193.091 28.8867Z" fill="#4B5563"/>
<path d="M204.942 32.3247C204.091 32.3757 203.343 32.233 202.696 31.8965C202.05 31.5601 201.534 31.066 201.15 30.4144C200.769 29.7626 200.552 28.9872 200.498 28.0883C200.444 27.1894 200.566 26.3918 200.866 25.6953C201.17 24.9986 201.622 24.4446 202.223 24.0332C202.825 23.6219 203.551 23.3907 204.401 23.3396C205.252 23.2885 206.001 23.4313 206.647 23.7677C207.294 24.1042 207.807 24.6002 208.188 25.2559C208.573 25.9113 208.792 26.6884 208.846 27.5873C208.9 28.4862 208.776 29.2821 208.472 29.975C208.172 30.6677 207.722 31.2197 207.12 31.631C206.519 32.0424 205.793 32.2736 204.942 32.3247ZM204.854 30.6811C205.316 30.6534 205.694 30.5037 205.989 30.232C206.283 29.9566 206.493 29.5991 206.619 29.1595C206.748 28.7196 206.796 28.2353 206.765 27.7065C206.732 27.174 206.626 26.6971 206.445 26.2759C206.268 25.8506 206.016 25.5189 205.691 25.2806C205.365 25.0424 204.972 24.9372 204.511 24.9648C204.038 24.9932 203.652 25.1452 203.354 25.4209C203.06 25.6963 202.848 26.0558 202.719 26.4995C202.594 26.9391 202.547 27.4252 202.579 27.9577C202.611 28.4865 202.715 28.9616 202.892 29.3831C203.073 29.8043 203.326 30.1341 203.652 30.3723C203.981 30.6065 204.382 30.7094 204.854 30.6811Z" fill="#4B5563"/>
<path d="M209.973 34.3921L209.978 30.1695L210.671 30.1703C210.857 30.0267 211.012 29.832 211.138 29.5862C211.263 29.3367 211.366 29.0435 211.445 28.7069C211.529 28.3664 211.598 27.9863 211.651 27.5663C211.705 27.1426 211.753 26.6868 211.795 26.1987L212.048 23.1456L218.355 23.1525L218.347 30.1787L219.7 30.1802L219.695 34.4027L217.706 34.4005L217.709 31.8693L211.999 31.863L211.996 34.3943L209.973 34.3921ZM212.785 30.1726L216.381 30.1766L216.387 24.8076L213.83 24.8048L213.693 26.2008C213.616 27.1239 213.515 27.9146 213.389 28.5728C213.263 29.231 213.062 29.7643 212.785 30.1726Z" fill="#4B5563"/>
<path d="M224.294 32.3276C223.742 32.2914 223.251 32.1606 222.822 31.9352C222.397 31.7064 222.069 31.389 221.837 30.9833C221.609 30.5778 221.514 30.09 221.552 29.5199C221.584 29.0291 221.702 28.6292 221.904 28.3202C222.107 28.0112 222.371 27.7707 222.697 27.5987C223.024 27.4268 223.387 27.3046 223.786 27.2322C224.19 27.1564 224.605 27.1097 225.031 27.0921C225.545 27.0728 225.962 27.0527 226.282 27.0321C226.603 27.0076 226.838 26.9548 226.987 26.8736C227.141 26.7889 227.224 26.6484 227.237 26.452L227.239 26.418C227.267 25.9914 227.162 25.6528 226.925 25.4021C226.687 25.1513 226.33 25.0104 225.853 24.9791C225.351 24.9461 224.945 25.0294 224.636 25.229C224.33 25.4289 224.117 25.6746 223.995 25.9662L222.096 25.5686C222.282 25.0499 222.561 24.6246 222.932 24.2925C223.303 23.9567 223.746 23.7165 224.261 23.5721C224.775 23.4238 225.337 23.3697 225.945 23.4096C226.365 23.4372 226.779 23.5137 227.189 23.6391C227.598 23.7646 227.967 23.9519 228.296 24.201C228.625 24.4463 228.881 24.7683 229.064 25.1671C229.25 25.5661 229.324 26.0544 229.286 26.6321L228.903 32.4538L226.93 32.3243L227.009 31.1294L226.941 31.1249C226.8 31.3584 226.61 31.5734 226.369 31.7699C226.132 31.9629 225.84 32.1124 225.491 32.2185C225.147 32.321 224.747 32.3574 224.294 32.3276ZM224.926 30.8562C225.338 30.8832 225.7 30.8255 226.013 30.683C226.327 30.5367 226.574 30.333 226.754 30.0718C226.938 29.8109 227.041 29.52 227.062 29.1991L227.129 28.174C227.062 28.2227 226.949 28.2645 226.791 28.2997C226.637 28.3351 226.464 28.3635 226.273 28.3851C226.082 28.4067 225.893 28.4246 225.706 28.4389C225.519 28.4532 225.357 28.4653 225.219 28.4752C224.91 28.4966 224.632 28.5466 224.384 28.6251C224.136 28.7036 223.936 28.8232 223.785 28.984C223.634 29.1409 223.55 29.3515 223.533 29.6158C223.508 29.9933 223.627 30.2875 223.89 30.4981C224.154 30.7088 224.499 30.8281 224.926 30.8562Z" fill="#4B5563"/>
<path d="M230.539 32.5245L234.347 28.5063L231.761 23.8928L234.114 24.2173L236.092 28.0366L236.577 28.1033L237.058 24.6232L239.095 24.9042L238.614 28.3843L239.087 28.4495L242.027 25.3086L244.38 25.633L240.656 29.3764L243.215 34.2725L240.811 33.941L238.834 30.1161L238.383 30.054L237.901 33.5398L235.864 33.2588L236.346 29.7731L235.895 29.711L232.943 32.856L230.539 32.5245Z" fill="#4B5563"/>
<path d="M247.059 32.2936L251.706 27.2066L253.774 27.643L251.971 36.1722L250.025 35.7617L251.254 29.9478L246.617 35.0427L244.544 34.6052L246.347 26.0759L248.287 26.4853L247.059 32.2936Z" fill="#4B5563"/>
<path d="M350.807 80.7315L352.675 82.5083L349.362 90.9873L349.461 91.0812L357.777 87.3614L359.645 89.1382L351.621 97.5557L350.156 96.1624L355.669 90.3795L355.59 90.3052L347.772 93.8482L346.678 92.8072L349.85 84.8214L349.772 84.747L344.247 90.5423L342.782 89.149L350.807 80.7315Z" fill="#4B5563"/>
<path d="M354.801 101.329C354.43 100.919 354.168 100.485 354.016 100.025C353.87 99.565 353.855 99.1089 353.97 98.6565C354.089 98.2069 354.36 97.7901 354.784 97.4063C355.148 97.0758 355.511 96.8698 355.872 96.7882C356.232 96.7067 356.59 96.7174 356.944 96.8203C357.298 96.9233 357.644 97.0875 357.982 97.3128C358.325 97.5384 358.656 97.7929 358.974 98.0763C359.357 98.419 359.671 98.6941 359.916 98.9016C360.163 99.1065 360.369 99.2317 360.533 99.2772C360.702 99.3229 360.86 99.2797 361.006 99.1475L361.031 99.1246C361.348 98.8374 361.508 98.521 361.512 98.1757C361.515 97.8303 361.357 97.4811 361.036 97.1279C360.697 96.7552 360.348 96.5333 359.986 96.4621C359.628 96.3938 359.303 96.4222 359.013 96.5473L357.925 94.9435C358.419 94.6997 358.915 94.5872 359.413 94.6061C359.914 94.6224 360.399 94.7572 360.87 95.0105C361.343 95.2612 361.784 95.6121 362.194 96.0633C362.477 96.3744 362.721 96.7171 362.928 97.0915C363.135 97.4658 363.27 97.8568 363.334 98.2643C363.4 98.6693 363.36 99.0785 363.213 99.492C363.07 99.9082 362.783 100.311 362.354 100.7L358.028 104.62L356.699 103.157L357.587 102.352L357.542 102.302C357.278 102.372 356.991 102.394 356.682 102.368C356.377 102.343 356.063 102.247 355.738 102.081C355.419 101.916 355.107 101.665 354.801 101.329ZM356.28 100.709C356.557 101.015 356.858 101.225 357.182 101.34C357.509 101.452 357.828 101.477 358.14 101.415C358.454 101.355 358.73 101.217 358.969 101.001L359.73 100.311C359.648 100.299 359.537 100.251 359.399 100.166C359.264 100.085 359.12 99.9852 358.968 99.8679C358.815 99.7507 358.667 99.6323 358.522 99.5128C358.378 99.3933 358.253 99.2894 358.147 99.2012C357.91 99.0022 357.675 98.8448 357.442 98.729C357.209 98.6132 356.983 98.5606 356.762 98.5713C356.545 98.5795 356.338 98.6725 356.141 98.8505C355.861 99.1047 355.742 99.3989 355.784 99.7331C355.827 100.067 355.992 100.393 356.28 100.709Z" fill="#4B5563"/>
<path d="M356.738 108.128L366.074 100.598L367.345 102.17L366.222 103.076L366.297 103.168C366.529 103.118 366.798 103.093 367.105 103.093C367.415 103.091 367.74 103.165 368.08 103.314C368.422 103.461 368.754 103.733 369.075 104.13C369.499 104.654 369.747 105.235 369.819 105.872C369.896 106.51 369.774 107.163 369.452 107.831C369.136 108.499 368.6 109.138 367.846 109.746C367.1 110.348 366.368 110.736 365.648 110.913C364.929 111.089 364.263 111.077 363.648 110.877C363.034 110.677 362.511 110.311 362.081 109.778C361.767 109.39 361.571 109.015 361.493 108.654C361.416 108.293 361.406 107.961 361.462 107.658C361.524 107.355 361.603 107.095 361.699 106.876L361.646 106.81L358.03 109.726L356.738 108.128ZM363.946 104.904C363.507 105.258 363.172 105.63 362.942 106.02C362.715 106.412 362.603 106.801 362.608 107.187C362.618 107.573 362.759 107.935 363.033 108.273C363.319 108.627 363.652 108.846 364.033 108.933C364.418 109.017 364.824 108.986 365.251 108.84C365.684 108.695 366.113 108.452 366.537 108.11C366.959 107.77 367.284 107.408 367.514 107.023C367.744 106.638 367.855 106.252 367.848 105.864C367.841 105.476 367.693 105.104 367.405 104.747C367.129 104.406 366.805 104.188 366.433 104.095C366.06 104.001 365.662 104.024 365.238 104.161C364.816 104.302 364.385 104.55 363.946 104.904Z" fill="#4B5563"/>
<path d="M365.7 114.158L372.812 109.106L374.004 110.78L371.133 112.819L371.568 113.43L375.96 113.527L377.396 115.544L372.031 115.392L370.303 120.624L368.861 118.598L370.156 114.746L369.573 113.928L366.892 115.832L365.7 114.158Z" fill="#4B5563"/>
<path d="M372.876 125.018C372.41 124.278 372.162 123.542 372.131 122.811C372.106 122.081 372.286 121.393 372.672 120.748C373.061 120.102 373.642 119.536 374.415 119.05C375.175 118.573 375.933 118.298 376.688 118.226C377.449 118.155 378.154 118.28 378.803 118.601C379.456 118.919 380.004 119.431 380.447 120.136C380.734 120.591 380.93 121.066 381.037 121.562C381.148 122.06 381.15 122.56 381.041 123.062C380.934 123.567 380.701 124.057 380.342 124.532C379.987 125.006 379.486 125.446 378.838 125.853L378.304 126.188L374.496 120.139L375.67 119.402L378.428 123.784C378.76 123.571 379.011 123.313 379.182 123.009C379.356 122.703 379.439 122.376 379.431 122.028C379.424 121.684 379.316 121.345 379.106 121.012C378.882 120.656 378.599 120.398 378.257 120.238C377.917 120.076 377.561 120.007 377.187 120.031C376.819 120.057 376.468 120.172 376.136 120.376L375.111 121.02C374.682 121.29 374.362 121.6 374.153 121.95C373.947 122.298 373.851 122.665 373.865 123.049C373.882 123.432 374.01 123.812 374.248 124.19C374.407 124.443 374.586 124.65 374.786 124.811C374.989 124.97 375.208 125.08 375.444 125.142C375.68 125.204 375.926 125.208 376.183 125.154L377.022 126.892C376.528 127.06 376.03 127.1 375.528 127.013C375.031 126.927 374.554 126.717 374.098 126.383C373.644 126.046 373.237 125.591 372.876 125.018Z" fill="#4B5563"/>
<path d="M381.903 125.952L383.38 125.137L387.073 131.814L385.595 132.629L384.23 130.16L378.068 133.561L377.106 131.822L383.268 128.421L381.903 125.952Z" fill="#4B5563"/>
<path d="M383.668 138.323L390.536 138.919L391.446 140.825L383.568 144.577L382.712 142.783L388.082 140.226L381.214 139.643L380.302 137.732L388.179 133.981L389.033 135.769L383.668 138.323Z" fill="#4B5563"/>
<path d="M391.542 150.19L389.978 150.823L388.231 146.521L389.795 145.888L391.542 150.19ZM393.288 145.158L385.201 148.435L384.455 146.6L392.543 143.323L393.288 145.158ZM395.302 150.118L387.215 153.395L386.472 151.565L394.559 148.288L395.302 150.118Z" fill="#4B5563"/>
<path d="M398.104 158.074L396.509 158.626L395.277 155.076L388.626 157.379L387.967 155.481L396.213 152.626L398.104 158.074Z" fill="#4B5563"/>
<path d="M147.384 377.143L142.324 387.61L140.441 386.702L144.74 377.809L140.156 375.598L135.857 384.49L133.974 383.582L139.034 373.115L147.384 377.143Z" fill="#4B5563"/>
<path d="M144.491 392.108L148.949 380.98L150.827 381.73L150.291 383.069L150.401 383.113C150.579 382.956 150.801 382.802 151.069 382.652C151.339 382.499 151.658 382.405 152.027 382.369C152.398 382.33 152.821 382.405 153.296 382.595C153.922 382.845 154.422 383.23 154.797 383.751C155.177 384.27 155.39 384.899 155.436 385.639C155.487 386.376 155.333 387.195 154.973 388.094C154.617 388.983 154.168 389.68 153.627 390.185C153.086 390.69 152.499 391.005 151.865 391.131C151.231 391.257 150.596 391.192 149.959 390.938C149.495 390.753 149.141 390.521 148.897 390.244C148.653 389.968 148.481 389.683 148.382 389.391C148.288 389.096 148.229 388.83 148.206 388.593L148.127 388.561L146.4 392.872L144.491 392.108ZM149.2 385.775C148.991 386.298 148.881 386.786 148.871 387.239C148.865 387.693 148.958 388.086 149.15 388.42C149.348 388.752 149.649 388.999 150.054 389.16C150.476 389.329 150.874 389.358 151.249 389.247C151.625 389.132 151.964 388.907 152.266 388.571C152.573 388.233 152.828 387.811 153.03 387.306C153.231 386.803 153.338 386.328 153.35 385.881C153.362 385.433 153.27 385.042 153.074 384.707C152.878 384.372 152.567 384.119 152.141 383.949C151.733 383.786 151.344 383.754 150.973 383.855C150.602 383.955 150.266 384.169 149.963 384.497C149.664 384.825 149.41 385.252 149.2 385.775Z" fill="#4B5563"/>
<path d="M158.836 394.188C158.028 393.917 157.387 393.505 156.913 392.952C156.44 392.399 156.147 391.748 156.034 391C155.925 390.253 156.013 389.453 156.299 388.599C156.585 387.745 156.998 387.051 157.536 386.517C158.078 385.984 158.705 385.639 159.417 385.482C160.129 385.325 160.889 385.382 161.697 385.652C162.505 385.922 163.146 386.334 163.62 386.887C164.093 387.441 164.384 388.093 164.492 388.843C164.604 389.595 164.516 390.397 164.23 391.251C163.944 392.105 163.53 392.797 162.99 393.326C162.452 393.857 161.828 394.2 161.116 394.357C160.404 394.514 159.644 394.458 158.836 394.188ZM159.37 392.63C159.808 392.777 160.215 392.779 160.59 392.637C160.966 392.492 161.295 392.239 161.576 391.878C161.86 391.518 162.086 391.087 162.255 390.585C162.424 390.079 162.504 389.597 162.494 389.138C162.488 388.678 162.379 388.276 162.166 387.934C161.954 387.591 161.628 387.347 161.19 387.2C160.741 387.05 160.327 387.047 159.947 387.191C159.57 387.337 159.239 387.591 158.954 387.955C158.673 388.316 158.448 388.749 158.278 389.255C158.11 389.757 158.029 390.237 158.036 390.694C158.046 391.152 158.157 391.553 158.37 391.895C158.588 392.235 158.921 392.48 159.37 392.63Z" fill="#4B5563"/>
<path d="M168.658 400.045L172.332 385.928L174.328 386.446L170.655 400.563L168.658 400.045ZM169.362 397.342C168.742 397.181 168.203 396.93 167.744 396.588C167.285 396.246 166.919 395.834 166.645 395.353C166.375 394.872 166.206 394.339 166.139 393.755C166.076 393.168 166.13 392.551 166.298 391.902C166.467 391.254 166.722 390.689 167.062 390.207C167.407 389.725 167.814 389.341 168.285 389.052C168.759 388.761 169.281 388.578 169.848 388.502C170.416 388.427 171.009 388.47 171.629 388.631L172.052 388.741L169.785 397.452L169.362 397.342ZM169.779 395.738L170.027 395.803L171.459 390.299L171.212 390.235C170.86 390.143 170.529 390.135 170.22 390.211C169.915 390.285 169.637 390.426 169.387 390.635C169.142 390.841 168.928 391.098 168.746 391.406C168.569 391.712 168.431 392.054 168.333 392.431C168.202 392.932 168.165 393.413 168.221 393.874C168.279 394.33 168.434 394.725 168.689 395.056C168.946 395.389 169.31 395.617 169.779 395.738ZM171.358 397.861L170.934 397.751L173.202 389.039L173.625 389.149C174.245 389.31 174.784 389.561 175.243 389.903C175.702 390.245 176.066 390.658 176.335 391.143C176.609 391.624 176.777 392.159 176.84 392.746C176.906 393.334 176.855 393.952 176.686 394.6C176.517 395.248 176.261 395.813 175.916 396.294C175.576 396.773 175.169 397.156 174.695 397.443C174.225 397.731 173.706 397.913 173.139 397.989C172.571 398.064 171.977 398.022 171.358 397.861ZM171.775 396.257C172.131 396.349 172.461 396.359 172.766 396.285C173.071 396.212 173.346 396.072 173.591 395.866C173.84 395.661 174.054 395.406 174.231 395.1C174.409 394.791 174.548 394.447 174.646 394.07C174.776 393.568 174.815 393.088 174.763 392.628C174.71 392.169 174.555 391.773 174.297 391.44C174.044 391.105 173.681 390.876 173.208 390.753L172.96 390.689L171.528 396.192L171.775 396.257Z" fill="#4B5563"/>
<path d="M182.17 400.23C181.31 400.068 180.601 399.75 180.043 399.275C179.489 398.798 179.107 398.198 178.896 397.477C178.686 396.752 178.665 395.942 178.834 395.046C179 394.164 179.313 393.422 179.774 392.82C180.239 392.214 180.809 391.783 181.486 391.525C182.164 391.263 182.912 391.21 183.731 391.364C184.26 391.463 184.742 391.642 185.179 391.902C185.62 392.158 185.988 392.497 186.283 392.918C186.581 393.34 186.783 393.843 186.888 394.429C186.994 395.011 186.977 395.678 186.835 396.429L186.718 397.048L179.689 395.726L179.945 394.365L185.037 395.323C185.107 394.935 185.088 394.576 184.981 394.244C184.874 393.908 184.691 393.625 184.429 393.395C184.172 393.166 183.85 393.015 183.463 392.942C183.049 392.864 182.667 392.896 182.317 393.038C181.967 393.177 181.674 393.391 181.438 393.682C181.207 393.969 181.053 394.304 180.977 394.686L180.753 395.874C180.659 396.373 180.67 396.817 180.785 397.209C180.901 397.596 181.105 397.916 181.397 398.167C181.689 398.414 182.055 398.579 182.494 398.662C182.788 398.717 183.062 398.726 183.316 398.689C183.57 398.649 183.8 398.563 184.006 398.432C184.212 398.302 184.382 398.124 184.517 397.899L186.365 398.466C186.151 398.942 185.842 399.334 185.437 399.643C185.037 399.949 184.558 400.155 184.002 400.262C183.447 400.366 182.836 400.355 182.17 400.23Z" fill="#4B5563"/>
<path d="M192.584 401.847C191.719 401.737 191.001 401.454 190.429 400.997C189.861 400.54 189.452 399.956 189.202 399.245C188.957 398.532 188.889 397.738 189 396.863C189.111 395.985 189.378 395.231 189.802 394.602C190.226 393.969 190.769 393.504 191.433 393.206C192.101 392.905 192.858 392.808 193.704 392.915C194.406 393.004 195.012 393.212 195.52 393.54C196.033 393.864 196.421 394.281 196.685 394.791C196.949 395.297 197.064 395.865 197.03 396.493L195.08 396.247C195.054 395.82 194.91 395.449 194.648 395.134C194.391 394.815 194.016 394.625 193.524 394.563C193.106 394.51 192.726 394.576 192.382 394.762C192.038 394.943 191.751 395.231 191.522 395.626C191.296 396.02 191.147 396.509 191.073 397.091C190.998 397.68 191.021 398.198 191.14 398.644C191.259 399.086 191.461 399.441 191.743 399.71C192.031 399.975 192.386 400.134 192.811 400.188C193.112 400.226 193.388 400.203 193.639 400.121C193.894 400.035 194.116 399.893 194.305 399.696C194.494 399.499 194.639 399.248 194.738 398.944L196.689 399.19C196.562 399.796 196.313 400.316 195.941 400.749C195.57 401.179 195.099 401.493 194.528 401.692C193.957 401.887 193.309 401.938 192.584 401.847Z" fill="#4B5563"/>
<path d="M202.957 402.825C202.087 402.767 201.353 402.527 200.755 402.105C200.16 401.683 199.717 401.124 199.425 400.43C199.137 399.732 199.023 398.944 199.081 398.064C199.139 397.181 199.361 396.412 199.746 395.759C200.131 395.102 200.646 394.605 201.291 394.268C201.94 393.928 202.69 393.786 203.54 393.842C204.247 393.889 204.864 394.061 205.391 394.357C205.922 394.65 206.334 395.043 206.628 395.537C206.922 396.026 207.071 396.586 207.075 397.216L205.113 397.086C205.062 396.662 204.896 396.3 204.616 396.001C204.34 395.698 203.954 395.531 203.459 395.498C203.039 395.47 202.663 395.559 202.331 395.765C201.999 395.966 201.73 396.271 201.524 396.678C201.323 397.086 201.203 397.582 201.164 398.167C201.125 398.76 201.178 399.276 201.323 399.714C201.469 400.148 201.691 400.491 201.99 400.742C202.292 400.989 202.657 401.127 203.084 401.155C203.387 401.175 203.661 401.137 203.906 401.039C204.156 400.938 204.369 400.783 204.546 400.575C204.723 400.367 204.852 400.108 204.934 399.799L206.895 399.928C206.805 400.54 206.588 401.074 206.243 401.529C205.898 401.98 205.446 402.322 204.888 402.554C204.33 402.783 203.686 402.873 202.957 402.825Z" fill="#4B5563"/>
<path d="M211.296 400.218L214.829 394.305L216.943 394.319L216.885 403.036L214.896 403.023L214.936 397.081L211.413 403L209.294 402.986L209.352 394.269L211.335 394.282L211.296 400.218Z" fill="#4B5563"/>
<path d="M223.442 402.94C222.591 402.985 221.843 402.836 221.199 402.495C220.556 402.154 220.044 401.656 219.664 401.001C219.289 400.346 219.077 399.569 219.03 398.67C218.983 397.771 219.112 396.974 219.417 396.28C219.725 395.586 220.182 395.035 220.786 394.628C221.391 394.222 222.119 393.996 222.97 393.951C223.821 393.907 224.568 394.055 225.212 394.396C225.856 394.738 226.366 395.238 226.742 395.896C227.121 396.555 227.335 397.333 227.382 398.233C227.429 399.132 227.298 399.927 226.99 400.617C226.684 401.308 226.23 401.856 225.625 402.263C225.021 402.67 224.293 402.896 223.442 402.94ZM223.367 401.296C223.828 401.272 224.207 401.125 224.504 400.856C224.801 400.582 225.014 400.227 225.142 399.788C225.275 399.349 225.327 398.865 225.299 398.336C225.271 397.803 225.169 397.326 224.991 396.903C224.817 396.476 224.568 396.143 224.244 395.902C223.921 395.661 223.528 395.553 223.067 395.577C222.594 395.602 222.207 395.751 221.907 396.025C221.61 396.298 221.395 396.656 221.263 397.098C221.134 397.537 221.084 398.023 221.112 398.555C221.14 399.084 221.241 399.56 221.415 399.983C221.592 400.406 221.843 400.737 222.167 400.978C222.494 401.215 222.894 401.321 223.367 401.296Z" fill="#4B5563"/>
<path d="M235.486 396.484L235.673 398.159L231.054 398.674L230.867 396.999L235.486 396.484ZM231.11 393.442L232.078 402.106L230.107 402.326L229.139 393.662L231.11 393.442ZM236.435 392.849L237.403 401.513L235.437 401.732L234.47 393.068L236.435 392.849Z" fill="#4B5563"/>
<path d="M242.986 400.815C242.441 400.908 241.933 400.895 241.463 400.776C240.996 400.652 240.603 400.42 240.283 400.08C239.967 399.738 239.761 399.286 239.664 398.723C239.581 398.238 239.602 397.822 239.727 397.474C239.852 397.127 240.053 396.831 240.33 396.588C240.608 396.345 240.932 396.141 241.304 395.978C241.679 395.81 242.071 395.668 242.482 395.552C242.977 395.414 243.378 395.297 243.684 395.203C243.99 395.104 244.206 394.998 244.333 394.884C244.463 394.766 244.511 394.61 244.477 394.416L244.472 394.383C244.399 393.961 244.218 393.656 243.929 393.468C243.639 393.279 243.259 393.225 242.788 393.306C242.292 393.391 241.916 393.566 241.662 393.832C241.412 394.098 241.262 394.387 241.211 394.698L239.272 394.754C239.332 394.206 239.504 393.727 239.787 393.318C240.07 392.905 240.445 392.568 240.911 392.308C241.377 392.044 241.911 391.861 242.512 391.758C242.926 391.687 243.347 391.665 243.774 391.692C244.202 391.719 244.604 391.815 244.982 391.981C245.36 392.143 245.684 392.396 245.954 392.741C246.229 393.086 246.415 393.544 246.512 394.114L247.498 399.865L245.549 400.198L245.347 399.018L245.28 399.029C245.197 399.289 245.062 399.543 244.874 399.79C244.689 400.033 244.439 400.246 244.125 400.43C243.813 400.61 243.434 400.738 242.986 400.815ZM243.257 399.237C243.664 399.167 244.003 399.027 244.275 398.816C244.545 398.6 244.738 398.345 244.852 398.049C244.97 397.752 245.002 397.445 244.948 397.128L244.775 396.116C244.72 396.179 244.62 396.246 244.475 396.317C244.333 396.387 244.172 396.455 243.991 396.521C243.81 396.586 243.63 396.647 243.452 396.705C243.273 396.762 243.118 396.812 242.987 396.853C242.692 396.946 242.433 397.06 242.21 397.194C241.987 397.328 241.82 397.49 241.711 397.682C241.601 397.87 241.568 398.094 241.613 398.355C241.677 398.728 241.862 398.986 242.167 399.13C242.472 399.273 242.835 399.309 243.257 399.237Z" fill="#4B5563"/>
<path d="M249.863 399.4L249.469 397.755L249.762 397.687C249.984 397.635 250.159 397.543 250.287 397.408C250.415 397.273 250.502 397.079 250.548 396.823C250.593 396.564 250.597 396.229 250.559 395.818C250.522 395.408 250.446 394.903 250.331 394.304L249.607 390.51L255.807 389.075L257.778 397.567L255.84 398.015L254.251 391.165L251.81 391.73L252.312 394.498C252.443 395.213 252.506 395.845 252.501 396.394C252.499 396.938 252.425 397.404 252.277 397.792C252.134 398.179 251.913 398.494 251.616 398.737C251.318 398.977 250.94 399.15 250.482 399.256L249.863 399.4Z" fill="#4B5563"/>
<path d="M260.343 390.751L262.813 390.026C263.881 389.712 264.784 389.729 265.522 390.076C266.26 390.423 266.755 391.018 267.006 391.859C267.164 392.408 267.173 392.934 267.032 393.436C266.896 393.938 266.613 394.384 266.183 394.774C265.755 395.16 265.185 395.458 264.473 395.667L260.668 396.784L258.207 388.421L260.109 387.862L262.095 394.609L263.997 394.05C264.426 393.924 264.746 393.711 264.958 393.413C265.17 393.11 265.224 392.786 265.123 392.441C265.016 392.078 264.791 391.823 264.447 391.676C264.104 391.528 263.718 391.517 263.289 391.643L260.819 392.368L260.343 390.751Z" fill="#4B5563"/>
<path d="M274.353 386.867L274.922 388.454L270.547 390.02L269.977 388.433L274.353 386.867ZM269.392 384.917L272.336 393.124L270.469 393.792L267.525 385.585L269.392 384.917ZM274.436 383.112L277.38 391.318L275.519 391.984L272.575 383.778L274.436 383.112Z" fill="#4B5563"/>
<path d="M279.095 384.298L281.452 383.265C282.472 382.818 283.37 382.72 284.146 382.971C284.922 383.222 285.489 383.749 285.845 384.551C286.071 385.076 286.147 385.597 286.071 386.113C286 386.628 285.775 387.106 285.398 387.548C285.024 387.985 284.496 388.352 283.816 388.65L280.184 390.241L276.679 382.257L278.496 381.462L281.322 387.902L283.139 387.106C283.548 386.927 283.839 386.676 284.011 386.352C284.182 386.025 284.195 385.697 284.051 385.368C283.899 385.022 283.643 384.797 283.283 384.694C282.924 384.591 282.539 384.63 282.13 384.809L279.773 385.841L279.095 384.298ZM288.021 386.808L284.516 378.825L286.4 378L289.904 385.983L288.021 386.808Z" fill="#4B5563"/>
<path d="M296.076 382.991C295.301 383.397 294.547 383.586 293.815 383.559C293.084 383.527 292.412 383.294 291.799 382.859C291.184 382.42 290.665 381.797 290.241 380.989C289.824 380.195 289.61 379.419 289.597 378.661C289.586 377.898 289.766 377.206 290.137 376.584C290.506 375.96 291.06 375.454 291.798 375.068C292.275 374.818 292.765 374.66 293.268 374.593C293.774 374.521 294.273 374.559 294.765 374.707C295.261 374.853 295.732 375.124 296.178 375.518C296.623 375.909 297.023 376.443 297.378 377.12L297.67 377.678L291.334 380.994L290.691 379.767L295.281 377.365C295.094 377.018 294.856 376.748 294.566 376.554C294.274 376.356 293.955 376.248 293.607 376.229C293.263 376.209 292.916 376.29 292.567 376.472C292.195 376.667 291.915 376.929 291.728 377.257C291.539 377.583 291.443 377.932 291.438 378.306C291.435 378.675 291.522 379.033 291.7 379.38L292.261 380.451C292.497 380.9 292.781 381.242 293.115 381.478C293.446 381.711 293.804 381.835 294.189 381.851C294.572 381.864 294.962 381.767 295.358 381.56C295.623 381.421 295.843 381.259 296.019 381.073C296.194 380.883 296.321 380.674 296.401 380.444C296.482 380.214 296.505 379.969 296.471 379.709L298.273 379.009C298.401 379.515 298.402 380.014 298.276 380.507C298.151 380.995 297.904 381.453 297.534 381.882C297.163 382.307 296.677 382.677 296.076 382.991Z" fill="#4B5563"/>
<path d="M186.211 414.666L188.227 414.974C188.197 415.298 188.303 415.569 188.546 415.786C188.789 416.003 189.125 416.144 189.556 416.209C189.994 416.276 190.377 416.237 190.706 416.092C191.039 415.944 191.236 415.673 191.296 415.28C191.331 415.049 191.304 414.836 191.215 414.642C191.126 414.445 190.984 414.282 190.79 414.153C190.595 414.024 190.355 413.937 190.07 413.894L188.75 413.693L188.971 412.251L190.291 412.452C190.714 412.516 191.049 412.468 191.296 412.307C191.546 412.146 191.694 411.918 191.739 411.622C191.788 411.304 191.711 411.028 191.509 410.795C191.311 410.562 191.01 410.414 190.605 410.353C190.201 410.291 189.85 410.331 189.552 410.474C189.259 410.616 189.084 410.831 189.029 411.117L187.024 410.812C187.108 410.312 187.324 409.899 187.673 409.573C188.025 409.248 188.466 409.02 188.995 408.89C189.529 408.761 190.11 408.744 190.739 408.84C191.413 408.943 191.98 409.133 192.439 409.409C192.899 409.686 193.234 410.026 193.445 410.429C193.656 410.829 193.724 411.272 193.65 411.758C193.578 412.226 193.373 412.591 193.034 412.853C192.696 413.111 192.27 413.268 191.755 413.324L191.742 413.414C192.079 413.484 192.372 413.628 192.618 413.846C192.865 414.059 193.047 414.326 193.163 414.646C193.279 414.966 193.307 415.321 193.247 415.71C193.167 416.237 192.945 416.67 192.583 417.01C192.222 417.345 191.759 417.575 191.196 417.7C190.637 417.825 190.016 417.836 189.335 417.732C188.672 417.631 188.094 417.441 187.6 417.163C187.11 416.882 186.741 416.529 186.491 416.104C186.242 415.68 186.148 415.2 186.211 414.666Z" fill="#4B5563"/>
<path d="M202.349 413.845L202.192 415.523L197.564 415.089L197.722 413.411L202.349 413.845ZM198.684 409.979L197.868 418.658L195.894 418.473L196.709 409.794L198.684 409.979ZM204.018 410.479L203.203 419.158L201.234 418.973L202.049 410.294L204.018 410.479Z" fill="#4B5563"/>
<path d="M208.652 419.609C208.1 419.589 207.605 419.473 207.17 419.261C206.738 419.044 206.4 418.737 206.157 418.338C205.917 417.94 205.807 417.455 205.828 416.884C205.846 416.392 205.951 415.989 206.144 415.674C206.338 415.359 206.595 415.111 206.916 414.93C207.237 414.748 207.596 414.615 207.993 414.531C208.395 414.443 208.808 414.384 209.234 414.354C209.747 414.32 210.163 414.287 210.482 414.257C210.802 414.223 211.035 414.163 211.182 414.078C211.333 413.988 211.412 413.845 211.419 413.649L211.421 413.615C211.436 413.188 211.321 412.852 211.076 412.609C210.831 412.365 210.47 412.235 209.993 412.218C209.489 412.2 209.086 412.295 208.783 412.504C208.483 412.712 208.277 412.964 208.164 413.259L206.255 412.918C206.425 412.394 206.691 411.961 207.052 411.618C207.413 411.271 207.849 411.018 208.359 410.858C208.869 410.695 209.428 410.624 210.038 410.646C210.458 410.661 210.875 410.725 211.287 410.839C211.7 410.952 212.075 411.128 212.411 411.367C212.748 411.603 213.013 411.917 213.207 412.31C213.405 412.704 213.494 413.189 213.473 413.768L213.264 419.599L211.288 419.528L211.331 418.331L211.262 418.328C211.129 418.566 210.945 418.787 210.71 418.99C210.479 419.19 210.191 419.348 209.846 419.465C209.504 419.577 209.107 419.625 208.652 419.609ZM209.24 418.12C209.653 418.134 210.014 418.066 210.322 417.914C210.631 417.759 210.872 417.548 211.044 417.281C211.221 417.015 211.315 416.721 211.326 416.4L211.363 415.373C211.297 415.424 211.185 415.469 211.028 415.509C210.875 415.549 210.704 415.582 210.513 415.61C210.323 415.637 210.134 415.66 209.948 415.68C209.761 415.7 209.6 415.717 209.463 415.731C209.155 415.762 208.878 415.82 208.632 415.906C208.386 415.991 208.19 416.117 208.044 416.282C207.898 416.443 207.82 416.656 207.811 416.921C207.797 417.299 207.925 417.59 208.195 417.792C208.464 417.995 208.813 418.104 209.24 418.12Z" fill="#4B5563"/>
<path d="M222.027 414.28L222.063 415.965L217.417 416.065L217.38 414.379L222.027 414.28ZM217.941 410.859L218.129 419.575L216.146 419.617L215.959 410.902L217.941 410.859ZM223.298 410.744L223.485 419.46L221.509 419.502L221.321 410.787L223.298 410.744Z" fill="#4B5563"/>
<path d="M228.338 416.361L231.331 410.157L233.437 409.983L234.156 418.671L232.174 418.835L231.684 412.913L228.703 419.121L226.59 419.295L225.872 410.607L227.848 410.444L228.338 416.361Z" fill="#4B5563"/>
<path d="M242.426 417.567L241.421 410.59L239.577 410.855C239.108 410.922 238.764 411.083 238.544 411.336C238.324 411.589 238.239 411.877 238.289 412.198C238.332 412.521 238.488 412.77 238.758 412.945C239.028 413.12 239.387 413.176 239.833 413.112L242.386 412.745L242.6 414.228L240.046 414.595C239.357 414.694 238.745 414.671 238.211 414.526C237.677 414.381 237.247 414.13 236.92 413.771C236.593 413.413 236.391 412.968 236.314 412.436C236.234 411.882 236.302 411.381 236.517 410.934C236.735 410.482 237.083 410.107 237.56 409.809C238.041 409.507 238.634 409.305 239.339 409.204L243.09 408.664L244.333 417.293L242.426 417.567ZM236.847 418.369L238.622 413.595L240.63 413.307L238.849 418.081L236.847 418.369Z" fill="#4B5563"/>
<mask id="path-12-inside-2_445_2481" fill="white">
<ellipse cx="69.5708" cy="129.855" rx="8" ry="7.99102"/>
</mask>
<ellipse cx="69.5708" cy="129.855" rx="8" ry="7.99102" fill="white"/>
<path d="M65.5708 129.855C65.5708 127.628 67.3744 125.846 69.5708 125.846V149.846C80.6038 149.846 89.5708 140.908 89.5708 129.855H65.5708ZM69.5708 125.846C71.7672 125.846 73.5708 127.628 73.5708 129.855H49.5708C49.5708 140.908 58.5378 149.846 69.5708 149.846V125.846ZM73.5708 129.855C73.5708 132.081 71.7672 133.864 69.5708 133.864V109.864C58.5378 109.864 49.5708 118.801 49.5708 129.855H73.5708ZM69.5708 133.864C67.3744 133.864 65.5708 132.081 65.5708 129.855H89.5708C89.5708 118.801 80.6038 109.864 69.5708 109.864V133.864Z" fill="#4B5563" mask="url(#path-12-inside-2_445_2481)"/>
<mask id="path-14-inside-3_445_2481" fill="white">
<ellipse cx="215.571" cy="47.9466" rx="8" ry="7.99102"/>
</mask>
<ellipse cx="215.571" cy="47.9466" rx="8" ry="7.99102" fill="white"/>
<path d="M211.571 47.9466C211.571 45.7198 213.374 43.9376 215.571 43.9376V67.9376C226.604 67.9376 235.571 59 235.571 47.9466H211.571ZM215.571 43.9376C217.767 43.9376 219.571 45.7198 219.571 47.9466H195.571C195.571 59 204.538 67.9376 215.571 67.9376V43.9376ZM219.571 47.9466C219.571 50.1734 217.767 51.9556 215.571 51.9556V27.9556C204.538 27.9556 195.571 36.8931 195.571 47.9466H219.571ZM215.571 51.9556C213.374 51.9556 211.571 50.1734 211.571 47.9466H235.571C235.571 36.8931 226.604 27.9556 215.571 27.9556V51.9556Z" fill="#4B5563" mask="url(#path-14-inside-3_445_2481)"/>
<mask id="path-16-inside-4_445_2481" fill="white">
<ellipse cx="358.571" cy="129.855" rx="8" ry="7.99102"/>
</mask>
<ellipse cx="358.571" cy="129.855" rx="8" ry="7.99102" fill="white"/>
<path d="M354.571 129.855C354.571 127.628 356.374 125.846 358.571 125.846V149.846C369.604 149.846 378.571 140.908 378.571 129.855H354.571ZM358.571 125.846C360.767 125.846 362.571 127.628 362.571 129.855H338.571C338.571 140.908 347.538 149.846 358.571 149.846V125.846ZM362.571 129.855C362.571 132.081 360.767 133.864 358.571 133.864V109.864C347.538 109.864 338.571 118.801 338.571 129.855H362.571ZM358.571 133.864C356.374 133.864 354.571 132.081 354.571 129.855H378.571C378.571 118.801 369.604 109.864 358.571 109.864V133.864Z" fill="#4B5563" mask="url(#path-16-inside-4_445_2481)"/>
<mask id="path-18-inside-5_445_2481" fill="white">
<ellipse cx="358.571" cy="297.666" rx="8" ry="7.99102"/>
</mask>
<ellipse cx="358.571" cy="297.666" rx="8" ry="7.99102" fill="white"/>
<path d="M354.571 297.666C354.571 295.439 356.374 293.657 358.571 293.657V317.657C369.604 317.657 378.571 308.719 378.571 297.666H354.571ZM358.571 293.657C360.767 293.657 362.571 295.439 362.571 297.666H338.571C338.571 308.719 347.538 317.657 358.571 317.657V293.657ZM362.571 297.666C362.571 299.893 360.767 301.675 358.571 301.675V277.675C347.538 277.675 338.571 286.613 338.571 297.666H362.571ZM358.571 301.675C356.374 301.675 354.571 299.893 354.571 297.666H378.571C378.571 286.613 369.604 277.675 358.571 277.675V301.675Z" fill="#4B5563" mask="url(#path-18-inside-5_445_2481)"/>
<mask id="path-20-inside-6_445_2481" fill="white">
<ellipse cx="216.571" cy="380.573" rx="8" ry="7.99102"/>
</mask>
<ellipse cx="216.571" cy="380.573" rx="8" ry="7.99102" fill="white"/>
<path d="M212.571 380.573C212.571 378.346 214.374 376.564 216.571 376.564V400.564C227.604 400.564 236.571 391.626 236.571 380.573H212.571ZM216.571 376.564C218.767 376.564 220.571 378.346 220.571 380.573H196.571C196.571 391.626 205.538 400.564 216.571 400.564V376.564ZM220.571 380.573C220.571 382.8 218.767 384.582 216.571 384.582V360.582C205.538 360.582 196.571 369.519 196.571 380.573H220.571ZM216.571 384.582C214.374 384.582 212.571 382.8 212.571 380.573H236.571C236.571 369.519 227.604 360.582 216.571 360.582V384.582Z" fill="#4B5563" mask="url(#path-20-inside-6_445_2481)"/>
<mask id="path-22-inside-7_445_2481" fill="white">
<ellipse cx="69.5708" cy="298.665" rx="8" ry="7.99102"/>
</mask>
<ellipse cx="69.5708" cy="298.665" rx="8" ry="7.99102" fill="white"/>
<path d="M65.5708 298.665C65.5708 296.438 67.3744 294.656 69.5708 294.656V318.656C80.6038 318.656 89.5708 309.718 89.5708 298.665H65.5708ZM69.5708 294.656C71.7672 294.656 73.5708 296.438 73.5708 298.665H49.5708C49.5708 309.718 58.5378 318.656 69.5708 318.656V294.656ZM73.5708 298.665C73.5708 300.892 71.7672 302.674 69.5708 302.674V278.674C58.5378 278.674 49.5708 287.611 49.5708 298.665H73.5708ZM69.5708 302.674C67.3744 302.674 65.5708 300.892 65.5708 298.665H89.5708C89.5708 287.611 80.6038 278.674 69.5708 278.674V302.674Z" fill="#4B5563" mask="url(#path-22-inside-7_445_2481)"/>
<path d="M355.422 345.755L354.126 344.581L354.335 344.326C354.615 343.977 354.734 343.607 354.691 343.215C354.65 342.821 354.429 342.358 354.028 341.825C353.629 341.29 353.035 340.637 352.247 339.867L348.434 336.151L353.557 330.51L362.175 338.32L360.79 339.845L353.455 333.199L351.038 335.859L354.06 338.843C354.966 339.736 355.654 340.548 356.121 341.278C356.591 342.005 356.807 342.696 356.769 343.352C356.734 344.004 356.412 344.665 355.804 345.335L355.422 345.755Z" fill="black"/>
<path d="M362.852 333.107L360.397 326.672L361.718 325.024L368.53 330.472L367.287 332.023L362.644 328.309L365.11 334.739L363.786 336.391L356.973 330.943L358.213 329.397L362.852 333.107Z" fill="black"/>
<path d="M367.589 316.836L374.724 321.857L373.585 323.472L366.45 318.451L367.589 316.836ZM370.279 319.861L371.654 320.828C371.606 321.068 371.533 321.326 371.434 321.604C371.335 321.876 371.213 322.154 371.069 322.437C370.927 322.717 370.767 322.983 370.588 323.237C369.916 324.19 369.171 324.792 368.353 325.045C367.535 325.293 366.67 325.097 365.76 324.456L363.382 322.782L364.514 321.177L366.892 322.851C367.199 323.066 367.483 323.186 367.745 323.208C368.007 323.23 368.259 323.162 368.501 323.004C368.739 322.843 368.975 322.597 369.209 322.266C369.47 321.895 369.682 321.516 369.843 321.13C370.004 320.744 370.15 320.321 370.279 319.861Z" fill="black"/>
<path d="M374.986 311.715L376.419 312.606L373.964 316.548L372.531 315.658L374.986 311.715ZM369.886 313.265L377.296 317.869L376.249 319.551L368.838 314.947L369.886 313.265ZM372.715 308.721L380.126 313.325L379.082 315.002L371.671 310.398L372.715 308.721Z" fill="black"/>
<path d="M383.621 307.421C383.216 308.17 382.7 308.73 382.073 309.101C381.445 309.472 380.753 309.649 379.996 309.631C379.241 309.61 378.467 309.386 377.674 308.958C376.881 308.529 376.267 308.004 375.833 307.383C375.4 306.758 375.168 306.082 375.135 305.354C375.102 304.627 375.289 303.889 375.694 303.14C376.1 302.391 376.616 301.831 377.243 301.46C377.87 301.089 378.563 300.915 379.321 300.937C380.082 300.957 380.858 301.18 381.651 301.609C382.445 302.037 383.056 302.563 383.485 303.186C383.916 303.806 384.148 304.479 384.18 305.207C384.213 305.934 384.027 306.672 383.621 307.421ZM382.177 306.628C382.397 306.222 382.469 305.822 382.394 305.429C382.315 305.033 382.121 304.667 381.814 304.328C381.508 303.987 381.121 303.69 380.655 303.438C380.185 303.184 379.723 303.023 379.269 302.955C378.814 302.881 378.399 302.919 378.025 303.07C377.651 303.22 377.354 303.499 377.134 303.905C376.909 304.321 376.835 304.728 376.912 305.127C376.991 305.522 377.185 305.891 377.494 306.235C377.802 306.573 378.191 306.869 378.661 307.123C379.127 307.375 379.586 307.536 380.038 307.608C380.492 307.677 380.906 307.636 381.28 307.486C381.653 307.33 381.952 307.044 382.177 306.628Z" fill="black"/>
<path d="M388.429 297.838C388.062 298.628 387.573 299.225 386.963 299.63C386.354 300.031 385.673 300.243 384.919 300.264C384.164 300.28 383.386 300.103 382.586 299.731C381.782 299.358 381.145 298.874 380.674 298.279C380.199 297.684 379.921 297.024 379.839 296.302C379.756 295.575 379.894 294.825 380.253 294.054C380.552 293.412 380.935 292.899 381.402 292.515C381.867 292.126 382.383 291.884 382.95 291.788C383.513 291.691 384.089 291.754 384.678 291.978L383.85 293.759C383.435 293.653 383.037 293.677 382.657 293.83C382.275 293.978 381.979 294.277 381.77 294.727C381.593 295.107 381.54 295.49 381.612 295.874C381.68 296.256 381.868 296.616 382.174 296.955C382.482 297.29 382.902 297.581 383.434 297.828C383.973 298.078 384.474 298.215 384.935 298.237C385.393 298.258 385.794 298.175 386.136 297.987C386.476 297.795 386.736 297.505 386.917 297.117C387.044 296.843 387.107 296.573 387.105 296.309C387.1 296.04 387.033 295.786 386.903 295.546C386.772 295.306 386.577 295.092 386.317 294.905L387.146 293.124C387.685 293.429 388.105 293.824 388.405 294.31C388.702 294.794 388.858 295.338 388.874 295.942C388.886 296.544 388.738 297.176 388.429 297.838Z" fill="black"/>
<path d="M384.102 289.933L382.534 289.309L385.36 282.223L386.927 282.846L385.883 285.467L392.423 288.069L391.687 289.914L385.147 287.312L384.102 289.933Z" fill="black"/>
<path d="M389.148 279.997L389.966 277.559C390.319 276.504 390.85 275.774 391.557 275.368C392.264 274.962 393.035 274.897 393.87 275.172C394.411 275.357 394.848 275.651 395.18 276.053C395.514 276.452 395.718 276.94 395.793 277.515C395.865 278.086 395.783 278.723 395.547 279.426L394.288 283.183L386.012 280.414L386.642 278.536L393.317 280.769L393.947 278.891C394.089 278.468 394.098 278.083 393.974 277.739C393.846 277.393 393.612 277.163 393.271 277.049C392.911 276.928 392.573 276.967 392.255 277.164C391.938 277.361 391.708 277.671 391.566 278.094L390.748 280.532L389.148 279.997Z" fill="black"/>
<defs>
<linearGradient id="paint0_linear_445_2481" x1="214.4" y1="45.4255" x2="214.4" y2="383.742" gradientUnits="userSpaceOnUse">
<stop stop-color="#FF4910"/>
<stop offset="1" stop-color="#FF1074"/>
</linearGradient>
<linearGradient id="paint1_linear_445_2481" x1="215.857" y1="59.4337" x2="215.857" y2="341.117" gradientUnits="userSpaceOnUse">
<stop stop-color="#FF4910"/>
<stop offset="1" stop-color="#FF1074"/>
</linearGradient>
<linearGradient id="paint2_linear_445_2481" x1="214.727" y1="48.4197" x2="214.727" y2="382.778" gradientUnits="userSpaceOnUse">
<stop stop-color="#FF4910"/>
<stop offset="1" stop-color="#FF1074"/>
</linearGradient>
</defs>
</svg>
