<svg width="60" height="60" viewBox="0 0 60 60" fill="none" xmlns="http://www.w3.org/2000/svg">
<path d="M43.2057 6.50336C44.4658 8.29862 45.4869 10.2237 45.9866 12.365C47.0076 16.7126 46.3559 20.8222 44.1617 24.7372C41.9457 28.6738 40.0122 32.7402 39.0345 37.1959C38.5783 39.2075 38.2742 41.2623 37.9483 43.2955C37.8831 43.7281 37.7093 43.8146 37.3183 43.8146C32.4736 43.793 27.6506 43.793 22.8059 43.8146C22.3931 43.8146 22.2193 43.7497 22.1324 43.2738C21.5458 39.3805 20.9158 35.4872 19.3733 31.8317C18.6347 30.0797 17.8743 28.3494 16.9618 26.7055C15.5714 24.1748 14.2028 21.6441 13.7465 18.7241C13.6162 17.2101 13.5293 15.696 13.7465 14.2035C13.79 13.9007 13.8334 13.5979 13.8551 13.2951C14.2679 11.2186 15.0935 9.29359 16.1797 7.47669C17.5267 5.57328 19.0909 3.88617 21.0896 2.63164C25.565 -0.158589 30.3228 -0.720961 35.3413 0.901266C38.5783 1.89623 41.1419 3.88616 43.2057 6.50336ZM31.887 35.1411C31.887 36.7417 31.9087 38.3206 31.8653 39.9212C31.8653 40.3538 32.0173 40.462 32.3867 40.4404C33.0384 40.4187 33.6684 40.3755 34.3202 40.4187C34.8416 40.462 35.0154 40.289 35.0806 39.7915C35.2544 38.2774 35.602 36.8066 35.9713 35.3358C37.0793 31.0747 38.9259 27.1165 41.0767 23.288C42.7278 20.3464 43.5316 17.2533 42.8147 13.9007C41.7284 8.81774 38.6869 5.37861 33.7119 3.92942C28.4327 2.39372 23.8052 3.82128 20.1337 7.93092C16.4187 12.1055 15.9842 18.032 18.8519 23.0717C20.5899 26.1215 22.1107 29.2578 23.2621 32.5888C24.0659 34.9032 24.6308 37.2824 24.9784 39.7049C25.0436 40.2024 25.1522 40.5485 25.804 40.4404C26.3905 40.3538 26.9988 40.3755 27.6071 40.4404C28.1503 40.5053 28.2372 40.2673 28.2372 39.8131C28.2154 36.7417 28.1937 33.6919 28.2154 30.6205C28.2154 30.2095 28.0851 29.9716 27.8244 29.712C26.195 28.1114 24.5873 26.4892 22.9797 24.8886C22.6755 24.5858 22.3931 24.283 22.2628 23.872C22.0455 23.115 22.4148 22.293 23.1535 21.8172C23.8704 21.363 24.6308 21.4279 25.2825 22.0335C26.7381 23.4178 28.1068 24.9102 29.6058 26.2513C30.0186 26.619 30.2359 26.6622 30.6486 26.2296C31.9956 24.8237 33.386 23.461 34.7764 22.12C35.6237 21.2981 36.5579 21.3197 37.34 22.12C38.1438 22.9419 38.1004 23.8936 37.2531 24.7372C35.602 26.3811 33.9509 28.0249 32.2998 29.6471C32.0173 29.9283 31.887 30.2095 31.887 30.6205C31.887 32.1346 31.887 33.6486 31.887 35.1411Z" fill="url(#paint0_linear_501_24561)"/>
<path d="M22.4365 50.8226C22.4365 50.6279 22.4365 50.4332 22.4365 50.2169C22.4365 49.222 22.7841 48.8542 23.7834 48.8542C27.9329 48.8542 32.0824 48.8542 36.2319 48.8542C37.2095 48.8542 37.5354 49.2003 37.5354 50.1737C37.5354 51.147 37.2095 51.4931 36.2319 51.4931C32.0824 51.4931 27.9329 51.4931 23.7834 51.4931C23.5227 51.4931 23.262 51.4498 23.0013 51.4282C22.8058 51.2119 22.632 51.0172 22.4365 50.8226Z" fill="#4B515F"/>
<path d="M23.0883 52.8341C27.5202 52.8341 31.9738 52.8125 36.4057 52.8125C37.1444 52.8125 37.5137 53.2018 37.5354 53.9805C37.5572 54.9538 37.253 55.3648 36.4926 55.4513C36.4275 55.4513 36.3623 55.4513 36.2971 55.4513C32.039 55.4513 27.7809 55.4513 23.5228 55.4513C23.3924 55.4513 23.2621 55.4297 23.1317 55.4081C22.1323 54.7159 22.1106 53.5912 23.0883 52.8341Z" fill="#4B515F"/>
<path d="M9.22763 26.4026C9.79248 26.0998 10.3356 25.7754 10.9005 25.4726C11.8781 24.9535 12.8123 25.2563 13.3554 26.2296C13.8551 27.1164 13.6161 28.0681 12.7036 28.6089C10.6398 29.8201 8.55415 31.0098 6.46854 32.221C6.09921 32.4373 5.68644 32.5238 5.25194 32.4806C4.68708 32.3075 4.20913 32.0047 3.94843 31.464C3.47048 30.5123 3.7529 29.6038 4.70881 29.0415C6.20784 28.1763 7.72859 27.2895 9.22763 26.4026Z" fill="#4B515F"/>
<path d="M56.1321 1.72332C56.5015 2.97784 56.2842 3.54021 55.1762 4.18911C53.2644 5.29222 51.3526 6.39533 49.4408 7.49845C48.8542 7.84452 48.2677 8.03919 47.6159 7.80126C46.4862 7.06585 46.1386 6.11415 46.66 5.16244C46.8121 4.88126 47.0511 4.68659 47.3118 4.53518C49.3756 3.34555 51.4178 2.13428 53.5034 0.966281C54.5462 0.382279 55.3718 0.620206 56.1321 1.72332Z" fill="#4B515F"/>
<path d="M4.86093 4.2321C3.57915 3.32365 3.3619 2.17728 4.3178 1.22557C4.90438 0.619941 5.6213 0.468532 6.35996 0.879496C8.55419 2.11239 10.705 3.38855 12.8775 4.62144C13.1165 4.75122 13.2468 4.98914 13.4206 5.18381C13.7465 6.13552 13.5727 6.89255 12.8775 7.49819C12.204 8.06056 11.5523 8.06056 10.6181 7.51982C8.70627 6.4167 6.77274 5.33521 4.86093 4.2321Z" fill="#4B515F"/>
<path d="M58.6739 14.7227C59.6081 15.112 60.0209 15.6744 59.9992 16.5612C59.9774 17.3831 59.5647 17.9455 58.826 18.2267C58.587 18.3132 58.348 18.3132 58.1091 18.3132C55.8062 18.3132 53.5034 18.3132 51.2005 18.3132C50.0708 18.3132 49.419 17.8373 49.2235 16.8856C49.028 15.9555 49.5277 15.1336 50.527 14.7227C53.2426 14.7227 55.9583 14.7227 58.6739 14.7227Z" fill="#4B515F"/>
<path d="M10.6832 15.7827C10.705 16.172 10.8136 16.5397 10.705 16.9507C10.4877 17.7726 9.90113 18.2917 9.05385 18.2917C6.62064 18.2917 4.1657 18.2917 1.73249 18.2917C1.40661 18.2917 1.12419 18.2052 0.841764 18.097C0.190011 17.6212 -0.0706905 16.9939 0.0162099 16.2153C0.10311 15.3501 0.711412 14.7228 1.58042 14.7228C4.10053 14.7012 6.62064 14.7012 9.14075 14.7012C9.90113 14.7228 10.3574 15.177 10.6832 15.7827Z" fill="#4B515F"/>
<path d="M25.239 57.5711C25.0869 56.7708 25.0869 56.7708 25.9559 56.7708C28.7802 56.7708 31.5827 56.7924 34.407 56.7491C34.9719 56.7491 35.0588 56.9222 34.8632 57.398C34.3636 58.6742 33.3208 59.3015 32.1041 59.6692C30.2358 60.2532 28.4326 60.0585 26.7163 59.1284C26.108 58.7391 25.6083 58.22 25.239 57.5711Z" fill="#4B515F"/>
<path d="M29.9968 47.5565C27.9112 47.5565 25.8256 47.5565 23.74 47.5565C23.2403 47.5565 22.7841 47.5133 22.5669 46.9942C22.3496 46.475 22.3279 45.9127 22.6103 45.3936C22.7841 45.0907 23.0665 44.9393 23.4359 44.9393C27.8026 44.9393 32.1694 44.9393 36.5361 44.9393C37.253 44.9393 37.5355 45.3287 37.5355 46.1939C37.5355 47.1239 37.2313 47.5133 36.4492 47.5133C34.9719 47.5349 33.4729 47.5133 31.9956 47.5133C31.3221 47.5565 30.6703 47.5565 29.9968 47.5565Z" fill="#4B515F"/>
<path d="M56.2842 30.6854C56.2842 32.0697 54.8503 32.9349 53.5468 32.2211C51.4612 31.0531 49.3756 29.8418 47.29 28.6306C46.3993 28.1115 46.1603 27.1381 46.6817 26.2297C47.2031 25.2996 48.1807 24.9535 49.0932 25.4726C51.2222 26.6623 53.3513 27.8952 55.4586 29.1281C56.0018 29.4309 56.3494 29.9067 56.2842 30.6854Z" fill="#4B515F"/>
<defs>
<linearGradient id="paint0_linear_501_24561" x1="30.036" y1="0" x2="30.036" y2="43.8146" gradientUnits="userSpaceOnUse">
<stop stop-color="#FF4910"/>
<stop offset="1" stop-color="#FF1074"/>
</linearGradient>
</defs>
</svg>
