<svg width="1148" height="48" viewBox="0 0 1148 48" fill="none" xmlns="http://www.w3.org/2000/svg">
<path d="M442.227 36.3409C440.462 36.3409 438.935 35.9659 437.647 35.2159C436.367 34.4583 435.378 33.4053 434.681 32.0568C433.984 30.7008 433.636 29.1288 433.636 27.3409C433.636 25.5379 433.984 23.9621 434.681 22.6136C435.378 21.2576 436.367 20.2045 437.647 19.4545C438.935 18.697 440.462 18.3182 442.227 18.3182C443.992 18.3182 445.515 18.697 446.795 19.4545C448.083 20.2045 449.075 21.2576 449.772 22.6136C450.469 23.9621 450.818 25.5379 450.818 27.3409C450.818 29.1288 450.469 30.7008 449.772 32.0568C449.075 33.4053 448.083 34.4583 446.795 35.2159C445.515 35.9659 443.992 36.3409 442.227 36.3409ZM442.249 32.5909C443.053 32.5909 443.723 32.3636 444.261 31.9091C444.799 31.447 445.204 30.8182 445.477 30.0227C445.757 29.2273 445.897 28.322 445.897 27.3068C445.897 26.2917 445.757 25.3864 445.477 24.5909C445.204 23.7955 444.799 23.1667 444.261 22.7045C443.723 22.2424 443.053 22.0114 442.249 22.0114C441.439 22.0114 440.757 22.2424 440.204 22.7045C439.659 23.1667 439.246 23.7955 438.965 24.5909C438.693 25.3864 438.556 26.2917 438.556 27.3068C438.556 28.322 438.693 29.2273 438.965 30.0227C439.246 30.8182 439.659 31.447 440.204 31.9091C440.757 32.3636 441.439 32.5909 442.249 32.5909ZM468.477 12.1364L469.954 15.2955C469.462 15.7045 468.916 16.0076 468.318 16.2045C467.719 16.3939 467.003 16.5189 466.17 16.5795C465.344 16.6402 464.337 16.6818 463.147 16.7045C461.799 16.7197 460.7 16.9356 459.852 17.3523C459.003 17.7689 458.359 18.4242 457.92 19.3182C457.481 20.2045 457.193 21.3636 457.056 22.7955H457.227C457.749 21.7273 458.484 20.9015 459.431 20.3182C460.386 19.7348 461.564 19.4432 462.965 19.4432C464.45 19.4432 465.749 19.7689 466.863 20.4205C467.984 21.072 468.856 22.0076 469.477 23.2273C470.098 24.447 470.409 25.9091 470.409 27.6136C470.409 29.3864 470.06 30.928 469.363 32.2386C468.674 33.5417 467.693 34.553 466.42 35.2727C465.147 35.9848 463.632 36.3409 461.874 36.3409C460.109 36.3409 458.587 35.9697 457.306 35.2273C456.034 34.4848 455.049 33.3902 454.352 31.9432C453.662 30.4962 453.318 28.7159 453.318 26.6023V25.1705C453.318 20.9659 454.136 17.8485 455.772 15.8182C457.409 13.7879 459.814 12.7576 462.988 12.7273C463.852 12.7121 464.632 12.7083 465.329 12.7159C466.026 12.7235 466.636 12.6894 467.159 12.6136C467.689 12.5379 468.128 12.3788 468.477 12.1364ZM461.897 32.5909C462.64 32.5909 463.276 32.3977 463.806 32.0114C464.344 31.625 464.757 31.072 465.045 30.3523C465.34 29.6326 465.488 28.7727 465.488 27.7727C465.488 26.7803 465.34 25.9394 465.045 25.25C464.757 24.553 464.344 24.0227 463.806 23.6591C463.268 23.2955 462.624 23.1136 461.874 23.1136C461.314 23.1136 460.81 23.2159 460.363 23.4205C459.916 23.625 459.534 23.928 459.215 24.3295C458.905 24.7235 458.662 25.2121 458.488 25.7955C458.321 26.3712 458.238 27.0303 458.238 27.7727C458.238 29.2652 458.56 30.4432 459.204 31.3068C459.856 32.1629 460.753 32.5909 461.897 32.5909ZM476.61 42.5455C475.997 42.5455 475.421 42.4962 474.883 42.3977C474.353 42.3068 473.913 42.1894 473.565 42.0455L474.656 38.4318C475.224 38.6061 475.735 38.7008 476.19 38.7159C476.652 38.7311 477.05 38.625 477.383 38.3977C477.724 38.1705 478 37.7841 478.213 37.2386L478.497 36.5L472.235 18.5455H477.326L480.94 31.3636H481.122L484.769 18.5455H489.894L483.11 37.8864C482.785 38.8258 482.341 39.6439 481.781 40.3409C481.228 41.0455 480.527 41.5871 479.678 41.9659C478.83 42.3523 477.807 42.5455 476.61 42.5455ZM507.051 18.5455V36H502.46V18.5455H507.051ZM504.812 26.2045V30.0227C504.441 30.1894 503.979 30.3485 503.426 30.5C502.873 30.6439 502.293 30.7614 501.687 30.8523C501.081 30.9432 500.513 30.9886 499.982 30.9886C497.475 30.9886 495.501 30.4735 494.062 29.4432C492.623 28.4053 491.903 26.75 491.903 24.4773V18.5227H496.471V24.4773C496.471 25.1515 496.585 25.6856 496.812 26.0795C497.047 26.4735 497.418 26.7576 497.926 26.9318C498.441 27.0985 499.126 27.1818 499.982 27.1818C500.778 27.1818 501.558 27.0985 502.323 26.9318C503.088 26.7652 503.918 26.5227 504.812 26.2045ZM518.764 36.3409C516.968 36.3409 515.423 35.9773 514.127 35.25C512.839 34.5152 511.847 33.4773 511.15 32.1364C510.453 30.7879 510.105 29.1932 510.105 27.3523C510.105 25.5568 510.453 23.9811 511.15 22.625C511.847 21.2689 512.828 20.2121 514.093 19.4545C515.366 18.697 516.858 18.3182 518.571 18.3182C519.722 18.3182 520.794 18.5038 521.786 18.875C522.786 19.2386 523.658 19.7879 524.4 20.5227C525.15 21.2576 525.733 22.1818 526.15 23.2955C526.567 24.4015 526.775 25.697 526.775 27.1818V28.5114H512.036V25.5114H522.218C522.218 24.8144 522.067 24.197 521.764 23.6591C521.461 23.1212 521.04 22.7008 520.502 22.3977C519.972 22.0871 519.355 21.9318 518.65 21.9318C517.915 21.9318 517.264 22.1023 516.696 22.4432C516.135 22.7765 515.696 23.2273 515.377 23.7955C515.059 24.3561 514.896 24.9811 514.889 25.6705V28.5227C514.889 29.3864 515.048 30.1326 515.366 30.7614C515.692 31.3902 516.15 31.875 516.741 32.2159C517.332 32.5568 518.033 32.7273 518.843 32.7273C519.381 32.7273 519.874 32.6515 520.321 32.5C520.767 32.3485 521.15 32.1212 521.468 31.8182C521.786 31.5152 522.029 31.1439 522.196 30.7045L526.673 31C526.446 32.0758 525.98 33.0152 525.275 33.8182C524.578 34.6136 523.677 35.2348 522.571 35.6818C521.472 36.1212 520.203 36.3409 518.764 36.3409ZM542.082 25.3409V29.1477H532.968V25.3409H542.082ZM534.559 18.5455V36H529.934V18.5455H534.559ZM545.116 18.5455V36H540.525V18.5455H545.116ZM553.497 29.6136L559.781 18.5455H564.553V36H559.94V24.8977L553.678 36H548.872V18.5455H553.497V29.6136ZM578.661 36V22.3409H575.389C574.502 22.3409 573.828 22.5455 573.366 22.9545C572.904 23.3636 572.677 23.8485 572.684 24.4091C572.677 24.9773 572.896 25.4583 573.343 25.8523C573.798 26.2386 574.464 26.4318 575.343 26.4318H580.275V29.7045H575.343C573.851 29.7045 572.559 29.4773 571.468 29.0227C570.377 28.5682 569.536 27.9356 568.946 27.125C568.355 26.3068 568.063 25.3561 568.071 24.2727C568.063 23.1364 568.355 22.1402 568.946 21.2841C569.536 20.4205 570.381 19.75 571.48 19.2727C572.586 18.7879 573.889 18.5455 575.389 18.5455H583.173V36H578.661ZM567.571 36L572.423 26.9091H577.048L572.207 36H567.571ZM602.681 36H594.431V12.7273H602.749C605.09 12.7273 607.106 13.1932 608.795 14.125C610.484 15.0492 611.784 16.3788 612.693 18.1136C613.609 19.8485 614.068 21.9242 614.068 24.3409C614.068 26.7652 613.609 28.8485 612.693 30.5909C611.784 32.3333 610.477 33.6705 608.772 34.6023C607.075 35.5341 605.045 36 602.681 36ZM599.352 31.7841H602.477C603.931 31.7841 605.155 31.5265 606.147 31.0114C607.147 30.4886 607.897 29.6818 608.397 28.5909C608.905 27.4924 609.159 26.0758 609.159 24.3409C609.159 22.6212 608.905 21.2159 608.397 20.125C607.897 19.0341 607.151 18.2311 606.159 17.7159C605.166 17.2008 603.943 16.9432 602.488 16.9432H599.352V31.7841ZM622.633 12.7273V36H617.713V12.7273H622.633ZM642.113 20.25C641.954 19.697 641.731 19.2083 641.443 18.7841C641.155 18.3523 640.803 17.9886 640.386 17.6932C639.977 17.3902 639.507 17.1591 638.977 17C638.454 16.8409 637.874 16.7614 637.238 16.7614C636.049 16.7614 635.003 17.0568 634.102 17.6477C633.208 18.2386 632.511 19.0985 632.011 20.2273C631.511 21.3485 631.261 22.7197 631.261 24.3409C631.261 25.9621 631.507 27.3409 631.999 28.4773C632.492 29.6136 633.189 30.4811 634.09 31.0795C634.992 31.6705 636.056 31.9659 637.284 31.9659C638.397 31.9659 639.348 31.7689 640.136 31.375C640.931 30.9735 641.537 30.4091 641.954 29.6818C642.378 28.9545 642.59 28.0947 642.59 27.1023L643.59 27.25H637.59V23.5455H647.329V26.4773C647.329 28.5227 646.897 30.2803 646.034 31.75C645.17 33.2121 643.981 34.3409 642.465 35.1364C640.95 35.9242 639.215 36.3182 637.261 36.3182C635.079 36.3182 633.162 35.8371 631.511 34.875C629.859 33.9053 628.571 32.5303 627.647 30.75C626.731 28.9621 626.272 26.8409 626.272 24.3864C626.272 22.5 626.545 20.8182 627.09 19.3409C627.643 17.8561 628.416 16.5985 629.409 15.5682C630.401 14.5379 631.556 13.7538 632.874 13.2159C634.193 12.678 635.621 12.4091 637.159 12.4091C638.477 12.4091 639.704 12.6023 640.84 12.9886C641.977 13.3674 642.984 13.9053 643.863 14.6023C644.749 15.2992 645.473 16.1288 646.034 17.0909C646.594 18.0455 646.954 19.0985 647.113 20.25H642.113ZM655.946 12.7273V36H651.025V12.7273H655.946ZM659.107 16.7841V12.7273H678.221V16.7841H671.096V36H666.232V16.7841H659.107ZM682.536 36H677.264L685.298 12.7273H691.639L699.661 36H694.389L688.559 18.0455H688.377L682.536 36ZM682.207 26.8523H694.661V30.6932H682.207V26.8523ZM702.463 36V12.7273H707.383V31.9432H717.36V36H702.463Z" fill="url(#paint0_linear_704_2488)"/>
<rect y="25" width="412" height="4" fill="url(#paint1_linear_704_2488)"/>
<rect width="409" height="4" transform="matrix(-1 0 0 1 1148 25)" fill="url(#paint2_linear_704_2488)"/>
<defs>
<linearGradient id="paint0_linear_704_2488" x1="432" y1="-4.73247e-06" x2="689.5" y2="48" gradientUnits="userSpaceOnUse">
<stop stop-color="#FF4910"/>
<stop offset="1" stop-color="#FF1074"/>
</linearGradient>
<linearGradient id="paint1_linear_704_2488" x1="415.5" y1="29" x2="-3.13684e-09" y2="25" gradientUnits="userSpaceOnUse">
<stop stop-color="#FF4910"/>
<stop offset="1" stop-color="#FF1074"/>
</linearGradient>
<linearGradient id="paint2_linear_704_2488" x1="409" y1="2.00039" x2="2.99999" y2="-6.51581e-05" gradientUnits="userSpaceOnUse">
<stop stop-color="#FF4910"/>
<stop offset="1" stop-color="#FF1074"/>
</linearGradient>
</defs>
</svg>
