<svg width="160" height="68" viewBox="0 0 160 68" fill="none" xmlns="http://www.w3.org/2000/svg">
<path fill-rule="evenodd" clip-rule="evenodd" d="M156.878 3.10914H3.12195V54.1508H156.878V3.10914ZM0 0V57.26H160V0H0Z" fill="white"/>
<path fill-rule="evenodd" clip-rule="evenodd" d="M104.227 14.8511V21.1452H110.857V37.4053H118.23V21.1452H124.504V14.8511H104.227Z" fill="white"/>
<path fill-rule="evenodd" clip-rule="evenodd" d="M11.0063 14.8511V14.8516V21.1452V37.4055H18.3797V21.1452H23.9097V37.4053H31.2831V21.1452H31.2831V14.8511H11.0063Z" fill="white"/>
<path fill-rule="evenodd" clip-rule="evenodd" d="M34.1797 14.8516H44.9765C49.7758 14.8516 53.6665 18.7263 53.6665 23.5059C53.6665 28.2856 49.7758 32.1603 44.9765 32.1603H41.5531V37.4054H34.1797V14.8516ZM44.3181 20.3589H41.5531V25.8662H44.3181C45.8452 25.8662 47.0831 24.6334 47.0831 23.1126C47.0831 21.5918 45.8452 20.3589 44.3181 20.3589Z" fill="white"/>
<path fill-rule="evenodd" clip-rule="evenodd" d="M65.5166 13.8027C59.5537 13.8027 54.7198 18.6168 54.7198 24.5551V26.6532C54.7198 32.5916 59.5537 37.4056 65.5166 37.4056H67.6232C73.5861 37.4056 78.42 32.5916 78.42 26.6532V24.5551C78.42 18.6168 73.5861 13.8027 67.6232 13.8027H65.5166ZM66.5699 19.8346C63.8066 19.8346 61.5665 22.0655 61.5665 24.8174V25.8664C61.5665 28.6183 63.8066 30.8492 66.5699 30.8492C69.3332 30.8492 71.5733 28.6183 71.5733 25.8664V24.8174C71.5733 22.0655 69.3332 19.8346 66.5699 19.8346Z" fill="white"/>
<path fill-rule="evenodd" clip-rule="evenodd" d="M136.09 13.8027C130.127 13.8027 125.293 18.6168 125.293 24.5551V26.6532C125.293 32.5916 130.127 37.4056 136.09 37.4056H138.197C144.16 37.4056 148.994 32.5916 148.994 26.6532V24.5551C148.994 18.6168 144.16 13.8027 138.197 13.8027H136.09ZM137.144 19.8346C134.38 19.8346 132.14 22.0655 132.14 24.8174V25.8664C132.14 28.6183 134.38 30.8492 137.144 30.8492C139.907 30.8492 142.147 28.6183 142.147 25.8664V24.8174C142.147 22.0655 139.907 19.8346 137.144 19.8346Z" fill="white"/>
<path d="M80.7902 24.5551C80.7902 18.6168 85.624 13.8027 91.5869 13.8027H93.6936C97.78 13.8027 101.336 16.0636 103.17 19.3979L97.3841 23.2293C96.7183 21.256 94.8459 19.8346 92.6402 19.8346C89.8769 19.8346 87.6369 22.0655 87.6369 24.8174V25.8664C87.6369 28.6183 89.8769 30.8492 92.6402 30.8492C94.9409 30.8492 96.8789 29.3028 97.4633 27.1967L103.552 31.0434C101.866 34.7932 98.0861 37.4056 93.6936 37.4056H91.5869C85.624 37.4056 80.7902 32.5916 80.7902 26.6532V24.5551Z" fill="white"/>
<rect x="52.586" y="43.6416" width="55.0318" height="24.3582" fill="#FF4910"/>
<path d="M67.0059 53.2573C67.2156 52.9542 67.3983 52.6966 67.554 52.4844C67.7098 52.2662 67.8656 52.0904 68.0213 51.9571C68.1771 51.8177 68.3508 51.7177 68.5425 51.657C68.7402 51.5964 68.9858 51.5661 69.2794 51.5661H70.0882L69.8905 52.5844C69.8605 52.736 69.8066 52.836 69.7287 52.8845C69.6568 52.9269 69.5699 52.9633 69.4681 52.9936C69.3663 53.0178 69.2524 53.0603 69.1266 53.1209C69.0068 53.1754 68.887 53.2876 68.7672 53.4573L67.599 55.0302C67.4192 55.2848 67.2425 55.4848 67.0688 55.6303C66.8951 55.7697 66.6704 55.8697 66.3948 55.9304C66.7603 55.997 67.0568 56.1304 67.2845 56.3304C67.5121 56.5244 67.6948 56.8062 67.8326 57.176L69.3872 60.8583H68.2819C67.9524 60.8583 67.7068 60.8037 67.5451 60.6946C67.3833 60.5795 67.2515 60.4158 67.1497 60.2037L65.9904 57.4669C65.9066 57.2366 65.7718 57.0487 65.5861 56.9032C65.4003 56.7517 65.1937 56.6759 64.966 56.6759L64.0944 56.8487L63.6091 60.8583H61.7579L62.8722 51.5843H64.7324L64.2471 55.5667L64.8851 55.4303C64.999 55.406 65.0978 55.3818 65.1817 55.3575C65.2715 55.3272 65.3524 55.2909 65.4243 55.2484C65.4962 55.206 65.5621 55.1545 65.622 55.0939C65.6819 55.0333 65.7448 54.9575 65.8107 54.8666L67.0059 53.2573Z" fill="white"/>
<path d="M72.49 55.8667C72.6757 55.103 72.8974 54.4514 73.155 53.9119C73.4186 53.3664 73.7421 52.9239 74.1255 52.5844C74.5089 52.2389 74.9702 51.9874 75.5094 51.8298C76.0485 51.6661 76.6955 51.5843 77.4504 51.5843H79.3824L78.2591 60.8583H76.408L77.3515 53.0572H77.064C76.6746 53.0572 76.3361 53.1057 76.0485 53.2027C75.761 53.2936 75.5094 53.4512 75.2937 53.6755C75.078 53.8998 74.8923 54.1998 74.7366 54.5756C74.5808 54.9454 74.437 55.4091 74.3052 55.9667C74.0955 56.9184 73.8679 57.7154 73.6223 58.358C73.3826 59.0005 73.116 59.5157 72.8225 59.9036C72.5349 60.2916 72.2174 60.5704 71.87 60.7401C71.5225 60.9038 71.1391 60.9856 70.7197 60.9856C70.4142 60.9856 70.2045 60.9583 70.0907 60.9038C69.9769 60.8553 69.9259 60.7643 69.9379 60.631L70.0727 59.5127H70.3603C70.6358 59.5127 70.8695 59.452 71.0612 59.3308C71.2589 59.2035 71.4326 58.9974 71.5824 58.7126C71.7382 58.4277 71.8849 58.0549 72.0227 57.5942C72.1665 57.1275 72.3223 56.5516 72.49 55.8667Z" fill="white"/>
<path d="M89.1392 51.5843L83.0196 63.5132C82.8758 63.7981 82.6631 63.9405 82.3816 63.9405H80.9528L82.9657 60.2128L80.6293 51.5843H82.2288C82.3786 51.5843 82.4894 51.6237 82.5613 51.7025C82.6332 51.7752 82.6811 51.8631 82.7051 51.9662L83.9991 57.2305C84.029 57.3699 84.053 57.5124 84.071 57.6579C84.0949 57.8033 84.1129 57.9458 84.1249 58.0852C84.1848 57.9397 84.2447 57.7973 84.3046 57.6579C84.3705 57.5124 84.4364 57.3669 84.5023 57.2214L87.0634 51.9571C87.1173 51.848 87.1922 51.7601 87.288 51.6934C87.3899 51.6207 87.4947 51.5843 87.6026 51.5843H89.1392Z" fill="white"/>
<path d="M94.5099 53.2027C94.0725 53.2027 93.6682 53.3209 93.2967 53.5573C92.9313 53.7937 92.6138 54.1028 92.3442 54.4847C92.0806 54.8605 91.8739 55.2878 91.7241 55.7667C91.5744 56.2455 91.4995 56.7274 91.4995 57.2123C91.4995 57.9761 91.6433 58.555 91.9308 58.9489C92.2244 59.3369 92.6288 59.5308 93.144 59.5308C93.5633 59.5308 93.9437 59.4066 94.2852 59.1581C94.6327 58.9095 94.9292 58.5822 95.1748 58.1761C95.4205 57.77 95.6092 57.3093 95.741 56.7941C95.8788 56.2789 95.9477 55.7515 95.9477 55.2121C95.9477 53.8725 95.4684 53.2027 94.5099 53.2027ZM98.4458 47.0928V48.0929C98.4458 48.3051 98.3919 48.4899 98.2841 48.6475C98.1822 48.7991 98.0295 48.8991 97.8258 48.9476L95.3007 49.3476C94.8034 49.4264 94.3631 49.5537 93.9797 49.7295C93.6023 49.8992 93.2698 50.1023 92.9822 50.3387C92.7006 50.5751 92.461 50.8418 92.2633 51.1388C92.0656 51.4358 91.8979 51.748 91.7601 52.0753C91.6283 52.4026 91.5235 52.742 91.4456 53.0936C91.3677 53.4452 91.3078 53.7937 91.2658 54.1392C91.4635 53.7937 91.6972 53.4785 91.9668 53.1936C92.2423 52.9027 92.5449 52.6541 92.8744 52.4481C93.2099 52.242 93.5693 52.0844 93.9527 51.9753C94.3421 51.8601 94.7495 51.8025 95.1748 51.8025C95.5643 51.8025 95.9237 51.8692 96.2532 52.0025C96.5827 52.1298 96.8643 52.3268 97.0979 52.5935C97.3375 52.8602 97.5232 53.1997 97.655 53.6119C97.7928 54.018 97.8617 54.4999 97.8617 55.0575C97.8617 55.5485 97.8078 56.0364 97.7 56.5213C97.5981 57.0063 97.4484 57.47 97.2507 57.9124C97.053 58.3489 96.8133 58.755 96.5318 59.1308C96.2502 59.5066 95.9297 59.8339 95.5702 60.1127C95.2108 60.3855 94.8184 60.6007 94.393 60.7583C93.9677 60.9159 93.5154 60.9947 93.0361 60.9947C92.5569 60.9947 92.1076 60.9098 91.6882 60.7401C91.2748 60.5704 90.9154 60.3006 90.6099 59.9309C90.3043 59.5612 90.0647 59.0853 89.891 58.5034C89.7172 57.9215 89.6304 57.2214 89.6304 56.4031C89.6304 55.9243 89.6543 55.4 89.7022 54.8302C89.7502 54.2544 89.84 53.6694 89.9718 53.0754C90.1036 52.4814 90.2893 51.8995 90.529 51.3297C90.7746 50.7539 91.0891 50.2265 91.4725 49.7477C91.8619 49.2688 92.3322 48.8567 92.8834 48.5112C93.4405 48.1596 94.0995 47.9141 94.8603 47.7747L98.4458 47.0928Z" fill="white"/>
</svg>
