<svg width="1920" height="671" viewBox="0 0 1920 671" fill="none" xmlns="http://www.w3.org/2000/svg">
<mask id="mask0_490_14454" style="mask-type:alpha" maskUnits="userSpaceOnUse" x="-1" y="0" width="1921" height="671">
<rect x="-1" width="1921" height="671" fill="#E1E1E9"/>
</mask>
<g mask="url(#mask0_490_14454)">
<rect x="-1" width="1921" height="671" fill="white"/>
<line x1="26.3124" y1="865.607" x2="26.3124" y2="-41.0997" stroke="#F0F3F5" stroke-width="2"/>
<line x1="928.772" y1="865.607" x2="928.772" y2="-41.0997" stroke="#F0F3F5" stroke-width="2"/>
<line x1="507.625" y1="865.607" x2="507.624" y2="-41.0997" stroke="#F0F3F5" stroke-width="2"/>
<line x1="1470.25" y1="865.607" x2="1470.25" y2="-41.0997" stroke="#F0F3F5" stroke-width="2"/>
<line x1="1917.17" y1="381.048" x2="1.8313" y2="381.048" stroke="#F0F3F5" stroke-width="2"/>
<line x1="266.968" y1="865.607" x2="266.968" y2="-41.0997" stroke="#F0F3F5" stroke-width="2"/>
<line x1="1229.59" y1="865.607" x2="1229.59" y2="-41.0997" stroke="#F0F3F5" stroke-width="2"/>
<line x1="1915.75" y1="621.704" x2="0.416016" y2="621.704" stroke="#F0F3F5" stroke-width="2"/>
<line x1="748.281" y1="865.607" x2="748.281" y2="-41.0997" stroke="#F0F3F5" stroke-width="2"/>
<line x1="1710.9" y1="865.607" x2="1710.9" y2="-41.0997" stroke="#F0F3F5" stroke-width="2"/>
<line x1="1918.58" y1="140.392" x2="3.24646" y2="140.392" stroke="#F0F3F5" stroke-width="2"/>
<line x1="146.64" y1="865.607" x2="146.64" y2="-41.0997" stroke="#F0F3F5" stroke-width="2"/>
<line x1="1109.26" y1="865.607" x2="1109.26" y2="-41.0997" stroke="#F0F3F5" stroke-width="2"/>
<line x1="627.953" y1="865.607" x2="627.952" y2="-41.0997" stroke="#F0F3F5" stroke-width="2"/>
<line x1="1590.58" y1="865.607" x2="1590.58" y2="-41.0997" stroke="#F0F3F5" stroke-width="2"/>
<line x1="1917.88" y1="260.72" x2="2.53931" y2="260.72" stroke="#F0F3F5" stroke-width="2"/>
<line x1="387.297" y1="865.607" x2="387.296" y2="-41.0997" stroke="#F0F3F5" stroke-width="2"/>
<line x1="1349.92" y1="865.607" x2="1349.92" y2="-41.0997" stroke="#F0F3F5" stroke-width="2"/>
<line x1="1916.46" y1="501.376" x2="1.12329" y2="501.376" stroke="#F0F3F5" stroke-width="2"/>
<line x1="868.608" y1="865.607" x2="868.608" y2="-41.0997" stroke="#F0F3F5" stroke-width="2"/>
<line x1="1831.23" y1="865.607" x2="1831.23" y2="-41.0997" stroke="#F0F3F5" stroke-width="2"/>
<line x1="1919.29" y1="20.0645" x2="3.95459" y2="20.0645" stroke="#F0F3F5" stroke-width="2"/>
<line x1="86.4765" y1="865.607" x2="86.4764" y2="-41.0997" stroke="#F0F3F5" stroke-width="2"/>
<line x1="1049.1" y1="865.607" x2="1049.1" y2="-41.0997" stroke="#F0F3F5" stroke-width="2"/>
<line x1="567.789" y1="865.607" x2="567.788" y2="-41.0997" stroke="#F0F3F5" stroke-width="2"/>
<line x1="1530.41" y1="865.607" x2="1530.41" y2="-41.0997" stroke="#F0F3F5" stroke-width="2"/>
<line x1="1917.88" y1="320.884" x2="2.53931" y2="320.884" stroke="#F0F3F5" stroke-width="2"/>
<line x1="327.132" y1="865.607" x2="327.132" y2="-41.0997" stroke="#F0F3F5" stroke-width="2"/>
<line x1="1289.76" y1="865.607" x2="1289.76" y2="-41.0997" stroke="#F0F3F5" stroke-width="2"/>
<line x1="1916.46" y1="561.54" x2="0.415405" y2="561.54" stroke="#F0F3F5" stroke-width="2"/>
<line x1="808.445" y1="865.607" x2="808.445" y2="-41.0997" stroke="#F0F3F5" stroke-width="2"/>
<line x1="1771.07" y1="865.607" x2="1771.07" y2="-41.0997" stroke="#F0F3F5" stroke-width="2"/>
<line x1="1919.29" y1="80.2285" x2="3.95459" y2="80.2285" stroke="#F0F3F5" stroke-width="2"/>
<line x1="206.804" y1="865.607" x2="206.804" y2="-41.0997" stroke="#F0F3F5" stroke-width="2"/>
<line x1="1169.43" y1="865.607" x2="1169.43" y2="-41.0997" stroke="#F0F3F5" stroke-width="2"/>
<line x1="688.117" y1="865.607" x2="688.116" y2="-41.0997" stroke="#F0F3F5" stroke-width="2"/>
<line x1="1650.74" y1="865.607" x2="1650.74" y2="-41.0997" stroke="#F0F3F5" stroke-width="2"/>
<line x1="1918.58" y1="200.556" x2="3.24646" y2="200.556" stroke="#F0F3F5" stroke-width="2"/>
<line x1="447.461" y1="865.607" x2="447.46" y2="-41.0997" stroke="#F0F3F5" stroke-width="2"/>
<line x1="1410.08" y1="865.607" x2="1410.08" y2="-41.0997" stroke="#F0F3F5" stroke-width="2"/>
<line x1="1917.17" y1="441.212" x2="1.8313" y2="441.212" stroke="#F0F3F5" stroke-width="2"/>
<line x1="988.936" y1="865.607" x2="988.936" y2="-41.0997" stroke="#F0F3F5" stroke-width="2"/>
<line x1="1891.4" y1="865.607" x2="1891.4" y2="-41.0997" stroke="#F0F3F5" stroke-width="2"/>
</g>
</svg>
