<svg width="560" height="94" viewBox="0 0 560 94" fill="none" xmlns="http://www.w3.org/2000/svg">
<path fill-rule="evenodd" clip-rule="evenodd" d="M378.32 4.17358V29.2403H405.224V93.9961H435.147V29.2403H460.611V4.17358H378.32Z" fill="#4B515F"/>
<path fill-rule="evenodd" clip-rule="evenodd" d="M0 4.17358V4.17385V29.2403V93.9961H29.9237V29.2403H52.3643V93.9961H82.288V29.2403H82.2903V4.17358H0Z" fill="#4B515F"/>
<path fill-rule="evenodd" clip-rule="evenodd" d="M94.0459 4.17773H137.863C157.34 4.17773 173.13 19.609 173.13 38.6444C173.13 57.6798 157.34 73.1111 137.863 73.1111H123.97V94H94.0459V4.17773ZM135.191 26.1111H123.97V48.0444H135.191C141.388 48.0444 146.412 43.1345 146.412 37.0777C146.412 31.021 141.388 26.1111 135.191 26.1111Z" fill="#4B515F"/>
<path fill-rule="evenodd" clip-rule="evenodd" d="M221.219 0C197.02 0 177.402 19.1722 177.402 42.8222V51.1778C177.402 74.8278 197.02 94 221.219 94H229.769C253.968 94 273.586 74.8278 273.586 51.1778V42.8222C273.586 19.1722 253.968 0 229.769 0H221.219ZM225.494 24.0222C214.28 24.0222 205.189 32.9069 205.189 43.8667V48.0444C205.189 59.0042 214.28 67.8889 225.494 67.8889C236.708 67.8889 245.799 59.0042 245.799 48.0444V43.8667C245.799 32.9069 236.708 24.0222 225.494 24.0222Z" fill="#4B515F"/>
<path fill-rule="evenodd" clip-rule="evenodd" d="M507.633 0C483.434 0 463.816 19.1722 463.816 42.8222V51.1778C463.816 74.8278 483.434 94 507.633 94H516.183C540.382 94 560 74.8278 560 51.1778V42.8222C560 19.1722 540.382 0 516.183 0H507.633ZM511.908 24.0222C500.694 24.0222 491.603 32.9069 491.603 43.8667V48.0444C491.603 59.0042 500.694 67.8889 511.908 67.8889C523.122 67.8889 532.214 59.0042 532.214 48.0444V43.8667C532.214 32.9069 523.122 24.0222 511.908 24.0222Z" fill="#4B515F"/>
<path d="M283.206 42.8222C283.206 19.1722 302.824 0 327.023 0H335.573C352.157 0 366.589 9.00416 374.03 22.2831L350.55 37.5419C347.848 29.6832 340.25 24.0222 331.298 24.0222C320.084 24.0222 310.993 32.9069 310.993 43.8667V48.0444C310.993 59.0042 320.084 67.8889 331.298 67.8889C340.635 67.8889 348.5 61.73 350.872 53.3424L375.583 68.6621C368.74 83.596 353.399 94 335.573 94H327.023C302.824 94 283.206 74.8278 283.206 51.1778V42.8222Z" fill="#4B515F"/>
</svg>
