<svg width="160" height="44" viewBox="0 0 160 44" fill="none" xmlns="http://www.w3.org/2000/svg">
<path fill-rule="evenodd" clip-rule="evenodd" d="M116.968 2.68613H2.32773V40.8997H116.968V2.68613ZM0 0.358398V43.2274H119.296V0.358398H0Z" fill="#4B515F"/>
<rect x="119.292" y="11.0898" width="40.708" height="21.4159" fill="#FF4910"/>
<path d="M127.389 19.6977C127.571 19.4398 127.73 19.2206 127.865 19.0401C128 18.8544 128.136 18.7048 128.271 18.5913C128.406 18.4727 128.557 18.3876 128.724 18.336C128.895 18.2844 129.108 18.2587 129.363 18.2587H130.066L129.894 19.1252C129.868 19.2541 129.821 19.3392 129.754 19.3805C129.691 19.4166 129.616 19.4475 129.527 19.4733C129.439 19.494 129.34 19.5301 129.231 19.5816C129.127 19.6281 129.023 19.7235 128.919 19.8679L127.904 21.2064C127.748 21.423 127.595 21.5932 127.444 21.717C127.293 21.8356 127.098 21.9207 126.859 21.9723C127.176 22.029 127.433 22.1425 127.631 22.3127C127.829 22.4778 127.987 22.7176 128.107 23.0323L129.457 26.1657H128.497C128.211 26.1657 127.998 26.1192 127.857 26.0264C127.717 25.9284 127.602 25.7891 127.514 25.6086L126.507 23.2798C126.435 23.0838 126.318 22.9239 126.156 22.8001C125.995 22.6712 125.815 22.6067 125.618 22.6067L124.861 22.7537L124.44 26.1657H122.832L123.8 18.2741H125.415L124.994 21.6628L125.548 21.5468C125.646 21.5262 125.732 21.5055 125.805 21.4849C125.883 21.4591 125.953 21.4282 126.016 21.3921C126.078 21.3559 126.135 21.3121 126.187 21.2605C126.239 21.2089 126.294 21.1445 126.351 21.0671L127.389 19.6977Z" fill="white"/>
<path d="M132.151 21.9182C132.313 21.2683 132.505 20.7138 132.729 20.2547C132.958 19.7905 133.239 19.414 133.572 19.1252C133.904 18.8312 134.305 18.6171 134.773 18.483C135.241 18.3438 135.803 18.2741 136.459 18.2741H138.136L137.161 26.1657H135.554L136.373 19.5275H136.123C135.785 19.5275 135.491 19.5687 135.241 19.6513C134.992 19.7286 134.773 19.8627 134.586 20.0536C134.399 20.2444 134.237 20.4997 134.102 20.8195C133.967 21.1342 133.842 21.5287 133.728 22.0033C133.546 22.813 133.348 23.4913 133.135 24.038C132.926 24.5848 132.695 25.0232 132.44 25.3533C132.19 25.6834 131.915 25.9207 131.613 26.0651C131.311 26.2043 130.978 26.274 130.614 26.274C130.349 26.274 130.167 26.2508 130.068 26.2043C129.969 26.1631 129.925 26.0857 129.935 25.9722L130.052 25.0206H130.302C130.541 25.0206 130.744 24.969 130.911 24.8659C131.082 24.7576 131.233 24.5822 131.363 24.3398C131.498 24.0974 131.626 23.7801 131.746 23.3881C131.87 22.991 132.006 22.501 132.151 21.9182Z" fill="white"/>
<path d="M146.609 18.2741L141.295 28.4248C141.17 28.6672 140.985 28.7884 140.741 28.7884H139.5L141.248 25.6163L139.219 18.2741H140.608C140.738 18.2741 140.834 18.3077 140.897 18.3747C140.959 18.4366 141.001 18.5114 141.022 18.5991L142.145 23.0787C142.171 23.1973 142.192 23.3185 142.208 23.4423C142.229 23.5661 142.244 23.6873 142.255 23.8059C142.307 23.6821 142.359 23.5609 142.411 23.4423C142.468 23.3185 142.525 23.1947 142.582 23.0709L144.806 18.5913C144.853 18.4985 144.918 18.4237 145.001 18.367C145.09 18.3051 145.181 18.2741 145.275 18.2741H146.609Z" fill="white"/>
<path d="M151.273 19.6513C150.893 19.6513 150.542 19.7519 150.219 19.953C149.902 20.1542 149.626 20.4172 149.392 20.7422C149.163 21.0619 148.984 21.4256 148.854 21.8331C148.724 22.2405 148.658 22.6506 148.658 23.0632C148.658 23.7131 148.783 24.2057 149.033 24.5409C149.288 24.871 149.639 25.0361 150.086 25.0361C150.451 25.0361 150.781 24.9303 151.078 24.7189C151.379 24.5074 151.637 24.2289 151.85 23.8833C152.063 23.5377 152.227 23.1457 152.342 22.7073C152.461 22.2689 152.521 21.8202 152.521 21.3611C152.521 20.2212 152.105 19.6513 151.273 19.6513ZM154.69 14.4521V15.3032C154.69 15.4837 154.644 15.641 154.55 15.7751C154.462 15.9041 154.329 15.9892 154.152 16.0305L151.959 16.3709C151.527 16.4379 151.145 16.5462 150.812 16.6958C150.484 16.8402 150.196 17.013 149.946 17.2142C149.702 17.4153 149.493 17.6423 149.322 17.895C149.15 18.1478 149.004 18.4134 148.885 18.6919C148.77 18.9704 148.679 19.2593 148.612 19.5584C148.544 19.8576 148.492 20.1542 148.456 20.4482C148.627 20.1542 148.83 19.886 149.064 19.6435C149.304 19.396 149.566 19.1845 149.852 19.0091C150.144 18.8338 150.456 18.6996 150.789 18.6068C151.127 18.5088 151.481 18.4598 151.85 18.4598C152.188 18.4598 152.5 18.5165 152.786 18.63C153.073 18.7383 153.317 18.906 153.52 19.1329C153.728 19.3599 153.889 19.6487 154.004 19.9994C154.123 20.345 154.183 20.7551 154.183 21.2296C154.183 21.6474 154.136 22.0626 154.043 22.4752C153.954 22.8878 153.824 23.2824 153.653 23.6589C153.481 24.0303 153.273 24.3759 153.028 24.6957C152.784 25.0155 152.506 25.294 152.193 25.5312C151.881 25.7633 151.541 25.9464 151.171 26.0806C150.802 26.2147 150.409 26.2817 149.993 26.2817C149.577 26.2817 149.187 26.2095 148.822 26.0651C148.463 25.9207 148.151 25.6911 147.886 25.3765C147.621 25.0619 147.413 24.657 147.262 24.1618C147.111 23.6667 147.035 23.0709 147.035 22.3746C147.035 21.9672 147.056 21.521 147.098 21.0362C147.139 20.5462 147.217 20.0484 147.332 19.543C147.446 19.0375 147.608 18.5423 147.816 18.0575C148.029 17.5675 148.302 17.1188 148.635 16.7113C148.973 16.3038 149.382 15.9531 149.86 15.6591C150.344 15.3599 150.916 15.151 151.577 15.0324L154.69 14.4521Z" fill="white"/>
<path fill-rule="evenodd" clip-rule="evenodd" d="M77.7432 13.2502V17.9608H82.6846V30.1305H88.1803V17.9608H92.8563V13.2502H77.7432Z" fill="#4B515F"/>
<path fill-rule="evenodd" clip-rule="evenodd" d="M8.26172 13.2502V13.2509V17.9608V30.1305H13.7574V17.9608H17.8789V30.1305H23.3746V17.9608H23.3749V13.2502H8.26172Z" fill="#4B515F"/>
<path fill-rule="evenodd" clip-rule="evenodd" d="M25.5342 13.251H33.5814C37.1586 13.251 40.0585 16.1509 40.0585 19.728C40.0585 23.3052 37.1586 26.2051 33.5814 26.2051H31.0299V30.1306H25.5342V13.251ZM33.0907 17.3727H31.0299V21.4945H33.0907C34.2289 21.4945 35.1516 20.5718 35.1516 19.4336C35.1516 18.2954 34.2289 17.3727 33.0907 17.3727Z" fill="#4B515F"/>
<path fill-rule="evenodd" clip-rule="evenodd" d="M48.89 12.4658C44.4457 12.4658 40.8428 16.0687 40.8428 20.5131V22.0833C40.8428 26.5276 44.4457 30.1305 48.89 30.1305H50.4602C54.9046 30.1305 58.5075 26.5276 58.5075 22.0833V20.5131C58.5075 16.0687 54.9046 12.4658 50.4602 12.4658H48.89ZM49.6751 16.9801C47.6155 16.9801 45.9459 18.6498 45.9459 20.7093V21.4944C45.9459 23.554 47.6155 25.2237 49.6751 25.2237C51.7347 25.2237 53.4043 23.554 53.4043 21.4944V20.7093C53.4043 18.6498 51.7347 16.9801 49.6751 16.9801Z" fill="#4B515F"/>
<path fill-rule="evenodd" clip-rule="evenodd" d="M101.492 12.4658C97.0472 12.4658 93.4443 16.0687 93.4443 20.5131V22.0833C93.4443 26.5276 97.0472 30.1305 101.492 30.1305H103.062C107.506 30.1305 111.109 26.5276 111.109 22.0833V20.5131C111.109 16.0687 107.506 12.4658 103.062 12.4658H101.492ZM102.277 16.9801C100.217 16.9801 98.5475 18.6498 98.5475 20.7093V21.4944C98.5475 23.554 100.217 25.2237 102.277 25.2237C104.336 25.2237 106.006 23.554 106.006 21.4944V20.7093C106.006 18.6498 104.336 16.9801 102.277 16.9801Z" fill="#4B515F"/>
<path d="M60.2744 20.5131C60.2744 16.0687 63.8773 12.4658 68.3217 12.4658H69.8919C72.9376 12.4658 75.5882 14.1579 76.9548 16.6533L72.6426 19.5208C72.1464 18.044 70.7508 16.9801 69.1068 16.9801C67.0472 16.9801 65.3776 18.6498 65.3776 20.7093V21.4944C65.3776 23.554 67.0472 25.2237 69.1068 25.2237C70.8216 25.2237 72.266 24.0663 72.7016 22.4901L77.24 25.369C75.9832 28.1754 73.1659 30.1305 69.8919 30.1305H68.3217C63.8773 30.1305 60.2744 26.5276 60.2744 22.0833V20.5131Z" fill="#4B515F"/>
</svg>
