<svg width="1212" height="185" viewBox="0 0 1212 185" fill="none" xmlns="http://www.w3.org/2000/svg">
<g filter="url(#filter0_dd_314_9646)">
<path d="M28 147.711V53.4155H53.6557V90.2496H87.6172V53.4155H113.273V147.711H87.6172V110.877H53.6557V147.711H28Z" fill="white"/>
<path d="M217.003 100.563C217.003 111.061 214.957 119.916 210.866 127.13C206.775 134.312 201.253 139.761 194.301 143.475C187.348 147.158 179.596 149 171.044 149C162.431 149 154.648 147.143 147.696 143.429C140.774 139.684 135.268 134.22 131.176 127.038C127.116 119.824 125.086 110.999 125.086 100.563C125.086 90.0654 127.116 81.2253 131.176 74.0426C135.268 66.8293 140.774 61.3809 147.696 57.6975C154.648 53.9834 162.431 52.1263 171.044 52.1263C179.596 52.1263 187.348 53.9834 194.301 57.6975C201.253 61.3809 206.775 66.8293 210.866 74.0426C214.957 81.2253 217.003 90.0654 217.003 100.563ZM190.609 100.563C190.609 94.9153 189.855 90.1575 188.348 86.29C186.871 82.3917 184.672 79.445 181.75 77.4498C178.858 75.4239 175.289 74.411 171.044 74.411C166.799 74.411 163.215 75.4239 160.293 77.4498C157.401 79.445 155.202 82.3917 153.694 86.29C152.218 90.1575 151.48 94.9153 151.48 100.563C151.48 106.211 152.218 110.984 153.694 114.882C155.202 118.75 157.401 121.697 160.293 123.723C163.215 125.718 166.799 126.715 171.044 126.715C175.289 126.715 178.858 125.718 181.75 123.723C184.672 121.697 186.871 118.75 188.348 114.882C189.855 110.984 190.609 106.211 190.609 100.563Z" fill="white"/>
<path d="M228.873 147.711V53.4155H269.849C277.047 53.4155 283.092 54.3824 287.983 56.3162C292.905 58.25 296.612 60.9819 299.104 64.5118C301.626 68.0417 302.887 72.2009 302.887 76.9893C302.887 80.4579 302.118 83.6195 300.58 86.4741C299.073 89.3288 296.95 91.723 294.212 93.6568C291.474 95.5599 288.275 96.8798 284.615 97.6164V98.5373C288.675 98.6908 292.367 99.7191 295.689 101.622C299.011 103.495 301.657 106.088 303.626 109.403C305.594 112.688 306.579 116.555 306.579 121.006C306.579 126.163 305.225 130.752 302.518 134.773C299.842 138.794 296.027 141.955 291.075 144.258C286.122 146.56 280.216 147.711 273.356 147.711H228.873ZM254.529 127.268H266.526C270.833 127.268 274.063 126.47 276.216 124.874C278.37 123.247 279.446 120.853 279.446 117.691C279.446 115.481 278.939 113.609 277.924 112.074C276.909 110.539 275.463 109.373 273.586 108.575C271.741 107.777 269.51 107.377 266.895 107.377H254.529V127.268ZM254.529 91.5388H265.05C267.295 91.5388 269.28 91.1858 271.002 90.4798C272.725 89.7738 274.063 88.7609 275.017 87.441C276.001 86.0904 276.493 84.4482 276.493 82.5145C276.493 79.5984 275.447 77.373 273.356 75.8383C271.264 74.2728 268.618 73.4901 265.419 73.4901H254.529V91.5388Z" fill="white"/>
<path d="M331.911 85.0928H351.476C359.444 85.0928 366.396 86.3667 372.333 88.9144C378.301 91.4621 382.931 95.0534 386.222 99.6884C389.544 104.323 391.19 109.772 391.159 116.033C391.19 122.295 389.544 127.805 386.222 132.563C382.931 137.321 378.301 141.035 372.333 143.705C366.396 146.376 359.444 147.711 351.476 147.711H316.223V53.4155H341.878V127.636H351.476C354.583 127.636 357.183 127.13 359.274 126.117C361.397 125.104 362.997 123.707 364.073 121.927C365.181 120.147 365.719 118.121 365.688 115.849C365.719 112.626 364.519 109.956 362.089 107.838C359.659 105.689 356.121 104.615 351.476 104.615H331.911V85.0928ZM423.46 53.4155V147.711H397.804V53.4155H423.46Z" fill="white"/>
<path d="M435.584 53.4155H461.24V102.773H461.978L495.57 53.4155H517.35V147.711H491.694V98.1689H491.14L456.994 147.711H435.584V53.4155ZM485.788 28H501.846C501.815 33.9855 499.523 38.774 494.97 42.3653C490.418 45.9259 484.28 47.7062 476.559 47.7062C468.776 47.7062 462.609 45.9259 458.056 42.3653C453.503 38.774 451.242 33.9855 451.273 28H467.146C467.115 29.9338 467.807 31.7141 469.222 33.3409C470.668 34.9371 473.114 35.7352 476.559 35.7352C479.851 35.7352 482.204 34.9524 483.619 33.387C485.034 31.8215 485.757 30.0259 485.788 28Z" fill="white"/>
<path d="M569.03 149V129.11H573.645C576.352 129.11 578.49 128.895 580.059 128.465C581.658 128.005 582.889 127.206 583.75 126.071C584.642 124.904 585.396 123.278 586.011 121.19L586.934 118.428L551.496 53.4155H577.705L597.455 91.723L612.59 53.4155H638.43L605.945 127.084C604.161 130.951 602.038 134.558 599.577 137.904C597.116 141.219 594.055 143.905 590.395 145.961C586.734 147.987 582.197 149 576.782 149H569.03Z" fill="white"/>
<path d="M646.736 147.711V53.4155H687.526C694.54 53.4155 700.677 54.7968 705.938 57.5594C711.198 60.3219 715.289 64.2048 718.212 69.2081C721.134 74.2114 722.595 80.0589 722.595 86.7504C722.595 93.5033 721.088 99.3507 718.073 104.293C715.089 109.235 710.89 113.041 705.476 115.711C700.093 118.382 693.802 119.717 686.604 119.717H662.24V99.8265H681.436C684.45 99.8265 687.019 99.3047 689.141 98.261C691.295 97.1867 692.941 95.6673 694.079 93.7028C695.248 91.7383 695.832 89.4209 695.832 86.7504C695.832 84.0492 695.248 81.7471 694.079 79.844C692.941 77.9102 691.295 76.4368 689.141 75.4239C687.019 74.3803 684.45 73.8584 681.436 73.8584H672.391V147.711H646.736Z" fill="white"/>
<path d="M823.557 100.563C823.557 111.061 821.511 119.916 817.42 127.13C813.329 134.312 807.807 139.761 800.854 143.475C793.902 147.158 786.15 149 777.598 149C768.985 149 761.202 147.143 754.25 143.429C747.328 139.684 741.822 134.22 737.73 127.038C733.67 119.824 731.639 110.999 731.639 100.563C731.639 90.0654 733.67 81.2253 737.73 74.0426C741.822 66.8293 747.328 61.3809 754.25 57.6975C761.202 53.9834 768.985 52.1263 777.598 52.1263C786.15 52.1263 793.902 53.9834 800.854 57.6975C807.807 61.3809 813.329 66.8293 817.42 74.0426C821.511 81.2253 823.557 90.0654 823.557 100.563ZM797.163 100.563C797.163 94.9153 796.409 90.1575 794.902 86.29C793.425 82.3917 791.226 79.445 788.303 77.4498C785.412 75.4239 781.843 74.411 777.598 74.411C773.353 74.411 769.769 75.4239 766.847 77.4498C763.955 79.445 761.756 82.3917 760.248 86.29C758.772 90.1575 758.033 94.9153 758.033 100.563C758.033 106.211 758.772 110.984 760.248 114.882C761.756 118.75 763.955 121.697 766.847 123.723C769.769 125.718 773.353 126.715 777.598 126.715C781.843 126.715 785.412 125.718 788.303 123.723C791.226 121.697 793.425 118.75 794.902 114.882C796.409 110.984 797.163 106.211 797.163 100.563Z" fill="white"/>
<path d="M835.427 147.711V53.4155H876.403C883.601 53.4155 889.646 54.3824 894.537 56.3162C899.459 58.25 903.166 60.9819 905.657 64.5118C908.18 68.0417 909.441 72.2009 909.441 76.9893C909.441 80.4579 908.672 83.6195 907.134 86.4741C905.627 89.3288 903.504 91.723 900.766 93.6568C898.028 95.5599 894.829 96.8798 891.168 97.6164V98.5373C895.229 98.6908 898.921 99.7191 902.243 101.622C905.565 103.495 908.211 106.088 910.18 109.403C912.148 112.688 913.133 116.555 913.133 121.006C913.133 126.163 911.779 130.752 909.072 134.773C906.396 138.794 902.581 141.955 897.628 144.258C892.676 146.56 886.769 147.711 879.909 147.711H835.427ZM861.083 127.268H873.08C877.387 127.268 880.617 126.47 882.77 124.874C884.924 123.247 886 120.853 886 117.691C886 115.481 885.493 113.609 884.478 112.074C883.463 110.539 882.017 109.373 880.14 108.575C878.294 107.777 876.064 107.377 873.449 107.377H861.083V127.268ZM861.083 91.5388H871.604C873.849 91.5388 875.833 91.1858 877.556 90.4798C879.279 89.7738 880.617 88.7609 881.571 87.441C882.555 86.0904 883.047 84.4482 883.047 82.5145C883.047 79.5984 882.001 77.373 879.909 75.8383C877.818 74.2728 875.172 73.4901 871.973 73.4901H861.083V91.5388Z" fill="white"/>
<path d="M922.223 147.711V53.4155H990.33V74.0426H947.879V90.2496H986.824V110.877H947.879V127.084H990.146V147.711H922.223Z" fill="white"/>
<path d="M1003.05 147.711V53.4155H1028.71V90.2496H1062.67V53.4155H1088.33V147.711H1062.67V110.877H1028.71V147.711H1003.05Z" fill="white"/>
<path d="M1116.75 85.0928H1136.32C1144.28 85.0928 1151.24 86.3667 1157.17 88.9144C1163.14 91.4621 1167.77 95.0534 1171.06 99.6884C1174.38 104.323 1176.03 109.772 1176 116.033C1176.03 122.295 1174.38 127.805 1171.06 132.563C1167.77 137.321 1163.14 141.035 1157.17 143.705C1151.24 146.376 1144.28 147.711 1136.32 147.711H1101.06V53.4155H1126.72V127.636H1136.32C1139.42 127.636 1142.02 127.13 1144.11 126.117C1146.24 125.104 1147.84 123.707 1148.91 121.927C1150.02 120.147 1150.56 118.121 1150.53 115.849C1150.56 112.626 1149.36 109.956 1146.93 107.838C1144.5 105.689 1140.96 104.615 1136.32 104.615H1116.75V85.0928Z" fill="white"/>
</g>
<defs>
<filter id="filter0_dd_314_9646" x="0" y="0" width="1212" height="185" filterUnits="userSpaceOnUse" color-interpolation-filters="sRGB">
<feFlood flood-opacity="0" result="BackgroundImageFix"/>
<feColorMatrix in="SourceAlpha" type="matrix" values="0 0 0 0 0 0 0 0 0 0 0 0 0 0 0 0 0 0 127 0" result="hardAlpha"/>
<feOffset dx="3" dy="2"/>
<feGaussianBlur stdDeviation="13.5"/>
<feComposite in2="hardAlpha" operator="out"/>
<feColorMatrix type="matrix" values="0 0 0 0 0 0 0 0 0 0 0 0 0 0 0 0 0 0 0.4 0"/>
<feBlend mode="normal" in2="BackgroundImageFix" result="effect1_dropShadow_314_9646"/>
<feColorMatrix in="SourceAlpha" type="matrix" values="0 0 0 0 0 0 0 0 0 0 0 0 0 0 0 0 0 0 127 0" result="hardAlpha"/>
<feOffset dx="4" dy="4"/>
<feGaussianBlur stdDeviation="16"/>
<feComposite in2="hardAlpha" operator="out"/>
<feColorMatrix type="matrix" values="0 0 0 0 0 0 0 0 0 0 0 0 0 0 0 0 0 0 0.12 0"/>
<feBlend mode="normal" in2="effect1_dropShadow_314_9646" result="effect2_dropShadow_314_9646"/>
<feBlend mode="normal" in="SourceGraphic" in2="effect2_dropShadow_314_9646" result="shape"/>
</filter>
</defs>
</svg>
