<svg width="115" height="115" viewBox="0 0 115 115" fill="none" xmlns="http://www.w3.org/2000/svg">
<path d="M57.4999 0L107.296 28.75V86.25L57.4999 115L7.70343 86.25V28.75L57.4999 0Z" fill="white"/>
<path fill-rule="evenodd" clip-rule="evenodd" d="M57.4999 8.8527L15.3701 33.1763V81.8236L57.4999 106.147L99.6297 81.8236V33.1763L57.4999 8.8527ZM107.296 28.75L57.4999 0L7.70343 28.75V86.25L57.4999 115L107.296 86.25V28.75Z" fill="#FF4910"/>
<path d="M38.4365 62.5623C35.5788 62.3582 32.6803 62.1949 29.8634 61.8683C26.1076 61.4192 22.4743 60.4803 19.1267 58.7657C17.0038 57.7042 15.0851 56.3162 13.6154 54.4383C12.7989 53.4177 12.1458 52.3155 11.9416 51.0091C11.6967 49.4986 12.2682 48.1514 12.8806 46.8042C13.9012 44.7222 15.33 43.0076 17.0038 41.4154C20.9229 37.6596 25.5769 35.0469 30.5166 32.8832C36.3136 30.3113 42.3964 28.4334 48.5609 27.0862C52.5208 26.2288 56.5216 25.494 60.5223 24.8C64.768 24.0652 69.0546 23.6569 73.3819 23.4936C76.852 23.3303 80.322 23.3303 83.7921 23.6161C88.8543 24.0652 93.794 24.9633 98.3663 27.2495C99.9176 28.0251 101.346 29.0457 102.571 30.3113C104 31.7401 104.367 33.5364 104.245 35.4551C104.041 39.3742 102 42.3544 99.2644 44.9671C96.2843 47.7432 92.8142 49.7435 89.14 51.4582C82.9348 54.3567 76.4437 56.3162 69.8302 57.9492C63.9515 59.378 58.032 60.5619 52.0309 61.3784C47.5402 61.9908 43.0496 62.399 38.5181 62.3582C38.4773 62.4398 38.4365 62.4807 38.4365 62.5623ZM35.538 54.52C36.926 54.52 38.2732 54.6016 39.6612 54.52C44.5601 54.2342 49.459 53.581 54.3171 52.7645C59.4609 51.8664 64.5231 50.8458 69.5853 49.5802C74.9741 48.233 80.322 46.6817 85.425 44.4772C88.3644 43.2117 91.1812 41.7828 93.5899 39.6192C94.8554 38.4761 95.9168 37.2105 96.2842 35.4959C96.6108 34.0263 96.2434 33.0057 94.9779 32.1892C94.3247 31.7809 93.5899 31.3727 92.855 31.0869C89.7524 29.903 86.4865 29.5356 83.2205 29.3723C78.934 29.1274 74.6066 29.2907 70.3609 29.8214C65.8703 30.3521 61.4205 31.0053 56.9706 31.7401C52.1534 32.5566 47.377 33.6588 42.6822 34.9652C38.3548 36.1899 34.0683 37.578 29.9859 39.415C27.0874 40.7214 24.2705 42.1911 21.7802 44.2323C20.5963 45.2121 19.5349 46.2735 18.8001 47.6207C18.3102 48.5596 18.3102 49.4169 19.0042 50.1926C19.5349 50.7641 20.1065 51.3357 20.7596 51.7847C22.3926 52.887 24.2705 53.4177 26.1892 53.8259C29.2511 54.4791 32.3945 54.6424 35.538 54.52Z" fill="#374151"/>
<path d="M21.332 62.4802C24.6387 63.6641 27.9455 64.5623 31.3339 65.1338C33.865 65.542 36.3961 65.8686 38.9272 66.1136C42.1931 66.4402 45.4998 66.3585 48.7658 66.1136C51.9909 65.8278 55.216 65.4604 58.4411 65.0522C62.7685 64.4806 67.055 63.5825 71.3007 62.3986C74.6483 61.4596 77.9142 60.3982 81.0168 58.7652C82.6498 57.9079 84.2419 56.9282 85.3034 55.3768C85.7524 54.7645 86.2832 54.4379 86.9363 54.1521C89.0184 53.254 91.0596 52.315 93.1008 51.4169C93.2233 51.3761 93.3049 51.3353 93.4274 51.2944C94.6521 52.6825 94.8154 55.0911 93.7948 56.8873C92.5701 59.051 90.733 60.5615 88.7326 61.9087C85.5891 64.0315 82.1191 65.5012 78.5674 66.7668C74.6483 68.1548 70.6067 69.1346 66.5243 69.8286C60.7273 70.8492 54.9302 71.2982 49.0515 71.2166C44.1527 71.135 39.3354 70.7267 34.559 69.6245C31.0889 68.808 27.7414 67.6649 24.7204 65.6645C23.5773 64.9297 22.5567 64.0724 21.6994 62.9701C21.5769 62.8068 21.4544 62.6435 21.332 62.4802Z" fill="#374151"/>
<path d="M75.2187 69.2983C75.8719 71.2171 75.6269 72.9317 74.5247 74.483C73.3 76.2384 71.5037 77.2182 69.585 77.953C66.7681 79.0553 63.7879 79.5044 60.767 79.7493C57.6235 80.0351 54.4392 80.1167 51.2958 79.9534C46.3969 79.6677 41.6613 78.8512 37.2114 76.6467C34.4762 75.2995 32.0676 73.5849 30.2713 71.0946C30.0672 70.8088 29.9039 70.5231 29.8223 70.1965C30.0264 70.3189 30.2713 70.4822 30.4755 70.6047C33.374 72.401 36.5174 73.4624 39.7833 74.2789C45.2538 75.5853 50.8467 75.9118 56.4396 75.6261C60.3587 75.422 64.1962 74.7688 67.9112 73.4624C70.5647 72.5234 73.055 71.2579 75.2187 69.2983Z" fill="#374151"/>
<path d="M61.9105 82.7294C61.4206 83.8316 60.5224 84.6073 59.5018 85.3013C57.8281 86.3627 55.9501 86.8934 54.0314 87.1384C51.2145 87.5058 48.4385 87.5058 45.6625 86.771C41.8658 85.7912 38.6407 83.9133 36.2321 80.7698C35.6606 79.9942 35.1707 79.1777 34.9666 78.0754C38.8857 80.974 43.213 82.6886 47.9486 83.3826C52.6026 84.0358 57.2973 84.0358 61.9105 82.7294Z" fill="#374151"/>
<path d="M37.4561 85.2195C40.967 89.3427 45.4576 90.5266 50.6831 90.2C49.5809 91.0573 48.4786 91.5472 47.2539 91.8738C43.988 92.7311 40.1505 91.2614 38.2726 88.4038C37.6602 87.5056 37.3745 86.485 37.4561 85.2195Z" fill="#374151"/>
<path d="M80.2409 44.9671C78.7304 45.4978 77.2607 46.0285 75.7502 46.5184C75.6277 46.5593 75.5053 46.5593 75.4236 46.6409C74.1581 47.3349 72.8517 46.845 71.5453 46.7226C68.1161 46.396 64.7277 45.9877 61.2985 45.8653C58.155 45.702 55.0116 45.7428 51.8681 45.8653C46.6426 46.0694 41.4988 46.6409 36.3958 47.9065C36.2733 47.9473 36.1508 47.9473 36.0692 47.9065C50.5209 43.3342 65.2176 41.7012 80.2409 44.9671Z" fill="#374151"/>
<path fill-rule="evenodd" clip-rule="evenodd" d="M7.70343 76.2834V86.2501L57.4999 115L107.296 86.2501V76.2834H99.6297V81.8238L57.4999 106.147L15.3701 81.8238V76.2834H7.70343Z" fill="#FF4910"/>
</svg>
