<svg width="115" height="115" viewBox="0 0 115 115" fill="none" xmlns="http://www.w3.org/2000/svg">
<path d="M57.4998 0L107.296 28.75V86.25L57.4998 115L7.70337 86.25V28.75L57.4998 0Z" fill="white"/>
<path d="M22 55.3584C22.0691 54.6675 22.1382 53.9766 22.2073 53.2857C22.8291 47.6201 24.6946 42.4382 27.8728 37.74C28.3565 37.049 28.8401 36.4272 29.3238 35.7363C29.8765 34.9763 30.4983 34.9763 31.1892 35.5981C36.7857 41.1946 42.3131 46.791 47.9095 52.3184C49.2914 53.7002 50.6041 55.013 51.986 56.3948C52.5387 56.9476 52.6078 57.3621 52.1932 58.053C47.0804 66.4132 41.8985 74.7733 36.7857 83.0644C36.3021 83.8935 35.6802 83.9626 34.9202 83.4098C29.6001 79.1952 25.8692 73.8751 23.7273 67.4496C22.76 64.6168 22.2764 61.7149 22.0691 58.6749C22.0691 58.5367 22 58.3985 22 58.2603C22 57.3621 22 56.3257 22 55.3584ZM30.9129 43.1291C27.6655 49.2092 26.6292 55.6348 27.9419 62.4058C28.9092 67.5877 31.2583 72.0787 34.8511 76.0861C38.5821 70.0751 42.244 64.064 45.9059 58.1221C40.9312 53.0784 35.9566 48.1038 30.9129 43.1291Z" fill="#374151"/>
<path d="M73.2664 59.3657C78.3101 59.3657 83.3538 59.3657 88.3975 59.3657C88.6739 59.3657 89.0194 59.5039 89.2957 59.6421C89.6412 59.8494 89.7103 60.2639 89.6412 60.6785C88.2593 73.5987 79.5537 84.5843 67.3244 88.868C63.0407 90.3881 58.6188 91.0099 54.1279 90.7335C49.7751 90.5262 45.5604 89.4899 41.6222 87.6244C40.7931 87.2098 40.5858 86.6571 41.0695 85.828C43.9022 81.1988 46.735 76.5696 49.5678 71.9405C51.986 68.0022 54.4042 64.064 56.8224 60.1257C57.1679 59.573 57.5825 59.3657 58.2043 59.3657C63.248 59.3657 68.2917 59.3657 73.2664 59.3657Z" fill="#374151"/>
<path d="M72.99 54.391C67.8772 54.391 62.8334 54.391 57.7206 54.391C57.237 54.391 56.8224 54.2528 56.477 53.9074C49.2223 46.6527 42.0367 39.398 34.7821 32.2125C34.4366 31.867 34.2293 31.4525 34.3675 30.9688C34.4366 30.7615 34.5748 30.5543 34.7821 30.4161C39.4112 26.6851 44.6622 24.2669 50.6041 23.4378C60.2079 21.9868 68.9826 24.1287 76.7209 30.0706C83.0774 34.9762 87.0848 41.4017 88.9503 49.2091C89.2266 50.5219 89.4339 51.8346 89.6412 53.1474C89.7794 53.9074 89.2957 54.391 88.4666 54.391C83.2847 54.391 78.1028 54.391 72.99 54.391ZM68.4299 31.2452C67.739 32.2816 67.0481 33.3179 66.3571 34.3543C63.5244 38.638 60.6916 42.9217 57.8588 47.1364C57.7206 47.3436 57.7206 47.4818 57.9279 47.6891C58.3425 48.0346 58.6879 48.4491 59.1025 48.8637C59.3788 49.14 60.1388 49.0709 60.3461 48.7255C63.8007 43.4745 67.3244 38.2235 70.779 32.9725C70.8481 32.9034 70.9172 32.7652 70.9863 32.627C70.0881 32.1434 69.259 31.7288 68.4299 31.2452ZM64.4916 29.6561C63.5244 29.4488 62.6953 29.2415 61.7971 28.9651C61.5207 28.896 61.3825 28.9651 61.1752 29.2415C58.3425 33.4561 55.5788 37.6017 52.746 41.8163C52.6769 41.9545 52.5387 42.0926 52.4696 42.2308C53.2296 42.9908 53.9206 43.6818 54.6806 44.4418C57.9279 39.5362 61.1752 34.6307 64.4916 29.6561ZM65.1135 48.9328C66.219 48.9328 67.1862 48.9328 68.2226 48.9328C68.4299 48.9328 68.5681 48.8637 68.7063 48.6564C71.1936 44.8563 73.75 41.0563 76.2373 37.2562C76.3064 37.1871 76.3064 37.118 76.3755 36.9798C75.6846 36.358 74.9936 35.7362 74.3027 35.0452C71.2627 39.7435 68.2226 44.3036 65.1135 48.9328ZM56.7533 28.4124C56.5461 28.4124 56.477 28.4124 56.3388 28.4124C55.3024 28.4815 54.266 28.4815 53.2296 28.5506C53.0224 28.5506 52.8842 28.6197 52.746 28.827C50.9496 31.4525 49.0841 34.078 47.2877 36.7035C47.2186 36.7725 47.1495 36.8416 47.1495 36.9107C47.9786 37.7398 48.7387 38.4998 49.4987 39.2599C51.8478 35.598 54.266 32.0052 56.7533 28.4124ZM73.4736 48.9328C74.1645 48.9328 74.7864 48.9328 75.4773 48.9328C75.5464 48.9328 75.6846 48.8637 75.7537 48.7946C77.2737 46.6527 78.7246 44.4418 80.2446 42.2308C80.3137 42.1617 80.3137 42.0235 80.2446 41.9545C79.8992 41.4017 79.5537 40.9181 79.2083 40.3653C77.2737 43.2672 75.4082 46.1 73.4736 48.9328ZM42.244 31.867C42.8658 32.4888 43.4877 33.1107 44.1786 33.8016C45.0768 32.5579 45.975 31.2452 46.8732 29.9324C45.215 30.4161 43.6949 31.107 42.244 31.867ZM83.3538 48.9328C83.0774 48.0346 82.8011 47.2055 82.4556 46.3073C81.8338 47.2055 81.281 48.0346 80.6592 48.9328C81.5574 48.9328 82.3865 48.9328 83.3538 48.9328Z" fill="#374151"/>
<path fill-rule="evenodd" clip-rule="evenodd" d="M57.4998 8.8527L15.37 33.1763V81.8236L57.4998 106.147L99.6296 81.8236V33.1763L57.4998 8.8527ZM107.296 28.75L57.4998 0L7.70337 28.75V86.25L57.4998 115L107.296 86.25V28.75Z" fill="#FF4910"/>
<path fill-rule="evenodd" clip-rule="evenodd" d="M7.70337 76.2834V86.2501L57.4998 115L107.296 86.2501V76.2834H99.6296V81.8238L57.4998 106.147L15.37 81.8238V76.2834H7.70337Z" fill="#FF4910"/>
</svg>
