<svg width="115" height="115" viewBox="0 0 115 115" fill="none" xmlns="http://www.w3.org/2000/svg">
<path d="M57.4999 0L107.296 28.75V86.25L57.4999 115L7.70343 86.25V28.75L57.4999 0Z" fill="white"/>
<g clip-path="url(#clip0_454_2756)">
<path d="M27.5 34.6853C27.9089 34.6853 28.301 34.8521 28.5901 35.1491C28.8793 35.446 29.0417 35.8487 29.0417 36.2686V36.3557C32.1695 36.7158 35.0853 38.1569 37.3109 40.4426C39.5365 42.7283 40.9396 45.7229 41.2902 48.9353H41.375C41.7839 48.9353 42.176 49.1021 42.4651 49.399C42.7543 49.696 42.9167 50.0987 42.9167 50.5186C42.9167 50.9386 42.7543 51.3413 42.4651 51.6382C42.176 51.9352 41.7839 52.102 41.375 52.102H41.2902C40.9396 55.3143 39.5365 58.309 37.3109 60.5947C35.0853 62.8804 32.1695 64.3215 29.0417 64.6816V64.7686C29.0417 65.1886 28.8793 65.5913 28.5901 65.8882C28.301 66.1852 27.9089 66.352 27.5 66.352C27.0911 66.352 26.699 66.1852 26.4099 65.8882C26.1208 65.5913 25.9583 65.1886 25.9583 64.7686V64.6816C22.8305 64.3215 19.9147 62.8804 17.6891 60.5947C15.4636 58.309 14.0604 55.3143 13.7098 52.102H13.625C13.2161 52.102 12.824 51.9352 12.5349 51.6382C12.2458 51.3413 12.0833 50.9386 12.0833 50.5186C12.0833 50.0987 12.2458 49.696 12.5349 49.399C12.824 49.1021 13.2161 48.9353 13.625 48.9353H13.7098C14.0604 45.7229 15.4636 42.7283 17.6891 40.4426C19.9147 38.1569 22.8305 36.7158 25.9583 36.3557V36.2686C25.9583 35.8487 26.1208 35.446 26.4099 35.1491C26.699 34.8521 27.0911 34.6853 27.5 34.6853ZM29.0417 39.5461V41.0186C29.0412 41.4222 28.8908 41.8104 28.621 42.1038C28.3513 42.3973 27.9826 42.5738 27.5904 42.5975C27.1981 42.6211 26.8118 42.4901 26.5105 42.231C26.2092 41.972 26.0155 41.6046 25.9691 41.2039L25.9583 41.0186V39.5461C23.7195 39.8791 21.639 40.9257 20.0103 42.5382C18.3817 44.1506 17.2871 46.2476 16.881 48.5331L16.8178 48.9353H18.25C18.643 48.9358 19.0209 49.0903 19.3066 49.3673C19.5923 49.6443 19.7643 50.023 19.7873 50.4258C19.8103 50.8287 19.6827 51.2254 19.4305 51.5349C19.1783 51.8443 18.8206 52.0432 18.4304 52.0909L18.25 52.102H16.8163C17.1405 54.4013 18.1595 56.538 19.7295 58.2107C21.2996 59.8834 23.3413 61.0076 25.5668 61.4246L25.9583 61.4896V60.0186C25.9588 59.6151 26.1092 59.2269 26.379 58.9335C26.6487 58.64 27.0174 58.4634 27.4097 58.4398C27.8019 58.4161 28.1882 58.5472 28.4895 58.8062C28.7908 59.0652 28.9845 59.4326 29.0309 59.8334L29.0417 60.0186V61.4911C31.2805 61.1581 33.361 60.1116 34.9897 58.4991C36.6183 56.8867 37.7129 54.7897 38.119 52.5041L38.1822 52.102H36.75C36.3571 52.1015 35.9791 51.947 35.6934 51.67C35.4077 51.3929 35.2357 51.0143 35.2127 50.6114C35.1897 50.2086 35.3173 49.8119 35.5695 49.5024C35.8217 49.1929 36.1794 48.994 36.5696 48.9464L36.75 48.9353H38.1838C37.8595 46.636 36.8405 44.4992 35.2705 42.8265C33.7005 41.1539 31.6587 40.0297 29.4333 39.6126L29.0417 39.5477V39.5461ZM27.5 48.1436C28.1133 48.1436 28.7015 48.3939 29.1352 48.8393C29.5689 49.2847 29.8125 49.8887 29.8125 50.5186C29.8125 51.1485 29.5689 51.7526 29.1352 52.198C28.7015 52.6434 28.1133 52.8936 27.5 52.8936C26.8867 52.8936 26.2985 52.6434 25.8648 52.198C25.4311 51.7526 25.1875 51.1485 25.1875 50.5186C25.1875 49.8887 25.4311 49.2847 25.8648 48.8393C26.2985 48.3939 26.8867 48.1436 27.5 48.1436Z" fill="#374151"/>
</g>
<g clip-path="url(#clip1_454_2756)">
<path d="M95.2963 52.5757C95.5615 52.5757 95.8159 52.681 96.0034 52.8686C96.191 53.0561 96.2963 53.3105 96.2963 53.5757V53.6307C98.3252 53.8581 100.217 54.7683 101.66 56.2119C103.104 57.6555 104.014 59.5468 104.241 61.5757H104.296C104.562 61.5757 104.816 61.681 105.003 61.8686C105.191 62.0561 105.296 62.3105 105.296 62.5757C105.296 62.8409 105.191 63.0953 105.003 63.2828C104.816 63.4703 104.562 63.5757 104.296 63.5757H104.241C104.014 65.6045 103.104 67.4959 101.66 68.9395C100.217 70.3831 98.3252 71.2933 96.2963 71.5207V71.5757C96.2963 71.8409 96.191 72.0953 96.0034 72.2828C95.8159 72.4703 95.5615 72.5757 95.2963 72.5757C95.0311 72.5757 94.7768 72.4703 94.5892 72.2828C94.4017 72.0953 94.2963 71.8409 94.2963 71.5757V71.5207C92.2675 71.2933 90.3761 70.3831 88.9325 68.9395C87.4889 67.4959 86.5787 65.6045 86.3513 63.5757H86.2963C86.0311 63.5757 85.7768 63.4703 85.5892 63.2828C85.4017 63.0953 85.2963 62.8409 85.2963 62.5757C85.2963 62.3105 85.4017 62.0561 85.5892 61.8686C85.7768 61.681 86.0311 61.5757 86.2963 61.5757H86.3513C86.5787 59.5468 87.4889 57.6555 88.9325 56.2119C90.3761 54.7683 92.2675 53.8581 94.2963 53.6307V53.5757C94.2963 53.3105 94.4017 53.0561 94.5892 52.8686C94.7768 52.681 95.0311 52.5757 95.2963 52.5757ZM96.2963 55.6457V56.5757C96.296 56.8306 96.1984 57.0757 96.0235 57.2611C95.8485 57.4464 95.6094 57.5579 95.3549 57.5729C95.1005 57.5878 94.8499 57.505 94.6545 57.3414C94.459 57.1778 94.3334 56.9458 94.3033 56.6927L94.2963 56.5757V55.6457C92.8441 55.856 91.4946 56.517 90.4382 57.5354C89.3817 58.5538 88.6717 59.8782 88.4083 61.3217L88.3673 61.5757H89.2963C89.5512 61.576 89.7964 61.6736 89.9817 61.8485C90.167 62.0235 90.2786 62.2626 90.2935 62.5171C90.3084 62.7715 90.2257 63.0221 90.0621 63.2175C89.8985 63.413 89.6664 63.5386 89.4133 63.5687L89.2963 63.5757H88.3663C88.5766 65.0279 89.2376 66.3774 90.256 67.4338C91.2744 68.4903 92.5988 69.2003 94.0423 69.4637L94.2963 69.5047V68.5757C94.2966 68.3208 94.3942 68.0757 94.5692 67.8903C94.7441 67.705 94.9833 67.5934 95.2377 67.5785C95.4922 67.5636 95.7427 67.6464 95.9382 67.8099C96.1336 67.9735 96.2592 68.2056 96.2893 68.4587L96.2963 68.5757V69.5057C97.7485 69.2954 99.0981 68.6344 100.154 67.616C101.211 66.5976 101.921 65.2732 102.184 63.8297L102.225 63.5757H101.296C101.041 63.5754 100.796 63.4778 100.611 63.3028C100.426 63.1279 100.314 62.8887 100.299 62.6343C100.284 62.3798 100.367 62.1293 100.531 61.9339C100.694 61.7384 100.926 61.6128 101.179 61.5827L101.296 61.5757H102.226C102.016 60.1235 101.355 58.774 100.337 57.7175C99.3182 56.6611 97.9939 55.9511 96.5503 55.6877L96.2963 55.6467V55.6457ZM95.2963 61.0757C95.6941 61.0757 96.0757 61.2337 96.357 61.515C96.6383 61.7963 96.7963 62.1779 96.7963 62.5757C96.7963 62.9735 96.6383 63.355 96.357 63.6363C96.0757 63.9176 95.6941 64.0757 95.2963 64.0757C94.8985 64.0757 94.517 63.9176 94.2357 63.6363C93.9544 63.355 93.7963 62.9735 93.7963 62.5757C93.7963 62.1779 93.9544 61.7963 94.2357 61.515C94.517 61.2337 94.8985 61.0757 95.2963 61.0757Z" fill="#374151"/>
</g>
<g clip-path="url(#clip2_454_2756)">
<path d="M82.5 27.605C82.6658 27.605 82.8247 27.6708 82.9419 27.788C83.0592 27.9052 83.125 28.0642 83.125 28.23V28.2644C84.393 28.4065 85.5751 28.9753 86.4774 29.8776C87.3796 30.7798 87.9485 31.9619 88.0906 33.23H88.125C88.2908 33.23 88.4497 33.2958 88.5669 33.413C88.6842 33.5302 88.75 33.6892 88.75 33.855C88.75 34.0207 88.6842 34.1797 88.5669 34.2969C88.4497 34.4141 88.2908 34.48 88.125 34.48H88.0906C87.9485 35.748 87.3796 36.9301 86.4774 37.8324C85.5751 38.7346 84.393 39.3035 83.125 39.4456V39.48C83.125 39.6457 83.0592 39.8047 82.9419 39.9219C82.8247 40.0391 82.6658 40.105 82.5 40.105C82.3342 40.105 82.1753 40.0391 82.0581 39.9219C81.9408 39.8047 81.875 39.6457 81.875 39.48V39.4456C80.607 39.3035 79.4249 38.7346 78.5226 37.8324C77.6204 36.9301 77.0515 35.748 76.9094 34.48H76.875C76.7092 34.48 76.5503 34.4141 76.4331 34.2969C76.3158 34.1797 76.25 34.0207 76.25 33.855C76.25 33.6892 76.3158 33.5302 76.4331 33.413C76.5503 33.2958 76.7092 33.23 76.875 33.23H76.9094C77.0515 31.9619 77.6204 30.7798 78.5226 29.8776C79.4249 28.9753 80.607 28.4065 81.875 28.2644V28.23C81.875 28.0642 81.9408 27.9052 82.0581 27.788C82.1753 27.6708 82.3342 27.605 82.5 27.605ZM83.125 29.5237V30.105C83.1248 30.2643 83.0638 30.4175 82.9545 30.5333C82.8451 30.6492 82.6957 30.7189 82.5366 30.7282C82.3776 30.7375 82.221 30.6858 82.0989 30.5836C81.9767 30.4813 81.8982 30.3363 81.8794 30.1781L81.875 30.105V29.5237C80.9674 29.6552 80.1239 30.0683 79.4637 30.7048C78.8034 31.3413 78.3596 32.169 78.195 33.0712L78.1694 33.23H78.75C78.9093 33.2302 79.0625 33.2912 79.1784 33.4005C79.2942 33.5099 79.3639 33.6593 79.3732 33.8184C79.3826 33.9774 79.3308 34.134 79.2286 34.2561C79.1263 34.3783 78.9813 34.4568 78.8231 34.4756L78.75 34.48H78.1688C78.3002 35.3876 78.7133 36.2311 79.3498 36.8913C79.9863 37.5516 80.814 37.9953 81.7163 38.16L81.875 38.1856V37.605C81.8752 37.4457 81.9362 37.2925 82.0455 37.1766C82.1549 37.0608 82.3043 36.9911 82.4634 36.9817C82.6224 36.9724 82.779 37.0242 82.9011 37.1264C83.0233 37.2286 83.1018 37.3737 83.1206 37.5319L83.125 37.605V38.1862C84.0326 38.0548 84.8761 37.6417 85.5364 37.0052C86.1966 36.3687 86.6404 35.5409 86.805 34.6387L86.8306 34.48H86.25C86.0907 34.4798 85.9375 34.4188 85.8216 34.3095C85.7058 34.2001 85.6361 34.0506 85.6268 33.8916C85.6174 33.7326 85.6692 33.576 85.7714 33.4538C85.8737 33.3317 86.0187 33.2532 86.1769 33.2344L86.25 33.23H86.8313C86.6998 32.3223 86.2867 31.4789 85.6502 30.8186C85.0137 30.1584 84.186 29.7146 83.2837 29.55L83.125 29.5244V29.5237ZM82.5 32.9175C82.7486 32.9175 82.9871 33.0163 83.1629 33.1921C83.3387 33.3679 83.4375 33.6063 83.4375 33.855C83.4375 34.1036 83.3387 34.3421 83.1629 34.5179C82.9871 34.6937 82.7486 34.7925 82.5 34.7925C82.2514 34.7925 82.0129 34.6937 81.8371 34.5179C81.6613 34.3421 81.5625 34.1036 81.5625 33.855C81.5625 33.6063 81.6613 33.3679 81.8371 33.1921C82.0129 33.0163 82.2514 32.9175 82.5 32.9175Z" fill="#374151"/>
</g>
<path fill-rule="evenodd" clip-rule="evenodd" d="M57.4999 8.8527L15.3701 33.1763V81.8236L57.4999 106.147L99.6297 81.8236V33.1763L57.4999 8.8527ZM107.296 28.75L57.4999 0L7.70343 28.75V86.25L57.4999 115L107.296 86.25V28.75Z" fill="#FF4910"/>
<path d="M57.566 88.3641C53.7717 88.2769 49.9775 88.3205 46.1833 88.0588C39.9905 87.6227 33.7976 86.7941 27.91 84.5699C26.7325 84.1338 26.4708 83.7412 26.5581 82.5637C26.8197 79.1184 27.6484 75.8039 29.1312 72.7075C30.832 69.2185 33.3179 66.6018 36.894 65.0318C39.9468 63.6799 43.0433 62.3715 46.0961 61.0196C46.9683 60.6707 47.0555 60.7143 47.2736 61.6737C48.1458 65.4679 49.1925 69.1749 50.5881 72.8383C52.0709 76.807 53.9898 80.6012 56.0395 84.3082C56.3012 84.7879 56.6065 85.224 56.9554 85.6602C57.3915 86.1835 57.6532 86.1835 58.0457 85.6602C58.5254 85.006 58.9615 84.3082 59.354 83.6104C63.061 76.9814 65.8086 69.9163 67.5094 62.5023C67.5967 62.0662 67.7711 61.6301 67.9019 61.1504C67.9892 60.8015 68.2072 60.7143 68.5561 60.8451C70.0825 61.4993 71.6526 62.1098 73.179 62.764C74.9234 63.5054 76.6243 64.2904 78.3687 65.0754C81.7705 66.6891 84.2127 69.2622 85.8264 72.6639C87.3091 75.7603 88.1814 78.9876 88.4431 82.3893C88.5303 83.5232 88.225 84.0465 87.0911 84.4826C84.6924 85.3985 82.2502 86.0527 79.7643 86.576C73.3098 87.8844 66.768 88.2769 60.1827 88.2332C59.3104 88.2332 58.4382 88.2332 57.566 88.2332C57.566 88.3205 57.566 88.3641 57.566 88.3641Z" fill="#374151"/>
<path d="M71.5653 46.1915C71.4781 48.6774 70.5623 50.9452 69.0359 52.9513C68.4253 53.7363 67.902 54.5649 67.5095 55.4808C66.6372 57.6177 65.5033 59.6239 63.628 61.1067C58.6563 65.0317 53.4665 63.6798 49.9339 59.7111C48.7564 58.4028 48.015 56.7891 47.3172 55.1755C47.0556 54.5649 46.7503 53.9544 46.3142 53.431C44.9186 51.6429 43.9155 49.724 43.523 47.4998C43.305 46.3659 43.305 45.232 43.6539 44.1417C43.6975 44.0109 43.7411 43.8364 43.8283 43.7056C44.7441 42.6153 44.6133 41.2634 44.7005 39.955C44.8314 38.5594 44.8314 37.1202 45.093 35.7683C45.66 32.541 47.4045 30.0115 50.3264 28.4851C55.3854 25.8248 60.4444 26.1301 65.4161 28.7904C66.55 29.401 67.2478 30.404 67.6839 31.6252C68.0328 32.4974 68.4689 33.326 68.9486 34.0674C69.7773 35.3758 70.0825 36.815 70.2134 38.2978C70.3442 39.6497 70.3878 41.0453 70.5187 42.3973C70.5187 42.5717 70.6495 42.7462 70.7803 42.9206C71.3037 43.6184 71.4345 44.4034 71.5653 45.232C71.5653 45.5809 71.5653 45.8426 71.5653 46.1915Z" fill="#374151"/>
<path d="M57.3915 83.2177C56.4757 81.386 55.6034 79.6851 54.7312 77.9407C54.6004 77.679 54.6876 77.2865 54.7312 76.9812C54.9493 75.8473 55.1673 74.7134 55.3854 73.5795C55.4726 73.187 55.6471 73.0562 56.0396 73.0562C57.0862 73.0998 58.1766 73.0562 59.2232 73.0998C59.3541 73.0998 59.5285 73.2742 59.5721 73.3614C59.8338 74.5389 60.1391 75.7165 60.3571 76.9376C60.4444 77.3301 60.3571 77.8098 60.1827 78.1151C59.3541 79.7287 58.4818 81.2988 57.6532 82.8688C57.6096 82.9996 57.566 83.0432 57.3915 83.2177Z" fill="#374151"/>
<path d="M57.4788 67.0815C58.3074 67.1252 59.0924 67.1688 59.921 67.2124C60.3135 67.2124 60.4444 67.3868 60.3572 67.7793C60.1391 69.0005 59.921 70.2216 59.6594 71.4863C59.6158 71.6608 59.3541 71.9224 59.1796 71.9224C58.0457 71.9661 56.8682 71.9661 55.7343 71.9224C55.5599 71.9224 55.2982 71.6608 55.2546 71.4863C54.9929 70.2216 54.8185 68.9568 54.6004 67.6921C54.5568 67.3868 54.6876 67.2996 54.9929 67.2996C55.8215 67.2124 56.6502 67.1252 57.4788 67.0815Z" fill="#374151"/>
<g clip-path="url(#clip3_454_2756)">
<path d="M57.5 35.5217C57.7099 35.5217 57.9113 35.6095 58.0598 35.7658C58.2082 35.9221 58.2916 36.134 58.2916 36.3551V36.4009C59.8978 36.5904 61.3952 37.3489 62.538 38.5519C63.6809 39.7549 64.4014 41.331 64.5814 43.0217H64.625C64.8349 43.0217 65.0363 43.1095 65.1848 43.2658C65.3332 43.4221 65.4166 43.634 65.4166 43.8551C65.4166 44.0761 65.3332 44.288 65.1848 44.4443C65.0363 44.6006 64.8349 44.6884 64.625 44.6884H64.5814C64.4014 46.3791 63.6809 47.9552 62.538 49.1582C61.3952 50.3613 59.8978 51.1197 58.2916 51.3092V51.3551C58.2916 51.5761 58.2082 51.788 58.0598 51.9443C57.9113 52.1006 57.7099 52.1884 57.5 52.1884C57.29 52.1884 57.0887 52.1006 56.9402 51.9443C56.7917 51.788 56.7083 51.5761 56.7083 51.3551V51.3092C55.1021 51.1197 53.6048 50.3613 52.462 49.1582C51.3191 47.9552 50.5986 46.3791 50.4185 44.6884H50.375C50.165 44.6884 49.9637 44.6006 49.8152 44.4443C49.6667 44.288 49.5833 44.0761 49.5833 43.8551C49.5833 43.634 49.6667 43.4221 49.8152 43.2658C49.9637 43.1095 50.165 43.0217 50.375 43.0217H50.4185C50.5986 41.331 51.3191 39.7549 52.462 38.5519C53.6048 37.3489 55.1021 36.5904 56.7083 36.4009V36.3551C56.7083 36.134 56.7917 35.9221 56.9402 35.7658C57.0887 35.6095 57.29 35.5217 57.5 35.5217ZM58.2916 38.0801V38.8551C58.2914 39.0675 58.2142 39.2718 58.0756 39.4262C57.9371 39.5806 57.7478 39.6736 57.5464 39.686C57.3449 39.6985 57.1466 39.6295 56.9919 39.4932C56.8371 39.3568 56.7377 39.1635 56.7139 38.9526L56.7083 38.8551V38.0801C55.5586 38.2553 54.4903 38.8062 53.6539 39.6548C52.8176 40.5035 52.2555 41.6071 52.047 42.8101L52.0145 43.0217H52.75C52.9518 43.022 53.1458 43.1033 53.2926 43.2491C53.4393 43.3949 53.5276 43.5942 53.5394 43.8062C53.5512 44.0183 53.4857 44.227 53.3562 44.3899C53.2267 44.5528 53.043 44.6575 52.8426 44.6826L52.75 44.6884H52.0137C52.1802 45.8986 52.7035 47.0232 53.5097 47.9035C54.316 48.7839 55.3644 49.3756 56.5072 49.5951L56.7083 49.6292V48.8551C56.7085 48.6427 56.7858 48.4384 56.9243 48.2839C57.0628 48.1295 57.2522 48.0365 57.4536 48.0241C57.655 48.0116 57.8534 48.0806 58.0081 48.2169C58.1628 48.3533 58.2623 48.5466 58.2861 48.7576L58.2916 48.8551V49.6301C59.4413 49.4548 60.5097 48.904 61.346 48.0553C62.1824 47.2067 62.7444 46.103 62.953 44.9001L62.9854 44.6884H62.25C62.0482 44.6882 61.8541 44.6068 61.7074 44.461C61.5607 44.3152 61.4724 44.1159 61.4606 43.9039C61.4487 43.6919 61.5143 43.4831 61.6438 43.3202C61.7733 43.1573 61.957 43.0526 62.1574 43.0276L62.25 43.0217H62.9862C62.8197 41.8116 62.2964 40.687 61.4902 39.8066C60.684 38.9262 59.6355 38.3346 58.4927 38.1151L58.2916 38.0809V38.0801ZM57.5 42.6051C57.8149 42.6051 58.117 42.7368 58.3397 42.9712C58.5624 43.2056 58.6875 43.5235 58.6875 43.8551C58.6875 44.1866 58.5624 44.5045 58.3397 44.7389C58.117 44.9734 57.8149 45.1051 57.5 45.1051C57.185 45.1051 56.883 44.9734 56.6603 44.7389C56.4376 44.5045 56.3125 44.1866 56.3125 43.8551C56.3125 43.5235 56.4376 43.2056 56.6603 42.9712C56.883 42.7368 57.185 42.6051 57.5 42.6051Z" fill="white"/>
</g>
<path fill-rule="evenodd" clip-rule="evenodd" d="M7.70343 76.2834V86.2501L57.4999 115L107.296 86.2501V76.2834H99.6297V81.8238L57.4999 106.147L15.3701 81.8238V76.2834H7.70343Z" fill="#FF4910"/>
<defs>
<clipPath id="clip0_454_2756">
<rect width="37" height="38" fill="white" transform="translate(9 31.5186)"/>
</clipPath>
<clipPath id="clip1_454_2756">
<rect width="24" height="24" fill="white" transform="translate(83.2963 50.5757)"/>
</clipPath>
<clipPath id="clip2_454_2756">
<rect width="15" height="15" fill="white" transform="translate(75 26.355)"/>
</clipPath>
<clipPath id="clip3_454_2756">
<rect width="19" height="20" fill="white" transform="translate(48 33.855)"/>
</clipPath>
</defs>
</svg>
