<svg width="115" height="115" viewBox="0 0 115 115" fill="none" xmlns="http://www.w3.org/2000/svg">
<path d="M57.4998 0L107.296 28.75V86.25L57.4998 115L7.70337 86.25V28.75L57.4998 0Z" fill="white"/>
<path fill-rule="evenodd" clip-rule="evenodd" d="M57.4998 8.8527L15.37 33.1763V81.8236L57.4998 106.147L99.6296 81.8236V33.1763L57.4998 8.8527ZM107.296 28.75L57.4998 0L7.70337 28.75V86.25L57.4998 115L107.296 86.25V28.75Z" fill="#FF4910"/>
<path d="M91.6039 51.4443C91.7941 52.1023 92.128 52.6768 92.4017 53.4783C95.2358 60.6692 93.5845 68.7376 88.4336 74.4208C86.9004 76.0803 85.2003 77.4526 83.1896 78.6211C76.2957 82.6274 69.5455 86.5503 62.6516 90.5567C62.2208 90.8071 62.2208 90.8071 62.4712 91.2379C63.7231 93.3922 64.8917 95.403 66.1436 97.5573C66.2271 97.7009 66.2271 97.7009 66.394 97.9881C59.5679 97.152 52.8252 96.4594 45.999 95.6232C48.6519 89.2783 51.2446 83.1605 53.8975 76.8156C53.981 76.9592 54.0644 77.1028 54.1479 77.2464C55.3999 79.4008 56.5684 81.4115 57.8204 83.5658C57.9873 83.8531 58.0708 83.9967 58.358 83.8297C65.2519 79.8234 72.2894 75.7336 79.1832 71.7272C84.4972 68.639 86.7794 62.3174 84.5529 56.5026C83.8386 54.6122 82.6934 52.9722 80.9737 51.6661C80.8902 51.5225 80.6631 51.4623 80.8669 51.1518C81.9828 48.7741 82.8716 46.3363 83.9875 43.9587C83.9875 43.9587 83.9875 43.9587 84.0476 43.7316C84.1311 43.8752 84.2747 43.7918 84.3582 43.9354C86.5321 45.3618 88.5856 47.2424 90.0647 49.4569C90.1481 49.6005 90.1481 49.6005 90.2316 49.7442C90.6858 49.8645 91.1866 50.7262 91.6039 51.4443Z" fill="#374151"/>
<path d="M67.9998 19.2557C65.3469 25.6006 62.6106 31.8019 59.9577 38.1468C59.8742 38.0032 59.7908 37.8596 59.7073 37.716C58.4553 35.5616 57.2868 33.5509 56.0348 31.3966C55.8679 31.1094 55.6408 31.0492 55.3536 31.2161C48.4597 35.2225 41.4222 39.3123 34.5284 43.3186C29.2144 46.4068 27.0157 52.8721 29.3023 58.4598C30.0167 60.3502 31.1619 61.9902 32.8816 63.2963C32.965 63.4399 33.1921 63.5001 33.132 63.7272C32.0161 66.1048 31.1273 68.5426 30.0948 71.0639C30.0948 71.0639 30.0948 71.0639 30.0347 71.291C29.3301 70.7398 28.709 70.3322 28.0879 69.9247C21.3294 64.246 18.833 55.3219 21.74 47.1001C23.0733 43.4434 25.1945 40.4815 28.2474 38.1309C29.1693 37.4031 30.1747 36.8188 31.0364 36.318C37.7866 32.3951 44.6805 28.3888 51.4307 24.4659C51.8616 24.2155 51.8616 24.2155 51.6112 23.7846C50.4426 21.7739 49.1907 19.6196 48.0221 17.6089C47.9387 17.4653 47.8552 17.3217 47.7718 17.178C54.4911 17.4999 61.1737 18.4196 67.9998 19.2557Z" fill="#374151"/>
<path fill-rule="evenodd" clip-rule="evenodd" d="M7.70337 76.2834V86.2501L57.4998 115L107.296 86.2501V76.2834H99.6296V81.8238L57.4998 106.147L15.37 81.8238V76.2834H7.70337Z" fill="#FF4910"/>
<path fill-rule="evenodd" clip-rule="evenodd" d="M57.5 73C66.0604 73 73 66.0604 73 57.5C73 48.9396 66.0604 42 57.5 42C48.9396 42 42 48.9396 42 57.5C42 66.0604 48.9396 73 57.5 73ZM56.2396 64.5028V65.0609C56.2396 65.5259 56.6117 65.8979 57.0767 65.8979H57.5417C57.9137 65.8979 58.2858 65.6189 58.3788 65.3399C58.4718 65.1539 58.4718 64.9678 58.4718 64.7818C58.4718 64.5958 58.4718 64.5028 58.6578 64.5028C59.0298 64.4098 59.3088 64.3168 59.5879 64.2238C62.285 63.1077 62.9361 59.7595 61.541 57.7134C60.7969 56.5973 59.6809 56.1323 58.4718 55.8532C57.6347 55.6672 56.7977 55.4812 56.0536 55.2022C54.5655 54.6442 54.3795 52.97 54.9375 52.04C55.4026 51.2959 56.0536 50.9239 56.9837 50.8309C57.9137 50.7379 58.9368 51.1099 59.4018 52.133C59.7739 52.97 60.0529 53.063 60.9829 52.877C61.541 52.784 61.82 52.226 61.634 51.761C61.355 51.0169 60.983 50.4589 60.3319 49.9938C59.7739 49.5288 59.1228 49.2498 58.3788 49.1568C58.2858 47.8547 58.0998 47.5757 57.3557 47.5757C57.0767 47.5757 56.7047 47.6687 56.4256 47.7617C56.025 48.0021 56.0386 48.5186 56.05 48.9544C56.0518 49.0244 56.0536 49.0924 56.0536 49.1568C55.9313 49.1976 55.8268 49.2205 55.7324 49.2412C55.6115 49.2677 55.507 49.2906 55.4026 49.3428C53.6355 49.9938 52.6124 51.2959 52.5194 53.1561C52.4264 54.2721 52.7054 55.2022 53.4494 56.0392C54.1005 56.7833 55.0305 57.1553 55.9606 57.4343C56.3326 57.5739 56.7279 57.6669 57.1232 57.7599C57.5185 57.8529 57.9137 57.9459 58.2858 58.0854C59.5879 58.5504 60.1459 59.5735 59.8669 60.9686C59.4949 62.7357 57.3557 63.4797 55.8676 62.6427C55.1236 62.2707 54.7515 61.6196 54.5655 60.8756C54.4725 60.5035 54.2865 60.1315 53.8215 60.1315C53.5425 60.1315 53.1704 60.2245 52.8914 60.3175C52.5194 60.4105 52.3334 60.8756 52.3334 61.1546C52.5194 61.9916 52.7984 62.7357 53.3564 63.3867C54.1935 63.8518 55.1236 64.2238 56.2396 64.5028Z" fill="#374151"/>
</svg>
