<svg width="115" height="115" viewBox="0 0 115 115" fill="none" xmlns="http://www.w3.org/2000/svg">
<path d="M57.4998 0L107.296 28.75V86.25L57.4998 115L7.70337 86.25V28.75L57.4998 0Z" fill="white"/>
<path fill-rule="evenodd" clip-rule="evenodd" d="M57.4998 8.8527L15.37 33.1763V81.8236L57.4998 106.147L99.6296 81.8236V33.1763L57.4998 8.8527ZM107.296 28.75L57.4998 0L7.70337 28.75V86.25L57.4998 115L107.296 86.25V28.75Z" fill="#FF4910"/>
<path d="M17.3724 48.6112C17.2793 47.6802 17.0931 46.7491 17.0931 45.725C17 44.2353 17 42.8388 17 41.3491C17 40.5112 17.1862 39.7664 17.3724 38.9284C17.5586 37.9974 17.7448 37.0664 17.931 36.1353C18.0241 35.5767 18.1172 35.0181 18.3034 34.4595C18.4897 33.7147 18.769 33.0629 19.0483 32.3181C19.3276 31.6664 19.5138 31.0147 19.7931 30.456C20.0724 29.8043 20.4448 29.1526 20.8172 28.594C21.469 27.5698 22.1207 26.4526 22.8655 25.5216C23.9828 24.2181 25.1 22.8216 26.3103 21.7043C27.3345 20.7733 28.4517 19.9353 29.569 19.0974C30.5 18.4457 31.431 17.8871 32.4552 17.4216C33.5724 16.8629 34.5965 16.3043 35.8069 15.9319C36.5517 15.6526 37.3896 15.4664 38.2276 15.2802C39.2517 15.0009 40.2759 14.6284 41.3 14.4422C42.5103 14.256 43.8138 14.1629 45.0241 14.0698C46.4207 13.9767 47.7241 13.9767 49.1207 14.0698C50.0517 14.1629 50.8896 14.4422 51.8207 14.6285C52.3793 14.7216 52.8448 14.8147 53.4034 15.0009C54.3345 15.1871 55.3586 15.3733 56.2896 15.6526C57.4069 16.025 58.5241 16.5836 59.6414 17.0491C60.5724 17.4216 61.5034 17.8871 62.4345 18.3526C63.3655 18.8181 64.2034 19.3767 65.0414 19.9353C66.2517 20.7733 67.3689 21.6112 68.4862 22.6353C69.4172 23.4733 70.3483 24.3112 71.1862 25.2422C72.2103 26.4526 73.2345 27.8491 74.1655 29.1526C75.0034 30.2698 75.8414 31.4802 76.5862 32.5974C77.5172 33.9009 78.4482 35.2043 79.3793 36.6009C79.9379 37.3457 80.4034 37.9974 80.9621 38.7422C81.0552 38.9284 80.962 39.3009 80.8689 39.394C79.4724 40.6974 77.9827 41.9078 76.5862 43.2112C75.6551 44.0491 74.8172 44.8871 73.8862 45.725C72.7689 46.7491 71.5586 47.8664 70.4414 48.8905C69.6965 49.6353 68.8586 50.2871 68.0207 51.0319C67.9276 51.125 67.462 51.0319 67.2758 50.9388C66.9034 50.4733 66.6241 49.9146 66.2517 49.4491C65.3207 48.1457 64.2965 46.8422 63.3655 45.5388C62.4345 44.3284 61.6896 43.025 60.7586 41.7215C59.9207 40.5112 58.8965 39.4871 58.1517 38.1836C57.4069 36.8802 56.2896 36.1353 55.2655 35.2974C54.3345 34.5526 53.2172 34.1802 52.1 33.6215C50.331 32.6905 48.3759 32.3181 46.3276 32.4112C45.6759 32.4112 44.931 32.3181 44.3724 32.5043C43.5345 32.6905 42.6034 32.9698 41.7655 33.3422C40.7414 33.8078 39.8103 34.3664 38.9724 34.925C37.9483 35.6698 37.1103 36.7871 36.6448 37.9974C36.2724 38.9284 35.9 39.8595 35.5276 40.7905V40.8836C35.4345 42.094 35.1552 43.3974 35.2483 44.6078C35.3414 45.8181 35.7138 47.0284 36.0862 48.1457C36.4586 49.2629 36.9241 50.3802 37.3897 51.4043C37.669 51.9629 38.1345 52.4284 38.5069 52.9871C39.531 54.6629 41.2069 55.594 42.5103 56.8974C43.7207 58.0146 45.0241 59.0388 46.2345 60.156C47.4448 61.1802 48.5621 62.2974 49.7724 63.3215C50.331 63.7871 50.8896 64.3457 51.4483 64.7181C52.1 65.1836 51.9138 65.556 51.4483 65.9284C49.8655 67.4181 48.1896 68.9077 46.6069 70.3974C45.4896 71.4215 44.4655 72.3526 43.3483 73.2836C41.8586 74.5871 40.369 75.7974 38.9724 77.194C38.4138 77.7526 38.2276 77.3802 37.8552 77.0077C37.2034 76.4491 36.5517 75.8905 35.9 75.3319C35.2483 74.7733 34.5965 74.1215 33.9448 73.4698C32.8276 72.4457 31.6172 71.5146 30.5 70.4905C28.6379 68.7215 26.6828 67.0457 24.9138 65.1836C24.0759 64.3457 23.6103 63.3215 22.9586 62.2974C22.4 61.4595 21.7483 60.6215 21.1897 59.6905C20.7241 58.8526 20.2586 57.8284 19.8862 56.8974C19.5138 55.9664 19.1414 55.0353 18.769 54.1043C18.5828 53.7319 18.4897 53.3595 18.3966 52.9871C18.1172 51.9629 17.931 50.9388 17.7448 49.8215C17.6517 49.356 17.4655 48.8905 17.3724 48.425C17.2793 48.7043 17.2793 48.6112 17.3724 48.6112Z" fill="#374151"/>
<path d="M74.631 60.8078C74.5379 60.7147 74.3517 60.7147 74.2586 60.6216C73.2344 59.225 72.2103 57.8285 71.1862 56.4319C70.4413 55.4078 69.6965 54.3836 69.0448 53.3595C68.9517 53.2664 69.0448 52.894 69.1379 52.7078C70.6275 51.3112 72.1172 49.9147 73.6069 48.5181C75.3758 46.9354 77.0517 45.2595 78.7275 43.6768C79.7517 42.7457 80.7758 41.8147 81.8 40.8837C81.8931 40.7905 82.4517 40.9768 82.6379 41.163C83.1034 41.7216 83.5689 42.3733 83.9413 43.025C84.5931 43.9561 85.3379 44.9802 85.9896 45.9112C86.5482 46.6561 86.9206 47.494 87.5724 48.0526C88.2241 48.7043 87.6655 48.9836 87.3862 49.263C86.2689 50.3802 84.9655 51.4043 83.8482 52.5216C82.8241 53.4526 81.8 54.3836 80.7758 55.3147C79.7517 56.2457 78.7276 57.1767 77.7034 58.1078C76.7724 58.9457 75.9344 59.6905 75.0034 60.5285C74.9103 60.8078 74.7241 60.8078 74.631 60.8078Z" fill="#374151"/>
<path d="M53.7759 66.8594C54.1483 67.1387 54.5207 67.5111 54.9862 67.7904C56.0104 68.6283 57.0345 69.5594 58.0586 70.4904C58.9897 71.3283 59.9207 72.1663 60.8517 73.0042C60.9448 73.0973 60.9448 73.2835 60.8517 73.3766C59.6414 74.4939 58.431 75.6111 57.1276 76.7283C55.8241 77.9387 54.4276 79.2421 53.1241 80.4525C52.0069 81.4766 50.9828 82.4076 49.8655 83.4318C49.1207 84.0835 48.469 84.7352 47.7242 85.2938C47.0724 85.8525 46.9793 85.0145 46.7 84.8283C45.5828 83.9904 44.5586 83.0594 43.5345 82.1283C42.6966 81.3835 41.9517 80.6387 41.1138 79.8939C40.8345 79.6145 40.2759 79.2421 40.2759 79.0559C40.4621 78.5904 40.8345 78.3111 41.2069 77.9387C42.5104 76.7283 43.8138 75.6111 45.1173 74.4008C46.6069 73.0973 48.0966 71.7939 49.5862 70.4904C50.4242 69.7456 51.169 69.0008 51.9138 68.2559C52.3793 67.7904 52.9379 67.3249 53.4966 66.8594C53.4966 66.8594 53.5897 66.8594 53.7759 66.8594Z" fill="#374151"/>
<path d="M64.1103 92.0907C64.1103 91.532 64.1103 91.0665 64.1103 90.5079C64.1103 89.4838 64.6689 88.9251 65.6931 88.9251C65.9724 88.9251 66.2517 88.9251 66.4379 88.9251C66.531 88.9251 66.7172 88.832 66.7172 88.6458C66.7172 88.5527 66.6241 88.3665 66.531 88.3665C65.2276 87.8079 65.1345 85.5734 66.2517 84.6424C66.8103 84.1769 68.3931 83.8976 68.7655 84.1769C69.8827 84.9217 70.4414 86.132 69.9758 87.1562C69.7896 87.6217 69.3241 87.901 69.0448 88.3665C68.9517 88.4596 68.8586 88.6458 68.9517 88.7389C68.9517 88.832 69.1379 88.9251 69.231 88.9251C69.5103 88.9251 69.7896 88.9251 70.0689 88.9251C70.9069 88.9251 71.5586 89.4838 71.5586 90.3217C71.5586 91.532 71.5586 92.7424 71.5586 93.9527C71.5586 94.0458 71.3724 94.232 71.1862 94.232C69.6034 94.232 68.0207 94.232 66.4379 94.232C65.7862 94.232 65.1345 94.3251 64.4827 94.3251C64.2965 94.3251 64.0172 94.0458 64.0172 93.8596C64.1103 93.301 64.1103 92.6493 64.1103 92.0907Z" fill="#374151"/>
<path d="M88.7828 90.694C87.7586 90.694 86.7345 90.694 85.7103 90.694C85.5241 90.694 85.1517 90.3216 85.1517 90.1354C85.0586 88.925 85.1517 87.8078 85.1517 86.5975C85.1517 85.7595 85.7104 85.2009 86.5483 85.2009C86.8276 85.2009 87.1069 85.2009 87.3862 85.2009C87.4793 85.2009 87.6655 85.0147 87.6655 84.9216C87.6655 84.8285 87.5724 84.6423 87.4793 84.6423C86.9207 84.4561 86.3621 83.1526 86.4552 82.5009C86.6414 81.3837 87.7586 80.4526 88.8759 80.4526C89.9 80.4526 90.6448 81.1975 91.0172 82.1285C91.3896 83.0595 90.831 83.6182 90.6448 84.363C90.4586 84.5492 90.2724 84.8285 90.0862 85.0147C90.4586 85.1078 90.831 85.2009 91.2035 85.2009C92.1345 85.2009 92.6 85.6664 92.6 86.5975C92.6 87.8078 92.6 89.0182 92.6 90.1354C92.6 90.3216 92.3207 90.6009 92.1345 90.6009C90.9241 90.7871 89.8069 90.694 88.7828 90.694Z" fill="#374151"/>
<path d="M88.8757 76.3559C87.8516 76.3559 86.7344 76.3559 85.7102 76.3559C85.3378 76.3559 85.1516 76.2628 85.1516 75.7973C85.1516 74.7731 85.1516 73.6559 85.1516 72.6318C85.1516 71.3283 85.6171 70.9559 86.8275 70.9559C87.1068 70.9559 87.3861 70.8628 87.5723 70.7697C87.4792 70.5835 87.3861 70.2111 87.1999 70.118C85.9895 69.0938 86.2688 67.3249 87.3861 66.58C88.5964 65.7421 90.4585 65.9283 91.0171 67.7904C91.3895 69.0007 90.924 69.6525 90.0861 70.3973C89.993 70.4904 89.8999 70.6766 89.8068 70.8628C89.993 70.9559 90.2723 70.9559 90.4585 71.049C91.0171 71.1421 91.5757 71.2352 92.0413 71.4214C92.2275 71.5145 92.4137 71.98 92.4137 72.2593C92.4137 73.5628 92.4137 74.7731 92.4137 76.0766C92.4137 76.1697 92.1344 76.449 92.0413 76.449C91.0171 76.3559 89.8999 76.3559 88.8757 76.3559Z" fill="#374151"/>
<path d="M54.2414 91.2525C53.2172 91.2525 52.1 91.2525 51.0759 91.2525C50.8897 91.2525 50.6104 90.9732 50.6104 90.8801C50.6104 89.7629 50.6104 88.6456 50.7035 87.5284C50.7966 85.7594 51.3552 85.7594 52.6586 85.7594C52.8448 85.7594 53.1241 85.6663 53.3103 85.5732C53.1241 85.387 53.031 85.2939 52.8448 85.1077C52.3793 84.7353 52.1 84.3629 52.1 83.7112C52.1 82.8732 52.1 82.2215 52.7517 81.5698C53.7759 80.6387 55.5448 80.8249 56.2897 82.0353C56.8483 82.9663 56.7552 84.2698 56.0104 85.0146C55.9172 85.1077 55.731 85.1077 55.6379 85.2008C55.5448 85.2939 55.3586 85.387 55.4517 85.4801C55.4517 85.5732 55.6379 85.7594 55.731 85.7594C56.0104 85.7594 56.2897 85.7594 56.569 85.7594C57.3138 85.7594 58.0586 86.2249 57.9655 87.0629C57.8724 88.1801 57.9655 89.3905 57.9655 90.5077C57.9655 90.9732 57.8724 91.1594 57.3138 91.1594C56.2897 91.2525 55.2655 91.2525 54.2414 91.2525Z" fill="#374151"/>
<path d="M77.7966 85.5732C76.8655 85.5732 75.8414 85.5732 74.9104 85.5732C74.2586 85.5732 74.1655 85.387 74.1655 84.8284C74.1655 83.7112 74.1655 82.687 74.1655 81.5698C74.1655 80.7319 74.8172 80.0801 75.6552 80.0801C76.0276 80.0801 76.4 79.987 76.7724 79.987C76.4931 79.8008 76.2138 79.6146 76.1207 79.3353C75.8414 78.7767 75.5621 78.3112 75.469 77.7526C75.3759 76.7284 76.4931 75.6112 77.6104 75.5181C78.4483 75.5181 79.1931 75.5181 79.7517 76.2629C80.4966 77.4732 80.4966 78.4043 79.3793 79.7077C79.2862 79.8008 79.2862 79.8939 79.1931 79.987C79.2862 80.0801 79.4724 80.0801 79.5655 80.1732C79.9379 80.2663 80.4034 80.2663 80.7759 80.3594C81.7069 80.6388 81.6138 81.3836 81.6138 82.1284C81.6138 83.0594 81.6138 84.0836 81.6138 85.0146C81.6138 85.4801 81.5207 85.6663 81.0552 85.5732C79.8448 85.5732 78.8207 85.5732 77.7966 85.5732Z" fill="#374151"/>
<path d="M65.6932 80.3596C64.669 80.3596 63.6449 80.3596 62.6207 80.3596C62.2483 80.3596 62.0621 80.2665 62.0621 79.8009C62.0621 78.6837 62.0621 77.5665 62.0621 76.5423C62.0621 75.6113 62.7139 74.9596 63.6449 74.9596C64.0173 74.9596 64.2966 74.8665 64.669 74.8665C64.4828 74.6803 64.2966 74.401 64.1104 74.2147C63.1794 73.4699 63.3656 72.4458 63.6449 71.6079C63.9242 70.6768 64.7621 70.3044 65.7863 70.3044C65.8794 70.3044 65.9725 70.3044 65.9725 70.3044C65.8794 70.3044 65.8794 70.3044 65.7863 70.2113C65.6932 70.2113 65.6001 70.2113 65.507 70.2113C65.6001 70.2113 65.6932 70.1182 65.8794 70.2113C67.369 70.5837 68.6725 71.6079 67.9277 73.4699C67.7414 73.8423 67.369 74.1216 67.0897 74.4941C66.9966 74.5872 66.9035 74.7734 66.9035 74.8665C66.9035 74.9596 67.0897 75.0527 67.1828 75.0527C67.7414 75.1458 68.3001 75.1458 68.8587 75.4251C69.138 75.6113 69.4173 76.0768 69.4173 76.4492C69.5104 77.6596 69.4173 78.8699 69.4173 80.0803C69.4173 80.2665 69.138 80.5458 68.9518 80.5458C67.7414 80.3596 66.7173 80.3596 65.6932 80.3596Z" fill="#374151"/>
<path d="M78.2621 65.3699C78.4483 65.463 78.6345 65.6492 78.9138 65.6492C79.5655 65.6492 80.2173 65.6492 80.869 65.6492C81.4276 65.6492 81.8 66.0216 81.8 66.6733C81.8 67.9768 81.8 69.1871 81.8 70.4906C81.8 70.9561 81.7069 71.1423 81.1483 71.1423C79.1 71.1423 77.0518 71.1423 75.0035 71.1423C74.8173 71.1423 74.538 70.863 74.538 70.6768C74.538 69.4664 74.538 68.2561 74.538 67.0457C74.538 66.3009 75.0035 65.9285 75.6552 65.8354C76.3069 65.7423 77.0518 65.8354 77.7966 65.8354C77.8897 65.6492 78.0759 65.463 78.2621 65.3699Z" fill="#374151"/>
<path d="M88.4103 61.3665C87.3862 61.3665 86.3621 61.3665 85.3379 61.3665C85.1517 61.3665 84.7793 61.0872 84.7793 60.901C84.7793 59.5975 84.7793 58.2941 84.7793 56.9906C84.7793 56.3389 85.2448 56.0596 85.7103 56.0596C87.4793 55.9665 89.2483 55.9665 91.0172 56.0596C91.6689 56.0596 92.1345 56.432 92.1345 57.1768C92.1345 58.3872 92.1345 59.5975 92.1345 60.8079C92.1345 61.2734 91.9483 61.4596 91.5758 61.3665C90.5517 61.3665 89.5276 61.3665 88.4103 61.3665Z" fill="#374151"/>
<path d="M78.262 65.3697C77.7965 65.1835 77.331 64.9973 76.9586 64.718C76.6793 64.5318 76.4931 64.2525 76.3069 63.8801C76.1207 63.6008 75.9345 63.2284 76.0276 63.0422C76.2138 62.4835 76.4 61.7387 76.8655 61.4594C77.7965 60.8077 78.8207 60.8077 79.6586 61.6456C80.4965 62.4835 80.3103 64.2525 79.1931 64.8111C78.9138 64.9042 78.5414 65.1835 78.262 65.3697Z" fill="#374151"/>
<path d="M88.5035 55.3145C87.2931 55.5007 86.269 54.4766 86.3621 53.3593C86.3621 52.0559 87.2 51.311 88.5966 51.311C89.6207 51.311 90.6449 52.3352 90.6449 53.3593C90.6449 54.4766 89.7138 55.3145 88.5035 55.3145Z" fill="#374151"/>
<path fill-rule="evenodd" clip-rule="evenodd" d="M7.70337 76.2834V86.2501L57.4998 115L107.296 86.2501V76.2834H99.6296V81.8238L57.4998 106.147L15.37 81.8238V76.2834H7.70337Z" fill="#FF4910"/>
</svg>
