<svg width="115" height="115" viewBox="0 0 115 115" fill="none" xmlns="http://www.w3.org/2000/svg">
<path d="M57.4999 0L107.296 28.75V86.25L57.4999 115L7.70343 86.25V28.75L57.4999 0Z" fill="white"/>
<path fill-rule="evenodd" clip-rule="evenodd" d="M57.4999 8.8527L15.3701 33.1763V81.8236L57.4999 106.147L99.6297 81.8236V33.1763L57.4999 8.8527ZM107.296 28.75L57.4999 0L7.70343 28.75V86.25L57.4999 115L107.296 86.25V28.75Z" fill="#FF4910"/>
<path fill-rule="evenodd" clip-rule="evenodd" d="M7.70343 76.2834V86.2501L57.4999 115L107.296 86.2501V76.2834H99.6297V81.8238L57.4999 106.147L15.3701 81.8238V76.2834H7.70343Z" fill="#FF4910"/>
<path d="M42.4183 81.1396C42.166 81.2657 41.9138 81.3919 41.6615 81.3919C38.2557 81.7703 34.7238 82.0226 31.3181 81.6441C27.1555 81.2657 23.2452 80.2566 19.461 78.3645C18.4519 77.86 17.8212 77.1031 17.8212 75.8418C17.8212 74.5804 17.8212 73.319 18.1996 72.1837C18.7042 70.6701 19.9656 69.661 21.3531 69.0303C23.2452 68.0211 25.2634 67.6427 27.4078 67.1382C28.1646 67.012 28.9214 66.6336 29.5521 66.2552C30.6874 65.6245 31.0658 64.4893 30.309 63.354C29.426 61.9665 28.7953 60.4528 28.4169 58.813C28.4169 58.5607 28.1646 58.3085 27.9123 58.1823C27.1555 57.4255 26.7771 56.5425 26.3987 55.6595C26.1464 54.7766 26.2725 54.5243 27.0294 54.272C27.0294 53.0106 26.7771 51.7492 26.9032 50.4878C27.1555 46.956 29.1737 45.0639 32.5795 44.5593C34.0931 44.307 35.7329 44.4332 37.1205 45.0639C37.2466 45.19 37.4989 45.19 37.4989 45.3162C34.2193 53.6413 35.1023 61.3358 40.5262 68.6518C40.4001 68.9041 40.2739 69.1564 40.0217 69.2825C38.8864 70.4178 38.3819 71.6792 38.2557 73.1928C38.0035 74.9588 38.0034 76.5986 38.508 78.3645C38.7603 79.1214 39.1387 79.6259 39.7694 80.0043C40.6524 80.2566 41.4092 80.635 42.4183 81.1396Z" fill="#374151"/>
<path d="M58.0595 73.9498C56.0413 73.8237 54.0231 73.8237 52.0049 73.193C45.6979 71.0486 41.2831 66.886 39.0126 60.5791C38.2557 58.4347 37.8773 56.2904 38.0035 54.146C38.1296 50.3618 39.0126 46.8299 41.2831 43.8026C44.5627 39.1355 48.9775 35.982 54.9061 35.099C56.672 34.8467 58.3118 34.9729 60.0778 35.099C62.979 35.3513 65.754 36.3604 68.2768 38.0002C73.1962 41.2798 76.3497 45.8208 77.1065 51.6232C78.1156 59.4438 75.3406 65.8769 68.9075 70.544C66.5108 72.31 63.7358 73.4452 60.7085 73.8237C59.8255 73.9498 58.9425 73.9498 58.0595 73.9498ZM57.6811 37.3695C50.1128 37.3695 40.7785 43.5503 40.9046 54.2721C40.9046 63.7325 48.473 71.3009 57.9334 71.3009C66.5108 71.3009 74.836 64.2371 74.7099 54.3983C74.7099 44.0549 66.637 37.6218 57.6811 37.3695Z" fill="#374151"/>
<path d="M88.459 54.1459C88.7113 54.1459 88.8374 54.1459 88.9636 54.1459C88.9636 54.2721 88.9636 54.2721 88.9636 54.2721C88.8374 54.9028 88.8374 55.6596 88.7113 56.2903C88.5852 56.7948 88.3329 57.1733 87.9545 57.5517C87.4499 58.0562 87.1976 58.6869 87.0715 59.3176C86.8192 60.8313 86.3147 62.345 85.3056 63.6063C84.801 64.237 85.0533 65.12 85.684 65.6246C86.5669 66.3814 87.5761 66.6337 88.5852 66.886C90.225 67.3905 91.8648 67.7689 93.3784 68.2735C94.6398 68.6519 95.7751 69.4087 96.5319 70.4178C97.1626 71.1747 97.541 72.0576 97.6672 73.0668C97.7933 74.0759 97.6672 75.085 97.6672 76.0941C97.6672 76.7248 97.4149 77.3555 96.9103 77.7339C96.0274 78.2384 95.1444 78.743 94.2614 79.1214C94.1353 79.2476 93.7569 79.1214 93.6307 78.9953C89.7204 75.085 85.8101 71.1747 81.8998 67.2644C80.7645 66.1291 79.377 65.2461 77.7372 65.12C76.9804 65.12 76.9804 64.8677 77.2327 64.237C78.7463 61.3358 79.5032 58.3085 79.6293 55.0289C79.7555 51.8754 79.2509 48.722 77.8634 45.6946C77.6111 45.3162 77.485 44.8117 77.3588 44.3071C79.2509 43.9287 81.0168 43.9287 82.7828 44.8117C83.5396 45.1901 84.4226 45.4423 85.1794 45.8208C86.9454 46.5776 87.9545 47.9651 88.2067 49.8572C88.3329 50.9925 88.3329 52.2538 88.3329 53.3891C88.459 53.7675 88.459 53.8937 88.459 54.1459Z" fill="#374151"/>
<path d="M71.8087 72.6884C70.7996 71.8054 70.7996 71.5532 71.6825 70.6702C72.6916 69.6611 73.8269 68.652 74.836 67.6428C75.3406 67.1383 75.5928 66.886 76.2235 67.5167C76.4758 67.6429 76.8542 67.769 77.1065 67.769C78.1156 67.5167 78.8724 67.8951 79.5031 68.5258C81.5214 70.4179 83.4134 72.31 85.4317 74.2021C88.5851 77.2294 91.6125 80.3829 94.6398 83.4102C96.0273 84.7977 96.1535 86.816 94.766 88.4558C93.883 89.4649 92.8739 90.3478 91.8648 91.1047C90.8556 91.9876 88.7113 91.8615 87.576 90.7263C84.4225 87.5728 81.2691 84.4193 78.1156 81.1397C76.4758 79.4999 74.836 77.9862 73.3223 76.3464C72.8178 75.8419 72.3132 75.2112 71.9348 74.5805C71.4303 73.9498 71.4302 73.3191 71.8087 72.6884Z" fill="#374151"/>
<path d="M38.508 31.0626C38.3819 29.9274 38.2557 28.7921 38.2557 27.5307C38.2557 23.9989 41.0308 21.2238 44.6888 21.0977C46.5809 21.0977 48.3468 21.2238 49.9866 22.2329C50.2389 22.359 50.4912 22.4852 50.7435 22.4852C52.8878 23.1159 54.2754 24.8818 54.4015 27.0262C54.5276 28.2876 54.4015 29.549 54.4015 30.8103C54.5276 30.8103 54.6538 30.9365 54.906 30.9365C54.906 31.441 54.906 31.8195 54.906 32.324C52.2571 32.7024 49.8605 33.4593 47.4639 34.7207C45.0672 35.982 43.1751 37.748 41.1569 39.6401C40.6524 38.2525 40.4001 37.1173 39.8955 35.982C39.7694 35.4775 39.5171 34.9729 39.1387 34.5945C38.2557 33.8377 38.0034 32.7024 37.8773 31.6933C37.7512 31.1888 38.0034 30.9365 38.508 31.0626Z" fill="#374151"/>
<path d="M60.5823 32.45C60.2039 31.4409 60.33 31.1886 61.0869 31.0625C60.9607 29.9273 60.8346 28.792 60.8346 27.6568C60.8346 25.6385 61.5914 23.8726 63.2312 22.6112C64.871 21.3498 66.8893 20.9714 68.9075 21.2237C70.7996 21.476 72.5655 22.3589 74.2053 23.1158C75.719 23.8726 76.7281 25.2601 76.8542 27.0261C76.9804 28.4136 76.8542 29.675 76.8542 31.0625C76.9804 31.0625 77.2326 31.1886 77.3588 31.1886V31.3148C77.2326 32.1978 77.1065 33.0807 76.8542 33.9637C76.8542 34.216 76.7281 34.4683 76.4758 34.5944C75.5928 35.2251 75.4667 36.1081 75.2144 37.1172C74.9621 38.1263 74.5837 39.0093 74.2053 40.0184C73.953 39.8922 73.7008 39.7661 73.5746 39.64C70.7996 36.6126 67.3938 34.5944 63.6096 33.333C62.8528 32.8285 61.7176 32.7023 60.5823 32.45Z" fill="#374151"/>
<path d="M69.1597 73.3191C69.1597 75.968 70.7995 77.4817 72.3132 79.1215C72.3132 79.2476 72.3132 79.2476 72.187 79.3737C70.4211 79.8783 68.529 80.6351 66.7631 81.0136C62.9789 81.8965 59.1947 82.1488 55.2844 81.8965C51.248 81.6442 47.2115 80.7613 43.4274 79.1215C42.7967 78.8692 42.166 78.4908 41.5353 78.1124C40.9046 77.7339 40.5262 77.2294 40.5262 76.5987C40.5262 75.3373 40.5262 74.0759 40.6523 72.8145C40.7785 71.8054 41.5353 71.1747 42.166 70.2917C45.6979 73.8236 49.9866 75.8419 54.906 76.3464C60.0777 76.851 64.7448 75.968 69.1597 73.3191Z" fill="#374151"/>
<path d="M50.7434 67.1385C51.1219 66.8862 51.3741 66.76 51.7526 66.5078C52.2571 66.2555 52.7617 65.8771 53.1401 65.6248C53.6446 65.1202 53.7708 64.7418 53.3924 63.985C53.2662 63.7327 53.1401 63.6066 53.0139 63.3543C52.2571 62.0929 51.6264 60.7054 51.248 59.1917C51.1219 58.6872 50.8696 58.1826 50.4912 57.8042C49.7343 57.0473 49.3559 56.1644 49.2298 55.1553C49.1036 54.3984 49.3559 54.1462 49.8605 54.1462C49.7343 52.8848 49.6082 51.7495 49.7343 50.4881C49.7343 47.3347 52.2571 44.6857 55.4106 44.3073C57.3027 44.055 59.0686 44.4335 60.8345 45.1903C61.3391 45.4426 61.9698 45.6949 62.4744 45.821C64.4926 46.5778 65.5017 48.0915 65.8801 50.1097C66.0062 50.9927 65.8801 51.7495 65.8801 52.6325C65.8801 53.137 65.8801 53.6416 65.8801 54.1462C66.0062 54.1462 66.1324 54.1462 66.3847 54.2723C66.3847 55.5337 66.2585 56.7951 65.3756 57.8042C64.871 58.3087 64.7449 58.8133 64.4926 59.444C64.2403 60.2008 64.1142 61.0838 63.8619 61.8406C63.7358 62.3452 63.3573 62.8497 63.1051 63.3543C62.4744 64.1111 62.4744 64.9941 63.1051 65.7509C63.4835 66.1293 63.988 66.3816 64.4926 66.6339C64.7449 66.76 64.9971 66.8862 65.2494 66.8862C64.9971 67.0123 64.7449 67.1385 64.4926 67.2646C63.2312 67.8953 61.9698 68.3999 60.5823 68.6521C57.4288 69.2828 54.4015 68.9044 51.5003 67.5169C51.3741 67.3907 51.1219 67.2646 50.7434 67.1385Z" fill="#374151"/>
</svg>
