<svg width="115" height="115" viewBox="0 0 115 115" fill="none" xmlns="http://www.w3.org/2000/svg">
<path d="M57.4999 0L107.296 28.75V86.25L57.4999 115L7.70343 86.25V28.75L57.4999 0Z" fill="white"/>
<path d="M21.992 64.4636C22.3658 64.6505 22.7397 64.744 23.1136 64.9309C23.8613 65.3983 24.5156 65.8656 25.1699 66.333C25.5438 66.6134 25.8242 66.6134 26.1981 66.4264C27.0393 66.0525 27.8805 65.6787 28.8152 65.3048C29.2825 65.1179 29.5629 64.744 29.6564 64.2766C29.8433 63.5289 29.9368 62.7811 30.1238 62.0334C30.4042 60.8183 30.6846 60.6313 31.8997 60.6313C32.9278 60.6313 33.8625 60.6313 34.8907 60.7248C35.7319 60.8183 36.0123 61.0987 36.2927 61.9399C36.4796 62.7811 36.6666 63.7158 36.8535 64.557C36.947 64.8374 37.1339 65.2113 37.4143 65.3048C38.349 65.7721 39.3772 66.2395 40.4053 66.5199C40.6857 66.6134 41.0596 66.5199 41.34 66.4264C42.0878 66.0525 42.7421 65.5852 43.3963 65.1179C44.331 64.4636 44.7984 64.4636 45.5461 65.3048C46.3873 66.0525 47.0416 66.8938 47.8828 67.735C48.2567 68.1089 48.2567 68.5762 47.9763 69.0436C47.6024 69.6978 47.2286 70.3521 46.7612 70.9129C46.1069 71.7542 45.92 72.5954 46.4808 73.5301C46.7612 74.1843 47.0416 74.8386 47.4155 75.3994C47.6024 75.6798 47.8829 75.9603 48.1633 75.9603C48.8175 76.1472 49.5653 76.2407 50.313 76.4276C51.5281 76.6145 51.902 76.8949 51.902 78.2035C51.9955 79.4186 51.902 80.5402 51.902 81.7553C51.902 82.1292 51.6216 82.4096 51.3412 82.4096C50.5934 82.5965 49.9392 82.877 49.1914 82.9704C47.9763 83.0639 47.1351 83.6247 46.7612 84.8398C46.5743 85.4006 46.2939 85.9614 46.1069 86.5222C45.92 86.8961 46.0135 87.27 46.2004 87.6439C46.6677 88.2982 47.0416 88.9524 47.509 89.7002C48.1633 90.7283 48.0698 91.2892 47.2286 92.1304C46.4808 92.8781 45.5461 93.6259 44.7049 94.2802C44.331 94.5606 43.9572 94.654 43.5833 94.3736C42.7421 93.8128 41.8074 93.252 40.9661 92.6912C40.4988 92.4108 40.1249 92.4108 39.6576 92.5977C39.0033 92.8781 38.349 93.1585 37.6013 93.4389C36.947 93.7193 36.5731 94.1867 36.3862 94.841C36.1992 95.5887 36.1058 96.3365 35.9188 97.0842C35.7319 97.9255 35.358 98.2993 34.5168 98.2993C33.3952 98.2993 32.2735 98.2993 31.1519 98.2993C30.4042 98.2993 30.0303 97.9254 29.8433 97.1777C29.6564 96.4299 29.5629 95.5887 29.376 94.841C29.2825 94.0932 28.9087 93.6259 28.1609 93.3455C27.4132 93.0651 26.6654 92.7847 25.9176 92.5043C25.5438 92.3173 25.1699 92.4108 24.796 92.5977C24.0483 93.0651 23.2071 93.5324 22.4593 94.0932C21.8985 94.4671 21.3377 94.4671 20.8703 93.9998C19.9356 93.0651 19.0009 92.1304 18.1597 91.1957C17.8793 90.9153 17.8793 90.5414 18.0663 90.1675C18.6271 89.2328 19.1879 88.3916 19.7487 87.4569C20.0291 86.9896 20.0291 86.5222 19.8422 86.0549C19.5618 85.4941 19.3748 84.8398 19.0944 84.279C18.814 83.5312 18.3467 83.0639 17.5989 82.8769C16.9446 82.69 16.2903 82.5965 15.6361 82.4096C14.5144 82.1292 14.1406 81.8488 14.1406 80.6337C14.1406 79.5121 14.1406 78.4839 14.1406 77.3623C14.1406 76.708 14.6079 76.3341 15.2622 76.1472C16.1034 75.9603 17.0381 75.7733 17.8793 75.5864C18.3467 75.4929 18.7205 75.2125 18.9075 74.7452C19.1879 73.9974 19.5618 73.1562 19.8422 72.4084C20.1226 71.7541 19.9356 71.1933 19.5618 70.6325C19.0944 69.9782 18.7205 69.2305 18.2532 68.5762C17.9728 68.1089 17.9728 67.735 18.3467 67.3611C19.1879 66.5199 20.0291 65.5852 20.8703 64.8374C21.2442 64.8374 21.6181 64.6505 21.992 64.4636ZM32.9278 71.8476C28.7217 71.8476 25.4503 75.2125 25.2634 79.5121C25.1699 84.092 29.1891 87.4569 32.9278 87.4569C37.1339 87.4569 40.6857 83.9986 40.7792 79.7925C40.9661 76.4276 38.2555 71.7542 32.9278 71.8476Z" fill="#374151"/>
<path d="M56.0147 82.7835C55.9212 82.5031 55.8277 82.2227 55.7343 82.0357C55.5473 81.5684 55.3604 81.1945 55.1735 80.7272C54.9865 80.2598 55.08 79.7925 55.4539 79.5121C56.1081 78.9512 56.8559 78.4839 57.5102 78.0166C57.6971 77.9231 57.9775 77.9231 58.1645 78.0166C58.7253 78.3904 59.2861 78.8578 59.8469 79.3251C60.1273 79.6055 60.4077 79.699 60.7816 79.6055C61.1555 79.5121 61.6228 79.4186 61.9967 79.3251C62.7444 79.1382 63.2118 78.6708 63.3987 77.9231C63.4922 77.4557 63.6791 77.0819 63.8661 76.6145C64.053 76.2406 64.3334 76.0537 64.7073 76.0537C65.455 76.1472 66.2028 76.2407 66.9505 76.4276C67.5113 76.5211 67.7918 76.8015 67.7918 77.4557C67.8852 77.9231 67.8852 78.3904 67.8852 78.7643C67.8852 79.3251 68.0722 79.699 68.5395 79.9794C68.633 79.9794 68.633 80.0729 68.7264 80.0729C69.7546 80.9141 70.8762 81.101 72.1848 80.3533C73.026 79.7925 73.3999 79.9794 74.0542 80.7272C74.428 81.288 74.8019 81.8488 75.1758 82.4096C75.3627 82.69 75.3627 83.0639 75.0823 83.3443C74.7085 83.8116 74.2411 84.3724 73.8672 84.8398C73.5868 85.2137 73.4934 85.4941 73.5868 85.9614C73.5868 86.0549 73.6803 86.1484 73.6803 86.2418C73.8672 87.5504 74.615 88.3916 75.9236 88.672C76.017 88.672 76.204 88.7655 76.2974 88.859C76.7648 89.0459 77.0452 89.3263 76.9517 89.8871C76.8582 90.6349 76.6713 91.4761 76.5778 92.2238C76.4844 92.6912 76.204 92.8781 75.8301 92.8781C75.1758 92.9716 74.428 92.9716 73.7738 93.0651C73.5868 93.0651 73.3064 93.252 73.213 93.3455C72.9325 93.7193 72.6521 94.1867 72.3717 94.5606C71.9979 95.1214 71.9979 95.6822 72.2783 96.3365C72.4652 96.7103 72.6521 97.0842 72.8391 97.4581C73.026 97.9254 73.026 98.3928 72.5587 98.6732C71.9044 99.234 71.1566 99.7013 70.4089 100.169C70.2219 100.262 69.8481 100.169 69.6611 100.075C69.1003 99.7013 68.633 99.3275 68.1656 98.8601C67.7918 98.4863 67.4179 98.3928 66.9505 98.5797C66.4832 98.7667 65.9224 98.8601 65.455 99.1405C65.1746 99.234 64.8942 99.5144 64.7073 99.7948C64.4269 100.262 64.2399 100.823 64.053 101.384C63.8661 101.758 63.5857 101.945 63.2118 101.945C62.3706 101.851 61.5293 101.664 60.6881 101.571C60.3142 101.477 60.1273 101.197 60.0338 100.823C59.9404 100.169 59.9404 99.4209 59.8469 98.7667C59.8469 98.5797 59.66 98.3928 59.473 98.2058C59.3796 98.1124 59.2861 98.1124 59.2861 98.0189C57.6971 96.8973 57.6971 96.8973 55.8277 97.645C54.7061 98.1124 54.6126 98.1124 53.8649 97.1777C53.3975 96.6169 53.0237 96.0561 52.6498 95.4952C52.4628 95.2148 52.4628 94.9344 52.7433 94.654C53.1171 94.2802 53.491 93.8128 53.8649 93.3455C54.2388 92.8781 54.3322 92.4108 54.2388 91.85C54.2388 91.7565 54.1453 91.663 54.1453 91.5696C53.9583 90.4479 53.3975 89.7002 52.2759 89.4198C50.8739 89.0459 50.8739 88.9524 50.9673 87.4569C51.0608 86.8961 51.1543 86.3353 51.2478 85.681C51.3412 85.3071 51.5282 85.1202 51.902 85.0267C52.4629 85.0267 53.0237 84.9333 53.5845 84.9333C54.0518 84.9333 54.4257 84.6528 54.7061 84.279C54.9865 83.8116 55.2669 83.3443 55.5473 82.8769C55.9212 83.2508 55.9212 82.9704 56.0147 82.7835ZM58.8187 89.1394C58.6318 92.4108 61.7163 94.5606 64.053 94.5606C67.044 94.4671 69.3807 92.2238 69.4742 89.2328C69.4742 86.8026 67.7918 83.9986 64.1465 83.8116C61.4359 83.8116 58.5383 86.5222 58.8187 89.1394Z" fill="#374151"/>
<path fill-rule="evenodd" clip-rule="evenodd" d="M57.4999 8.8527L15.3701 33.1763V81.8236L57.4999 106.147L99.6297 81.8236V33.1763L57.4999 8.8527ZM107.296 28.75L57.4999 0L7.70343 28.75V86.25L57.4999 115L107.296 86.25V28.75Z" fill="#FF4910"/>
<path fill-rule="evenodd" clip-rule="evenodd" d="M7.70343 76.2834V86.2501L57.4999 115L107.296 86.2501V76.2834H99.6297V81.8238L57.4999 106.147L15.3701 81.8238V76.2834H7.70343Z" fill="#FF4910"/>
<path d="M75.0824 13.0557C76.5779 13.6165 77.9799 14.1773 79.4754 14.6446C80.1297 14.925 80.6905 15.112 81.3448 15.3924C82.2795 15.8597 82.6534 16.4205 82.5599 17.4487C82.4664 18.3834 82.2795 19.3181 82.186 20.2528C82.0925 21.0005 81.9056 21.7483 81.9056 22.496C81.8121 23.1503 81.9991 23.7111 82.4664 24.085C83.775 25.3001 84.9901 26.5152 86.2986 27.7303C86.766 28.1042 87.3268 28.1042 87.8876 28.0107C89.2896 27.7303 90.7851 27.3564 92.1872 26.9825C93.6827 26.6087 94.337 26.9825 94.9912 28.2911C95.8325 29.9735 96.4868 31.656 97.2345 33.3384C97.328 33.6188 97.4214 33.8992 97.5149 34.1796C97.7019 34.9274 97.5149 35.4882 96.8606 35.9556C95.739 36.7968 94.6174 37.638 93.4957 38.4792C92.3741 39.227 91.9068 40.2551 91.9068 41.5637C92.0002 43.0592 92.0937 44.5547 92.1872 46.0502C92.1872 46.5175 92.4676 46.8914 92.9349 47.1718C94.0566 47.9196 95.1782 48.5739 96.3933 49.3216C96.7672 49.602 97.2345 49.8824 97.6084 50.2563C98.1692 50.7236 98.3561 51.2845 98.0757 51.9387C97.328 53.9016 96.6737 55.9579 95.9259 57.9208C95.4586 59.1358 94.6174 59.5097 93.3088 59.3228C91.7198 59.0424 90.2243 58.8554 88.6354 58.575C88.0746 58.4816 87.6072 58.575 87.2333 59.0424C86.0182 60.2575 84.8031 61.4726 83.588 62.6877C83.0272 63.2485 83.0272 63.9028 83.1207 64.6505C83.4011 65.9591 83.6815 67.1742 84.0554 68.4827C84.5227 70.4456 84.2423 71.0999 82.4664 72.0346C81.0644 72.6888 79.5689 73.3431 78.1668 73.9974C77.8864 74.0909 77.606 74.1843 77.3256 74.2778C76.4844 74.5582 75.7366 74.2778 75.1758 73.6235C74.615 72.8758 74.1477 72.2215 73.5869 71.4737C73.1195 70.8195 72.5587 70.1652 72.0914 69.5109C71.7175 68.9501 71.1567 68.7631 70.5024 68.7631C69.0069 68.8566 67.4179 68.8566 65.9224 68.9501C64.9877 68.9501 64.24 69.4174 63.7726 70.2586C63.2118 71.1933 62.651 72.128 62.0902 73.0627C61.8098 73.5301 61.4359 73.9974 61.062 74.3713C60.5947 74.9321 59.9404 75.0256 59.2861 74.8386C57.3233 74.0909 55.4539 73.4366 53.491 72.7823C52.1825 72.315 51.8086 71.1933 51.9955 70.0717C52.1825 69.0436 52.3694 67.9219 52.5564 66.8938C52.6498 66.333 52.7433 65.7721 52.7433 65.2113C52.8368 64.6505 52.5563 64.2766 52.1825 63.9028C51.4347 63.155 50.5935 62.3138 49.8457 61.566C49.4719 61.1922 49.098 60.9118 48.7241 60.5379C48.2568 60.0705 47.696 59.8836 47.1351 59.9771C45.8266 60.2575 44.6115 60.5379 43.3029 60.7248C42.8356 60.8183 42.4617 60.9118 41.9944 61.0052C40.9662 61.1922 40.125 60.8183 39.6576 59.8836C38.8164 58.0142 37.9752 56.1448 37.2274 54.2755C36.7601 53.2473 37.0405 52.4996 37.8817 51.8453C38.6295 51.2845 39.3772 50.7236 40.125 50.2563C40.6858 49.8824 41.2466 49.5085 41.714 49.0412C42.2748 48.5739 42.6486 47.9196 42.6486 47.1718C42.6486 45.4894 42.5552 43.8069 42.5552 42.1245C42.5552 41.9376 42.4617 41.7506 42.2748 41.6572C41.2466 40.9094 40.2184 40.1617 39.1903 39.4139C38.6295 39.04 37.9752 38.6662 37.4144 38.2923C36.5732 37.638 36.2928 36.9837 36.6666 35.9556C37.3209 33.9927 37.9752 32.1233 38.7229 30.1605C39.1903 29.0389 40.0315 28.5715 41.2466 28.7584C42.5552 28.9454 43.8637 29.2258 45.1723 29.4127C46.3874 29.5997 47.4156 29.3193 48.3502 28.2911C49.1915 27.2629 50.2196 26.3283 51.0608 25.3001C51.4347 24.8328 51.6217 24.3654 51.4347 23.8046C51.1543 22.496 50.8739 21.2809 50.5935 20.0658C50.5 19.5985 50.4066 19.0377 50.3131 18.5703C50.2196 17.8226 50.5 17.2618 51.0608 16.7944C51.2478 16.701 51.4347 16.514 51.6217 16.4205C53.3976 15.5793 55.08 14.8316 56.8559 14.0838C58.1645 13.523 58.7253 13.8034 59.5665 14.8316C60.4077 15.9532 61.249 17.0748 61.9967 18.1965C62.5575 19.0377 63.3053 19.4116 64.24 19.4116C65.7355 19.4116 67.3244 19.3181 68.8199 19.2246C69.4742 19.2246 69.9416 18.9442 70.3154 18.3834C70.9697 17.3552 71.7175 16.2336 72.3718 15.2054C72.9326 14.3642 73.4934 13.4295 74.5216 13.1491C74.7085 13.0557 74.8954 13.0557 75.0824 13.0557ZM48.4437 43.9004C48.5372 43.9004 48.5372 43.9004 48.6307 43.9004C48.5372 46.0502 48.6307 48.2 49.5653 50.2563C50.4066 52.1257 51.2478 54.0885 52.5564 55.6775C52.8368 56.0514 53.2106 56.2383 53.678 56.0514C56.0147 55.2102 58.4449 54.3689 60.7816 53.5277C61.249 53.3408 61.5294 52.9669 61.8098 52.4996C62.0902 51.8453 61.9967 51.2845 61.7163 50.6302C61.249 49.5085 60.8751 48.4804 60.4077 47.3588C60.3143 46.9849 60.1273 46.7045 59.9404 46.4241C58.9122 45.1155 58.6318 43.62 58.4449 41.9376C58.3514 41.3768 58.5384 41.0029 59.0057 40.7225C59.2861 40.5355 59.3796 40.3486 59.2861 40.0682C59.1926 39.6943 59.0992 39.3204 59.0992 38.9466C58.9122 34.4601 62.3706 30.1605 66.8571 29.5997C69.4742 29.2258 71.7175 30.067 73.3999 32.0299C73.5869 32.2168 73.8673 32.4972 74.1477 32.5907C75.4562 33.1515 76.0171 34.1796 76.204 35.4882C76.3909 36.8902 76.3909 38.3857 76.204 39.7878C76.1105 40.4421 75.9236 41.0029 76.3909 41.5637C76.4844 41.6572 76.4844 41.9376 76.4844 42.1245C76.4844 43.62 76.204 45.022 75.4562 46.3306C75.3628 46.5175 75.1758 46.7979 74.8954 46.7979C74.5216 46.8914 74.4281 47.1718 74.2411 47.4522C73.8673 48.3869 73.4934 49.4151 73.1195 50.3498C72.4652 51.7518 72.8391 53.1538 74.3346 53.7146C76.6713 54.5559 79.0081 55.3036 81.3448 56.0514C81.6252 56.1448 81.8121 56.0514 81.9991 55.8644C82.7468 54.7428 83.588 53.7146 84.1489 52.593C87.5137 46.2371 87.1399 36.8902 80.6905 30.5344C76.1105 26.0478 70.5024 24.1785 64.3334 25.3001C56.2951 26.7021 51.2478 31.7495 49.0045 39.5074C48.4437 40.9094 48.5372 42.4984 48.4437 43.9004Z" fill="#374151"/>
</svg>
