<svg width="115" height="115" viewBox="0 0 115 115" fill="none" xmlns="http://www.w3.org/2000/svg">
<path d="M57.4998 0L107.296 28.75V86.25L57.4998 115L7.70337 86.25V28.75L57.4998 0Z" fill="white"/>
<path fill-rule="evenodd" clip-rule="evenodd" d="M57.4998 8.8527L15.37 33.1763V81.8236L57.4998 106.147L99.6296 81.8236V33.1763L57.4998 8.8527ZM107.296 28.75L57.4998 0L7.70337 28.75V86.25L57.4998 115L107.296 86.25V28.75Z" fill="#FF4910"/>
<path d="M69.1704 77.6514C61.6268 81.7026 53.8037 82.5408 45.7012 79.6071C38.7163 77.0926 33.6872 72.4825 30.3344 65.9167C23.9083 53.3439 28.239 37.5581 40.253 29.8747C52.267 22.1913 66.9353 25.125 75.0377 33.7862C73.6408 35.1832 72.2438 36.5802 70.8468 37.9772C70.0086 37.2787 69.1704 36.5802 68.3323 35.8817C63.8619 32.529 58.9725 31.132 53.3846 31.5511C45.2821 32.3893 39.2751 36.4405 35.5033 43.7048C35.0842 44.4033 34.8048 45.2415 34.5254 46.0797C34.5254 46.2193 34.5254 46.4987 34.5254 46.4987C35.3635 47.3369 36.2017 48.3148 37.1796 49.153C40.6721 45.6606 44.0248 42.3078 47.5173 38.8154C51.8479 43.146 56.1785 47.6163 60.5092 51.8073C69.0307 43.2857 77.4126 34.9038 85.7945 26.5219C83.0005 26.5219 80.0669 26.5219 76.9935 26.5219C76.9935 26.3823 76.9935 26.2426 76.9935 26.1029C76.9935 24.2868 76.9935 22.6104 76.9935 20.7943C76.9935 20.3752 77.1332 20.3752 77.5523 20.3752C83.699 20.3752 89.9854 20.3752 96.1321 20.3752C96.5512 20.3752 96.6909 20.5149 96.6909 20.934C96.6909 27.2204 96.6909 33.6465 96.6909 39.9329C96.6909 40.352 96.5512 40.4917 96.1321 40.4917C94.3161 40.4917 92.6397 40.4917 90.8236 40.4917C90.5442 40.4917 90.4045 40.352 90.4045 40.0726C90.4045 37.2787 90.4045 34.4847 90.4045 31.6908C90.4045 31.5511 90.4045 31.4114 90.4045 31.132C80.486 41.0505 70.7071 50.8294 60.7886 60.7479C56.3182 56.2776 51.9876 51.947 47.657 47.6163C44.1645 51.1088 40.8118 54.6012 37.3193 57.954C36.062 56.6967 34.8048 55.4394 33.5475 54.1821C33.5475 54.1821 33.4078 54.1821 33.4078 54.3218C33.4078 54.7409 33.4078 55.2997 33.5475 55.7188C34.5254 63.5419 38.5766 69.4092 45.5615 73.0413C54.6419 77.6514 65.5383 75.4162 71.9644 67.5931C76.5744 62.1449 77.9714 55.8585 76.7141 49.0133C76.7141 48.8736 76.7141 48.5942 76.8538 48.4545C78.3905 46.9178 79.7875 45.5209 81.3241 43.9842C81.3241 43.9842 81.4639 43.9842 81.4639 43.8445C81.6035 44.543 81.8829 45.1018 82.0226 45.6606C84.1181 53.4836 83.1402 60.7479 79.089 67.7328C78.9493 68.0122 78.9493 68.2916 79.2287 68.4313C84.1181 73.3207 89.0075 78.0705 93.7573 82.9599C96.2718 85.4744 96.2718 89.386 93.7573 92.0403C92.7794 93.1578 91.6618 93.996 90.1251 94.4151C87.7503 94.9739 85.7945 94.4151 84.1181 92.7387C79.6478 88.2684 75.0377 83.7981 70.5674 79.3277C70.1483 78.7689 69.5895 78.2102 69.1704 77.6514Z" fill="#374151"/>
<path fill-rule="evenodd" clip-rule="evenodd" d="M7.70337 76.2834V86.2501L57.4998 115L107.296 86.2501V76.2834H99.6296V81.8238L57.4998 106.147L15.37 81.8238V76.2834H7.70337Z" fill="#FF4910"/>
</svg>
