<svg width="416" height="248" viewBox="0 0 416 248" fill="none" xmlns="http://www.w3.org/2000/svg">
<mask id="mask0_566_19780" style="mask-type:alpha" maskUnits="userSpaceOnUse" x="1" y="2" width="445" height="245">
<path d="M1.27579 66.7899L342.734 3.99151L348.326 2.68962L445.379 181.854L91.8431 246.966L1.27579 66.7899Z" fill="#D9D9D9"/>
</mask>
<g mask="url(#mask0_566_19780)">
<g opacity="0.33">
<path d="M-50.9634 159.087C-47.7232 157.852 -44.5253 156.536 -41.1493 155.274C-22.8478 148.253 -3.77269 140.997 10.3448 129.383C21.5364 120.182 25.2955 111.337 28.5218 103.476C29.3675 101.371 30.2551 99.3467 31.1845 97.4024C35.3826 88.8267 43.1132 78.4293 64.9496 74.1817C77.6814 71.6682 94.2095 72.1429 115.433 75.6112C118.381 76.11 121.466 76.5829 124.414 77.0817C161.498 83.1844 200.056 89.5365 238.526 87.6874C239.697 87.6411 240.868 87.5948 242.174 87.5226C287.784 84.7554 325.651 69.4131 338.687 48.5503C339.502 47.2464 340.233 45.7817 340.87 44.4233C345.976 33.2887 346.626 20.3776 345.596 8.64477C344.597 -2.74066 341.865 -12.7612 346.157 -22.5918C350.5 -32.609 358.567 -40.066 371.569 -46.0771C384.937 -52.2462 402.466 -55.5853 419.317 -58.7949C421.083 -59.1314 422.986 -59.4937 424.752 -59.8302C442.826 -63.2728 466.042 -68.3134 486.214 -76.0438C502.007 -82.1447 516.2 -89.8848 531.039 -100.399C536.076 -103.921 541.636 -108.161 546.317 -112.941C548.563 -115.224 550.402 -117.43 551.885 -119.745C558.947 -130.28 559.536 -142.056 560.021 -154.608C560.218 -158.534 560.373 -162.54 560.705 -166.491C561.184 -170.735 561.736 -174.552 562.727 -178.098C570.636 -208.235 605.8 -236.228 656.807 -253.013C685.227 -262.403 716.649 -268.035 749.725 -269.916L749.264 -270.801C716.053 -268.893 684.631 -263.261 656.075 -253.846C604.66 -236.983 569.172 -208.751 561.253 -178.348C560.304 -174.721 559.616 -170.878 559.137 -166.634C558.669 -162.657 558.556 -158.57 558.359 -154.645C557.791 -142.254 557.337 -130.504 550.327 -120.155C548.844 -117.84 547.005 -115.634 544.853 -113.457C540.266 -108.784 534.571 -104.518 529.669 -101.022C515.06 -90.6397 500.867 -82.8996 485.21 -76.8246C465.174 -69.1201 442.093 -64.1053 424.156 -60.6886C422.389 -60.3521 420.487 -59.9898 418.72 -59.6533C401.734 -56.4178 384.069 -53.0528 370.471 -46.7515C357.103 -40.5823 348.849 -32.9129 344.411 -22.7894C340.067 -12.7721 342.798 -2.75158 343.839 8.71424C344.87 20.4471 344.178 33.2778 339.124 44.2256C338.487 45.5841 337.714 46.9684 336.899 48.2723C324.01 68.8422 286.602 83.9201 241.62 86.7446C240.449 86.7909 239.278 86.8372 238.149 86.9639C199.815 88.7871 161.571 82.4636 124.487 76.3609C121.403 75.888 118.454 75.3892 115.506 74.8905C93.9687 71.3935 77.127 70.8902 64.1234 73.4555C41.6494 77.913 33.7307 88.5228 29.4804 97.2851C28.551 99.2294 27.6633 101.254 26.6817 103.385C23.4135 111.165 19.7906 119.985 8.65121 128.999C-5.37227 140.507 -24.1754 147.711 -42.5187 154.651C-45.7589 155.887 -48.9993 157.123 -52.1036 158.332L-51.6431 159.217L-50.9634 159.087Z" fill="url(#paint0_linear_566_19780)"/>
</g>
<g opacity="0.33">
<path d="M-51.7123 157.64C-47.5525 155.876 -43.2152 154.166 -38.7836 152.35C-21.2034 145.378 -3.02749 138.117 10.7139 126.928C21.6653 118.126 25.5917 109.602 29.1632 102.118C30.2388 99.8807 31.1262 97.856 32.3274 95.8599C36.8708 87.6603 44.9885 77.7194 66.4591 73.6298C78.9609 71.2485 95.2173 71.775 116.127 75.2147L124.125 76.5189C161.523 82.6502 200.258 89.0568 239.136 87.13C240.307 87.0837 241.478 87.0375 242.743 86.8849C288.133 83.9828 325.864 68.6663 338.9 47.8035C339.715 46.4996 340.488 45.1153 341.083 43.6765C346.189 32.542 346.537 19.7639 345.465 7.95066C344.372 -3.32849 341.942 -13.4821 345.962 -23.2609C350.128 -33.3327 358.059 -40.7637 371.019 -46.8552C384.345 -53.1047 401.875 -56.4438 418.683 -59.7338C420.45 -60.0703 422.216 -60.4067 423.983 -60.7432C441.878 -64.2403 465.136 -69.2005 485.309 -76.9309C501.143 -82.9514 515.514 -90.6371 530.479 -100.91C535.516 -104.432 541.389 -108.644 546.154 -113.262C548.4 -115.546 550.239 -117.752 551.858 -120.093C559.285 -130.786 559.792 -142.723 560.235 -155.355C560.379 -159.094 560.482 -162.913 560.898 -166.704C561.377 -170.948 561.929 -174.764 562.92 -178.311C570.515 -208.476 605.145 -236.633 655.714 -253.688C684.415 -263.396 715.984 -269.321 749.425 -271.361L749.007 -272.165C715.565 -270.125 683.861 -264.174 655.023 -254.44C604.089 -237.227 569.135 -208.832 561.53 -178.4C560.58 -174.772 560.028 -170.956 559.549 -166.712C559.133 -162.921 559.03 -159.102 558.886 -155.363C558.401 -142.812 557.895 -130.874 550.656 -120.394C548.995 -118.133 547.156 -115.928 545.003 -113.75C540.239 -109.131 534.502 -104.946 529.423 -101.504C514.594 -91.2571 500.181 -83.6519 484.482 -77.6572C464.446 -69.9527 441.324 -65.0183 423.386 -61.6016C421.62 -61.2651 419.853 -60.9287 418.087 -60.5922C400.964 -57.3308 383.477 -53.9113 369.879 -47.61C356.689 -41.3864 348.57 -33.7429 344.352 -23.4844C340.238 -13.5993 342.709 -3.36532 343.844 7.99422C345.011 19.7012 344.621 32.3988 339.609 43.4271C338.972 44.7855 338.199 46.1699 337.384 47.4738C324.63 68.0178 287.265 83.1761 242.46 86.0551C241.289 86.1014 240.16 86.2282 238.989 86.2744C200.383 88.1494 161.826 81.7972 124.564 75.64L116.566 74.3359C95.3424 70.8675 78.8142 70.3929 66.0405 72.826C43.8486 76.9646 35.7205 87.1725 30.9892 95.5846C29.9239 97.5548 28.9424 99.6858 27.8249 101.843C24.3475 109.221 20.3792 117.664 9.52189 126.36C-4.12546 137.442 -22.2073 144.598 -39.6516 151.543C-43.9892 153.253 -48.1907 154.937 -52.2147 156.675L-51.7123 157.64Z" fill="url(#paint1_linear_566_19780)"/>
</g>
<g opacity="0.33">
<path d="M-52.4624 156.193C-47.3829 153.9 -42.1257 151.662 -36.4608 149.345C-19.7378 142.449 -2.41922 135.262 11.0819 124.472C21.7512 115.99 26.0228 107.842 29.8036 100.759C31.0151 98.4962 32.1327 96.3394 33.3339 94.3433C38.2224 86.5198 46.6851 76.955 67.8736 73.1841C80.1455 70.935 96.1302 71.5132 116.726 74.9243L123.742 76.0623C161.495 82.3026 200.544 88.7379 239.652 86.679C240.822 86.6327 241.993 86.5863 243.258 86.4337C288.47 83.4771 326.16 68.0803 339.06 47.2434C339.875 45.9395 340.606 44.4748 341.243 43.1164C346.308 31.9014 346.896 18.8111 345.646 6.94333C344.595 -4.25542 341.789 -14.0708 345.579 -23.7175C349.567 -33.8438 357.456 -41.3552 370.28 -47.4208C383.564 -53.7507 401.052 -57.1701 418.038 -60.4056C419.805 -60.7421 421.435 -61.0527 423.202 -61.3892C441.098 -64.8863 464.219 -69.8206 484.57 -77.4965C500.404 -83.5171 514.994 -91.0677 530.179 -101.206C535.394 -104.673 541.309 -108.805 546.209 -113.449C548.497 -115.652 550.472 -117.884 552.091 -120.225C559.791 -130.97 560.213 -143.068 560.802 -155.993C560.895 -159.545 561.081 -163.203 561.445 -166.807C561.788 -171.026 562.476 -174.868 563.289 -178.469C570.477 -208.556 604.668 -236.984 654.755 -254.388C683.195 -264.312 715.401 -270.447 749.209 -272.645L748.748 -273.529C714.805 -271.305 682.641 -265.09 654.065 -255.14C603.612 -237.578 569.233 -208.938 561.899 -178.558C561.085 -174.957 560.397 -171.114 560.054 -166.896C559.69 -163.292 559.64 -159.659 559.412 -156.081C558.875 -143.343 558.452 -131.245 550.805 -120.687C549.144 -118.427 547.305 -116.221 545.017 -114.017C540.211 -109.479 534.296 -105.348 529.217 -101.906C514.032 -91.7682 499.672 -84.3496 483.837 -78.329C463.759 -70.7049 440.637 -65.7706 422.877 -62.2994C421.111 -61.9629 419.48 -61.6523 417.713 -61.3158C400.633 -57.974 382.968 -54.6092 369.59 -48.173C356.536 -41.9752 348.459 -34.2512 344.418 -23.9383C340.44 -14.0791 343.246 -4.26369 344.339 7.01546C345.547 18.8028 345.053 31.787 339.905 42.8411C339.268 44.1995 338.495 45.5839 337.68 46.8878C324.926 67.4318 287.874 82.6188 243.07 85.4978C241.899 85.5441 240.77 85.6707 239.599 85.717C200.763 87.7241 161.85 81.263 124.274 75.0772L117.259 73.9393C96.3492 70.4996 80.2287 69.9471 67.5491 72.2739C45.6812 76.1742 37.1661 85.9256 32.0895 93.9617C30.7524 95.9837 29.635 98.1406 28.4234 100.404C24.6427 107.486 20.4651 115.528 10.0257 123.878C-3.24549 134.536 -20.4702 141.616 -37.1514 148.593C-42.6804 150.884 -47.8436 153.016 -52.7873 155.283L-52.3268 156.167L-52.4624 156.193Z" fill="url(#paint2_linear_566_19780)"/>
</g>
<g opacity="0.33">
<path d="M-53.1381 154.909C-53.0022 154.883 -52.9081 154.777 -52.7722 154.751C-46.9508 151.875 -40.5963 149.162 -34.0116 146.317C-18.1877 139.415 -1.68427 132.384 11.4408 122.019C21.692 113.881 26.2147 106.215 30.2988 99.4288C31.6462 97.1398 32.9936 94.8507 34.3307 92.8287C39.5225 85.3009 48.3724 76.1926 69.2369 72.6602C81.4567 70.5977 97.1278 71.1473 117.233 74.4753L123.129 75.4729C161.196 81.7419 200.423 88.2315 239.844 86.2013C241.015 86.155 242.186 86.1087 243.451 85.9562C288.621 82.9192 325.997 67.4937 338.897 46.6568C339.712 45.3529 340.485 43.9686 341.08 42.5298C346.145 31.3149 346.32 18.3107 345.07 6.44291C343.925 -4.64957 341.396 -14.5253 345.186 -24.172C349.038 -34.2724 356.885 -41.8643 369.49 -48.0648C382.732 -54.4751 400.22 -57.8944 417.164 -61.2103L422.056 -62.1421C439.816 -65.6133 462.896 -70.6281 483.288 -78.2236C499.165 -84.1637 513.838 -91.5536 529.378 -101.583C534.771 -104.996 540.822 -109.153 545.764 -113.717C548.188 -115.946 550.163 -118.178 551.824 -120.438C559.931 -131.261 560.384 -144.16 560.775 -156.605C560.951 -159.997 561.085 -163.468 561.261 -166.86C561.698 -171.184 562.25 -175.001 562.97 -178.496C569.708 -208.586 603.408 -237.096 653.149 -254.877C681.83 -265.2 714.224 -271.547 748.22 -273.958L747.759 -274.842C713.628 -272.405 681.098 -266.032 652.417 -255.709C602.309 -237.77 568.463 -208.968 561.537 -178.665C560.682 -175.144 560.13 -171.328 559.829 -167.029C559.517 -163.611 559.383 -160.14 559.343 -156.774C558.89 -143.875 558.415 -131.59 550.538 -120.9C548.877 -118.64 546.861 -116.488 544.572 -114.285C539.766 -109.747 533.673 -105.67 528.416 -102.283C512.97 -92.3603 498.474 -84.9159 482.556 -79.0561C462.299 -71.4865 439.313 -66.5779 421.69 -63.1327L416.798 -62.2008C399.717 -58.8591 382.093 -55.4139 368.58 -48.9518C355.703 -42.6995 347.762 -35.0014 343.764 -24.6081C340.058 -14.8006 342.451 -4.89888 343.638 6.27399C344.846 18.0614 344.764 30.9592 339.794 42.0678C339.157 43.4262 338.52 44.7846 337.569 46.1144C324.951 66.6325 287.941 81.8999 243.314 84.8334C242.143 84.8797 241.014 85.0063 239.844 85.0526C200.736 87.1115 161.509 80.6219 123.62 74.4075L117.723 73.4099C97.3048 70.0533 81.3203 69.475 68.8288 71.5893C47.2848 75.2511 38.3826 84.5461 32.9608 92.2061C31.4878 94.2539 30.2764 96.5171 28.7931 98.832C24.8449 105.593 20.2803 113.178 10.2589 121.184C-2.63617 131.416 -19.0035 138.422 -34.8274 145.324C-41.412 148.169 -47.767 150.881 -53.5884 153.757L-53.0024 154.883L-53.1381 154.909Z" fill="url(#paint3_linear_566_19780)"/>
</g>
<g opacity="0.33">
<path d="M-51.9823 152.186C-50.9267 151.632 -50.0074 151.103 -48.9518 150.548C-43.0782 147.486 -36.6712 144.586 -29.7626 141.503C-14.754 134.756 0.850336 127.719 13.4633 117.806C23.4744 110.067 28.2063 102.804 32.3219 96.3643C33.8993 93.9431 35.4245 91.7086 36.9915 89.5545C42.5285 82.4027 51.6295 73.7767 72.3059 70.4569C84.2958 68.5265 99.7371 69.2083 119.486 72.4273L124.222 73.2041C162.467 79.5276 202.185 86.1004 241.836 83.938C243.007 83.8917 244.178 83.8454 245.307 83.7187C290.3 80.6272 327.634 65.1214 340.398 44.3103C341.213 43.0064 341.944 41.5417 342.581 40.1833C347.604 28.888 346.462 16.6146 345.17 4.66641C343.889 -6.4002 342.625 -16.82 346.143 -26.4149C349.954 -36.5957 357.487 -44.2161 369.956 -50.3907C383.156 -56.8815 400.644 -60.3009 417.588 -63.6168L422.344 -64.5227C440.104 -67.9939 463.048 -72.9828 483.482 -80.4979C499.401 -86.3577 514.252 -93.6931 530.012 -103.587C535.77 -107.158 541.633 -111.103 546.659 -115.506C549.083 -117.735 551.1 -119.887 552.897 -122.173C561.233 -133.128 561.781 -146.133 562.088 -158.739C562.212 -161.944 562.294 -165.229 562.553 -168.46C562.813 -172.839 563.406 -176.575 564.126 -180.07C570.592 -210.108 603.717 -238.862 652.978 -256.993C681.805 -267.609 714.481 -274.275 748.706 -276.818L748.287 -277.622C713.926 -275.053 681.114 -268.361 652.193 -257.639C602.703 -239.376 569.118 -210.357 562.641 -180.052C561.922 -176.557 561.37 -172.741 560.975 -168.336C560.715 -165.105 560.633 -161.82 560.509 -158.615C560.004 -145.529 559.613 -133.084 551.464 -122.342C549.803 -120.082 547.745 -118.011 545.321 -115.782C540.43 -111.404 534.432 -107.434 528.767 -103.969C513.102 -94.1809 498.386 -86.8714 482.603 -81.0375C462.305 -73.5483 439.497 -68.5853 421.738 -65.1141L416.981 -64.2081C399.901 -60.8664 382.141 -57.3952 368.847 -50.7983C356.013 -44.4656 348.385 -36.7388 344.523 -26.3714C340.911 -16.6702 342.076 -6.11181 343.357 4.95479C344.608 16.8226 346.067 29.0923 340.961 40.2268C340.324 41.5853 339.687 42.9436 338.872 44.2475C326.254 64.7656 289.38 80.0072 244.972 83.0756C243.801 83.1219 242.672 83.2485 241.502 83.2948C202.028 85.5118 162.623 78.9676 124.379 72.6442L119.643 71.8673C99.5381 68.5393 83.9609 67.8834 71.5634 69.8914C50.3015 73.2344 41.0543 82.1533 35.2874 89.4373C33.5845 91.6173 32.1952 93.8259 30.482 96.273C26.3245 102.632 21.5925 109.895 11.8114 117.502C-0.70759 127.309 -16.2177 134.24 -31.2263 140.987C-37.999 144.044 -44.5418 146.969 -50.4154 150.032C-51.2411 150.454 -52.0249 150.957 -52.9864 151.405L-52.526 152.29L-51.9823 152.186Z" fill="url(#paint4_linear_566_19780)"/>
</g>
<g opacity="0.33">
<path d="M-54.1877 152.899C-52.3483 151.842 -50.3732 150.759 -48.5338 149.702C-42.4721 146.426 -35.8772 143.315 -28.9165 140.045C-14.7651 133.373 -0.111918 126.517 12.1668 117.109C21.7599 109.715 26.7011 102.853 31.026 96.816C32.8751 94.3431 34.4526 91.9219 36.3333 89.7964C42.5497 82.5152 51.7974 74.745 72.0141 71.6894C83.9099 69.8654 99.0791 70.5989 118.379 73.8151L121.996 74.4516C160.596 80.884 200.628 87.4854 240.645 85.1649C241.816 85.1186 242.945 84.992 244.116 84.9457C289.067 81.7738 326.223 66.2135 338.852 45.4284C339.666 44.1244 340.439 42.74 341.034 41.3012C346.057 30.0059 346.312 16.9649 345.02 5.0167C343.781 -5.96951 340.942 -15.6761 344.325 -25.2451C347.957 -35.4804 355.313 -43.1554 367.782 -49.33C380.94 -55.9011 398.428 -59.3206 415.466 -62.7427L420.087 -63.6228C437.669 -67.1485 460.477 -72.1114 481.089 -79.572C497.049 -85.3513 511.942 -92.6064 528.099 -102.311C533.9 -105.802 540.076 -109.718 545.102 -114.121C547.704 -116.296 549.721 -118.447 551.517 -120.733C560.262 -131.766 560.684 -145.012 561.043 -157.805C561.115 -160.823 561.281 -163.947 561.488 -166.991C561.747 -171.371 562.299 -175.187 563.061 -178.602C569.213 -208.669 601.94 -237.612 650.584 -256.067C679.516 -267.057 712.474 -274.041 746.929 -276.716L746.51 -277.52C711.919 -274.819 678.825 -267.809 649.758 -256.794C600.748 -238.18 567.697 -208.998 561.492 -178.745C560.731 -175.33 560.315 -171.54 559.962 -167.054C559.754 -164.01 559.588 -160.886 559.517 -157.868C559.095 -144.621 558.746 -132.095 550.096 -121.169C548.393 -118.989 546.24 -116.812 543.774 -114.664C538.748 -110.26 532.666 -106.451 526.866 -102.96C510.844 -93.2809 496.045 -86.1321 480.22 -80.3786C459.745 -72.9439 437.072 -68.0069 419.49 -64.4812L414.87 -63.6011C397.79 -60.2594 380.072 -56.7078 366.778 -50.1108C354.079 -43.804 346.494 -35.9969 342.809 -25.575C339.332 -15.8997 342.213 -6.11271 343.494 4.95388C344.922 16.8762 344.583 29.7565 339.654 40.9456C339.017 42.304 338.38 43.6625 337.566 44.9664C325.083 65.4586 288.387 80.7546 244.022 83.9034C242.851 83.9497 241.722 84.0763 240.551 84.1226C200.806 86.3913 160.909 79.764 122.487 73.3861L118.87 72.7496C99.2563 69.5047 83.8153 68.823 71.7417 70.5926C50.8038 73.6971 41.1694 82.1595 35.0991 89.1478C33.2603 91.3537 31.5053 93.7204 29.698 96.2737C25.3731 102.311 20.5259 109.066 11.0269 116.354C-1.15782 125.656 -15.6749 132.486 -29.6904 139.132C-36.6512 142.402 -43.246 145.513 -49.3077 148.789C-51.0531 149.74 -52.7986 150.691 -54.5021 151.722L-53.9161 152.848L-54.1877 152.899Z" fill="url(#paint5_linear_566_19780)"/>
</g>
<g opacity="0.33">
<path d="M-52.7458 154.108C-50.9064 153.051 -48.9313 151.968 -47.0919 150.91C-41.0302 147.635 -34.4353 144.523 -27.4746 141.253C-13.3232 134.581 1.32998 127.726 13.6087 118.318C23.2018 110.923 28.143 104.062 32.4679 98.0245C34.317 95.5516 35.8945 93.1304 37.7751 91.0049C43.9916 83.7237 53.2393 75.9535 73.456 72.8979C85.3518 71.0739 100.521 71.8074 119.821 75.0236L123.438 75.6601C162.038 82.0925 202.07 88.6939 242.087 86.3734C243.258 86.3271 244.387 86.2005 245.558 86.1542C290.509 82.9823 327.665 67.422 340.293 46.6369C341.108 45.3329 341.881 43.9485 342.476 42.5097C347.499 31.2144 346.519 18.5113 345.227 6.56319C343.988 -4.42302 342.384 -14.4676 345.767 -24.0366C349.399 -34.2719 356.755 -41.9469 369.224 -48.1215C382.382 -54.6926 399.87 -58.1121 416.908 -61.5342L421.529 -62.4143C439.111 -65.94 461.919 -70.9029 482.53 -78.3635C498.491 -84.1428 513.384 -91.3979 529.541 -101.103C535.342 -104.593 541.518 -108.509 546.544 -112.913C549.146 -115.087 551.162 -117.239 552.959 -119.525C561.704 -130.557 562.126 -143.804 562.485 -156.597C562.557 -159.615 562.722 -162.739 562.93 -165.783C563.189 -170.162 563.741 -173.979 564.502 -177.393C570.655 -207.46 603.382 -236.403 652.026 -254.859C680.957 -265.848 713.916 -272.833 748.371 -275.508L747.952 -276.312C713.361 -273.611 680.267 -266.6 651.2 -255.585C602.19 -236.972 569.139 -207.79 562.934 -177.536C562.173 -174.122 561.757 -170.331 561.404 -165.846C561.196 -162.802 561.03 -159.677 560.959 -156.659C560.537 -143.413 560.188 -130.887 551.538 -119.961C549.835 -117.781 547.682 -115.604 545.216 -113.455C540.19 -109.052 534.108 -105.242 528.307 -101.751C512.286 -92.0724 497.487 -84.9236 481.662 -79.1701C461.187 -71.7354 438.514 -66.7984 420.932 -63.2727L416.312 -62.3926C399.232 -59.0509 381.514 -55.4993 368.22 -48.9023C355.521 -42.5955 347.936 -34.7884 344.251 -24.3665C340.774 -14.6912 342.42 -4.56623 343.701 6.50037C345.129 18.4226 346.025 30.965 341.096 42.1541C340.459 43.5125 339.822 44.871 339.007 46.1749C326.525 66.6671 289.829 81.9631 245.463 85.1119C244.293 85.1582 243.164 85.2848 241.993 85.3311C202.247 87.5998 162.351 80.9725 123.929 74.5946L120.312 73.9581C100.698 70.7132 85.2572 70.0315 73.1836 71.801C52.2457 74.9056 42.6113 83.368 36.541 90.3563C34.7022 92.5622 32.9472 94.9289 31.1399 97.4822C26.815 103.519 21.9678 110.275 12.4688 117.563C0.284079 126.864 -14.233 133.694 -28.2485 140.34C-35.2093 143.61 -41.8041 146.722 -47.8658 149.997C-49.6112 150.948 -51.3567 151.899 -53.0602 152.931L-52.4742 154.056L-52.7458 154.108Z" fill="url(#paint6_linear_566_19780)"/>
</g>
<g opacity="0.33">
<path d="M-51.3107 154.751C-49.4713 153.694 -47.4962 152.611 -45.6568 151.553C-39.5951 148.278 -33.0002 145.166 -26.0395 141.896C-11.8881 135.224 2.76501 128.369 15.0437 118.961C24.6368 111.566 29.5781 104.705 33.903 98.6675C35.7521 96.1946 37.3296 93.7734 39.2102 91.6479C45.4267 84.3667 54.6744 76.5965 74.891 73.5409C86.7868 71.7169 101.956 72.4504 121.256 75.6666L124.873 76.3031C163.473 82.7355 203.505 89.3369 243.522 87.0164C244.693 86.9701 245.822 86.8435 246.993 86.7972C291.944 83.6253 329.1 68.065 341.729 47.2799C342.543 45.9759 343.316 44.5915 343.911 43.1527C348.934 31.8574 346.285 19.0082 344.993 7.06005C343.753 -3.92616 343.819 -13.8246 347.202 -23.3936C350.834 -33.6289 358.19 -41.3039 370.659 -47.4785C383.817 -54.0496 401.305 -57.4691 418.343 -60.8912L422.964 -61.7713C440.546 -65.297 463.354 -70.2599 483.966 -77.7205C499.926 -83.4999 514.819 -90.7549 530.976 -100.46C536.777 -103.95 542.953 -107.866 547.979 -112.27C550.581 -114.444 552.598 -116.596 554.394 -118.882C563.139 -129.914 563.561 -143.161 563.92 -155.954C563.992 -158.972 564.157 -162.096 564.365 -165.14C564.624 -169.519 565.176 -173.336 565.938 -176.75C572.09 -206.817 604.817 -235.76 653.461 -254.216C682.393 -265.205 715.351 -272.19 749.806 -274.865L749.387 -275.669C714.796 -272.968 681.702 -265.957 652.635 -254.942C603.625 -236.329 570.574 -207.147 564.369 -176.893C563.608 -173.479 563.192 -169.688 562.839 -165.203C562.631 -162.159 562.465 -159.034 562.394 -156.016C561.972 -142.77 561.623 -130.244 552.973 -119.318C551.27 -117.138 549.117 -114.961 546.651 -112.812C541.625 -108.409 535.543 -104.599 529.742 -101.108C513.721 -91.4294 498.922 -84.2806 483.097 -78.5271C462.622 -71.0924 439.949 -66.1554 422.367 -62.6297L417.747 -61.7496C400.667 -58.4079 382.949 -54.8563 369.655 -48.2593C356.956 -41.9525 349.371 -34.1454 345.686 -23.7235C342.209 -14.0482 342.185 -4.06937 343.466 6.99723C344.894 18.9195 347.46 31.608 342.531 42.7971C341.894 44.1555 341.257 45.514 340.443 46.8179C327.96 67.3101 291.264 82.6061 246.898 85.7549C245.728 85.8012 244.599 85.9278 243.428 85.9741C203.682 88.2428 163.786 81.6155 125.364 75.2376L121.747 74.6011C102.133 71.3562 86.6923 70.6745 74.6187 72.444C53.6808 75.5486 44.0463 84.011 37.9761 90.9993C36.1373 93.2052 34.3823 95.5719 32.575 98.1252C28.2501 104.162 23.4028 110.918 13.9038 118.206C1.71912 127.507 -12.7979 134.337 -26.8134 140.983C-33.7742 144.253 -40.369 147.365 -46.4307 150.64C-48.1761 151.591 -49.9216 152.542 -51.6251 153.574L-51.0391 154.699L-51.3107 154.751Z" fill="url(#paint7_linear_566_19780)"/>
</g>
<g opacity="0.33">
<path d="M-50.3495 155.493C-48.5102 154.436 -46.535 153.353 -44.6956 152.296C-38.6339 149.02 -32.039 145.909 -25.0783 142.639C-10.9269 135.967 3.72622 129.111 16.0049 119.703C25.598 112.309 30.5393 105.447 34.8642 99.4099C36.7133 96.9369 38.2907 94.5158 40.1714 92.3903C46.3878 85.1091 55.6355 77.3388 75.8522 74.2833C87.748 72.4593 102.917 73.1927 122.217 76.409L125.835 77.0455C164.434 83.4779 204.466 90.0793 244.484 87.7588C245.654 87.7125 246.783 87.5859 247.954 87.5396C292.905 84.3677 330.061 68.8074 342.69 48.0222C343.504 46.7183 344.277 45.3339 344.873 43.895C349.895 32.5997 346.557 19.6557 345.265 7.70749C344.026 -3.27872 344.781 -13.0823 348.163 -22.6513C351.796 -32.8866 359.151 -40.5615 371.62 -46.7362C384.778 -53.3073 402.266 -56.7267 419.305 -60.1489L423.925 -61.0289C441.507 -64.5546 464.315 -69.5175 484.927 -76.9781C500.887 -82.7575 515.781 -90.0125 531.938 -99.7174C537.738 -103.208 543.914 -107.124 548.94 -111.527C551.542 -113.702 553.559 -115.853 555.356 -118.14C564.1 -129.172 564.522 -142.418 564.881 -155.211C564.953 -158.229 565.119 -161.354 565.326 -164.398C565.585 -168.777 566.137 -172.593 566.899 -176.008C573.051 -206.075 605.779 -235.018 654.422 -253.473C683.354 -264.463 716.312 -271.447 750.767 -274.122L750.349 -274.926C715.757 -272.225 682.663 -265.215 653.596 -254.2C604.587 -235.586 571.535 -206.404 565.33 -176.151C564.569 -172.736 564.153 -168.946 563.8 -164.46C563.592 -161.416 563.427 -158.292 563.355 -155.274C562.933 -142.027 562.584 -129.502 553.934 -118.576C552.231 -116.396 550.078 -114.218 547.612 -112.07C542.586 -107.666 536.504 -103.857 530.704 -100.366C514.683 -90.6871 499.883 -83.5383 484.059 -77.7848C463.583 -70.3501 440.911 -65.413 423.329 -61.8874L418.708 -61.0073C401.628 -57.6655 383.91 -54.1139 370.616 -47.5169C357.918 -41.2102 350.332 -33.4031 346.647 -22.9811C343.171 -13.3058 342.458 -3.42194 343.739 7.64466C345.167 19.5669 348.421 32.3504 343.492 43.5394C342.855 44.8979 342.218 46.2563 341.404 47.5603C328.922 68.0525 292.225 83.3485 247.86 86.4972C246.689 86.5435 245.56 86.6702 244.389 86.7165C204.644 88.9852 164.748 82.3579 126.325 75.9799L122.708 75.3434C103.094 72.0986 87.6535 71.4169 75.5799 73.1864C54.642 76.291 45.0075 84.7534 38.9372 91.7417C37.0985 93.9476 35.3434 96.3142 33.5362 98.8676C29.2113 104.905 24.364 111.66 14.865 118.948C2.68032 128.25 -11.8368 135.08 -25.8523 141.726C-32.813 144.996 -39.4078 148.107 -45.4695 151.383C-47.2149 152.334 -48.9604 153.285 -50.6639 154.316L-50.0779 155.442L-50.3495 155.493Z" fill="url(#paint8_linear_566_19780)"/>
</g>
<g opacity="0.33">
<path d="M-49.704 156.428C-47.8646 155.371 -45.8895 154.288 -44.0501 153.231C-37.9884 149.956 -31.3935 146.844 -24.4328 143.574C-10.2814 136.902 4.3717 130.046 16.6504 120.638C26.2435 113.244 31.1848 106.382 35.5097 100.345C37.3588 97.8721 38.9363 95.451 40.8169 93.3255C47.0334 86.0442 56.2811 78.274 76.4977 75.2185C88.3935 73.3944 103.563 74.1279 122.863 77.3441L126.48 77.9806C165.08 84.4131 205.112 91.0144 245.129 88.694C246.3 88.6477 247.429 88.5211 248.6 88.4748C293.551 85.3029 330.707 69.7426 343.335 48.9574C344.15 47.6535 344.923 46.269 345.518 44.8302C350.541 33.5349 346.658 20.4893 345.366 8.54116C344.127 -2.44505 345.426 -12.1471 348.808 -21.7161C352.441 -31.9514 359.797 -39.6264 372.265 -45.801C385.424 -52.3721 402.912 -55.7915 419.95 -59.2137L424.57 -60.0937C442.152 -63.6194 464.961 -68.5823 485.572 -76.0429C501.533 -81.8223 516.426 -89.0773 532.583 -98.7822C538.383 -102.273 544.56 -106.189 549.586 -110.592C552.188 -112.767 554.204 -114.918 556.001 -117.204C564.746 -128.237 565.167 -141.483 565.527 -154.276C565.598 -157.294 565.764 -160.418 565.972 -163.462C566.231 -167.842 566.783 -171.658 567.544 -175.072C573.697 -205.139 606.424 -234.083 655.068 -252.538C683.999 -263.528 716.957 -270.512 751.413 -273.187L750.994 -273.991C716.403 -271.29 683.309 -264.28 654.242 -253.264C605.232 -234.651 572.181 -205.469 565.976 -175.216C565.215 -171.801 564.798 -168.01 564.445 -163.525C564.238 -160.481 564.072 -157.357 564 -154.339C563.579 -141.092 563.23 -128.566 554.579 -117.64C552.876 -115.46 550.724 -113.283 548.258 -111.135C543.232 -106.731 537.149 -102.921 531.349 -99.4309C515.328 -89.7519 500.529 -82.6031 484.704 -76.8496C464.228 -69.4149 441.556 -64.4779 423.974 -60.9522L419.354 -60.0721C402.273 -56.7303 384.556 -53.1788 371.262 -46.5818C358.563 -40.275 350.977 -32.4679 347.292 -22.0459C343.816 -12.3707 342.559 -2.58826 343.84 8.47834C345.268 20.4006 349.067 33.2856 344.138 44.4746C343.501 45.8331 342.864 47.1915 342.049 48.4954C329.567 68.9876 292.871 84.2837 248.505 87.4324C247.334 87.4787 246.205 87.6054 245.034 87.6517C205.289 89.9204 165.393 83.2931 126.971 76.9151L123.353 76.2786C103.74 73.0338 88.2989 72.352 76.2254 74.1216C55.2874 77.2261 45.653 85.6886 39.5828 92.6768C37.744 94.8827 35.989 97.2494 34.1817 99.8028C29.8568 105.84 25.0095 112.595 15.5105 119.883C3.32581 129.185 -11.1912 136.015 -25.2067 142.661C-32.1675 145.931 -38.7623 149.042 -44.824 152.318C-46.5694 153.269 -48.3149 154.22 -50.0184 155.251L-49.4324 156.377L-49.704 156.428Z" fill="url(#paint9_linear_566_19780)"/>
</g>
<g opacity="0.33">
<path d="M-52.759 152.977C-50.9196 151.92 -48.9445 150.837 -47.1051 149.78C-41.0434 146.504 -34.4485 143.393 -27.4878 140.123C-13.3363 133.451 1.31679 126.595 13.5955 117.187C23.1886 109.793 28.1298 102.931 32.4547 96.8939C34.3038 94.4209 35.8813 91.9998 37.762 89.8743C43.9784 82.5931 53.2262 74.8228 73.4428 71.7673C85.3386 69.9433 100.508 70.6767 119.808 73.893L123.425 74.5295C162.025 80.9619 202.057 87.5633 242.074 85.2428C243.245 85.1965 244.374 85.0699 245.545 85.0236C290.496 81.8517 327.652 66.2914 340.28 45.5062C341.095 44.2023 341.868 42.8179 342.463 41.379C347.486 30.0837 346.387 17.4403 345.095 5.4921C343.856 -5.49411 342.371 -15.5982 345.753 -25.1673C349.386 -35.4025 356.742 -43.0775 369.211 -49.2521C382.369 -55.8233 399.857 -59.2427 416.895 -62.6648L421.515 -63.5449C439.097 -67.0706 461.906 -72.0335 482.517 -79.4941C498.478 -85.2735 513.371 -92.5285 529.528 -102.233C535.328 -105.724 541.505 -109.64 546.531 -114.043C549.133 -116.218 551.149 -118.369 552.946 -120.655C561.691 -131.688 562.113 -144.934 562.472 -157.727C562.544 -160.745 562.709 -163.87 562.917 -166.914C563.176 -171.293 563.728 -175.109 564.489 -178.524C570.642 -208.591 603.369 -237.534 652.013 -255.989C680.944 -266.979 713.902 -273.963 748.358 -276.638L747.939 -277.442C713.348 -274.741 680.254 -267.731 651.187 -256.716C602.177 -238.102 569.126 -208.92 562.921 -178.667C562.16 -175.252 561.744 -171.462 561.39 -166.976C561.183 -163.932 561.017 -160.808 560.945 -157.79C560.524 -144.543 560.175 -132.018 551.524 -121.092C549.822 -118.912 547.669 -116.734 545.203 -114.586C540.177 -110.182 534.094 -106.373 528.294 -102.882C512.273 -93.203 497.474 -86.0543 481.649 -80.3008C461.173 -72.866 438.501 -67.929 420.919 -64.4033L416.299 -63.5233C399.218 -60.1815 381.501 -56.6299 368.207 -50.0329C355.508 -43.7261 347.922 -35.9191 344.237 -25.4971C340.761 -15.8218 342.288 -5.63731 343.569 5.42929C344.997 17.3516 346.012 29.8344 341.083 41.0235C340.446 42.3819 339.809 43.7403 338.994 45.0443C326.512 65.5365 289.816 80.8325 245.45 83.9813C244.279 84.0275 243.15 84.1542 241.979 84.2005C202.234 86.4692 162.338 79.8419 123.916 73.464L120.299 72.8275C100.685 69.5826 85.244 68.9009 73.1704 70.6704C52.2325 73.775 42.5981 82.2374 36.5278 89.2257C34.689 91.4316 32.934 93.7983 31.1267 96.3516C26.8018 102.389 21.9546 109.144 12.4556 116.432C0.270895 125.734 -14.2462 132.564 -28.2617 139.21C-35.2224 142.48 -41.8173 145.591 -47.879 148.867C-49.6244 149.818 -51.3699 150.769 -53.0734 151.8L-52.4874 152.926L-52.759 152.977Z" fill="url(#paint10_linear_566_19780)"/>
</g>
<g opacity="0.33">
<path d="M-52.5961 153.352C-50.7567 152.295 -48.7816 151.212 -46.9422 150.155C-40.8805 146.879 -34.2857 143.768 -27.3249 140.498C-13.1735 133.826 1.47964 126.97 13.7584 117.562C23.3514 110.168 28.2927 103.306 32.6176 97.2689C34.4667 94.7959 36.0442 92.3748 37.9248 90.2493C44.1413 82.9681 53.389 75.1978 73.6056 72.1423C85.5015 70.3183 100.671 71.0517 119.971 74.268L123.588 74.9045C162.188 81.3369 202.22 87.9383 242.237 85.6178C243.408 85.5715 244.537 85.4449 245.708 85.3986C290.658 82.2267 327.815 66.6664 340.443 45.8812C341.258 44.5773 342.031 43.1929 342.626 41.754C347.649 30.4587 346.468 17.8375 345.176 5.88932C343.937 -5.09688 342.534 -15.2232 345.916 -24.7923C349.549 -35.0275 356.905 -42.7025 369.373 -48.8771C382.532 -55.4483 400.02 -58.8677 417.058 -62.2898L421.678 -63.1699C439.26 -66.6956 462.069 -71.6585 482.68 -79.1191C498.641 -84.8985 513.534 -92.1535 529.691 -101.858C535.491 -105.349 541.668 -109.265 546.694 -113.668C549.296 -115.843 551.312 -117.994 553.109 -120.28C561.853 -131.313 562.275 -144.559 562.635 -157.352C562.706 -160.37 562.872 -163.495 563.08 -166.539C563.339 -170.918 563.891 -174.734 564.652 -178.149C570.805 -208.216 603.532 -237.159 652.176 -255.614C681.107 -266.604 714.065 -273.588 748.521 -276.263L748.102 -277.067C713.511 -274.366 680.417 -267.356 651.35 -256.341C602.34 -237.727 569.289 -208.545 563.084 -178.292C562.322 -174.877 561.906 -171.087 561.553 -166.601C561.346 -163.557 561.18 -160.433 561.108 -157.415C560.686 -144.168 560.338 -131.643 551.687 -120.717C549.984 -118.537 547.832 -116.359 545.366 -114.211C540.34 -109.807 534.257 -105.998 528.457 -102.507C512.436 -92.828 497.637 -85.6793 481.812 -79.9258C461.336 -72.491 438.664 -67.554 421.082 -64.0283L416.462 -63.1483C399.381 -59.8065 381.664 -56.2549 368.369 -49.6579C355.671 -43.3511 348.085 -35.5441 344.4 -25.1221C340.924 -15.4468 342.369 -5.24009 343.65 5.82651C345.078 17.7488 346.174 30.2094 341.246 41.3985C340.609 42.7569 339.972 44.1153 339.157 45.4193C326.675 65.9115 289.979 81.2075 245.613 84.3563C244.442 84.4025 243.313 84.5292 242.142 84.5755C202.397 86.8442 162.501 80.2169 124.079 73.839L120.461 73.2025C100.848 69.9576 85.4068 69.2759 73.3333 71.0454C52.3953 74.15 42.7609 82.6124 36.6907 89.6007C34.8519 91.8066 33.0968 94.1733 31.2896 96.7266C26.9647 102.764 22.1175 109.519 12.6184 116.807C0.433737 126.109 -14.0833 132.939 -28.0989 139.585C-35.0596 142.855 -41.6545 145.966 -47.7162 149.242C-49.4615 150.193 -51.207 151.144 -52.9105 152.175L-52.3245 153.301L-52.5961 153.352Z" fill="url(#paint11_linear_566_19780)"/>
</g>
<g opacity="0.33">
<path d="M-54.0373 152.238C-52.1979 151.181 -50.2228 150.098 -48.3834 149.041C-42.3217 145.765 -35.7268 142.654 -28.7661 139.384C-14.6147 132.712 0.0384729 125.856 12.3172 116.448C21.9103 109.054 26.8515 102.192 31.1764 96.1549C33.0255 93.6819 34.603 91.2608 36.4836 89.1353C42.7001 81.8541 51.9478 74.0838 72.1645 71.0283C84.0603 69.2043 99.2295 69.9377 118.529 73.154L122.147 73.7905C160.747 80.2229 200.779 86.8243 240.796 84.5038C241.967 84.4575 243.096 84.3309 244.266 84.2846C289.217 81.1127 326.374 65.5524 339.002 44.7672C339.817 43.4633 340.59 42.0789 341.185 40.64C346.207 29.3447 346.312 16.6146 345.02 4.66641C343.781 -6.3198 341.093 -16.3373 344.475 -25.9063C348.108 -36.1416 355.464 -43.8165 367.932 -49.9912C381.091 -56.5623 398.578 -59.9817 415.617 -63.4039L420.237 -64.2839C437.819 -67.8096 460.627 -72.7725 481.239 -80.2331C497.199 -86.0125 512.093 -93.2675 528.25 -102.972C534.05 -106.463 540.226 -110.379 545.253 -114.782C547.855 -116.957 549.871 -119.108 551.668 -121.395C560.412 -132.427 560.834 -145.673 561.194 -158.466C561.265 -161.484 561.431 -164.609 561.638 -167.653C561.898 -172.032 562.45 -175.848 563.211 -179.263C569.363 -209.33 602.091 -238.273 650.735 -256.728C679.666 -267.718 712.624 -274.702 747.079 -277.377L746.661 -278.181C712.07 -275.48 678.976 -268.47 649.908 -257.455C600.899 -238.841 567.847 -209.659 561.643 -179.406C560.881 -175.991 560.465 -172.201 560.112 -167.715C559.905 -164.671 559.739 -161.547 559.667 -158.529C559.245 -145.282 558.896 -132.757 550.246 -121.831C548.543 -119.651 546.391 -117.473 543.925 -115.325C538.898 -110.921 532.816 -107.112 527.016 -103.621C510.995 -93.9421 496.195 -86.7933 480.371 -81.0398C459.895 -73.6051 437.223 -68.668 419.641 -65.1424L415.02 -64.2623C397.94 -60.9205 380.222 -57.3689 366.928 -50.7719C354.23 -44.4652 346.644 -36.6581 342.959 -26.2361C339.483 -16.5608 342.213 -6.46301 343.494 4.60359C344.922 16.5259 344.733 29.0954 339.805 40.2844C339.168 41.6429 338.531 43.0013 337.716 44.3052C325.234 64.7975 288.537 80.0935 244.172 83.2422C243.001 83.2885 241.872 83.4152 240.701 83.4615C200.956 85.7302 161.06 79.1029 122.638 72.7249L119.02 72.0884C99.4067 68.8436 83.9657 68.1619 71.8921 69.9314C50.9542 73.036 41.3197 81.4984 35.2495 88.4867C33.4107 90.6925 31.6557 93.0592 29.8484 95.6126C25.5235 101.65 20.6763 108.405 11.1773 115.693C-1.00743 124.995 -15.5245 131.825 -29.54 138.471C-36.5008 141.741 -43.0956 144.852 -49.1573 148.128C-50.9027 149.079 -52.6482 150.03 -54.3517 151.061L-53.7657 152.187L-54.0373 152.238Z" fill="url(#paint12_linear_566_19780)"/>
</g>
<g opacity="0.33">
<path d="M-52.5886 151.5C-49.9132 149.753 -47.1963 148.087 -44.3013 146.475C-38.2293 142.933 -31.4459 139.608 -24.1612 136.1C-10.9611 129.609 2.83458 122.828 14.5073 113.978C23.5883 107.034 28.7388 100.575 33.273 94.9394C35.3521 92.3342 37.337 89.8355 39.4895 87.6583C46.0511 80.7531 55.5084 73.3847 75.5788 70.6221C87.2865 69.0106 102.142 69.7156 121.264 72.8773L123.721 73.2929C162.634 79.754 203.022 86.4645 243.311 84.0922C244.482 84.0459 245.611 83.9193 246.782 83.873C291.513 80.5662 328.533 65.0317 341.162 44.2466C341.977 42.9427 342.749 41.5584 343.344 40.1196C348.461 28.718 346.918 16.2874 345.448 4.28474C344.115 -6.59519 342.981 -16.8061 346.091 -26.3233C349.546 -36.6131 356.902 -44.2881 369.193 -50.5173C382.173 -57.1429 399.797 -60.5882 416.836 -64.0103L421.32 -64.8645C438.902 -68.3902 461.574 -73.3273 482.228 -80.7075C498.188 -86.4868 513.301 -93.607 529.678 -103.177C535.614 -106.693 541.832 -110.529 547.036 -114.878C549.638 -117.052 551.791 -119.23 553.629 -121.435C562.646 -132.519 562.984 -145.927 563.395 -158.906C563.415 -161.738 563.528 -164.675 563.683 -167.533C563.943 -171.912 564.359 -175.702 565.12 -179.117C570.865 -209.106 603.153 -238.319 651.358 -257.045C680.529 -268.433 713.54 -275.604 748.319 -278.518L747.9 -279.322C713.079 -276.489 679.839 -269.185 650.531 -257.771C601.961 -238.888 569.485 -209.462 563.594 -179.18C562.968 -175.791 562.416 -171.975 562.199 -167.515C562.044 -164.658 561.93 -161.72 561.911 -158.889C561.573 -145.481 561.171 -132.769 552.249 -121.791C550.41 -119.585 548.352 -117.514 545.886 -115.366C540.818 -111.043 534.558 -107.288 528.622 -103.771C512.339 -94.3074 497.362 -87.213 481.538 -81.4595C461.02 -74.1052 438.348 -69.1681 420.901 -65.6683L416.417 -64.8142C399.243 -61.3661 381.619 -57.9209 368.273 -51.1372C355.752 -44.7759 348.302 -36.9947 344.659 -26.4924C341.454 -16.8689 342.631 -6.57754 343.964 4.30239C345.392 16.2247 346.893 28.5749 341.87 39.8702C341.233 41.2286 340.596 42.587 339.782 43.8909C327.299 64.3831 290.781 79.7337 246.593 82.9369C245.422 82.9832 244.293 83.1099 243.122 83.1561C202.969 85.5025 162.895 78.8207 124.024 72.44L121.567 72.0244C102.267 68.8082 87.0979 68.0746 75.2961 69.7924C54.818 72.6326 45.0368 80.2393 38.3811 87.2508C36.2706 89.5084 34.2856 92.0072 32.2065 94.6123C27.8082 100.222 22.6578 106.681 13.6708 113.518C1.99816 122.369 -11.568 129.018 -24.7682 135.509C-31.917 138.991 -38.7939 142.422 -44.9078 145.884C-47.5728 147.363 -50.1541 149.004 -52.6413 150.538L-52.1809 151.422L-52.5886 151.5Z" fill="url(#paint13_linear_566_19780)"/>
</g>
<g opacity="0.33">
<path d="M-54.8067 151.691C-51.2954 149.254 -47.7421 146.899 -43.9694 144.678C-37.7093 140.923 -30.6443 137.28 -23.2134 133.478C-10.8285 127.143 1.92198 120.65 13.0826 112.25C21.7876 105.732 27.0533 99.7804 31.6191 94.4926C33.928 91.7553 36.1849 89.2048 38.7032 86.8694C45.61 80.3404 55.4122 73.348 75.1587 70.8239C86.6365 69.3445 101.356 70.0754 120.029 73.2344L121.189 73.4551C160.458 80.0252 201.16 86.7643 241.814 84.234C242.985 84.1877 244.114 84.0611 245.285 84.0148C289.838 80.6535 326.817 65.0386 339.309 44.2793C340.124 42.9754 340.897 41.5911 341.492 40.1523C346.609 28.7507 346.882 15.6736 345.37 3.59049C344.079 -7.20905 340.857 -16.7215 343.967 -26.2388C347.245 -36.5831 354.464 -44.2322 366.577 -50.5159C379.516 -57.2219 397.098 -60.7474 414.136 -64.1696L418.485 -64.9979C444.314 -70.1829 463.119 -75.0902 479.393 -80.841C495.531 -86.5658 510.686 -93.6056 527.188 -102.934C533.302 -106.396 539.698 -110.177 544.944 -114.446C547.546 -116.62 549.74 -118.717 551.714 -120.949C561.096 -132.191 561.393 -145.679 561.721 -158.819C561.824 -161.49 561.885 -164.241 561.988 -166.911C562.247 -171.29 562.664 -175.081 563.289 -178.47C568.72 -208.488 600.517 -237.784 648.199 -256.94C677.475 -268.702 710.767 -276.192 745.776 -279.237L745.358 -280.041C710.213 -276.97 676.784 -269.454 647.372 -257.666C599.283 -238.433 567.34 -208.843 561.721 -178.613C561.095 -175.224 560.679 -171.434 560.462 -166.974C560.359 -164.303 560.297 -161.552 560.194 -158.882C559.825 -145.822 559.486 -132.415 550.292 -121.385C548.454 -119.179 546.26 -117.082 543.752 -115.014C538.506 -110.745 532.246 -106.99 526.226 -103.635C509.724 -94.3059 494.569 -87.2662 478.661 -81.6735C462.522 -75.9486 443.812 -71.1476 418.025 -65.8822L413.718 -64.9735C396.544 -61.5255 378.826 -57.9739 365.615 -51.2161C353.23 -44.8807 345.864 -36.9387 342.535 -26.4077C339.424 -16.8905 342.595 -7.1914 343.886 3.60815C345.356 15.6108 345.041 28.6076 340.154 39.877C339.517 41.2355 338.88 42.5939 338.065 43.8978C325.719 64.3642 289.242 79.7951 245.232 83.0528C244.061 83.0991 242.932 83.2257 241.761 83.272C201.379 85.7505 160.813 78.9856 121.722 72.47L120.426 72.2751C101.617 69.142 86.7197 68.3567 74.9701 69.8878C54.6801 72.5155 44.6477 79.6399 37.6469 86.2753C35.1287 88.6106 32.9137 91.2416 30.6047 93.9789C26.039 99.2667 20.9091 105.192 12.2982 111.604C1.2316 119.898 -11.5189 126.391 -23.7679 132.701C-31.1988 136.502 -38.2639 140.145 -44.524 143.9C-48.0669 145.989 -51.5262 148.238 -54.8076 150.542L-54.2634 151.587L-54.8067 151.691Z" fill="url(#paint14_linear_566_19780)"/>
</g>
<g opacity="0.33">
<path d="M-54.9325 151.449C-50.6689 148.163 -46.2799 145.118 -41.6711 142.208C-35.1708 138.054 -27.9179 134.198 -20.2048 130.078C-8.86527 124.03 2.93423 117.717 13.5307 109.955C21.7654 103.969 26.9269 98.3906 31.566 93.5305C34.2408 90.6352 36.8635 87.9266 39.6535 85.5395C46.9055 79.3865 56.9171 72.7962 76.5174 70.565C87.9012 69.1919 102.255 70.0809 120.53 73.0504C160.113 79.6492 201.169 86.4972 242.232 83.8893C243.403 83.843 244.532 83.7163 245.703 83.67C290.214 80.2283 326.879 64.5848 339.372 43.8255C340.186 42.5216 340.959 41.1373 341.419 39.7243C346.493 28.2424 346.348 15.3036 344.795 3.14011C343.41 -7.55315 340.511 -17.0977 343.392 -26.4828C346.491 -36.8816 353.669 -44.611 365.646 -50.8688C378.543 -57.6552 396.125 -61.1809 413.164 -64.603L417.198 -65.4599C442.85 -70.6994 461.696 -75.5263 478.012 -81.1966C494.192 -86.8411 509.567 -93.746 526.247 -103.02C532.538 -106.428 538.934 -110.209 544.358 -114.423C547.002 -116.517 549.29 -118.72 551.129 -120.926C560.918 -132.246 561.089 -145.975 561.511 -159.221C561.52 -161.785 561.571 -164.269 561.758 -166.779C561.975 -171.239 562.297 -174.923 562.923 -178.312C568.04 -208.358 599.304 -237.818 646.546 -257.244C675.927 -269.379 709.501 -277.188 744.604 -280.34L744.186 -281.144C708.811 -277.94 675.278 -270.051 645.72 -257.97C598.112 -238.386 566.66 -208.714 561.397 -178.374C560.771 -174.986 560.449 -171.302 560.138 -166.736C559.951 -164.226 559.942 -161.662 559.932 -159.097C559.647 -145.877 559.392 -132.308 549.79 -121.201C547.952 -118.995 545.716 -116.979 543.072 -114.885C537.784 -110.696 531.346 -106.996 525.19 -103.614C508.469 -94.4205 493.23 -87.5415 477.186 -81.9229C461.006 -76.2785 442.338 -71.3971 416.644 -66.238L412.609 -65.3811C395.435 -61.9331 377.717 -58.3814 364.59 -51.4629C352.383 -45.073 345.153 -37.1568 341.865 -26.5455C339.027 -17.08 341.831 -7.42929 343.258 3.34437C344.77 15.4274 344.873 28.286 339.892 39.6617C339.255 41.0201 338.618 42.3786 337.803 43.6825C325.457 64.1488 289.252 79.528 245.326 82.9465C244.197 83.0732 243.026 83.1195 241.855 83.1658C201.065 85.7219 160.322 78.9024 120.739 72.3037C102.244 69.1993 87.6185 68.3622 76.0989 69.7611C56.0909 72.07 45.7133 78.8183 38.3673 85.0776C35.5773 87.4647 32.9966 90.2538 30.1859 93.175C25.5468 98.035 20.3436 103.533 12.2447 109.493C1.78415 117.23 -9.92122 123.436 -21.2608 129.484C-28.9738 133.604 -36.321 137.566 -42.8213 141.72C-47.2001 144.498 -51.4535 147.517 -55.529 150.591L-55.0685 151.475L-54.9325 151.449Z" fill="url(#paint15_linear_566_19780)"/>
</g>
<g opacity="0.33">
<path d="M-54.9003 151.531C-49.7383 147.102 -44.5971 143.207 -39.3404 139.82C-32.976 135.691 -25.9422 131.701 -18.407 127.526C-7.51693 121.475 3.69703 115.186 14.1054 107.637C21.6923 102.127 26.9689 97.0571 31.6396 92.5445C34.9101 89.359 37.8044 86.5985 41.0021 84.1338C48.4634 78.3828 58.8202 72.1686 78.2324 70.1499C89.4281 68.9894 103.604 69.8237 121.43 72.7905C160.835 79.3347 201.442 86.1801 242.912 83.4946C244.083 83.4483 245.212 83.3216 246.383 83.2753C290.717 79.7791 327.34 64.0553 339.696 43.3219C340.511 42.018 341.148 40.6596 341.743 39.2207C346.776 27.6584 346.849 15.2035 345.295 3.04004C343.816 -7.54696 340.658 -17.6559 343.445 -26.9348C346.544 -37.3336 353.409 -45.0916 365.344 -51.4297C378.199 -58.2965 395.781 -61.8222 412.777 -65.3248L416.676 -66.1559C442.192 -71.3695 461.038 -76.1964 477.354 -81.8667C493.67 -87.5371 509.264 -94.3069 526.07 -103.34C532.403 -106.667 538.977 -110.394 544.536 -114.634C547.316 -116.754 549.646 -118.876 551.485 -121.082C561.546 -132.454 561.769 -146.369 562.107 -159.777C562.064 -162.154 562.199 -164.477 562.292 -166.881C562.467 -171.421 562.831 -175.025 563.457 -178.414C568.365 -208.862 598.395 -237.822 645.753 -257.888C675.237 -270.396 709 -278.418 744.291 -281.782L743.872 -282.586C708.445 -279.196 674.589 -271.068 644.968 -258.534C597.203 -238.39 566.985 -209.218 562.066 -178.502C561.441 -175.113 561.119 -171.429 560.943 -166.889C560.809 -164.566 560.852 -162.188 560.759 -159.785C560.557 -146.403 560.25 -132.649 550.377 -121.49C548.496 -119.364 546.166 -117.241 543.522 -115.147C538.098 -110.933 531.483 -107.287 525.285 -103.986C508.438 -95.0332 493.158 -88.2346 476.8 -82.6447C460.442 -77.0547 441.909 -72.1992 416.394 -66.9856L412.495 -66.1546C395.32 -62.7066 377.644 -59.0746 364.518 -52.156C352.352 -45.6857 345.258 -37.7954 342.148 -27.1295C339.445 -17.6899 342.603 -7.58105 344.083 3.00595C345.73 15.0631 345.657 27.5179 340.677 38.8936C340.04 40.252 339.403 41.6105 338.588 42.9144C326.378 63.3548 290.214 78.8144 246.466 82.2875C245.337 82.4142 244.166 82.4604 242.995 82.5067C201.975 85.195 161.409 78.4301 122.14 71.86C104.137 68.8386 89.7831 67.9498 78.3156 69.1621C58.4957 71.2584 47.8671 77.5244 40.1759 83.4076C36.8423 85.8982 33.8957 88.8453 30.7192 91.9245C26.1845 96.4112 20.8659 101.401 13.415 106.885C3.10061 114.328 -8.11337 120.617 -18.9616 126.748C-26.4968 130.923 -33.5303 134.913 -40.0307 139.067C-45.0574 142.322 -49.9688 146.086 -55.0787 150.328L-54.4927 151.454L-54.9003 151.531Z" fill="url(#paint16_linear_566_19780)"/>
</g>
<g opacity="0.33">
<path d="M-54.642 152.013C-49.1354 146.811 -43.1898 141.879 -36.8988 137.323C-29.9598 132.29 -21.8184 127.558 -13.2173 122.562C-3.92635 117.169 5.59451 111.644 14.6549 105.235C21.8656 100.151 27.0379 95.454 31.6461 91.3951C35.4183 88.0257 38.5845 85.2135 42.1899 82.6712C49.4006 77.5864 60.0189 71.5875 79.8285 69.7583C90.9302 68.704 104.699 69.616 122.211 72.5542C159.514 78.7918 201.773 85.941 243.473 83.1233C244.644 83.077 245.773 82.9503 246.944 82.9041C291.1 79.3534 327.681 63.5491 339.902 42.8416C340.716 41.5377 341.353 40.1793 341.949 38.7404C346.982 27.1781 346.876 14.2822 345.145 2.06421C343.708 -8.44239 340.592 -18.0844 343.107 -27.3114C346.028 -37.7647 352.851 -45.6032 364.514 -51.8896C377.327 -58.8368 394.909 -62.3625 412.042 -65.8909L415.805 -66.696C441.185 -71.8837 459.895 -76.6848 476.389 -82.3006C492.882 -87.9165 508.518 -94.606 525.544 -103.504C531.877 -106.831 538.67 -110.423 544.272 -114.582C547.051 -116.702 549.423 -118.745 551.398 -120.977C561.867 -132.426 562.006 -146.502 562.261 -160.07C562.301 -162.287 562.384 -164.424 562.424 -166.64C562.6 -171.18 562.922 -174.865 563.454 -178.147C568.048 -208.624 597.545 -237.748 644.463 -258.083C674.052 -270.965 707.961 -279.28 743.44 -282.857L743.022 -283.66C707.364 -280.138 673.362 -271.717 643.637 -258.81C596.353 -238.316 566.532 -208.954 562.063 -178.236C561.574 -174.873 561.251 -171.189 561.076 -166.649C561.035 -164.432 560.953 -162.295 560.912 -160.078C560.752 -146.617 560.571 -132.621 550.29 -121.384C548.273 -119.233 546.037 -117.216 543.257 -115.096C537.656 -110.937 530.999 -107.371 524.623 -104.124C507.556 -95.3065 492.056 -88.6428 475.698 -83.0528C459.341 -77.4628 440.63 -72.6618 415.386 -67.5L411.623 -66.6948C394.491 -63.1664 376.637 -59.5889 363.594 -52.5096C351.565 -46.0652 344.69 -38.0401 341.716 -27.4001C339.107 -18.0668 342.265 -8.34436 343.703 2.16224C345.392 14.2998 345.455 27.1153 340.516 38.5714C339.879 39.9298 339.242 41.2883 338.428 42.5922C326.353 63.0068 290.232 78.5467 246.661 82.0742C245.532 82.2009 244.361 82.2473 243.19 82.2935C201.762 85.0595 159.681 77.9647 122.555 71.7816C104.865 68.7889 90.7833 67.8483 79.5457 68.9284C59.3285 70.8353 48.3442 76.9923 41.0395 82.1834C37.4341 84.7257 34.1741 87.6442 30.4019 91.0136C25.7938 95.0725 20.6214 99.769 13.5466 104.828C4.62206 111.211 -4.89888 116.736 -14.1898 122.129C-22.7909 127.125 -31.0681 131.882 -38.007 136.915C-44.11 141.259 -49.8676 145.979 -55.1443 151.048L-54.642 152.013Z" fill="url(#paint17_linear_566_19780)"/>
</g>
<g opacity="0.33">
<path d="M-54.1818 152.898C-48.1322 146.444 -41.424 140.395 -34.3807 134.988C-27.0135 129.344 -18.2661 124.054 -8.92303 118.475C-0.865437 113.582 7.46412 108.638 15.4168 102.97C21.6556 98.6007 26.5774 94.5705 30.8094 90.9367C35.2714 87.1708 39.1272 83.9621 43.412 81.2903C51.5636 76.2914 62.3809 70.9615 81.417 69.368C92.2888 68.4459 105.785 69.4097 122.984 72.3193C159.974 78.5283 201.919 85.6489 244.027 82.7535C245.197 82.7072 246.327 82.5805 247.497 82.5342C291.57 78.8227 327.879 63.0702 340.1 42.3627C340.915 41.0588 341.552 39.7004 342.147 38.2616C347.138 26.6188 346.368 13.9372 344.595 1.63885C343.063 -8.76147 340.654 -18.5374 342.939 -27.6323C345.683 -38.1401 352.37 -45.9527 363.991 -52.3195C376.763 -59.347 394.303 -62.9531 411.435 -66.4815L415.062 -67.2607C440.034 -72.3708 459.246 -77.3558 475.646 -82.8654C491.91 -88.3491 508.225 -95.168 525.282 -103.719C531.793 -106.991 538.628 -110.502 544.365 -114.688C547.187 -116.728 549.653 -118.876 551.67 -121.028C562.546 -132.554 562.602 -146.792 562.73 -160.601C562.719 -162.631 562.707 -164.661 562.874 -166.637C563.049 -171.177 563.236 -174.835 563.767 -178.118C567.912 -208.598 597.012 -237.91 643.449 -258.596C673.142 -271.852 707.197 -280.459 742.77 -284.142L742.352 -284.946C706.506 -281.211 672.358 -272.497 642.528 -259.216C595.726 -238.372 566.438 -208.847 562.241 -178.18C561.709 -174.898 561.523 -171.24 561.389 -166.619C561.401 -164.589 561.276 -162.533 561.246 -160.583C561.169 -146.961 560.936 -132.778 550.384 -121.49C548.367 -119.338 545.995 -117.296 543.173 -115.256C537.53 -111.177 530.737 -107.585 524.32 -104.419C507.263 -95.8684 491.219 -89.1012 474.914 -83.6979C458.65 -78.2142 439.396 -73.3096 414.602 -68.145L410.975 -67.3658C393.842 -63.8374 376.03 -60.1796 363.029 -53.0199C351.177 -46.5209 344.303 -38.4958 341.507 -27.8013C339.17 -18.5198 341.579 -8.74378 343.11 1.65654C344.841 13.8745 345.747 26.5302 340.808 37.9863C340.171 39.3447 339.535 40.7032 338.72 42.0071C326.645 62.4217 290.838 77.9902 247.309 81.5982C246.18 81.7248 245.009 81.771 243.88 81.8977C202.086 84.8217 160.318 77.7557 123.464 71.5209C106.13 68.6372 92.3198 67.6447 81.3121 68.5927C61.8265 70.1835 50.7794 75.6456 42.5337 80.7508C38.113 83.4485 34.299 86.7375 29.6593 90.4489C25.3854 94.0022 20.4634 98.0326 14.2245 102.402C6.23002 107.99 -2.05732 113.014 -10.0209 117.801C-19.3221 123.46 -28.0695 128.749 -35.5727 134.42C-42.386 139.694 -48.9063 145.531 -54.7678 151.773L-54.1818 152.898Z" fill="url(#paint18_linear_566_19780)"/>
</g>
<g opacity="0.33">
<path d="M-53.4318 154.345C-52.9094 153.627 -52.2515 152.883 -51.5932 152.139C-45.5648 145.071 -38.8356 138.487 -31.688 132.708C-23.9343 126.371 -14.2569 120.286 -4.11974 113.937C2.51647 109.757 9.38248 105.445 16.2171 100.785C21.5781 97.0244 26.2076 93.58 30.1472 90.5322C35.4767 86.4243 39.9284 82.9254 45.0285 80.0983C53.3476 75.421 64.4158 70.5733 83.4416 69.2468C94.2612 68.5114 107.173 69.4984 124.193 72.3535C167.121 79.6404 205.836 85.4324 244.974 82.5724C246.145 82.5261 247.274 82.3995 248.403 82.2728C292.298 78.5068 328.566 62.6738 340.65 41.9922C341.465 40.6883 342.102 39.3299 342.697 37.8911C347.688 26.2483 346.178 13.4109 344.27 1.13843C342.644 -9.15562 340.797 -18.8303 343.082 -27.9251C345.648 -38.4875 352.157 -46.3546 363.779 -52.7214C376.508 -59.8293 394.048 -63.4354 411.181 -66.9638L414.672 -67.7172C439.466 -72.8818 458.584 -77.7604 475.162 -83.2155C491.603 -88.6447 507.96 -95.3833 525.237 -103.799C531.926 -107.017 538.897 -110.554 544.676 -114.659C547.633 -116.725 550.005 -118.767 552.158 -120.944C563.306 -132.523 563.414 -146.947 563.501 -160.836C563.573 -162.706 563.509 -164.549 563.582 -166.419C563.715 -171.039 563.943 -174.617 564.339 -177.874C568.17 -208.382 596.737 -237.859 642.734 -258.814C672.532 -272.443 706.597 -281.317 742.359 -285.213L741.94 -286.017C706.043 -282.095 671.748 -273.089 641.814 -259.434C595.451 -238.32 566.738 -208.551 562.854 -177.856C562.459 -174.6 562.136 -170.915 562.139 -166.321C562.067 -164.451 562.13 -162.608 562.058 -160.738C561.929 -146.929 561.916 -132.612 550.955 -121.246C548.939 -119.094 546.525 -117.132 543.703 -115.093C538.018 -111.094 531.047 -107.557 524.494 -104.365C507.218 -95.9488 490.955 -89.3164 474.649 -83.9131C458.208 -78.4839 439.089 -73.6053 414.431 -68.4666L410.94 -67.7131C393.807 -64.1847 376.037 -60.4466 363.036 -53.2869C351.226 -46.7075 344.623 -38.7341 341.869 -27.9592C339.626 -18.784 341.515 -9.0289 343.005 1.29103C344.914 13.5635 346.34 26.24 341.443 37.7765C340.806 39.1349 340.169 40.4934 339.49 41.7714C327.551 62.1601 291.744 77.7287 248.434 81.4715C247.305 81.5982 246.135 81.6445 245.006 81.7712C206.139 84.5795 167.56 78.7616 124.674 71.5551C107.475 68.6455 94.4281 67.6844 83.3367 68.4716C63.8615 69.7953 52.145 75.1198 44.1499 79.5587C39.0498 82.3858 34.3683 86.0168 29.0388 90.1247C25.0992 93.1725 20.6474 96.6714 15.2445 100.351C8.54584 104.985 1.54396 109.323 -5.1341 113.423C-15.4072 119.798 -24.9486 125.857 -32.8382 132.22C-40.0798 138.106 -46.6733 144.663 -52.8375 151.758C-53.2137 152.183 -53.5478 152.689 -53.924 153.114L-53.2961 154.32L-53.4318 154.345Z" fill="url(#paint19_linear_566_19780)"/>
</g>
<g opacity="0.33">
<path d="M-51.6676 157.72C-51.4589 156.973 -51.2922 156.146 -51.0416 155.48C-50.2899 153.481 -48.9632 151.726 -47.4587 150.026C-41.744 142.929 -35.6001 136.368 -28.9439 130.505C-20.5635 123.077 -9.68465 116.145 1.74838 108.842C6.77512 105.587 11.9378 102.306 17.1108 98.7583C21.5418 95.7936 25.4293 92.9323 28.8987 90.4158C35.1898 85.8597 40.603 81.9126 46.5185 78.9302C54.587 74.9191 66.2827 70.1288 85.2981 69.0694C96.0237 68.4403 108.663 69.4789 125.234 72.3312C167.849 79.5895 206.386 85.3271 245.932 82.3894C247.061 82.2627 248.232 82.2165 249.361 82.0898C293.078 78.2693 329.167 62.3818 341.252 41.7002C342.067 40.3963 342.704 39.0379 343.299 37.5991C348.248 25.8759 346.224 13.0953 344.273 0.742426C342.69 -9.47123 341.127 -19.0704 343.182 -28.0331C345.57 -38.65 352.037 -46.5975 363.346 -52.9928C376.033 -60.1812 393.709 -63.8132 410.664 -67.3961L414.019 -68.1237C438.542 -73.2365 457.796 -78.141 474.373 -83.596C490.856 -88.9448 507.297 -95.5226 524.793 -103.804C532.58 -107.496 538.997 -110.662 544.63 -114.474C547.587 -116.54 550.137 -118.528 552.289 -120.705C563.845 -132.361 563.869 -146.946 563.873 -160.996C563.893 -162.679 563.913 -164.362 563.933 -166.044C564.024 -170.745 564.158 -174.217 564.648 -177.58C568.208 -208.037 596.335 -237.783 641.716 -259.063C671.482 -273.039 705.693 -282.206 741.507 -286.288L741.088 -287.092C705.003 -282.958 670.697 -273.684 640.795 -259.683C595.049 -238.245 566.692 -208.366 563.164 -177.562C562.768 -174.306 562.54 -170.728 562.448 -166.027C562.428 -164.344 562.408 -162.661 562.388 -160.979C562.343 -147.009 562.413 -132.53 551.045 -121.087C548.987 -119.016 546.479 -116.947 543.615 -114.988C538.076 -111.282 531.837 -108.061 524.009 -104.449C506.607 -96.2747 490.166 -89.6969 473.725 -84.2677C457.105 -78.8931 438.029 -73.9341 413.642 -68.8471L410.287 -68.1197C393.019 -64.5654 375.384 -60.8529 362.467 -53.5324C350.793 -46.979 344.274 -38.8448 341.833 -28.0413C339.726 -18.8919 341.289 -9.29289 342.873 0.920771C344.782 13.1932 346.806 25.974 341.909 37.5105C341.408 38.843 340.635 40.2273 339.956 41.5053C328.017 61.894 292.387 77.5171 249.256 81.3145C248.127 81.4412 246.956 81.4875 245.827 81.6141C206.552 84.5001 168.194 78.8171 125.715 71.5329C109.008 68.7065 96.0545 67.6391 85.193 68.2942C65.7281 69.3509 53.9384 74.2474 45.5981 78.3103C39.5467 81.3186 34.1336 85.2656 27.7067 89.8476C24.2373 92.3641 20.3079 95.145 16.0128 98.0839C10.7979 101.551 5.67709 104.913 0.650348 108.168C-10.8767 115.577 -21.7557 122.509 -30.2719 129.963C-36.9282 135.826 -43.2076 142.412 -48.8805 149.59C-50.3432 151.371 -51.6281 153.206 -52.5157 155.231C-52.5679 155.417 -52.6201 155.604 -52.7663 155.897L-51.8036 157.746L-51.6676 157.72Z" fill="url(#paint20_linear_566_19780)"/>
</g>
<g opacity="0.33">
<path d="M-47.6943 165.357C-47.7057 163.327 -47.6234 161.191 -47.4991 159.135C-47.4268 157.265 -47.1663 155.183 -46.5086 153.291C-45.7151 151.372 -44.6605 149.669 -43.2397 147.808C-38.0163 140.628 -32.1861 134.039 -26.0734 128.279C-16.7842 119.441 -4.14954 111.291 9.22721 102.557C12.2265 100.572 15.2676 98.6672 18.2251 96.6017C21.4543 94.4844 24.412 92.4189 27.1814 90.566C34.9878 85.191 41.2683 80.9019 48.3128 77.7928C56.5487 74.1033 68.4956 69.7954 87.5007 69.003C97.9964 68.506 110.364 69.5965 126.58 72.3398C167.407 79.3201 207.281 85.3328 247.058 82.2629C248.229 82.2166 249.358 82.09 250.487 81.9633C294.162 78.0624 330.074 62.1205 342.023 41.4648C342.837 40.1609 343.474 38.8025 344.069 37.3636C349.019 25.6405 346.284 12.8783 344.292 0.445073C342.614 -9.66231 341.761 -19.28 343.639 -28.2972C345.891 -38.8882 352.181 -46.8902 363.447 -53.366C376.092 -60.6348 393.633 -64.2408 410.723 -67.8496L413.943 -68.5511C438.329 -73.6381 457.406 -78.5971 474.203 -83.9173C490.686 -89.2661 507.482 -95.735 525.104 -103.775C533.068 -107.412 539.621 -110.605 545.296 -114.336C548.431 -116.347 550.939 -118.416 553.133 -120.513C565.097 -132.246 565.037 -146.992 564.957 -161.203C564.925 -162.699 565.028 -164.221 564.954 -165.798C565.046 -170.498 565.138 -174.051 565.534 -177.307C568.78 -207.792 596.374 -237.702 641.315 -259.252C670.59 -273.311 705.219 -282.823 741.179 -287.198L740.761 -288.002C704.487 -283.656 669.764 -274.037 640.353 -259.952C595.046 -238.244 567.264 -208.122 564.008 -177.37C563.612 -174.113 563.52 -170.561 563.428 -165.86C563.46 -164.364 563.356 -162.842 563.43 -161.266C563.469 -147.135 563.623 -132.496 551.847 -120.975C549.653 -118.878 547.239 -116.916 544.24 -114.931C538.701 -111.225 532.283 -108.058 524.277 -104.501C506.656 -96.4611 490.037 -89.9379 473.512 -84.6695C456.757 -79.2689 437.775 -74.4162 413.388 -69.3292L410.169 -68.6277C392.942 -64.993 375.172 -61.2547 362.391 -53.9601C350.894 -47.3521 344.375 -39.2179 342.112 -28.3599C340.099 -19.3168 340.993 -9.61879 342.713 0.568986C344.8 12.896 347.492 25.5777 342.637 37.1946C342.136 38.5272 341.363 39.9115 340.684 41.1896C328.882 61.5523 293.429 77.2299 250.34 81.1076C249.211 81.2343 248.04 81.2806 246.911 81.4073C207.407 84.4254 167.709 78.4671 127.06 71.5414C110.667 68.7435 98.1632 67.6789 87.4898 68.1214C68.0351 68.911 55.9943 73.3253 47.5284 77.147C40.3899 80.3623 34.1094 84.6514 26.167 90.0522C23.3976 91.9052 20.4402 93.9706 17.2109 96.0879C14.2116 98.073 11.2121 100.058 8.17097 101.963C-5.20579 110.696 -17.9346 118.953 -27.3596 127.817C-33.5664 133.683 -39.3962 140.272 -44.6196 147.452C-46.0404 149.314 -47.2315 151.043 -47.9831 153.041C-48.7348 155.04 -48.9532 157.203 -49.0254 159.072C-49.1607 160.247 -49.1598 161.395 -49.1592 162.544L-47.6943 165.357Z" fill="url(#paint21_linear_566_19780)"/>
</g>
<g opacity="0.33">
<path d="M-42.4205 175.487C-43.0822 169.339 -43.2005 163.088 -42.8273 156.92C-42.7132 155.131 -42.589 153.075 -41.7955 151.156C-41.1379 149.264 -40.0827 147.56 -38.7978 145.725C-33.8881 138.516 -28.6435 131.95 -22.9804 126.188C-12.2182 115.302 3.14402 105.218 19.6038 94.6604C21.4013 93.5227 22.927 92.4369 24.6305 91.4055C34.2241 85.1599 41.7905 80.1841 50.3297 76.7902C62.8407 71.8446 75.029 69.4347 89.884 68.991C100.192 68.7066 112.423 69.8229 128.148 72.4831C168.661 79.4347 208.358 85.3932 248.406 82.2715C249.535 82.1449 250.706 82.0985 251.835 81.9718C295.332 78.0164 331.066 62.02 343.015 41.3643C343.83 40.0603 344.467 38.702 345.104 37.3435C350.012 25.54 346.371 12.8722 344.242 0.464798C342.606 -9.56219 342.524 -19.2484 344.308 -28.1593C346.382 -38.8048 352.536 -46.7808 363.76 -53.337C376.228 -60.6603 393.862 -64.3726 410.953 -67.9814L414.036 -68.6573C438.245 -73.7987 457.363 -78.6773 474.16 -83.9975C490.822 -89.2918 507.66 -95.6802 525.501 -103.585C532.044 -106.51 539.548 -109.884 545.912 -114.012C549.047 -116.023 551.597 -118.011 553.927 -120.134C566.299 -131.945 566.156 -146.851 565.991 -161.223C566.043 -162.559 565.917 -163.948 565.968 -165.284C565.956 -168.463 566.027 -172.629 566.412 -176.767C569.345 -207.281 596.405 -237.354 640.866 -259.254C670.109 -273.661 704.707 -283.52 740.76 -288.002L740.342 -288.806C704.016 -284.273 669.282 -274.387 639.945 -259.874C595.119 -237.816 567.87 -207.531 564.928 -176.749C564.501 -172.692 564.472 -168.445 564.484 -165.266C564.432 -163.931 564.559 -162.541 564.507 -161.206C564.629 -146.914 564.825 -132.194 552.641 -120.595C550.447 -118.499 547.897 -116.511 544.856 -114.606C538.586 -110.584 531.082 -107.211 524.539 -104.285C506.698 -96.3805 489.995 -90.018 473.334 -84.7237C456.537 -79.4035 437.419 -74.5249 413.346 -69.4093L410.262 -68.7336C393.036 -65.0989 375.266 -61.3608 362.568 -53.9053C351.072 -47.2974 344.866 -39.1345 342.645 -28.1961C340.904 -19.2048 340.892 -9.41241 342.664 0.588702C344.792 12.9961 348.485 25.4773 343.536 37.2004C343.035 38.5329 342.262 39.9172 341.583 41.1952C329.78 61.558 294.506 77.2902 251.458 81.2483C250.329 81.375 249.158 81.4212 248.029 81.5479C208.253 84.6178 168.734 78.714 128.398 71.8169C112.496 69.1022 100.087 67.9313 89.6431 68.2416C74.4744 68.6567 62.1503 71.0925 49.4094 76.1703C40.7343 79.59 33.0322 84.5916 23.4804 90.9176C21.9128 91.9231 20.2512 93.035 18.4537 94.1726C2.03573 104.811 -13.4623 114.92 -24.3185 125.913C-29.9398 131.755 -35.4563 138.373 -40.3242 145.662C-41.4732 147.472 -42.6639 149.201 -43.4156 151.2C-44.1673 153.199 -44.292 155.255 -44.3642 157.124C-44.738 162.144 -44.6202 167.246 -44.2309 172.297L-42.5565 175.513L-42.4205 175.487Z" fill="url(#paint22_linear_566_19780)"/>
</g>
<g opacity="0.33">
<path d="M-35.8556 188.11C-35.992 186.987 -36.2227 185.971 -36.3592 184.848C-36.8208 181.667 -37.3661 178.324 -37.6919 175.117C-38.3748 168.355 -38.6502 161.515 -38.1624 154.706C-38.0483 152.917 -37.8819 150.941 -37.2243 149.049C-36.5666 147.156 -35.6477 145.479 -34.4986 143.67C-30.0803 136.377 -25.1493 129.783 -19.9357 124.018C-9.64428 112.515 5.72849 102.164 20.7566 92.5857C32.4195 85.1507 41.6369 79.3302 52.1204 75.6544C64.6108 71.2429 77.3742 69.077 92.083 68.9262C102.161 68.7739 114.121 69.942 129.531 72.5736C168.215 79.1668 209.25 85.4004 249.57 82.227C250.699 82.1003 251.87 82.054 252.999 81.9274C296.413 77.8112 332.011 61.8406 343.824 41.2107C344.639 39.9068 345.276 38.5485 345.777 37.2159C350.642 25.332 346.355 12.4665 344.143 -0.101614C342.413 -10.0223 342.883 -19.4046 344.437 -28.1834C346.334 -38.8834 352.445 -46.9399 363.534 -53.4702C375.96 -60.8738 393.594 -64.5862 410.685 -68.195L413.632 -68.8448C437.57 -73.9345 456.688 -78.8131 473.798 -84.1046C490.637 -89.3444 507.517 -95.6525 525.62 -103.342C532.34 -106.213 540.022 -109.532 546.428 -113.579C549.564 -115.59 552.249 -117.604 554.444 -119.701C567.223 -131.59 566.996 -146.657 566.748 -161.19C566.705 -162.419 566.705 -163.568 566.662 -164.797C566.66 -168.243 566.679 -172.223 566.97 -176.254C569.589 -206.797 596.252 -237.06 640.138 -259.204C669.349 -273.958 703.957 -284.084 740.063 -288.752L739.645 -289.556C703.309 -284.756 668.565 -274.603 639.217 -259.823C594.966 -237.521 567.979 -207.021 565.486 -176.237C565.195 -172.205 565.082 -168.119 565.178 -164.779C565.22 -163.55 565.221 -162.401 565.263 -161.172C565.469 -146.72 565.749 -131.84 553.158 -120.163C550.963 -118.066 548.372 -116.159 545.195 -114.228C538.746 -110.261 531.242 -106.887 524.616 -104.123C506.649 -96.4592 489.769 -90.1511 472.93 -84.9113C455.955 -79.6456 436.837 -74.7671 413.036 -69.7033L410.088 -69.0535C392.862 -65.4188 375.134 -61.6001 362.436 -54.1447C351.117 -47.4822 344.954 -39.2391 343.004 -28.3525C341.357 -19.4674 340.929 -10.0047 342.659 -0.0839595C344.829 12.4038 349.074 25.1888 344.261 36.8861C343.76 38.2186 343.123 39.5771 342.308 40.881C330.641 61.2179 295.409 77.0304 252.539 81.0431C251.41 81.1697 250.239 81.216 249.11 81.3427C209.104 84.5447 168.11 78.3916 129.698 71.7466C114.11 69.0605 102.014 67.9182 91.8002 68.0964C76.8196 68.2989 63.9205 70.4909 51.1584 74.9541C40.5389 78.6558 31.2274 84.5825 19.4286 92.0434C4.26461 101.647 -11.0663 112.079 -21.5876 123.714C-26.8012 129.479 -31.6901 136.154 -36.2443 143.472C-37.2574 145.256 -38.4484 146.985 -39.0641 148.958C-39.7218 150.85 -39.8045 152.987 -39.9185 154.776C-40.2705 161.558 -40.131 168.424 -39.4062 175.267C-39.0283 178.288 -38.6505 181.308 -38.1367 184.303L-36.1276 188.162L-35.8556 188.11Z" fill="url(#paint23_linear_566_19780)"/>
</g>
<g opacity="0.33">
<path d="M-37.7535 187.575C-37.89 186.452 -38.1207 185.436 -38.2572 184.313C-38.7188 181.131 -39.2641 177.789 -39.5898 174.582C-40.2728 167.819 -40.5482 160.979 -40.0603 154.171C-39.9462 152.382 -39.7799 150.406 -39.1222 148.514C-38.4646 146.621 -37.5456 144.944 -36.3966 143.134C-31.9782 135.842 -27.0472 129.248 -21.8336 123.483C-11.5422 111.979 3.83053 101.629 18.8586 92.0505C30.5215 84.6154 39.7389 78.795 50.2225 75.1192C62.7128 70.7077 75.4762 68.5417 90.185 68.3909C100.263 68.2386 112.223 69.4067 127.634 72.0383C166.317 78.6315 207.352 84.8651 247.672 81.6917C248.801 81.565 249.972 81.5188 251.101 81.3921C294.515 77.2759 330.113 61.3053 341.926 40.6755C342.741 39.3715 343.378 38.0132 343.879 36.6807C348.744 24.7967 347.082 12.4305 344.87 -0.137649C343.14 -10.0584 340.985 -19.9399 342.539 -28.7187C344.436 -39.4187 350.547 -47.4752 361.636 -54.0055C374.062 -61.4091 391.696 -65.1215 408.787 -68.7303L411.734 -69.3801C435.672 -74.4698 454.79 -79.3484 471.9 -84.6399C488.739 -89.8797 505.619 -96.1878 523.722 -103.877C530.442 -106.748 538.124 -110.067 544.531 -114.115C547.666 -116.126 550.351 -118.14 552.546 -120.236C565.325 -132.126 565.098 -147.193 564.85 -161.725C564.807 -162.954 564.807 -164.103 564.764 -165.332C564.763 -168.778 564.781 -172.758 565.072 -176.79C567.691 -207.332 594.354 -237.595 638.24 -259.739C667.451 -274.493 702.059 -284.619 738.165 -289.288L737.747 -290.092C701.411 -285.291 666.667 -275.139 637.319 -260.359C593.068 -238.057 566.081 -207.556 563.588 -176.772C563.297 -172.74 563.184 -168.654 563.28 -165.314C563.322 -164.085 563.323 -162.937 563.365 -161.708C563.571 -147.255 563.851 -132.375 551.26 -120.698C549.065 -118.602 546.474 -116.694 543.297 -114.763C536.849 -110.796 529.344 -107.423 522.718 -104.658C504.751 -96.9945 487.871 -90.6863 471.032 -85.4466C454.057 -80.1809 434.939 -75.3023 411.138 -70.2386L408.19 -69.5888C390.964 -65.9541 373.236 -62.1354 360.538 -54.68C349.219 -48.0175 343.056 -39.7744 341.106 -28.8877C339.459 -20.0027 341.656 -10.0407 343.386 -0.119991C345.556 12.3678 347.176 24.6536 342.363 36.3508C341.862 37.6834 341.225 39.0418 340.41 40.3458C328.743 60.6827 293.511 76.4951 250.641 80.5078C249.512 80.6345 248.341 80.6807 247.212 80.8074C207.206 84.0094 166.212 77.8563 127.8 71.2113C112.212 68.5252 100.116 67.3829 89.9022 67.5611C74.9216 67.7636 62.0226 69.9556 49.2604 74.4189C38.641 78.1205 29.3295 84.0473 17.5306 91.5082C2.36666 101.112 -12.9642 111.543 -23.4855 123.179C-28.6992 128.944 -33.588 135.619 -38.1423 142.937C-39.1554 144.72 -40.3463 146.449 -40.9621 148.422C-41.6197 150.315 -41.7024 152.451 -41.8165 154.24C-42.1684 161.023 -42.029 167.889 -41.3041 174.732C-40.9262 177.752 -40.5484 180.773 -40.0346 183.768L-38.0255 187.627L-37.7535 187.575Z" fill="url(#paint24_linear_566_19780)"/>
</g>
<g opacity="0.33">
<path d="M-42.2189 186.358C-42.3553 185.235 -42.586 184.219 -42.7225 183.096C-43.1841 179.915 -43.7294 176.572 -44.0551 173.365C-44.7381 166.603 -45.0135 159.763 -44.5256 152.954C-44.4116 151.165 -44.2452 149.189 -43.5876 147.297C-42.9299 145.404 -42.0109 143.727 -40.8619 141.918C-36.4436 134.625 -31.5125 128.031 -26.2989 122.266C-16.0075 110.762 -0.634802 100.412 14.3933 90.8337C26.0562 83.3986 35.2736 77.5782 45.7571 73.9024C58.2475 69.4909 71.0109 67.3249 85.7197 67.1741C95.7974 67.0219 107.758 68.1899 123.168 70.8215C161.852 77.4147 202.887 83.6483 243.207 80.4749C244.336 80.3482 245.507 80.302 246.636 80.1753C290.05 76.0591 325.648 60.0885 337.461 39.4587C338.276 38.1547 338.912 36.7964 339.414 35.4639C344.279 23.5799 346.359 11.1467 344.146 -1.42147C342.416 -11.3422 336.52 -21.1567 338.073 -29.9355C339.97 -40.6355 346.082 -48.692 357.17 -55.2223C369.597 -62.6259 387.231 -66.3383 404.321 -69.9471L407.269 -70.5969C431.206 -75.6866 450.324 -80.5652 467.435 -85.8567C484.274 -91.0965 501.154 -97.4046 519.256 -105.094C525.977 -107.965 533.659 -111.284 540.065 -115.332C543.2 -117.343 545.886 -119.356 548.08 -121.453C560.86 -133.342 560.632 -148.409 560.385 -162.942C560.342 -164.171 560.341 -165.32 560.299 -166.549C560.297 -169.995 560.316 -173.975 560.607 -178.006C563.225 -208.549 589.889 -238.812 633.774 -260.956C662.986 -275.71 697.594 -285.836 733.7 -290.505L733.282 -291.308C696.946 -286.508 662.201 -276.355 632.854 -261.576C588.603 -239.274 561.616 -208.773 559.122 -177.989C558.832 -173.957 558.719 -169.871 558.815 -166.531C558.857 -165.302 558.858 -164.153 558.9 -162.924C559.106 -148.472 559.386 -133.592 546.794 -121.915C544.6 -119.818 542.008 -117.911 538.831 -115.98C532.383 -112.013 524.879 -108.639 518.252 -105.875C500.286 -98.2113 483.406 -91.9031 466.567 -86.6633C449.592 -81.3977 430.474 -76.5191 406.673 -71.4554L403.725 -70.8056C386.499 -67.1709 368.77 -63.3522 356.072 -55.8968C344.754 -49.2343 338.59 -40.9912 336.641 -30.1045C334.994 -21.2194 340.932 -11.3245 342.662 -1.40383C344.833 11.0839 342.711 23.4368 337.898 35.134C337.397 36.4666 336.759 37.825 335.945 39.129C324.278 59.4659 289.046 75.2783 246.175 79.291C245.046 79.4177 243.875 79.4639 242.746 79.5906C202.74 82.7926 161.747 76.6395 123.335 69.9945C107.747 67.3084 95.6505 66.1661 85.4369 66.3443C70.4563 66.5468 57.5572 68.7388 44.7951 73.2021C34.1756 76.9037 24.8641 82.8305 13.0653 90.2914C-2.09867 99.8954 -17.4296 110.327 -27.9509 121.962C-33.1645 127.727 -38.0534 134.402 -42.6076 141.72C-43.6207 143.503 -44.8116 145.232 -45.4274 147.205C-46.085 149.098 -46.1677 151.234 -46.2818 153.023C-46.6338 159.806 -46.4943 166.672 -45.7695 173.515C-45.3916 176.536 -45.0138 179.556 -44.5 182.551L-42.4908 186.41L-42.2189 186.358Z" fill="url(#paint25_linear_566_19780)"/>
</g>
<g opacity="0.33">
<path d="M-39.8995 186.754C-40.036 185.631 -40.2666 184.615 -40.4031 183.492C-40.8647 180.311 -41.41 176.968 -41.7357 173.761C-42.4187 166.999 -42.6942 160.159 -42.2063 153.35C-42.0922 151.561 -41.9259 149.585 -41.2682 147.693C-40.6106 145.8 -39.6915 144.123 -38.5425 142.313C-34.1242 135.021 -29.1932 128.427 -23.9796 122.662C-13.6882 111.158 1.6846 100.808 16.7127 91.2295C28.3756 83.7945 37.593 77.974 48.0765 74.2982C60.5669 69.8867 73.3303 67.7207 88.0391 67.57C98.1168 67.4177 110.077 68.5858 125.488 71.2174C164.171 77.8106 205.206 84.0442 245.526 80.8708C246.655 80.7441 247.826 80.6978 248.955 80.5712C292.369 76.455 327.967 60.4844 339.78 39.8545C340.595 38.5506 341.232 37.1923 341.733 35.8597C346.598 23.9758 346.207 10.9543 343.994 -1.6139C342.264 -11.5346 338.84 -20.7608 340.393 -29.5396C342.29 -40.2396 348.401 -48.2961 359.49 -54.8264C371.916 -62.23 389.55 -65.9424 406.641 -69.5512L409.588 -70.201C433.526 -75.2907 452.644 -80.1693 469.754 -85.4608C486.593 -90.7006 503.473 -97.0087 521.576 -104.698C528.296 -107.569 535.978 -110.888 542.385 -114.936C545.52 -116.947 548.205 -118.96 550.4 -121.057C563.179 -132.946 562.952 -148.013 562.704 -162.546C562.661 -163.775 562.661 -164.924 562.618 -166.153C562.617 -169.599 562.635 -173.579 562.926 -177.611C565.545 -208.153 592.208 -238.416 636.094 -260.56C665.305 -275.314 699.913 -285.44 736.019 -290.109L735.601 -290.912C699.265 -286.112 664.521 -275.96 635.173 -261.18C590.922 -238.878 563.935 -208.377 561.442 -177.593C561.151 -173.561 561.038 -169.475 561.134 -166.135C561.176 -164.906 561.177 -163.758 561.219 -162.529C561.425 -148.076 561.705 -133.196 549.114 -121.519C546.919 -119.422 544.328 -117.515 541.151 -115.584C534.703 -111.617 527.198 -108.243 520.572 -105.479C502.605 -97.8154 485.725 -91.5073 468.886 -86.2675C451.911 -81.0018 432.793 -76.1233 408.992 -71.0595L406.044 -70.4097C388.818 -66.775 371.09 -62.9563 358.392 -55.5009C347.073 -48.8385 340.91 -40.5953 338.96 -29.7087C337.313 -20.8236 340.78 -11.517 342.51 -1.59625C344.68 10.8915 345.03 23.8326 340.217 35.5299C339.716 36.8624 339.079 38.2209 338.264 39.5248C326.597 59.8617 291.365 75.6742 248.495 79.6869C247.366 79.8135 246.195 79.8598 245.066 79.9864C205.06 83.1885 164.066 77.0354 125.654 70.3904C110.066 67.7043 97.9698 66.562 87.7563 66.7402C72.7757 66.9427 59.8766 69.1346 47.1145 73.5979C36.495 77.2996 27.1835 83.2263 15.3846 90.6872C0.220663 100.291 -15.1102 110.722 -25.6315 122.358C-30.8452 128.123 -35.734 134.798 -40.2883 142.116C-41.3014 143.899 -42.4923 145.628 -43.1081 147.601C-43.7658 149.494 -43.8484 151.63 -43.9625 153.419C-44.3145 160.202 -44.1749 167.068 -43.4501 173.911C-43.0722 176.931 -42.6944 179.952 -42.1806 182.947L-40.1715 186.806L-39.8995 186.754Z" fill="url(#paint26_linear_566_19780)"/>
</g>
</g>
<defs>
<linearGradient id="paint0_linear_566_19780" x1="545.879" y1="-337.022" x2="281.648" y2="762.583" gradientUnits="userSpaceOnUse">
<stop stop-color="#178FFC"/>
<stop offset="0.0292" stop-color="#218CF8"/>
<stop offset="0.0791" stop-color="#3C83EC"/>
<stop offset="0.1435" stop-color="#6875D9"/>
<stop offset="0.2201" stop-color="#A562BE"/>
<stop offset="0.3059" stop-color="#F2499D"/>
<stop offset="0.3128" stop-color="#F9479A"/>
<stop offset="0.3152" stop-color="#F9489B"/>
<stop offset="0.379" stop-color="#FB5EAE"/>
<stop offset="0.4533" stop-color="#FC6FBD"/>
<stop offset="0.5449" stop-color="#FD7BC8"/>
<stop offset="0.6713" stop-color="#FE82CE"/>
<stop offset="1" stop-color="#FE84D0"/>
</linearGradient>
<linearGradient id="paint1_linear_566_19780" x1="545.138" y1="-338.439" x2="280.611" y2="762.397" gradientUnits="userSpaceOnUse">
<stop stop-color="#178FFC"/>
<stop offset="0.0292" stop-color="#218CF8"/>
<stop offset="0.0791" stop-color="#3C83EC"/>
<stop offset="0.1435" stop-color="#6875D9"/>
<stop offset="0.2201" stop-color="#A562BE"/>
<stop offset="0.3059" stop-color="#F2499D"/>
<stop offset="0.3128" stop-color="#F9479A"/>
<stop offset="0.3152" stop-color="#F9489B"/>
<stop offset="0.379" stop-color="#FB5EAE"/>
<stop offset="0.4533" stop-color="#FC6FBD"/>
<stop offset="0.5449" stop-color="#FD7BC8"/>
<stop offset="0.6713" stop-color="#FE82CE"/>
<stop offset="1" stop-color="#FE84D0"/>
</linearGradient>
<linearGradient id="paint2_linear_566_19780" x1="544.526" y1="-339.82" x2="279.705" y2="762.242" gradientUnits="userSpaceOnUse">
<stop stop-color="#178FFC"/>
<stop offset="0.0292" stop-color="#218CF8"/>
<stop offset="0.0791" stop-color="#3C83EC"/>
<stop offset="0.1435" stop-color="#6875D9"/>
<stop offset="0.2201" stop-color="#A562BE"/>
<stop offset="0.3059" stop-color="#F2499D"/>
<stop offset="0.3128" stop-color="#F9479A"/>
<stop offset="0.3152" stop-color="#F9489B"/>
<stop offset="0.379" stop-color="#FB5EAE"/>
<stop offset="0.4533" stop-color="#FC6FBD"/>
<stop offset="0.5449" stop-color="#FD7BC8"/>
<stop offset="0.6713" stop-color="#FE82CE"/>
<stop offset="1" stop-color="#FE84D0"/>
</linearGradient>
<linearGradient id="paint3_linear_566_19780" x1="543.898" y1="-341.195" x2="278.783" y2="762.087" gradientUnits="userSpaceOnUse">
<stop stop-color="#178FFC"/>
<stop offset="0.0292" stop-color="#218CF8"/>
<stop offset="0.0791" stop-color="#3C83EC"/>
<stop offset="0.1435" stop-color="#6875D9"/>
<stop offset="0.2201" stop-color="#A562BE"/>
<stop offset="0.3059" stop-color="#F2499D"/>
<stop offset="0.3128" stop-color="#F9479A"/>
<stop offset="0.3152" stop-color="#F9489B"/>
<stop offset="0.379" stop-color="#FB5EAE"/>
<stop offset="0.4533" stop-color="#FC6FBD"/>
<stop offset="0.5449" stop-color="#FD7BC8"/>
<stop offset="0.6713" stop-color="#FE82CE"/>
<stop offset="1" stop-color="#FE84D0"/>
</linearGradient>
<linearGradient id="paint4_linear_566_19780" x1="543.372" y1="-342.544" x2="277.963" y2="761.964" gradientUnits="userSpaceOnUse">
<stop stop-color="#178FFC"/>
<stop offset="0.0292" stop-color="#218CF8"/>
<stop offset="0.0791" stop-color="#3C83EC"/>
<stop offset="0.1435" stop-color="#6875D9"/>
<stop offset="0.2201" stop-color="#A562BE"/>
<stop offset="0.3059" stop-color="#F2499D"/>
<stop offset="0.3128" stop-color="#F9479A"/>
<stop offset="0.3152" stop-color="#F9489B"/>
<stop offset="0.379" stop-color="#FB5EAE"/>
<stop offset="0.4533" stop-color="#FC6FBD"/>
<stop offset="0.5449" stop-color="#FD7BC8"/>
<stop offset="0.6713" stop-color="#FE82CE"/>
<stop offset="1" stop-color="#FE84D0"/>
</linearGradient>
<linearGradient id="paint5_linear_566_19780" x1="542.91" y1="-343.869" x2="277.208" y2="761.859" gradientUnits="userSpaceOnUse">
<stop stop-color="#178FFC"/>
<stop offset="0.0292" stop-color="#218CF8"/>
<stop offset="0.0791" stop-color="#3C83EC"/>
<stop offset="0.1435" stop-color="#6875D9"/>
<stop offset="0.2201" stop-color="#A562BE"/>
<stop offset="0.3059" stop-color="#F2499D"/>
<stop offset="0.3128" stop-color="#F9479A"/>
<stop offset="0.3152" stop-color="#F9489B"/>
<stop offset="0.379" stop-color="#FB5EAE"/>
<stop offset="0.4533" stop-color="#FC6FBD"/>
<stop offset="0.5449" stop-color="#FD7BC8"/>
<stop offset="0.6713" stop-color="#FE82CE"/>
<stop offset="1" stop-color="#FE84D0"/>
</linearGradient>
<linearGradient id="paint6_linear_566_19780" x1="544.352" y1="-342.661" x2="278.649" y2="763.068" gradientUnits="userSpaceOnUse">
<stop stop-color="#178FFC"/>
<stop offset="0.0292" stop-color="#218CF8"/>
<stop offset="0.0791" stop-color="#3C83EC"/>
<stop offset="0.1435" stop-color="#6875D9"/>
<stop offset="0.2201" stop-color="#A562BE"/>
<stop offset="0.3059" stop-color="#F2499D"/>
<stop offset="0.3128" stop-color="#F9479A"/>
<stop offset="0.3152" stop-color="#F9489B"/>
<stop offset="0.379" stop-color="#FB5EAE"/>
<stop offset="0.4533" stop-color="#FC6FBD"/>
<stop offset="0.5449" stop-color="#FD7BC8"/>
<stop offset="0.6713" stop-color="#FE82CE"/>
<stop offset="1" stop-color="#FE84D0"/>
</linearGradient>
<linearGradient id="paint7_linear_566_19780" x1="545.787" y1="-342.018" x2="280.085" y2="763.711" gradientUnits="userSpaceOnUse">
<stop stop-color="#178FFC"/>
<stop offset="0.0292" stop-color="#218CF8"/>
<stop offset="0.0791" stop-color="#3C83EC"/>
<stop offset="0.1435" stop-color="#6875D9"/>
<stop offset="0.2201" stop-color="#A562BE"/>
<stop offset="0.3059" stop-color="#F2499D"/>
<stop offset="0.3128" stop-color="#F9479A"/>
<stop offset="0.3152" stop-color="#F9489B"/>
<stop offset="0.379" stop-color="#FB5EAE"/>
<stop offset="0.4533" stop-color="#FC6FBD"/>
<stop offset="0.5449" stop-color="#FD7BC8"/>
<stop offset="0.6713" stop-color="#FE82CE"/>
<stop offset="1" stop-color="#FE84D0"/>
</linearGradient>
<linearGradient id="paint8_linear_566_19780" x1="546.748" y1="-341.275" x2="281.046" y2="764.453" gradientUnits="userSpaceOnUse">
<stop stop-color="#178FFC"/>
<stop offset="0.0292" stop-color="#218CF8"/>
<stop offset="0.0791" stop-color="#3C83EC"/>
<stop offset="0.1435" stop-color="#6875D9"/>
<stop offset="0.2201" stop-color="#A562BE"/>
<stop offset="0.3059" stop-color="#F2499D"/>
<stop offset="0.3128" stop-color="#F9479A"/>
<stop offset="0.3152" stop-color="#F9489B"/>
<stop offset="0.379" stop-color="#FB5EAE"/>
<stop offset="0.4533" stop-color="#FC6FBD"/>
<stop offset="0.5449" stop-color="#FD7BC8"/>
<stop offset="0.6713" stop-color="#FE82CE"/>
<stop offset="1" stop-color="#FE84D0"/>
</linearGradient>
<linearGradient id="paint9_linear_566_19780" x1="547.394" y1="-340.34" x2="281.691" y2="765.389" gradientUnits="userSpaceOnUse">
<stop stop-color="#178FFC"/>
<stop offset="0.0292" stop-color="#218CF8"/>
<stop offset="0.0791" stop-color="#3C83EC"/>
<stop offset="0.1435" stop-color="#6875D9"/>
<stop offset="0.2201" stop-color="#A562BE"/>
<stop offset="0.3059" stop-color="#F2499D"/>
<stop offset="0.3128" stop-color="#F9479A"/>
<stop offset="0.3152" stop-color="#F9489B"/>
<stop offset="0.379" stop-color="#FB5EAE"/>
<stop offset="0.4533" stop-color="#FC6FBD"/>
<stop offset="0.5449" stop-color="#FD7BC8"/>
<stop offset="0.6713" stop-color="#FE82CE"/>
<stop offset="1" stop-color="#FE84D0"/>
</linearGradient>
<linearGradient id="paint10_linear_566_19780" x1="544.339" y1="-343.791" x2="278.636" y2="761.937" gradientUnits="userSpaceOnUse">
<stop stop-color="#178FFC"/>
<stop offset="0.0292" stop-color="#218CF8"/>
<stop offset="0.0791" stop-color="#3C83EC"/>
<stop offset="0.1435" stop-color="#6875D9"/>
<stop offset="0.2201" stop-color="#A562BE"/>
<stop offset="0.3059" stop-color="#F2499D"/>
<stop offset="0.3128" stop-color="#F9479A"/>
<stop offset="0.3152" stop-color="#F9489B"/>
<stop offset="0.379" stop-color="#FB5EAE"/>
<stop offset="0.4533" stop-color="#FC6FBD"/>
<stop offset="0.5449" stop-color="#FD7BC8"/>
<stop offset="0.6713" stop-color="#FE82CE"/>
<stop offset="1" stop-color="#FE84D0"/>
</linearGradient>
<linearGradient id="paint11_linear_566_19780" x1="544.502" y1="-343.416" x2="278.799" y2="762.312" gradientUnits="userSpaceOnUse">
<stop stop-color="#178FFC"/>
<stop offset="0.0292" stop-color="#218CF8"/>
<stop offset="0.0791" stop-color="#3C83EC"/>
<stop offset="0.1435" stop-color="#6875D9"/>
<stop offset="0.2201" stop-color="#A562BE"/>
<stop offset="0.3059" stop-color="#F2499D"/>
<stop offset="0.3128" stop-color="#F9479A"/>
<stop offset="0.3152" stop-color="#F9489B"/>
<stop offset="0.379" stop-color="#FB5EAE"/>
<stop offset="0.4533" stop-color="#FC6FBD"/>
<stop offset="0.5449" stop-color="#FD7BC8"/>
<stop offset="0.6713" stop-color="#FE82CE"/>
<stop offset="1" stop-color="#FE84D0"/>
</linearGradient>
<linearGradient id="paint12_linear_566_19780" x1="543.061" y1="-344.53" x2="277.358" y2="761.198" gradientUnits="userSpaceOnUse">
<stop stop-color="#178FFC"/>
<stop offset="0.0292" stop-color="#218CF8"/>
<stop offset="0.0791" stop-color="#3C83EC"/>
<stop offset="0.1435" stop-color="#6875D9"/>
<stop offset="0.2201" stop-color="#A562BE"/>
<stop offset="0.3059" stop-color="#F2499D"/>
<stop offset="0.3128" stop-color="#F9479A"/>
<stop offset="0.3152" stop-color="#F9489B"/>
<stop offset="0.379" stop-color="#FB5EAE"/>
<stop offset="0.4533" stop-color="#FC6FBD"/>
<stop offset="0.5449" stop-color="#FD7BC8"/>
<stop offset="0.6713" stop-color="#FE82CE"/>
<stop offset="1" stop-color="#FE84D0"/>
</linearGradient>
<linearGradient id="paint13_linear_566_19780" x1="542.551" y1="-345.162" x2="276.554" y2="761.791" gradientUnits="userSpaceOnUse">
<stop stop-color="#178FFC"/>
<stop offset="0.0292" stop-color="#218CF8"/>
<stop offset="0.0791" stop-color="#3C83EC"/>
<stop offset="0.1435" stop-color="#6875D9"/>
<stop offset="0.2201" stop-color="#A562BE"/>
<stop offset="0.3059" stop-color="#F2499D"/>
<stop offset="0.3128" stop-color="#F9479A"/>
<stop offset="0.3152" stop-color="#F9489B"/>
<stop offset="0.379" stop-color="#FB5EAE"/>
<stop offset="0.4533" stop-color="#FC6FBD"/>
<stop offset="0.5449" stop-color="#FD7BC8"/>
<stop offset="0.6713" stop-color="#FE82CE"/>
<stop offset="1" stop-color="#FE84D0"/>
</linearGradient>
<linearGradient id="paint14_linear_566_19780" x1="542.324" y1="-346.417" x2="276.033" y2="761.761" gradientUnits="userSpaceOnUse">
<stop stop-color="#178FFC"/>
<stop offset="0.0292" stop-color="#218CF8"/>
<stop offset="0.0791" stop-color="#3C83EC"/>
<stop offset="0.1435" stop-color="#6875D9"/>
<stop offset="0.2201" stop-color="#A562BE"/>
<stop offset="0.3059" stop-color="#F2499D"/>
<stop offset="0.3128" stop-color="#F9479A"/>
<stop offset="0.3152" stop-color="#F9489B"/>
<stop offset="0.379" stop-color="#FB5EAE"/>
<stop offset="0.4533" stop-color="#FC6FBD"/>
<stop offset="0.5449" stop-color="#FD7BC8"/>
<stop offset="0.6713" stop-color="#FE82CE"/>
<stop offset="1" stop-color="#FE84D0"/>
</linearGradient>
<linearGradient id="paint15_linear_566_19780" x1="542.23" y1="-347.624" x2="275.645" y2="761.78" gradientUnits="userSpaceOnUse">
<stop stop-color="#178FFC"/>
<stop offset="0.0292" stop-color="#218CF8"/>
<stop offset="0.0791" stop-color="#3C83EC"/>
<stop offset="0.1435" stop-color="#6875D9"/>
<stop offset="0.2201" stop-color="#A562BE"/>
<stop offset="0.3059" stop-color="#F2499D"/>
<stop offset="0.3128" stop-color="#F9479A"/>
<stop offset="0.3152" stop-color="#F9489B"/>
<stop offset="0.379" stop-color="#FB5EAE"/>
<stop offset="0.4533" stop-color="#FC6FBD"/>
<stop offset="0.5449" stop-color="#FD7BC8"/>
<stop offset="0.6713" stop-color="#FE82CE"/>
<stop offset="1" stop-color="#FE84D0"/>
</linearGradient>
<linearGradient id="paint16_linear_566_19780" x1="542.253" y1="-348.785" x2="275.374" y2="761.841" gradientUnits="userSpaceOnUse">
<stop stop-color="#178FFC"/>
<stop offset="0.0292" stop-color="#218CF8"/>
<stop offset="0.0791" stop-color="#3C83EC"/>
<stop offset="0.1435" stop-color="#6875D9"/>
<stop offset="0.2201" stop-color="#A562BE"/>
<stop offset="0.3059" stop-color="#F2499D"/>
<stop offset="0.3128" stop-color="#F9479A"/>
<stop offset="0.3152" stop-color="#F9489B"/>
<stop offset="0.379" stop-color="#FB5EAE"/>
<stop offset="0.4533" stop-color="#FC6FBD"/>
<stop offset="0.5449" stop-color="#FD7BC8"/>
<stop offset="0.6713" stop-color="#FE82CE"/>
<stop offset="1" stop-color="#FE84D0"/>
</linearGradient>
<linearGradient id="paint17_linear_566_19780" x1="542.554" y1="-349.859" x2="275.381" y2="761.99" gradientUnits="userSpaceOnUse">
<stop stop-color="#178FFC"/>
<stop offset="0.0292" stop-color="#218CF8"/>
<stop offset="0.0791" stop-color="#3C83EC"/>
<stop offset="0.1435" stop-color="#6875D9"/>
<stop offset="0.2201" stop-color="#A562BE"/>
<stop offset="0.3059" stop-color="#F2499D"/>
<stop offset="0.3128" stop-color="#F9479A"/>
<stop offset="0.3152" stop-color="#F9489B"/>
<stop offset="0.379" stop-color="#FB5EAE"/>
<stop offset="0.4533" stop-color="#FC6FBD"/>
<stop offset="0.5449" stop-color="#FD7BC8"/>
<stop offset="0.6713" stop-color="#FE82CE"/>
<stop offset="1" stop-color="#FE84D0"/>
</linearGradient>
<linearGradient id="paint18_linear_566_19780" x1="543.059" y1="-350.862" x2="275.591" y2="762.213" gradientUnits="userSpaceOnUse">
<stop stop-color="#178FFC"/>
<stop offset="0.0292" stop-color="#218CF8"/>
<stop offset="0.0791" stop-color="#3C83EC"/>
<stop offset="0.1435" stop-color="#6875D9"/>
<stop offset="0.2201" stop-color="#A562BE"/>
<stop offset="0.3059" stop-color="#F2499D"/>
<stop offset="0.3128" stop-color="#F9479A"/>
<stop offset="0.3152" stop-color="#F9489B"/>
<stop offset="0.379" stop-color="#FB5EAE"/>
<stop offset="0.4533" stop-color="#FC6FBD"/>
<stop offset="0.5449" stop-color="#FD7BC8"/>
<stop offset="0.6713" stop-color="#FE82CE"/>
<stop offset="1" stop-color="#FE84D0"/>
</linearGradient>
<linearGradient id="paint19_linear_566_19780" x1="543.794" y1="-351.784" x2="276.032" y2="762.515" gradientUnits="userSpaceOnUse">
<stop stop-color="#178FFC"/>
<stop offset="0.0292" stop-color="#218CF8"/>
<stop offset="0.0791" stop-color="#3C83EC"/>
<stop offset="0.1435" stop-color="#6875D9"/>
<stop offset="0.2201" stop-color="#A562BE"/>
<stop offset="0.3059" stop-color="#F2499D"/>
<stop offset="0.3128" stop-color="#F9479A"/>
<stop offset="0.3152" stop-color="#F9489B"/>
<stop offset="0.379" stop-color="#FB5EAE"/>
<stop offset="0.4533" stop-color="#FC6FBD"/>
<stop offset="0.5449" stop-color="#FD7BC8"/>
<stop offset="0.6713" stop-color="#FE82CE"/>
<stop offset="1" stop-color="#FE84D0"/>
</linearGradient>
<linearGradient id="paint20_linear_566_19780" x1="545.038" y1="-352.529" x2="276.981" y2="762.998" gradientUnits="userSpaceOnUse">
<stop stop-color="#178FFC"/>
<stop offset="0.0292" stop-color="#218CF8"/>
<stop offset="0.0791" stop-color="#3C83EC"/>
<stop offset="0.1435" stop-color="#6875D9"/>
<stop offset="0.2201" stop-color="#A562BE"/>
<stop offset="0.3059" stop-color="#F2499D"/>
<stop offset="0.3128" stop-color="#F9479A"/>
<stop offset="0.3152" stop-color="#F9489B"/>
<stop offset="0.379" stop-color="#FB5EAE"/>
<stop offset="0.4533" stop-color="#FC6FBD"/>
<stop offset="0.5449" stop-color="#FD7BC8"/>
<stop offset="0.6713" stop-color="#FE82CE"/>
<stop offset="1" stop-color="#FE84D0"/>
</linearGradient>
<linearGradient id="paint21_linear_566_19780" x1="546.442" y1="-353.198" x2="278.092" y2="763.547" gradientUnits="userSpaceOnUse">
<stop stop-color="#178FFC"/>
<stop offset="0.0292" stop-color="#218CF8"/>
<stop offset="0.0791" stop-color="#3C83EC"/>
<stop offset="0.1435" stop-color="#6875D9"/>
<stop offset="0.2201" stop-color="#A562BE"/>
<stop offset="0.3059" stop-color="#F2499D"/>
<stop offset="0.3128" stop-color="#F9479A"/>
<stop offset="0.3152" stop-color="#F9489B"/>
<stop offset="0.379" stop-color="#FB5EAE"/>
<stop offset="0.4533" stop-color="#FC6FBD"/>
<stop offset="0.5449" stop-color="#FD7BC8"/>
<stop offset="0.6713" stop-color="#FE82CE"/>
<stop offset="1" stop-color="#FE84D0"/>
</linearGradient>
<linearGradient id="paint22_linear_566_19780" x1="547.791" y1="-353.859" x2="279.147" y2="764.111" gradientUnits="userSpaceOnUse">
<stop stop-color="#178FFC"/>
<stop offset="0.0292" stop-color="#218CF8"/>
<stop offset="0.0791" stop-color="#3C83EC"/>
<stop offset="0.1435" stop-color="#6875D9"/>
<stop offset="0.2201" stop-color="#A562BE"/>
<stop offset="0.3059" stop-color="#F2499D"/>
<stop offset="0.3128" stop-color="#F9479A"/>
<stop offset="0.3152" stop-color="#F9489B"/>
<stop offset="0.379" stop-color="#FB5EAE"/>
<stop offset="0.4533" stop-color="#FC6FBD"/>
<stop offset="0.5449" stop-color="#FD7BC8"/>
<stop offset="0.6713" stop-color="#FE82CE"/>
<stop offset="1" stop-color="#FE84D0"/>
</linearGradient>
<linearGradient id="paint23_linear_566_19780" x1="549.036" y1="-354.532" x2="280.098" y2="764.664" gradientUnits="userSpaceOnUse">
<stop stop-color="#178FFC"/>
<stop offset="0.0292" stop-color="#218CF8"/>
<stop offset="0.0791" stop-color="#3C83EC"/>
<stop offset="0.1435" stop-color="#6875D9"/>
<stop offset="0.2201" stop-color="#A562BE"/>
<stop offset="0.3059" stop-color="#F2499D"/>
<stop offset="0.3128" stop-color="#F9479A"/>
<stop offset="0.3152" stop-color="#F9489B"/>
<stop offset="0.379" stop-color="#FB5EAE"/>
<stop offset="0.4533" stop-color="#FC6FBD"/>
<stop offset="0.5449" stop-color="#FD7BC8"/>
<stop offset="0.6713" stop-color="#FE82CE"/>
<stop offset="1" stop-color="#FE84D0"/>
</linearGradient>
<linearGradient id="paint24_linear_566_19780" x1="547.138" y1="-355.067" x2="278.2" y2="764.129" gradientUnits="userSpaceOnUse">
<stop stop-color="#178FFC"/>
<stop offset="0.0292" stop-color="#218CF8"/>
<stop offset="0.0791" stop-color="#3C83EC"/>
<stop offset="0.1435" stop-color="#6875D9"/>
<stop offset="0.2201" stop-color="#A562BE"/>
<stop offset="0.3059" stop-color="#F2499D"/>
<stop offset="0.3128" stop-color="#F9479A"/>
<stop offset="0.3152" stop-color="#F9489B"/>
<stop offset="0.379" stop-color="#FB5EAE"/>
<stop offset="0.4533" stop-color="#FC6FBD"/>
<stop offset="0.5449" stop-color="#FD7BC8"/>
<stop offset="0.6713" stop-color="#FE82CE"/>
<stop offset="1" stop-color="#FE84D0"/>
</linearGradient>
<linearGradient id="paint25_linear_566_19780" x1="542.673" y1="-356.284" x2="273.734" y2="762.912" gradientUnits="userSpaceOnUse">
<stop stop-color="#178FFC"/>
<stop offset="0.0292" stop-color="#218CF8"/>
<stop offset="0.0791" stop-color="#3C83EC"/>
<stop offset="0.1435" stop-color="#6875D9"/>
<stop offset="0.2201" stop-color="#A562BE"/>
<stop offset="0.3059" stop-color="#F2499D"/>
<stop offset="0.3128" stop-color="#F9479A"/>
<stop offset="0.3152" stop-color="#F9489B"/>
<stop offset="0.379" stop-color="#FB5EAE"/>
<stop offset="0.4533" stop-color="#FC6FBD"/>
<stop offset="0.5449" stop-color="#FD7BC8"/>
<stop offset="0.6713" stop-color="#FE82CE"/>
<stop offset="1" stop-color="#FE84D0"/>
</linearGradient>
<linearGradient id="paint26_linear_566_19780" x1="544.992" y1="-355.888" x2="276.054" y2="763.308" gradientUnits="userSpaceOnUse">
<stop stop-color="#178FFC"/>
<stop offset="0.0292" stop-color="#218CF8"/>
<stop offset="0.0791" stop-color="#3C83EC"/>
<stop offset="0.1435" stop-color="#6875D9"/>
<stop offset="0.2201" stop-color="#A562BE"/>
<stop offset="0.3059" stop-color="#F2499D"/>
<stop offset="0.3128" stop-color="#F9479A"/>
<stop offset="0.3152" stop-color="#F9489B"/>
<stop offset="0.379" stop-color="#FB5EAE"/>
<stop offset="0.4533" stop-color="#FC6FBD"/>
<stop offset="0.5449" stop-color="#FD7BC8"/>
<stop offset="0.6713" stop-color="#FE82CE"/>
<stop offset="1" stop-color="#FE84D0"/>
</linearGradient>
</defs>
</svg>
