<svg width="40" height="40" viewBox="0 0 40 40" fill="none" xmlns="http://www.w3.org/2000/svg">
<circle cx="20" cy="20" r="20" fill="url(#paint0_linear_342_2398)"/>
<path d="M20.7077 29.2585C19.7352 29.2524 18.7965 29.0893 17.8917 28.7692C16.993 28.4491 16.1867 27.929 15.4727 27.2088C14.7586 26.4886 14.1924 25.5346 13.7738 24.3466C13.3614 23.1586 13.1552 21.6998 13.1552 19.9702C13.1613 18.3821 13.3429 16.9633 13.6999 15.7138C14.0631 14.4581 14.5801 13.3932 15.2511 12.5192C15.9281 11.6451 16.7376 10.9803 17.6793 10.5249C18.6211 10.0632 19.6767 9.83239 20.8462 9.83239C22.1081 9.83239 23.2222 10.0786 24.1886 10.571C25.1549 11.0573 25.9305 11.719 26.5153 12.5561C27.1062 13.3932 27.4632 14.3319 27.5863 15.3722H23.6438C23.4899 14.7135 23.1668 14.1965 22.6744 13.821C22.1819 13.4455 21.5726 13.2578 20.8462 13.2578C19.6152 13.2578 18.6796 13.7933 18.0394 14.8643C17.4054 15.9354 17.0823 17.3911 17.07 19.2315H17.1992C17.4824 18.6714 17.864 18.1944 18.3441 17.8004C18.8304 17.4003 19.3813 17.0956 19.9968 16.8864C20.6185 16.6709 21.274 16.5632 21.9634 16.5632C23.0837 16.5632 24.0808 16.8279 24.9549 17.3572C25.829 17.8804 26.5183 18.6006 27.0231 19.5178C27.5278 20.4349 27.7802 21.4844 27.7802 22.6662C27.7802 23.9465 27.4817 25.0852 26.8846 26.0824C26.2937 27.0795 25.4658 27.8613 24.4009 28.4276C23.3422 28.9877 22.1112 29.2647 20.7077 29.2585ZM20.6893 26.1193C21.3048 26.1193 21.8557 25.9716 22.342 25.6761C22.8282 25.3807 23.2099 24.9806 23.4869 24.4759C23.7638 23.9711 23.9023 23.4048 23.9023 22.777C23.9023 22.1491 23.7638 21.5859 23.4869 21.0874C23.216 20.5888 22.8406 20.1918 22.3604 19.8963C21.8803 19.6009 21.3325 19.4531 20.717 19.4531C20.2553 19.4531 19.8275 19.5393 19.4336 19.7116C19.0458 19.884 18.7042 20.1241 18.4087 20.4318C18.1194 20.7396 17.8917 21.0966 17.7255 21.5028C17.5593 21.9029 17.4762 22.3307 17.4762 22.7862C17.4762 23.3956 17.6147 23.9527 17.8917 24.4574C18.1748 24.9621 18.5565 25.3653 19.0366 25.6669C19.5228 25.9685 20.0737 26.1193 20.6893 26.1193Z" fill="white"/>
<defs>
<linearGradient id="paint0_linear_342_2398" x1="20" y1="0" x2="20" y2="40" gradientUnits="userSpaceOnUse">
<stop stop-color="#FF4910"/>
<stop offset="1" stop-color="#FF1074"/>
</linearGradient>
</defs>
</svg>
