<svg width="397" height="124" viewBox="0 0 397 124" fill="none" xmlns="http://www.w3.org/2000/svg">
<mask id="mask0_423_3712" style="mask-type:alpha" maskUnits="userSpaceOnUse" x="0" y="0" width="397" height="124">
<rect width="397" height="124" fill="#D9D9D9"/>
</mask>
<g mask="url(#mask0_423_3712)">
<g opacity="0.33">
<path d="M460.591 16.3254C458.749 17.0664 457.009 17.9068 455.23 18.8682C442.915 25.5765 435.04 36.3217 427.403 46.7431C425.479 49.3938 423.614 51.863 421.688 54.3128C415.017 62.7759 407.921 68.8316 400.539 72.2577C394.557 75.0677 388.66 76.1687 382.545 75.4634C370.093 74.1151 359.258 65.2763 351.229 57.6767C347.599 54.2349 344.008 50.6722 340.58 47.2285C331.45 38.072 322.016 28.617 311.021 21.9298C303.765 17.5178 295.8 14.6801 287.933 13.6096C277.45 12.1622 267.521 13.9648 259.268 18.846C251.455 23.4015 245.312 30.4328 239.369 37.2612C233.744 43.725 227.939 50.3311 220.867 54.6585C208.64 62.1295 196.505 62.2853 183.687 62.4878C173.822 62.642 163.695 62.7787 152.817 66.2782C139.456 70.6455 128.06 78.8521 117.79 87.0882C116.454 88.1257 115.158 89.2433 113.822 90.2808C105.865 96.7265 98.348 102.847 88.619 106.717C78.2091 110.835 65.8588 111.656 52.8341 109.188C38.8029 106.528 24.4154 100.215 12.4551 91.3468C2.68127 84.1858 -5.8594 75.6869 -13.5631 66.4565L-13.7974 67.1822C-6.13459 76.3326 2.36515 84.7515 12.0785 91.893C24.1598 100.8 38.6077 107.133 52.6994 109.812C65.8449 112.319 78.3553 111.416 88.8256 107.318C98.6347 103.406 106.212 97.306 114.188 90.7998C115.464 89.7427 116.82 88.6447 118.157 87.6071C128.407 79.4315 139.723 71.2658 153.004 66.9396C163.742 63.4614 173.868 63.3248 183.653 63.2115C196.593 63.0481 208.748 62.8318 221.134 55.2789C228.287 50.9105 234.13 44.1834 239.816 37.7392C245.74 30.9712 251.882 23.94 259.596 19.4859C267.749 14.7062 277.538 12.9249 287.88 14.3938C295.627 15.4252 303.511 18.304 310.726 22.636C321.68 29.2432 330.648 38.2806 340.183 47.8351C343.612 51.2788 347.183 54.902 350.833 58.2833C358.923 65.9024 369.859 74.8408 382.492 76.2476C388.687 76.912 394.705 75.8499 400.847 72.9581C408.309 69.491 415.505 63.3339 422.195 54.8104C424.101 52.4211 425.926 49.8718 427.91 47.2406C435.508 36.9401 443.364 26.2554 455.538 19.5686C457.157 18.6891 458.737 17.9305 460.358 17.252L460.651 16.345L460.591 16.3254Z" fill="url(#paint0_linear_423_3712)"/>
</g>
<g opacity="0.33">
<path d="M460.122 17.7766C458.882 18.3109 457.682 18.9253 456.463 19.6C443.988 26.3902 436.156 37.4163 428.521 48.0386C426.677 50.6484 424.892 53.0767 423.046 55.4855C416.457 64.1085 409.382 70.3047 402.021 73.8713C396.001 76.8021 390.103 77.9033 383.968 77.2584C371.437 75.9511 360.622 67.0517 352.592 59.4521C348.902 55.9908 345.331 52.3677 341.861 48.844C332.751 39.627 323.397 30.1311 312.361 23.3639C305.124 18.8915 297.119 15.9736 289.252 14.9032C278.728 13.3758 268.798 15.1784 260.425 20.0205C252.672 24.5955 246.53 31.6268 240.586 38.4553C234.881 44.96 229.038 51.687 221.905 55.9949C209.637 63.3859 197.5 63.3408 184.699 63.2819C174.692 63.2566 164.423 63.2138 153.424 66.6744C139.862 71.0435 128.089 79.7962 118.44 87.7651C117.064 88.9236 115.689 90.0821 114.313 91.2406C106.439 97.8463 99.0229 104.066 89.3953 108.036C79.0068 112.294 66.5979 113.297 53.4933 110.87C39.3626 108.311 24.9752 101.998 12.8939 93.0909C2.85677 85.7114 -5.90823 76.8729 -13.8167 67.2426L-14.0509 67.9682C-6.1834 77.5185 2.54057 86.277 12.5368 93.5765C24.6785 102.503 39.187 108.856 53.3782 111.433C66.6232 113.839 79.153 112.876 89.641 108.516C99.3486 104.505 106.844 98.2444 114.719 91.6387C116.094 90.4802 117.47 89.3217 118.845 88.1632C128.476 80.2547 140.168 71.5429 153.65 67.2147C164.509 63.7756 174.777 63.8185 184.724 63.8242C197.665 63.8617 209.863 63.9263 222.291 56.4534C229.564 52.1241 235.427 45.3366 241.152 38.7715C247.076 32.0035 253.157 24.9526 260.871 20.4986C269.025 15.7188 278.874 13.9571 289.277 15.4455C297.064 16.5569 304.949 19.4357 312.144 23.8281C323.059 30.5563 332.027 39.5937 341.483 49.1892C344.952 52.7128 348.584 56.3555 352.254 59.8773C360.325 67.5569 371.302 76.5752 384.035 77.8806C390.31 78.5041 396.287 77.362 402.448 74.4097C409.889 70.8022 417.044 64.5651 423.672 55.8211C425.518 53.4123 427.243 50.9645 429.147 48.3742C436.702 37.7928 444.556 26.9072 456.89 20.1384C457.93 19.6061 458.909 19.0542 459.929 18.5823L460.183 17.7962L460.122 17.7766Z" fill="url(#paint1_linear_423_3712)"/>
</g>
<g opacity="0.33">
<path d="M459.657 19.2285C459.017 19.5561 458.397 19.8233 457.798 20.2309C445.224 27.1225 437.333 38.33 429.76 49.1728C427.996 51.7416 426.291 54.1289 424.525 56.4968C418.018 65.2798 410.965 71.6165 403.645 75.263C397.665 78.2739 391.729 79.4958 385.534 78.8315C372.903 77.6255 362.066 68.5858 354.056 60.9258C350.385 57.404 346.713 53.6813 343.263 50.0971C334.232 40.8392 324.837 31.2633 313.881 24.4552C306.584 19.9632 298.599 16.985 290.691 15.8345C280.106 14.2876 270.136 16.0103 261.743 20.9129C254.009 25.4274 247.847 32.5191 241.924 39.2871C236.199 45.8523 230.256 52.6807 222.983 57.01C210.694 64.2606 198.554 64.0146 185.691 63.7352C175.602 63.55 165.13 63.3081 154.051 66.8096C140.288 71.1806 128.678 80.0524 119.11 88.1813C117.635 89.4412 116.24 90.6603 114.784 91.8597C107.072 98.5844 99.7573 104.903 90.1511 109.014C79.7646 113.473 67.3167 114.597 54.1321 112.21C39.9214 109.693 25.4539 103.421 13.3727 94.5137C3.01175 86.8961 -5.97754 77.7181 -14.0908 67.6879L-14.325 68.4135C-6.2527 78.3638 2.69558 87.4617 12.9551 94.9798C25.1573 103.926 39.7458 110.237 54.0169 112.774C67.342 115.139 79.9303 113.994 90.3968 109.494C100.023 105.323 107.398 99.0234 115.19 92.2577C116.585 91.0387 118.06 89.7789 119.515 88.5794C129.064 80.511 140.614 71.6196 154.217 67.3305C165.216 63.87 175.627 64.0923 185.636 64.3185C198.64 64.5764 210.84 64.842 223.289 57.5095C230.642 53.1392 236.585 46.3108 242.329 39.6852C248.193 32.8977 254.315 25.9268 261.969 21.4532C270.202 16.6325 280.032 14.9313 290.476 16.4997C298.263 17.6111 306.188 20.5698 313.425 25.0423C324.32 31.8309 333.269 40.9288 342.705 50.5848C346.215 54.1884 349.827 57.8915 353.558 61.4328C361.67 69.1924 372.628 78.2712 385.44 79.5357C391.715 80.1591 397.792 78.9157 403.912 75.8834C411.332 72.1355 418.465 65.7578 425.011 56.8539C426.777 54.486 428.422 52.0791 430.246 49.5298C437.799 38.7475 445.55 27.5614 458.024 20.7712C458.444 20.506 458.904 20.3208 459.304 20.116L459.597 19.209L459.657 19.2285Z" fill="url(#paint2_linear_423_3712)"/>
</g>
<g opacity="0.33">
<path d="M459.148 20.8L459.068 20.8411C446.334 27.8146 438.506 39.2425 430.976 50.3662C429.292 52.8941 427.666 55.2404 425.98 57.5673C419.555 66.5103 412.523 72.9875 405.225 76.7744C399.206 79.9062 393.27 81.1282 387.096 80.6043C374.264 79.4003 362.94 69.8026 355.517 62.5991C351.805 58.9973 348.152 55.2142 344.581 51.5911C335.57 42.2727 326.255 32.6558 315.319 25.7872C308.042 21.2348 300.015 18.1765 292.107 17.026C281.481 15.3991 271.431 17.1627 263.057 22.0048C255.324 26.5194 249.242 33.5702 243.299 40.3987C237.535 47.0847 231.572 53.9736 224.178 58.2639C211.848 65.4345 199.646 64.968 186.781 64.4877C176.55 64.123 165.936 63.7016 154.736 67.1641C140.852 71.4961 129.323 80.5279 119.837 88.8168C118.343 90.1372 116.848 91.4576 115.354 92.7779C107.743 99.6022 100.53 106.021 91.0055 110.291C80.6403 114.891 68.1534 116.135 54.8498 113.911C40.6196 111.454 26.0116 105.203 13.8699 96.2765C3.02328 88.3019 -6.19027 78.7845 -14.3054 68.5533L-14.5396 69.2789C-6.44591 79.3696 2.70714 88.8676 13.5128 96.7623C25.7559 105.789 40.4244 112.059 54.7951 114.494C68.2196 116.758 80.8275 115.552 91.3526 110.871C100.937 106.62 108.17 100.141 115.861 93.2755C117.355 91.9551 118.789 90.6151 120.344 89.3143C129.751 81.0663 141.26 72.0951 155.003 67.7845C166.123 64.363 176.616 64.7454 186.828 65.1706C199.814 65.6899 212.156 66.1349 224.586 58.8629C232.06 54.5317 238.042 47.5823 243.866 40.9157C249.73 34.1282 255.792 27.1379 263.445 22.6643C271.678 17.8435 281.569 16.1619 292.073 17.7498C299.902 18.9412 307.887 21.9195 315.044 26.4328C325.92 33.2819 334.788 42.4207 344.205 52.1371C347.756 55.8208 351.429 59.5435 355.14 63.1453C362.624 70.3683 374.05 80.0655 387.143 81.2871C393.438 81.8501 399.514 80.6066 405.613 77.4339C412.991 73.606 420.103 67.0879 426.568 58.024C428.253 55.6971 429.818 53.331 431.563 50.8227C438.954 39.9214 446.584 28.6963 458.896 21.7871L459.208 20.8195L459.148 20.8Z" fill="url(#paint3_linear_423_3712)"/>
</g>
<g opacity="0.33">
<path d="M458.582 22.5542C446.753 29.6195 439.325 40.8428 432.173 51.6212C430.569 54.1081 429.024 56.4136 427.418 58.6996C421.075 67.8025 414.125 74.4396 406.787 78.3476C400.749 81.5398 394.854 82.8418 388.6 82.3588C375.669 81.2563 364.323 71.518 356.9 64.3145C353.128 60.6933 349.494 56.8497 345.902 53.086C336.91 43.7072 327.676 34.0493 316.698 27.1007C309.44 22.4878 301.353 19.4101 293.404 18.1797C282.718 16.5332 272.627 18.2168 264.234 23.1194C256.5 27.634 250.418 34.6848 244.536 41.5328C238.752 48.2793 232.71 55.2091 225.236 59.5404C212.865 66.631 200.68 65.9031 187.693 65.1828C177.338 64.5782 166.642 63.9969 155.302 67.4808C141.217 71.8147 129.273 81.5135 120.446 89.4144C118.872 90.7757 117.338 92.2169 115.885 93.6173C108.375 100.541 101.244 107.12 91.8208 111.49C81.4576 116.29 68.9316 117.655 55.548 115.472C41.2183 113.117 26.6104 106.866 14.3478 97.9001C3.23786 89.7069 -6.24097 79.7701 -14.5199 69.219L-14.7541 69.9446C-6.51614 80.4157 2.92175 90.2726 13.9907 98.3858C26.2943 107.432 40.9627 113.702 55.4133 116.096C68.9179 118.319 81.5843 116.932 92.088 112.11C101.591 107.699 108.722 101.121 116.312 94.1559C117.826 92.775 119.359 91.3336 120.873 89.9528C129.639 82.0325 141.545 72.4545 155.489 68.1421C166.67 64.7401 177.365 65.3214 187.659 65.9066C200.708 66.6463 213.052 67.2923 225.563 60.1803C233.178 55.8276 239.179 48.8177 245.043 42.0302C250.906 35.2427 256.908 28.2329 264.561 23.7593C272.794 18.9386 282.745 17.2765 293.31 18.8839C301.199 20.0948 309.165 23.1335 316.362 27.7268C327.219 34.6364 336.454 44.2942 345.404 53.5931C348.956 57.2768 352.65 61.1399 356.402 64.8217C363.866 72.1051 375.314 81.9428 388.506 83.063C394.881 83.585 400.917 82.2616 407.055 78.9679C414.472 75.0191 421.502 68.341 427.884 59.1171C429.49 56.8311 431.036 54.5256 432.64 52.0387C439.652 41.4826 446.862 30.5228 458.209 23.5022L458.522 22.5347L458.582 22.5542Z" fill="url(#paint4_linear_423_3712)"/>
</g>
<g opacity="0.33">
<path d="M458.659 22.3119C447.193 29.4944 439.985 40.6553 433.095 51.4514C431.51 53.8778 430.045 56.1423 428.58 58.4068C422.298 67.7302 415.39 74.4473 408.093 78.4353C402.076 81.768 396.101 83.1109 389.847 82.6279C376.836 81.5663 365.51 71.7677 358.046 64.4842C354.233 60.7829 350.558 56.8593 346.965 53.0957C338.054 43.6759 328.839 33.9575 317.881 26.9485C310.582 22.2556 302.514 19.1173 294.565 17.8869C283.838 16.1605 273.687 17.8246 265.274 22.7877C257.541 27.3023 251.459 34.353 245.636 41.2205C239.773 48.008 233.752 55.0784 226.157 59.3706C213.765 66.3207 201.499 65.4328 188.509 64.5116C178.012 63.7275 167.174 62.9666 155.713 66.4115C141.487 70.7668 129.644 80.5652 120.899 88.626C119.286 90.1083 117.752 91.5496 116.199 93.0514C108.772 100.135 101.742 106.813 92.36 111.263C82.0182 116.204 69.4337 117.751 55.97 115.608C41.5604 113.294 26.8725 107.084 14.6098 98.1184C3.43942 89.9057 -6.08029 79.8888 -14.4412 69.1777L-14.6754 69.9034C-6.33597 80.474 3.06278 90.4518 14.1922 98.5845C26.5563 107.65 41.3047 113.879 55.8353 116.233C69.4198 118.414 82.1448 116.846 92.6271 111.883C102.089 107.393 109.138 100.654 116.646 93.5294C118.199 92.0276 119.733 90.5863 121.346 89.1041C130.011 81.0842 141.793 71.2663 155.919 67.0123C167.24 63.5889 177.998 64.3907 188.434 65.1554C201.545 66.1156 213.872 67.0229 226.444 59.9304C234.119 55.5973 240.2 48.5465 246.103 41.6381C251.905 34.8311 257.968 27.8407 265.621 23.3671C273.934 18.5054 283.885 16.8433 294.472 18.5911C302.36 19.802 310.367 22.9207 317.545 27.5746C328.382 34.5446 337.598 44.2629 346.528 53.6223C350.121 57.3859 353.795 61.3095 357.608 65.0107C365.114 72.3742 376.541 82.2724 389.753 83.3321C396.128 83.8541 402.264 82.4293 408.36 79.0556C415.756 74.9663 422.685 68.1887 429.065 58.7639C430.591 56.5189 432.057 54.2544 433.641 51.828C440.373 41.3147 447.423 30.4368 458.387 23.3595L458.719 22.3315L458.659 22.3119Z" fill="url(#paint5_linear_423_3712)"/>
</g>
<g opacity="0.33">
<path d="M458.991 21.2826C447.607 28.625 440.303 40.2892 433.811 50.6796C432.307 53.0651 430.921 55.2886 429.475 57.4927C423.276 66.9761 416.389 73.8336 409.114 77.962C403.077 81.3552 397.143 82.7781 390.809 82.3361C377.718 81.3154 366.351 71.4367 358.967 64.1123C355.173 60.3506 351.438 56.4074 347.865 52.5833C338.973 43.103 329.777 33.3243 318.859 26.1943C311.519 21.4215 303.451 18.2832 295.461 16.9728C284.693 15.1664 274.481 16.8109 266.068 21.774C258.335 26.2886 252.314 33.3589 246.45 40.1464C240.568 46.9944 234.466 54.1056 226.811 58.3783C214.378 65.2485 202.049 64.1401 189.057 63.018C178.479 62.0739 167.498 61.1336 155.936 64.479C141.589 68.7953 129.828 78.7536 121.146 87.0348C119.513 88.5776 117.94 90.1398 116.368 91.7021C109.041 98.8853 102.093 105.723 92.7933 110.333C82.4535 115.475 69.789 117.063 56.2259 115.022C41.7167 112.809 26.9488 106.64 14.6452 97.5942C3.53529 89.401 -5.98442 79.3842 -14.2848 68.6926L-14.519 69.4182C-6.25959 80.0298 3.21918 89.9666 14.2881 98.0798C26.7127 107.165 41.5215 113.414 56.1517 115.666C69.8357 117.746 82.5802 116.117 93.0801 110.893C102.46 106.242 109.468 99.4238 116.834 92.1196C118.406 90.5574 119.979 88.9951 121.612 87.4523C130.195 79.2725 141.876 69.3551 156.142 65.0798C167.584 61.6954 178.484 62.6767 189.003 63.6013C202.115 64.7624 214.565 65.9098 227.177 58.8973C234.973 54.6032 241.094 47.4314 246.996 40.523C252.799 33.716 258.801 26.706 266.455 22.2324C274.768 17.3708 284.779 15.7282 295.426 17.4956C303.295 18.767 311.283 21.9462 318.581 26.639C329.399 33.6695 338.595 43.4483 347.487 52.9286C351.06 56.7527 354.795 60.6958 358.649 64.4771C366.134 71.901 377.603 81.8792 390.914 82.8375C397.369 83.3185 403.444 81.8741 409.58 78.3795C416.935 74.2102 423.861 67.2317 430.14 57.7074C431.586 55.5033 432.991 53.2193 434.476 50.8943C441.107 40.2815 447.975 29.3449 458.778 22.1487L459.051 21.3021L458.991 21.2826Z" fill="url(#paint6_linear_423_3712)"/>
</g>
<g opacity="0.33">
<path d="M459.342 20.1945C448.12 27.656 440.998 39.3787 434.607 49.8686C433.183 52.2131 431.877 54.3957 430.451 56.5393C424.334 66.1827 417.528 73.2002 410.214 77.4495C404.199 80.9832 398.185 82.4471 391.851 82.005C378.72 81.1053 367.312 71.1466 359.887 63.7422C356.053 59.9005 352.338 55.8969 348.704 52.0533C339.832 42.5125 330.655 32.6733 319.816 25.5023C312.477 20.7294 304.388 17.4508 296.398 16.1404C285.569 14.3144 275.357 15.959 266.884 20.9026C259.15 25.4171 253.129 32.4874 247.326 39.2944C241.405 46.2634 235.284 53.4351 227.507 57.6687C215.033 64.4589 202.703 63.1497 189.588 61.7876C178.867 60.664 167.764 59.4837 156.121 62.87C141.654 67.1473 129.955 77.326 121.374 85.7068C119.722 87.31 118.05 88.9736 116.457 90.5964C109.213 97.9396 102.306 104.858 93.088 109.627C82.7696 114.91 70.0466 116.679 56.4035 114.679C41.8143 112.507 26.9663 106.379 14.6218 97.2531C3.55282 89.1399 -5.90639 79.1426 -14.2068 68.4511L-14.441 69.1767C-6.18156 79.7883 3.23669 89.7056 14.2452 97.7993C26.7107 106.964 41.5995 113.172 56.3291 115.323C70.0932 117.362 82.8962 115.552 93.3746 110.187C102.733 105.396 109.58 98.4586 116.904 91.0744C118.496 89.4517 120.149 87.8485 121.821 86.1848C130.322 77.845 141.921 67.7676 156.308 63.5313C167.81 60.1664 178.853 61.3271 189.494 62.4917C202.669 63.8733 215.121 65.2217 227.775 58.2891C235.65 53.954 241.851 46.7414 247.773 39.7725C253.576 32.9655 259.578 25.9555 267.151 21.5229C275.464 16.6612 285.536 15.0381 296.243 16.825C304.153 18.1763 312.201 21.3751 319.42 26.1089C330.199 33.2603 339.395 43.0392 348.206 52.5604C351.82 56.4645 355.596 60.4875 359.45 64.2688C366.916 71.7532 378.426 81.8114 391.818 82.7287C398.292 83.1493 404.386 81.6445 410.541 78.0894C417.936 73.7991 424.78 66.6606 430.977 56.9763C432.343 54.8132 433.729 52.5897 435.153 50.2452C441.682 39.5329 448.37 28.5378 459.01 21.2225L459.342 20.1945Z" fill="url(#paint7_linear_423_3712)"/>
</g>
<g opacity="0.33">
<path d="M459.672 19.1665C448.612 26.747 441.611 38.5086 435.401 49.0571C434.057 51.3607 432.771 53.4829 431.466 55.6656C425.37 65.4494 418.646 72.6268 411.373 76.9561C405.339 80.5502 399.365 82.0941 393.012 81.7126C379.801 80.8538 368.352 70.8151 360.947 63.3502C357.112 59.5085 353.296 55.4054 349.701 51.4409C340.909 41.8592 331.752 31.9594 320.872 24.7085C313.552 19.8752 305.402 16.577 297.371 15.1866C286.442 13.2612 276.229 14.9057 267.737 19.9097C260.003 24.4243 254.042 31.5141 248.24 38.3211C242.298 45.3505 236.078 52.6237 228.241 56.8378C215.726 63.548 203.333 62.0183 190.156 60.4357C179.312 59.0721 168.127 57.7319 156.363 61.0792C141.775 65.3175 130.159 75.6562 121.66 84.1969C119.968 85.9211 118.276 87.6452 116.665 89.3284C109.522 96.7711 102.697 103.849 93.5194 108.699C83.2029 114.182 70.4409 116.072 56.7178 114.113C42.0895 112.062 27.1812 105.915 14.7762 96.7693C3.76769 88.6756 -5.69155 78.6783 -13.9919 67.9868L-14.2262 68.7125C-5.96674 79.324 3.4516 89.2413 14.3392 97.296C26.8651 106.48 41.834 112.647 56.5831 114.737C70.4467 116.675 83.3297 114.824 93.8062 109.259C103.083 104.308 109.908 97.2296 117.131 89.7459C118.742 88.0627 120.434 86.3386 122.126 84.6144C130.545 76.1147 142.062 65.8773 156.51 61.6605C168.133 58.3347 179.258 59.6554 190.041 60.9995C203.279 62.6015 215.792 64.1703 228.467 57.3782C236.464 53.0822 242.685 45.809 248.645 38.7191C254.448 31.9121 260.389 24.8827 267.963 20.4501C276.295 15.5279 286.408 13.9849 297.157 15.8517C305.127 17.2226 313.156 20.4818 320.416 25.2956C331.175 32.5075 340.29 42.3273 349.083 51.909C352.738 55.893 356.513 59.9161 360.389 63.8378C367.896 71.4022 379.386 81.5209 392.858 82.3973C399.332 82.8179 405.526 81.2115 411.64 77.5765C419.013 73.1457 425.816 65.9273 431.951 56.0226C433.298 53.92 434.543 51.7178 435.948 49.4337C442.295 38.6629 448.881 27.5683 459.34 20.1945L459.672 19.1665Z" fill="url(#paint8_linear_423_3712)"/>
</g>
<g opacity="0.33">
<path d="M460.024 18.0769C449.145 25.7159 442.306 37.5966 436.137 48.2251C434.812 50.4682 433.587 52.6099 432.381 54.6911C426.367 64.6349 419.665 71.9529 412.413 76.4226C406.42 80.0967 400.347 81.742 393.993 81.3604C380.703 80.5426 369.274 70.4435 361.827 62.8986C357.952 58.9769 354.154 54.8133 350.499 50.8292C341.727 41.1871 332.65 31.2464 321.79 23.935C314.428 19.0217 306.298 15.663 298.267 14.2726C287.277 12.3276 277.024 13.8922 268.531 18.8963C260.798 23.4108 254.837 30.5007 249.034 37.3077C243.013 44.378 236.834 51.7312 228.856 55.9667C216.3 62.5969 203.845 60.8468 190.666 59.0633C179.74 57.5398 168.352 56.0005 156.528 59.3283C141.659 63.6094 129.648 74.7556 121.867 82.7268C120.156 84.5114 118.445 86.2961 116.814 88.0398C109.692 95.6229 103.029 102.82 93.8732 107.81C83.4982 113.475 70.777 115.445 56.9544 113.587C42.2462 111.577 27.2578 105.471 14.7923 96.3059C3.72333 88.1927 -5.63445 78.2948 -13.8744 67.6228L-14.1086 68.3484C-5.90962 78.9405 3.42674 88.6978 14.4352 96.7915C26.9612 105.976 42.0511 112.182 56.8997 114.171C70.8433 116.067 83.7848 114.035 94.2399 108.329C103.476 103.298 110.219 96.06 117.36 88.4164C118.991 86.6727 120.702 84.8881 122.413 83.1034C130.114 75.1731 142.025 64.1283 156.754 59.8686C168.438 56.5623 179.686 58.123 190.611 59.6466C203.911 61.4691 216.427 63.2387 229.223 56.4857C237.341 52.2287 243.6 44.8346 249.641 37.7038C255.383 30.8772 261.385 23.8674 268.959 19.4347C277.351 14.5321 287.484 12.9285 298.273 14.8753C306.244 16.2462 314.313 19.5855 321.553 24.4597C332.353 31.7516 341.389 41.6123 350.162 51.2544C353.817 55.2385 357.614 59.4021 361.49 63.3238C368.977 70.9487 380.508 81.1473 394.079 81.9222C400.634 82.3019 406.767 80.6761 412.86 76.9006C420.192 72.3899 426.993 64.9705 433.027 54.9663C434.313 52.8441 435.519 50.7629 436.783 48.5003C443.01 37.6905 449.475 26.5568 459.772 19.0639L460.084 18.0964L460.024 18.0769Z" fill="url(#paint9_linear_423_3712)"/>
</g>
<g opacity="0.33">
<path d="M460.357 17.0502C449.64 24.8083 442.922 36.7281 436.915 47.4756C435.67 49.6777 434.525 51.7785 433.319 53.8597C427.387 63.9634 420.706 71.4218 413.476 76.0321C407.443 79.8271 401.431 81.4919 394.997 81.1512C381.608 80.4348 370.198 70.2753 362.771 62.6699C358.854 58.6683 355.057 54.5047 351.361 50.4406C342.608 40.738 333.531 30.7973 322.71 23.365C315.368 18.3912 307.177 15.0129 299.105 13.5426C288.074 11.5176 277.741 13.1231 269.188 18.1076C261.515 22.6417 255.494 29.7121 249.751 36.5386C243.711 43.6694 237.512 51.083 229.414 55.2795C216.816 61.8297 204.299 59.8592 191.058 57.8553C179.989 56.1522 168.539 54.3925 156.594 57.6812C141.604 61.9233 129.675 73.2295 121.976 81.3608C120.245 83.2059 118.514 85.0509 116.844 86.9155C109.805 94.6587 103.182 101.936 94.1086 107.086C83.755 112.891 70.9753 115.043 57.0727 113.226C42.265 111.317 27.2161 105.191 14.6901 96.0067C3.68164 87.913 -5.63519 78.0953 -13.8751 67.4232L-14.1093 68.1488C-5.91035 78.7409 3.36551 88.4787 14.3135 96.5529C26.8805 105.817 42.0503 111.982 56.9985 113.87C71.0415 115.665 84.0221 113.512 94.4557 107.665C103.67 102.494 110.312 95.1562 117.371 87.3526C119.022 85.5484 120.711 83.6234 122.502 81.7978C130.121 73.7075 141.951 62.5027 156.801 58.2821C168.605 55.0148 179.995 56.755 191.003 58.4386C204.365 60.4815 216.943 62.4715 229.78 55.7985C237.958 51.561 244.237 44.1064 250.378 36.8742C256.12 30.0477 262.061 23.0183 269.635 18.5856C278.028 13.683 288.221 12.099 299.051 14.1258C307.062 15.5767 315.132 18.9159 322.413 23.8701C333.193 31.2225 342.21 41.1437 350.902 50.8268C354.598 54.8909 358.376 59.1149 362.293 63.1165C369.821 70.8214 381.332 81.0805 394.984 81.8145C401.557 82.1337 407.71 80.4475 413.842 76.551C421.153 71.8998 427.913 64.4004 433.884 54.1758C435.09 52.0945 436.296 50.0133 437.481 47.7917C443.606 36.8823 449.89 25.6901 460.005 18.1387L460.357 17.0502Z" fill="url(#paint10_linear_423_3712)"/>
</g>
<g opacity="0.33">
<path d="M460.687 16.0221C450.132 23.8992 443.595 35.8776 437.729 46.6036C436.564 48.7648 435.439 50.805 434.313 52.8453C428.462 63.109 421.864 70.7274 414.614 75.3981C408.622 79.2731 402.571 81.0589 396.077 80.6988C382.607 80.0233 371.156 69.7837 363.749 62.1179C359.852 58.0558 356.014 53.8122 352.277 49.6682C343.524 39.9655 334.546 29.9235 323.744 22.4306C316.422 17.3964 308.251 13.9577 300.119 12.4678C289.047 10.3628 278.653 11.9489 270.1 16.9334C262.427 21.4675 256.466 28.5573 250.644 35.4247C244.564 42.6765 238.285 50.1311 230.126 54.3081C217.428 60.7588 204.889 58.6478 191.605 56.363C180.414 54.4199 168.881 52.5002 156.856 55.8299C141.745 60.0329 129.898 71.4992 122.281 79.7904C120.531 81.6959 118.822 83.6815 117.151 85.5461C110.213 93.3887 103.653 100.886 94.56 106.097C84.2883 112.062 71.4091 114.315 57.3465 112.58C42.3983 110.693 27.33 104.627 14.804 95.4429C3.8365 87.4292 -5.40041 77.5705 -13.6403 66.8984L-13.8745 67.624C-5.67557 78.2161 3.53991 87.9344 14.447 95.9285C27.0744 105.212 42.2636 111.317 57.2918 113.163C71.4948 114.877 84.454 112.583 94.8857 106.536C104.079 101.224 110.638 93.7262 117.657 85.8426C119.327 83.978 121.036 81.9924 122.786 80.0869C130.323 71.8366 142.071 60.4719 157.042 56.2903C168.907 53.0426 180.439 54.9623 191.509 56.8663C204.934 59.1296 217.574 61.3401 230.452 54.747C238.771 50.4881 245.069 42.9731 251.209 35.7409C256.952 28.9144 262.833 21.8654 270.486 17.3918C278.899 12.4287 289.132 10.9247 300.023 12.971C308.095 14.4414 316.145 17.8411 323.407 22.8559C334.168 30.2687 343.145 40.3108 351.838 49.9939C355.514 54.1184 359.413 58.3815 363.31 62.4437C370.838 70.1485 382.371 80.548 396.102 81.2411C402.736 81.5798 408.928 79.7726 415.019 75.7962C422.369 71.0241 429.048 63.3647 434.937 52.9801C436.063 50.9398 437.189 48.8995 438.354 46.7383C444.298 35.7704 450.46 24.5391 460.414 16.8687L460.687 16.0221Z" fill="url(#paint11_linear_423_3712)"/>
</g>
<g opacity="0.33">
<path d="M461.022 14.9958C450.648 22.9315 444.232 34.9489 438.528 45.7939C437.383 47.8947 436.317 49.9544 435.211 51.9342C429.442 62.3579 422.865 70.1167 415.637 74.9279C409.606 78.9239 403.555 80.7097 397.041 80.41C383.492 79.7755 372.06 69.4754 364.592 61.7901C360.635 57.7084 356.756 53.3848 353.038 49.1803C344.365 39.4368 335.347 29.3147 324.564 21.7614C317.182 16.7076 309.03 13.2084 300.857 11.6385C289.725 9.51407 279.35 11.0397 270.717 16.0652C263.044 20.5992 257.083 27.689 251.322 34.576C245.222 41.8882 238.924 49.4033 230.625 53.6017C217.885 59.9725 205.284 57.641 191.937 55.1358C180.664 53.0328 169.009 50.873 156.863 54.1637C141.631 58.3276 129.907 70.0338 122.331 78.405C120.561 80.3711 118.832 82.4171 117.143 84.3421C110.286 92.3448 103.767 99.9222 94.7559 105.293C84.4256 111.44 71.5679 113.833 57.4254 112.139C42.4381 110.373 27.2489 104.268 14.6625 95.0641C3.75538 87.07 -5.50111 77.2717 -13.661 66.5587L-13.8953 67.2843C-5.69629 77.8763 3.45867 87.5752 14.3053 95.5499C26.9931 104.853 42.243 110.978 57.3511 112.783C71.6341 114.455 84.6324 112.041 95.0622 105.792C104.173 100.32 110.752 92.7623 117.628 84.6992C119.337 82.7137 121.047 80.7281 122.816 78.7621C130.313 70.4319 141.998 58.8467 157.029 54.6846C169.015 51.4759 180.61 53.616 191.822 55.6995C205.309 58.1833 218.031 60.5538 230.931 54.1011C239.37 49.8813 245.688 42.3058 251.868 34.9526C257.61 28.1261 263.491 21.0772 271.084 16.5841C279.557 11.6405 289.791 10.1364 300.742 12.2023C308.794 13.7332 316.946 17.2323 324.207 22.2471C334.949 29.7204 343.907 39.8229 352.58 49.5665C356.297 53.771 360.176 58.0946 364.134 62.1763C371.643 69.9416 383.216 80.4211 397.047 81.0128C403.701 81.291 409.893 79.4838 416.023 75.3864C423.331 70.5343 429.989 62.7345 435.796 52.1899C436.902 50.2101 437.968 48.1502 439.113 46.0495C444.936 35.0425 450.978 23.7723 460.69 16.0238L461.022 14.9958Z" fill="url(#paint12_linear_423_3712)"/>
</g>
<g opacity="0.33">
<path d="M461.355 13.9668C451.144 22.0214 444.909 34.0973 439.326 44.9814C438.26 47.0412 437.214 49.0405 436.188 50.9794C430.501 61.5631 423.945 69.4623 416.739 74.4139C410.749 78.4899 404.659 80.3967 398.065 80.1379C384.416 79.6048 372.963 69.1643 365.515 61.4185C361.516 57.2568 357.657 52.8728 353.898 48.5883C345.245 38.7842 336.306 28.6212 325.483 20.9879C318.12 15.8737 309.927 12.2946 301.754 10.7247C290.581 8.52025 280.146 10.0262 271.493 15.1122C263.82 19.6462 257.86 26.7361 252.098 33.6231C245.979 40.9958 239.581 48.6122 231.241 52.7307C218.46 59.0214 205.797 56.4695 192.368 53.8043C180.953 51.5218 169.175 49.1222 156.969 52.3933C141.676 56.5378 129.973 68.3844 122.539 76.9351C120.75 78.9616 119.002 81.068 117.273 83.114C110.438 91.2571 104.021 98.9341 95.0308 104.445C84.7219 110.733 71.7647 113.227 57.5636 111.715C42.4964 109.989 27.227 103.926 14.5801 94.7022C3.7335 86.7275 -5.46239 76.9488 -13.6418 66.2962L-13.8761 67.0218C-5.73755 77.5944 3.41739 87.2932 14.223 95.1878C26.9714 104.511 42.3012 110.594 57.4893 112.358C71.8719 113.929 84.909 111.394 95.3779 105.025C104.448 99.4726 110.965 91.6942 117.8 83.5512C119.528 81.5051 121.257 79.4591 123.005 77.3526C130.42 68.8624 142.023 57.1172 157.175 52.9942C169.222 49.805 180.959 52.1245 192.234 54.4285C205.783 57.1327 218.568 59.7237 231.508 53.3511C240.008 49.1507 246.426 41.4738 252.624 34.0601C258.306 27.2141 264.187 20.1652 271.841 15.6916C280.333 10.6876 290.627 9.203 301.66 11.4289C309.773 12.9792 317.905 16.5389 325.147 21.6141C335.869 29.1479 344.808 39.3109 353.401 49.0954C357.159 53.3799 361.019 57.764 365.017 61.9256C372.567 69.7709 384.121 80.311 398.032 80.8617C404.705 81.0794 410.917 79.2117 417.066 75.0538C424.353 70.0613 430.989 62.1211 436.715 51.4165C437.741 49.4777 438.806 47.4179 439.852 45.4185C445.554 34.3725 451.415 23.0437 460.965 15.1761L461.355 13.9668Z" fill="url(#paint13_linear_423_3712)"/>
</g>
<g opacity="0.33">
<path d="M461.687 12.9392C451.717 21.072 445.603 33.1869 440.141 44.11C439.156 46.1288 438.13 48.0677 437.164 50.0261C431.659 60.6683 425.005 68.8699 417.859 73.8411C411.83 78.0379 405.739 79.9447 399.187 79.766C385.518 79.2934 374.005 68.8333 366.535 60.947C362.556 56.7249 358.656 52.2609 354.897 47.9764C346.263 38.1119 337.344 27.8884 326.601 20.2142C319.257 15.0395 311.005 11.4408 302.79 9.7909C291.576 7.50649 281.061 9.05342 272.428 14.0789C264.755 18.613 258.794 25.7028 253.093 32.6094C246.955 40.0425 240.537 47.7194 232.057 51.8593C219.235 58.07 206.49 55.3582 193.018 52.412C181.541 49.9091 169.681 47.3494 157.353 50.5815C141.94 54.687 130.319 66.6936 122.967 75.4043C121.158 77.4912 119.39 79.6581 117.703 81.7841C110.95 90.0872 104.614 97.9241 95.5851 103.556C85.2782 110.044 72.2818 112.66 58.0007 111.188C42.834 109.565 27.5648 103.501 14.8769 94.1974C4.07125 86.3027 -5.06424 76.5434 -13.2242 65.8304L-13.4779 66.6166C-5.33942 77.1891 3.81559 86.8879 14.5003 94.7436C27.2896 104.147 42.6993 110.189 57.987 111.852C72.4495 113.382 85.6058 110.684 95.9927 104.155C105.041 98.4627 111.457 90.5848 118.229 82.2213C119.917 80.0953 121.685 77.9283 123.494 75.8413C130.826 67.1911 142.367 55.2255 157.56 51.1824C169.686 47.9523 181.527 50.5724 192.944 53.0558C206.556 55.9805 219.403 58.7919 232.464 52.4583C241.085 48.297 247.522 40.5595 253.68 33.0659C259.362 26.2199 265.262 19.1106 272.836 14.6779C281.328 9.67388 291.683 8.2088 302.777 10.4542C310.93 12.0845 319.062 15.6442 326.345 20.7994C337.048 28.3936 345.967 38.6171 354.54 48.4621C358.299 52.7466 362.199 57.2106 366.238 61.4522C373.769 69.358 385.364 79.978 399.294 80.4682C405.907 80.6665 412.358 78.676 418.387 74.4791C425.713 69.3656 432.267 61.2653 437.911 50.4008C438.937 48.4619 439.903 46.5036 440.888 44.4847C446.47 33.3997 452.148 22.0123 461.517 14.0862L461.869 12.9978L461.687 12.9392Z" fill="url(#paint14_linear_423_3712)"/>
</g>
<g opacity="0.33">
<path d="M462.015 11.9095C452.207 20.1612 446.275 32.3348 440.933 43.2969C439.967 45.2553 439.002 47.2137 438.075 49.0511C432.652 59.8533 426.019 68.1955 418.894 73.307C412.987 77.543 406.656 79.5725 400.164 79.4133C389.712 79.111 379.287 73.1417 367.452 60.5748C363.413 56.3332 359.531 51.8088 355.732 47.4443C347.118 37.5193 338.218 27.2353 327.494 19.5006C320.17 14.2655 311.877 10.5868 303.662 8.93687C292.387 6.63294 281.832 8.09991 273.179 13.1859C265.506 17.7199 259.606 24.8293 253.844 31.7163C247.626 39.1904 241.249 46.9473 232.648 51.0482C219.705 57.2199 206.917 54.227 193.383 51.0605C182.025 48.3956 170.264 45.7346 158.114 48.6234C157.894 48.6857 157.613 48.7286 157.392 48.791C141.858 52.8574 130.36 65.104 123.029 73.9551C121.262 76.1221 119.474 78.3495 117.767 80.536C111.096 88.999 104.801 96.9159 95.8543 102.708C85.5688 109.337 72.5139 112.134 58.1528 110.703C42.9666 109.14 27.5373 103.158 14.8085 93.7743C3.96194 85.7996 -5.09163 76.2004 -13.2106 65.5674L-13.4644 66.3535C-5.38633 76.9065 3.68676 86.4453 14.4319 94.3205C27.2817 103.743 42.7519 109.805 58.0786 111.347C72.6406 112.775 85.8163 110.017 96.2014 103.287C105.228 97.4544 111.562 89.4165 118.294 80.973C120.001 78.7865 121.788 76.5591 123.556 74.3921C135.138 60.4367 145.914 52.4973 157.58 49.4524C169.827 46.2613 181.689 49.0217 193.229 51.7451C206.903 54.8903 219.812 57.9222 232.915 51.6686C241.596 47.5268 248.053 39.7289 254.31 32.1338C259.992 25.2878 265.892 18.1784 273.466 13.7458C282.019 8.76128 292.374 7.29621 303.528 9.56111C311.681 11.1915 319.854 14.8311 327.137 19.9863C337.82 27.641 346.659 37.9054 355.274 47.8304C359.073 52.1949 362.954 56.7194 366.974 61.0215C374.485 68.9878 386.121 79.6878 400.15 80.0766C406.824 80.2943 413.254 78.1633 419.302 73.9059C426.507 68.7534 433.178 60.2903 438.681 49.4472C439.628 47.5493 440.594 45.5909 441.559 43.6326C447.02 32.5085 452.558 21.1426 461.685 13.1385L462.075 11.929L462.015 11.9095Z" fill="url(#paint15_linear_423_3712)"/>
</g>
<g opacity="0.33">
<path d="M462.348 10.8821C452.782 19.2119 446.97 31.4244 441.75 42.4257C440.864 44.3431 439.917 46.241 439.051 48.098C435.326 55.7091 428.996 66.2185 419.996 72.7947C414.069 77.0911 407.779 79.2006 401.207 79.0824C390.675 78.821 380.269 72.7913 368.393 60.1445C364.313 55.8228 360.391 51.2184 356.611 46.7934C348.016 36.808 339.197 26.483 328.432 18.6683C321.067 13.3532 312.834 9.69404 304.518 7.94466C293.202 5.56074 282.586 7.00819 273.914 12.1546C266.241 16.6887 260.321 23.8585 254.62 30.765C248.382 38.2996 241.966 46.1775 233.263 50.1788C220.28 56.2705 207.429 53.0573 193.814 49.7307C182.131 46.8278 170.006 43.8488 157.558 47.0418C145.691 50.0886 134.796 58.19 123.238 72.4869C121.45 74.7143 119.643 77.0021 117.917 79.249C111.286 87.7921 105.054 95.9294 96.1286 101.862C85.845 108.692 72.7706 111.549 58.31 110.22C43.0242 108.758 27.5345 102.756 14.7453 93.3535C3.93961 85.4589 -5.11392 75.8596 -13.1724 65.2461L-13.4262 66.0322C-5.34815 76.5852 3.66444 86.1045 14.3687 93.8997C27.2789 103.342 42.8291 109.363 58.2357 110.864C72.8777 112.251 86.112 109.312 96.4756 102.441C105.481 96.4679 112.032 87.9658 118.443 79.6861C120.17 77.4392 121.916 75.1318 123.764 72.9239C135.223 58.7285 146.018 50.7286 157.745 47.7031C170.053 44.5316 182.037 47.532 193.659 50.4154C207.396 53.781 220.368 57.0333 233.53 50.7992C242.333 46.6965 248.828 38.7777 255.086 31.1826C260.768 24.3366 266.608 17.2077 274.201 12.7146C282.773 7.66958 293.169 6.28445 304.364 8.62934C312.558 10.3397 320.731 13.9793 328.055 19.2145C338.719 26.9297 347.538 37.2546 356.073 47.2205C359.852 51.6455 363.774 56.25 367.855 60.5716C379.812 73.3785 390.4 79.4667 401.133 79.7262C407.826 79.8834 414.275 77.692 420.302 73.2942C429.382 66.677 435.811 56.0661 439.556 48.3946C440.483 46.5571 441.369 44.6397 442.255 42.7223C447.514 31.6001 452.992 20.2147 461.877 12.1325L462.287 10.8626L462.348 10.8821Z" fill="url(#paint16_linear_423_3712)"/>
</g>
<g opacity="0.33">
<path d="M462.66 9.91536C453.256 18.3642 447.665 30.5144 442.566 41.5546C441.699 43.4116 440.833 45.2685 439.966 47.1255C436.262 54.8771 430.033 65.4859 421.055 72.2026C415.149 76.6395 408.84 78.8096 402.208 78.6718C391.596 78.4514 381.129 72.4021 369.292 59.6343C365.232 55.2522 361.249 50.6282 357.489 46.1428C348.974 36.1164 340.114 25.7114 329.368 17.8363C322.023 12.4606 313.749 8.72151 305.433 6.97212C294.057 4.56867 283.4 5.93619 274.728 11.0826C267.054 15.6167 261.135 22.7865 255.433 29.693C249.176 37.2881 242.68 45.2069 233.897 49.2492C220.873 55.2609 207.94 51.8877 194.262 48.3407C182.559 45.2973 170.492 42.1369 158.102 45.1485C157.962 45.1699 157.821 45.1914 157.741 45.2323C145.814 48.2596 134.9 56.4214 123.464 70.9582C121.657 73.2461 119.891 75.614 118.145 77.9214C111.597 86.6244 105.386 94.9021 96.5013 100.915C86.2391 107.885 73.1061 110.924 58.5051 109.616C43.1394 108.195 27.6301 102.254 14.7804 92.8314C4.09566 84.9758 -4.95786 75.3766 -13.0359 64.8236L-13.2896 65.6096C-5.27205 76.1431 3.76003 85.6019 14.3843 93.4381C27.3354 102.96 42.9656 108.94 58.4718 110.339C73.1938 111.686 86.4672 108.626 96.9088 101.514C105.893 95.3997 112.422 86.7572 118.732 78.3779C120.478 76.0705 122.244 73.7026 124.051 71.4147C135.428 57.0594 146.202 48.919 157.989 45.9132C170.398 42.8411 182.484 45.941 194.169 49.0448C207.968 52.6309 221.021 56.0432 234.266 49.969C243.209 45.8448 249.704 37.9261 256.001 30.2101C261.642 23.2841 267.542 16.1747 275.116 11.742C283.688 6.69704 294.144 5.33144 305.4 7.69584C313.655 9.42571 321.869 13.1454 329.113 18.4215C339.757 26.1972 348.556 36.5825 357.071 46.6089C360.892 51.1139 364.814 55.7183 368.935 60.1199C380.934 73.0068 391.521 79.095 402.315 79.374C409.088 79.4903 415.537 77.2989 421.542 72.7606C430.601 66.003 436.949 55.2322 440.672 47.4201C441.519 45.6237 442.386 43.7668 443.272 41.8494C448.41 30.6882 453.687 19.3045 462.41 11.1033L462.781 9.95443L462.66 9.91536Z" fill="url(#paint17_linear_423_3712)"/>
</g>
</g>
<defs>
<linearGradient id="paint0_linear_423_3712" x1="387.313" y1="81.7969" x2="8.3769" y2="92.6546" gradientUnits="userSpaceOnUse">
<stop stop-color="#FF3AE0"/>
<stop offset="0.515625" stop-color="#FF4910"/>
<stop offset="0.873325" stop-color="#FF1F5A"/>
<stop offset="1" stop-color="#FF1074"/>
</linearGradient>
<linearGradient id="paint1_linear_423_3712" x1="386.859" y1="83.2058" x2="7.94633" y2="94.1255" gradientUnits="userSpaceOnUse">
<stop stop-color="#FF3AE0"/>
<stop offset="0.515625" stop-color="#FF4910"/>
<stop offset="0.873325" stop-color="#FF1F5A"/>
<stop offset="1" stop-color="#FF1074"/>
</linearGradient>
<linearGradient id="paint2_linear_423_3712" x1="386.374" y1="84.4884" x2="7.49667" y2="95.6434" gradientUnits="userSpaceOnUse">
<stop stop-color="#FF3AE0"/>
<stop offset="0.515625" stop-color="#FF4910"/>
<stop offset="0.873325" stop-color="#FF1F5A"/>
<stop offset="1" stop-color="#FF1074"/>
</linearGradient>
<linearGradient id="paint3_linear_423_3712" x1="385.944" y1="86.019" x2="7.10192" y2="97.2629" gradientUnits="userSpaceOnUse">
<stop stop-color="#FF3AE0"/>
<stop offset="0.515625" stop-color="#FF4910"/>
<stop offset="0.873325" stop-color="#FF1F5A"/>
<stop offset="1" stop-color="#FF1074"/>
</linearGradient>
<linearGradient id="paint4_linear_423_3712" x1="385.381" y1="87.5807" x2="6.68833" y2="99.0638" gradientUnits="userSpaceOnUse">
<stop stop-color="#FF3AE0"/>
<stop offset="0.515625" stop-color="#FF4910"/>
<stop offset="0.873325" stop-color="#FF1F5A"/>
<stop offset="1" stop-color="#FF1074"/>
</linearGradient>
<linearGradient id="paint5_linear_423_3712" x1="385.481" y1="87.4746" x2="6.72084" y2="98.7858" gradientUnits="userSpaceOnUse">
<stop stop-color="#FF3AE0"/>
<stop offset="0.515625" stop-color="#FF4910"/>
<stop offset="0.873325" stop-color="#FF1F5A"/>
<stop offset="1" stop-color="#FF1074"/>
</linearGradient>
<linearGradient id="paint6_linear_423_3712" x1="385.749" y1="86.6445" x2="6.87453" y2="97.6628" gradientUnits="userSpaceOnUse">
<stop stop-color="#FF3AE0"/>
<stop offset="0.515625" stop-color="#FF4910"/>
<stop offset="0.873325" stop-color="#FF1F5A"/>
<stop offset="1" stop-color="#FF1074"/>
</linearGradient>
<linearGradient id="paint7_linear_423_3712" x1="385.942" y1="85.8635" x2="6.93269" y2="96.3886" gradientUnits="userSpaceOnUse">
<stop stop-color="#FF3AE0"/>
<stop offset="0.515625" stop-color="#FF4910"/>
<stop offset="0.873325" stop-color="#FF1F5A"/>
<stop offset="1" stop-color="#FF1074"/>
</linearGradient>
<linearGradient id="paint8_linear_423_3712" x1="386.217" y1="85.0276" x2="7.15076" y2="95.2577" gradientUnits="userSpaceOnUse">
<stop stop-color="#FF3AE0"/>
<stop offset="0.515625" stop-color="#FF4910"/>
<stop offset="0.873325" stop-color="#FF1F5A"/>
<stop offset="1" stop-color="#FF1074"/>
</linearGradient>
<linearGradient id="paint9_linear_423_3712" x1="386.55" y1="84.1801" x2="7.31016" y2="94.103" gradientUnits="userSpaceOnUse">
<stop stop-color="#FF3AE0"/>
<stop offset="0.515625" stop-color="#FF4910"/>
<stop offset="0.873325" stop-color="#FF1F5A"/>
<stop offset="1" stop-color="#FF1074"/>
</linearGradient>
<linearGradient id="paint10_linear_423_3712" x1="386.717" y1="83.4604" x2="7.29834" y2="92.9125" gradientUnits="userSpaceOnUse">
<stop stop-color="#FF3AE0"/>
<stop offset="0.515625" stop-color="#FF4910"/>
<stop offset="0.873325" stop-color="#FF1F5A"/>
<stop offset="1" stop-color="#FF1074"/>
</linearGradient>
<linearGradient id="paint11_linear_423_3712" x1="387.008" y1="82.5783" x2="7.56015" y2="91.8056" gradientUnits="userSpaceOnUse">
<stop stop-color="#FF3AE0"/>
<stop offset="0.515625" stop-color="#FF4910"/>
<stop offset="0.873325" stop-color="#FF1F5A"/>
<stop offset="1" stop-color="#FF1074"/>
</linearGradient>
<linearGradient id="paint12_linear_423_3712" x1="387.239" y1="81.8276" x2="7.54187" y2="90.6912" gradientUnits="userSpaceOnUse">
<stop stop-color="#FF3AE0"/>
<stop offset="0.515625" stop-color="#FF4910"/>
<stop offset="0.873325" stop-color="#FF1F5A"/>
<stop offset="1" stop-color="#FF1074"/>
</linearGradient>
<linearGradient id="paint13_linear_423_3712" x1="387.48" y1="81.06" x2="7.59398" y2="89.5667" gradientUnits="userSpaceOnUse">
<stop stop-color="#FF3AE0"/>
<stop offset="0.515625" stop-color="#FF4910"/>
<stop offset="0.873325" stop-color="#FF1F5A"/>
<stop offset="1" stop-color="#FF1074"/>
</linearGradient>
<linearGradient id="paint14_linear_423_3712" x1="387.933" y1="80.3025" x2="7.98534" y2="88.4945" gradientUnits="userSpaceOnUse">
<stop stop-color="#FF3AE0"/>
<stop offset="0.515625" stop-color="#FF4910"/>
<stop offset="0.873325" stop-color="#FF1F5A"/>
<stop offset="1" stop-color="#FF1074"/>
</linearGradient>
<linearGradient id="paint15_linear_423_3712" x1="388.065" y1="79.4872" x2="8.03603" y2="87.3067" gradientUnits="userSpaceOnUse">
<stop stop-color="#FF3AE0"/>
<stop offset="0.515625" stop-color="#FF4910"/>
<stop offset="0.873325" stop-color="#FF1F5A"/>
<stop offset="1" stop-color="#FF1074"/>
</linearGradient>
<linearGradient id="paint16_linear_423_3712" x1="388.26" y1="78.6814" x2="8.10612" y2="86.1625" gradientUnits="userSpaceOnUse">
<stop stop-color="#FF3AE0"/>
<stop offset="0.515625" stop-color="#FF4910"/>
<stop offset="0.873325" stop-color="#FF1F5A"/>
<stop offset="1" stop-color="#FF1074"/>
</linearGradient>
<linearGradient id="paint17_linear_423_3712" x1="388.611" y1="77.9602" x2="8.25103" y2="85.1825" gradientUnits="userSpaceOnUse">
<stop stop-color="#FF3AE0"/>
<stop offset="0.515625" stop-color="#FF4910"/>
<stop offset="0.873325" stop-color="#FF1F5A"/>
<stop offset="1" stop-color="#FF1074"/>
</linearGradient>
</defs>
</svg>
