<svg width="283" height="117" viewBox="0 0 283 117" fill="none" xmlns="http://www.w3.org/2000/svg">
<mask id="mask0_423_3673" style="mask-type:alpha" maskUnits="userSpaceOnUse" x="0" y="0" width="283" height="117">
<rect x="0.0126953" y="12.0664" width="278.765" height="105" transform="rotate(-2.30152 0.0126953 12.0664)" fill="url(#paint0_linear_423_3673)"/>
</mask>
<g mask="url(#mask0_423_3673)">
<g opacity="0.33">
<path d="M280.494 82.0237C278.453 81.711 276.382 81.4686 274.271 81.125C262.721 79.3867 250.72 77.5331 238.126 80.4454C228.146 82.7501 221.372 87.4735 215.4 91.7116C213.807 92.8531 212.246 93.9245 210.716 94.9258C203.926 99.3066 194.63 103.672 183.303 98.7649C176.678 95.929 170.298 89.6827 163.805 79.7002C162.913 78.3019 161.951 76.8726 161.059 75.4742C149.74 58.0028 137.974 39.8322 121.369 27.3207C120.87 26.9331 120.37 26.5455 119.801 26.1269C99.7724 11.688 75.3897 8.6515 57.734 18.2979C56.6305 18.9008 55.4652 19.644 54.401 20.348C45.7242 26.1594 38.9404 34.8994 32.3814 43.3196C26.0163 51.4901 20.0079 59.2315 12.4346 64.4399C4.72928 69.7578 -2.95475 71.9851 -11.7684 71.4526C-20.8235 70.8974 -29.8739 66.9094 -38.5736 63.0759C-39.4856 62.674 -40.4678 62.2412 -41.3798 61.8393C-50.7109 57.7275 -63.0647 52.8702 -75.7906 50.9488C-85.7827 49.4781 -96.1042 49.7054 -108.335 51.6046C-112.459 52.2171 -117.22 53.1353 -121.948 54.7383C-124.211 55.5006 -126.263 56.3556 -128.237 57.4127C-137.346 62.1123 -144.584 69.982 -152.24 78.4213C-154.653 81.0445 -157.097 83.7379 -159.579 86.3302C-162.295 89.0711 -164.786 91.4922 -167.294 93.5708C-188.396 111.417 -219.209 118.031 -249.745 111.277C-266.782 107.54 -282.795 100.149 -297.245 89.5923L-297.585 90.364C-283.065 100.952 -267.052 108.343 -249.945 112.111C-219.198 118.957 -188.113 112.296 -166.848 94.2699C-164.309 92.1212 -161.748 89.731 -159.032 86.9901C-156.479 84.4287 -154.005 81.6652 -151.592 79.0419C-143.997 70.743 -136.83 62.8424 -127.853 58.2522C-125.879 57.1951 -123.827 56.3401 -121.665 55.617C-117.038 54.0533 -112.207 53.1661 -108.153 52.5227C-96.0934 50.6318 -85.772 50.4044 -75.8501 51.8442C-63.1943 53.7347 -50.9107 58.5611 -41.6498 62.6419C-40.7377 63.0438 -39.7556 63.4766 -38.8435 63.8785C-30.0737 67.7429 -20.9531 71.7619 -11.7268 72.3087C-2.67166 72.8638 5.21445 70.558 13.0208 65.2009C20.7262 59.8831 26.7346 52.1418 33.1307 43.9011C39.6896 35.4809 46.4423 26.8109 54.9871 21.109C56.0514 20.405 57.1859 19.7319 58.2893 19.129C75.712 9.63126 99.7523 12.6845 119.562 26.8595C120.061 27.2471 120.561 27.6346 121.091 27.9521C137.626 40.4327 149.282 58.4714 160.602 75.9427C161.564 77.372 162.455 78.7704 163.347 80.1688C169.949 90.2832 176.439 96.6614 183.205 99.5591C194.913 104.551 204.411 100.107 211.333 95.6166C212.863 94.6154 214.425 93.5441 216.087 92.4334C222.029 88.2654 228.732 83.5111 238.58 81.3158C251.073 78.4427 262.934 80.2344 274.453 82.0428C276.493 82.3555 278.534 82.6683 280.504 82.9501L280.845 82.1784L280.494 82.0237Z" fill="url(#paint1_linear_423_3673)"/>
</g>
<g opacity="0.33">
<path d="M279.935 83.2853C277.21 83.006 274.445 82.6256 271.58 82.2844C260.35 80.7708 248.707 79.2431 236.517 81.9985C226.871 84.1153 220.222 88.558 214.334 92.4144C212.57 93.5643 211.009 94.6357 209.338 95.5751C202.633 99.5743 193.452 103.488 182.367 98.6032C175.912 95.759 169.673 89.5745 163.29 79.724L160.841 75.964C149.412 58.3607 137.608 40.0891 120.792 27.4849C120.293 27.0972 119.793 26.7096 119.193 26.3612C99.1726 12.0934 74.86 9.08795 57.2043 18.7344C56.1008 19.3373 54.9664 20.0103 53.8712 20.7844C45.1944 26.5958 38.3798 35.406 31.7899 43.8964C25.5259 52.0277 19.5483 59.6988 12.1153 64.9691C4.44921 70.388 -3.1646 72.6462 -12.0092 72.1838C-21.0952 71.6988 -30.1456 67.7108 -38.8762 63.9474C-39.7882 63.5455 -40.7003 63.1436 -41.6123 62.7418C-50.9041 58.7311 -63.2269 53.8036 -75.9528 51.8823C-85.9141 50.3414 -96.2748 50.4677 -108.413 52.1565C-112.537 52.7689 -117.408 53.555 -122.074 55.0177C-124.336 55.78 -126.389 56.635 -128.433 57.6612C-137.783 62.3382 -145.083 70.3483 -152.77 78.8577C-155.051 81.3715 -157.362 83.9554 -159.783 86.4074C-162.499 89.1484 -164.99 91.5695 -167.498 93.6481C-188.49 111.627 -219.186 118.543 -249.706 112.132C-267.045 108.513 -283.291 101.27 -297.983 90.691L-298.292 91.3927C-283.6 101.972 -267.284 109.245 -249.875 112.896C-219.113 119.329 -188.145 112.365 -166.99 94.2069C-164.452 92.0582 -161.96 89.6371 -159.244 86.8962C-156.824 84.4442 -154.512 81.8602 -152.231 79.3464C-144.575 70.9071 -137.275 62.8971 -128.127 58.2987C-126.114 57.3426 -124.062 56.4875 -121.9 55.7645C-117.234 54.3018 -112.434 53.4848 -108.341 52.9424C-96.2724 51.2227 -85.9426 51.1667 -76.0515 52.6766C-63.3958 54.5671 -51.143 59.4636 -41.8822 63.5444C-40.9701 63.9463 -40.0581 64.3482 -39.146 64.7501C-30.3061 68.6455 -21.2248 72.5633 -11.9985 73.1101C-2.98262 73.5642 4.83334 71.2275 12.6314 65.6992C20.1655 60.3896 26.1739 52.6484 32.4689 44.447C38.9577 35.9958 45.7414 27.2557 54.3171 21.4836C55.3814 20.7796 56.5159 20.1066 57.6193 19.5037C74.9718 9.97497 99.043 12.958 118.813 27.0319C119.313 27.4196 119.843 27.737 120.343 28.1246C137.018 40.667 148.783 58.8376 160.142 76.4101L162.59 80.17C169.083 90.1524 175.463 96.3986 182.058 99.3047C193.463 104.414 202.807 100.321 209.714 96.2434C211.315 95.2731 212.977 94.1624 214.709 93.0826C220.497 89.2655 227.115 84.8929 236.66 82.8154C248.749 80.0992 260.29 81.6663 271.45 83.1489C274.215 83.5293 276.909 83.8788 279.564 84.1273L279.935 83.2853Z" fill="url(#paint2_linear_423_3673)"/>
</g>
<g opacity="0.33">
<path d="M279.377 84.5469C275.967 84.3008 272.517 83.9536 268.857 83.5137C258.017 82.2558 246.765 80.9838 234.909 83.5514C225.567 85.5504 219.002 89.6114 213.268 93.117C211.434 94.236 209.702 95.3157 208.031 96.2551C201.41 99.8725 192.314 103.404 181.532 98.4021C175.249 95.5495 169.149 89.4269 162.875 79.7084L160.724 76.4147C149.217 58.6092 137.303 40.2055 120.316 27.6096C119.817 27.2219 119.317 26.8344 118.717 26.486C98.7359 12.3193 74.3923 9.38382 56.8067 19.0612C55.7032 19.6641 54.538 20.4073 53.4737 21.1113C44.766 26.9928 37.9514 35.803 31.4007 44.3945C25.1676 52.4556 19.2603 60.1576 11.9985 65.4196C4.37165 70.9396 -3.27315 73.2679 -12.0476 72.8365C-21.1645 72.4216 -30.2458 68.5038 -39.0156 64.6393C-39.9276 64.2374 -40.7696 63.8664 -41.6816 63.4645C-50.9734 59.4538 -63.2261 54.5573 -75.9912 52.5349C-85.9524 50.994 -96.3214 50.9491 -108.468 52.4666C-112.631 52.978 -117.471 53.694 -122.207 55.1258C-124.439 55.8179 -126.562 56.642 -128.606 57.6682C-138.096 62.2834 -145.457 70.4337 -153.378 79.0918C-155.527 81.4962 -157.776 83.9398 -160.065 86.2824C-162.711 89.0543 -165.272 91.4444 -167.741 93.6241C-188.523 111.695 -219.202 118.954 -249.736 112.956C-267.098 109.578 -283.725 102.251 -298.659 91.6493L-298.999 92.4211C-283.995 103.054 -267.337 110.311 -249.904 113.719C-219.129 119.74 -188.248 112.403 -167.233 94.183C-164.765 92.0033 -162.203 89.6132 -159.558 86.8413C-157.269 84.4987 -155.089 82.0241 -152.87 79.6506C-145.082 71.1019 -137.72 62.9516 -128.362 58.4459C-126.349 57.4898 -124.296 56.6348 -122.064 55.9427C-117.429 54.5502 -112.59 53.8342 -108.497 53.2919C-96.35 51.7743 -86.1522 51.8276 -76.191 53.3685C-63.5661 55.3291 -51.3134 60.2256 -42.0918 64.2054C-41.1798 64.6073 -40.3378 64.9783 -39.4258 65.3802C-30.5549 69.2053 -21.4344 73.2244 -12.2164 73.5999C-3.27075 74.0231 4.57611 71.6162 12.335 65.9868C19.7989 60.6463 25.7062 52.9443 31.9703 44.8131C38.49 36.2918 45.2036 27.5207 53.8495 21.7795C54.9138 21.0755 56.0481 20.4024 57.1516 19.7995C74.5041 10.2708 98.466 13.1219 118.236 27.1958C118.736 27.5834 119.266 27.9009 119.766 28.2885C136.612 40.8226 148.456 59.1953 159.924 76.8998L162.075 80.1936C168.459 90.044 174.628 96.1976 181.122 99.1429C192.254 104.3 201.483 100.659 208.306 96.9627C210.047 96.0542 211.779 94.9744 213.613 93.8554C219.347 90.3497 225.81 86.3281 234.982 84.3373C246.666 81.7781 257.818 83.0895 268.689 84.2772C272.279 84.6862 275.627 85.0726 278.967 85.2878L279.307 84.516L279.377 84.5469Z" fill="url(#paint3_linear_423_3673)"/>
</g>
<g opacity="0.33">
<path d="M278.886 85.6703C278.816 85.6394 278.715 85.6786 278.645 85.6477C274.589 85.536 270.415 85.1211 266.07 84.7145C255.589 83.7825 244.758 82.6958 233.307 85.1063C224.337 87.0186 217.958 90.6586 212.278 93.8527C210.374 94.9408 208.47 96.0289 206.729 96.9374C200.162 100.243 191.181 103.323 180.671 98.2733C174.52 95.3114 168.53 89.3207 162.405 79.8353L160.621 77.0385C149.004 59.101 137.051 40.5963 119.955 27.8684C119.455 27.4808 118.956 27.0931 118.355 26.7447C98.3436 12.6482 74.1095 9.84482 56.524 19.5222C55.4205 20.1251 54.2861 20.7981 53.191 21.5723C44.4833 27.4538 37.6377 36.3343 31.087 44.9257C24.955 52.9476 19.1487 60.6103 11.8869 65.8723C4.33021 71.4232 -3.34551 73.8218 -12.1117 73.5616C-21.2595 73.2169 -30.3407 69.2989 -39.1414 65.5047L-41.6671 64.3917C-50.8887 60.4119 -63.1724 55.5856 -75.9066 53.493C-85.8369 51.882 -96.144 51.6966 -108.369 53.012C-112.572 53.4224 -117.481 54.1074 -122.187 55.469C-124.489 56.1302 -126.611 56.9544 -128.625 57.9105C-138.325 62.4328 -146.176 71.1218 -153.731 79.5218C-155.818 81.7859 -157.936 84.1203 -160.022 86.3844C-162.769 89.1955 -165.26 91.6165 -167.628 93.757C-188.23 111.991 -218.76 119.483 -249.379 113.866C-267.075 110.676 -283.905 103.428 -299.04 92.9047L-299.38 93.6764C-284.175 104.231 -267.275 111.51 -249.578 114.7C-218.719 120.339 -187.955 112.699 -167.151 94.3861C-164.713 92.2765 -162.222 89.8553 -159.546 87.0133C-157.389 84.7801 -155.271 82.4459 -153.254 80.1509C-145.404 71.4619 -137.91 63.2022 -128.381 58.6882C-126.368 57.7321 -124.276 56.978 -122.044 56.2859C-117.409 54.8934 -112.53 54.2786 -108.398 53.8373C-96.2737 52.5611 -86.0057 52.6454 -76.1063 54.3266C-63.4423 56.3882 -51.2597 61.2538 -42.1082 65.2027L-39.5825 66.3156C-30.7117 70.1408 -21.5602 74.0897 -12.272 74.4962C-3.36562 74.8183 4.4111 72.3804 12.2008 66.6809C19.5245 61.2786 25.4009 53.6467 31.5639 45.5547C38.0836 37.0334 44.828 28.1922 53.4347 22.3499C54.499 21.6459 55.5632 20.9421 56.7369 20.3701C74.0192 10.8105 98.0119 13.5912 117.743 27.5641C118.243 27.9517 118.773 28.2692 119.272 28.6569C136.259 41.2528 148.212 59.7574 159.79 77.5938L161.574 80.3906C167.808 90.008 173.907 96.1306 180.199 99.1544C191.059 104.359 200.173 101.17 206.911 97.8554C208.722 96.9777 210.556 95.8587 212.53 94.8016C218.14 91.5766 224.488 88.0068 233.287 86.1029C244.566 83.7006 255.328 84.7562 265.809 85.6883C270.154 86.0949 274.328 86.5099 278.384 86.6216L278.816 85.6394L278.886 85.6703Z" fill="url(#paint4_linear_423_3673)"/>
</g>
<g opacity="0.33">
<path d="M278.484 86.5833C277.729 86.5857 277.044 86.6192 276.289 86.6216C272.101 86.6193 267.795 86.3138 263.178 85.9548C253.118 85.2082 242.646 84.4474 231.669 86.7319C223.034 88.4563 216.809 91.7454 211.322 94.6898C209.247 95.7862 207.304 96.7731 205.392 97.69C198.909 100.614 190.114 103.273 179.806 98.1448C173.826 95.1745 168.008 89.1755 161.961 79.8923L160.514 77.6627C148.858 59.6241 136.756 40.8864 119.488 28.1668C118.989 27.7792 118.49 27.3915 117.959 27.074C97.9866 13.0786 73.7217 10.3454 56.2063 20.0536C55.1028 20.6565 53.9374 21.3997 52.8731 22.1037C44.1345 28.0554 37.3592 36.9667 30.7776 45.6283C24.7157 53.6811 18.9712 61.2036 11.8497 66.5274C4.26214 72.1484 -3.30405 74.679 -12 74.4497C-21.1788 74.1752 -30.2602 70.2573 -39.0608 66.463L-41.5163 65.381C-50.7379 61.4012 -62.9515 56.6058 -75.6548 54.4431C-85.5542 52.7619 -95.9006 52.4755 -108.134 53.6197C-112.578 54.0074 -117.285 54.6139 -121.929 55.8352C-124.231 56.4964 -126.323 57.2504 -128.406 58.1756C-138.278 62.7063 -146.229 71.4344 -153.846 79.9748C-155.801 82.1295 -157.787 84.3544 -159.812 86.4782C-162.52 89.3904 -164.98 91.7413 -167.347 93.8818C-187.809 112.178 -218.253 120.043 -248.886 114.839C-266.815 111.798 -283.948 104.667 -299.254 94.152L-299.563 94.8536C-284.187 105.399 -266.984 112.561 -248.953 115.563C-218.149 120.759 -187.363 112.877 -166.739 94.4014C-164.371 92.261 -161.88 89.8398 -159.102 86.9585C-157.077 84.8347 -155.091 82.6099 -153.137 80.4552C-145.154 71.6568 -137.599 63.2568 -127.929 58.8045C-125.916 57.8484 -123.855 57.1647 -121.553 56.5035C-116.98 55.2512 -112.202 54.6757 -107.859 54.3272C-95.7269 53.2222 -85.4506 53.4777 -75.6214 55.128C-62.9883 57.2598 -50.845 62.0243 -41.6234 66.0041L-39.1678 67.0861C-30.297 70.9113 -21.0753 74.8911 -11.7955 75.1264C-2.85815 75.3783 4.80917 72.8084 12.5287 67.0779C19.7513 61.7149 25.5576 54.0521 31.6195 45.9993C38.1701 37.4079 44.8753 28.4656 53.5521 22.6542C54.6164 21.9502 55.6806 21.2464 56.7841 20.6435C74.0664 11.0838 97.989 13.8337 117.712 27.6353C118.211 28.0229 118.742 28.3405 119.241 28.7281C136.469 41.3466 148.462 59.9523 160.118 77.9909L161.565 80.2204C167.69 89.7059 173.579 95.7358 179.769 98.7988C190.327 104.121 199.355 101.313 206.01 98.3809C207.992 97.4949 209.865 96.477 212.01 95.4115C217.465 92.5374 223.69 89.2482 232.154 87.5321C243.03 85.2868 253.401 86.0869 263.461 86.8334C268.008 87.1615 272.384 87.498 276.572 87.5003C277.156 87.5062 277.771 87.4419 278.425 87.4788L278.765 86.707L278.484 86.5833Z" fill="url(#paint5_linear_423_3673)"/>
</g>
<g opacity="0.33">
<path d="M278.115 87.425C276.745 87.4916 275.305 87.5273 273.936 87.5939C269.545 87.6701 265.038 87.4431 260.288 87.1935C250.618 86.7026 240.637 86.1582 230.096 88.2156C221.834 89.8531 215.763 92.7916 210.431 95.3851C208.216 96.4197 206.141 97.516 204.12 98.3009C197.286 101.07 188.94 103.09 178.975 97.9447C173.096 94.9351 167.418 88.9981 161.55 79.8777L160.471 78.1452C148.736 59.9044 136.525 41.0348 119.016 28.2926C118.516 27.905 117.986 27.5875 117.487 27.1999C97.4832 13.2746 73.2575 10.6423 55.8122 20.3815C54.7087 20.9844 53.5743 21.6575 52.4791 22.4317C43.7405 28.3834 36.9033 37.4349 30.3218 46.0966C24.2907 54.0792 18.6474 61.5624 11.5961 66.9171C4.04772 72.6392 -3.47934 75.2709 -12.1753 75.0416C-21.385 74.8372 -30.4663 70.9193 -39.3681 67.1643L-41.7534 66.1132C-50.9358 62.2345 -63.0791 57.4699 -75.8216 55.2061C-85.6901 53.4547 -96.0056 53.0982 -108.287 53.9701C-112.7 54.2876 -117.517 54.7622 -122.16 55.9835C-124.501 56.5436 -126.593 57.2976 -128.676 58.2228C-138.759 62.6607 -146.803 71.5994 -154.552 80.2492C-156.375 82.2945 -158.299 84.379 -160.192 86.3934C-162.9 89.3056 -165.391 91.7267 -167.727 93.797C-188.08 112.225 -218.476 120.363 -249.052 115.602C-267.246 112.78 -284.682 105.767 -300.16 95.2599L-300.469 95.9615C-284.921 106.499 -267.415 113.543 -249.151 116.396C-218.333 121.18 -187.665 112.994 -167.18 94.457C-164.844 92.3867 -162.423 89.9346 -159.614 86.9832C-157.721 84.9688 -155.797 82.8843 -153.974 80.839C-145.93 71.9002 -138.344 63.4301 -128.362 59.0313C-126.38 58.1454 -124.218 57.4225 -121.947 56.8314C-117.304 55.6101 -112.588 55.1747 -108.175 54.8572C-95.964 53.9544 -85.7495 54.3501 -75.9512 56.0706C-63.2788 58.3035 -51.2058 63.0371 -42.0234 66.9158L-39.6379 67.967C-30.7671 71.7922 -21.5146 75.7017 -12.2348 75.937C-3.36759 76.1579 4.33069 73.518 12.011 67.6865C19.1634 62.2925 24.8377 54.7392 30.8996 46.6864C37.411 37.9939 44.1864 29.0825 52.824 23.1701C53.8882 22.4661 54.9525 21.7621 56.056 21.1592C73.2681 11.5686 97.1514 14.2175 116.905 27.9489C117.405 28.3366 117.935 28.6541 118.434 29.0417C135.803 41.722 147.944 60.5608 159.639 78.7005L160.719 80.4331C166.696 89.6854 172.514 95.6843 178.432 98.7949C188.717 104.165 197.631 101.809 204.231 99.188C206.284 98.333 208.398 97.3377 210.644 96.2329C215.976 93.6394 221.945 90.7402 230.106 89.1419C240.547 87.1238 250.458 87.6372 260.057 88.0972C264.807 88.3469 269.315 88.5739 273.705 88.4977C274.974 88.4703 276.242 88.443 277.542 88.3454L277.975 87.3632L278.115 87.425Z" fill="url(#paint6_linear_423_3673)"/>
</g>
<g opacity="0.33">
<path d="M277.837 88.0571C275.72 88.2973 273.635 88.4674 271.51 88.5365C266.957 88.7922 262.246 88.6435 257.225 88.4415C248.046 88.167 238.455 87.8784 228.489 89.7704C220.701 91.282 214.786 93.8696 209.608 96.1124C207.222 97.1553 204.936 98.1588 202.775 98.8819C196.025 101.27 187.833 102.938 178.102 97.6445C172.425 94.5565 166.856 88.7514 161.028 79.7321L160.285 78.5669C148.441 60.1942 136.151 41.1222 118.502 28.3182C118.003 27.9306 117.472 27.6131 116.973 27.2254C96.9775 13.4714 72.8219 10.8701 55.3767 20.6093C54.2732 21.2122 53.1388 21.8852 52.0437 22.6594C43.204 28.6503 36.4369 37.7329 29.8946 46.4956C23.9647 54.439 18.3522 61.852 11.4412 67.2686C3.93209 73.0918 -3.59492 75.7235 -12.2517 75.5952C-21.4221 75.492 -30.5736 71.5431 -39.4753 67.7881L-41.7906 66.7679C-50.973 62.8892 -63.0461 58.1555 -75.7578 55.8216C-85.6262 54.0702 -95.95 53.5425 -108.239 54.2431C-112.722 54.5298 -117.509 54.9341 -122.191 56.0544C-124.533 56.6145 -126.694 57.3375 -128.747 58.1925C-138.969 62.5686 -147.075 71.6477 -154.957 80.4068C-156.648 82.3427 -158.44 84.3178 -160.201 86.2228C-162.908 89.135 -165.329 91.587 -167.666 93.6573C-187.808 112.178 -218.187 120.658 -248.747 116.24C-267.275 113.606 -284.843 106.702 -300.593 96.2428L-300.902 96.9444C-285.183 107.474 -267.443 114.369 -248.846 117.035C-218.044 121.475 -187.463 112.917 -167.088 94.2472C-164.821 92.146 -162.33 89.7248 -159.592 86.7425C-157.831 84.8375 -156.039 82.8623 -154.348 80.9264C-146.242 71.8474 -138.524 63.2679 -128.402 58.931C-126.35 58.076 -124.289 57.3922 -122.018 56.8011C-117.405 55.65 -112.65 55.3158 -108.167 55.0291C-95.9785 54.3677 -85.7248 54.8645 -75.9265 56.5849C-63.2851 58.888 -51.2119 63.6216 -42.0997 67.4694L-39.7845 68.4896C-30.8125 72.2755 -21.6611 76.2244 -12.2493 76.3503C-3.42133 76.4702 4.20676 73.7993 11.918 67.8976C18.9301 62.4418 24.5734 54.9586 30.5034 47.0152C37.0147 38.3227 43.751 29.3102 52.4896 23.3586C53.5539 22.6546 54.618 21.9507 55.7215 21.3478C72.9337 11.7572 96.7778 14.305 116.492 27.9354C116.992 28.323 117.522 28.6405 118.022 29.0281C135.6 41.8012 147.781 60.7411 159.656 79.0437L160.399 80.2089C166.266 89.3293 171.944 95.2664 177.722 98.3151C187.665 103.702 196.129 101.986 202.979 99.5585C205.172 98.7653 207.457 97.7617 209.844 96.7188C214.951 94.4451 220.867 91.8574 228.553 90.3851C238.519 88.4931 247.939 88.7902 257.118 89.0646C262.069 89.2358 266.88 89.3451 271.403 89.1595C273.356 89.0989 275.372 88.8978 277.286 88.7361L277.626 87.9643L277.837 88.0571Z" fill="url(#paint7_linear_423_3673)"/>
</g>
<g opacity="0.33">
<path d="M277.646 88.4761C274.782 88.89 271.95 89.2337 269.109 89.4061C264.354 89.7404 259.341 89.7096 254.086 89.6562C245.328 89.5672 236.329 89.4556 226.838 91.2217C219.455 92.5762 213.794 94.7738 208.811 96.7668C206.253 97.8181 203.827 98.7598 201.424 99.4603C194.759 101.466 186.652 102.753 177.192 97.412C171.687 94.3157 166.188 88.5414 160.54 79.6851L160.203 79.1178C148.281 60.543 135.882 41.3391 117.991 28.5126C117.492 28.1249 116.961 27.8075 116.462 27.4198C96.5061 13.7669 72.3195 11.2357 54.9444 21.0058C53.8409 21.6087 52.7066 22.2818 51.6114 23.0559C42.7717 29.0468 35.9737 38.1995 29.4005 47.0324C23.5015 54.9056 18.0602 62.3102 11.1492 67.7268C3.67935 73.6511 -3.77755 76.3137 -12.395 76.2865C-21.5964 76.2534 -30.7787 72.3747 -39.6804 68.6197L-41.9255 67.6303C-55.4185 61.936 -65.9149 58.5675 -75.8928 56.6841C-85.8005 54.8317 -96.0933 54.2338 -108.29 54.724C-112.812 54.9096 -117.638 55.2129 -122.289 56.263C-124.631 56.8231 -126.762 57.4759 -128.884 58.3C-139.348 62.6536 -147.485 71.8028 -155.428 80.7023C-157.057 82.4979 -158.717 84.3635 -160.346 86.1591C-163.054 89.0713 -165.475 91.5233 -167.741 93.6245C-187.774 112.277 -218.004 120.991 -248.61 117.055C-267.401 114.639 -285.273 107.853 -301.194 97.4026L-301.503 98.1042C-285.512 108.586 -267.57 115.403 -248.708 117.85C-217.893 121.878 -187.429 113.016 -167.194 94.2844C-164.928 92.1832 -162.507 89.7313 -159.768 86.749C-158.139 84.9534 -156.479 83.0876 -154.85 81.292C-146.938 72.4627 -138.832 63.3837 -128.57 59.1086C-126.518 58.2536 -124.387 57.6007 -122.147 57.0798C-117.495 56.0298 -112.74 55.6955 -108.319 55.5492C-96.1219 55.059 -85.8289 55.657 -76.0925 57.5177C-66.1848 59.3702 -55.7895 62.7779 -42.2656 68.4021L-39.9896 69.3213C-31.0177 73.1072 -21.7651 77.0168 -12.4235 77.1117C-3.66566 77.2007 4.02425 74.3895 11.6261 68.3558C18.5371 62.9393 24.1103 55.4252 30.0093 47.552C36.5516 38.7893 43.3187 29.7068 51.9872 23.7242C53.0514 23.0202 54.1157 22.3162 55.2192 21.7133C72.3612 12.0918 96.2362 14.5695 115.911 28.0988C116.411 28.4865 116.941 28.8039 117.441 29.1916C135.191 41.9563 147.52 61.1293 159.403 79.6031L159.81 80.2012C165.528 89.0885 171.066 94.9638 176.712 98.1219C186.452 103.587 194.731 102.292 201.497 100.246C203.9 99.5459 206.357 98.5339 208.914 97.4827C213.898 95.4897 219.488 93.2611 226.77 91.9458C236.16 90.219 245.159 90.3306 253.847 90.3887C259.102 90.4421 264.115 90.473 268.87 90.1387C271.54 89.9746 274.271 89.6701 276.963 89.2646L277.365 88.3525L277.646 88.4761Z" fill="url(#paint8_linear_423_3673)"/>
</g>
<g opacity="0.33">
<path d="M277.553 88.6869C273.881 89.4147 270.302 89.9321 266.715 90.2782C261.625 90.8003 256.41 90.848 250.852 90.9124C242.686 91.0005 234.178 91.1053 225.293 92.6359C218.415 93.7942 213.019 95.773 208.261 97.4462C205.461 98.4749 202.794 99.394 200.251 100.033C193.67 101.657 185.717 102.593 176.491 97.1032C171.086 93.9676 165.829 88.216 160.228 79.6319C148.197 60.9251 135.719 41.5191 117.618 28.5998C117.119 28.2121 116.588 27.8946 116.089 27.507C96.1019 13.9242 72.0247 11.5251 54.6496 21.2951C53.5461 21.898 52.4118 22.5711 51.3868 23.3761C42.5161 29.4372 35.7884 38.6208 29.1843 47.5238C23.3863 55.3578 17.9759 62.6924 11.2361 68.1006C3.80551 74.1259 -3.68222 76.8587 -12.2296 76.8624C-21.4618 76.8995 -30.6442 73.0207 -39.546 69.2657L-41.6815 68.4084C-55.1352 62.8151 -65.6008 59.3764 -75.5477 57.4229C-85.4245 55.5003 -95.7257 54.7312 -107.962 55.1203C-112.523 55.2048 -117.348 55.5081 -122.04 56.4571C-124.35 56.9471 -126.582 57.6392 -128.634 58.4942C-139.309 62.755 -147.539 72.1146 -155.583 81.0533C-157.111 82.8097 -158.608 84.4959 -160.175 86.1512C-162.913 89.1335 -165.233 91.5463 -167.5 93.6475C-187.423 112.432 -217.536 121.449 -248.124 117.856C-267.18 115.659 -285.354 108.991 -301.377 98.5791L-301.686 99.2806C-285.523 109.754 -267.318 116.352 -248.223 118.65C-217.393 122.266 -187.078 113.171 -166.922 94.2372C-164.655 92.136 -162.335 89.7233 -159.496 86.7017C-157.929 85.0465 -156.401 83.2901 -154.873 81.5337C-146.899 72.5641 -138.731 63.3448 -128.259 59.1625C-126.206 58.3075 -124.106 57.7248 -121.796 57.2348C-117.175 56.2549 -112.38 56.0218 -107.889 55.9063C-95.6841 55.5874 -85.453 56.3256 -75.6464 58.2173C-65.7696 60.1399 -55.3434 63.4775 -41.9206 69.1409L-39.7849 69.9983C-30.813 73.7842 -21.5605 77.6938 -12.157 77.6484C-3.43841 77.6363 4.18136 74.7942 11.8141 68.6903C18.5848 63.212 24.0962 55.8382 29.9251 47.9341C36.4983 39.1013 43.1952 29.9877 51.9647 23.9659C53.029 23.2619 54.0932 22.5579 55.1967 21.955C72.3387 12.3336 96.0734 14.7494 115.811 28.1384C116.341 28.4558 116.84 28.8435 117.34 29.2312C135.3 42.0886 147.669 61.3626 159.7 80.0695C165.31 88.8248 170.707 94.6382 176.182 97.8047C185.619 103.387 193.813 102.474 200.495 100.81C203.038 100.172 205.736 99.1823 208.605 98.1846C213.364 96.5114 218.729 94.6028 225.537 93.4136C234.352 91.8521 242.759 91.7865 250.925 91.6983C256.482 91.634 261.799 91.5471 266.888 91.0249C270.305 90.6872 273.814 90.1389 277.283 89.4896L277.624 88.7179L277.553 88.6869Z" fill="url(#paint9_linear_423_3673)"/>
</g>
<g opacity="0.33">
<path d="M277.589 88.6188C272.875 89.8092 268.488 90.6405 264.356 91.0817C259.336 91.6348 254.129 91.8536 248.611 92.019C240.624 92.2701 232.366 92.5688 223.683 94.0209C217.35 95.0841 212.21 96.6728 207.645 98.0963C204.433 99.1107 201.625 99.9681 198.871 100.514C192.446 101.788 184.577 102.342 175.553 96.7735C170.351 93.5594 165.133 87.9089 159.711 79.4877C147.719 60.882 135.421 41.6388 117.109 28.6268C116.61 28.2391 116.079 27.9216 115.58 27.534C95.6323 14.0522 71.5243 11.7232 54.2194 21.5242C53.1159 22.1271 52.0517 22.8311 50.9565 23.6052C42.055 29.7365 35.2962 38.9903 28.692 47.8933C22.9952 55.688 17.5849 63.0226 10.9462 68.3916C3.51558 74.417 -3.86281 77.2816 -12.4411 77.3555C-21.7042 77.4627 -30.8866 73.584 -39.8193 69.8991L-41.8848 69.0728C-55.2684 63.5105 -65.7338 60.0718 -75.6807 58.1183C-85.6277 56.1648 -95.9372 55.2243 -108.08 55.4029C-112.611 55.4173 -117.476 55.6196 -122.237 56.5377C-124.617 56.9967 -126.818 57.6187 -128.871 58.4737C-139.686 62.6726 -148.047 72.1417 -156.153 81.2207C-157.549 82.8676 -158.984 84.4135 -160.451 86.0296C-163.22 89.0821 -165.509 91.4246 -167.775 93.5258C-187.853 112.661 -217.172 121.777 -248.187 118.582C-267.507 116.604 -285.883 110.014 -302.108 99.6811L-302.417 100.383C-286.122 110.747 -267.645 117.297 -248.255 119.306C-217.029 122.593 -187.508 113.4 -167.268 94.0847C-165.001 91.9835 -162.681 89.5708 -159.912 86.5183C-158.477 84.9724 -157.081 83.3254 -155.615 81.7094C-147.579 72.5994 -139.279 63.2707 -128.666 59.1502C-126.645 58.3653 -124.444 57.7435 -122.133 57.2535C-117.442 56.3045 -112.609 56.1723 -108.148 56.1271C-96.0359 56.0186 -85.8358 56.827 -75.9197 58.8507C-66.0037 60.8743 -55.6476 64.1811 -42.2641 69.7435L-40.1986 70.5699C-31.2267 74.3558 -21.9432 78.1952 -12.5398 78.1498C-3.79029 78.0676 3.75941 75.1946 11.3529 68.9896C18.0535 63.4804 23.4637 56.1458 29.1606 48.3511C35.6636 39.4873 42.4223 30.2336 51.1919 24.2118C52.2561 23.5078 53.3204 22.8038 54.4239 22.2009C71.4957 12.5485 95.2614 14.8942 114.959 28.1821C115.49 28.4996 115.989 28.8872 116.488 29.2748C134.62 42.124 146.949 61.2969 158.872 79.8718C164.332 88.394 169.589 94.1456 174.932 97.4215C184.167 103.083 192.176 102.59 198.773 101.308C201.597 100.793 204.536 99.8265 207.647 98.8514C212.142 97.397 217.251 95.8784 223.514 94.7843C232.096 93.3715 240.355 93.0728 248.372 92.7516C253.89 92.5862 259.097 92.3673 264.187 91.8452C268.148 91.4122 272.364 90.5893 276.946 89.5083L277.379 88.5261L277.589 88.6188Z" fill="url(#paint10_linear_423_3673)"/>
</g>
<g opacity="0.33">
<path d="M277.771 88.196C272.46 89.7931 267.132 91.0478 261.888 91.9207C256.099 92.8888 250.005 93.2194 243.568 93.5667C236.618 93.939 229.496 94.3197 222.035 95.4721C216.106 96.3783 211.229 97.7484 206.959 98.8829C203.436 99.8438 200.488 100.639 197.523 101.092C191.595 101.999 183.749 102.311 174.677 96.4707C169.576 93.2174 164.568 87.6597 159.256 79.3705C147.929 61.7279 135.145 41.6845 116.663 28.6808C116.163 28.2931 115.633 27.9756 115.133 27.588C95.225 14.2073 71.086 11.9485 53.8512 21.7804C52.7478 22.3833 51.6835 23.0873 50.5884 23.8614C41.6868 29.9927 34.8971 39.3166 28.3322 48.3206C22.6663 56.0452 17.3571 63.3405 10.8587 68.7713C3.46731 74.8978 -3.94195 77.8327 -12.3799 77.9685C-21.674 78.1458 -30.8563 74.2671 -39.8592 70.5513L-41.8546 69.7558C-55.168 64.2243 -65.5632 60.8166 -75.5494 58.762C-85.5356 56.7075 -95.8143 55.6969 -107.966 55.7043C-112.496 55.7186 -117.369 55.7497 -122.1 56.5976C-124.48 57.0567 -126.65 57.6084 -128.773 58.4325C-139.798 62.5388 -148.222 72.1481 -156.389 81.3674C-157.724 82.8741 -159.027 84.3106 -160.361 85.8172C-163.13 88.8698 -165.45 91.2825 -167.616 93.3445C-187.584 112.612 -216.785 122.03 -247.784 119.178C-267.367 117.419 -285.977 110.978 -302.403 100.723L-302.713 101.425C-286.247 111.78 -267.536 118.182 -247.882 119.973C-216.642 122.847 -187.169 113.381 -167.108 93.9033C-164.912 91.7711 -162.592 89.3584 -159.822 86.3059C-158.488 84.7993 -157.185 83.3628 -155.851 81.8562C-147.784 72.6761 -139.391 63.1369 -128.568 59.1092C-126.477 58.3552 -124.377 57.7725 -121.996 57.3135C-117.266 56.4656 -112.463 56.4036 -107.963 56.4594C-95.8429 56.5222 -85.6342 57.5018 -75.7182 59.5255C-65.8022 61.5492 -55.407 64.9569 -42.1637 70.4574L-40.1683 71.253C-31.1655 74.9688 -21.8428 78.9092 -12.3775 78.7235C-3.6982 78.6104 3.84303 75.5661 11.3664 69.3303C17.9659 63.8602 23.3061 56.4947 28.972 48.7702C35.506 39.8362 42.2647 30.5825 51.0652 24.4905C52.1294 23.7865 53.1937 23.0825 54.2972 22.4796C71.2989 12.7963 95.0954 15.0719 114.754 28.2587C115.284 28.5762 115.784 28.9637 116.283 29.3514C134.626 42.2933 147.37 62.2357 158.658 79.7772C164.009 88.1674 169.126 93.8572 174.298 97.1414C183.58 103.075 191.667 102.785 197.697 101.839C200.662 101.386 203.71 100.551 207.234 99.5903C211.504 98.4558 216.38 97.0859 222.239 96.1488C229.631 94.9654 236.752 94.5848 243.703 94.2125C250.139 93.8651 256.304 93.5653 262.092 92.5972C267.134 91.8028 272.26 90.6267 277.401 89.0379L277.771 88.196Z" fill="url(#paint11_linear_423_3673)"/>
</g>
<g opacity="0.33">
<path d="M278.112 87.4235C271.837 89.6853 265.537 91.4334 259.485 92.6203C253.16 93.8547 246.49 94.3507 239.408 94.8325C233.252 95.3035 226.955 95.7126 220.381 96.7532C215.269 97.5167 210.889 98.5192 207.024 99.4968C202.987 100.483 199.525 101.303 196.21 101.602C189.953 102.112 182.425 101.895 173.805 96.1692C168.874 92.9075 164.007 87.4115 158.805 79.2543C147.586 61.7437 134.912 41.8323 116.219 28.7359C115.72 28.3482 115.19 28.0307 114.69 27.6431C94.7199 14.4027 70.7213 12.2058 53.4865 22.0377C52.383 22.6406 51.3188 23.3446 50.2236 24.1187C41.2912 30.3201 34.5015 39.644 27.9057 48.7182C22.3408 56.4036 17.0625 63.6288 10.7353 69.0512C3.38321 75.2787 -3.95595 78.2445 -12.4248 78.4504C-21.7498 78.6979 -30.9631 74.8894 -39.9659 71.1736L-41.891 70.409C-54.9939 64.9703 -65.7008 61.5091 -75.5859 59.4152C-85.4009 57.3523 -96.0304 56.1872 -107.988 55.9448C-112.558 55.8581 -117.4 55.819 -122.2 56.636C-124.55 57.0249 -126.821 57.6159 -128.913 58.3699C-140.149 62.3833 -148.634 72.1331 -156.894 81.5629C-158.097 82.9601 -159.299 84.3574 -160.54 85.6536C-163.31 88.7061 -165.559 91.1497 -167.725 93.2117C-187.513 112.642 -216.667 122.333 -247.68 119.893C-267.527 118.353 -286.37 112.06 -302.898 101.845L-303.207 102.547C-286.539 112.824 -267.595 119.077 -247.678 120.648C-216.423 123.11 -187.067 113.341 -167.147 93.8014C-164.981 91.7395 -162.732 89.2958 -159.931 86.1732C-158.729 84.7759 -157.457 83.4096 -156.286 82.0825C-148.157 72.7621 -139.633 63.1134 -128.669 59.1475C-126.577 58.3936 -124.407 57.8418 -122.058 57.4529C-117.358 56.6752 -112.485 56.6442 -108.017 56.7701C-96.0589 57.0125 -85.5697 58.1158 -75.7857 60.2488C-65.9707 62.3117 -55.2948 65.8431 -42.2311 71.1808L-40.306 71.9454C-31.3032 75.6611 -21.9495 79.5315 -12.4533 79.2757C-3.81321 79.0615 3.72803 76.0172 11.2121 69.6803C17.6713 64.1484 22.9497 56.9232 28.5145 49.2379C35.0794 40.2338 41.799 30.8789 50.5994 24.787C51.6637 24.083 52.7279 23.379 53.8314 22.7761C70.8331 13.0928 94.5202 15.2363 114.21 28.353C114.74 28.6705 115.239 29.0581 115.77 29.3756C134.354 42.3401 146.988 62.1504 158.137 79.6301C163.409 87.8182 168.386 93.4462 173.386 96.7387C182.186 102.627 189.885 102.836 196.243 102.287C199.629 102.019 203.121 101.128 207.197 100.244C211.032 99.3362 215.412 98.3337 220.524 97.5701C227.067 96.5997 233.394 96.1203 239.449 95.6885C246.563 95.1366 253.232 94.6407 259.627 93.4372C265.509 92.2586 271.606 90.589 277.679 88.4057L278.112 87.4235Z" fill="url(#paint12_linear_423_3673)"/>
</g>
<g opacity="0.33">
<path d="M278.67 86.162C278.032 86.4676 277.325 86.7424 276.618 87.0171C269.986 89.7082 263.36 91.8153 257.044 93.221C250.152 94.7919 242.634 95.5008 234.774 96.2263C229.615 96.7175 224.284 97.2171 218.759 97.9663C214.363 98.6264 210.45 99.3316 207.05 100.012C202.46 100.922 198.586 101.728 194.85 101.841C188.716 102.071 181.374 101.432 172.917 95.5273C168.118 92.1562 163.501 86.854 158.338 78.7979C145.367 58.4204 133.205 40.5781 115.73 28.5208C115.23 28.1332 114.7 27.8156 114.17 27.4982C94.2387 14.3589 70.2091 12.2321 53.0444 22.0949C51.941 22.6979 50.8768 23.4018 49.7816 24.176C40.8491 30.3773 33.9976 39.8416 27.472 48.9468C22.0082 56.5929 16.8309 63.7787 10.5038 69.2012C3.19084 75.5298 -4.10904 78.5967 -12.5779 78.8026C-21.9338 79.1203 -31.1471 75.3117 -40.1499 71.5959L-42.0049 70.8624C-55.0686 65.5247 -65.6743 62.0242 -75.5987 59.8293C-85.4529 57.6653 -96.0515 56.43 -108.018 56.0165C-112.627 55.8287 -117.539 55.7586 -122.308 56.5055C-124.728 56.8634 -126.898 57.4152 -129.06 58.1383C-140.436 62.0899 -149.053 71.9489 -157.345 81.4489C-158.485 82.7058 -159.555 83.9937 -160.696 85.2506C-163.496 88.3732 -165.715 90.7467 -167.81 92.8396C-187.489 112.402 -216.525 122.396 -247.521 120.299C-267.633 118.977 -286.639 112.864 -303.368 102.727L-303.678 103.429C-286.878 113.597 -267.701 119.701 -247.519 121.054C-216.281 123.174 -187.012 113.031 -167.201 93.3593C-165.106 91.2664 -162.786 88.8537 -160.056 85.7001C-158.916 84.4432 -157.845 83.1553 -156.705 81.8984C-148.445 72.4686 -139.928 62.6487 -128.754 58.7756C-126.663 58.0217 -124.524 57.5399 -122.174 57.1511C-117.505 56.4434 -112.593 56.5136 -108.054 56.6705C-96.0884 57.084 -85.5908 58.3585 -75.8068 60.4916C-65.9526 62.6556 -55.3468 66.1561 -42.3533 71.4629L-40.4982 72.1964C-31.4954 75.9122 -22.111 79.7125 -12.6147 79.4566C-3.94375 79.1722 3.45723 76.0661 10.9723 69.659C17.3304 64.1664 22.5385 56.9103 28.0725 49.2951C34.5981 40.19 41.3878 30.8661 50.2192 24.704C51.2834 24 52.3477 23.296 53.381 22.6622C70.3126 12.948 93.9997 15.0915 113.681 28.0369C114.211 28.3544 114.711 28.742 115.241 29.0595C132.576 41.0548 144.667 58.8663 157.67 79.1737C162.872 87.3309 167.56 92.664 172.498 96.0968C181.135 102.165 189.022 102.708 194.883 102.526C198.619 102.413 202.665 101.598 207.255 100.688C210.654 100.008 214.528 99.2019 218.894 98.6121C224.348 97.8319 229.749 97.3632 234.878 96.9421C242.808 96.2475 250.255 95.5078 257.217 93.9677C263.635 92.5228 270.191 90.3847 276.892 87.7246C277.297 87.5676 277.732 87.3404 278.136 87.1834L278.6 86.1311L278.67 86.162Z" fill="url(#paint13_linear_423_3673)"/>
</g>
<g opacity="0.33">
<path d="M279.965 83.2143C279.437 83.6519 278.878 84.1597 278.381 84.5272C276.89 85.6295 275.312 86.3585 273.695 86.9863C267.173 89.8094 260.797 92.1104 254.629 93.7491C246.835 95.8445 238.33 96.7045 229.38 97.6203C225.419 98.0532 221.388 98.4552 217.194 99.0368C213.646 99.484 210.378 100.055 207.484 100.539C202.24 101.412 197.712 102.181 193.555 102.109C187.919 101.971 180.357 101.069 172.063 94.984C167.366 91.5737 162.889 86.3334 157.905 78.4402C145.043 58.1947 132.921 40.4534 115.235 28.3034C114.705 27.9859 114.205 27.5982 113.675 27.2807C93.7832 14.2425 69.7929 12.2169 52.6283 22.0797C51.5248 22.6826 50.4606 23.3866 49.3654 24.1607C40.402 30.4323 33.6208 39.9274 27.0642 49.1027C21.6313 56.6787 16.5551 63.8253 10.3992 69.2394C3.12555 75.6691 -4.20526 78.8061 -12.5647 79.144C-21.9515 79.5319 -31.235 75.6924 -40.1986 72.0777L-41.9835 71.375C-54.9068 66.0992 -65.5827 62.5678 -75.5071 60.3729C-85.3304 58.1387 -95.8671 56.7631 -107.841 56.1783C-113.175 55.9228 -117.643 55.7968 -122.18 56.395C-124.6 56.753 -126.809 57.2038 -128.971 57.9268C-140.557 61.7857 -149.237 71.7851 -157.59 81.4253C-158.598 82.5729 -159.606 83.7203 -160.615 84.8679C-163.446 88.0607 -165.564 90.395 -167.76 92.5271C-187.299 112.151 -216.318 122.488 -247.259 120.834C-267.564 119.762 -286.803 113.798 -303.664 103.77L-303.974 104.472C-286.971 114.561 -267.632 120.486 -247.256 121.589C-216.074 123.265 -186.884 112.921 -167.151 93.0467C-165.056 90.9538 -162.837 88.5803 -160.006 85.3874C-158.998 84.2399 -157.989 83.0925 -156.981 81.945C-148.659 72.3749 -140.081 62.4146 -128.696 58.6342C-126.635 57.9504 -124.395 57.4296 -122.076 57.1109C-117.641 56.5519 -113.211 56.5767 -107.909 56.9024C-96.036 57.5265 -85.4992 58.9021 -75.645 61.0661C-65.7515 63.3311 -55.1149 66.7615 -42.2617 72.0064L-40.4769 72.7092C-31.4039 76.4559 -22.0894 80.2251 -12.5313 79.829C-3.93051 79.5137 3.53222 76.2672 10.9379 69.7281C17.2258 64.2046 22.3019 57.058 27.7348 49.4821C34.2604 40.3769 41.0418 30.8817 49.8732 24.7195C50.8672 23.9846 52.0016 23.3117 53.035 22.6779C69.9665 12.9637 93.6144 15.0061 113.256 27.8505C113.787 28.1679 114.286 28.5555 114.817 28.873C132.362 40.9611 144.445 58.6013 157.237 78.8159C162.291 86.74 166.877 92.1124 171.644 95.5536C180.118 101.801 187.781 102.664 193.557 102.864C197.785 102.967 202.313 102.198 207.627 101.356C210.521 100.872 213.758 100.371 217.236 99.8929C221.399 99.3815 225.461 98.9093 229.422 98.4764C238.472 97.5214 246.978 96.6614 254.842 94.597C261.009 92.9583 267.455 90.6882 274.009 87.7949C275.657 87.0969 277.266 86.2978 278.827 85.2263C278.959 85.117 279.091 85.0075 279.324 84.8589L280.035 83.2453L279.965 83.2143Z" fill="url(#paint14_linear_423_3673)"/>
</g>
<g opacity="0.33">
<path d="M282.903 76.5504C281.701 77.9476 280.398 79.3841 279.126 80.7505C277.985 82.0074 276.643 83.3427 275.253 84.4058C273.792 85.438 272.355 86.2289 270.676 86.9971C264.302 90.0532 258.036 92.4862 252.148 94.2485C243.15 96.9861 233.213 98.0529 222.63 99.2541C220.241 99.5419 217.883 99.7596 215.463 100.118C212.903 100.414 210.483 100.772 208.266 101.051C201.924 101.943 196.843 102.637 192.156 102.247C186.643 101.828 179.267 100.505 171.136 94.2407C166.61 90.822 162.273 85.6436 157.368 77.9525C145.061 58.5381 132.563 40.1287 114.706 27.987C114.207 27.5994 113.676 27.2818 113.146 26.9644C93.2233 13.9963 69.2723 12.0717 52.1778 21.9654C51.0743 22.5683 50.0101 23.2723 48.915 24.0464C39.9516 30.318 33.1393 39.8833 26.5518 49.1287C21.22 56.6654 16.1748 63.742 10.0582 69.2572C2.85467 75.7178 -4.437 78.9559 -12.8274 79.3639C-22.2451 79.8219 -31.4584 76.0133 -40.4921 72.3677L-42.2067 71.6959C-55.0599 66.451 -65.6967 63.0206 -75.6294 60.6545C-85.4526 58.4204 -96.0678 56.8427 -107.949 56.0474C-113.322 55.6908 -117.861 55.5339 -122.366 56.062C-124.825 56.3189 -127.066 56.8397 -129.196 57.4926C-140.994 61.2587 -149.735 71.3985 -158.15 81.1791C-159.026 82.2172 -159.972 83.2243 -160.88 84.3326C-163.711 87.5254 -165.86 89.9299 -167.955 92.0228C-187.384 111.779 -216.286 122.419 -247.21 121.108C-267.366 120.269 -286.978 114.391 -304.073 104.512L-304.382 105.214C-287.178 115.225 -267.465 121.063 -247.238 121.933C-216.073 123.266 -186.969 112.548 -167.377 92.6125C-165.282 90.5196 -163.133 88.1152 -160.302 84.9224C-159.426 83.8843 -158.479 82.8771 -157.572 81.7688C-149.187 72.0584 -140.548 61.9579 -128.953 58.2702C-126.822 57.6174 -124.683 57.1357 -122.294 56.8479C-117.858 56.2889 -113.39 56.4149 -108.048 56.8417C-96.1665 57.637 -85.5906 59.1137 -75.7982 61.418C-65.8346 63.7139 -55.299 67.1835 -42.4458 72.4284L-40.7311 73.1003C-31.6272 76.7768 -22.2427 80.577 -12.7548 80.1499C-4.19317 79.7335 3.26962 76.4871 10.6361 69.8469C16.8229 64.3626 21.899 57.216 27.2617 49.6092C33.7481 40.4029 40.5295 30.9078 49.3918 24.6754C50.3859 23.9406 51.5203 23.2675 52.5536 22.6337C69.415 12.8886 93.0236 14.83 112.697 27.6042C113.227 27.9217 113.726 28.3092 114.257 28.6267C131.973 40.7065 144.432 59.015 156.699 78.3283C161.644 86.1204 166.051 91.3299 170.616 94.8495C178.927 101.277 186.404 102.561 192.088 102.971C196.876 103.321 201.957 102.628 208.369 101.767C210.587 101.487 213.007 101.13 215.567 100.833C217.956 100.546 220.345 100.258 222.703 100.04C233.286 98.839 243.324 97.7329 252.392 95.0263C258.381 93.2246 264.647 90.7915 271.021 87.7354C272.7 86.9672 274.208 86.2074 275.699 85.105C277.19 84.0027 278.563 82.5971 279.704 81.3402C280.456 80.5827 281.139 79.7943 281.821 79.0059L282.903 76.5504Z" fill="url(#paint15_linear_423_3673)"/>
</g>
<g opacity="0.33">
<path d="M286.799 67.7104C283.411 72.166 279.742 76.498 275.926 80.597C274.816 81.7837 273.544 83.1501 272.084 84.1823C270.694 85.2454 269.256 86.0361 267.647 86.8353C261.383 90.0234 255.366 92.6503 249.658 94.5755C238.849 98.1907 226.663 99.6072 213.753 100.956C212.353 101.093 211.092 101.291 209.792 101.389C202.213 102.238 196.206 102.942 190.746 102.212C182.764 101.124 176.419 98.412 170.168 93.3952C165.844 89.8982 161.577 84.7506 156.821 77.2926C144.624 58.0102 132.165 39.7017 114.167 27.4982C113.637 27.1807 113.138 26.7931 112.607 26.4756C92.7239 13.6086 68.8121 11.7851 51.7177 21.6789C50.6142 22.2817 49.5499 22.9856 48.4856 23.6896C39.4913 30.0313 32.6482 39.6668 26.1309 48.9432C20.83 56.4097 15.8858 63.447 9.87021 68.923C2.70594 75.4847 -4.51538 78.7536 -12.9367 79.2318C-22.3152 79.7909 -31.6295 76.0216 -40.6633 72.376L-42.3079 71.7351C-55.1219 66.5913 -65.7276 63.0908 -75.6603 60.7247C-85.5228 58.3895 -96.1071 56.7416 -107.997 55.7751C-112.373 55.4386 -117.403 55.0653 -122.422 55.6184C-124.881 55.8753 -127.091 56.326 -129.292 56.948C-141.299 60.6214 -150.102 70.9014 -158.579 80.8223C-159.393 81.7201 -160.169 82.719 -160.983 83.6168C-162.868 85.8024 -165.373 88.6361 -167.988 91.3378C-187.308 111.226 -216.092 122.169 -247.03 121.27C-267.381 120.681 -287.186 115.053 -304.382 105.214L-304.692 105.916C-287.355 115.817 -267.479 121.476 -247.028 122.026C-215.848 122.947 -186.862 111.925 -167.379 91.8574C-164.795 89.2259 -162.259 86.322 -160.374 84.1364C-159.56 83.2386 -158.785 82.2397 -157.97 81.3419C-149.524 71.4911 -140.853 61.3205 -129.048 57.7256C-126.917 57.0728 -124.708 56.6221 -122.35 56.4044C-117.431 55.8906 -112.402 56.2638 -108.026 56.6002C-96.1357 57.5667 -85.6215 59.1837 -75.759 61.5189C-65.8263 63.8851 -55.2205 67.3856 -42.4767 72.4985L-40.8322 73.1394C-31.7283 76.816 -22.3437 80.6162 -12.794 80.0488C-4.23242 79.6325 3.121 76.254 10.5183 69.5437C16.5648 63.9975 21.6101 56.9211 26.8408 49.4236C33.3581 40.1472 40.0693 30.6211 49.0327 24.3496C50.0267 23.6147 51.1612 22.9417 52.1945 22.3079C69.0559 12.5628 92.6252 14.4029 112.329 27.107C112.859 27.4245 113.359 27.8122 113.889 28.1297C131.746 40.2713 144.166 58.4787 156.324 77.66C161.119 85.219 165.425 90.4677 169.819 93.9957C176.18 99.1445 182.595 101.888 190.749 102.967C196.278 103.728 202.356 103.055 209.966 102.136C211.196 102.007 212.526 101.839 213.927 101.703C226.868 100.284 239.124 98.8981 250.034 95.2437C255.773 93.2483 261.93 90.6833 268.225 87.425C269.764 86.595 271.271 85.8351 272.763 84.7328C274.254 83.6305 275.526 82.2642 276.666 81.0073C279.801 77.6968 282.787 74.1531 285.632 70.5477L286.869 67.7413L286.799 67.7104Z" fill="url(#paint16_linear_423_3673)"/>
</g>
<g opacity="0.33">
<path d="M291.656 56.6967C291.044 57.516 290.533 58.2962 289.92 59.1155C288.215 61.464 286.448 63.9528 284.673 66.2704C280.928 71.1553 276.974 75.9476 272.73 80.4449C271.62 81.6317 270.379 82.9277 268.989 83.9908C267.599 85.0539 266.231 85.8757 264.693 86.7057C258.577 90.1269 252.67 92.8858 247.141 94.974C236.155 99.1813 223.806 100.777 212.056 101.967C202.935 102.891 195.76 103.583 189.35 102.35C181.693 100.903 175.261 97.8173 169.243 92.652C165.09 89.1466 160.964 84.0608 156.317 76.7348C144.644 58.3537 131.81 39.3771 113.672 27.1118C113.142 26.7943 112.642 26.4065 112.112 26.0891C92.1666 13.3624 68.3249 11.5698 51.3006 21.4945C50.1971 22.0974 49.133 22.8013 48.1389 23.5362C39.1137 29.9481 32.3407 39.6145 25.7615 49.0312C20.5617 56.4585 15.6484 63.4256 9.80403 68.8933C2.679 75.556 -4.57334 78.8951 -12.9244 79.4042C-22.3339 80.0335 -31.6483 76.2642 -40.682 72.6186L-42.2564 72.0086C-54.93 66.9266 -65.5357 63.426 -75.5778 60.9279C-85.4796 58.4916 -96.033 56.7737 -107.9 55.5658C-112.316 55.1283 -117.385 54.6539 -122.373 55.1367C-124.832 55.3936 -127.112 55.8135 -129.242 56.4663C-141.461 60.047 -150.325 70.4673 -158.864 80.5285C-159.577 81.3871 -160.26 82.1755 -160.973 83.0341C-163.021 85.3992 -165.394 88.1236 -167.908 90.7861C-187.119 110.806 -215.855 122.021 -246.706 121.496C-267.251 121.157 -287.219 115.709 -304.547 105.979L-304.856 106.68C-287.357 116.402 -267.318 121.881 -246.704 122.251C-215.611 122.799 -186.603 111.536 -167.299 91.3057C-164.786 88.6432 -162.311 85.8796 -160.365 83.5537C-159.651 82.6951 -158.969 81.9067 -158.255 81.0482C-149.747 71.0571 -141.015 60.7462 -128.999 57.244C-126.868 56.5911 -124.689 56.2106 -122.261 56.0238C-117.304 55.6111 -112.274 55.9844 -107.96 56.4611C-96.1627 57.6381 -85.6092 59.3561 -75.7074 61.7924C-65.7355 64.2596 -55.1298 67.7602 -42.5263 72.8112L-40.952 73.4213C-31.8481 77.0978 -22.4325 80.8278 -12.8828 80.2605C-4.36046 79.743 3.02382 76.2944 10.2808 69.5223C16.2263 64.0154 21.1704 56.978 26.3703 49.5508C32.9185 40.2042 39.6606 30.608 48.5538 24.3056C49.5479 23.5707 50.6122 22.8667 51.7157 22.2638C68.5069 12.4878 92.1071 14.2578 111.772 26.8608C112.302 27.1783 112.802 27.566 113.332 27.8835C131.36 40.0168 144.226 58.9233 155.758 77.2425C160.444 84.6696 164.641 89.7864 168.864 93.3227C175.022 98.5499 181.524 101.666 189.321 103.175C195.802 104.439 203.078 103.708 212.269 102.814C224.09 101.656 236.469 99.9898 247.627 95.7742C253.155 93.686 259.093 90.8569 265.279 87.4667C266.747 86.6057 268.255 85.8459 269.676 84.7126C271.066 83.6495 272.369 82.2131 273.479 81.0263C277.652 76.4981 281.677 71.7368 285.453 66.7817C287.096 64.5735 288.74 62.3653 290.313 60.1262L291.797 56.7586L291.656 56.6967Z" fill="url(#paint17_linear_423_3673)"/>
</g>
</g>
<defs>
<linearGradient id="paint0_linear_423_3673" x1="2.03583" y1="69.6341" x2="245.893" y2="100.398" gradientUnits="userSpaceOnUse">
<stop stop-color="#E270FF"/>
<stop offset="0.510417" stop-color="#FF4910"/>
<stop offset="1" stop-color="#FF1074"/>
</linearGradient>
<linearGradient id="paint1_linear_423_3673" x1="-1.1242" y1="86.0165" x2="250.456" y2="46.8308" gradientUnits="userSpaceOnUse">
<stop stop-color="#E270FF"/>
<stop offset="0.510417" stop-color="#FF4910"/>
<stop offset="1" stop-color="#FF1074"/>
</linearGradient>
<linearGradient id="paint2_linear_423_3673" x1="-1.89195" y1="86.9882" x2="249.501" y2="47.6852" gradientUnits="userSpaceOnUse">
<stop stop-color="#E270FF"/>
<stop offset="0.510417" stop-color="#FF4910"/>
<stop offset="1" stop-color="#FF1074"/>
</linearGradient>
<linearGradient id="paint3_linear_423_3673" x1="-2.48971" y1="88.0616" x2="248.851" y2="48.5592" gradientUnits="userSpaceOnUse">
<stop stop-color="#E270FF"/>
<stop offset="0.510417" stop-color="#FF4910"/>
<stop offset="1" stop-color="#FF1074"/>
</linearGradient>
<linearGradient id="paint4_linear_423_3673" x1="-2.88812" y1="89.1606" x2="248.359" y2="49.6473" gradientUnits="userSpaceOnUse">
<stop stop-color="#E270FF"/>
<stop offset="0.510417" stop-color="#FF4910"/>
<stop offset="1" stop-color="#FF1074"/>
</linearGradient>
<linearGradient id="paint5_linear_423_3673" x1="-3.00198" y1="90.1802" x2="248.231" y2="50.6503" gradientUnits="userSpaceOnUse">
<stop stop-color="#E270FF"/>
<stop offset="0.510417" stop-color="#FF4910"/>
<stop offset="1" stop-color="#FF1074"/>
</linearGradient>
<linearGradient id="paint6_linear_423_3673" x1="-3.74172" y1="91.0096" x2="247.622" y2="51.5806" gradientUnits="userSpaceOnUse">
<stop stop-color="#E270FF"/>
<stop offset="0.510417" stop-color="#FF4910"/>
<stop offset="1" stop-color="#FF1074"/>
</linearGradient>
<linearGradient id="paint7_linear_423_3673" x1="-4.06251" y1="91.7376" x2="247.383" y2="52.4008" gradientUnits="userSpaceOnUse">
<stop stop-color="#E270FF"/>
<stop offset="0.510417" stop-color="#FF4910"/>
<stop offset="1" stop-color="#FF1074"/>
</linearGradient>
<linearGradient id="paint8_linear_423_3673" x1="-4.41497" y1="92.4305" x2="247.3" y2="53.3501" gradientUnits="userSpaceOnUse">
<stop stop-color="#E270FF"/>
<stop offset="0.510417" stop-color="#FF4910"/>
<stop offset="1" stop-color="#FF1074"/>
</linearGradient>
<linearGradient id="paint9_linear_423_3673" x1="-4.48198" y1="93.0518" x2="247.444" y2="54.3533" gradientUnits="userSpaceOnUse">
<stop stop-color="#E270FF"/>
<stop offset="0.510417" stop-color="#FF4910"/>
<stop offset="1" stop-color="#FF1074"/>
</linearGradient>
<linearGradient id="paint10_linear_423_3673" x1="-4.82006" y1="93.4565" x2="247.598" y2="55.2265" gradientUnits="userSpaceOnUse">
<stop stop-color="#E270FF"/>
<stop offset="0.510417" stop-color="#FF4910"/>
<stop offset="1" stop-color="#FF1074"/>
</linearGradient>
<linearGradient id="paint11_linear_423_3673" x1="-4.84335" y1="93.6859" x2="248.039" y2="56.089" gradientUnits="userSpaceOnUse">
<stop stop-color="#E270FF"/>
<stop offset="0.510417" stop-color="#FF4910"/>
<stop offset="1" stop-color="#FF1074"/>
</linearGradient>
<linearGradient id="paint12_linear_423_3673" x1="-4.87326" y1="93.7537" x2="248.689" y2="56.9528" gradientUnits="userSpaceOnUse">
<stop stop-color="#E270FF"/>
<stop offset="0.510417" stop-color="#FF4910"/>
<stop offset="1" stop-color="#FF1074"/>
</linearGradient>
<linearGradient id="paint13_linear_423_3673" x1="-4.78172" y1="93.458" x2="249.582" y2="57.5606" gradientUnits="userSpaceOnUse">
<stop stop-color="#E270FF"/>
<stop offset="0.510417" stop-color="#FF4910"/>
<stop offset="1" stop-color="#FF1074"/>
</linearGradient>
<linearGradient id="paint14_linear_423_3673" x1="-4.1885" y1="92.3857" x2="251.554" y2="58.2166" gradientUnits="userSpaceOnUse">
<stop stop-color="#E270FF"/>
<stop offset="0.510417" stop-color="#FF4910"/>
<stop offset="1" stop-color="#FF1074"/>
</linearGradient>
<linearGradient id="paint15_linear_423_3673" x1="-2.87213" y1="89.2124" x2="255.414" y2="58.2735" gradientUnits="userSpaceOnUse">
<stop stop-color="#E270FF"/>
<stop offset="0.510417" stop-color="#FF4910"/>
<stop offset="1" stop-color="#FF1074"/>
</linearGradient>
<linearGradient id="paint16_linear_423_3673" x1="-0.939992" y1="84.9252" x2="260.366" y2="58.0125" gradientUnits="userSpaceOnUse">
<stop stop-color="#E270FF"/>
<stop offset="0.510417" stop-color="#FF4910"/>
<stop offset="1" stop-color="#FF1074"/>
</linearGradient>
<linearGradient id="paint17_linear_423_3673" x1="1.56675" y1="79.5294" x2="266.126" y2="57.421" gradientUnits="userSpaceOnUse">
<stop stop-color="#E270FF"/>
<stop offset="0.510417" stop-color="#FF4910"/>
<stop offset="1" stop-color="#FF1074"/>
</linearGradient>
</defs>
</svg>
