<svg width="300" height="71" viewBox="0 0 300 71" fill="none" xmlns="http://www.w3.org/2000/svg">
<mask id="mask0_566_20904" style="mask-type:alpha" maskUnits="userSpaceOnUse" x="0" y="0" width="300" height="71">
<rect width="300" height="71" transform="matrix(1 0 0 -1 0 70.9999)" fill="#D9D9D9"/>
</mask>
<g mask="url(#mask0_566_20904)">
<g opacity="0.33">
<path d="M589.445 27.427C587.419 27.7564 585.359 28.0283 583.264 28.3859C571.793 30.2241 559.876 32.1737 547.175 30.1654C537.11 28.5767 530.153 24.8617 524.015 21.5248C522.378 20.6255 520.775 19.7837 519.206 18.9993C512.246 15.5708 502.781 12.2391 491.661 16.7147C485.155 19.3038 479.031 24.7311 472.944 33.2804C472.109 34.4775 471.205 35.7027 470.37 36.8997C459.762 51.8613 448.735 67.4216 432.646 78.4209C432.163 78.7612 431.679 79.1014 431.127 79.4699C411.695 92.1928 387.453 95.545 369.425 88.0861C368.298 87.6199 367.104 87.0387 366.012 86.4868C357.109 81.9276 349.979 74.8606 343.088 68.0529C336.4 61.4471 330.085 55.1876 322.309 51.0946C314.396 46.9147 306.629 45.3134 297.844 46.0535C288.818 46.8206 279.935 50.4527 271.397 53.9441C270.501 54.3101 269.537 54.7043 268.642 55.0703C259.484 58.815 247.335 63.2835 234.697 65.3139C224.772 66.8766 214.449 67.0331 202.152 65.8583C198.007 65.4854 193.212 64.8788 188.424 63.6995C186.132 63.1392 184.047 62.4944 182.032 61.6783C172.743 58.0615 165.194 51.7361 157.205 44.9493C154.689 42.8408 152.139 40.6749 149.554 38.5945C146.731 36.398 144.144 34.4609 141.555 32.8102C119.754 18.6229 88.6999 14.1369 58.4592 20.7978C41.5866 24.4883 25.8837 31.1943 11.869 40.4898L11.4982 39.8571C25.5817 30.5334 41.2847 23.8275 58.2262 20.1089C88.6735 13.3634 120.001 17.88 141.973 32.2117C144.596 33.9199 147.251 35.8289 150.075 38.0254C152.728 40.0776 155.312 42.3011 157.828 44.4096C165.75 51.0813 173.229 57.4348 182.383 60.9648C184.397 61.7809 186.482 62.4256 188.671 62.9566C193.357 64.1065 198.22 64.6849 202.297 65.0859C214.423 66.2596 224.745 66.1031 234.601 64.5686C247.171 62.5663 259.251 58.126 268.34 54.4094C269.235 54.0434 270.199 53.6492 271.095 53.2832C279.702 49.7637 288.654 46.1035 297.851 45.3376C306.876 44.5705 314.849 46.2305 322.864 50.4398C330.777 54.6197 337.091 60.8792 343.813 67.5425C350.705 74.3501 357.8 81.3597 366.567 85.8321C367.659 86.3839 368.819 86.9076 369.946 87.3738C387.736 94.7164 411.634 91.3617 430.859 78.8665C431.342 78.5262 431.826 78.186 432.343 77.9032C448.363 66.9321 459.285 51.4857 469.894 36.524C470.798 35.2988 471.633 34.1018 472.468 32.9047C478.659 24.2416 484.886 18.7005 491.531 16.0551C503.029 11.4962 512.698 14.8865 519.795 18.402C521.364 19.1863 522.967 20.0281 524.673 20.8993C530.777 24.1787 537.666 27.9219 547.594 29.4238C560.192 31.4027 571.972 29.5094 583.409 27.6137C585.435 27.2843 587.462 26.9547 589.419 26.6535L589.79 27.2862L589.445 27.427Z" fill="url(#paint0_linear_566_20904)"/>
</g>
<g opacity="0.33">
<path d="M588.837 26.3928C586.125 26.7174 583.378 27.1276 580.528 27.5085C569.368 29.1484 557.796 30.8141 545.506 28.9232C535.783 27.48 528.96 23.9952 522.922 20.974C521.113 20.0735 519.51 19.2316 517.803 18.5036C510.943 15.3907 501.612 12.4324 490.732 16.881C484.397 19.4714 478.411 24.8424 472.428 33.2779L470.133 36.4982C459.42 51.5737 448.359 67.2195 432.063 78.3033C431.579 78.6436 431.096 78.9839 430.51 79.2948C411.079 91.8745 386.907 95.1985 368.878 87.7396C367.751 87.2734 366.59 86.7498 365.465 86.1404C356.562 81.5812 349.399 74.4565 342.473 67.5913C335.888 61.0149 329.607 54.813 321.968 50.6637C314.091 46.3981 306.393 44.7687 297.574 45.4513C288.515 46.1609 279.632 49.7929 271.059 53.2268C270.164 53.5928 269.269 53.9588 268.374 54.3249C259.25 57.9839 247.135 62.5099 234.497 64.5403C224.606 66.1605 214.248 66.4026 202.052 65.4003C197.907 65.0275 193.008 64.5348 188.287 63.4705C185.996 62.9102 183.911 62.2654 181.827 61.4775C172.297 57.8876 164.681 51.4471 156.658 44.6028C154.279 42.5813 151.865 40.5022 149.348 38.5369C146.524 36.3404 143.938 34.4032 141.348 32.7525C119.651 18.4514 88.7026 13.7084 58.4648 20.0829C41.2845 23.6853 25.3427 30.2751 11.0877 39.5975L10.7506 39.0223C25.0056 29.6998 41.0162 23.082 58.2654 19.4514C88.7434 13.0499 119.966 17.8235 141.833 32.2691C144.456 33.9773 147.043 35.9144 149.866 38.111C152.384 40.0762 154.797 42.1553 157.177 44.1769C165.166 50.9637 172.782 57.4041 182.107 60.9352C184.157 61.6657 186.242 62.3105 188.431 62.8414C193.152 63.9057 197.981 64.4266 202.093 64.7419C214.22 65.7724 224.544 65.4727 234.366 63.8806C246.936 61.8783 258.982 57.3806 268.072 53.664C268.967 53.2979 269.862 52.9319 270.757 52.5659C279.434 49.0182 288.35 45.4437 297.547 44.6778C306.538 43.9964 314.441 45.6845 322.455 50.037C330.196 54.2157 336.511 60.4752 343.13 67.1091C349.953 73.9449 357.082 81.012 365.883 85.5419C366.974 86.0938 368.135 86.6174 369.262 87.0836C386.983 94.4544 410.915 91.1573 430.104 78.7477C430.588 78.4074 431.105 78.1247 431.588 77.7844C447.746 66.7569 458.772 51.1967 469.416 36.1494L471.712 32.9292C477.798 24.3798 483.922 18.9526 490.395 16.3059C501.586 11.659 511.086 14.7617 518.152 17.9332C519.79 18.6894 521.496 19.5606 523.27 20.4037C529.206 23.3954 535.995 26.8228 545.616 28.2366C557.803 30.0981 569.273 28.4031 580.364 26.7913C583.111 26.381 585.789 25.9989 588.432 25.7025L588.837 26.3928V26.3928Z" fill="url(#paint1_linear_566_20904)"/>
</g>
<g opacity="0.33">
<path d="M588.229 25.3586C584.831 25.6784 581.398 26.0838 577.759 26.5738C566.978 27.9872 555.786 29.4263 543.837 27.6811C534.421 26.326 527.698 23.1569 521.828 20.4234C519.951 19.5509 518.177 18.7079 516.47 17.9799C509.709 15.1828 500.478 12.5401 489.906 17.0769C483.742 19.6684 477.894 24.9831 472.015 33.3048L469.998 36.126C459.215 51.3728 448.05 67.1326 431.582 78.2152C431.099 78.5554 430.615 78.8957 430.029 79.2066C410.633 91.7006 386.427 94.9672 368.467 87.4802C367.341 87.014 366.146 86.4328 365.055 85.8809C356.118 81.2642 348.955 74.1396 342.065 67.1887C335.513 60.6698 329.301 54.4397 321.834 50.2916C313.991 45.9403 306.259 44.2534 297.509 44.9079C288.416 45.5599 279.5 49.1345 270.892 52.654C269.997 53.02 269.171 53.3579 268.275 53.7239C259.152 57.383 247.106 61.8807 234.432 63.9969C224.541 65.6171 214.182 66.0024 201.984 65.1433C197.804 64.8561 192.94 64.4208 188.15 63.3847C185.892 62.8819 183.738 62.2653 181.654 61.4774C171.986 57.9438 164.303 51.3884 156.042 44.4278C153.798 42.4931 151.452 40.5291 149.071 38.6507C146.316 36.426 143.661 34.517 141.107 32.7806C119.616 18.395 88.6702 13.3656 58.4016 19.3963C41.189 22.7979 24.8691 29.4709 10.3739 38.8203L10.0031 38.1876C24.5672 28.8101 40.9209 22.1946 58.2023 18.7648C88.7112 12.7072 119.862 17.7953 141.591 32.2971C144.146 34.0335 146.801 35.9425 149.556 38.1672C151.937 40.0456 154.214 42.0379 156.526 43.9444C164.652 50.8181 172.335 57.3735 181.866 60.8202C183.916 61.5506 186.002 62.1954 188.259 62.6981C192.947 63.7049 197.811 64.1401 201.923 64.4554C214.121 65.3146 224.308 64.928 234.199 63.3078C246.735 61.248 258.781 56.7503 267.836 53.1194C268.731 52.7533 269.557 52.4154 270.452 52.0494C279.163 48.5593 288.114 44.899 297.31 44.2763C306.231 43.6231 314.168 45.3687 322.147 49.8069C329.819 54.0137 336.031 60.2438 342.617 66.8202C349.473 73.7136 356.534 80.8089 365.403 85.3106C366.495 85.8624 367.656 86.3862 368.782 86.8523C386.504 94.2231 410.332 91.0398 429.521 78.6303C430.004 78.29 430.521 78.0072 431.005 77.667C447.334 66.6407 458.431 50.9091 469.179 35.7479L471.196 32.9267C477.179 24.4912 483.096 19.1484 489.466 16.4723C500.382 11.7948 509.75 14.5243 516.716 17.3801C518.492 18.08 520.266 18.9231 522.143 19.7955C528.013 22.529 534.634 25.6688 543.878 27.0226C555.655 28.7667 566.745 27.2981 577.559 25.9422C581.13 25.4804 584.46 25.0456 587.789 24.754L588.16 25.3867L588.229 25.3586Z" fill="url(#paint2_linear_566_20904)"/>
</g>
<g opacity="0.33">
<path d="M587.693 24.4375C587.624 24.4656 587.522 24.4363 587.453 24.4644C583.404 24.6937 579.251 25.18 574.926 25.6651C564.491 26.7945 553.711 28.0649 542.173 26.4371C533.134 25.1419 526.613 22.3179 520.809 19.8426C518.863 18.9983 516.917 18.154 515.141 17.4541C508.447 14.9153 499.349 12.6459 489.051 17.2132C483.023 19.8917 477.279 25.0926 471.54 33.2147L469.87 35.6088C458.983 50.9695 447.782 66.8148 431.211 78.0113C430.727 78.3516 430.244 78.6919 429.658 79.0028C410.228 91.4393 386.126 94.592 368.166 87.105C367.04 86.6388 365.879 86.1151 364.754 85.5057C355.817 80.889 348.62 73.7068 341.73 66.7559C335.28 60.2664 329.171 54.0657 321.704 49.9175C313.93 45.5381 306.165 43.7936 297.416 44.3049C288.289 44.8994 279.373 48.474 270.732 51.936L268.253 52.9496C259.198 56.5806 247.118 61.0208 234.478 63.1945C224.621 64.8722 214.329 65.3726 202.061 64.6848C197.846 64.4833 192.912 64.0762 188.156 63.0976C185.829 62.623 183.675 62.0064 181.626 61.2759C171.751 57.8269 163.558 50.8382 155.671 44.0808C153.495 42.2611 151.286 40.3839 149.11 38.5642C146.252 36.3102 143.666 34.3731 141.214 32.666C119.896 18.1384 89.0899 12.9096 58.7216 18.6245C41.1676 21.8805 24.6426 28.4948 9.94224 37.7854L9.57145 37.1527C24.3407 27.8339 40.9346 21.1915 58.4886 17.9354C89.0971 12.1936 120.142 17.5387 141.665 32.125C144.186 33.8039 146.772 35.7411 149.561 38.0233C151.806 39.8148 154.015 41.692 156.123 43.5398C164.316 50.5285 172.135 57.1708 181.838 60.6187C183.888 61.3491 186.008 61.9083 188.266 62.4111C192.953 63.4178 197.853 63.7673 201.999 63.997C214.165 64.6554 224.421 64.2407 234.245 62.5054C246.816 60.3599 258.794 55.8904 267.779 52.2876L270.258 51.274C278.968 47.7838 287.954 44.181 297.218 43.5302C306.104 42.9626 313.973 44.7365 321.985 49.2321C329.52 53.4953 335.698 59.6679 342.181 66.215C349.038 73.1083 356.132 80.2611 364.966 84.8485C366.058 85.4003 367.149 85.9521 368.345 86.3901C385.997 93.789 409.859 90.6633 429.013 78.3395C429.497 77.9992 430.014 77.7164 430.497 77.3761C446.964 66.2935 458.165 50.4482 469.017 35.1732L470.687 32.7791C476.53 24.5431 482.379 19.2285 488.544 16.4938C499.186 11.7857 508.42 14.1418 515.287 16.6819C517.131 17.3536 519.008 18.2261 521.023 19.0422C526.758 21.5456 533.245 24.3121 542.113 25.606C553.48 27.2326 564.19 25.9906 574.625 24.8611C578.95 24.376 583.104 23.8896 587.152 23.6603L587.624 24.4656L587.693 24.4375Z" fill="url(#paint3_linear_566_20904)"/>
</g>
<g opacity="0.33">
<path d="M587.254 23.6889C586.5 23.7122 585.814 23.7072 585.06 23.7306C580.875 23.873 576.585 24.2724 571.986 24.7269C561.964 25.6875 551.531 26.6738 540.471 25.1353C531.773 23.9857 525.422 21.4493 519.821 19.176C517.704 18.3305 515.723 17.5719 513.776 16.8708C507.18 14.6477 498.285 12.7234 488.192 17.3495C482.336 20.0291 476.763 25.2312 471.094 33.182L469.737 35.0914C458.815 50.5378 447.475 66.5826 430.733 77.7778C430.249 78.1181 429.766 78.4584 429.249 78.7412C409.854 91.092 385.719 94.1872 367.827 86.672C366.701 86.2058 365.506 85.6246 364.415 85.0728C355.444 80.3985 348.316 73.1882 341.392 66.1798C335.012 59.6621 328.97 53.5764 321.64 49.372C313.833 44.935 306.171 43.0768 297.492 43.5598C288.331 44.0968 279.415 47.6715 270.773 51.1335L268.363 52.1189C259.309 55.7498 247.298 60.1619 234.692 62.393C224.868 64.1283 214.541 64.7143 202.272 64.1697C197.816 63.9952 193.088 63.6469 188.399 62.7834C186.072 62.3087 183.952 61.7496 181.833 61.0473C171.787 57.597 163.492 50.579 155.538 43.7066C153.498 41.9738 151.424 40.1835 149.316 38.4788C146.493 36.1391 143.941 34.2595 141.489 32.5524C120.309 17.9685 89.5744 12.4252 59.1753 17.7962C41.3825 20.936 24.5498 27.4621 9.67799 36.7515L9.34094 36.1764C24.2816 26.8588 41.1831 20.3045 59.0785 17.194C89.649 11.8243 120.727 17.37 142.077 32.0983C144.528 33.8053 147.115 35.7425 150.006 38.0541C152.114 39.7588 154.188 41.549 156.228 43.2818C164.557 50.3574 172.444 57.1148 182.284 60.5064C184.334 61.2368 186.421 61.7384 188.748 62.213C193.368 63.1047 198.165 63.4249 202.518 63.57C214.685 64.0853 224.943 63.5273 234.698 61.8202C247.235 59.6172 259.177 55.2334 268.231 51.6025L270.642 50.617C279.352 47.1268 288.406 43.4959 297.669 42.9882C306.589 42.4782 314.353 44.3659 322.297 48.8897C329.729 53.1235 335.838 59.3243 342.219 65.842C349.109 72.7928 356.168 80.0313 365.071 84.5905C366.163 85.1424 367.254 85.6942 368.381 86.1603C386.033 93.5593 409.826 90.4617 428.979 78.281C429.462 77.9408 429.98 77.658 430.463 77.3177C447.171 66.2081 458.406 50.2771 469.329 34.8308L470.685 32.9214C476.424 24.7992 482.066 19.569 488.129 16.8049C498.463 12.0087 507.598 14.0492 514.364 16.2735C516.381 16.9464 518.293 17.7332 520.479 18.5505C526.046 20.7663 532.398 23.3028 540.924 24.4511C551.881 25.9602 562.212 24.9446 572.233 23.9841C576.764 23.5577 581.123 23.1301 585.307 22.9877C585.89 22.9632 586.507 22.9962 587.159 22.9435L587.53 23.5762L587.254 23.6889Z" fill="url(#paint4_linear_566_20904)"/>
</g>
<g opacity="0.33">
<path d="M586.852 22.9988C585.481 22.9891 584.04 23.0077 582.669 22.998C578.279 23.0817 573.784 23.4224 569.049 23.79C559.406 24.5241 549.455 25.3133 538.839 23.9498C530.518 22.8601 524.335 20.6113 518.903 18.6255C516.648 17.8364 514.531 16.9909 512.479 16.4037C505.54 14.3214 497.119 12.916 487.369 17.5444C481.616 20.2535 476.18 25.3991 470.684 33.208L469.675 34.6902C458.682 50.3079 447.239 66.4666 430.256 77.6887C429.772 78.029 429.255 78.3118 428.772 78.6521C409.343 90.9454 385.243 93.9549 367.421 86.4116C366.294 85.9454 365.133 85.4217 364.008 84.8123C355.037 80.138 347.842 72.8127 340.918 65.8043C334.571 59.3442 328.632 53.2879 321.371 49.0552C313.599 44.5326 305.973 42.5887 297.293 43.0718C288.099 43.5513 279.182 47.1258 270.438 50.5585L268.097 51.5158C259.078 55.061 247.136 59.445 234.494 61.7618C224.704 63.5546 214.411 64.1982 202.105 63.8825C197.683 63.7654 192.851 63.5309 188.162 62.6674C185.8 62.2784 183.68 61.7193 181.561 61.017C171.309 57.6512 162.912 50.4606 154.822 43.5013C152.918 41.8554 150.912 40.1801 148.94 38.5624C146.117 36.2226 143.531 34.2855 141.113 32.636C120.037 17.9382 89.339 12.1659 58.978 17.1648C40.9126 20.1309 23.7722 26.569 8.72897 35.8573L8.39187 35.2821C23.504 25.9656 40.7132 19.4995 58.8475 16.5053C89.4489 11.4794 120.421 17.2822 141.633 32.0668C144.051 33.7163 146.569 35.6816 149.494 38.0508C151.466 39.6685 153.472 41.3438 155.376 42.9897C163.772 50.1803 171.693 56.9952 181.842 60.3316C183.859 61.0046 186.048 61.5354 188.341 61.9525C193.03 62.8161 197.759 63.0213 202.181 63.1383C214.419 63.4822 224.609 62.8092 234.33 61.0447C246.903 58.756 258.776 54.4002 267.795 50.8549L270.137 49.8976C278.847 46.4074 287.935 42.8341 297.197 42.3265C306.049 41.8446 313.847 43.7897 321.755 48.3992C329.118 52.6612 335.091 58.775 341.472 65.2927C348.327 72.3292 355.455 79.5396 364.323 84.1845C365.414 84.7363 366.506 85.2882 367.633 85.7544C385.216 93.1815 408.974 90.1695 428.16 78.0464C428.644 77.7061 429.161 77.4233 429.645 77.083C446.49 65.9171 457.865 49.7866 468.822 34.2546L469.831 32.7724C475.432 24.8497 481.004 19.6477 486.793 16.853C496.854 12.0263 505.855 13.6934 512.555 15.6595C514.64 16.3043 516.793 17.0641 519.082 17.9108C524.513 19.8966 530.594 22.116 538.813 23.1763C549.326 24.5104 559.208 23.7494 568.782 23.0435C573.517 22.6758 578.012 22.3351 582.402 22.2515C583.671 22.2318 584.94 22.212 586.242 22.2498L586.714 23.0551L586.852 22.9988Z" fill="url(#paint5_linear_566_20904)"/>
</g>
<g opacity="0.33">
<path d="M586.548 22.4806C584.424 22.3511 582.333 22.279 580.207 22.2927C575.647 22.232 570.947 22.5141 565.937 22.8512C556.777 23.3882 547.205 23.9508 537.171 22.7059C529.329 21.7056 523.315 19.7443 518.051 18.0461C515.625 17.2558 513.301 16.4948 511.112 15.9639C504.272 14.1973 496.02 13.0795 486.508 17.8242C480.96 20.592 475.629 25.6239 470.168 33.347L469.472 34.3445C458.376 50.076 446.862 66.4061 429.741 77.6846C429.258 78.0249 428.74 78.3077 428.257 78.6479C408.83 90.7981 384.799 93.7794 366.976 86.2361C365.849 85.7699 364.689 85.2462 363.564 84.6368C354.49 79.9332 347.364 72.5797 340.475 65.4856C334.231 59.0548 328.325 53.056 321.202 48.7671C313.466 44.1588 305.839 42.2148 297.194 42.6122C288.035 43.006 279.05 46.6088 270.306 50.0414L268.034 50.9706C259.014 54.5158 247.141 58.8716 234.534 61.246C224.743 63.0387 214.449 63.8255 202.141 63.6529C197.651 63.5641 192.852 63.3871 188.128 62.6092C185.766 62.2203 183.577 61.6894 181.492 61.0446C171.102 57.7351 162.638 50.4295 154.411 43.3833C152.644 41.8243 150.774 40.2359 148.938 38.705C146.116 36.3653 143.598 34.4 141.18 32.7505C120.311 17.9683 89.6155 11.9096 59.2574 16.6221C40.8505 19.4426 23.574 25.7938 8.2567 35.0515L7.9196 34.4763C23.2032 25.161 40.6513 18.811 59.1269 15.9624C89.7254 11.2229 120.626 17.3403 141.734 32.2388C144.083 33.9165 146.669 35.8536 149.525 38.2509C151.362 39.7818 153.231 41.3702 154.999 42.9292C163.463 50.2348 171.519 57.1366 181.807 60.4167C183.892 61.0615 185.978 61.563 188.272 61.9801C192.927 62.7862 197.691 62.9056 202.182 62.9945C214.387 63.1377 224.613 62.3791 234.334 60.6145C246.873 58.2683 258.746 53.9126 267.697 50.3955L269.969 49.4663C278.782 46.0055 287.767 42.4027 297.166 41.982C305.982 41.5858 313.712 43.5591 321.654 48.2261C328.879 52.5444 334.818 58.6007 341.063 65.0315C347.918 72.0681 355.01 79.3641 363.981 84.0383C365.073 84.5902 366.164 85.142 367.291 85.6082C384.875 93.0353 408.597 90.109 427.748 78.0715C428.232 77.7312 428.749 77.4485 429.232 77.1082C446.284 65.8579 457.694 49.6416 468.825 33.9676L469.52 32.9702C475.017 25.1613 480.452 20.0156 486.103 17.2772C495.821 12.4481 504.347 13.5964 511.289 15.3923C513.512 15.9808 515.836 16.7417 518.262 17.5321C523.457 19.2585 529.471 21.2198 537.211 22.1907C547.245 23.4356 556.645 22.8716 565.806 22.3346C570.746 22.0257 575.549 21.7731 580.075 21.7763C582.03 21.7614 584.052 21.8616 585.971 21.9324L586.342 22.5651L586.548 22.4806Z" fill="url(#paint6_linear_566_20904)"/>
</g>
<g opacity="0.33">
<path d="M586.341 22.1373C583.463 21.8879 580.619 21.696 577.774 21.6474C573.009 21.5279 568.001 21.7218 562.753 21.9426C554.005 22.3107 545.018 22.7056 535.463 21.5501C528.032 20.6672 522.288 19.0229 517.228 17.5266C514.631 16.7351 512.169 16.0304 509.74 15.5264C502.999 14.0756 494.847 13.2735 485.61 18.0488C480.233 20.8177 474.97 25.8215 469.682 33.4026L469.369 33.8874C458.202 49.7902 446.584 66.2341 429.223 77.5395C428.739 77.8798 428.222 78.1625 427.739 78.5028C408.347 90.5673 384.282 93.4911 366.528 85.9196C365.402 85.4535 364.241 84.9297 363.116 84.3204C354.043 79.6168 346.883 72.2057 339.96 65.0542C333.75 58.6809 328.015 52.6834 320.892 48.3944C313.191 43.7005 305.633 41.7283 297.023 42.0401C287.831 42.3763 278.812 45.9216 270.068 49.3542L267.864 50.2553C254.611 55.4605 244.258 58.624 234.364 60.5306C224.539 62.409 214.278 63.2532 202.072 63.2533C197.546 63.2501 192.712 63.1588 188.022 62.4384C185.66 62.0495 183.504 61.5761 181.351 60.9595C170.72 57.6769 162.222 50.3137 153.928 43.1525C152.228 41.7085 150.495 40.2071 148.795 38.7631C145.973 36.4233 143.455 34.458 141.106 32.7804C120.341 17.8843 89.7847 11.6261 59.3621 15.9373C40.6827 18.5839 23.0982 24.8471 7.60956 34.1036L7.27246 33.5284C22.83 24.2437 40.4833 17.9524 59.2315 15.2776C89.8608 10.882 120.656 17.2565 141.626 32.2112C143.975 33.8889 146.493 35.8541 149.349 38.2514C151.049 39.6954 152.782 41.1969 154.482 42.6409C162.742 49.7446 171.206 57.0502 181.632 60.274C183.717 60.9188 185.872 61.3923 188.132 61.7519C192.822 62.4722 197.587 62.5917 202.01 62.5655C214.217 62.5655 224.477 61.7212 234.131 59.8415C243.956 57.9631 254.206 54.7703 267.494 49.6225L269.731 48.779C278.543 45.3182 287.632 41.7449 296.962 41.3523C305.709 40.9842 313.506 43.0725 321.344 47.8534C328.467 52.1423 334.337 58.2268 340.547 64.6001C347.436 71.6941 354.563 79.0476 363.464 83.75C364.556 84.3019 365.648 84.8538 366.775 85.3199C384.289 92.7752 408.045 89.9064 427.162 77.9546C427.645 77.6143 428.162 77.3315 428.646 76.9912C445.869 65.7421 457.418 49.3264 468.55 33.5092L468.932 32.9964C474.289 25.387 479.586 20.2977 485.101 17.4724C494.614 12.5845 502.938 13.3877 509.78 14.8679C512.21 15.3719 514.705 16.1341 517.303 16.9257C522.363 18.422 528.038 20.0945 535.367 20.948C544.819 22.0742 553.806 21.6792 562.484 21.3393C567.733 21.1185 572.741 20.9245 577.506 21.044C580.18 21.0914 582.921 21.2539 585.627 21.5021L586.065 22.2498L586.341 22.1373Z" fill="url(#paint7_linear_566_20904)"/>
</g>
<g opacity="0.33">
<path d="M586.24 21.9644C582.542 21.4802 578.945 21.1685 575.346 20.9999C570.24 20.7349 565.027 20.87 559.471 21.0027C551.308 21.203 542.803 21.401 533.863 20.4216C526.945 19.6855 521.473 18.215 516.651 16.9781C513.813 16.2135 511.111 15.5358 508.544 15.0881C501.904 13.953 493.92 13.4386 484.921 18.3301C479.647 21.1284 474.625 26.1052 469.373 33.4575C458.102 49.4742 446.414 66.0894 428.847 77.4793C428.363 77.8196 427.846 78.1024 427.362 78.4426C407.937 90.4496 383.976 93.2596 366.222 85.6881C365.096 85.2219 363.935 84.6982 362.879 84.0607C353.772 79.2995 346.681 71.8604 339.724 64.6513C333.616 58.3074 327.916 52.3673 320.964 48.0796C313.298 43.2999 305.706 41.2703 297.166 41.5539C287.939 41.8327 278.92 45.3779 270.176 48.8105L268.077 49.5977C254.859 54.7173 244.54 57.9384 234.679 59.9025C224.888 61.8384 214.626 62.8258 202.384 62.9115C197.823 62.994 192.989 62.9027 188.264 62.268C185.935 61.9366 183.677 61.4339 181.592 60.7891C170.755 57.591 162.157 50.0553 153.76 42.8647C152.163 41.4501 150.599 40.0929 148.967 38.764C146.111 36.3667 143.696 34.4308 141.347 32.7531C120.685 17.7432 90.2346 11.228 59.8148 15.2528C40.8629 17.7257 22.9708 23.9007 7.37958 33.1278L7.04253 32.5527C22.7715 23.2693 40.6972 17.1518 59.6843 14.5932C90.3444 10.5415 121 17.1154 141.9 32.2415C144.249 33.9192 146.664 35.8551 149.623 38.2817C151.255 39.6107 152.853 41.0253 154.45 42.4399C162.778 49.6587 171.309 57.0793 181.941 60.2186C184.026 60.8634 186.148 61.2794 188.476 61.6108C193.132 62.2736 197.933 62.3074 202.425 62.2531C214.633 62.1099 224.826 61.1506 234.549 59.2428C244.34 57.3068 254.624 54.1714 267.809 48.9943L269.908 48.2071C278.721 44.7464 287.809 41.173 297.207 40.8955C305.919 40.6131 313.646 42.7296 321.518 47.568C328.503 51.9132 334.306 57.8826 340.448 64.284C347.371 71.4356 354.428 78.8173 363.432 83.5491C364.524 84.1009 365.616 84.6528 366.742 85.119C384.257 92.5742 407.876 89.7618 427.059 77.925C427.576 77.6422 428.06 77.3019 428.543 76.9616C445.973 65.628 457.557 49.1267 468.828 33.11C474.081 25.6145 479.241 20.5814 484.584 17.7549C493.789 12.779 502.013 13.2664 508.756 14.4308C511.324 14.8785 514.059 15.6138 516.966 16.3503C521.788 17.5871 527.226 19.0001 534.076 19.7643C542.946 20.7719 551.349 20.5447 559.512 20.3443C565.068 20.2116 570.383 20.1058 575.49 20.3708C578.917 20.5382 582.445 20.878 585.938 21.3035L586.309 21.9363L586.24 21.9644Z" fill="url(#paint8_linear_566_20904)"/>
</g>
<g opacity="0.33">
<path d="M586.278 22.02C581.521 21.1846 577.103 20.638 572.957 20.4083C567.919 20.1151 562.707 20.1071 557.187 20.1542C549.197 20.2125 540.933 20.2403 532.199 19.3196C525.828 18.6447 520.628 17.4911 516.01 16.4562C512.76 15.7173 509.92 15.0958 507.146 14.7326C500.675 13.8852 492.79 13.6865 483.997 18.6367C478.928 21.4937 473.941 26.3848 468.862 33.5951C457.627 49.5262 446.111 65.9994 428.337 77.4738C427.854 77.8141 427.336 78.0969 426.853 78.4371C407.463 90.3584 383.468 93.1109 365.783 85.5113C364.656 85.0451 363.565 84.4932 362.439 83.8839C353.299 79.0652 346.174 71.5685 339.217 64.3594C333.212 58.0448 327.512 52.1047 320.663 47.8464C312.996 43.0667 305.509 40.9234 296.934 41.1494C287.674 41.3707 278.655 44.9159 269.878 48.291L267.847 49.05C254.698 54.1414 244.379 57.3624 234.518 59.3265C224.658 61.2906 214.394 62.4213 202.254 62.6796C197.726 62.8196 192.857 62.8139 188.063 62.2074C185.666 61.9041 183.442 61.4589 181.357 60.8141C170.382 57.6723 161.647 50.0498 153.183 42.7441C151.722 41.4164 150.226 40.1743 148.696 38.8747C145.806 36.4199 143.425 34.5415 141.076 32.8639C120.246 17.5664 90.585 10.9422 59.7227 14.6488C40.4982 16.948 22.401 23.0642 6.60465 32.2326L6.2676 31.6575C22.1328 22.4609 40.3325 16.374 59.6259 14.0467C90.6948 10.2556 120.561 16.9385 141.561 32.3804C143.91 34.0581 146.325 35.994 149.214 38.4487C150.711 39.6908 152.172 41.0186 153.701 42.3182C162.097 49.652 170.764 57.1595 181.534 60.2426C183.585 60.8298 185.81 61.275 188.138 61.6065C192.863 62.2412 197.698 62.1893 202.157 62.0775C214.264 61.7617 224.423 60.7449 234.25 58.7232C244.077 56.7016 254.292 53.5944 267.441 48.503L269.472 47.7439C278.284 44.2832 287.406 40.7673 296.804 40.4897C305.55 40.2649 313.209 42.4095 321.045 47.3336C327.962 51.707 333.662 57.647 339.667 63.9616C346.521 71.1413 353.646 78.638 362.65 83.3698C363.742 83.9216 364.833 84.4735 365.96 84.9397C383.406 92.4231 407.058 89.6681 426.207 77.917C426.724 77.6343 427.207 77.294 427.691 76.9537C445.292 65.6213 456.841 49.2056 468.008 33.3028C473.122 26.0067 478.144 21.03 483.351 18.1166C492.351 13.082 500.373 13.2244 507.016 14.073C509.859 14.4081 512.834 15.1164 515.982 15.8259C520.531 16.889 525.698 17.985 532 18.6881C540.631 19.5794 548.895 19.5516 556.918 19.5508C562.439 19.5037 567.651 19.5118 572.757 19.7768C576.732 20.0053 580.978 20.5507 585.6 21.2992L586.072 22.1045L586.278 22.02Z" fill="url(#paint9_linear_566_20904)"/>
</g>
<g opacity="0.33">
<path d="M586.477 22.3668C581.106 21.212 575.731 20.3436 570.457 19.7909C564.634 19.1771 558.531 19.1056 552.086 19.0316C545.126 18.954 537.995 18.8752 530.493 18.1637C524.533 17.6062 519.605 16.6263 515.293 15.8227C511.734 15.1389 508.756 14.5738 505.776 14.2951C499.816 13.7376 491.964 13.7397 483.134 18.9188C478.167 21.8052 473.387 26.6117 468.412 33.7082C457.802 48.8131 445.834 65.9705 427.888 77.4437C427.405 77.7839 426.888 78.0667 426.404 78.407C407.049 90.2426 383.021 92.9376 365.405 85.3098C364.278 84.8436 363.186 84.2917 362.061 83.6824C352.921 78.8637 345.762 71.3096 338.841 64.0148C332.869 57.7577 327.271 51.847 320.56 47.5323C312.929 42.667 305.407 40.466 296.971 40.6357C287.677 40.7995 278.658 44.3447 269.812 47.748L267.85 48.4789C254.769 53.5422 244.519 56.735 234.624 58.7848C224.728 60.8346 214.498 62.0228 202.356 62.4242C197.829 62.5642 192.958 62.7017 188.198 62.1527C185.801 61.8494 183.61 61.4617 181.456 60.8451C170.275 57.7878 161.472 50.0502 152.941 42.6296C151.547 41.4168 150.188 40.2616 148.794 39.0489C145.904 36.5941 143.489 34.6582 141.243 33.0099C120.517 17.5986 90.9614 10.7173 60.1019 14.1376C40.6049 16.263 22.2689 22.263 6.26741 31.3727L5.93036 30.7975C21.967 21.6022 40.4056 15.6315 59.9715 13.478C91.0712 10.0308 120.901 16.9426 141.728 32.5264C144.008 34.2323 146.423 36.1681 149.313 38.6229C150.706 39.8356 152.066 40.9909 153.46 42.2036C161.888 49.5949 170.657 57.2749 181.634 60.2735C183.754 60.8326 185.875 61.2485 188.273 61.5518C193.033 62.1008 197.834 61.9914 202.328 61.7939C214.436 61.3349 224.597 60.1749 234.424 58.1532C244.251 56.1316 254.501 52.9388 267.513 47.9037L269.474 47.1728C278.321 43.7695 287.478 40.168 296.943 40.0055C305.62 39.8088 313.277 42.0966 321.045 47.0488C327.859 51.3929 333.49 57.3611 339.462 63.6181C346.349 70.8554 353.474 78.3521 362.512 83.1414C363.604 83.6932 364.696 84.2451 365.822 84.7113C383.199 92.2228 406.885 89.5254 425.998 77.8599C426.516 77.5772 426.999 77.237 427.482 76.8967C445.29 65.4799 457.223 48.408 467.798 33.3889C472.808 26.2067 477.692 21.2862 482.728 18.3717C491.764 13.1081 499.857 13.0791 505.92 13.6659C508.9 13.9447 511.98 14.5392 515.539 15.223C519.851 16.0266 524.779 17.0064 530.67 17.5921C538.103 18.3317 545.235 18.4105 552.194 18.4882C558.64 18.5622 564.811 18.6056 570.634 19.2194C575.704 19.7133 580.873 20.523 586.073 21.6766L586.477 22.3668V22.3668Z" fill="url(#paint10_linear_566_20904)"/>
</g>
<g opacity="0.33">
<path d="M586.849 23.0002C580.488 21.3229 574.123 20.0752 568.028 19.2877C561.659 18.4696 554.974 18.2793 547.878 18.1148C541.708 17.9282 535.401 17.7979 528.79 17.15C523.651 16.6842 519.235 15.9944 515.333 15.3082C511.26 14.6208 507.768 14.052 504.443 13.914C498.171 13.698 490.657 14.1321 482.274 19.1998C477.479 22.0874 472.837 26.8377 467.966 33.8204C457.46 48.8114 445.596 65.855 427.444 77.4126C426.96 77.7529 426.443 78.0357 425.959 78.376C406.537 90.0965 382.646 92.7351 365.03 85.1073C363.904 84.6412 362.812 84.0893 361.687 83.4799C352.512 78.6038 345.354 71.0496 338.399 63.6973C332.53 57.4696 326.965 51.6164 320.426 47.3029C312.829 42.3519 305.377 40.1229 296.907 40.2351C287.579 40.3413 278.526 43.829 269.68 47.2323L267.787 47.935C254.913 52.9138 244.354 56.1618 234.561 58.2409C224.837 60.2919 214.263 61.6209 202.324 62.2243C197.762 62.4499 192.925 62.645 188.096 62.1241C185.732 61.8784 183.439 61.4613 181.319 60.9022C169.931 57.9293 161.061 50.0766 152.429 42.4834C151.171 41.3576 149.914 40.2317 148.622 39.1916C145.732 36.7368 143.386 34.7727 141.139 33.1244C120.586 17.5711 91.0674 10.461 60.1771 13.5373C40.4076 15.489 21.8327 21.3728 5.72863 30.4531L5.39158 29.878C21.6334 20.7413 40.3107 14.8869 60.1492 12.9071C91.2797 9.80384 121.004 16.9726 141.693 32.6128C143.94 34.2611 146.286 36.2252 149.209 38.7375C150.466 39.8633 151.793 40.961 153.016 42.0293C161.512 49.5357 170.418 57.3027 181.531 60.2449C183.652 60.804 185.842 61.1918 188.206 61.4375C192.932 61.929 197.803 61.7914 202.263 61.5364C214.201 60.933 224.637 59.6603 234.328 57.5519C244.052 55.5009 254.578 52.1954 267.416 47.3023L269.309 46.5996C278.156 43.1963 287.346 39.6522 296.845 39.5472C305.487 39.4362 313.144 41.7241 320.877 46.7619C327.553 51.1623 333.117 57.0155 338.986 63.2432C345.907 70.5379 352.997 78.1203 362.035 82.9096C363.127 83.4614 364.219 84.0133 365.345 84.4795C382.722 91.9911 406.304 89.4075 425.451 77.7996C425.968 77.5168 426.452 77.1765 426.969 76.8937C445.017 65.4499 456.846 48.492 467.283 33.5292C472.223 26.5183 476.969 21.6542 481.833 18.7384C490.389 13.5288 498.074 13.096 504.449 13.3414C507.843 13.4512 511.368 14.0774 515.476 14.6791C519.345 15.3078 523.761 15.9976 528.899 16.4633C535.477 17.0538 541.818 17.2417 547.886 17.3989C555.015 17.6209 561.7 17.8112 568.138 18.6011C574.062 19.3875 580.221 20.5764 586.377 22.1949L586.849 23.0002Z" fill="url(#paint11_linear_566_20904)"/>
</g>
<g opacity="0.33">
<path d="M587.457 24.0343C586.808 23.8006 586.09 23.595 585.372 23.3895C578.638 21.3659 571.933 19.8295 565.565 18.8682C558.615 17.7882 551.075 17.4488 543.192 17.1069C538.017 16.87 532.671 16.6318 527.121 16.1918C522.702 15.7884 518.763 15.3311 515.339 14.8774C510.716 14.272 506.813 13.729 503.075 13.76C496.937 13.7741 489.626 14.5532 481.413 19.7653C476.754 22.7397 472.353 27.3199 467.518 34.2169C455.375 51.6595 443.94 66.959 426.963 77.6084C426.48 77.9487 425.962 78.2316 425.445 78.5143C406.058 90.1492 382.133 92.7303 364.586 85.0743C363.46 84.6082 362.368 84.0563 361.243 83.4469C352.068 78.5708 344.842 70.9015 337.956 63.521C332.19 57.3227 326.728 51.4989 320.188 47.1855C312.627 42.1488 305.21 39.834 296.74 39.9462C287.379 39.9949 278.326 43.4827 269.479 46.8859L267.655 47.5604C254.816 52.4535 244.36 55.7309 234.532 57.8957C224.772 60.0324 214.232 61.4189 202.292 62.1654C197.694 62.4768 192.789 62.7 187.993 62.2367C185.561 62.0191 183.371 61.6313 181.181 61.1004C169.656 58.1838 160.65 50.2444 151.983 42.5936C150.793 41.5829 149.672 40.5439 148.482 39.5331C145.559 37.0208 143.247 35.1142 141.069 33.4377C120.62 17.7706 91.2066 10.4035 60.3192 13.1934C40.277 14.9713 21.5322 20.7108 5.22299 29.7323L4.88589 29.1571C21.264 20.1074 40.1803 14.3692 60.2913 12.5631C91.419 9.74628 121.071 17.2296 141.657 32.9836C143.834 34.6601 146.249 36.596 149.104 39.1364C150.294 40.1472 151.415 41.1862 152.604 42.197C161.237 49.7902 170.141 57.7004 181.461 60.5582C183.581 61.1173 185.738 61.4476 188.102 61.6933C192.795 62.1273 197.7 61.904 202.229 61.6208C214.169 60.8742 224.607 59.4584 234.297 57.3499C244.056 55.2133 254.513 51.9359 267.283 47.0709L269.107 46.3964C277.953 42.9932 287.178 39.5066 296.677 39.4016C305.352 39.3481 312.872 41.6923 320.638 46.7877C327.212 51.1587 332.707 57.04 338.542 63.2102C345.428 70.5906 352.587 78.1447 361.659 82.9916C362.75 83.5434 363.842 84.0953 364.9 84.5896C382.208 92.1293 405.79 89.5458 424.935 78.0811C425.452 77.7983 425.936 77.4581 426.453 77.1753C443.292 66.5822 454.659 51.3108 466.835 33.9257C471.706 26.943 476.175 22.3347 480.972 19.3039C489.358 13.9499 497.217 13.2319 503.081 13.1872C506.818 13.1562 510.893 13.7004 515.516 14.3058C518.94 14.7595 522.844 15.3024 527.229 15.6483C532.71 16.1165 538.126 16.3266 543.267 16.5059C551.219 16.8197 558.69 17.1873 565.708 18.2391C572.179 19.2298 578.815 20.7943 585.618 22.7898C586.028 22.9072 586.472 23.0822 586.883 23.1997L587.388 24.0624L587.457 24.0343Z" fill="url(#paint12_linear_566_20904)"/>
</g>
<g opacity="0.33">
<path d="M588.869 26.451C588.324 26.1035 587.745 25.6984 587.234 25.4084C585.7 24.5384 584.094 23.9829 582.453 23.5131C575.822 21.3757 569.359 19.6691 563.13 18.5083C555.259 17.0209 546.726 16.5884 537.747 16.1243C533.772 15.8958 529.728 15.6955 525.514 15.3508C521.95 15.0966 518.663 14.7298 515.751 14.4229C510.476 13.8703 505.921 13.38 501.77 13.5799C496.144 13.884 488.625 14.8908 480.581 20.2473C476.025 23.2511 471.762 27.7749 467.099 34.5299C455.061 51.8587 443.661 67.0726 426.477 77.8065C425.96 78.0892 425.477 78.4296 424.96 78.7123C405.607 90.2615 381.718 92.7569 364.171 85.101C363.044 84.6348 361.953 84.083 360.827 83.4736C351.619 78.5399 344.462 70.8425 337.542 63.4045C331.81 57.2637 326.45 51.4693 320.082 47.157C312.556 42.0347 305.105 39.6624 296.739 39.6608C287.344 39.652 278.222 43.1678 269.411 46.4854L267.656 47.1318C254.955 51.9686 244.429 55.2741 234.601 57.4389C224.876 59.6331 214.403 61.1346 202.461 62.0244C197.143 62.4166 192.683 62.6716 188.126 62.3245C185.694 62.1069 183.468 61.8048 181.279 61.2738C169.547 58.4418 160.473 50.3872 151.739 42.6215C150.686 41.6975 149.632 40.7737 148.578 39.8497C145.621 37.2799 143.412 35.4027 141.131 33.6968C120.82 17.9734 91.4096 10.3199 60.5602 12.7378C40.3144 14.3138 21.3307 19.937 4.88517 28.8717L4.54807 28.2965C21.1313 19.3055 40.2176 13.7117 60.5323 12.1075C91.6219 9.66273 121.204 17.3174 141.719 33.2428C143.896 34.9192 146.209 36.8258 149.166 39.3957C150.22 40.3196 151.273 41.2434 152.327 42.1673C161.027 49.8756 169.998 57.9008 181.525 60.6742C183.611 61.1757 185.871 61.5353 188.201 61.7235C192.655 62.0413 197.08 61.872 202.365 61.4223C214.203 60.5032 224.676 59.0016 234.436 56.865C244.23 54.6426 254.72 51.4228 267.353 46.6141L269.108 45.9677C278.023 42.5363 287.179 39.078 296.745 39.088C305.351 39.0626 312.938 41.5219 320.601 46.7311C327.105 51.1302 332.464 56.9246 338.197 63.0654C345.083 70.4459 352.24 78.1433 361.312 82.9902C362.335 83.5702 363.495 84.0938 364.553 84.5881C381.861 92.1278 405.408 89.6299 424.518 78.2509C425.036 77.9681 425.519 77.6279 426.036 77.3451C443.082 66.6676 454.447 51.5394 466.417 34.2388C471.148 27.4556 475.515 22.8179 480.14 19.7859C488.356 14.2874 495.978 13.31 501.742 12.9496C505.962 12.7215 510.517 13.2119 515.861 13.7363C518.772 14.0432 522.027 14.3526 525.521 14.6349C529.701 14.9221 533.779 15.1799 537.754 15.4084C546.836 15.9019 555.369 16.3343 563.309 17.7936C569.538 18.9544 576.07 20.6328 582.734 22.8278C584.409 23.3551 586.048 23.968 587.651 24.8099C587.787 24.8968 587.924 24.9837 588.163 25.0999L588.938 26.4228L588.869 26.451Z" fill="url(#paint13_linear_566_20904)"/>
</g>
<g opacity="0.33">
<path d="M592.073 31.9144C590.815 30.7886 589.456 29.6333 588.129 28.5356C586.94 27.5249 585.544 26.4554 584.113 25.6147C582.612 24.8022 581.144 24.1904 579.436 23.6055C572.945 21.2686 566.585 19.4482 560.632 18.1748C551.531 16.1918 541.559 15.6348 530.936 14.9872C528.538 14.8271 526.173 14.7245 523.741 14.5069C521.171 14.3456 518.739 14.1281 516.511 13.9692C510.139 13.4375 505.034 13.0292 500.366 13.5119C494.875 14.046 487.558 15.398 479.685 20.8989C475.3 23.9039 471.175 28.3715 466.582 34.9551C455.065 51.5715 443.317 67.3557 425.961 78.0884C425.478 78.4286 424.961 78.7115 424.444 78.9942C405.058 90.4859 381.203 92.8957 363.725 85.2116C362.599 84.7454 361.507 84.1935 360.382 83.5842C351.174 78.6505 343.983 70.8956 337.029 63.4001C331.399 57.2887 326.074 51.5517 319.741 47.1537C312.283 42.0032 304.868 39.5453 296.468 39.4861C287.039 39.4198 277.986 42.9075 269.106 46.2533L267.42 46.8715C254.788 51.6802 244.297 54.9 234.468 57.208C224.742 59.4022 214.199 61.075 202.359 62.1373C197.005 62.6152 192.476 62.8984 187.953 62.6088C185.486 62.4769 183.226 62.1173 181.071 61.6439C169.132 58.8963 159.991 50.7267 151.19 42.8459C150.272 42.0088 149.286 41.2 148.335 40.3054C145.378 37.7356 143.135 35.8009 140.957 34.1244C120.75 18.2871 91.4445 10.3766 60.5981 12.5081C40.4914 13.8846 21.1312 19.4478 4.4469 28.2663L4.1098 27.6911C20.8982 18.7588 40.361 13.2249 60.5365 11.8202C91.6232 9.66182 121.133 17.6312 141.511 33.6128C143.688 35.2893 145.932 37.224 148.889 39.7938C149.806 40.6308 150.792 41.4397 151.744 42.3342C160.511 50.1575 169.549 58.2978 181.283 60.9867C183.438 61.4601 185.595 61.7903 187.994 61.9504C192.448 62.2682 196.908 62.0131 202.228 61.4777C214.068 60.4154 224.576 58.8282 234.268 56.5765C244.132 54.326 254.519 51.0768 267.152 46.2682L268.838 45.6499C277.787 42.276 287.011 38.7895 296.509 38.8277C305.08 38.888 312.667 41.3473 320.294 46.6422C326.696 51.0119 332.055 56.8064 337.719 62.9753C344.57 70.4414 351.727 78.1388 360.833 83.0432C361.856 83.6232 363.016 84.1469 364.074 84.6412C381.313 92.2091 404.825 89.7968 423.969 78.4753C424.486 78.1925 424.97 77.8523 425.487 77.5695C442.704 66.8932 454.418 51.1946 465.899 34.6639C470.527 27.9946 474.721 23.4988 479.141 20.4081C487.187 14.7652 494.607 13.4427 500.27 12.9098C505.04 12.4564 510.145 12.8647 516.586 13.3683C518.813 13.5272 521.245 13.7447 523.815 13.906C526.214 14.0661 528.613 14.2261 530.977 14.3287C541.6 14.9763 551.675 15.5627 560.844 17.5175C566.9 18.8203 573.259 20.6408 579.751 22.9777C581.459 23.5626 582.996 24.1462 584.53 25.0162C586.065 25.8862 587.493 27.0132 588.683 28.024C589.466 28.631 590.179 29.2662 590.893 29.9013L592.073 31.9144Z" fill="url(#paint14_linear_566_20904)"/>
</g>
<g opacity="0.33">
<path d="M596.32 39.1618C592.756 35.5566 588.917 32.0641 584.938 28.771C583.782 27.8178 582.456 26.72 580.955 25.9075C579.524 25.0669 578.056 24.4551 576.416 23.8421C570.029 21.3914 563.911 19.4008 558.131 17.9853C547.186 15.3307 534.953 14.5572 521.999 13.8645C520.593 13.7974 519.326 13.6739 518.024 13.6361C510.416 13.1816 504.385 12.7955 498.96 13.5879C491.027 14.7636 484.796 17.2401 478.752 21.6369C474.572 24.7007 470.515 29.1401 466.062 35.5242C454.649 52.0268 442.936 67.7254 425.443 78.5144C424.926 78.7971 424.442 79.1374 423.925 79.4202C404.575 90.8262 380.755 93.1502 363.277 85.4661C362.15 84.9999 361.059 84.4482 359.967 83.8963C350.725 78.9051 343.501 71.0927 336.616 63.569C331.02 57.5151 325.797 51.8075 319.566 47.4389C312.144 42.2027 304.798 39.7166 296.364 39.6C286.97 39.448 277.815 42.9063 268.935 46.2521L267.317 46.8421C254.72 51.5651 244.264 54.8425 234.434 57.1505C224.673 59.4303 214.164 61.1607 202.322 62.3662C197.963 62.7938 192.952 63.2741 187.915 62.9809C185.448 62.8489 183.222 62.5468 180.998 62.1016C168.852 59.4385 159.644 51.1538 150.775 43.158C149.925 42.436 149.111 41.6283 148.261 40.9063C146.29 39.1453 143.672 36.8644 140.951 34.6972C120.848 18.7461 91.6483 10.5786 60.7711 12.3661C40.4607 13.5407 20.8968 18.9019 4.10987 27.691L3.77277 27.1158C20.6974 18.2704 40.3302 12.8809 60.7431 11.7358C91.8607 9.92124 121.265 18.1476 141.539 34.2431C144.226 36.3527 146.877 38.6913 148.848 40.4522C149.698 41.1742 150.513 41.9819 151.363 42.7039C160.197 50.6422 169.27 58.84 181.21 61.4444C183.365 61.9178 185.591 62.2198 187.956 62.3224C192.891 62.5862 197.902 62.106 202.26 61.6784C214.102 60.4729 224.543 58.7707 234.304 56.4909C244.133 54.1829 254.59 50.9055 267.118 46.2107L268.735 45.6206C277.684 42.2467 286.909 38.7601 296.474 38.9133C305.045 38.9736 312.528 41.5468 320.189 46.8992C326.453 51.3253 331.779 57.0622 337.306 63.1442C344.191 70.6679 351.279 78.3935 360.487 83.3272C361.51 83.9072 362.67 84.4308 363.728 84.9251C380.968 92.493 404.444 90.1665 423.622 78.9025C424.139 78.6198 424.622 78.2794 425.14 77.9967C442.495 67.264 454.173 51.6512 465.551 35.2342C470.039 28.7644 474.131 24.2393 478.379 21.1474C484.528 16.6368 490.828 14.1321 498.932 12.9576C504.426 12.137 510.526 12.495 518.167 13.007C519.401 13.073 520.737 13.1684 522.142 13.2355C535.13 13.9857 547.432 14.731 558.48 17.415C564.294 18.888 570.549 20.8222 576.97 23.3305C578.541 23.9717 580.078 24.5553 581.612 25.4253C583.146 26.2953 584.472 27.3929 585.662 28.4037C588.927 31.0616 592.053 33.9191 595.041 36.8328L596.389 39.1336L596.32 39.1618Z" fill="url(#paint15_linear_566_20904)"/>
</g>
<g opacity="0.33">
<path d="M601.616 48.1911C600.971 47.5278 600.429 46.8938 599.784 46.2305C597.986 44.3276 596.121 42.3097 594.254 40.4349C590.316 36.4835 586.172 32.6164 581.751 29.0052C580.595 28.0519 579.302 27.0118 577.871 26.1712C576.439 25.3305 575.04 24.6906 573.469 24.0494C567.221 21.3992 561.207 19.2947 555.6 17.7373C544.454 14.5943 532.051 13.6765 520.262 13.078C511.111 12.6127 503.914 12.2756 497.559 13.5197C489.966 14.9842 483.663 17.7753 477.857 22.2883C473.849 25.3533 469.93 29.7364 465.581 36.0067C454.656 51.7394 442.594 68.0083 424.963 78.8536C424.446 79.1363 423.963 79.4767 423.446 79.7595C404.027 91.0504 380.277 93.3463 362.868 85.6341C361.741 85.1679 360.65 84.6161 359.627 84.0361C350.351 78.9873 343.196 71.1467 336.244 63.508C330.75 57.4835 325.561 51.8334 319.501 47.466C312.114 42.1442 304.734 39.6005 296.369 39.4558C286.942 39.2462 277.786 42.7045 268.906 46.0503L267.358 46.6122C254.898 51.2789 244.442 54.5563 234.508 56.9781C224.712 59.3436 214.236 61.1315 202.427 62.5377C198.033 63.0509 192.987 63.6169 187.983 63.3812C185.516 63.2493 183.221 62.9754 181.066 62.502C168.714 59.9233 159.438 51.5237 150.502 43.4128C149.755 42.7202 149.041 42.085 148.294 41.3924C146.153 39.487 143.672 37.2928 141.053 35.155C121.054 19.0901 91.891 10.6937 61.0855 12.1667C40.5714 13.1394 20.8374 18.3563 3.91425 27.0585L3.5772 26.4834C20.6718 17.7824 40.4747 12.5372 61.0576 11.5364C92.1034 10.0365 121.54 18.4635 141.641 34.7009C144.259 36.8388 146.843 39.0623 148.881 40.9383C149.629 41.6309 150.342 42.266 151.09 42.9587C159.992 51.012 169.131 59.3248 181.278 61.8447C183.434 62.3182 185.626 62.5627 188.059 62.6371C193.029 62.8153 198.04 62.335 202.332 61.7924C214.072 60.4143 224.548 58.6265 234.344 56.2609C244.209 53.8673 254.665 50.5899 267.056 45.9514L268.604 45.3894C277.553 42.0155 286.811 38.5865 296.376 38.7397C304.913 38.8857 312.429 41.5163 319.952 46.925C326.114 51.3218 331.337 57.0294 336.831 63.054C343.749 70.6351 350.871 78.4181 360.01 83.38C361.033 83.96 362.125 84.5119 363.252 84.978C380.422 92.5741 403.932 90.3051 423.075 79.1267C423.592 78.844 424.075 78.5036 424.593 78.2209C442.119 67.4894 454.215 51.2781 465.002 35.6017C469.387 29.2457 473.374 24.8344 477.451 21.7412C483.395 17.1719 489.767 14.3528 497.497 12.8319C503.922 11.5597 511.221 11.9261 520.44 12.3633C532.298 12.9336 544.735 13.9089 556.053 17.0531C561.66 18.6105 567.707 20.7725 574.024 23.3946C575.526 24.0639 577.063 24.6475 578.528 25.5457C579.96 26.3864 581.32 27.5415 582.476 28.4948C586.828 32.1341 591.041 35.973 595.013 39.982C596.743 41.7699 598.474 43.5578 600.136 45.3738L601.754 48.1347L601.616 48.1911Z" fill="url(#paint16_linear_566_20904)"/>
</g>
</g>
<defs>
<linearGradient id="paint0_linear_566_20904" x1="278.886" y1="36.4279" x2="27.9382" y2="3.2466" gradientUnits="userSpaceOnUse">
<stop stop-color="#FF71D7"/>
<stop offset="1" stop-color="#FF1074"/>
</linearGradient>
<linearGradient id="paint1_linear_566_20904" x1="278.094" y1="35.6509" x2="27.3384" y2="2.32294" gradientUnits="userSpaceOnUse">
<stop stop-color="#FF71D7"/>
<stop offset="1" stop-color="#FF1074"/>
</linearGradient>
<linearGradient id="paint2_linear_566_20904" x1="277.448" y1="34.789" x2="26.7525" y2="1.22526" gradientUnits="userSpaceOnUse">
<stop stop-color="#FF71D7"/>
<stop offset="1" stop-color="#FF1074"/>
</linearGradient>
<linearGradient id="paint3_linear_566_20904" x1="277.015" y1="33.8859" x2="26.4135" y2="0.304665" gradientUnits="userSpaceOnUse">
<stop stop-color="#FF71D7"/>
<stop offset="1" stop-color="#FF1074"/>
</linearGradient>
<linearGradient id="paint4_linear_566_20904" x1="276.861" y1="33.04" x2="26.2749" y2="-0.561429" gradientUnits="userSpaceOnUse">
<stop stop-color="#FF71D7"/>
<stop offset="1" stop-color="#FF1074"/>
</linearGradient>
<linearGradient id="paint5_linear_566_20904" x1="276.08" y1="32.3654" x2="25.3581" y2="-1.11134" gradientUnits="userSpaceOnUse">
<stop stop-color="#FF71D7"/>
<stop offset="1" stop-color="#FF1074"/>
</linearGradient>
<linearGradient id="paint6_linear_566_20904" x1="275.726" y1="31.7621" x2="24.9188" y2="-1.60277" gradientUnits="userSpaceOnUse">
<stop stop-color="#FF71D7"/>
<stop offset="1" stop-color="#FF1074"/>
</linearGradient>
<linearGradient id="paint7_linear_566_20904" x1="275.331" y1="31.1776" x2="24.2446" y2="-1.8737" gradientUnits="userSpaceOnUse">
<stop stop-color="#FF71D7"/>
<stop offset="1" stop-color="#FF1074"/>
</linearGradient>
<linearGradient id="paint8_linear_566_20904" x1="275.237" y1="30.6344" x2="23.9244" y2="-1.95911" gradientUnits="userSpaceOnUse">
<stop stop-color="#FF71D7"/>
<stop offset="1" stop-color="#FF1074"/>
</linearGradient>
<linearGradient id="paint9_linear_566_20904" x1="274.855" y1="30.2748" x2="23.0313" y2="-1.74512" gradientUnits="userSpaceOnUse">
<stop stop-color="#FF71D7"/>
<stop offset="1" stop-color="#FF1074"/>
</linearGradient>
<linearGradient id="paint10_linear_566_20904" x1="274.805" y1="30.0391" x2="22.4944" y2="-1.2154" gradientUnits="userSpaceOnUse">
<stop stop-color="#FF71D7"/>
<stop offset="1" stop-color="#FF1074"/>
</linearGradient>
<linearGradient id="paint11_linear_566_20904" x1="274.739" y1="29.9269" x2="21.7222" y2="-0.359739" gradientUnits="userSpaceOnUse">
<stop stop-color="#FF71D7"/>
<stop offset="1" stop-color="#FF1074"/>
</linearGradient>
<linearGradient id="paint12_linear_566_20904" x1="274.8" y1="30.1059" x2="20.954" y2="0.920375" gradientUnits="userSpaceOnUse">
<stop stop-color="#FF71D7"/>
<stop offset="1" stop-color="#FF1074"/>
</linearGradient>
<linearGradient id="paint13_linear_566_20904" x1="275.367" y1="30.8559" x2="20.0977" y2="3.77142" gradientUnits="userSpaceOnUse">
<stop stop-color="#FF71D7"/>
<stop offset="1" stop-color="#FF1074"/>
</linearGradient>
<linearGradient id="paint14_linear_566_20904" x1="276.67" y1="33.2227" x2="18.8053" y2="10.0712" gradientUnits="userSpaceOnUse">
<stop stop-color="#FF71D7"/>
<stop offset="1" stop-color="#FF1074"/>
</linearGradient>
<linearGradient id="paint15_linear_566_20904" x1="278.59" y1="36.4313" x2="17.6938" y2="18.1865" gradientUnits="userSpaceOnUse">
<stop stop-color="#FF71D7"/>
<stop offset="1" stop-color="#FF1074"/>
</linearGradient>
<linearGradient id="paint16_linear_566_20904" x1="281.095" y1="40.4731" x2="17.0054" y2="28.0774" gradientUnits="userSpaceOnUse">
<stop stop-color="#FF71D7"/>
<stop offset="1" stop-color="#FF1074"/>
</linearGradient>
</defs>
</svg>
