<svg width="263" height="84" viewBox="0 0 263 84" fill="none" xmlns="http://www.w3.org/2000/svg">
<mask id="mask0_342_4616" style="mask-type:alpha" maskUnits="userSpaceOnUse" x="0" y="0" width="263" height="84">
<rect y="0.0996094" width="263" height="83" fill="#D9D9D9"/>
</mask>
<g mask="url(#mask0_342_4616)">
<g opacity="0.33">
<path d="M358.555 67.7603C346.832 68.3766 335.413 69.9055 325.17 72.3426C323.746 72.6786 322.297 73.0518 320.785 73.437C313.264 75.3878 305.43 77.3981 297.148 75.1913C288.693 72.9205 282.438 67.2545 277.413 61.9361C275.474 59.9117 273.623 57.8382 271.822 55.8524C270.835 54.7465 269.859 53.703 268.909 52.6224C259.431 42.2652 250.861 36.1667 242.023 33.4188C231.818 30.2845 219.378 31.7169 206.96 37.5121C195.819 42.7082 185.27 45.9154 175.624 47.0741C170.658 47.6646 164.648 47.8716 157.208 44.9868C152.066 42.9581 147.137 39.4979 142.356 36.1388C141.155 35.2678 139.965 34.4593 138.739 33.6254C130.774 28.1557 123.145 24.11 115.555 21.2862C108.586 18.6675 101.135 16.9169 93.4279 16.0241C88.5715 15.4938 83.5962 15.6978 78.178 16.6332C70.8244 17.9374 64.8194 23.093 59.0031 28.0509C58.2242 28.7169 57.4453 29.3829 56.6664 30.0489C45.4872 39.4577 30.3551 44.929 15.1097 45.052C10.5223 45.085 6.13863 44.6587 1.95855 43.7731L1.6806 44.1819C5.96028 45.0809 10.4436 45.5206 15.1305 45.5009C30.4384 45.3661 45.6954 39.8709 56.9876 30.3758C57.7665 29.7098 58.5453 29.0439 59.3242 28.3778C65.078 23.4319 71.0579 18.3134 78.2613 17.0702C83.6424 16.1095 88.5552 15.9174 93.3492 16.4597C101.02 17.3272 108.433 19.0525 115.339 21.6831C122.929 24.5069 130.459 28.5393 138.424 34.009C139.613 34.8176 140.814 35.6885 142.041 36.5224C146.821 39.8815 151.788 43.367 156.967 45.4209C164.482 48.3562 170.554 48.1373 175.583 47.5349C185.266 46.4015 195.84 43.1572 207.044 37.9492C219.348 32.2402 231.689 30.7944 241.757 33.8901C250.52 36.5874 259.016 42.6354 268.42 52.942C269.358 53.9602 270.346 55.0661 271.333 56.172C273.134 58.1578 274.985 60.2313 276.924 62.2558C281.986 67.5993 288.316 73.3159 296.87 75.6001C305.289 77.8456 313.148 75.7981 320.769 73.8606C322.28 73.4755 323.73 73.1023 325.154 72.7663C335.309 70.3782 346.566 68.8478 358.127 68.2301L358.481 67.7098L358.555 67.7603Z" fill="url(#paint0_linear_342_4616)"/>
</g>
<g opacity="0.33">
<path d="M358.657 67.6121C349.207 67.763 338.276 69.1343 326.149 71.7039C324.625 72.0266 323.139 72.3745 321.528 72.7463C314.007 74.535 306.275 76.3967 298.019 74.1527C289.589 71.8448 283.245 66.2277 278.145 61.0209C276.33 59.1347 274.552 57.2737 272.811 55.438C271.675 54.231 270.577 53.0494 269.453 51.9049C259.797 41.8078 251.113 35.9576 242.223 33.4461C232.041 30.5987 219.96 32.2213 207.242 38.1385C196.302 43.1993 185.654 46.231 175.5 47.0983C170.535 47.5268 164.427 47.5585 157.026 44.537C151.934 42.4339 147.005 38.9737 142.287 35.6027C141.011 34.6812 139.748 33.8221 138.472 32.9005C130.396 27.355 122.729 23.2841 115.04 20.4469C107.971 17.8148 100.433 16.1133 92.6244 15.3691C87.8424 14.8893 82.8165 15.1677 77.2601 16.2265C69.9808 17.5812 64.001 22.6996 58.1847 27.6575C57.4311 28.2863 56.7147 28.9404 55.9611 29.5693C40.938 42.2338 19.8287 47.0649 2.19721 43.6636L1.96981 43.9981C6.10083 44.796 10.4473 45.1971 14.9603 45.1135C30.0824 44.8523 45.1401 39.3304 56.2569 29.9335C57.0106 29.3046 57.727 28.6505 58.4806 28.0217C64.2092 23.1128 70.1637 18.0316 77.3181 16.7007C82.8493 15.679 87.8127 15.4126 92.5576 15.8671C100.304 16.6232 107.805 18.2994 114.836 20.9062C122.489 23.7181 130.155 27.7891 138.169 33.3465C139.432 34.2056 140.708 35.1271 141.983 36.0487C146.739 39.445 151.668 42.9052 156.797 45.0335C164.335 48.0936 170.48 48.0872 175.508 47.6469C185.687 46.7424 196.434 43.724 207.4 38.626C219.855 32.8561 232.122 31.1978 242.069 33.9931C250.884 36.4541 259.469 42.291 269.112 52.3256C270.199 53.4448 271.298 54.6265 272.433 55.8335C274.137 57.6439 275.927 59.5673 277.767 61.4164C282.942 66.6737 289.335 72.3784 297.864 74.6997C306.22 76.9571 314.052 75.1088 321.597 73.2829C323.209 72.9111 324.695 72.5632 326.219 72.2405C338.221 69.6947 348.928 68.3338 358.303 68.1324L358.657 67.6121Z" fill="url(#paint1_linear_342_4616)"/>
</g>
<g opacity="0.33">
<path d="M358.556 67.7613C349.37 67.7649 338.814 68.9029 327.14 71.1275C325.553 71.4621 323.967 71.7966 322.319 72.1431C314.837 73.7951 307.132 75.4575 298.938 73.2016C290.545 70.919 284.077 65.3258 278.889 60.168C277.172 58.4572 275.517 56.7345 273.874 55.0742C272.553 53.7409 271.306 52.4581 270.058 51.1754C260.226 41.3385 251.452 35.6993 242.486 33.4613C232.462 30.9395 220.417 32.7494 207.574 38.6904C196.809 43.653 186.001 46.5213 175.401 47.0854C170.375 47.3637 164.232 47.2081 156.806 44.0617C151.74 41.9215 146.873 38.4494 142.155 35.0784C140.842 34.1316 139.492 33.1595 138.117 32.2246C129.955 26.5661 122.214 22.4447 114.399 19.6313C107.243 17.0483 99.6427 15.3587 91.7212 14.7007C86.9257 14.3205 81.9995 14.6122 76.2305 15.7439C68.9631 17.161 63.0086 22.2423 57.2548 27.1882C56.5636 27.8052 55.8353 28.3968 55.1694 28.9766C40.4347 41.4568 19.7237 46.3414 2.388 43.3043L2.13532 43.6759C6.11768 44.3728 10.2903 44.7099 14.6665 44.5877C29.7901 44.1644 44.286 38.7496 55.4652 29.3408C56.1564 28.7238 56.8595 28.1694 57.5507 27.5524C63.2792 22.6436 69.1713 17.5743 76.2885 16.2181C82.0323 15.1236 86.9466 14.7694 91.6796 15.1615C99.5388 15.8314 107.102 17.4957 114.221 20.0534C121.973 22.8787 129.677 26.9749 137.828 32.571C139.165 33.4807 140.552 34.478 141.865 35.4248C146.621 38.8211 151.525 42.3184 156.628 44.4839C164.227 47.6942 170.658 47.8275 175.459 47.5596C186.085 46.9583 196.967 44.1406 207.757 39.1407C220.512 33.2488 232.458 31.4256 242.344 33.9088C251.249 36.1587 259.948 41.7473 269.706 51.5336C270.941 52.754 272.226 54.062 273.485 55.4072C275.128 57.0675 276.782 58.7902 278.499 60.501C283.762 65.7093 290.267 71.3278 298.734 73.661C307.028 75.9302 314.821 74.2188 322.34 72.592C324.014 72.2084 325.6 71.8738 327.16 71.5764C338.71 69.3755 349.079 68.2733 358.191 68.2191L358.519 67.7361L358.556 67.7613Z" fill="url(#paint2_linear_342_4616)"/>
</g>
<g opacity="0.33">
<path d="M358.506 67.8343C349.557 67.728 339.403 68.5954 328.117 70.487C326.457 70.771 324.809 71.1175 323.06 71.4506C315.643 72.9287 307.913 74.4663 299.782 72.1985C291.414 69.8787 284.859 64.3345 279.557 59.263C277.976 57.7528 276.419 56.2055 274.937 54.7087C273.455 53.2119 272.022 51.8028 270.601 50.4561C260.591 40.8794 251.766 35.4766 242.71 33.4497C232.908 31.2415 220.873 33.2759 207.88 39.2778C197.24 44.2167 186.285 46.8218 175.301 47.0708C170.564 47.1648 164.135 46.8695 156.611 43.5477C151.596 41.3332 146.754 37.8239 142.073 34.4781C140.686 33.4808 139.225 32.433 137.812 31.4728C129.575 25.7638 121.761 21.5917 113.846 18.765C106.591 16.1686 98.877 14.5652 90.9049 13.9816C86.1838 13.652 81.207 14.018 75.2627 15.2478C68.0696 16.7154 62.1151 21.7967 56.3865 26.7055C55.7206 27.2853 55.08 27.8279 54.414 28.4077C39.0134 41.4676 19.12 45.5495 2.703 42.9195L2.37451 43.4027C6.20822 43.9985 10.2441 44.297 14.4464 44.1109C29.3841 43.5613 43.6807 38.1197 54.7099 28.7718C55.3758 28.192 56.0164 27.6495 56.6823 27.0697C62.3857 22.198 68.2525 17.1658 75.3206 15.7219C81.2398 14.5293 86.1422 14.1128 90.838 14.4796C98.7729 15.038 106.424 16.6532 113.643 19.2243C121.483 22.0005 129.297 26.1726 137.497 31.8564C138.947 32.8418 140.371 33.8643 141.758 34.8617C146.476 38.2327 151.318 41.742 156.371 43.9818C163.968 47.3541 170.46 47.6375 175.26 47.5316C186.306 47.2707 197.286 44.6284 207.989 39.6777C220.894 33.7248 232.804 31.7142 242.532 33.8719C251.513 35.8483 260.302 41.2258 270.236 50.752C271.658 52.0987 273.054 53.4825 274.573 55.0046C276.055 56.5014 277.611 58.0487 279.23 59.5841C284.581 64.7433 291.174 70.3127 299.641 72.6459C307.872 74.9271 315.601 73.3895 323.118 71.9248C324.867 71.5917 326.515 71.2452 328.175 70.9612C339.299 69.0681 349.291 68.1992 358.177 68.3175L358.506 67.8343Z" fill="url(#paint3_linear_342_4616)"/>
</g>
<g opacity="0.33">
<path d="M358.226 68.2429C349.74 68.016 339.703 68.3112 329.106 69.9099C327.371 70.1434 325.66 70.5018 323.812 70.8215C316.434 72.1629 308.768 73.5265 300.674 71.284C292.369 68.9523 285.972 63.7336 280.299 58.4094C278.878 57.0627 277.457 55.7161 276.073 54.3947C274.367 52.7463 272.749 51.2109 271.179 49.7631C261.055 40.4347 252.078 35.2549 242.907 33.4762C233.165 31.5801 221.478 33.7423 208.16 39.9033C197.607 44.7932 186.492 47.2347 175.187 47.1568C170.388 47.1006 163.924 46.618 156.377 43.1713C151.411 40.8825 146.607 37.3985 141.951 34.0156C140.49 32.9677 138.954 31.8693 137.456 30.7962C129.132 24.9742 121.218 20.7888 113.241 17.9739C105.886 15.3642 98.0846 13.8099 90.0367 13.3378C85.2903 13.0453 80.425 13.4871 74.2428 14.8269C67.0869 16.3198 61.1948 21.3891 55.4662 26.2979C54.8256 26.8406 54.2102 27.346 53.6068 27.9139C38.545 40.7152 19.0114 44.9873 2.91547 42.6843L2.58698 43.1675C6.28392 43.7247 10.1592 43.8597 14.1742 43.7093C28.8889 43.0081 42.9865 37.5397 53.9026 28.2781C54.518 27.7726 55.1586 27.23 55.7621 26.6621C61.403 21.8024 67.2697 16.7702 74.3008 15.301C80.4324 14.0356 85.2606 13.5685 89.9698 13.8357C98.0177 14.3078 105.757 15.8741 113.075 18.4586C121.014 21.2481 128.891 25.4083 137.178 31.205C138.701 32.241 140.175 33.3513 141.673 34.4244C146.329 37.8073 151.171 41.3166 156.198 43.5935C163.857 47.1159 170.384 47.5867 175.208 47.6057C186.612 47.697 197.728 45.2554 208.405 40.3418C221.636 34.2299 233.26 32.0796 242.903 33.9623C251.974 35.7276 260.877 40.8568 270.926 50.1348C272.533 51.6078 274.115 53.1179 275.82 54.7663C277.204 56.0877 278.625 57.4344 280.046 58.7811C285.756 64.1305 292.227 69.3997 300.632 71.7448C308.801 74.0378 316.529 72.6623 323.97 71.3091C325.781 70.9641 327.503 70.6682 329.238 70.4347C339.71 68.8597 349.548 68.5379 357.972 68.7766L358.3 68.2935L358.226 68.2429Z" fill="url(#paint4_linear_342_4616)"/>
</g>
<g opacity="0.33">
<path d="M358.253 68.2068C348.66 67.7705 339.021 68.1191 330.086 69.2717C328.289 69.5171 326.492 69.7625 324.582 70.0941C317.204 71.2735 309.577 72.5004 301.571 70.2088C293.291 67.8399 286.806 62.6704 281.021 57.4324C279.735 56.2864 278.474 55.1032 277.251 53.9453C275.36 52.1706 273.518 50.4836 271.737 48.9466C261.436 39.8783 252.344 34.9467 243.122 33.4044C233.464 31.7834 222.126 34.0734 208.419 40.4054C197.003 45.6862 185.44 47.9866 175.04 47.0568C169.809 46.5979 163.321 45.9903 156.109 42.6091C151.207 40.3083 146.428 36.7872 141.809 33.4296C140.236 32.3059 138.651 31.1198 137.079 29.9961C128.681 24.1236 120.692 19.8876 112.616 17.0594C105.198 14.4616 97.3464 12.9816 89.2108 12.5585C89.1736 12.5332 89.1483 12.5704 89.1111 12.5451C84.4138 12.3403 79.498 12.8565 73.1909 14.22C66.0841 15.8007 60.2173 20.8329 54.514 25.7046C53.961 26.1981 53.3457 26.7036 52.7928 27.1971C38.0075 39.7516 18.9213 44.1648 3.1212 42.2261L2.79271 42.7092C6.34099 43.1654 10.0543 43.2989 13.9206 43.0474C28.4124 42.1946 42.3731 36.6876 53.1138 27.5241C53.6668 27.0306 54.2822 26.5251 54.8351 26.0315C60.476 21.1718 66.3175 16.1768 73.2995 14.62C79.5694 13.2311 84.4852 12.7149 89.1201 12.9316C89.1573 12.9569 89.1825 12.9197 89.2197 12.945C97.281 13.3175 105.107 14.8346 112.488 17.4072C120.527 20.2102 128.479 24.4209 136.839 30.2681C138.412 31.3918 140.022 32.5407 141.595 33.6644C146.251 37.0474 151.03 40.5685 155.97 42.8945C163.255 46.3263 169.806 46.9219 175.075 47.4061C185.574 48.3493 197.199 46.0369 208.703 40.707C222.322 34.4242 233.598 32.1461 243.119 33.7285C252.242 35.2574 261.259 40.1385 271.486 49.1563C273.278 50.7556 275.083 52.4174 276.999 54.1549C278.223 55.3128 279.509 56.4588 280.769 57.642C286.592 62.9052 293.151 68.1253 301.531 70.5076C309.674 72.8378 317.326 71.5737 324.766 70.3825C326.651 70.0881 328.436 69.7802 330.233 69.5348C339.044 68.406 348.582 68.0441 358.014 68.479L358.216 68.1816L358.253 68.2068Z" fill="url(#paint5_linear_342_4616)"/>
</g>
<g opacity="0.33">
<path d="M358.304 68.132C349.072 67.5618 339.785 67.7141 331.101 68.6572C329.229 68.8521 327.37 69.1094 325.423 69.4158C318.084 70.4583 310.495 71.5484 302.514 69.2197C294.271 66.8761 287.662 61.7303 281.789 56.5414C280.663 55.5589 279.575 54.6017 278.512 53.6073C276.336 51.6929 274.308 49.8795 272.341 48.2163C262.013 39.5091 252.546 34.649 243.409 33.3816C234.009 32.0995 222.706 34.5768 208.787 40.9816C197.397 46.2252 185.698 48.325 175.003 47.031C169.736 46.3848 163.149 45.6019 155.977 42.0838C151.125 39.7088 146.382 36.2129 141.789 32.8181C140.167 31.6067 138.483 30.4072 136.799 29.2077C128.315 23.2222 120.226 18.973 112.088 16.1566C104.57 13.5454 96.5685 12.1264 88.3571 11.8148C82.4631 11.6116 76.9067 12.6704 72.2852 13.7127C65.2156 15.3186 59.3859 20.3761 53.7079 25.2106C53.1802 25.667 52.6525 26.1233 52.0996 26.6169C37.628 38.9499 18.9892 43.5044 3.41065 41.8793L3.0569 42.3996C6.45653 42.7546 9.99587 42.8242 13.7002 42.5712C28.0061 41.5921 41.7305 36.0331 52.3954 26.9811C52.9231 26.5247 53.4508 26.0683 54.0037 25.5747C59.6193 20.7522 65.4237 15.7319 72.3685 14.1497C76.9899 13.1074 82.484 12.0605 88.3155 12.2756C96.5269 12.5872 104.466 14.0182 111.947 16.6041C120.048 19.3952 128.099 23.6192 136.546 29.5794C138.193 30.7536 139.914 31.9783 141.536 33.1897C146.13 36.5845 150.872 40.0804 155.824 42.4689C163.071 46.0374 169.72 46.8084 175.024 47.48C185.819 48.7873 197.58 46.6756 209.058 41.3829C222.889 35.0271 234.155 32.5246 243.429 33.8305C252.505 35.1098 261.897 39.9194 272.114 48.5507C274.118 50.2392 276.146 52.0526 278.285 53.9418C279.373 54.899 280.461 55.8562 281.561 56.8759C287.472 62.09 294.118 67.2611 302.435 69.6552C310.516 71.9974 318.167 70.8953 325.531 69.8156C327.515 69.5345 329.338 69.252 331.209 69.0571C339.831 68.1259 348.956 67.9721 358.051 68.5036L358.304 68.132Z" fill="url(#paint6_linear_342_4616)"/>
</g>
<g opacity="0.33">
<path d="M358.403 67.9823C349.535 67.2783 340.573 67.2716 332.078 68.0169C330.169 68.1865 328.21 68.4305 326.188 68.6863C318.888 69.5921 311.338 70.5454 303.394 68.2419C295.177 65.8612 288.517 60.7897 282.493 55.6617C281.603 54.8933 280.712 54.1249 279.859 53.3817C277.422 51.2904 275.135 49.3001 272.882 47.4971C262.402 39.013 252.821 34.4011 243.606 33.4073C234.392 32.4135 223.399 34.9934 209.067 41.6063C198.39 46.5199 187.217 48.3253 174.851 47.0909C169.97 46.5978 163.398 45.5533 155.705 41.6815C150.903 39.2321 146.198 35.7614 141.642 32.3919C139.946 31.13 138.175 29.8176 136.417 28.5676C127.858 22.5315 119.696 18.2316 111.432 15.4391C103.79 12.8517 95.7257 11.4445 87.4013 11.2192C81.5817 11.0665 75.9122 12.2115 71.1778 13.3401C64.1825 14.9966 58.341 19.9916 52.7001 24.8513C52.1977 25.2705 51.6952 25.6898 51.23 26.1343C40.7657 35.051 27.3283 40.5877 13.3449 41.7318C9.96467 41.9877 6.69884 41.9954 3.54746 41.7548L3.24423 42.2008C6.4952 42.4547 9.89778 42.4857 13.4029 42.206C27.4859 41.0752 41.0482 35.5148 51.563 26.5237C52.0654 26.1045 52.5678 25.6853 53.0331 25.2408C58.6487 20.4182 64.4026 15.4722 71.2983 13.8024C76.0327 12.6738 81.6144 11.5779 87.3968 11.7053C95.684 11.9054 103.711 13.2872 111.291 15.8866C119.517 18.6538 127.643 22.9284 136.139 28.9764C137.897 30.2264 139.668 31.5388 141.364 32.8007C145.92 36.1702 150.662 39.6662 155.464 42.1156C163.231 46.0379 169.84 47.1077 174.784 47.5889C187.213 48.8114 198.51 46.9822 209.25 42.0567C223.494 35.4928 234.45 32.8877 243.54 33.9053C252.692 34.911 262.198 39.4723 272.605 47.9059C274.857 49.7089 277.145 51.6992 279.581 53.7905C280.471 54.5589 281.325 55.3021 282.215 56.0705C288.276 61.2238 295.01 66.3457 303.265 68.7518C311.308 71.0687 318.895 70.1406 326.258 69.2229C328.28 68.967 330.239 68.7231 332.147 68.5535C340.518 67.832 349.343 67.8001 358.112 68.4907L358.44 68.0076L358.403 67.9823Z" fill="url(#paint7_linear_342_4616)"/>
</g>
<g opacity="0.33">
<path d="M358.504 67.8336C349.973 67.033 341.312 66.9044 333.068 67.4401C331.085 67.5591 329.088 67.7778 326.967 68.0203C319.706 68.7893 312.157 69.5807 304.276 67.2653C295.71 64.7567 288.915 59.4846 283.199 54.7832L281.158 53.0694C278.462 50.8012 275.888 48.6713 273.388 46.7539C262.756 38.4927 253.061 34.1291 243.731 33.3835C234.726 32.6409 224.082 35.3486 209.236 42.1563C198.559 47.0699 187.215 48.6494 174.59 47.0761C169.684 46.458 163.077 45.2262 155.348 41.1672C150.609 38.7059 145.929 35.1981 141.41 31.8538C139.602 30.5161 137.758 29.1531 135.888 27.8273C127.243 21.6783 119.006 17.3279 110.655 14.5845C102.95 12.0089 94.761 10.6256 86.3355 10.5489C80.5902 10.4467 75.0576 11.6304 69.9857 12.8556C63.0023 14.5745 57.2232 19.5576 51.5823 24.4174L50.2505 25.5769C39.9363 34.4327 26.6609 39.9708 12.8634 41.2413C9.68229 41.5239 6.55321 41.5702 3.57575 41.3936L3.27255 41.8395C6.38677 42.0548 9.61546 42.0219 12.9214 41.7155C26.7814 40.4331 40.1698 34.8088 50.5463 25.9411L51.8782 24.7815C57.4314 19.9709 63.2105 14.9878 70.0809 13.3551C75.1528 12.1299 80.623 10.9581 86.3311 11.035C94.6941 11.1236 102.846 12.4816 110.488 15.0691C118.777 17.8244 126.977 22.1495 135.584 28.2733C137.417 29.5738 139.299 30.962 141.07 32.2745C145.564 35.6559 150.269 39.1266 155.045 41.6131C162.873 45.6856 169.518 46.9427 174.423 47.5607C187.122 49.1845 198.555 47.556 209.295 42.6305C224.052 35.8719 234.597 33.1508 243.54 33.9053C252.744 34.6747 262.365 38.9877 272.923 47.1984C275.423 49.1158 277.971 51.2829 280.656 53.4886L282.697 55.2024C288.425 59.9662 295.257 65.2636 303.922 67.7856C311.903 70.1143 319.451 69.323 326.775 68.542C328.871 68.3368 330.868 68.1181 332.876 67.9619C341.02 67.4128 349.557 67.5653 358.014 68.3153L358.393 67.7578L358.504 67.8336Z" fill="url(#paint8_linear_342_4616)"/>
</g>
<g opacity="0.33">
<path d="M358.655 67.6113C350.425 66.6888 342.063 66.4383 334.082 66.8268C332 66.9325 329.966 67.1259 327.771 67.3178C320.548 67.9501 313.038 68.6047 305.219 66.2774C296.716 63.7569 289.808 58.571 284.03 53.8815L282.693 52.8099C279.674 50.3767 276.84 48.0699 274.055 46.0128C262.825 37.6714 253.264 33.6704 244.08 33.35C235.033 33.0682 224.424 35.9632 209.667 42.7218C198.927 47.6473 187.485 49.0514 174.614 47.0396C167.308 45.8762 161.343 43.9398 155.252 40.6684C150.564 38.1328 145.958 34.6756 141.502 31.3194C139.62 29.9311 137.651 28.4299 135.744 27.0789C127.051 20.8422 118.714 16.4784 110.263 13.7216C102.459 11.1326 94.1939 9.86078 85.6808 9.83314C80.3086 9.82163 75.2263 10.8224 69.1794 12.3628C62.2703 14.1323 56.4912 19.1154 50.8756 23.938L49.6567 25.0113C39.4808 33.7437 26.3793 39.3458 12.8047 40.7678C9.76043 41.0891 6.83052 41.1622 4.02699 41.0494L3.72379 41.4954C6.66408 41.6468 9.71879 41.5499 12.888 41.2048C26.5621 39.7962 39.7514 34.1451 50.015 25.3636L51.2338 24.2903C56.787 19.4796 62.5156 14.5708 69.3623 12.8133C75.3468 11.2847 80.429 10.2839 85.7388 10.3074C94.2148 10.3097 102.392 11.6306 110.159 14.1943C118.548 16.963 126.847 21.3015 135.503 27.5129C137.448 28.8893 139.379 30.3652 141.261 31.7534C145.718 35.1096 150.36 38.5921 155.086 41.153C161.213 44.4496 167.216 46.4114 174.585 47.5629C187.554 49.5881 199.122 48.1602 209.924 43.2228C224.619 36.476 235.166 33.593 244.15 33.8866C244.312 33.8881 244.511 33.9148 244.699 33.8792C253.644 34.3096 262.944 38.2957 273.839 46.4097C276.625 48.4668 279.458 50.7736 282.44 53.1815L283.777 54.2532C289.592 58.9679 296.575 64.2043 305.14 66.7129C313.059 69.0536 320.606 68.4243 327.891 67.7801C330.087 67.5882 332.12 67.3948 334.177 67.3263C342.096 66.9496 350.333 67.224 358.452 68.0707L358.73 67.6619L358.655 67.6113Z" fill="url(#paint9_linear_342_4616)"/>
</g>
<g opacity="0.33">
<path d="M358.706 67.5369C350.825 66.5802 342.789 66.1706 335.034 66.3867C332.914 66.4671 330.769 66.5846 328.536 66.7512C321.327 67.2839 313.881 67.7647 306.062 65.4374C297.621 62.905 290.588 57.7429 284.697 53.1397L284.128 52.6982C280.786 50.1 277.63 47.6282 274.559 45.4314C263.598 37.6534 253.699 33.7491 244.241 33.5134C234.359 33.2614 223.353 37.2995 209.91 43.4843C199.17 48.4098 187.529 49.6251 174.426 47.2372C167.084 45.8866 161.083 43.7628 154.943 40.4038C150.317 37.8563 145.774 34.3871 141.355 31.0562C139.386 29.555 137.344 28.0032 135.325 26.5763C126.557 20.2891 118.146 15.8748 109.596 13.1046C103.146 11.0016 96.4135 9.79362 89.4864 9.43142C87.9166 9.34234 86.3335 9.35285 84.7504 9.36337C78.8416 9.42177 73.3074 10.7674 68.1346 12.1413C61.2626 13.936 55.4835 18.9192 49.9303 23.7298L48.8497 24.6798C38.7868 33.3259 25.8844 38.9548 12.4957 40.5032C9.61343 40.8259 6.79504 40.9748 4.12827 40.9006L3.82507 41.3466C6.65387 41.4222 9.57183 41.2867 12.579 40.9401C26.0301 39.3798 39.0202 33.702 49.1708 25.0068L50.2514 24.0569C55.7794 19.2833 61.496 14.3121 68.2802 12.5665C73.4279 11.2298 78.962 9.88404 84.8084 9.83754C93.3601 9.72842 101.662 11.0256 109.492 13.5773C117.968 16.297 126.342 20.686 135.11 26.9732C137.128 28.4001 139.171 29.9518 141.139 31.453C145.559 34.784 150.139 38.2784 154.802 40.8512C160.953 44.2726 167.017 46.3845 174.396 47.7605C187.574 50.1989 199.277 48.9717 210.167 43.9852C223.56 37.8748 234.466 33.8233 244.311 34.05C253.67 34.2723 263.469 38.1633 274.355 45.8908C277.426 48.0876 280.545 50.5341 283.887 53.1322L284.456 53.5737C290.422 58.2275 297.492 63.4148 305.995 65.9353C313.888 68.3131 321.385 67.7581 328.631 67.2507C330.864 67.0841 333.009 66.9665 335.129 66.8861C342.784 66.6566 350.684 67.0277 358.503 67.9963L358.78 67.5875L358.706 67.5369Z" fill="url(#paint10_linear_342_4616)"/>
</g>
<g opacity="0.33">
<path d="M357.948 68.6521C355.968 68.4471 353.988 68.2421 351.983 68.0743C346.74 67.5529 341.31 67.0673 336.056 66.3214C332.434 65.8148 328.655 66.0172 324.714 66.2182C318.978 66.5025 313.054 66.8226 306.976 64.9723C298.598 62.428 291.749 57.5543 285.436 52.7727C282.217 50.3128 278.553 47.5496 275.134 45.225C264.022 37.67 254.008 34.0139 244.498 34.0146C234.052 34.0317 222.828 38.7908 210.211 44.5593C199.384 49.5338 187.645 50.5737 174.322 47.7102C166.944 46.1722 160.907 43.8611 154.744 40.3772C150.205 37.7807 145.674 34.374 141.317 31.0312C139.238 29.4541 137.083 27.8266 134.979 26.2867C126.124 19.8865 117.614 15.4589 109.001 12.7006C102.725 10.6616 96.1664 9.51742 89.4386 9.18196C87.6072 9.07803 85.7625 9.07368 83.8925 9.10651C78.058 9.21545 72.411 10.6474 67.1504 12.0703C60.2903 13.9274 54.5736 18.8987 49.0204 23.7094L48.078 24.5359C34.7108 36.0438 18.1115 41.1154 4.05229 41.0124L3.74905 41.4584C18.0194 41.6506 34.8432 36.5685 48.3739 24.9001L49.3162 24.0735C54.8441 19.3 60.5356 14.3659 67.2707 12.5326C72.5313 11.1096 78.1532 9.71493 83.9505 9.58073C92.59 9.42254 100.968 10.6082 108.897 13.1733C117.473 15.9063 125.921 20.3459 134.763 26.6836C136.893 28.1863 139.022 29.851 141.102 31.4281C145.459 34.7709 150.002 38.24 154.603 40.8247C160.803 44.3339 166.865 46.6078 174.317 48.1963C187.766 51.036 199.604 50.0095 210.494 45.023C223.023 39.3036 234.247 34.5445 244.593 34.5141C254.004 34.5 263.98 38.1307 274.981 45.61C278.363 47.9093 282.027 50.6725 285.245 53.1324C291.596 57.9393 298.519 62.8635 306.934 65.4331C313.112 67.2967 319.036 66.9767 324.835 66.6805C328.775 66.4795 332.492 66.2889 336.114 66.7956C341.43 67.5295 346.835 68.0524 352.103 68.5366C354.046 68.7163 355.926 68.9079 357.807 69.0996L358.059 68.7279L357.948 68.6521Z" fill="url(#paint11_linear_342_4616)"/>
</g>
<g opacity="0.33">
<path d="M357.825 68.8391C356.169 68.6371 354.451 68.447 352.795 68.2449C347.602 67.6492 342.273 67.0149 337.045 66.2319C333.348 65.6747 329.521 65.7895 325.506 65.9399C319.82 66.1499 313.909 66.3703 307.868 64.5453C299.59 62.0145 292.616 57.1645 286.153 52.4438C282.76 49.92 279.12 47.2818 275.687 45.0568C264.424 37.7247 254.259 34.2916 244.708 34.5911C234.185 34.8817 222.707 40.1745 210.503 45.7348C199.613 50.7213 187.739 51.5605 174.182 48.3209C166.794 46.5585 160.708 44.1597 154.484 40.5256C149.971 37.8919 145.54 34.4986 141.22 31.181C139.054 29.491 136.825 27.813 134.609 26.1973C125.681 19.7466 117.096 15.2684 108.383 12.4967C102.256 10.5588 95.8592 9.41611 89.3305 9.10739C87.2376 8.98862 85.1312 8.96944 83.0115 9.04987C77.2513 9.20934 71.7038 10.6546 66.1177 12.2366C59.332 14.1443 53.6153 19.1155 48.0874 23.889L47.258 24.6294C34.1791 35.9529 17.8281 41.1389 3.9413 41.2618L3.63807 41.7078C17.6735 41.686 34.2743 36.4524 47.5538 24.9935L48.3832 24.2532C53.8859 19.5169 59.5401 14.5575 66.2381 12.6989C71.8242 11.1169 77.3465 9.70877 83.007 9.53593C91.7223 9.26625 100.188 10.4028 108.242 12.9442C116.917 15.6906 125.428 20.1182 134.356 26.569C136.573 28.1846 138.838 29.888 140.967 31.5527C145.287 34.8702 149.756 38.2889 154.269 40.9226C160.53 44.5819 166.616 46.9806 174.078 48.7936C187.735 52.0466 199.709 51.2207 210.686 46.1852C222.827 40.6367 234.28 35.3811 244.704 35.0771C254.192 34.7896 264.257 38.2093 275.446 45.4908C278.879 47.7159 282.482 50.3288 285.875 52.8526C292.35 57.6357 299.386 62.4738 307.739 65.0552C313.855 66.9307 319.765 66.7103 325.55 66.5137C329.565 66.3632 333.356 66.2232 336.99 66.7923C342.256 67.6006 347.585 68.2349 352.777 68.8306C354.396 69.0074 355.989 69.2214 357.571 69.3729L357.899 68.8897L357.825 68.8391Z" fill="url(#paint12_linear_342_4616)"/>
</g>
<g opacity="0.33">
<path d="M357.696 69.023C356.301 68.8358 354.907 68.6486 353.513 68.4614C348.433 67.7794 343.155 67.0708 337.94 66.1882C334.194 65.5433 330.329 65.6328 326.203 65.7074C320.53 65.8178 314.633 65.9386 308.654 64.1017C300.438 61.5589 293.612 56.9721 286.789 52.0613C282.777 49.1703 279.457 46.8591 276.16 44.8347C264.745 37.7256 254.465 34.5408 244.8 35.0885C235.073 35.6481 224.746 40.3655 212.818 45.8411L210.677 46.8313C199.725 51.8296 187.69 52.5054 173.95 48.8154C166.527 46.8657 160.405 44.2796 154.157 40.5207C149.706 37.8751 145.337 34.4698 141.092 31.2028C138.814 29.437 136.5 27.6459 134.172 25.9545C125.157 19.3908 116.473 14.8992 107.698 12.1394C101.744 10.2654 95.4845 9.16139 89.1179 8.85415C86.8004 8.7458 84.4071 8.74895 82.063 8.8398C76.3519 9.08696 70.9664 10.5337 65.0176 12.2495C58.269 14.1824 52.5524 19.1537 47.0869 23.9153L46.3957 24.5322C33.5428 35.6833 17.44 40.9838 3.82526 41.346L3.52203 41.792C17.3479 41.519 33.6752 36.2081 46.6916 24.8964L47.3827 24.2795C52.8482 19.5179 58.5143 14.621 65.138 12.7118C71.0616 11.0332 76.4099 9.56113 82.0585 9.32586C90.8496 8.94469 99.4402 10.0575 107.557 12.5869C116.294 15.3214 124.942 19.7877 133.919 26.3261C136.247 28.0176 138.599 29.834 140.839 31.5745C145.122 34.8668 149.491 38.272 153.979 40.9429C160.264 44.7271 166.411 47.2759 173.872 49.2509C187.711 52.9543 199.845 52.2919 210.91 47.2073L213.051 46.2172C224.954 40.7787 235.218 36.0732 244.846 35.5002C254.412 34.9391 264.566 38.1478 275.932 45.1691C279.192 47.1683 282.549 49.5048 286.524 52.3704C293.41 57.2694 300.248 61.9187 308.527 64.4496C314.58 66.337 320.502 66.179 326.237 66.0567C330.326 65.9568 334.166 65.9045 337.875 66.5241C343.027 67.4186 348.343 68.1526 353.447 68.7973C354.779 68.9964 356.099 69.1331 357.394 69.3069L357.621 68.9725L357.696 69.023Z" fill="url(#paint13_linear_342_4616)"/>
</g>
<g opacity="0.33">
<path d="M357.622 69.1359C356.489 68.9636 355.394 68.8165 354.261 68.6442C349.232 67.8879 344.03 67.0677 338.928 66.0989C335.133 65.3663 331.194 65.4052 326.993 65.4293C321.334 65.4401 315.487 65.4866 309.509 63.6498C301.392 61.1203 294.738 56.7595 287.467 51.7074C284.185 49.4215 280.357 46.8188 276.675 44.6414C265.22 37.8311 254.552 34.8173 244.997 35.6028C235.953 36.3556 226.565 40.7326 215.65 45.7562C214.135 46.4654 212.558 47.1864 210.919 47.9193C199.879 52.9668 187.709 53.4419 173.761 49.3387C166.327 47.1645 160.182 44.4535 153.847 40.5817C149.484 37.887 145.152 34.507 140.944 31.2652C138.555 29.4237 136.154 27.5196 133.715 25.7524C124.626 19.1381 115.892 14.5588 106.992 11.8228C101.15 10.0246 95.09 8.94736 88.86 8.67875C86.281 8.55556 83.6633 8.56912 81.0694 8.70755C75.3955 8.97998 70.1467 10.4654 63.8976 12.3031C57.1981 14.3238 51.5067 19.2579 46.0413 24.0195L45.4883 24.513C32.8613 35.4916 17.0692 40.8947 3.62692 41.4828L3.29843 41.966C16.9147 41.4417 32.9565 35.9911 45.7842 24.8772L46.3371 24.3836C51.8026 19.622 57.4063 14.737 64.0181 12.7654C70.2672 10.9277 75.4906 9.47944 81.0902 9.15647C89.9943 8.68908 98.6353 9.72751 106.851 12.2703C115.714 14.981 124.41 19.535 133.462 26.124C135.901 27.8913 138.339 29.8206 140.691 31.6369C144.874 34.9158 149.206 38.2958 153.632 40.9786C160.003 44.8757 166.149 47.5867 173.62 49.7861C187.667 53.9027 199.937 53.4409 211.064 48.3444C212.667 47.5862 214.244 46.8652 215.796 46.1813C226.648 41.1696 236.011 36.8298 244.956 36.0636C254.411 35.2647 265.016 38.2904 276.36 45.0249C280.042 47.2024 283.87 49.805 287.115 52.0657C294.126 56.9409 301.114 61.5292 309.293 64.0467C315.309 65.9089 321.193 65.8876 326.914 65.8649C331.052 65.8527 334.992 65.8138 338.749 66.5211C343.851 67.4899 349.079 68.273 354.108 69.0292C355.141 69.1882 356.212 69.3724 357.27 69.4942L357.548 69.0854L357.622 69.1359Z" fill="url(#paint14_linear_342_4616)"/>
</g>
<g opacity="0.33">
<path d="M357.57 69.2097C356.699 69.0522 355.865 68.9199 354.994 68.7624C350.016 67.9318 344.901 67.0626 339.912 66.0076C336.068 65.1873 332.054 65.1757 327.804 65.1121C322.196 65.0486 316.363 64.9955 310.446 63.1467C301.808 60.4255 294.276 55.3586 288.23 51.3024C285.182 49.2305 281.155 46.6012 277.274 44.397C265.667 37.8097 254.885 35.0441 245.253 36.1032C236.793 37.0358 228.156 41.1079 218.179 45.7911C215.95 46.8303 213.66 47.8815 211.281 48.9816C200.117 54.0529 187.849 54.3524 173.718 49.7989C166.348 47.4507 159.993 44.4886 153.709 40.5424C149.408 37.8358 145.151 34.5064 141.042 31.2781C138.567 29.3235 136.017 27.3184 133.466 25.4753C124.291 18.7481 115.458 14.1555 106.471 11.4685C100.765 9.70893 94.8163 8.7075 88.7737 8.4032C85.9701 8.29042 83.1532 8.27721 80.3096 8.46323C74.2358 8.8442 68.5234 10.6121 62.9863 12.2818C56.324 14.3277 50.6326 19.2618 45.1671 24.0234L44.7524 24.3936C32.3514 35.1998 16.8328 40.6801 3.63724 41.5447L3.30879 42.0278C16.7154 41.2524 32.4837 35.7245 45.0482 24.7577L45.4629 24.3876C50.9031 19.6631 56.5322 14.7409 63.1068 12.7441C68.6067 11.0491 74.2939 9.31841 80.3052 8.94933C89.2598 8.4076 98.0509 9.38509 106.329 11.916C115.254 14.6148 124.05 19.1822 133.188 25.8841C135.739 27.7272 138.289 29.7323 140.764 31.6869C144.91 34.9405 149.168 38.2699 153.468 40.9765C159.789 44.948 166.169 47.873 173.577 50.2464C187.832 54.7762 200.237 54.5151 211.49 49.3948C213.868 48.2946 216.158 47.2435 218.387 46.2043C228.364 41.5211 236.976 37.4862 245.336 36.5402C254.869 35.4677 265.551 38.2199 277.084 44.7567C280.965 46.9609 284.955 49.565 288.002 51.6369C294.085 55.7184 301.618 60.7853 310.33 63.557C316.321 65.4563 322.154 65.5094 327.825 65.561C332.038 65.5994 336.026 65.6481 339.833 66.4431C344.847 67.461 349.999 68.3555 354.915 69.198C355.687 69.3421 356.521 69.4743 357.292 69.6185L357.57 69.2097Z" fill="url(#paint15_linear_342_4616)"/>
</g>
<g opacity="0.33">
<path d="M357.547 69.2484C356.912 69.1429 356.303 69.0003 355.668 68.8948C350.803 67.978 345.738 67.0344 340.837 65.9303C336.919 65.0595 332.856 64.9602 328.532 64.8461C322.911 64.7201 317.154 64.5555 311.238 62.7067C302.699 59.9989 295.376 55.1832 288.846 50.9605C284.336 48.0027 280.902 45.9398 277.726 44.2157C265.968 37.8514 255.06 35.2716 245.362 36.6666C237.449 37.7538 229.449 41.6074 220.198 46.0229C217.381 47.3684 214.502 48.7258 211.472 50.1441C200.22 55.2644 187.817 55.3634 173.478 50.3966C166.072 47.8611 159.693 44.7742 153.386 40.7031C149.185 38.0099 144.989 34.6686 140.918 31.4655C138.331 29.4351 135.695 27.317 132.996 25.3729C123.746 18.5951 114.839 13.952 105.752 11.2517C100.158 9.56788 94.371 8.56783 88.428 8.27691C85.4253 8.13739 82.3586 8.17179 79.2653 8.4054C73.2286 8.81164 67.6782 10.581 61.7904 12.447C55.1652 14.5181 49.5109 19.4775 44.0707 24.2019L43.7942 24.4488C31.6444 35.0453 16.4112 40.6653 3.38817 41.7559L3.00912 42.3134C5.46628 42.1363 8.04982 41.7734 10.6348 41.2485C22.8476 38.7919 34.7421 32.967 44.09 24.8129L44.3665 24.5661C49.7696 19.8164 55.3734 14.9314 61.9361 12.8721C67.7987 11.0433 73.3238 9.3111 79.2861 8.85432C88.3536 8.22637 97.1954 9.12957 105.573 11.6738C114.598 14.386 123.468 19.0039 132.681 25.7564C135.318 27.7124 138.016 29.8186 140.603 31.849C144.674 35.0521 148.869 38.3934 153.108 41.1119C159.489 45.2335 165.931 48.3086 173.311 50.8812C187.75 55.8614 200.315 55.7638 211.655 50.5945C214.722 49.2014 217.601 47.8441 220.381 46.4733C229.595 42.0325 237.57 38.2161 245.42 37.1408C255.03 35.7948 265.801 38.336 277.486 44.6498C280.624 46.3486 284.058 48.4116 288.568 51.3694C295.073 55.6292 302.458 60.433 311.034 63.166C316.988 65.0401 322.807 65.1928 328.465 65.344C332.752 65.4329 336.815 65.5322 340.671 66.4149C345.572 67.519 350.636 68.4626 355.502 69.3794C356.074 69.4968 356.609 69.5889 357.181 69.7063L357.51 69.2232L357.547 69.2484Z" fill="url(#paint16_linear_342_4616)"/>
</g>
<g opacity="0.33">
<path d="M357.546 69.2478C357.173 69.1571 356.775 69.1037 356.365 68.9878C351.587 68.0219 346.635 66.9921 341.822 65.8389C337.892 64.9057 333.718 64.7306 329.381 64.554C323.812 64.3537 318.042 64.1267 312.214 62.2289C303.837 59.5226 296.736 55.0205 289.858 50.67L289.709 50.569C285.223 47.736 281.652 45.6344 278.426 43.9846C266.479 37.818 255.493 35.5117 245.706 37.1179C238.241 38.3462 230.791 42.0303 222.215 46.2526C218.934 47.8805 215.528 49.5323 211.899 51.1944C200.559 56.3638 187.983 56.2369 173.473 50.8821C166.094 48.1474 159.654 44.9103 153.285 40.6891C149.147 37.984 145.026 34.6932 141.054 31.5035C138.381 29.3601 135.597 27.141 132.811 25.0839C123.475 18.1932 114.468 13.5366 105.319 10.8482C99.8364 9.24022 94.1861 8.27891 88.4051 7.98945C85.1779 7.86036 81.8869 7.90517 78.6062 8.17446C72.6186 8.66841 67.0682 10.4377 61.2547 12.3542L61.0421 12.4271C54.4289 14.5607 48.837 19.5081 43.3715 24.2697L43.2586 24.356C34.1113 32.3748 22.5037 38.1774 10.5762 40.7736C8.17857 41.2629 5.83145 41.6778 3.57348 41.8816L3.24499 42.3647C5.62782 42.1371 8.17418 41.7489 10.6848 41.1735C22.7119 38.5906 34.3699 32.7137 43.6049 24.6458L43.7179 24.5596C49.121 19.8099 54.7247 14.9249 61.2131 12.8151L61.4257 12.7422C67.2764 10.851 72.7643 9.09349 78.6895 8.61143C87.8328 7.872 96.7741 8.78857 105.24 11.2838C114.364 14.0094 123.297 18.6153 132.595 25.4808C135.381 27.5379 138.166 29.757 140.838 31.9004C144.811 35.0901 148.931 38.3809 153.107 41.1113C159.538 45.3206 165.99 48.6201 173.431 51.3428C188.078 56.7363 200.716 56.8513 212.181 51.6582C215.811 49.996 219.216 48.3443 222.497 46.7163C231.074 42.4941 238.498 38.8472 245.901 37.6307C255.563 36.0484 266.474 38.3041 278.347 44.4201C281.573 46.0699 285.144 48.1716 289.593 50.9792L289.742 51.0803C296.657 55.4561 303.796 59.9834 312.235 62.6778C318.126 64.5637 323.932 64.816 329.539 65.0415C333.875 65.2181 338.012 65.368 341.942 66.3012C346.756 67.4544 351.733 68.447 356.522 69.4754C356.858 69.5407 357.194 69.6061 357.53 69.6715L357.732 69.3742L357.546 69.2478Z" fill="url(#paint17_linear_342_4616)"/>
</g>
<g opacity="0.33">
<path d="M357.571 69.2105C357.398 69.1466 357.236 69.1452 357.062 69.0813C352.372 68.0663 347.533 66.9503 342.782 65.7853C338.803 64.7643 334.554 64.5387 330.107 64.2863C324.55 63.9864 318.832 63.685 313.003 61.7872C304.8 59.1448 297.76 54.7929 290.917 50.6297L290.297 50.2626C285.823 47.4921 282.202 45.4648 278.851 43.8388C266.715 37.8699 255.615 35.8119 245.788 37.7168C238.708 39.0983 231.771 42.5876 223.719 46.6775C220 48.5507 216.168 50.5102 212.025 52.3672C200.597 57.5856 187.886 57.258 173.193 51.4528C165.778 48.5309 159.34 45.1317 152.885 40.7975C148.872 38.0686 144.825 34.8284 140.89 31.6639C138.069 29.4195 135.198 27.0874 132.264 24.9292C122.854 17.988 113.772 13.2809 104.523 10.5791C99.1776 9.00976 93.627 8.06178 87.9456 7.7857C84.5192 7.62987 81.0408 7.71041 77.5104 8.02729C71.5348 8.58366 66.0587 10.4035 60.2199 12.3572L59.7948 12.5029C53.2559 14.687 47.6268 19.6092 42.249 24.3218C30.3623 34.7712 15.7505 40.5963 3.22244 42.0777L2.89395 42.5609C15.584 41.0809 30.4827 35.2334 42.5701 24.6487C47.9479 19.9362 53.4893 15.0631 59.9658 12.8909L60.3909 12.7451C66.1672 10.8034 71.6433 8.98347 77.5937 8.46426C86.8129 7.61333 95.8419 8.48079 104.407 10.9894C113.619 13.6659 122.663 18.3477 132.011 25.3009C134.908 27.4338 137.816 29.7912 140.6 32.0103C144.498 35.1495 148.582 38.415 152.596 41.1439C159.087 45.5033 165.563 48.9277 173.015 51.8749C187.844 57.7187 200.643 57.9973 212.196 52.7551C216.364 50.8611 220.196 48.9015 223.915 47.0283C231.942 42.9755 238.842 39.461 245.859 38.0914C255.562 36.2103 266.599 38.2802 278.624 44.1733C281.974 45.7993 285.57 47.8638 290.033 50.5718L290.653 50.9389C297.507 55.1645 304.573 59.4794 312.85 62.1723C318.716 64.0954 324.497 64.3848 330.053 64.6847C334.501 64.9371 338.65 65.1494 342.629 66.1703C347.355 67.3725 352.219 68.4513 356.909 69.4662C357.008 69.4796 357.145 69.5183 357.245 69.5317L357.497 69.16L357.571 69.2105Z" fill="url(#paint18_linear_342_4616)"/>
</g>
<g opacity="0.33">
<path d="M358.227 68.2434C353.438 67.2151 348.584 66.3608 343.704 65.7056C340.953 65.3565 338.225 65.1322 335.335 64.9064C328.435 64.345 321.273 63.7688 313.891 61.3583C305.85 58.7174 298.883 54.578 292.126 50.5278L291.035 49.8946C286.547 47.2237 282.838 45.2454 279.425 43.6313C267.138 37.8854 255.886 36.0504 246.019 38.2541C239.312 39.7262 232.749 43.1441 225.222 47.1017C221.164 49.2336 216.956 51.4265 212.338 53.5035C200.785 58.7457 187.976 58.2427 173.075 52.0243C165.687 48.9032 159.162 45.391 152.647 40.9068C148.695 38.1659 144.723 34.9762 140.9 31.8875C137.992 29.5302 134.936 27.0718 131.915 24.8006C122.419 17.7464 113.275 13.0512 103.926 10.3361C98.6549 8.81724 93.241 7.90794 87.6964 7.6705C84.0708 7.48792 80.368 7.57881 76.6251 7.96854C70.6613 8.58735 65.1599 10.4444 59.3583 12.4234L58.7206 12.6419C52.1935 14.8884 46.4635 19.9593 41.3874 24.3879C29.7519 34.6277 15.3884 40.5673 3.10711 42.3252L2.75336 42.8455C15.2338 41.1143 29.859 35.1896 41.6833 24.7521C46.7222 20.2982 52.4017 15.3017 58.841 13.1042L59.4787 12.8856C65.2803 10.9067 70.7193 9.06157 76.6206 8.45466C85.9527 7.51751 95.0694 8.33591 103.734 10.8579C113.046 13.5477 122.127 18.2548 131.612 25.2466C134.658 27.4805 137.652 29.9509 140.559 32.3083C144.383 35.3969 148.367 38.6491 152.343 41.3528C158.896 45.8623 165.433 49.4368 172.846 52.5208C187.821 58.7897 200.792 59.2942 212.458 53.9657C217.102 51.8516 221.31 49.6588 225.368 47.5269C232.87 43.6064 239.37 40.2004 246.077 38.7283C255.856 36.5737 266.971 38.37 279.159 44.1026C282.535 45.6914 286.318 47.7202 290.732 50.3406L291.823 50.9737C298.58 55.0239 305.584 59.1886 313.687 61.8176C321.107 64.2534 328.268 64.8297 335.231 65.3792C338.121 65.6049 340.886 65.8545 343.6 66.1783C348.406 66.783 353.197 67.6493 357.887 68.6642L358.19 68.2182L358.227 68.2434Z" fill="url(#paint19_linear_342_4616)"/>
</g>
<g opacity="0.33">
<path d="M358.278 68.1691C353.812 67.1437 349.246 66.267 344.69 65.6148C341.864 65.2151 339.062 64.9403 336.061 64.6387C329.174 63.9778 322.087 63.29 314.768 60.8676C306.901 58.2905 300.02 54.2642 293.336 50.4265L291.737 49.502C287.298 46.9188 283.427 44.939 279.963 43.3993C267.487 37.8511 256.158 36.2896 246.239 38.7297C239.78 40.3162 233.592 43.6628 226.402 47.5237C222.093 49.8652 217.571 52.2796 212.602 54.5528C200.925 59.8188 187.955 59.1523 172.933 52.4716C165.547 49.1885 159.024 45.5143 152.41 40.8547C148.558 38.1272 144.661 34.988 140.937 31.9127C137.906 29.4171 134.738 26.8829 131.568 24.5107C121.998 17.406 112.743 12.635 103.331 9.93171C98.1969 8.45154 92.8574 7.59276 87.4376 7.33152C83.5876 7.15937 79.7227 7.24878 75.7924 7.6742C69.8034 8.33017 64.3764 10.2377 58.5866 12.2791L57.7988 12.5587C51.3089 14.8305 45.6918 19.8151 40.6782 24.2318C29.2686 34.2991 15.2039 40.2788 3.10695 42.3251L2.75321 42.8454C15.0241 40.863 29.401 34.8239 40.9741 24.596C45.9 20.2283 51.5542 15.269 57.9193 13.0209L58.7071 12.7414C64.4715 10.7372 69.9239 8.79248 75.8505 8.14841C85.2584 7.09976 94.4628 7.8691 103.227 10.4044C112.601 13.0824 121.819 17.8281 131.353 24.9076C134.522 27.2798 137.665 29.8512 140.721 32.3097C144.47 35.3478 148.343 38.5242 152.232 41.2769C158.883 45.9618 165.443 49.6612 172.829 52.9443C187.951 59.6384 201.057 60.3435 212.847 54.9913C217.879 52.7062 222.338 50.3037 226.673 47.925C233.8 44.076 239.988 40.7294 246.385 39.1548C256.179 36.7385 267.47 38.2748 279.81 43.7843C283.274 45.3241 287.119 47.341 291.546 49.8617L293.146 50.7862C299.841 54.6863 306.748 58.6756 314.652 61.2779C322.009 63.7256 329.157 64.4014 336.044 65.0624C339.045 65.364 341.847 65.6387 344.636 66.0131C349.13 66.6773 353.622 67.5034 358.025 68.5407L358.278 68.1691Z" fill="url(#paint20_linear_342_4616)"/>
</g>
<g opacity="0.33">
<path d="M358.328 68.0948C354.162 67.1095 349.919 66.2358 345.65 65.5612C342.775 65.0739 339.873 64.7857 336.798 64.4337C329.987 63.6612 322.914 62.8738 315.657 60.4394C307.989 57.8892 301.181 54.0754 294.583 50.3507C293.864 49.9702 293.17 49.5525 292.45 49.172C287.998 46.6884 284.102 44.7459 280.513 43.2299C267.885 37.9047 256.405 36.5662 246.446 39.305C240.298 40.9941 234.121 44.4031 227.632 48.0336C223.009 50.5966 218.273 53.2459 212.891 55.7272C201.088 61.017 187.983 60.1498 172.828 53.1064C165.443 49.6612 158.884 45.7998 152.184 41.0272C148.432 38.3131 144.646 35.2497 140.996 32.225C137.817 29.6283 134.55 26.9187 131.232 24.4454C121.613 17.253 112.283 12.4315 102.71 9.72672C97.6871 8.32235 92.41 7.45157 87.0527 7.17844C83.0035 6.97954 78.926 7.14191 74.8709 7.59113C68.8938 8.30953 63.4162 10.2914 57.6012 12.3699L56.6885 12.6732C50.2105 15.0075 44.4552 20.1155 39.8057 24.2364C28.6845 34.1194 14.868 40.2135 3.00598 42.4739L2.65223 42.9942C14.7135 40.7606 28.8169 34.6441 40.1269 24.5634C44.751 20.4797 50.5064 15.3717 56.8595 13.0612L57.7722 12.7579C63.55 10.6541 69.0023 8.70935 74.9171 8.00285C84.2507 6.90366 93.8296 7.60163 102.557 10.1117C112.056 12.7659 121.348 17.5621 130.931 24.7293C134.249 27.2026 137.515 29.9122 140.657 32.4836C144.307 35.5084 148.13 38.597 151.883 41.3111C158.594 46.1462 165.215 49.9957 172.601 53.4409C187.905 60.5853 201.134 61.4288 213.087 56.078C218.507 53.622 223.242 50.9727 227.865 48.4096C234.618 44.632 240.469 41.382 246.554 39.7048C256.426 37.0151 267.769 38.3149 280.335 43.652C283.886 45.1427 287.783 47.0853 292.235 49.569C292.954 49.9494 293.648 50.3671 294.368 50.7476C300.965 54.4722 307.774 58.2861 315.478 60.8616C322.798 63.2841 329.871 64.0714 336.719 64.8692C339.795 65.2213 342.671 65.5466 345.571 65.9968C349.778 66.6833 353.946 67.5064 358.051 68.5036L358.328 68.0948Z" fill="url(#paint21_linear_342_4616)"/>
</g>
<g opacity="0.33">
<path d="M358.379 68.0203C354.511 67.0752 350.555 66.1792 346.61 65.5075C343.661 64.9697 340.648 64.6056 337.498 64.203C330.737 63.3562 323.703 62.4322 316.545 60.0112C309.077 57.4876 302.367 53.8491 295.868 50.2999C294.962 49.793 294.057 49.2862 293.164 48.8418C288.686 46.3954 284.739 44.5271 281.063 43.0602C268.246 37.9327 256.652 36.8425 246.64 39.8177C240.703 41.596 234.876 44.9707 228.699 48.5417C223.862 51.3396 218.85 54.2357 213.13 56.8137C201.215 62.1897 187.974 61.1219 172.636 53.6281C165.389 50.0595 158.596 45.984 151.897 41.0494C148.219 38.3858 144.558 35.2986 140.958 32.3616C137.654 29.6267 134.24 26.816 130.798 24.2044C121.067 16.9362 111.663 12.0641 102.028 9.37127C97.1042 7.98027 91.9386 7.1854 86.6809 6.92563C82.4697 6.72526 78.1678 6.89802 73.9372 7.44535C67.9348 8.20092 62.4691 10.2453 56.666 12.3862L55.6403 12.7757C49.6871 14.9776 44.5873 19.2814 38.9702 24.266C28.1002 33.9394 14.5572 40.1108 2.90476 42.6223L2.55102 43.1426C14.4026 40.6579 28.2206 34.4017 39.2912 24.593C44.8831 19.6456 49.9577 15.379 55.8113 13.1637L56.837 12.7741C62.6401 10.6331 68.0805 8.62605 74.0205 7.88238C83.467 6.69697 93.1338 7.34588 101.949 9.80689C111.547 12.4744 120.877 17.2959 130.571 24.5389C134.038 27.1133 137.427 29.9612 140.73 32.6961C144.305 35.6703 147.992 38.7203 151.67 41.3838C158.394 46.2813 165.199 50.4192 172.483 54.0131C187.933 61.5827 201.335 62.652 213.375 57.2522C219.12 54.637 224.133 51.741 228.969 48.9431C235.122 45.4092 240.949 42.0344 246.786 40.2428C256.698 37.2542 268.193 38.3311 280.91 43.4452C284.549 44.8869 288.508 46.8175 292.973 49.2016C293.879 49.7084 294.772 50.1528 295.677 50.6596C302.177 54.2089 308.862 57.8845 316.392 60.3961C323.65 62.8305 330.647 63.7293 337.444 64.6014C340.594 65.004 343.582 65.4052 346.557 65.9059C350.439 66.5894 354.321 67.4349 358.126 68.3919L358.379 68.0203Z" fill="url(#paint22_linear_342_4616)"/>
</g>
<g opacity="0.33">
<path d="M358.48 67.873C354.874 66.9427 351.254 66.1121 347.559 65.3929C344.535 64.8044 341.473 64.3527 338.186 63.9115C331.464 62.9279 324.518 61.9547 317.36 59.5337C310.066 57.0741 303.516 53.5992 297.14 50.1881C296.024 49.5921 294.908 48.9961 293.828 48.4254C289.337 46.0785 285.328 44.2221 281.564 42.8043C268.559 37.8745 256.85 37.0326 246.798 40.3065C241.135 42.1621 235.558 45.4893 229.667 49.0379C224.641 52.0336 219.415 55.1645 213.407 57.9268C201.367 63.3266 187.966 62.0953 172.507 54.1392C165.262 50.4086 158.47 46.1711 151.648 41.0982C148.07 38.4481 144.52 35.4367 141.031 32.5754C137.604 29.7023 134.029 26.7281 130.439 24.0155C120.659 16.6595 111.155 11.7741 101.395 9.10505C96.5827 7.78985 91.4795 6.98312 86.3214 6.73672C81.9109 6.50961 77.4218 6.71799 73.0039 7.30101C66.9763 8.09374 61.46 10.2124 55.6688 12.4158L54.5808 12.8172C48.7018 15.0697 43.4266 19.4716 38.1231 24.2347C27.2025 33.9824 14.0832 40.1701 2.71619 42.8213L2.33715 43.3788C13.8409 40.7662 27.2977 34.4818 38.4443 24.5617C43.9231 19.7005 48.9352 15.4458 54.7636 13.2676L55.8517 12.8662C61.6429 10.6628 67.1339 8.58133 73.1244 7.76333C82.6468 6.46643 92.3758 7.10341 101.316 9.54062C110.977 12.1963 120.443 17.0565 130.186 24.3871C133.776 27.0997 137.314 30.0487 140.778 32.9471C144.242 35.8455 147.854 38.845 151.395 41.4699C158.217 46.5428 165.083 50.8308 172.329 54.5614C187.75 62.4922 201.637 63.728 213.652 58.3653C219.697 55.6283 224.924 52.4974 229.975 49.4646C235.84 45.9531 241.355 42.6377 247.018 40.7822C257.007 37.5201 268.554 38.3607 281.46 43.2771C285.187 44.6696 289.196 46.526 293.687 48.8728C294.766 49.4436 295.883 50.0396 296.999 50.6356C303.375 54.0466 309.962 57.5468 317.256 60.0064C324.451 62.4527 331.397 63.4259 338.157 64.4347C341.418 64.9131 344.48 65.3648 347.504 65.9533C351.1 66.6591 354.682 67.4645 358.251 68.3695L358.555 67.9235L358.48 67.873Z" fill="url(#paint23_linear_342_4616)"/>
</g>
<g opacity="0.33">
<path d="M358.555 67.7608C355.248 66.8706 351.89 66.0548 348.518 65.3385C345.383 64.6743 342.247 64.1721 338.849 63.655C332.177 62.5971 325.306 61.5125 318.211 59.0796C311.153 56.672 304.727 53.3352 298.486 50.1248C297.159 49.4397 295.831 48.7545 294.541 48.0946C290.025 45.7849 285.965 44.0029 282.114 42.6342C268.919 37.9021 257.121 37.2712 247.004 40.8811C241.515 42.8006 236.199 46.1426 230.583 49.6065C225.381 52.8623 219.991 56.1538 213.683 59.038C201.705 64.4259 187.77 62.9404 172.352 54.6856C165.145 50.8182 158.317 46.3934 151.397 41.1451C147.956 38.5336 144.455 35.6099 141.103 32.7873C137.516 29.7507 133.817 26.6382 130.078 23.8246C120.187 16.3928 110.646 11.4821 100.786 8.7997C96.0483 7.53504 91.0447 6.74158 86.0114 6.4714C81.439 6.2428 76.7625 6.48693 72.1321 7.1428C66.0539 8.00986 60.5124 10.1657 54.6707 12.4434L53.5573 12.882C47.7155 15.1597 42.528 19.5126 37.3375 24.1895C26.6934 33.6904 13.8224 39.9926 2.70212 42.9203L2.32312 43.4777C13.6426 40.5767 26.8257 34.2151 37.6586 24.5165C42.8238 19.8768 47.9489 15.5358 53.7654 13.2952L54.8788 12.8567C60.7206 10.5789 66.1996 8.43503 72.2154 7.57987C81.8507 6.19674 91.6676 6.78466 100.67 9.20997C110.43 11.879 119.959 16.7273 129.788 24.1709C133.527 26.9846 137.226 30.097 140.813 33.1337C144.165 35.9563 147.666 38.88 151.145 41.5168C158.065 46.7651 164.93 51.2151 172.174 55.1077C187.741 63.4637 201.8 64.9254 213.928 59.4765C220.274 56.6175 225.677 53.2264 230.891 50.0331C236.507 46.5692 241.797 43.2643 247.224 41.3567C257.228 37.833 268.952 38.4134 282.01 43.1069C285.799 44.4875 289.858 46.2695 294.4 48.542C295.69 49.202 297.018 49.8872 298.345 50.5724C304.586 53.7827 311.049 57.1447 318.144 59.5776C325.24 62.0105 332.147 63.1204 338.881 64.1664C342.217 64.6954 345.391 65.2228 348.489 65.8618C351.823 66.5528 355.081 67.3553 358.352 68.2202L358.63 67.8114L358.555 67.7608Z" fill="url(#paint24_linear_342_4616)"/>
</g>
<g opacity="0.33">
<path d="M358.655 67.6114C355.647 66.7613 352.588 65.9856 349.478 65.2842C346.268 64.5695 343.02 63.9914 339.573 63.3867C332.977 62.2173 326.157 61.0583 319.162 58.6388C312.34 56.2832 306.012 53.1219 299.957 50.0378C298.419 49.2635 296.88 48.4892 295.341 47.7148C290.775 45.4795 286.69 43.7345 282.75 42.4148C269.566 37.9072 257.304 37.5588 247.323 41.3694C242.044 43.378 236.916 46.6844 231.525 50.1379C226.196 53.5795 220.629 57.1311 214.083 60.1254C201.98 65.5371 187.948 63.8762 172.347 55.1709C165.178 51.1668 158.29 46.5919 151.272 41.1682C147.93 38.57 144.577 35.7474 141.3 32.9754C137.589 29.8005 133.705 26.5616 129.805 23.5845C119.865 16.065 110.187 11.1157 100.265 8.44522C95.6267 7.19392 90.7227 6.41387 85.7637 6.19423C80.9668 5.97606 76.1283 6.21866 71.3478 6.93549C65.2191 7.87688 59.6523 10.0699 53.76 12.4219L52.6214 12.8977C46.7916 15.2378 41.717 19.5045 36.6142 24.1323C26.2585 33.4489 13.6609 39.8283 2.7131 42.9819L2.30881 43.5765C13.4186 40.4244 26.3536 33.9483 36.91 24.4964C41.9875 19.9058 47.0621 15.6391 52.8043 13.3481L53.9429 12.8723C59.8352 10.5203 65.3648 8.30205 71.4311 7.37256C81.117 5.91511 91.0468 6.4168 100.149 8.85548C110.034 11.5007 119.612 16.4367 129.515 23.9309C133.44 26.8709 137.262 30.1215 140.973 33.2964C144.25 36.0685 147.577 38.9283 150.945 41.4893C157.963 46.913 164.889 51.5132 172.057 55.5173C187.77 64.2984 201.964 65.9608 214.217 60.4881C220.826 57.4819 226.392 53.9303 231.746 50.4515C237.138 46.998 242.203 43.7036 247.457 41.7321C257.35 37.9706 269.513 38.3057 282.56 42.7746C286.437 44.1063 290.547 45.8139 295.114 48.0493C296.653 48.8236 298.191 49.598 299.73 50.3724C305.847 53.4445 312.15 56.6429 319.034 58.9867C326.067 61.4314 332.924 62.6157 339.545 63.7479C342.992 64.3527 346.24 64.9307 349.449 65.6454C352.46 66.3335 355.482 67.0839 358.453 67.9087L358.655 67.6114Z" fill="url(#paint25_linear_342_4616)"/>
</g>
<g opacity="0.33">
<path d="M358.784 67.4267C356.049 66.6539 353.251 65.893 350.44 65.2317C347.119 64.4411 343.76 63.7873 340.201 63.1068C333.656 61.863 326.912 60.5926 319.979 58.1612C313.393 55.8576 307.226 52.8598 301.269 49.9511C299.482 49.0623 297.695 48.1736 295.92 47.3472C291.403 45.1995 287.093 43.4651 283.166 42.2078C269.83 37.9232 257.417 37.7977 247.395 41.9071C242.265 44.0168 237.35 47.2503 232.158 50.7305C226.677 54.3951 221.021 58.1579 214.2 61.2369C201.947 66.7095 187.779 64.848 172.032 55.7176C164.903 51.5767 158.015 46.8397 150.862 41.2154C147.632 38.693 144.416 35.9091 141.25 33.2128C137.379 29.8744 133.371 26.4974 129.286 23.3939C119.259 15.7614 109.519 10.8241 99.4969 8.14017C94.9333 6.93941 90.1289 6.17269 85.2695 5.96641C80.3106 5.74677 75.2848 6.02513 70.317 6.77766C64.1005 7.7681 58.5204 10.0607 52.5776 12.4871L51.4642 12.9256C45.6715 15.2911 40.4959 19.7063 35.6695 24.0874C25.6155 33.12 13.2663 39.6139 2.56524 43.044L2.16095 43.6386C13.0983 40.2605 25.7479 33.6447 35.9907 24.4144C40.7665 20.1076 45.9421 15.6924 51.6471 13.3761L52.7604 12.9374C58.7033 10.5111 64.2834 8.21853 70.4374 7.23998C80.1991 5.67102 90.2538 6.14894 99.4182 8.57572C109.366 11.2091 119.081 16.1836 129.033 23.7655C133.081 26.8438 137.101 30.2832 140.997 33.5844C144.164 36.2807 147.379 39.0647 150.609 41.587C157.763 47.2114 164.687 51.9736 171.817 56.1145C187.712 65.346 202.042 67.209 214.408 61.6501C221.255 58.5339 226.936 54.734 232.453 51.0947C237.62 47.6516 242.499 44.3929 247.603 42.3203C257.537 38.26 269.826 38.4093 283.087 42.6433C287.015 43.9006 291.287 45.6098 295.804 47.7575C297.579 48.5838 299.366 49.4726 301.153 50.3614C307.11 53.27 313.252 56.305 319.9 58.5967C326.833 61.0281 333.64 62.2867 340.185 63.5304C343.744 64.211 347.066 64.8395 350.387 65.6301C353.135 66.3033 355.859 67.0136 358.557 67.7611L358.784 67.4267Z" fill="url(#paint26_linear_342_4616)"/>
</g>
<g opacity="0.33">
<path d="M358.935 67.2034C356.462 66.4455 353.975 65.7872 351.426 65.1408C347.993 64.2744 344.522 63.5448 340.852 62.7884C334.394 61.4956 327.726 60.1136 320.867 57.7328C314.493 55.5183 308.548 52.6722 302.777 49.8899C300.78 48.9119 298.682 47.9206 296.696 47.005C292.153 44.8945 287.793 43.2344 283.778 42.0262C270.254 37.9393 257.763 38.0874 247.627 42.445C242.634 44.5933 237.917 47.8535 232.887 51.3352C227.318 55.2109 221.51 59.1967 214.476 62.3485C202.136 67.8702 187.77 65.8199 171.877 56.2643C164.824 52.012 157.838 47.0997 150.587 41.2999C147.493 38.8162 144.364 36.1452 141.371 33.5128C137.34 30.0109 133.197 26.4333 128.926 23.2034C118.825 15.5205 108.998 10.47 98.8887 7.83521C94.3622 6.65972 89.6945 5.93165 84.8976 5.71348C79.7766 5.49236 74.5888 5.76923 69.4203 6.65704C63.1534 7.72181 57.4856 10.0634 51.4669 12.6013L50.3907 13.0652C44.6352 15.4559 39.5473 19.8221 34.8339 24.1169C24.3518 33.6193 12.4915 39.7935 2.43863 43.2295L2.00909 43.8613C12.224 40.4268 24.4217 34.1559 35.155 24.4439C39.8431 20.1862 44.9058 15.8572 50.5989 13.4784L51.675 13.0145C57.6684 10.5138 63.2991 8.14698 69.5036 7.0941C79.3783 5.43893 89.4835 5.84252 98.7475 8.28267C108.795 10.9294 118.572 15.8921 128.636 23.5498C132.87 26.7543 137.05 30.3573 141.044 33.8339C144.062 36.4291 147.203 39.1626 150.297 41.6463C157.548 47.4461 164.534 52.3584 171.625 56.636C187.666 66.2926 202.131 68.3563 214.659 62.7989C221.718 59.6099 227.551 55.587 233.121 51.7113C238.125 48.2668 242.805 44.9813 247.772 42.8701C257.784 38.5363 270.15 38.412 283.574 42.4855C287.59 43.6937 291.887 45.3657 296.43 47.4762C298.453 48.417 300.513 49.3831 302.511 50.3611C308.282 53.1434 314.252 55.9524 320.638 58.2293C327.497 60.6101 334.203 62.0174 340.66 63.3101C344.33 64.0665 347.827 64.759 351.197 65.6372C353.684 66.2956 356.133 66.9287 358.57 67.6613L358.898 67.1782L358.935 67.2034Z" fill="url(#paint27_linear_342_4616)"/>
</g>
<g opacity="0.33">
<path d="M359.06 67.016C356.86 66.3354 354.635 65.6919 352.384 65.0855C348.841 64.1434 345.258 63.338 341.476 62.5058C335.095 61.1015 328.514 59.6705 321.755 57.303C315.654 55.1659 309.895 52.446 304.322 49.8525C302.051 48.7972 299.705 47.6914 297.408 46.6733C292.815 44.6372 288.429 43.0142 284.327 41.855C270.614 37.9659 258.008 38.3622 247.857 42.9815C242.976 45.2056 238.421 48.4673 233.59 51.9758C227.895 56.0373 222.035 60.2594 214.801 63.5465C202.31 69.1292 187.871 66.8663 171.796 56.8604C164.781 52.4713 157.809 47.4593 150.41 41.3964C147.428 38.9885 144.473 36.3815 141.566 33.8621C137.374 30.1967 133.033 26.4302 128.614 23.0993C118.463 15.3286 108.538 10.2648 98.3284 7.61662C93.9015 6.4545 89.3082 5.77706 84.5737 5.54699C79.2535 5.29913 73.9156 5.63686 68.597 6.58562C62.2423 7.69946 56.4987 10.1526 50.4295 12.7648L49.441 13.1796C43.7598 15.6208 38.5336 20.1104 34.0967 24.1585C23.9417 33.3398 12.3415 39.6909 2.46109 43.3529L2.00629 44.0218C12.0488 40.3613 23.9863 33.9136 34.3926 24.5226C38.8042 20.5118 43.9679 16.0341 49.6238 13.63L50.6124 13.2152C56.6563 10.6402 62.3627 8.16178 68.655 7.05983C78.6054 5.29317 88.8355 5.67298 98.1619 8.10123C108.334 10.7242 118.16 15.7746 128.299 23.4828C132.693 26.8509 137.034 30.6173 141.251 34.2455C144.158 36.7649 147.15 39.3974 150.095 41.78C157.519 47.8057 164.503 52.8801 171.518 57.2692C187.705 67.3509 202.343 69.6405 214.983 63.9969C222.255 60.735 228.14 56.4758 233.836 52.4143C238.641 48.943 243.196 45.6813 248.015 43.4691C258.041 38.8736 270.547 38.4639 284.16 42.3397C288.226 43.4736 292.611 45.0965 297.179 47.1699C299.476 48.1879 301.71 49.218 304.093 50.349C309.666 52.9425 315.45 55.6252 321.563 57.8248C328.322 60.1923 334.94 61.6485 341.322 63.0528C345.104 63.885 348.711 64.6533 352.23 65.6326C354.443 66.2137 356.606 66.869 358.769 67.5244L359.098 67.0413L359.06 67.016Z" fill="url(#paint28_linear_342_4616)"/>
</g>
<g opacity="0.33">
<path d="M359.215 66.796C357.288 66.1927 355.299 65.6012 353.31 65.0097C349.655 63.9917 345.961 63.1105 342.03 62.1773C335.736 60.7239 329.231 59.1814 322.572 56.8273C316.707 54.7422 311.146 52.2111 305.796 49.7691C303.14 48.5608 300.62 47.3911 298.05 46.2958C293.431 44.2968 288.958 42.7229 284.805 41.6381C270.903 37.9466 258.146 38.5659 247.992 43.5092C243.259 45.8344 238.83 49.0723 234.161 52.5822C228.413 56.8801 222.427 61.288 215.042 64.6361C202.427 70.2426 187.828 67.8162 171.607 57.3852C164.705 52.9098 157.634 47.7225 150.138 41.4842C147.329 39.1402 144.46 36.6461 141.703 34.2277C137.35 30.3988 132.849 26.4689 128.231 22.9492C117.969 15.1027 108.007 10.0137 97.6977 7.35214C93.3451 6.24055 88.8142 5.55116 84.1793 5.33446C78.7224 5.04796 73.1719 5.45866 67.666 6.44311C61.2236 7.60601 55.4042 10.1706 49.2592 12.8943L48.3956 13.2853C42.7263 15.789 37.6131 20.1923 33.2639 24.1913C23.1207 33.435 11.8327 39.7266 2.3997 43.5298L1.94486 44.1988C11.6023 40.3852 23.1653 34.0088 33.5849 24.5183C37.8836 20.5936 42.9968 16.1903 48.5784 13.7357L49.442 13.3447C55.5617 10.6582 61.3559 8.13071 67.7611 6.94254C77.7992 5.12682 88.1052 5.39511 97.5312 7.83675C107.766 10.4478 117.692 15.5116 127.916 23.3328C132.534 26.8524 137.035 30.7824 141.388 34.6113C144.145 37.0296 147.014 39.5237 149.86 41.893C157.394 48.1565 164.464 53.3439 171.403 57.8445C187.773 68.3766 202.509 70.8417 215.3 65.1371C222.747 61.7771 228.758 57.332 234.506 53.0342C239.187 49.5867 243.604 46.2863 248.286 44.0354C258.353 39.1411 270.948 38.5204 284.75 42.1985C288.878 43.3205 293.314 44.8691 297.932 46.8681C300.503 47.9634 303.022 49.1332 305.679 50.3415C311.066 52.8087 316.627 55.3398 322.492 57.4249C329.151 59.779 335.656 61.3216 341.987 62.8002C345.918 63.7334 349.637 64.5774 353.267 65.6325C355.219 66.1988 357.108 66.7769 358.998 67.355L359.326 66.8718L359.215 66.796Z" fill="url(#paint29_linear_342_4616)"/>
</g>
<g opacity="0.33">
<path d="M359.391 66.5353C357.701 65.984 356.011 65.4326 354.295 64.9184C350.516 63.7622 346.648 62.8171 342.581 61.8452C336.4 60.3056 329.983 58.7141 323.46 56.3986C317.906 54.416 312.568 52.0365 307.441 49.7462C304.437 48.41 301.644 47.1631 298.763 45.9652C294.094 44.0405 289.595 42.5037 285.354 41.4679C271.226 37.9489 258.392 38.8418 248.198 44.0839C243.565 46.4225 239.284 49.7614 234.74 53.2476C228.928 57.7194 222.89 62.3636 215.293 65.7846C202.565 71.4773 187.793 68.8249 171.452 57.9316C164.6 53.3819 157.531 48.0325 149.862 41.5683C147.203 39.3254 144.445 36.9071 141.836 34.5899C137.323 30.5975 132.649 26.4416 127.809 22.7703C117.498 14.8361 107.398 9.70844 97.0014 7.09593C92.7232 6.03488 88.2548 5.33358 83.7195 5.13026C78.1005 4.84228 72.3879 5.25144 66.7438 6.35928C60.1885 7.6084 54.2933 10.2846 48.0606 13.0573L47.3471 13.3873C41.7149 15.9162 36.6894 20.2706 32.4532 24.1833C22.6995 33.094 11.6969 39.5254 2.3739 43.5664L1.89381 44.2725C11.4041 40.1958 22.7441 33.6679 32.7743 24.5104C37.0224 20.66 41.9855 16.3176 47.5552 13.8006L48.2687 13.4706C54.5014 10.6978 60.3713 8.05883 66.8642 6.82161C76.9782 4.89438 87.4089 5.13892 96.8974 7.56865C107.232 10.1931 117.257 15.2702 127.531 23.1791C132.309 26.8623 137.008 30.981 141.521 34.9734C144.167 37.3159 146.887 39.709 149.547 41.9519C157.253 48.4414 164.322 53.7907 171.185 58.4028C187.676 69.3972 202.609 72.051 215.488 66.2974C223.148 62.8645 229.185 58.2203 235.023 53.7113C239.567 50.2252 243.822 46.9234 248.455 44.5848C258.536 39.4289 271.308 38.548 285.299 42.0284C289.515 43.1013 294.001 44.5756 298.645 46.5374C301.526 47.7353 304.32 48.9823 307.324 50.3185C312.488 52.6341 317.789 54.9883 323.38 56.9961C329.94 59.3369 336.357 60.9285 342.538 62.468C346.58 63.4771 350.448 64.4222 354.227 65.5784C355.905 66.0674 357.558 66.5934 359.186 67.1567L359.54 66.6364L359.391 66.5353Z" fill="url(#paint30_linear_342_4616)"/>
</g>
<g opacity="0.33">
<path d="M359.565 66.273C358.149 65.7989 356.732 65.3248 355.253 64.8626C351.326 63.6053 347.309 62.5592 343.093 61.4862C337 59.8976 330.733 58.2451 324.347 55.9682C319.104 54.0882 314.051 51.8484 309.147 49.7097C305.832 48.271 302.691 46.8962 299.499 45.5958C294.805 43.7082 290.219 42.2206 285.927 41.2591C271.611 37.9378 258.662 39.0789 248.453 44.5826C243.906 47.0342 239.75 50.3494 235.306 53.8489C229.405 58.5318 223.34 63.3752 215.593 66.8571C202.714 72.6108 187.807 69.7577 171.32 58.4392C164.581 53.8034 157.477 48.2667 149.635 41.5766C147.087 39.4094 144.515 37.1175 142.055 34.9013C137.344 30.7201 132.498 26.3383 127.497 22.5035C117.075 14.4935 106.938 9.34058 96.4415 6.7147C92.2257 5.64175 87.8316 4.99098 83.3959 4.80103C77.6149 4.51158 71.7151 4.95646 65.9208 6.12526C59.2525 7.46061 53.2443 10.223 46.8734 13.1191L46.3353 13.351C41.0153 15.8205 36.1414 19.9518 31.6168 24.0489C22.1395 32.7128 11.4477 39.2467 2.30905 43.5761L1.80371 44.3193C11.1668 39.9796 22.1961 33.349 31.938 24.3759C36.4001 20.2907 41.2487 16.1965 46.5063 13.739L47.0444 13.507C53.3781 10.5856 59.3611 7.86049 65.9669 6.53704C76.1567 4.49833 86.6498 4.73097 96.2631 7.13691C106.66 9.74942 116.797 14.9024 127.145 22.8618C132.146 26.6966 137.017 31.0412 141.703 35.2596C144.2 37.501 146.772 39.793 149.283 41.9348C157.162 48.6502 164.266 54.1869 171.005 58.8228C187.641 70.2423 202.71 73.0969 215.738 67.2823C223.548 63.7884 229.638 58.9078 235.539 54.2249C239.946 50.7002 244.102 47.385 248.624 44.9706C258.745 39.5159 271.631 38.3867 285.786 41.7066C290.052 42.7052 294.601 44.1676 299.296 46.0551C302.487 47.3555 305.591 48.7051 308.906 50.1438C313.81 52.2825 318.888 54.4851 324.168 56.3904C330.566 58.7296 336.859 60.345 342.952 61.9336C347.205 63.0318 351.159 64.0899 355.112 65.31C356.491 65.7589 357.933 66.1958 359.287 66.6818L359.565 66.273Z" fill="url(#paint31_linear_342_4616)"/>
</g>
</g>
<defs>
<linearGradient id="paint0_linear_342_4616" x1="-4.43709" y1="42.6138" x2="330.832" y2="65.6054" gradientUnits="userSpaceOnUse">
<stop stop-color="#FC81FF"/>
<stop offset="0.492708" stop-color="#FF4910"/>
<stop offset="1" stop-color="#FF1074"/>
</linearGradient>
<linearGradient id="paint1_linear_342_4616" x1="-4.14483" y1="42.4302" x2="330.954" y2="65.3651" gradientUnits="userSpaceOnUse">
<stop stop-color="#FC81FF"/>
<stop offset="0.492708" stop-color="#FF4910"/>
<stop offset="1" stop-color="#FF1074"/>
</linearGradient>
<linearGradient id="paint2_linear_342_4616" x1="-3.97645" y1="42.1023" x2="330.935" y2="64.5654" gradientUnits="userSpaceOnUse">
<stop stop-color="#FC81FF"/>
<stop offset="0.492708" stop-color="#FF4910"/>
<stop offset="1" stop-color="#FF1074"/>
</linearGradient>
<linearGradient id="paint3_linear_342_4616" x1="-3.73355" y1="41.8251" x2="330.951" y2="63.9286" gradientUnits="userSpaceOnUse">
<stop stop-color="#FC81FF"/>
<stop offset="0.492708" stop-color="#FF4910"/>
<stop offset="1" stop-color="#FF1074"/>
</linearGradient>
<linearGradient id="paint4_linear_342_4616" x1="-3.51642" y1="41.5815" x2="330.86" y2="62.982" gradientUnits="userSpaceOnUse">
<stop stop-color="#FC81FF"/>
<stop offset="0.492708" stop-color="#FF4910"/>
<stop offset="1" stop-color="#FF1074"/>
</linearGradient>
<linearGradient id="paint5_linear_342_4616" x1="-3.30771" y1="41.1189" x2="330.875" y2="62.138" gradientUnits="userSpaceOnUse">
<stop stop-color="#FC81FF"/>
<stop offset="0.492708" stop-color="#FF4910"/>
<stop offset="1" stop-color="#FF1074"/>
</linearGradient>
<linearGradient id="paint6_linear_342_4616" x1="-3.0407" y1="40.8066" x2="330.968" y2="61.5774" gradientUnits="userSpaceOnUse">
<stop stop-color="#FC81FF"/>
<stop offset="0.492708" stop-color="#FF4910"/>
<stop offset="1" stop-color="#FF1074"/>
</linearGradient>
<linearGradient id="paint7_linear_342_4616" x1="-2.85278" y1="40.6069" x2="331.117" y2="61.3011" gradientUnits="userSpaceOnUse">
<stop stop-color="#FC81FF"/>
<stop offset="0.492708" stop-color="#FF4910"/>
<stop offset="1" stop-color="#FF1074"/>
</linearGradient>
<linearGradient id="paint8_linear_342_4616" x1="-2.82571" y1="40.2429" x2="331.197" y2="60.7648" gradientUnits="userSpaceOnUse">
<stop stop-color="#FC81FF"/>
<stop offset="0.492708" stop-color="#FF4910"/>
<stop offset="1" stop-color="#FF1074"/>
</linearGradient>
<linearGradient id="paint9_linear_342_4616" x1="-2.37123" y1="39.8971" x2="331.459" y2="60.2272" gradientUnits="userSpaceOnUse">
<stop stop-color="#FC81FF"/>
<stop offset="0.492708" stop-color="#FF4910"/>
<stop offset="1" stop-color="#FF1074"/>
</linearGradient>
<linearGradient id="paint10_linear_342_4616" x1="-2.26936" y1="39.7474" x2="331.521" y2="60.0007" gradientUnits="userSpaceOnUse">
<stop stop-color="#FC81FF"/>
<stop offset="0.492708" stop-color="#FF4910"/>
<stop offset="1" stop-color="#FF1074"/>
</linearGradient>
<linearGradient id="paint11_linear_342_4616" x1="-2.33803" y1="39.8469" x2="330.949" y2="59.0409" gradientUnits="userSpaceOnUse">
<stop stop-color="#FC81FF"/>
<stop offset="0.492708" stop-color="#FF4910"/>
<stop offset="1" stop-color="#FF1074"/>
</linearGradient>
<linearGradient id="paint12_linear_342_4616" x1="-2.44788" y1="40.0977" x2="330.786" y2="59.3691" gradientUnits="userSpaceOnUse">
<stop stop-color="#FC81FF"/>
<stop offset="0.492708" stop-color="#FF4910"/>
<stop offset="1" stop-color="#FF1074"/>
</linearGradient>
<linearGradient id="paint13_linear_342_4616" x1="-2.5626" y1="40.1815" x2="330.593" y2="59.3949" gradientUnits="userSpaceOnUse">
<stop stop-color="#FC81FF"/>
<stop offset="0.492708" stop-color="#FF4910"/>
<stop offset="1" stop-color="#FF1074"/>
</linearGradient>
<linearGradient id="paint14_linear_342_4616" x1="-2.78854" y1="40.3558" x2="330.502" y2="59.6465" gradientUnits="userSpaceOnUse">
<stop stop-color="#FC81FF"/>
<stop offset="0.492708" stop-color="#FF4910"/>
<stop offset="1" stop-color="#FF1074"/>
</linearGradient>
<linearGradient id="paint15_linear_342_4616" x1="-2.77716" y1="40.4177" x2="330.456" y2="59.6891" gradientUnits="userSpaceOnUse">
<stop stop-color="#FC81FF"/>
<stop offset="0.492708" stop-color="#FF4910"/>
<stop offset="1" stop-color="#FF1074"/>
</linearGradient>
<linearGradient id="paint16_linear_342_4616" x1="-3.08064" y1="40.7058" x2="330.388" y2="60.2474" gradientUnits="userSpaceOnUse">
<stop stop-color="#FC81FF"/>
<stop offset="0.492708" stop-color="#FF4910"/>
<stop offset="1" stop-color="#FF1074"/>
</linearGradient>
<linearGradient id="paint17_linear_342_4616" x1="-2.84419" y1="40.7563" x2="330.584" y2="60.2207" gradientUnits="userSpaceOnUse">
<stop stop-color="#FC81FF"/>
<stop offset="0.492708" stop-color="#FF4910"/>
<stop offset="1" stop-color="#FF1074"/>
</linearGradient>
<linearGradient id="paint18_linear_342_4616" x1="-3.1972" y1="40.9569" x2="330.375" y2="60.7875" gradientUnits="userSpaceOnUse">
<stop stop-color="#FC81FF"/>
<stop offset="0.492708" stop-color="#FF4910"/>
<stop offset="1" stop-color="#FF1074"/>
</linearGradient>
<linearGradient id="paint19_linear_342_4616" x1="-3.34694" y1="41.2565" x2="330.837" y2="62.3711" gradientUnits="userSpaceOnUse">
<stop stop-color="#FC81FF"/>
<stop offset="0.492708" stop-color="#FF4910"/>
<stop offset="1" stop-color="#FF1074"/>
</linearGradient>
<linearGradient id="paint20_linear_342_4616" x1="-3.34768" y1="41.2573" x2="330.875" y2="62.4481" gradientUnits="userSpaceOnUse">
<stop stop-color="#FC81FF"/>
<stop offset="0.492708" stop-color="#FF4910"/>
<stop offset="1" stop-color="#FF1074"/>
</linearGradient>
<linearGradient id="paint21_linear_342_4616" x1="-3.45046" y1="41.4087" x2="330.889" y2="62.8283" gradientUnits="userSpaceOnUse">
<stop stop-color="#FC81FF"/>
<stop offset="0.492708" stop-color="#FF4910"/>
<stop offset="1" stop-color="#FF1074"/>
</linearGradient>
<linearGradient id="paint22_linear_342_4616" x1="-3.55347" y1="41.5598" x2="330.901" y2="63.2077" gradientUnits="userSpaceOnUse">
<stop stop-color="#FC81FF"/>
<stop offset="0.492708" stop-color="#FF4910"/>
<stop offset="1" stop-color="#FF1074"/>
</linearGradient>
<linearGradient id="paint23_linear_342_4616" x1="-3.77277" y1="41.7993" x2="331.005" y2="63.808" gradientUnits="userSpaceOnUse">
<stop stop-color="#FC81FF"/>
<stop offset="0.492708" stop-color="#FF4910"/>
<stop offset="1" stop-color="#FF1074"/>
</linearGradient>
<linearGradient id="paint24_linear_342_4616" x1="-3.78757" y1="41.9009" x2="331.048" y2="64.118" gradientUnits="userSpaceOnUse">
<stop stop-color="#FC81FF"/>
<stop offset="0.492708" stop-color="#FF4910"/>
<stop offset="1" stop-color="#FF1074"/>
</linearGradient>
<linearGradient id="paint25_linear_342_4616" x1="-3.80153" y1="42.0039" x2="331.034" y2="64.5047" gradientUnits="userSpaceOnUse">
<stop stop-color="#FC81FF"/>
<stop offset="0.492708" stop-color="#FF4910"/>
<stop offset="1" stop-color="#FF1074"/>
</linearGradient>
<linearGradient id="paint26_linear_342_4616" x1="-3.95321" y1="42.0685" x2="331.109" y2="64.8337" gradientUnits="userSpaceOnUse">
<stop stop-color="#FC81FF"/>
<stop offset="0.492708" stop-color="#FF4910"/>
<stop offset="1" stop-color="#FF1074"/>
</linearGradient>
<linearGradient id="paint27_linear_342_4616" x1="-4.10865" y1="42.2965" x2="331.177" y2="65.5138" gradientUnits="userSpaceOnUse">
<stop stop-color="#FC81FF"/>
<stop offset="0.492708" stop-color="#FF4910"/>
<stop offset="1" stop-color="#FF1074"/>
</linearGradient>
<linearGradient id="paint28_linear_342_4616" x1="-4.11313" y1="42.4609" x2="331.283" y2="65.9974" gradientUnits="userSpaceOnUse">
<stop stop-color="#FC81FF"/>
<stop offset="0.492708" stop-color="#FF4910"/>
<stop offset="1" stop-color="#FF1074"/>
</linearGradient>
<linearGradient id="paint29_linear_342_4616" x1="-4.17827" y1="42.6418" x2="331.44" y2="66.5346" gradientUnits="userSpaceOnUse">
<stop stop-color="#FC81FF"/>
<stop offset="0.492708" stop-color="#FF4910"/>
<stop offset="1" stop-color="#FF1074"/>
</linearGradient>
<linearGradient id="paint30_linear_342_4616" x1="-4.23273" y1="42.719" x2="331.588" y2="66.9296" gradientUnits="userSpaceOnUse">
<stop stop-color="#FC81FF"/>
<stop offset="0.492708" stop-color="#FF4910"/>
<stop offset="1" stop-color="#FF1074"/>
</linearGradient>
<linearGradient id="paint31_linear_342_4616" x1="-4.32337" y1="42.7713" x2="331.545" y2="67.3733" gradientUnits="userSpaceOnUse">
<stop stop-color="#FC81FF"/>
<stop offset="0.492708" stop-color="#FF4910"/>
<stop offset="1" stop-color="#FF1074"/>
</linearGradient>
</defs>
</svg>
