<svg width="40" height="40" viewBox="0 0 40 40" fill="none" xmlns="http://www.w3.org/2000/svg">
<circle cx="20" cy="20" r="20" fill="url(#paint0_linear_342_2402)"/>
<path d="M13.8442 29V26.1193L20.575 19.8871C21.1475 19.3331 21.6276 18.8345 22.0154 18.3913C22.4093 17.9482 22.7078 17.5142 22.911 17.0895C23.1141 16.6586 23.2156 16.1939 23.2156 15.6953C23.2156 15.1413 23.0895 14.6643 22.8371 14.2642C22.5847 13.858 22.24 13.5471 21.803 13.3317C21.366 13.1101 20.8705 12.9993 20.3165 12.9993C19.7379 12.9993 19.2332 13.1162 18.8023 13.3501C18.3714 13.584 18.039 13.9195 17.8051 14.3565C17.5712 14.7936 17.4543 15.3137 17.4543 15.9169H13.6595C13.6595 14.6797 13.9396 13.6056 14.4997 12.6946C15.0599 11.7836 15.8447 11.0788 16.8541 10.5803C17.8636 10.0817 19.027 9.83239 20.3442 9.83239C21.6984 9.83239 22.8771 10.0724 23.8804 10.5526C24.8899 11.0265 25.6747 11.6851 26.2348 12.5284C26.795 13.3717 27.075 14.3381 27.075 15.4276C27.075 16.1416 26.9334 16.8464 26.6503 17.5419C26.3733 18.2375 25.8778 19.0099 25.1638 19.8594C24.4498 20.7027 23.4434 21.7152 22.1446 22.897L19.384 25.6023V25.7315H27.3243V29H13.8442Z" fill="white"/>
<defs>
<linearGradient id="paint0_linear_342_2402" x1="20" y1="0" x2="20" y2="40" gradientUnits="userSpaceOnUse">
<stop stop-color="#FF4910"/>
<stop offset="1" stop-color="#FF1074"/>
</linearGradient>
</defs>
</svg>
