<svg width="40" height="40" viewBox="0 0 40 40" fill="none" xmlns="http://www.w3.org/2000/svg">
<circle cx="20" cy="20" r="20" fill="url(#paint0_linear_342_2401)"/>
<path d="M20.56 29.2585C19.2551 29.2585 18.0917 29.0185 17.07 28.5384C16.0543 28.0582 15.248 27.3965 14.6509 26.5533C14.0539 25.71 13.743 24.7436 13.7184 23.6541H17.5962C17.6393 24.3866 17.9471 24.9806 18.5195 25.4361C19.092 25.8916 19.7721 26.1193 20.56 26.1193C21.1879 26.1193 21.7418 25.9808 22.2219 25.7038C22.7082 25.4207 23.0868 25.0298 23.3576 24.5312C23.6346 24.0265 23.7731 23.4479 23.7731 22.7955C23.7731 22.1307 23.6315 21.5459 23.3484 21.0412C23.0714 20.5365 22.6867 20.1425 22.1942 19.8594C21.7018 19.5762 21.1386 19.4316 20.5046 19.4254C19.9506 19.4254 19.4121 19.5393 18.8888 19.767C18.3718 19.9948 17.9686 20.3056 17.6793 20.6996L14.1246 20.0625L15.0202 10.0909H26.5799V13.3594H18.3164L17.8271 18.0959H17.9379C18.2702 17.6281 18.7719 17.2403 19.4428 16.9325C20.1138 16.6248 20.8647 16.4709 21.6957 16.4709C22.8344 16.4709 23.85 16.7386 24.7425 17.2741C25.6351 17.8097 26.3398 18.5452 26.8569 19.4808C27.3739 20.4103 27.6294 21.4813 27.6232 22.6939C27.6294 23.968 27.3339 25.1006 26.7369 26.0916C26.146 27.0765 25.3181 27.852 24.2532 28.4183C23.1945 28.9785 21.9634 29.2585 20.56 29.2585Z" fill="white"/>
<defs>
<linearGradient id="paint0_linear_342_2401" x1="20" y1="0" x2="20" y2="40" gradientUnits="userSpaceOnUse">
<stop stop-color="#FF4910"/>
<stop offset="1" stop-color="#FF1074"/>
</linearGradient>
</defs>
</svg>
