<svg width="300" height="85" viewBox="0 0 300 85" fill="none" xmlns="http://www.w3.org/2000/svg">
<mask id="mask0_423_3672" style="mask-type:alpha" maskUnits="userSpaceOnUse" x="0" y="0" width="300" height="85">
<rect width="300" height="85" fill="#D9D9D9"/>
</mask>
<g mask="url(#mask0_423_3672)">
<g opacity="0.33">
<path d="M589.445 52.1648C587.419 51.7704 585.359 51.4449 583.264 51.0169C571.793 48.8162 559.876 46.4821 547.175 48.8864C537.11 50.7884 530.153 55.2359 524.015 59.2308C522.378 60.3075 520.775 61.3153 519.206 62.2543C512.245 66.3589 502.781 70.3475 491.661 64.9894C485.154 61.8897 479.031 55.3923 472.944 45.1572C472.109 43.7241 471.205 42.2573 470.37 40.8242C459.762 22.9124 448.735 4.28398 432.646 -8.88424C432.163 -9.29163 431.679 -9.69899 431.127 -10.1401C411.694 -25.3717 387.453 -29.3849 369.424 -20.4553C368.298 -19.8972 367.103 -19.2013 366.012 -18.5407C357.109 -13.0824 349.979 -4.6219 343.088 3.52814C336.399 11.4364 330.085 18.9302 322.309 23.8303C314.396 28.8345 306.629 30.7515 297.843 29.8654C288.818 28.9471 279.935 24.5988 271.396 20.419C270.501 19.9808 269.537 19.5089 268.642 19.0707C259.484 14.5876 247.335 9.23804 234.696 6.80719C224.771 4.9364 214.449 4.74898 202.152 6.15552C198.006 6.6019 193.212 7.32816 188.424 8.74002C186.132 9.41079 184.047 10.1826 182.032 11.1597C172.742 15.4897 165.194 23.0624 157.205 31.1874C154.689 33.7116 152.139 36.3047 149.554 38.7952C146.731 41.4249 144.144 43.7439 141.555 45.7201C119.754 62.7049 88.6997 68.0755 58.4591 60.1012C41.5864 55.683 25.8835 47.6546 11.8688 36.5262L11.498 37.2837C25.5816 48.4458 41.2846 56.4741 58.2261 60.9259C88.6733 69.0014 120.001 63.5943 141.973 46.4366C144.595 44.3915 147.251 42.1062 150.074 39.4765C152.728 37.0197 155.312 34.3578 157.828 31.8336C165.75 23.8463 173.229 16.2399 182.382 12.0139C184.397 11.0369 186.482 10.265 188.671 9.6294C193.357 8.25269 198.22 7.56024 202.296 7.08014C214.423 5.67505 224.745 5.86237 234.601 7.69948C247.171 10.0966 259.251 15.4124 268.34 19.8619C269.235 20.3001 270.199 20.772 271.094 21.2102C279.702 25.4237 288.654 29.8056 297.851 30.7225C306.876 31.6408 314.849 29.6536 322.864 24.6143C330.776 19.6102 337.091 12.1164 343.813 4.13924C350.705 -4.01079 357.8 -12.4026 366.567 -17.7568C367.659 -18.4175 368.819 -19.0444 369.946 -19.6025C387.736 -28.393 411.634 -24.3768 430.859 -9.41769C431.342 -9.01031 431.826 -8.60305 432.343 -8.26453C448.363 4.86999 459.285 23.3622 469.894 41.274C470.798 42.7408 471.633 44.1739 472.468 45.6069C478.659 55.9783 484.886 62.612 491.531 65.7791C503.029 71.2369 512.698 67.178 519.794 62.9694C521.364 62.0304 522.967 61.0226 524.673 59.9796C530.777 56.0536 537.665 51.5723 547.594 49.7743C560.192 47.4052 571.972 49.6718 583.409 51.9413C585.435 52.3357 587.461 52.7302 589.419 53.0909L589.79 52.3334L589.445 52.1648Z" fill="url(#paint0_linear_423_3672)"/>
</g>
<g opacity="0.33">
<path d="M588.837 53.403C586.125 53.0143 583.378 52.5233 580.528 52.0672C569.368 50.104 557.796 48.1099 545.506 50.3736C535.782 52.1013 528.96 56.2733 522.921 59.8902C521.113 60.9683 519.51 61.9762 517.803 62.8478C510.943 66.5744 501.612 70.1161 490.732 64.7902C484.397 61.6891 478.411 55.2591 472.428 45.1602L470.133 41.305C459.42 23.2568 448.358 4.52592 432.063 -8.74341C431.579 -9.15079 431.096 -9.5582 430.51 -9.93044C411.079 -24.9906 386.906 -28.9701 368.878 -20.0404C367.751 -19.4823 366.59 -18.8554 365.465 -18.1259C356.562 -12.6677 349.399 -4.13818 342.473 4.08072C335.888 11.9539 329.607 19.3787 321.968 24.3463C314.091 29.453 306.392 31.4036 297.574 30.5864C288.514 29.7369 279.631 25.3887 271.059 21.2777C270.164 20.8395 269.269 20.4013 268.373 19.9631C259.25 15.5825 247.135 10.1642 234.497 7.73336C224.605 5.79368 214.248 5.50381 202.052 6.70378C197.906 7.15015 193.008 7.74002 188.287 9.01416C185.996 9.68494 183.911 10.4568 181.827 11.4002C172.297 15.6979 164.681 23.4083 156.658 31.6022C154.278 34.0224 151.865 36.5114 149.347 38.8642C146.524 41.4938 143.937 43.813 141.348 45.7892C119.651 62.9103 88.7024 68.5885 58.4646 60.957C41.2843 56.6443 25.3425 48.7552 11.0875 37.5945L10.7504 38.2831C25.0054 49.4438 41.016 57.3666 58.2652 61.713C88.7432 69.3768 119.966 63.6619 141.833 46.368C144.456 44.3229 147.042 42.0038 149.866 39.3741C152.384 37.0213 154.797 34.5323 157.177 32.1121C165.166 23.9871 172.782 16.2767 182.107 12.0493C184.157 11.1749 186.242 10.4029 188.431 9.7673C193.152 8.49315 197.981 7.86955 202.093 7.49204C214.22 6.25837 224.544 6.61716 234.366 8.52312C246.936 10.9203 258.982 16.3049 268.072 20.7543C268.967 21.1925 269.862 21.6307 270.757 22.0689C279.434 26.3161 288.35 30.5955 297.547 31.5124C306.537 32.3282 314.441 30.3072 322.455 25.0965C330.196 20.0938 336.51 12.6001 343.13 4.65809C349.953 -3.52566 357.082 -11.9863 365.882 -17.4094C366.974 -18.07 368.135 -18.697 369.261 -19.2551C386.983 -28.0793 410.915 -24.132 430.104 -9.27548C430.587 -8.86809 431.105 -8.52964 431.588 -8.12225C447.746 5.07967 458.772 23.7081 469.416 41.7225L471.712 45.5777C477.798 55.8128 483.922 62.3102 490.395 65.4788C501.585 71.042 511.086 67.3275 518.152 63.5306C519.79 62.6253 521.495 61.5823 523.27 60.573C529.206 56.9913 535.995 52.8881 545.615 51.1955C557.803 48.967 569.272 50.9963 580.364 52.9258C583.111 53.417 585.789 53.8744 588.432 54.2293L588.837 53.403Z" fill="url(#paint1_linear_423_3672)"/>
</g>
<g opacity="0.33">
<path d="M588.229 54.6411C584.831 54.2582 581.398 53.7728 577.759 53.1862C566.978 51.4941 555.786 49.7712 543.837 51.8606C534.421 53.4829 527.698 57.2769 521.828 60.5494C519.951 61.5939 518.177 62.6031 516.47 63.4747C509.709 66.8233 500.478 69.9871 489.906 64.5558C483.742 61.4532 477.894 55.0906 472.015 45.128L469.998 41.7505C459.215 23.4973 448.049 4.62995 431.582 -8.63795C431.099 -9.04533 430.615 -9.45263 430.029 -9.82486C410.633 -24.7825 386.427 -28.6932 368.467 -19.7299C367.34 -19.1718 366.146 -18.476 365.055 -17.8153C356.118 -12.2882 348.955 -3.75871 342.064 4.56275C335.513 12.367 329.301 19.8256 321.834 24.7917C313.991 30.001 306.259 32.0205 297.509 31.237C288.416 30.4564 279.499 26.1769 270.892 21.9634C269.997 21.5252 269.17 21.1207 268.275 20.6825C259.152 16.3019 247.106 10.9173 234.432 8.38393C224.541 6.44426 214.182 5.98293 201.984 7.01147C197.804 7.35528 192.939 7.87635 188.15 9.11678C185.892 9.71869 183.738 10.4569 181.654 11.4002C171.986 15.6305 164.303 23.4786 156.041 31.8116C153.798 34.1278 151.452 36.4791 149.071 38.7279C146.316 41.3913 143.661 43.6767 141.106 45.7555C119.616 62.9777 88.6701 68.9988 58.4015 61.779C41.1889 57.7066 24.869 49.7178 10.3738 38.5248L10.003 39.2823C24.5671 50.5089 40.9207 58.4288 58.2022 62.535C88.7111 69.787 119.862 63.6957 141.591 46.3343C144.145 44.2555 146.801 41.9701 149.556 39.3068C151.937 37.058 154.214 34.6729 156.526 32.3904C164.652 24.1614 172.335 16.3133 181.866 12.187C183.916 11.3126 186.001 10.5407 188.259 9.93874C192.947 8.73346 197.811 8.21244 201.923 7.83492C214.12 6.80639 224.308 7.26916 234.199 9.20882C246.735 11.6748 258.781 17.0594 267.836 21.4063C268.731 21.8445 269.557 22.249 270.452 22.6872C279.162 26.8656 288.114 31.2476 297.31 31.993C306.231 32.7751 314.168 30.6852 322.147 25.372C329.819 20.3356 336.031 12.877 342.617 5.00386C349.473 -3.24875 356.534 -11.7431 365.403 -17.1325C366.495 -17.7931 367.655 -18.4202 368.782 -18.9783C386.503 -27.8024 410.331 -23.9914 429.521 -9.13494C430.004 -8.72755 430.521 -8.38903 431.005 -7.98166C447.334 5.21882 458.431 24.0524 469.179 42.2031L471.196 45.5806C477.179 55.6795 483.096 62.0758 489.466 65.2795C500.382 70.8793 509.75 67.6117 516.716 64.1927C518.492 63.3549 520.266 62.3455 522.143 61.301C528.013 58.0285 534.633 54.2697 543.878 52.6489C555.655 50.5609 566.745 52.3191 577.559 53.9424C581.13 54.4952 584.46 55.0158 587.789 55.3649L588.16 54.6074L588.229 54.6411Z" fill="url(#paint2_linear_423_3672)"/>
</g>
<g opacity="0.33">
<path d="M587.693 55.7438C587.624 55.7101 587.522 55.7453 587.453 55.7116C583.404 55.4371 579.251 54.8549 574.926 54.2742C564.491 52.922 553.711 51.4012 542.173 53.3499C533.134 54.9005 526.613 58.2814 520.809 61.2448C518.863 62.2555 516.917 63.2663 515.141 64.1042C508.447 67.1436 499.349 69.8605 489.051 64.3926C483.023 61.186 477.279 54.9596 471.54 45.2359L469.87 42.3697C458.982 23.9801 447.782 5.01038 431.211 -8.3938C430.727 -8.80119 430.244 -9.20859 429.658 -9.58082C410.228 -24.4696 386.126 -28.2439 368.166 -19.2806C367.039 -18.7225 365.879 -18.0955 364.754 -17.366C355.817 -11.8389 348.62 -3.24051 341.73 5.08096C335.28 12.8501 329.171 20.2734 321.704 25.2395C313.93 30.4825 306.164 32.571 297.416 31.9589C288.289 31.2472 279.373 26.9677 270.731 22.823L268.252 21.6095C259.198 17.2627 247.118 11.9469 234.478 9.34464C224.621 7.33611 214.329 6.73703 202.061 7.56043C197.846 7.80167 192.912 8.28899 188.156 9.46056C185.829 10.0288 183.675 10.767 181.625 11.6415C171.751 15.7706 163.558 24.1373 155.671 32.2272C153.495 34.4056 151.286 36.653 149.109 38.8315C146.252 41.5301 143.666 43.8491 141.214 45.8928C119.896 63.285 89.0898 69.5449 58.7216 62.7031C41.1675 58.805 24.6426 50.8865 9.94217 39.7639L9.57138 40.5213C24.3407 51.6777 40.9345 59.6299 58.4885 63.528C89.0971 70.402 120.142 64.003 141.665 46.5405C144.186 44.5306 146.772 42.2114 149.561 39.4791C151.806 37.3343 154.015 35.087 156.123 32.8749C164.316 24.5081 172.135 16.5561 181.838 12.4284C183.888 11.5539 186.008 10.8844 188.266 10.2825C192.953 9.07724 197.853 8.65882 201.999 8.38388C214.165 7.59563 224.421 8.09215 234.245 10.1695C246.816 12.7381 258.794 18.089 267.779 22.4021L270.258 23.6156C278.968 27.794 287.954 32.1072 297.218 32.8864C306.104 33.5658 313.973 31.4423 321.985 26.0601C329.52 20.9563 335.698 13.5665 342.181 5.72853C349.038 -2.52407 356.132 -11.0873 364.966 -16.5792C366.058 -17.2399 367.149 -17.9004 368.345 -18.4248C385.997 -27.2827 409.859 -23.5407 429.013 -8.78672C429.496 -8.37934 430.014 -8.04078 430.497 -7.63339C446.964 5.6345 458.165 24.6042 469.017 42.8912L470.687 45.7574C476.53 55.6174 482.378 61.9799 488.544 65.2539C499.186 70.8904 508.42 68.0696 515.286 65.0287C517.131 64.2245 519.008 63.18 521.023 62.203C526.758 59.2059 533.245 55.894 542.113 54.3449C553.48 52.3976 564.19 53.8845 574.625 55.2367C578.95 55.8174 583.104 56.3997 587.152 56.6742L587.624 55.7102L587.693 55.7438Z" fill="url(#paint3_linear_423_3672)"/>
</g>
<g opacity="0.33">
<path d="M587.254 56.64C586.5 56.6121 585.814 56.618 585.06 56.5901C580.875 56.4196 576.585 55.9414 571.986 55.3973C561.964 54.2473 551.531 53.0666 540.471 54.9084C531.774 56.2847 525.422 59.3212 519.821 62.0428C517.704 63.055 515.723 63.9632 513.776 64.8025C507.18 67.4639 498.285 69.7676 488.192 64.2294C482.336 61.0214 476.763 54.7936 471.094 45.275L469.737 42.9891C458.815 24.497 447.475 5.28836 430.733 -8.11437C430.249 -8.52175 429.766 -8.92918 429.249 -9.26771C409.854 -24.0539 385.719 -27.7593 367.827 -18.7623C366.701 -18.2042 365.506 -17.5084 364.415 -16.8478C355.444 -11.2518 348.316 -2.61973 341.392 5.7706C335.012 13.5734 328.97 20.8591 321.64 25.8926C313.833 31.2045 306.171 33.4292 297.492 32.8508C288.331 32.208 279.415 27.9285 270.773 23.7838L268.363 22.6041C259.309 18.2572 247.298 12.9752 234.692 10.3041C224.868 8.22666 214.541 7.52505 202.272 8.17702C197.816 8.38599 193.088 8.80293 188.399 9.83678C186.072 10.405 183.952 11.0744 181.833 11.9152C171.787 16.0458 163.492 24.4476 155.538 32.6751C153.498 34.7496 151.424 36.893 149.316 38.9338C146.493 41.7349 143.941 43.9851 141.489 46.0287C120.309 63.4883 89.5745 70.1248 59.1754 63.6947C41.3825 59.9357 24.5499 52.1228 9.67804 41.0016L9.34099 41.6902C24.2817 52.8451 41.1831 60.6917 59.0786 64.4155C89.6491 70.8442 120.727 64.2049 142.077 46.5724C144.528 44.5288 147.115 42.2096 150.006 39.4422C152.114 37.4014 154.188 35.2582 156.228 33.1837C164.557 24.713 172.444 16.6231 182.284 12.5628C184.334 11.6883 186.421 11.0878 188.748 10.5196C193.368 9.45204 198.165 9.06878 202.518 8.89496C214.685 8.27814 224.943 8.94613 234.698 10.9898C247.235 13.6272 259.177 18.8755 268.231 23.2224L270.642 24.4022C279.352 28.5805 288.406 32.9274 297.669 33.5351C306.589 34.1458 314.353 31.8859 322.297 26.47C329.729 21.4013 335.838 13.9779 342.219 6.17506C349.109 -2.1464 356.168 -10.8122 365.071 -16.2704C366.163 -16.9311 367.254 -17.5917 368.381 -18.1498C386.033 -27.0076 409.826 -23.2993 428.979 -8.71681C429.462 -8.30943 429.98 -7.97086 430.463 -7.56347C447.171 5.73669 458.406 24.809 469.329 43.3011L470.685 45.587C476.424 55.3107 482.066 61.5723 488.129 64.8815C498.464 70.6234 507.598 68.1805 514.364 65.5176C516.381 64.712 518.293 63.7701 520.479 62.7916C526.046 60.1388 532.398 57.1023 540.924 55.7275C551.881 53.9208 562.212 55.1367 572.233 56.2866C576.764 56.797 581.123 57.309 585.307 57.4794C585.89 57.5088 586.507 57.4693 587.159 57.5324L587.53 56.7749L587.254 56.64Z" fill="url(#paint4_linear_423_3672)"/>
</g>
<g opacity="0.33">
<path d="M586.852 57.4662C585.48 57.4777 584.04 57.4556 582.669 57.4671C578.279 57.3669 573.784 56.9591 569.049 56.5189C559.406 55.6401 549.455 54.6953 538.839 56.3277C530.518 57.6322 524.335 60.3245 518.903 62.7018C516.648 63.6466 514.531 64.6587 512.479 65.3617C505.54 67.8546 497.119 69.5371 487.369 63.996C481.615 60.7529 476.18 54.5926 470.684 45.244L469.675 43.4694C458.682 24.7722 447.238 5.42731 430.256 -8.00768C429.772 -8.41505 429.255 -8.75357 428.772 -9.16095C409.343 -23.8783 385.243 -27.4813 367.421 -18.4505C366.294 -17.8924 365.133 -17.2654 364.008 -16.5359C355.037 -10.9399 347.842 -2.17021 340.918 6.22011C334.571 13.9541 328.632 21.2046 321.371 26.2718C313.599 31.6863 305.973 34.0135 297.293 33.4352C288.099 32.8611 279.182 28.5817 270.438 24.4722L268.097 23.3262C259.078 19.0819 247.136 13.8335 234.494 11.0598C224.704 8.91351 214.411 8.14299 202.105 8.52097C197.683 8.66109 192.851 8.94182 188.162 9.97567C185.8 10.4413 183.68 11.1107 181.561 11.9514C171.309 15.9809 162.912 24.5894 154.822 32.921C152.918 34.8914 150.912 36.897 148.94 38.8338C146.117 41.6349 143.531 43.954 141.113 45.9288C120.037 63.5246 89.339 70.4351 58.9779 64.4505C40.9125 60.8996 23.7722 53.192 8.72891 42.0722L8.39181 42.7609C23.5039 53.9143 40.7132 61.6555 58.8474 65.2402C89.4488 71.2571 120.421 64.31 141.633 46.6102C144.051 44.6354 146.569 42.2825 149.493 39.4463C151.466 37.5095 153.472 35.5039 155.376 33.5335C163.772 24.925 171.692 16.7663 181.842 12.772C183.859 11.9664 186.048 11.3308 188.341 10.8315C193.029 9.79761 197.759 9.55197 202.181 9.41185C214.418 9.00017 224.609 9.8058 234.33 11.9183C246.903 14.6583 258.776 19.873 267.795 24.1173L270.136 25.2634C278.847 29.4418 287.935 33.7197 297.197 34.3274C306.049 34.9043 313.847 32.5757 321.755 27.0573C329.118 21.9549 335.091 14.6355 341.472 6.83266C348.327 -1.59137 355.455 -10.2235 364.323 -15.7843C365.414 -16.4449 366.506 -17.1056 367.633 -17.6637C385.216 -26.5553 408.974 -22.9495 428.16 -8.43583C428.644 -8.02845 429.161 -7.68989 429.644 -7.28251C446.49 6.08506 457.865 25.3962 468.822 43.9909L469.831 45.7654C475.431 55.2503 481.004 61.4781 486.793 64.8238C496.854 70.6023 505.855 68.6064 512.555 66.2527C514.64 65.4808 516.793 64.5711 519.082 63.5575C524.513 61.1801 530.594 58.523 538.813 57.2537C549.326 55.6565 559.208 56.5676 568.782 57.4127C573.517 57.8529 578.012 58.2607 582.402 58.3609C583.671 58.3845 584.94 58.4081 586.242 58.3628L586.714 57.3988L586.852 57.4662Z" fill="url(#paint5_linear_423_3672)"/>
</g>
<g opacity="0.33">
<path d="M586.548 58.0866C584.424 58.2416 582.333 58.3279 580.207 58.3115C575.647 58.3842 570.947 58.0465 565.937 57.6429C556.777 57.0001 547.205 56.3265 537.171 57.8168C529.329 59.0144 523.315 61.3624 518.051 63.3954C515.625 64.3416 513.301 65.2526 511.112 65.8883C504.272 68.0032 496.02 69.3414 486.508 63.6611C480.96 60.3476 475.629 54.3235 470.168 45.0775L469.472 43.8833C458.376 25.0498 446.862 5.49973 429.741 -8.00268C429.258 -8.41006 428.74 -8.74863 428.257 -9.15602C408.83 -23.7019 384.798 -27.2712 366.976 -18.2404C365.849 -17.6823 364.689 -17.0554 363.564 -16.3258C354.49 -10.6947 347.364 -1.89117 340.475 6.60172C334.231 14.3006 328.325 21.4822 321.202 26.6168C313.466 32.1338 305.839 34.4611 297.194 33.9853C288.035 33.5139 279.05 29.2007 270.306 25.0912L268.034 23.9788C259.014 19.7345 247.141 14.5199 234.533 11.6773C224.743 9.53106 214.449 8.5892 202.141 8.79575C197.651 8.90215 192.852 9.11396 188.128 10.0453C185.766 10.5109 183.577 11.1465 181.492 11.9184C171.102 15.8804 162.638 24.6266 154.411 33.0622C152.644 34.9287 150.774 36.8302 148.938 38.663C146.116 41.4641 143.598 43.8169 141.18 45.7917C120.311 63.4887 89.6155 70.742 59.2574 65.1003C40.8505 61.7236 23.574 54.1201 8.2567 43.0369L7.9196 43.7256C23.2031 54.8776 40.6512 62.4798 59.1269 65.8901C89.7254 71.5641 120.626 64.2404 141.734 46.4043C144.083 44.3958 146.669 42.0766 149.525 39.2067C151.362 37.3739 153.231 35.4723 154.999 33.6059C163.463 24.8597 171.519 16.597 181.807 12.6701C183.892 11.8982 185.978 11.2977 188.272 10.7984C192.927 9.8334 197.691 9.69042 202.182 9.58401C214.387 9.41261 224.613 10.3207 234.334 12.4333C246.873 15.2421 258.746 20.4568 267.697 24.6674L269.969 25.7797C278.782 29.9229 287.767 34.2361 297.166 34.7399C305.982 35.2142 313.712 32.8518 321.654 27.2645C328.879 22.0947 334.818 14.8442 341.063 7.14534C347.918 -1.27869 355.01 -10.0134 363.981 -15.6093C365.073 -16.27 366.164 -16.9306 367.291 -17.4887C384.875 -26.3803 408.597 -22.877 427.748 -8.46592C428.232 -8.05853 428.749 -7.72003 429.232 -7.31265C446.284 6.15605 457.694 25.5698 468.825 44.3345L469.52 45.5286C475.017 54.8773 480.452 61.0376 486.103 64.3159C495.821 70.0973 504.347 68.7226 511.289 66.5726C513.512 65.8681 515.836 64.957 518.262 64.0108C523.457 61.9441 529.471 59.596 537.211 58.4336C547.245 56.9433 556.645 57.6184 565.806 58.2613C570.746 58.6312 575.549 58.9336 580.075 58.9298C582.03 58.9476 584.051 58.8277 585.971 58.7429L586.342 57.9855L586.548 58.0866Z" fill="url(#paint6_linear_423_3672)"/>
</g>
<g opacity="0.33">
<path d="M586.341 58.4976C583.463 58.7961 580.619 59.0258 577.774 59.0841C573.009 59.2271 568.001 58.995 562.752 58.7306C554.005 58.29 545.018 57.8171 535.463 59.2006C528.032 60.2575 522.288 62.226 517.228 64.0174C514.63 64.965 512.169 65.8086 509.739 66.412C502.999 68.1489 494.847 69.1091 485.609 63.3923C480.233 60.0773 474.97 54.0869 469.682 45.0109L469.369 44.4306C458.202 25.3919 446.584 5.70564 429.223 -7.82903C428.739 -8.23641 428.222 -8.57492 427.739 -8.9823C408.347 -23.4256 384.282 -26.926 366.528 -17.8616C365.402 -17.3035 364.241 -16.6765 363.116 -15.947C354.043 -10.3159 346.882 -1.44356 339.96 7.11821C333.749 14.7482 328.015 21.9283 320.892 27.0629C313.191 32.6825 305.633 35.0435 297.023 34.6703C287.831 34.2677 278.812 30.0234 270.068 25.9139L267.864 24.8352C254.611 18.6036 244.258 14.8163 234.364 12.5338C224.539 10.285 214.278 9.27423 202.072 9.2742C197.546 9.27804 192.712 9.38729 188.022 10.2497C185.66 10.7154 183.504 11.2821 181.35 12.0203C170.72 15.9501 162.222 24.7652 153.928 33.3385C152.228 35.0672 150.495 36.8647 148.795 38.5934C145.973 41.3945 143.455 43.7474 141.106 45.7559C120.341 63.5891 89.7846 71.0813 59.3619 65.9201C40.6825 62.7516 23.0981 55.2534 7.60943 44.1717L7.27233 44.8603C22.8299 55.9757 40.4832 63.5076 59.2314 66.7099C89.8607 71.9722 120.656 64.3408 141.626 46.4372C143.975 44.4287 146.493 42.076 149.349 39.206C151.048 37.4773 152.782 35.6797 154.482 33.951C162.742 25.4465 171.206 16.7004 181.632 12.8409C183.717 12.069 185.872 11.5022 188.131 11.0717C192.822 10.2092 197.586 10.0662 202.01 10.0975C214.216 10.0976 224.477 11.1084 234.131 13.3587C243.956 15.6075 254.206 19.4299 267.493 25.5927L269.731 26.6025C278.543 30.7457 287.631 35.0237 296.962 35.4937C305.709 35.9343 313.505 33.4342 321.344 27.7107C328.466 22.576 334.337 15.2918 340.547 7.66182C347.436 -0.831063 354.563 -9.63452 363.464 -15.2642C364.556 -15.9248 365.648 -16.5855 366.774 -17.1436C384.289 -26.0689 408.045 -22.6345 427.161 -8.32596C427.645 -7.91858 428.162 -7.58006 428.645 -7.17268C445.869 6.29457 457.418 25.9472 468.55 44.8833L468.932 45.4973C474.289 54.607 479.586 60.6999 485.101 64.0823C494.614 69.934 502.938 68.9724 509.78 67.2003C512.21 66.597 514.705 65.6845 517.303 64.7368C522.363 62.9455 528.037 60.9432 535.367 59.9214C544.819 58.5731 553.806 59.046 562.484 59.4529C567.733 59.7173 572.741 59.9495 577.505 59.8064C580.179 59.7496 582.921 59.5552 585.627 59.258L586.065 58.3628L586.341 58.4976Z" fill="url(#paint7_linear_423_3672)"/>
</g>
<g opacity="0.33">
<path d="M586.24 58.7045C582.542 59.2843 578.945 59.6575 575.346 59.8592C570.24 60.1766 565.027 60.0148 559.471 59.8559C551.308 59.6161 542.803 59.3791 533.863 60.5516C526.945 61.4328 521.473 63.1933 516.651 64.6741C513.813 65.5895 511.111 66.4008 508.544 66.9368C501.903 68.2956 493.919 68.9115 484.921 63.0555C479.647 59.7054 474.625 53.7473 469.373 44.9452C458.102 25.7703 446.414 5.87891 428.846 -7.75689C428.363 -8.16428 427.846 -8.50284 427.362 -8.91022C407.937 -23.2847 383.976 -26.6488 366.222 -17.5843C365.095 -17.0262 363.935 -16.3993 362.878 -15.636C353.772 -9.93607 346.68 -1.03008 339.724 7.60053C333.616 15.1954 327.916 22.3067 320.964 27.4399C313.298 33.162 305.706 35.5919 297.166 35.2524C287.939 34.9186 278.92 30.6743 270.176 26.5648L268.077 25.6224C254.859 19.4934 244.54 15.6372 234.679 13.2858C224.887 10.9681 214.625 9.78598 202.384 9.68338C197.823 9.58465 192.989 9.6939 188.264 10.4538C185.935 10.8505 183.677 11.4524 181.592 12.2243C170.755 16.053 162.156 25.0746 153.76 33.6831C152.162 35.3767 150.599 37.0014 148.966 38.5924C146.11 41.4624 143.696 43.78 141.347 45.7885C120.685 63.7581 90.2345 71.558 59.8147 66.7396C40.8627 63.7791 22.9707 56.3864 7.37945 45.3399L7.0424 46.0284C22.7714 57.1424 40.6971 64.4662 59.6842 67.5293C90.3443 72.3799 121 64.5097 141.9 46.401C144.249 44.3925 146.664 42.0749 149.623 39.1698C151.255 37.5788 152.853 35.8852 154.45 34.1916C162.778 25.5495 171.309 16.6656 181.941 12.9072C184.026 12.1353 186.148 11.6374 188.476 11.2406C193.132 10.447 197.932 10.4066 202.425 10.4716C214.633 10.6431 224.826 11.7916 234.549 14.0755C244.34 16.3932 254.624 20.1469 267.809 26.3448L269.908 27.2872C278.721 31.4304 287.809 35.7083 297.206 36.0406C305.918 36.3787 313.646 33.8448 321.518 28.0524C328.503 22.8504 334.306 15.7039 340.448 8.04025C347.37 -0.521503 354.428 -9.35874 363.432 -15.0235C364.524 -15.6842 365.616 -16.3449 366.742 -16.903C384.257 -25.8283 407.875 -22.4613 427.059 -8.29051C427.576 -7.95198 428.06 -7.54456 428.543 -7.13718C445.973 6.4312 457.557 26.1863 468.828 45.3613C474.081 54.3348 479.241 60.3603 484.584 63.7441C493.789 69.7012 502.013 69.1177 508.756 67.7236C511.323 67.1877 514.059 66.3074 516.966 65.4257C521.788 63.945 527.226 62.2534 534.076 61.3385C542.946 60.1322 551.349 60.4043 559.512 60.6441C565.068 60.803 570.383 60.9297 575.489 60.6124C578.917 60.412 582.445 60.0052 585.938 59.4957L586.309 58.7383L586.24 58.7045Z" fill="url(#paint8_linear_423_3672)"/>
</g>
<g opacity="0.33">
<path d="M586.278 58.6379C581.521 59.6381 577.103 60.2925 572.957 60.5674C567.919 60.9184 562.707 60.928 557.187 60.8717C549.197 60.8018 540.933 60.7686 532.199 61.8708C525.828 62.6788 520.628 64.0599 516.01 65.2989C512.76 66.1835 509.92 66.9274 507.146 67.3623C500.675 68.3769 492.79 68.6147 483.997 62.6884C478.928 59.268 473.941 53.4125 468.862 44.7804C457.626 25.708 446.111 5.98657 428.337 -7.75035C427.854 -8.15774 427.336 -8.49629 426.853 -8.90368C407.463 -23.1756 383.468 -26.4709 365.783 -17.3727C364.656 -16.8146 363.565 -16.1539 362.439 -15.4244C353.299 -9.65559 346.174 -0.680644 339.217 7.94997C333.212 15.5096 327.512 22.621 320.663 27.7191C312.996 33.4412 305.509 36.0072 296.934 35.7366C287.674 35.4717 278.655 31.2274 269.878 27.1868L267.847 26.2782C254.698 20.1828 244.379 16.3266 234.518 13.9752C224.658 11.6239 214.394 10.2702 202.254 9.96099C197.726 9.7934 192.857 9.80014 188.063 10.5263C185.666 10.8894 183.442 11.4224 181.357 12.1943C170.382 15.9556 161.647 25.0812 153.183 33.8274C151.722 35.4169 150.226 36.904 148.696 38.4598C145.806 41.3987 143.425 43.6474 141.076 45.6559C120.246 63.9697 90.585 71.9001 59.7227 67.4627C40.4982 64.7101 22.401 57.3878 6.60464 46.4116L6.26759 47.1001C22.1328 58.1101 40.3325 65.3973 59.6259 68.1835C90.6948 72.7221 120.561 64.7214 141.561 46.2347C143.91 44.2262 146.325 41.9086 149.214 38.9697C150.711 37.4828 152.172 35.8932 153.701 34.3373C162.097 25.5574 170.764 16.5695 181.534 12.8785C183.585 12.1755 185.81 11.6425 188.138 11.2457C192.863 10.4859 197.698 10.5479 202.157 10.6818C214.264 11.0599 224.423 12.2772 234.25 14.6975C244.077 17.1177 254.292 20.8377 267.441 26.933L269.472 27.8417C278.284 31.9849 287.406 36.194 296.804 36.5263C305.55 36.7955 313.209 34.228 321.045 28.333C327.962 23.0972 333.662 15.9859 339.667 8.4262C346.521 -0.169251 353.646 -9.14412 362.65 -14.8089C363.742 -15.4696 364.833 -16.1303 365.96 -16.6884C383.406 -25.6474 407.058 -22.3492 426.207 -8.28102C426.724 -7.94249 427.207 -7.53513 427.691 -7.12775C445.292 6.43919 456.841 26.0918 468.008 45.1304C473.122 53.8651 478.144 59.8232 483.351 63.311C492.351 69.3385 500.373 69.168 507.016 68.1519C509.858 67.7508 512.834 66.9029 515.982 66.0535C520.531 64.7808 525.698 63.4686 532 62.6269C540.631 61.5598 548.895 61.5931 556.918 61.594C562.439 61.6504 567.651 61.6408 572.757 61.3234C576.732 61.0499 580.978 60.397 585.6 59.5009L586.072 58.5368L586.278 58.6379Z" fill="url(#paint9_linear_423_3672)"/>
</g>
<g opacity="0.33">
<path d="M586.477 58.2228C581.106 59.6053 575.732 60.645 570.457 61.3066C564.634 62.0414 558.531 62.127 552.086 62.2156C545.126 62.3085 537.995 62.4029 530.493 63.2547C524.533 63.9221 519.605 65.0952 515.293 66.0573C511.734 66.8759 508.757 67.5524 505.776 67.8861C499.816 68.5535 491.964 68.551 483.134 62.3507C478.167 58.8952 473.387 53.1408 468.412 44.645C457.802 26.5617 445.834 6.02118 427.889 -7.7143C427.405 -8.12168 426.888 -8.46024 426.404 -8.86762C407.049 -23.037 383.021 -26.2633 365.405 -17.1315C364.278 -16.5734 363.187 -15.9127 362.061 -15.1832C352.921 -9.41436 345.762 -0.370658 338.841 8.36253C332.869 15.8533 327.271 22.9296 320.56 28.095C312.929 33.9197 305.407 36.5547 296.971 36.3515C287.677 36.1555 278.658 31.9112 269.812 27.8368L267.85 26.9618C254.769 20.9001 244.519 17.0777 234.624 14.6238C224.728 12.1698 214.498 10.7473 202.356 10.2667C197.829 10.0991 192.958 9.93447 188.198 10.5918C185.801 10.9548 183.61 11.419 181.456 12.1572C170.275 15.8173 161.472 25.0807 152.941 33.9646C151.547 35.4164 150.188 36.7994 148.794 38.2513C145.904 41.1901 143.489 43.5077 141.243 45.4811C120.517 63.9312 90.9614 72.1693 60.102 68.0747C40.605 65.5302 22.269 58.347 6.26746 47.4411L5.93042 48.1296C21.9671 59.1381 40.4056 66.2861 59.9715 68.8643C91.0713 72.9912 120.901 64.7165 141.728 46.0598C144.008 44.0176 146.423 41.7 149.313 38.7612C150.706 37.3094 152.066 35.9264 153.46 34.4745C161.889 25.6258 170.657 16.4313 181.634 12.8415C183.754 12.1722 185.875 11.6743 188.273 11.3112C193.033 10.6539 197.834 10.7849 202.328 11.0213C214.436 11.5708 224.598 12.9596 234.424 15.3799C244.251 17.8001 254.501 21.6225 267.513 27.6504L269.475 28.5255C278.321 32.5998 287.478 36.9115 296.943 37.106C305.62 37.3415 313.277 34.6026 321.045 28.6739C327.859 23.4733 333.49 16.3282 339.462 8.83738C346.349 0.17305 353.474 -8.80184 362.512 -14.5355C363.604 -15.1962 364.696 -15.8569 365.822 -16.415C383.199 -25.4077 406.885 -22.1783 425.998 -8.21267C426.516 -7.87415 426.999 -7.46689 427.483 -7.0595C445.29 6.60856 457.223 27.0467 467.798 45.0274C472.808 53.6257 477.692 59.5164 482.728 63.0057C491.764 69.3071 499.857 69.3418 505.92 68.6393C508.9 68.3056 511.98 67.5938 515.539 66.7752C519.851 65.8131 524.779 64.6401 530.67 63.939C538.104 63.0535 545.235 62.9591 552.194 62.8662C558.64 62.7776 564.811 62.7256 570.634 61.9908C575.704 61.3995 580.873 60.4302 586.073 59.0491L586.477 58.2228Z" fill="url(#paint10_linear_423_3672)"/>
</g>
<g opacity="0.33">
<path d="M586.849 57.4645C580.488 59.4725 574.123 60.9663 568.028 61.9091C561.658 62.8885 554.974 63.1163 547.878 63.3133C541.708 63.5367 535.4 63.6926 528.789 64.4684C523.651 65.026 519.235 65.8518 515.333 66.6733C511.26 67.4962 507.768 68.1772 504.443 68.3423C498.171 68.6009 490.657 68.0813 482.274 62.0144C477.479 58.5574 472.837 52.8703 467.966 44.5108C457.46 26.5638 445.596 6.15952 427.443 -7.67708C426.96 -8.08446 426.443 -8.42302 425.959 -8.83041C406.537 -22.862 382.646 -26.0209 365.03 -16.8891C363.903 -16.331 362.812 -15.6703 361.686 -14.9408C352.512 -9.10312 345.353 -0.0593681 338.399 8.74266C332.53 16.1983 326.965 23.2057 320.426 28.3697C312.829 34.297 305.377 36.9656 296.907 36.8312C287.579 36.7041 278.526 32.5286 269.68 28.4543L267.787 27.6131C254.913 21.6525 244.354 17.7641 234.561 15.275C224.837 12.8196 214.263 11.2285 202.324 10.5062C197.762 10.236 192.925 10.0024 188.096 10.626C185.732 10.9202 183.439 11.4196 181.319 12.0889C169.931 15.648 161.061 25.0491 152.429 34.1396C151.171 35.4874 149.914 36.8353 148.621 38.0805C145.732 41.0194 143.386 43.3707 141.139 45.344C120.586 63.9641 91.0673 72.4762 60.177 68.7933C40.4074 66.4568 21.8326 59.4128 5.7285 48.5421L5.39145 49.2306C21.6333 60.1688 40.3106 67.1776 60.1491 69.5478C91.2796 73.263 121.004 64.6806 141.693 45.9565C143.939 43.9832 146.285 41.6318 149.209 38.6241C150.466 37.2763 151.792 35.9622 153.016 34.6832C161.512 25.6967 170.417 16.3982 181.531 12.8758C183.652 12.2064 185.842 11.7422 188.206 11.448C192.932 10.8596 197.803 11.0244 202.263 11.3297C214.201 12.052 224.637 13.5756 234.328 16.0999C244.052 18.5553 254.578 22.5126 267.416 28.3705L269.309 29.2118C278.156 33.2861 287.346 37.529 296.845 37.6547C305.487 37.7876 313.144 35.0487 320.877 29.0174C327.553 23.7494 333.117 16.742 338.986 9.28634C345.907 0.553162 352.997 -8.52431 362.035 -14.258C363.127 -14.9186 364.218 -15.5793 365.345 -16.1375C382.722 -25.1301 406.304 -22.0371 425.451 -8.14032C425.968 -7.8018 426.451 -7.3944 426.969 -7.05587C445.017 6.64446 456.846 26.9461 467.283 44.8594C472.223 53.2527 476.969 59.0759 481.833 62.5666C490.389 68.8036 498.074 69.3217 504.449 69.0279C507.843 68.8965 511.368 68.1468 515.476 67.4264C519.345 66.6738 523.761 65.848 528.899 65.2904C535.477 64.5835 541.818 64.3586 547.885 64.1703C555.015 63.9045 561.699 63.6768 568.138 62.7311C574.061 61.7897 580.221 60.3663 586.377 58.4286L586.849 57.4645Z" fill="url(#paint11_linear_423_3672)"/>
</g>
<g opacity="0.33">
<path d="M587.457 56.2264C586.808 56.5062 586.09 56.7524 585.372 56.9984C578.638 59.4211 571.933 61.2604 565.565 62.4113C558.615 63.7042 551.075 64.1106 543.192 64.5199C538.017 64.8035 532.671 65.0886 527.12 65.6154C522.701 66.0983 518.763 66.6458 515.339 67.189C510.716 67.9137 506.812 68.5638 503.075 68.5267C496.937 68.5098 489.626 67.5771 481.413 61.3373C476.754 57.7763 472.353 52.293 467.518 44.036C455.375 23.154 443.94 4.8377 426.963 -7.91158C426.479 -8.31896 425.962 -8.65756 425.445 -8.99609C406.058 -22.9252 382.133 -26.0152 364.586 -16.8496C363.459 -16.2915 362.368 -15.6309 361.242 -14.9013C352.068 -9.06366 344.842 0.117864 337.956 8.95362C332.19 16.3741 326.728 23.3463 320.188 28.5103C312.627 34.5401 305.21 37.3114 296.74 37.177C287.378 37.1187 278.326 32.9432 269.479 28.8689L267.655 28.0614C254.816 22.2035 244.36 18.2798 234.532 15.6882C224.772 13.1302 214.232 11.4703 202.292 10.5765C197.694 10.2038 192.789 9.93655 187.993 10.4913C185.561 10.7518 183.37 11.216 181.181 11.8516C169.656 15.3432 160.649 24.8482 151.983 34.0075C150.793 35.2176 149.672 36.4615 148.482 37.6716C145.559 40.6793 143.247 42.9618 141.069 44.9688C120.62 63.7252 91.2064 72.545 60.3191 69.205C40.2769 67.0765 21.5321 60.2054 5.22286 49.4049L4.88576 50.0935C21.2639 60.9277 40.1802 67.7974 60.2912 69.9595C91.4189 73.3319 121.071 64.3729 141.657 45.5125C143.834 43.5055 146.249 41.1879 149.103 38.1465C150.293 36.9364 151.414 35.6925 152.604 34.4824C161.237 25.3919 170.141 15.922 181.461 12.5007C183.581 11.8314 185.738 11.4359 188.101 11.1417C192.795 10.6222 197.7 10.8895 202.229 11.2286C214.169 12.1223 224.607 13.8173 234.297 16.3416C244.056 18.8995 254.513 22.8232 267.283 28.6475L269.107 29.4549C277.953 33.5292 287.178 37.7033 296.676 37.829C305.352 37.8931 312.872 35.0866 320.638 28.9865C327.211 23.7537 332.707 16.7126 338.542 9.32579C345.428 0.490055 352.587 -8.55364 361.658 -14.3562C362.75 -15.0168 363.842 -15.6775 364.9 -16.2693C382.208 -25.2957 405.79 -22.2028 424.935 -8.47739C425.452 -8.13887 425.936 -7.73156 426.453 -7.39303C443.292 5.28883 454.659 23.5715 466.835 44.3846C471.705 52.7442 476.175 58.2612 480.972 61.8896C489.358 68.2994 497.217 69.159 503.081 69.2124C506.818 69.2495 510.893 68.598 515.516 67.8733C518.94 67.3301 522.843 66.6801 527.229 66.266C532.71 65.7055 538.126 65.4541 543.267 65.2393C551.219 64.8637 558.69 64.4236 565.708 63.1644C572.179 61.9784 578.815 60.1053 585.618 57.7164C586.028 57.5758 586.472 57.3663 586.882 57.2256L587.388 56.1928L587.457 56.2264Z" fill="url(#paint12_linear_423_3672)"/>
</g>
<g opacity="0.33">
<path d="M588.869 53.3332C588.324 53.7493 587.745 54.2342 587.234 54.5814C585.7 55.623 584.094 56.2879 582.453 56.8504C575.822 59.4093 569.359 61.4524 563.13 62.8421C555.259 64.6228 546.726 65.1405 537.747 65.6962C533.772 65.9697 529.728 66.2095 525.514 66.6221C521.951 66.9265 518.663 67.3656 515.751 67.733C510.476 68.3947 505.921 68.9816 501.77 68.7423C496.144 68.3782 488.625 67.1729 480.581 60.7602C476.025 57.1641 471.762 51.7482 467.099 43.6612C455.061 22.9155 443.661 4.70172 426.477 -8.14867C425.96 -8.4872 425.477 -8.89467 424.96 -9.23319C405.607 -23.0597 381.718 -26.0471 364.171 -16.8816C363.044 -16.3234 361.953 -15.6628 360.827 -14.9333C351.619 -9.02672 344.462 0.188469 337.542 9.09308C331.81 16.4447 326.45 23.3817 320.082 28.5443C312.556 34.6767 305.105 37.5168 296.739 37.5187C287.344 37.5292 278.222 33.3201 269.411 29.3483L267.656 28.5746C254.955 22.784 244.429 18.8267 234.601 16.235C224.876 13.6082 214.403 11.8105 202.461 10.7453C197.143 10.2758 192.683 9.97052 188.126 10.3861C185.694 10.6466 183.468 11.0083 181.279 11.6439C169.547 15.0344 160.473 24.6772 151.739 33.9742C150.686 35.0803 149.632 36.1864 148.578 37.2925C145.621 40.369 143.412 42.6164 141.131 44.6586C120.82 63.4824 91.4095 72.6451 60.5602 69.7504C40.3144 67.8637 21.3307 61.1317 4.88516 50.4352L4.54806 51.1238C21.1313 61.8877 40.2176 68.5845 60.5323 70.505C91.6219 73.4318 121.204 64.2678 141.719 45.2022C143.896 43.1952 146.209 40.9126 149.166 37.8361C150.219 36.73 151.273 35.624 152.327 34.5179C161.027 25.2897 169.998 15.682 181.525 12.3618C183.611 11.7613 185.871 11.3309 188.201 11.1055C192.655 10.7251 197.08 10.9278 202.365 11.4662C214.203 12.5665 224.676 14.3642 234.436 16.9221C244.23 19.5827 254.72 23.4374 267.353 29.1943L269.108 29.9682C278.023 34.0762 287.179 38.2164 296.745 38.2044C305.351 38.2348 312.938 35.2906 320.601 29.0542C327.105 23.7876 332.464 16.8507 338.197 9.49906C345.083 0.663304 352.24 -8.55198 361.312 -14.3545C362.335 -15.0489 363.495 -15.6758 364.553 -16.2676C381.861 -25.294 405.408 -22.3035 424.518 -8.68074C425.036 -8.34222 425.519 -7.93492 426.036 -7.5964C443.082 5.18659 454.447 23.2978 466.417 44.0098C471.148 52.1305 475.515 57.6827 480.14 61.3125C488.356 67.8952 495.978 69.0654 501.742 69.4969C505.962 69.7699 510.517 69.1829 515.861 68.555C518.772 68.1876 522.027 67.8173 525.521 67.4792C529.701 67.1354 533.779 66.8268 537.754 66.5533C546.836 65.9625 555.369 65.4448 563.309 63.6978C569.538 62.3081 576.07 60.2986 582.734 57.6709C584.409 57.0396 586.048 56.3058 587.651 55.2979C587.787 55.1939 587.924 55.0899 588.163 54.9507L588.938 53.367L588.869 53.3332Z" fill="url(#paint13_linear_423_3672)"/>
</g>
<g opacity="0.33">
<path d="M592.073 46.7926C590.815 48.1405 589.456 49.5235 588.129 50.8376C586.94 52.0477 585.544 53.328 584.113 54.3345C582.612 55.3072 581.144 56.0397 579.436 56.7398C572.945 59.5376 566.585 61.7169 560.632 63.2415C551.531 65.6154 541.559 66.2823 530.937 67.0575C528.538 67.2492 526.173 67.3721 523.741 67.6326C521.171 67.8257 518.739 68.0861 516.511 68.2763C510.139 68.9128 505.035 69.4017 500.366 68.8238C494.875 68.1843 487.558 66.5658 479.685 59.9802C475.3 56.3826 471.175 51.0342 466.582 43.1523C455.065 23.2594 443.317 4.36289 425.962 -8.48606C425.478 -8.89345 424.961 -9.23204 424.444 -9.57057C405.058 -23.3282 381.204 -26.2131 363.726 -17.0139C362.599 -16.4558 361.507 -15.7951 360.382 -15.0656C351.174 -9.15904 343.983 0.124994 337.029 9.09846C331.399 16.415 326.074 23.2832 319.741 28.5483C312.284 34.7144 304.868 37.6571 296.468 37.7278C287.039 37.8073 277.986 33.6318 269.106 29.6263L267.42 28.8862C254.788 23.1294 244.297 19.2746 234.468 16.5115C224.742 13.8847 214.199 11.882 202.359 10.6102C197.005 10.0382 192.476 9.69909 187.953 10.0458C185.486 10.2037 183.226 10.6342 181.071 11.201C169.132 14.4903 159.991 24.2709 151.19 33.7056C150.272 34.7077 149.286 35.6761 148.335 36.747C145.378 39.8236 143.135 42.1398 140.957 44.1468C120.75 63.1069 91.4446 72.5772 60.5982 70.0255C40.4915 68.3776 21.1313 61.7174 4.44695 51.1601L4.10985 51.8487C20.8982 62.5423 40.361 69.1674 60.5366 70.849C91.6233 73.433 121.133 63.8922 141.511 44.7593C143.688 42.7522 145.932 40.4361 148.889 37.3596C149.806 36.3575 150.793 35.3891 151.744 34.3181C160.511 24.9522 169.549 15.2068 181.283 11.9878C183.439 11.421 185.595 11.0257 187.994 10.834C192.448 10.4536 196.908 10.759 202.228 11.3999C214.068 12.6717 224.576 14.5719 234.268 17.2676C244.132 19.9618 254.52 23.8517 267.152 29.6085L268.838 30.3487C277.787 34.3879 287.011 38.5618 296.509 38.5161C305.08 38.4439 312.667 35.4997 320.294 29.1608C326.696 23.9294 332.056 16.9924 337.719 9.607C344.57 0.668688 351.727 -8.5465 360.833 -14.4179C361.856 -15.1123 363.016 -15.7392 364.074 -16.331C381.313 -25.3912 404.825 -22.5032 423.969 -8.94931C424.486 -8.61079 424.97 -8.20347 425.487 -7.86495C442.704 4.91659 454.418 23.7106 465.899 43.501C470.527 51.4854 474.721 56.8676 479.141 60.5677C487.187 67.3233 494.607 68.9066 500.27 69.5447C505.04 70.0874 510.145 69.5986 516.586 68.9957C518.813 68.8055 521.245 68.5451 523.815 68.352C526.214 68.1603 528.613 67.9687 530.977 67.8459C541.6 67.0707 551.675 66.3686 560.844 64.0283C566.9 62.4686 573.259 60.2892 579.751 57.4914C581.459 56.7913 582.996 56.0926 584.53 55.0511C586.065 54.0095 587.493 52.6602 588.683 51.4501C589.466 50.7234 590.179 49.963 590.893 49.2027L592.073 46.7926Z" fill="url(#paint14_linear_423_3672)"/>
</g>
<g opacity="0.33">
<path d="M596.32 38.1161C592.756 42.4321 588.917 46.6134 584.938 50.5557C583.782 51.697 582.456 53.0112 580.955 53.9839C579.524 54.9903 578.055 55.7227 576.416 56.4565C570.029 59.3905 563.911 61.7736 558.131 63.4682C547.185 66.6463 534.952 67.5723 521.999 68.4015C520.593 68.4819 519.326 68.6297 518.023 68.675C510.416 69.2191 504.385 69.6814 498.96 68.7327C491.027 67.3252 484.796 64.3603 478.751 59.0966C474.572 55.4287 470.515 50.1139 466.062 42.4709C454.649 22.7143 442.936 3.92021 425.443 -8.99617C424.926 -9.3347 424.442 -9.74205 423.925 -10.0806C404.574 -23.7356 380.755 -26.518 363.277 -17.3187C362.15 -16.7606 361.059 -16.1 359.967 -15.4394C350.725 -9.46398 343.501 -0.111016 336.616 8.89615C331.02 16.1438 325.797 22.9769 319.566 28.2068C312.144 34.4755 304.797 37.4518 296.364 37.5915C286.97 37.7735 277.815 33.6332 268.935 29.6277L267.317 28.9213C254.72 23.267 244.264 19.3435 234.434 16.5804C224.673 13.851 214.164 11.7794 202.322 10.3362C197.963 9.82428 192.952 9.24926 187.915 9.6003C185.448 9.75823 183.222 10.1199 180.998 10.6529C168.852 13.8412 159.644 23.7594 150.775 33.3319C149.925 34.1963 149.11 35.1633 148.261 36.0276C146.29 38.1358 143.672 40.8665 140.951 43.461C120.848 62.5574 91.6482 72.3354 60.771 70.1954C40.4606 68.7892 20.8967 62.3708 4.10981 51.8487L3.77271 52.5373C20.6973 63.1269 40.3301 69.5791 60.7431 70.9501C91.8606 73.1224 121.265 63.2739 141.539 44.0047C144.226 41.479 146.877 38.6794 148.848 36.5712C149.698 35.7069 150.513 34.7399 151.363 33.8755C160.197 24.3719 169.27 14.5577 181.21 11.4398C183.365 10.873 185.591 10.5114 187.956 10.3886C192.891 10.0727 197.902 10.6476 202.26 11.1595C214.102 12.6027 224.543 14.6406 234.303 17.37C244.133 20.1331 254.59 24.0567 267.118 29.6773L268.735 30.3837C277.684 34.4229 286.909 38.597 296.474 38.4135C305.045 38.3413 312.528 35.2609 320.189 28.853C326.453 23.5542 331.779 16.686 337.306 9.40469C344.191 0.397509 351.279 -8.85141 360.487 -14.758C361.51 -15.4523 362.67 -16.0792 363.728 -16.671C380.967 -25.7311 404.444 -22.9459 423.622 -9.46086C424.139 -9.12233 424.622 -8.71488 425.14 -8.37635C442.495 4.4726 454.173 23.164 465.551 42.8181C470.039 50.5636 474.131 55.981 478.379 59.6826C484.528 65.0826 490.828 68.0812 498.932 69.4873C504.426 70.4697 510.526 70.0411 518.167 69.4281C519.401 69.3492 520.737 69.235 522.142 69.1545C535.13 68.2565 547.431 67.3642 558.479 64.1509C564.294 62.3875 570.549 60.0719 576.97 57.069C578.54 56.3015 580.077 55.6027 581.612 54.5612C583.146 53.5196 584.472 52.2056 585.662 50.9955C588.927 47.8135 592.052 44.3926 595.04 40.9043L596.389 38.1499L596.32 38.1161Z" fill="url(#paint15_linear_423_3672)"/>
</g>
<g opacity="0.33">
<path d="M601.616 27.3065C600.971 28.1005 600.429 28.8595 599.784 29.6536C597.986 31.9317 596.121 34.3475 594.254 36.592C590.316 41.3226 586.172 45.9522 581.751 50.2754C580.595 51.4167 579.302 52.6619 577.871 53.6683C576.439 54.6747 575.04 55.4409 573.469 56.2084C567.221 59.3813 561.207 61.9007 555.6 63.7652C544.454 67.5279 532.051 68.6267 520.262 69.3432C511.111 69.9003 503.914 70.3039 497.559 68.8145C489.966 67.0612 483.663 63.7197 477.857 58.3168C473.849 54.6475 469.93 49.4001 465.581 41.8934C454.656 23.0584 442.594 3.58162 424.963 -9.40217C424.446 -9.7407 423.963 -10.1482 423.445 -10.4867C404.027 -24.004 380.277 -26.7527 362.868 -17.5197C361.741 -16.9616 360.65 -16.3009 359.627 -15.6066C350.351 -9.5623 343.196 -0.17567 336.244 8.96923C330.75 16.1817 325.561 22.9459 319.501 28.1745C312.114 34.5457 304.734 37.5909 296.369 37.7642C286.942 38.0151 277.786 33.8748 268.906 29.8694L267.358 29.1966C254.898 23.6098 244.442 19.6861 234.508 16.7868C224.712 13.9548 214.236 11.8144 202.427 10.1309C198.033 9.51646 192.987 8.83886 187.983 9.12104C185.516 9.27898 183.221 9.60692 181.066 10.1737C168.714 13.2608 159.438 23.3167 150.502 33.0269C149.755 33.8561 149.041 34.6165 148.294 35.4457C146.153 37.7268 143.672 40.3536 141.053 42.913C121.054 62.1456 91.891 72.1977 61.0854 70.4342C40.5714 69.2698 20.8374 63.0242 3.91424 52.606L3.57719 53.2945C20.6718 63.7112 40.4747 69.9906 61.0576 71.1887C92.1034 72.9845 121.54 62.8958 141.641 43.4566C144.259 40.8972 146.843 38.2352 148.881 35.9894C149.629 35.1601 150.342 34.3998 151.09 33.5706C159.992 23.9292 169.131 13.9773 181.278 10.9605C183.434 10.3937 185.626 10.101 188.059 10.0119C193.029 9.79861 198.04 10.3736 202.332 11.0232C214.072 12.673 224.548 14.8134 234.344 17.6453C244.209 20.511 254.665 24.4346 267.056 29.9878L268.604 30.6605C277.553 34.6997 286.811 38.8049 296.376 38.6214C304.913 38.4466 312.429 35.2974 319.952 28.8221C326.114 23.5584 331.337 16.7253 336.831 9.51284C343.749 0.43681 350.871 -8.88089 360.01 -14.8211C361.033 -15.5155 362.125 -16.1762 363.252 -16.7343C380.422 -25.8281 403.932 -23.1117 423.075 -9.72923C423.592 -9.3907 424.075 -8.98323 424.593 -8.64471C442.119 4.2028 454.215 23.6107 465.002 42.3783C469.387 49.9876 473.374 55.2687 477.451 58.9718C483.395 64.4421 489.767 67.8171 497.497 69.6378C503.922 71.161 511.221 70.7223 520.44 70.1989C532.298 69.5161 544.735 68.3484 556.053 64.5843C561.66 62.7198 567.707 60.1315 574.024 56.9923C575.526 56.191 577.063 55.4924 578.528 54.4171C579.96 53.4107 581.32 52.0277 582.476 50.8865C586.828 46.5295 591.041 41.9337 595.013 37.1342C596.743 34.9938 598.474 32.8533 600.136 30.6792L601.754 27.3739L601.616 27.3065Z" fill="url(#paint16_linear_423_3672)"/>
</g>
</g>
<defs>
<linearGradient id="paint0_linear_423_3672" x1="278.886" y1="41.3891" x2="26.6278" y2="69.2499" gradientUnits="userSpaceOnUse">
<stop stop-color="#FF71D7"/>
<stop offset="1" stop-color="#FF1074"/>
</linearGradient>
<linearGradient id="paint1_linear_423_3672" x1="278.093" y1="42.3193" x2="26.0155" y2="70.3048" gradientUnits="userSpaceOnUse">
<stop stop-color="#FF71D7"/>
<stop offset="1" stop-color="#FF1074"/>
</linearGradient>
<linearGradient id="paint2_linear_423_3672" x1="277.448" y1="43.351" x2="25.4108" y2="71.5367" gradientUnits="userSpaceOnUse">
<stop stop-color="#FF71D7"/>
<stop offset="1" stop-color="#FF1074"/>
</linearGradient>
<linearGradient id="paint3_linear_423_3672" x1="277.015" y1="44.4323" x2="25.07" y2="72.6329" gradientUnits="userSpaceOnUse">
<stop stop-color="#FF71D7"/>
<stop offset="1" stop-color="#FF1074"/>
</linearGradient>
<linearGradient id="paint4_linear_423_3672" x1="276.861" y1="45.4451" x2="24.9298" y2="73.6628" gradientUnits="userSpaceOnUse">
<stop stop-color="#FF71D7"/>
<stop offset="1" stop-color="#FF1074"/>
</linearGradient>
<linearGradient id="paint5_linear_423_3672" x1="276.08" y1="46.2526" x2="24.0234" y2="74.3644" gradientUnits="userSpaceOnUse">
<stop stop-color="#FF71D7"/>
<stop offset="1" stop-color="#FF1074"/>
</linearGradient>
<linearGradient id="paint6_linear_423_3672" x1="275.726" y1="46.9749" x2="23.5935" y2="74.9917" gradientUnits="userSpaceOnUse">
<stop stop-color="#FF71D7"/>
<stop offset="1" stop-color="#FF1074"/>
</linearGradient>
<linearGradient id="paint7_linear_423_3672" x1="275.331" y1="47.6747" x2="22.945" y2="75.4251" gradientUnits="userSpaceOnUse">
<stop stop-color="#FF71D7"/>
<stop offset="1" stop-color="#FF1074"/>
</linearGradient>
<linearGradient id="paint8_linear_423_3672" x1="275.237" y1="48.325" x2="22.6613" y2="75.687" gradientUnits="userSpaceOnUse">
<stop stop-color="#FF71D7"/>
<stop offset="1" stop-color="#FF1074"/>
</linearGradient>
<linearGradient id="paint9_linear_423_3672" x1="274.855" y1="48.7554" x2="21.8143" y2="75.6308" gradientUnits="userSpaceOnUse">
<stop stop-color="#FF71D7"/>
<stop offset="1" stop-color="#FF1074"/>
</linearGradient>
<linearGradient id="paint10_linear_423_3672" x1="274.805" y1="49.0376" x2="21.3365" y2="75.2641" gradientUnits="userSpaceOnUse">
<stop stop-color="#FF71D7"/>
<stop offset="1" stop-color="#FF1074"/>
</linearGradient>
<linearGradient id="paint11_linear_423_3672" x1="274.739" y1="49.172" x2="20.637" y2="74.5787" gradientUnits="userSpaceOnUse">
<stop stop-color="#FF71D7"/>
<stop offset="1" stop-color="#FF1074"/>
</linearGradient>
<linearGradient id="paint12_linear_423_3672" x1="274.8" y1="48.9577" x2="19.9489" y2="73.4327" gradientUnits="userSpaceOnUse">
<stop stop-color="#FF71D7"/>
<stop offset="1" stop-color="#FF1074"/>
</linearGradient>
<linearGradient id="paint13_linear_423_3672" x1="275.367" y1="48.0597" x2="19.2358" y2="70.7596" gradientUnits="userSpaceOnUse">
<stop stop-color="#FF71D7"/>
<stop offset="1" stop-color="#FF1074"/>
</linearGradient>
<linearGradient id="paint14_linear_423_3672" x1="276.67" y1="45.2264" x2="18.1805" y2="64.6115" gradientUnits="userSpaceOnUse">
<stop stop-color="#FF71D7"/>
<stop offset="1" stop-color="#FF1074"/>
</linearGradient>
<linearGradient id="paint15_linear_423_3672" x1="278.59" y1="41.385" x2="17.3094" y2="56.6472" gradientUnits="userSpaceOnUse">
<stop stop-color="#FF71D7"/>
<stop offset="1" stop-color="#FF1074"/>
</linearGradient>
<linearGradient id="paint16_linear_423_3672" x1="281.095" y1="36.5463" x2="16.8298" y2="46.9072" gradientUnits="userSpaceOnUse">
<stop stop-color="#FF71D7"/>
<stop offset="1" stop-color="#FF1074"/>
</linearGradient>
</defs>
</svg>
