<svg width="40" height="40" viewBox="0 0 40 40" fill="none" xmlns="http://www.w3.org/2000/svg">
<circle cx="20" cy="20" r="20" fill="url(#paint0_linear_342_2399)"/>
<path d="M20.4527 29.2585C19.0739 29.2585 17.8459 29.0215 16.7687 28.5476C15.6977 28.0675 14.8514 27.4089 14.2297 26.5717C13.6141 25.7285 13.2971 24.7559 13.2787 23.6541H17.3042C17.3289 24.1158 17.4797 24.522 17.7567 24.8729C18.0398 25.2176 18.4153 25.4853 18.8831 25.6761C19.3509 25.867 19.8772 25.9624 20.4619 25.9624C21.0713 25.9624 21.6099 25.8546 22.0777 25.6392C22.5455 25.4238 22.9117 25.1252 23.1764 24.7436C23.4411 24.362 23.5734 23.9219 23.5734 23.4233C23.5734 22.9186 23.4318 22.4723 23.1487 22.0845C22.8717 21.6906 22.4716 21.3828 21.9484 21.1612C21.4314 20.9396 20.8158 20.8288 20.1018 20.8288H18.3383V17.8928H20.1018C20.705 17.8928 21.2375 17.7881 21.6991 17.5788C22.1669 17.3696 22.5301 17.0803 22.7886 16.7109C23.0471 16.3355 23.1764 15.8984 23.1764 15.3999C23.1764 14.9259 23.0625 14.5104 22.8348 14.1534C22.6132 13.7902 22.2993 13.5071 21.893 13.304C21.4929 13.1009 21.0251 12.9993 20.4896 12.9993C19.9479 12.9993 19.4524 13.0978 19.0031 13.2947C18.5538 13.4856 18.1937 13.7595 17.9229 14.1165C17.652 14.4735 17.5074 14.892 17.4889 15.3722H13.6572C13.6757 14.2827 13.9865 13.3224 14.5898 12.4915C15.193 11.6605 16.0055 11.0111 17.0273 10.5433C18.0552 10.0694 19.2155 9.83239 20.5081 9.83239C21.813 9.83239 22.9548 10.0694 23.9335 10.5433C24.9122 11.0173 25.6724 11.6574 26.214 12.4638C26.7619 13.264 27.0327 14.1626 27.0265 15.1598C27.0327 16.2185 26.7034 17.1018 26.0386 17.8097C25.38 18.5175 24.5213 18.9669 23.4626 19.1577V19.3054C24.8537 19.4839 25.9124 19.9671 26.6388 20.755C27.3712 21.5367 27.7344 22.5154 27.7282 23.6911C27.7344 24.7682 27.4236 25.7254 26.7957 26.5625C26.174 27.3996 25.3154 28.0582 24.2197 28.5384C23.1241 29.0185 21.8684 29.2585 20.4527 29.2585Z" fill="white"/>
<defs>
<linearGradient id="paint0_linear_342_2399" x1="20" y1="0" x2="20" y2="40" gradientUnits="userSpaceOnUse">
<stop stop-color="#FF4910"/>
<stop offset="1" stop-color="#FF1074"/>
</linearGradient>
</defs>
</svg>
