<svg width="308" height="99" viewBox="0 0 308 99" fill="none" xmlns="http://www.w3.org/2000/svg">
<mask id="mask0_566_20837" style="mask-type:alpha" maskUnits="userSpaceOnUse" x="0" y="0" width="308" height="99">
<rect y="0.899109" width="308" height="97.2015" fill="#D9D9D9"/>
</mask>
<g mask="url(#mask0_566_20837)">
<g opacity="0.33">
<path d="M419.905 80.1364C406.176 80.8581 392.803 82.6486 380.808 85.5027C379.14 85.8963 377.443 86.3333 375.672 86.7843C366.864 89.0689 357.69 91.4233 347.991 88.8388C338.089 86.1795 330.763 79.544 324.879 73.3157C322.609 70.9449 320.441 68.5166 318.331 66.191C317.175 64.8959 316.033 63.6738 314.921 62.4083C303.82 50.279 293.784 43.137 283.434 39.919C271.483 36.2484 256.914 37.9259 242.372 44.7127C229.325 50.7978 216.97 54.5538 205.674 55.9107C199.858 56.6022 192.82 56.8447 184.107 53.4663C178.085 51.0905 172.312 47.0383 166.713 43.1044C165.306 42.0843 163.914 41.1375 162.477 40.161C153.15 33.7553 144.215 29.0174 135.326 25.7104C127.165 22.6437 118.44 20.5936 109.414 19.548C103.726 18.9269 97.8997 19.1659 91.5544 20.2613C82.9426 21.7886 75.9101 27.8264 69.0987 33.6325C68.1865 34.4125 67.2743 35.1925 66.3622 35.9724C53.2702 46.9911 35.5489 53.3986 17.6949 53.5426C12.3227 53.5813 7.18893 53.0821 2.29362 52.0449L1.96812 52.5236C6.98006 53.5765 12.2305 54.0914 17.7194 54.0684C35.6465 53.9104 53.514 47.475 66.7383 36.3553C67.6504 35.5754 68.5625 34.7955 69.4746 34.0155C76.213 28.2233 83.216 22.229 91.652 20.7731C97.9538 19.648 103.707 19.4231 109.321 20.0581C118.304 21.0741 126.986 23.0946 135.074 26.1753C143.963 29.4822 152.781 34.2045 162.108 40.6101C163.501 41.557 164.908 42.577 166.344 43.5535C171.943 47.4874 177.759 51.5693 183.825 53.9747C192.625 57.4122 199.736 57.1558 205.625 56.4503C216.965 55.123 229.349 51.3236 242.469 45.2245C256.879 38.5387 271.332 36.8455 283.123 40.4709C293.385 43.6297 303.334 50.7125 314.348 62.7827C315.446 63.9751 316.602 65.2702 317.758 66.5653C319.868 68.8909 322.036 71.3192 324.306 73.69C330.234 79.9479 337.647 86.6426 347.666 89.3176C357.524 91.9473 366.728 89.5494 375.653 87.2805C377.424 86.8295 379.121 86.3924 380.788 85.9989C392.682 83.2022 405.865 81.41 419.403 80.6866L419.818 80.0773L419.905 80.1364Z" fill="url(#paint0_linear_566_20837)"/>
</g>
<g opacity="0.33">
<path d="M420.024 79.9629C408.957 80.1395 396.155 81.7456 381.954 84.7547C380.17 85.1326 378.429 85.5401 376.542 85.9755C367.735 88.0703 358.679 90.2505 349.011 87.6225C339.138 84.9197 331.71 78.3416 325.736 72.2439C323.611 70.0349 321.528 67.8555 319.49 65.7057C318.16 64.2923 316.873 62.9084 315.557 61.5681C304.249 49.7434 294.079 42.8922 283.668 39.9509C271.744 36.6163 257.596 38.5166 242.702 45.4462C229.89 51.3729 217.42 54.9233 205.529 55.9391C199.714 56.4409 192.561 56.478 183.893 52.9395C177.931 50.4766 172.158 46.4244 166.632 42.4766C165.139 41.3973 163.659 40.3912 162.165 39.312C152.707 32.8177 143.729 28.0502 134.723 24.7276C126.445 21.6451 117.617 19.6525 108.473 18.781C102.872 18.2191 96.9867 18.545 90.4796 19.785C81.9548 21.3715 74.9518 27.3657 68.1403 33.1719C67.2578 33.9083 66.4188 34.6744 65.5362 35.4108C47.9427 50.2422 23.2215 55.9 2.5732 51.9167L2.30689 52.3084C7.14474 53.2428 12.235 53.7125 17.5201 53.6146C35.2296 53.3087 52.8638 46.842 65.8827 35.8373C66.7653 35.1009 67.6043 34.3348 68.4868 33.5984C75.1956 27.8496 82.169 21.899 90.5475 20.3403C97.0251 19.1439 102.838 18.8319 108.394 19.3642C117.466 20.2496 126.25 22.2126 134.485 25.2655C143.447 28.5585 152.425 33.326 161.81 39.8343C163.29 40.8404 164.783 41.9196 166.277 42.9988C171.846 46.9762 177.619 51.0285 183.625 53.5209C192.453 57.1047 199.65 57.0972 205.537 56.5815C217.459 55.5222 230.045 51.9874 242.886 46.0172C257.472 39.26 271.839 37.3179 283.487 40.5916C293.811 43.4737 303.865 50.3092 315.158 62.0607C316.431 63.3715 317.717 64.7554 319.048 66.1689C321.043 68.2891 323.139 70.5416 325.294 72.707C331.354 78.8639 338.841 85.5447 348.83 88.2631C358.615 90.9068 367.787 88.7423 376.624 86.6039C378.511 86.1685 380.252 85.7611 382.036 85.3832C396.091 82.4018 408.63 80.808 419.61 80.5722L420.024 79.9629Z" fill="url(#paint1_linear_566_20837)"/>
</g>
<g opacity="0.33">
<path d="M419.906 80.1376C409.148 80.1418 396.786 81.4745 383.114 84.0798C381.256 84.4716 379.399 84.8633 377.468 85.2691C368.707 87.2038 359.683 89.1507 350.087 86.5088C340.258 83.8355 332.683 77.2854 326.607 71.2451C324.596 69.2415 322.659 67.2241 320.735 65.2797C319.187 63.7183 317.727 62.216 316.266 60.7138C304.751 49.1937 294.476 42.5897 283.975 39.9688C272.237 37.0154 258.131 39.1351 243.091 46.0925C230.484 51.9043 217.826 55.2633 205.413 55.924C199.527 56.2499 192.332 56.0677 183.636 52.3829C177.703 49.8766 172.004 45.8104 166.478 41.8626C164.941 40.7538 163.36 39.6153 161.75 38.5205C152.19 31.8938 143.125 27.0672 133.973 23.7724C125.593 20.7475 116.692 18.7687 107.415 17.9982C101.799 17.5529 96.0298 17.8946 89.2737 19.2198C80.7628 20.8795 73.7895 26.8301 67.0512 32.6224C66.2417 33.3449 65.3887 34.0377 64.6089 34.7167C47.3531 49.3323 23.0984 55.0527 2.79652 51.4959L2.50059 51.9311C7.16435 52.7472 12.0509 53.142 17.1759 52.9989C34.8872 52.5032 51.8634 46.1619 64.9554 35.1432C65.7648 34.4207 66.5882 33.7714 67.3976 33.0488C74.1064 27.3001 81.0066 21.3634 89.3416 19.7752C96.0681 18.4934 101.823 18.0787 107.366 18.5378C116.57 19.3223 125.427 21.2714 133.765 24.2668C142.843 27.5754 151.865 32.3726 161.41 38.9261C162.977 39.9914 164.601 41.1594 166.138 42.2682C171.708 46.2457 177.451 50.3414 183.427 52.8773C192.327 56.6369 199.858 56.7931 205.481 56.4793C217.924 55.7751 230.668 52.4753 243.305 46.62C258.242 39.72 272.232 37.5847 283.81 40.4928C294.238 43.1277 304.426 49.6725 315.853 61.1333C317.3 62.5624 318.804 64.0943 320.279 65.6697C322.203 67.614 324.14 69.6315 326.151 71.6351C332.314 77.7345 339.933 84.3143 349.849 87.0467C359.561 89.7043 368.688 87.7 377.493 85.7949C379.453 85.3456 381.31 84.9537 383.138 84.6054C396.664 82.028 408.807 80.7372 419.478 80.6738L419.863 80.108L419.906 80.1376Z" fill="url(#paint2_linear_566_20837)"/>
</g>
<g opacity="0.33">
<path d="M419.847 80.2231C409.367 80.0985 397.475 81.1143 384.259 83.3296C382.315 83.6623 380.384 84.068 378.337 84.4581C369.65 86.1891 360.598 87.9898 351.076 85.334C341.276 82.6172 333.599 76.1244 327.39 70.1852C325.538 68.4166 323.715 66.6046 321.98 64.8517C320.244 63.0988 318.566 61.4485 316.901 59.8715C305.179 48.6561 294.844 42.3289 284.238 39.9552C272.759 37.3691 258.665 39.7516 243.449 46.7805C230.989 52.5644 218.159 55.6153 205.296 55.9069C199.748 56.017 192.219 55.6711 183.408 51.781C177.534 49.1875 171.864 45.0778 166.382 41.1596C164.758 39.9916 163.046 38.7645 161.393 37.64C151.746 30.9541 142.594 26.0682 133.326 22.7578C124.829 19.7172 115.795 17.8395 106.459 17.156C100.93 16.77 95.1018 17.1986 88.1403 18.6388C79.7166 20.3576 72.7432 26.3083 66.0344 32.057C65.2546 32.736 64.5043 33.3714 63.7245 34.0504C45.6888 49.345 22.3916 54.1252 3.16555 51.0453L2.78085 51.6111C7.27051 52.3089 11.9969 52.6584 16.9182 52.4405C34.4118 51.7969 51.1547 45.4242 64.0709 34.4769C64.8508 33.7979 65.601 33.1625 66.3809 32.4835C73.0601 26.7783 79.9307 20.8851 88.2082 19.1941C95.1401 17.7975 100.881 17.3096 106.381 17.7392C115.673 18.3931 124.634 20.2847 133.087 23.2958C142.269 26.547 151.421 31.4329 161.024 38.0892C162.721 39.2432 164.389 40.4407 166.013 41.6087C171.539 45.5565 177.209 49.6663 183.126 52.2893C192.024 56.2386 199.626 56.5705 205.247 56.4465C218.183 56.1409 231.043 53.0466 243.576 47.2487C258.69 40.2774 272.637 37.9228 284.029 40.4496C294.548 42.7642 304.84 49.0618 316.475 60.218C318.139 61.795 319.774 63.4157 321.553 65.1981C323.289 66.951 325.112 68.7631 327.007 70.5612C333.273 76.6032 340.994 83.1256 350.91 85.858C360.55 88.5295 369.602 86.7288 378.405 85.0135C380.452 84.6234 382.383 84.2176 384.327 83.885C397.354 81.668 409.055 80.6504 419.462 80.7889L419.847 80.2231Z" fill="url(#paint3_linear_566_20837)"/>
</g>
<g opacity="0.33">
<path d="M419.519 80.7016C409.581 80.4359 397.827 80.7815 385.417 82.6538C383.385 82.9273 381.381 83.347 379.218 83.7214C370.576 85.2923 361.599 86.8892 352.12 84.263C342.394 81.5323 334.902 75.4208 328.259 69.1856C326.595 67.6085 324.93 66.0314 323.309 64.484C321.312 62.5535 319.417 60.7554 317.578 59.0599C305.722 48.1353 295.209 42.0692 284.47 39.9862C273.06 37.7657 259.374 40.2979 243.776 47.513C231.419 53.2395 218.401 56.0989 205.162 56.0075C199.542 55.9418 191.971 55.3766 183.133 51.3402C177.318 48.6597 171.692 44.5797 166.239 40.6179C164.528 39.3907 162.729 38.1044 160.975 36.8477C151.227 30.0295 141.958 25.1279 132.617 21.8315C124.003 18.7752 114.867 16.9549 105.442 16.402C99.8836 16.0595 94.1859 16.5769 86.9459 18.1459C78.5656 19.8943 71.6654 25.831 64.9566 31.5797C64.2064 32.2152 63.4857 32.8071 62.779 33.4722C45.1402 48.4638 22.2642 53.4668 3.41428 50.7699L3.02958 51.3357C7.35908 51.9882 11.8974 52.1463 16.5994 51.9702C33.8319 51.149 50.3415 44.745 63.1255 33.8987C63.8461 33.3067 64.5964 32.6713 65.3031 32.0062C71.9092 26.315 78.7797 20.4218 87.0138 18.7012C94.1946 17.2193 99.8489 16.6722 105.364 16.9852C114.789 17.5381 123.852 19.3723 132.422 22.399C141.72 25.6659 150.945 30.5379 160.649 37.3264C162.433 38.5396 164.159 39.8399 165.914 41.0967C171.366 45.0584 177.036 49.1681 182.924 51.8346C191.893 55.9598 199.537 56.5111 205.186 56.5333C218.542 56.6403 231.56 53.7809 244.064 48.0265C259.558 40.8688 273.171 38.3506 284.464 40.5555C295.087 42.6228 305.513 48.6297 317.282 59.4952C319.164 61.2202 321.017 62.9887 323.013 64.9191C324.634 66.4666 326.299 68.0437 327.963 69.6208C334.65 75.8856 342.228 82.0563 352.071 84.8027C361.637 87.4881 370.688 85.8772 379.402 84.2924C381.523 83.8884 383.54 83.5418 385.572 83.2684C397.836 81.424 409.357 81.0471 419.222 81.3266L419.607 80.7608L419.519 80.7016Z" fill="url(#paint4_linear_566_20837)"/>
</g>
<g opacity="0.33">
<path d="M419.552 80.6594C408.316 80.1484 397.029 80.5566 386.565 81.9065C384.46 82.1939 382.355 82.4812 380.118 82.8696C371.479 84.2507 362.547 85.6876 353.17 83.0039C343.474 80.2297 335.88 74.1756 329.104 68.0414C327.598 66.6993 326.122 65.3137 324.689 63.9576C322.474 61.8792 320.317 59.9036 318.232 58.1037C306.169 47.4837 295.521 41.7084 284.721 39.9022C273.411 38.0037 260.132 40.6856 244.08 48.101C230.711 54.2854 217.169 56.9794 204.99 55.8905C198.864 55.353 191.265 54.6416 182.82 50.6818C177.079 47.9874 171.482 43.8637 166.073 39.9316C164.231 38.6157 162.375 37.2266 160.533 35.9107C150.699 29.0333 141.343 24.0726 131.885 20.7605C123.198 17.7181 114.003 15.9849 104.475 15.4894C104.431 15.4598 104.402 15.5034 104.358 15.4738C98.8573 15.234 93.1004 15.8384 85.7141 17.4353C77.3913 19.2864 70.5207 25.1796 63.8415 30.8848C63.1939 31.4628 62.4733 32.0548 61.8258 32.6328C44.5108 47.3354 22.1588 52.5037 3.65527 50.2332L3.27058 50.7991C7.42599 51.3332 11.7746 51.4895 16.3025 51.195C33.2738 50.1963 49.6233 43.7471 62.2018 33.0157C62.8493 32.4377 63.57 31.8458 64.2176 31.2678C70.8236 25.5765 77.6647 19.7268 85.8413 17.9036C93.184 16.2771 98.9409 15.6726 104.369 15.9264C104.412 15.956 104.442 15.9125 104.485 15.9421C113.926 16.3784 123.092 18.155 131.735 21.1678C141.15 24.4503 150.462 29.3815 160.253 36.2292C162.095 37.5452 163.98 38.8907 165.822 40.2066C171.275 44.1684 176.872 48.292 182.657 51.016C191.189 55.035 198.861 55.7325 205.03 56.2996C217.326 57.4041 230.941 54.6961 244.413 48.4543C260.362 41.0964 273.567 38.4285 284.718 40.2817C295.401 42.0722 305.962 47.7884 317.938 58.3492C320.037 60.2222 322.151 62.1683 324.395 64.2031C325.827 65.5592 327.333 66.9012 328.81 68.2868C335.629 74.4506 343.31 80.5639 353.123 83.3538C362.66 86.0827 371.622 84.6024 380.334 83.2073C382.542 82.8625 384.632 82.502 386.737 82.2146C397.055 80.8925 408.226 80.4688 419.271 80.978L419.508 80.6298L419.552 80.6594Z" fill="url(#paint5_linear_566_20837)"/>
</g>
<g opacity="0.33">
<path d="M419.611 80.5717C408.8 79.904 397.923 80.0824 387.753 81.1868C385.562 81.415 383.384 81.7164 381.103 82.0751C372.509 83.2961 363.622 84.5727 354.275 81.8455C344.622 79.1009 336.882 73.0747 330.004 66.9979C328.686 65.8473 327.411 64.7264 326.167 63.5618C323.618 61.3198 321.243 59.1962 318.94 57.2483C306.844 47.0514 295.758 41.3596 285.057 39.8755C274.049 38.3739 260.812 41.2751 244.512 48.7758C231.172 54.9167 217.472 57.3757 204.946 55.8603C198.779 55.1035 191.065 54.1866 182.665 50.0667C176.983 47.2852 171.429 43.1912 166.05 39.2155C164.15 37.7969 162.178 36.3921 160.206 34.9874C150.27 27.9778 140.798 23.0014 131.267 19.7032C122.463 16.6452 113.092 14.9834 103.475 14.6185C96.573 14.3805 90.0659 15.6204 84.6537 16.8412C76.3744 18.7219 69.5473 24.6447 62.8977 30.3064C62.2798 30.8408 61.6618 31.3753 61.0142 31.9533C44.0665 46.3964 22.2386 51.7303 3.99449 49.8271L3.58022 50.4364C7.56154 50.8522 11.7065 50.9337 16.0446 50.6374C32.7983 49.4908 48.8709 42.9807 61.3607 32.3798C61.9786 31.8453 62.5966 31.3108 63.2441 30.7328C69.8206 25.0851 76.6181 19.2058 84.7512 17.353C90.1633 16.1322 96.5975 14.9062 103.427 15.1582C113.043 15.523 122.341 17.1989 131.101 20.2273C140.589 23.4959 150.018 28.4426 159.91 35.4227C161.839 36.7978 163.855 38.2321 165.754 39.6507C171.133 43.6264 176.687 47.7204 182.486 50.5176C190.973 54.6967 198.76 55.5997 204.971 56.3861C217.613 57.9171 231.386 55.4441 244.829 49.2458C261.027 41.8025 274.22 38.8718 285.081 40.4012C295.709 41.8993 306.708 47.5319 318.674 57.64C321.02 59.6175 323.395 61.7411 325.9 63.9535C327.175 65.0745 328.449 66.1955 329.737 67.3896C336.659 73.496 344.443 79.5518 354.183 82.3556C363.647 85.0985 372.607 83.8078 381.231 82.5434C383.555 82.2142 385.689 81.8833 387.88 81.6551C397.977 80.5646 408.664 80.3845 419.315 81.007L419.611 80.5717V80.5717Z" fill="url(#paint6_linear_566_20837)"/>
</g>
<g opacity="0.33">
<path d="M419.727 80.3964C409.341 79.572 398.846 79.5641 388.897 80.437C386.662 80.6356 384.367 80.9213 382 81.2209C373.451 82.2816 364.609 83.3981 355.306 80.7005C345.682 77.9123 337.883 71.9732 330.829 65.9678C329.786 65.0678 328.743 64.1679 327.744 63.2976C324.89 60.8485 322.211 58.5176 319.573 56.4062C307.3 46.4704 296.08 41.0694 285.288 39.9056C274.497 38.7417 261.623 41.763 244.839 49.5074C232.335 55.2618 219.251 57.3761 204.769 55.9305C199.052 55.3529 191.355 54.1297 182.346 49.5955C176.723 46.727 171.213 42.6625 165.877 38.7164C163.891 37.2386 161.817 35.7016 159.758 34.2377C149.735 27.1689 140.176 22.1333 130.499 18.8629C121.549 15.8328 112.105 14.1849 102.356 13.921C95.5405 13.7422 88.901 15.0831 83.3566 16.4048C75.1643 18.3447 68.3233 24.1943 61.7172 29.8856C61.1288 30.3766 60.5405 30.8675 59.9956 31.3881C47.7409 41.8305 32.0042 48.3145 15.6283 49.6544C11.6697 49.9541 7.84505 49.963 4.15446 49.6813L3.79934 50.2036C7.60656 50.501 11.5913 50.5372 15.6962 50.2097C32.1888 48.8855 48.0717 42.3736 60.3856 31.8441C60.974 31.3532 61.5623 30.8622 62.1072 30.3417C68.6836 24.6939 75.422 18.9017 83.4976 16.9462C89.0421 15.6245 95.5788 14.341 102.351 14.4903C112.056 14.7246 121.456 16.3429 130.333 19.387C139.967 22.6277 149.483 27.6337 159.432 34.7165C161.492 36.1804 163.565 37.7173 165.552 39.1951C170.888 43.1412 176.441 47.2353 182.064 50.1038C191.161 54.6972 198.9 55.9501 204.69 56.5137C219.246 57.9454 232.476 55.8032 245.053 50.0349C261.735 42.3479 274.565 39.297 285.21 40.4887C295.928 41.6665 307.061 47.0083 319.248 56.8849C321.885 58.9964 324.565 61.3272 327.418 63.7764C328.461 64.6763 329.46 65.5466 330.503 66.4465C337.601 72.4815 345.487 78.4799 355.154 81.2976C364.574 84.0109 373.459 82.924 382.082 81.8492C384.449 81.5497 386.744 81.264 388.979 81.0654C398.781 80.2204 409.117 80.1831 419.386 80.9919L419.771 80.426L419.727 80.3964Z" fill="url(#paint7_linear_566_20837)"/>
</g>
<g opacity="0.33">
<path d="M419.845 80.2223C409.855 79.2847 399.711 79.134 390.056 79.7614C387.734 79.9009 385.396 80.157 382.912 80.4409C374.408 81.3415 365.568 82.2682 356.338 79.5567C346.307 76.6189 338.349 70.4447 331.655 64.9389L329.265 62.9319C326.107 60.2756 323.093 57.7812 320.165 55.5357C307.714 45.8611 296.36 40.7508 285.434 39.8777C274.888 39.008 262.422 42.179 245.037 50.1515C232.533 55.9059 219.247 57.7556 204.462 55.9131C198.717 55.1893 190.979 53.7467 181.928 48.9932C176.378 46.1107 170.898 42.0028 165.605 38.0863C163.489 36.5197 161.328 34.9234 159.138 33.3708C149.014 26.1697 139.368 21.0749 129.588 17.862C120.565 14.8458 110.975 13.2258 101.107 13.136C94.3791 13.0164 87.8998 14.4025 81.9602 15.8374C73.7819 17.8504 67.014 23.6861 60.4079 29.3774L58.8482 30.7353C46.7693 41.1064 31.2223 47.5921 15.064 49.0799C11.3387 49.4109 7.67418 49.4652 4.18728 49.2583L3.8322 49.7805C7.47926 50.0327 11.2604 49.9942 15.132 49.6353C31.3634 48.1335 47.0426 41.5468 59.1947 31.1618L60.7544 29.8039C67.2578 24.1701 74.0257 18.3343 82.0717 16.4223C88.0113 14.9875 94.4175 13.6152 101.102 13.7052C110.896 13.809 120.443 15.3994 129.393 18.4296C139.1 21.6564 148.703 26.7215 158.783 33.893C160.929 35.4161 163.133 37.0419 165.207 38.5789C170.47 42.5389 175.98 46.6034 181.573 49.5154C190.741 54.2846 198.522 55.7568 204.267 56.4806C219.139 58.3823 232.528 56.4751 245.105 50.7069C262.388 42.7918 274.737 39.6051 285.21 40.4887C295.989 41.3897 307.256 46.4408 319.62 56.0563C322.548 58.3017 325.532 60.8397 328.676 63.4228L331.067 65.4299C337.775 71.0088 345.776 77.2125 355.924 80.166C365.27 82.8932 374.11 81.9665 382.687 81.0519C385.142 80.8115 387.48 80.5555 389.832 80.3725C399.37 79.7295 409.367 79.908 419.271 80.7864L419.715 80.1335L419.845 80.2223Z" fill="url(#paint8_linear_566_20837)"/>
</g>
<g opacity="0.33">
<path d="M420.022 79.962C410.383 78.8816 400.591 78.5882 391.245 79.0432C388.806 79.167 386.424 79.3934 383.853 79.6182C375.394 80.3586 366.6 81.1253 357.443 78.3998C347.485 75.448 339.395 69.3748 332.628 63.883L331.063 62.6279C327.527 59.7784 324.209 57.0769 320.946 54.6678C307.795 44.8992 296.598 40.2136 285.843 39.8384C275.248 39.5084 262.824 42.8987 245.542 50.8138C232.965 56.5821 219.564 58.2264 204.491 55.8704C195.935 54.5079 188.949 52.2401 181.816 48.409C176.326 45.4396 170.932 41.3908 165.713 37.4604C163.509 35.8346 161.204 34.0765 158.97 32.4943C148.789 25.1904 139.027 20.08 129.13 16.8515C119.99 13.8196 110.311 12.3301 100.341 12.2978C94.0497 12.2843 88.0979 13.4563 81.0163 15.2603C72.925 17.3325 66.1571 23.1682 59.5806 28.816L58.1532 30.073C46.2362 40.2995 30.893 46.86 14.9958 48.5254C11.4306 48.9017 7.99936 48.9873 4.71613 48.8552L4.36105 49.3775C7.80444 49.5548 11.3818 49.4414 15.0932 49.0372C31.1071 47.3875 46.553 40.7695 58.5728 30.4856L60.0002 29.2285C66.5035 23.5947 73.2123 17.846 81.2305 15.7878C88.239 13.9977 94.1908 12.8257 100.409 12.8531C110.335 12.8559 119.912 14.4028 129.008 17.4051C138.832 20.6476 148.551 25.7284 158.688 33.0026C160.966 34.6144 163.227 36.3429 165.431 37.9687C170.65 41.8991 176.087 45.9775 181.622 48.9766C188.798 52.8372 195.827 55.1346 204.457 56.4832C219.646 58.8548 233.193 57.1827 245.843 51.4005C263.052 43.4993 275.403 40.1229 285.925 40.4669C286.115 40.4686 286.348 40.4999 286.567 40.4581C297.044 40.9622 307.935 45.6303 320.694 55.1326C323.956 57.5417 327.275 60.2433 330.767 63.0632L332.332 64.3182C339.143 69.8397 347.32 75.972 357.351 78.9098C366.624 81.6509 375.462 80.914 383.994 80.1596C386.565 79.9348 388.947 79.7084 391.356 79.6281C400.629 79.187 410.276 79.5084 419.784 80.5L420.11 80.0212L420.022 79.962Z" fill="url(#paint9_linear_566_20837)"/>
</g>
<g opacity="0.33">
<path d="M420.081 79.8749C410.851 78.7544 401.44 78.2747 392.358 78.5278C389.876 78.6219 387.364 78.7596 384.749 78.9547C376.306 79.5786 367.586 80.1415 358.429 77.4161C348.545 74.4504 340.308 68.4051 333.409 63.0142L332.742 62.4972C328.829 59.4545 325.133 56.5597 321.536 53.987C308.7 44.8781 297.108 40.3058 286.031 40.0298C274.458 39.7347 261.569 44.4637 245.825 51.7067C233.248 57.475 219.616 58.8983 204.27 56.1018C195.672 54.52 188.644 52.0329 181.454 48.0991C176.036 45.1157 170.716 41.053 165.54 37.1521C163.235 35.3941 160.843 33.5768 158.479 31.9058C148.211 24.5428 138.361 19.3732 128.348 16.129C120.794 13.6662 112.91 12.2515 104.797 11.8273C102.959 11.723 101.105 11.7353 99.251 11.7476C92.3312 11.816 85.8501 13.3919 79.7921 15.0009C71.7444 17.1026 64.9765 22.9384 58.4731 28.5722L57.2076 29.6847C45.4229 39.8102 30.3129 46.4022 14.6333 48.2155C11.2579 48.5935 7.95728 48.7678 4.83421 48.681L4.47913 49.2032C7.79195 49.2918 11.2092 49.1331 14.7309 48.7273C30.4835 46.9 45.6962 40.2507 57.5837 30.0677L58.8492 28.9552C65.3229 23.3649 72.0177 17.5431 79.9627 15.4988C85.9911 13.9334 92.4722 12.3574 99.3189 12.3029C109.334 12.1751 119.057 13.6942 128.226 16.6826C138.152 19.8676 147.959 25.0076 158.227 32.3706C160.591 34.0416 162.983 35.8588 165.288 37.6169C170.464 41.5178 175.828 45.6101 181.289 48.6231C188.493 52.63 195.594 55.1032 204.235 56.7146C219.668 59.5702 233.373 58.1331 246.126 52.2934C261.811 45.1374 274.583 40.3927 286.113 40.6582C297.073 40.9186 308.549 45.4753 321.298 54.525C324.894 57.0977 328.547 59.9628 332.46 63.0055L333.127 63.5225C340.114 68.9726 348.393 75.0474 358.351 77.9992C367.595 80.7838 376.374 80.1339 384.861 79.5397C387.475 79.3445 389.988 79.2068 392.47 79.1126C401.435 78.8439 410.686 79.2785 419.843 80.4129L420.168 79.9341L420.081 79.8749Z" fill="url(#paint10_linear_566_20837)"/>
</g>
<g opacity="0.33">
<path d="M419.194 81.1808C416.875 80.9408 414.556 80.7007 412.208 80.5042C406.068 79.8936 399.709 79.3248 393.556 78.4514C389.314 77.858 384.889 78.0951 380.274 78.3305C373.556 78.6634 366.619 79.0382 359.5 76.8714C349.689 73.8918 341.668 68.1842 334.275 62.5844C330.505 59.7036 326.214 56.4677 322.21 53.7453C309.197 44.8976 297.47 40.6159 286.332 40.6167C274.099 40.6368 260.955 46.2101 246.179 52.9656C233.499 58.7914 219.752 60.0092 204.148 56.6557C195.509 54.8546 188.439 52.1481 181.221 48.0681C175.906 45.0272 170.6 41.0376 165.497 37.1228C163.061 35.276 160.539 33.37 158.074 31.5666C147.705 24.0713 137.738 18.8861 127.652 15.6558C120.302 13.2679 112.621 11.928 104.742 11.5352C102.597 11.4135 100.437 11.4084 98.2467 11.4468C91.414 11.5744 84.8007 13.2513 78.64 14.9177C70.6062 17.0926 63.9113 22.9145 57.408 28.5483L56.3043 29.5162C40.6499 42.9932 21.2105 48.9325 4.74568 48.8119L4.39055 49.3342C21.1026 49.5593 40.8049 43.6077 56.6508 29.9427L57.7544 28.9747C64.2282 23.3844 70.8934 17.6061 78.781 15.4591C84.9417 13.7927 91.5254 12.1593 98.3147 12.0022C108.432 11.8169 118.244 13.2054 127.53 16.2094C137.573 19.4101 147.466 24.6093 157.821 32.0315C160.316 33.7913 162.809 35.7408 165.245 37.5876C170.347 41.5024 175.668 45.5652 181.056 48.5921C188.317 52.7017 195.416 55.3646 204.143 57.225C219.893 60.5506 233.757 59.3484 246.51 53.5088C261.183 46.8107 274.327 41.2374 286.444 41.2017C297.465 41.1852 309.148 45.4372 322.031 54.1961C325.991 56.8889 330.283 60.1249 334.052 63.0057C341.489 68.635 349.596 74.4018 359.452 77.411C366.687 79.5935 373.624 79.2187 380.415 78.8718C385.03 78.6365 389.382 78.4133 393.624 79.0066C399.85 79.8662 406.179 80.4785 412.349 81.0456C414.624 81.256 416.826 81.4804 419.028 81.7048L419.324 81.2696L419.194 81.1808Z" fill="url(#paint11_linear_566_20837)"/>
</g>
<g opacity="0.33">
<path d="M419.05 81.3999C417.111 81.1633 415.098 80.9406 413.159 80.704C407.078 80.0063 400.837 79.2635 394.715 78.3465C390.385 77.694 385.903 77.8284 381.201 78.0046C374.542 78.2505 367.62 78.5086 360.545 76.3714C350.851 73.4075 342.684 67.7276 335.114 62.1993C331.142 59.2436 326.878 56.154 322.858 53.5483C309.667 44.9617 297.763 40.9412 286.578 41.2919C274.255 41.6322 260.813 47.8306 246.521 54.3423C233.768 60.182 219.862 61.1648 203.986 57.3709C195.333 55.3069 188.206 52.4977 180.917 48.2418C175.632 45.1575 170.442 41.1835 165.383 37.2983C162.846 35.3192 160.237 33.354 157.641 31.4619C147.185 23.9074 137.131 18.663 126.928 15.4171C119.752 13.1475 112.261 11.8094 104.615 11.4478C102.164 11.3087 99.6975 11.2863 97.215 11.3805C90.4693 11.5672 83.9726 13.2597 77.4307 15.1125C69.4839 17.3465 62.7891 23.1683 56.3154 28.7586L55.344 29.6256C40.0274 42.8867 20.8786 48.9601 4.61576 49.104L4.26064 49.6263C20.6976 49.6008 40.1389 43.4716 55.6905 30.0521L56.6618 29.1852C63.106 23.6384 69.7277 17.8305 77.5717 15.6539C84.1137 13.8012 90.5808 12.1521 97.2099 11.9497C107.416 11.6339 117.331 12.9649 126.763 15.9411C136.922 19.1574 146.889 24.3427 157.345 31.8971C159.941 33.7892 162.594 35.784 165.087 37.7336C170.146 41.6188 175.379 45.6223 180.665 48.7067C187.997 52.9921 195.125 55.8013 203.864 57.9245C219.857 61.734 233.879 60.7669 246.735 54.8698C260.954 48.3719 274.366 42.2171 286.573 41.8611C297.685 41.5243 309.472 45.5292 322.576 54.0566C326.596 56.6623 330.816 59.7224 334.789 62.678C342.372 68.2795 350.612 73.9454 360.394 76.9685C367.556 79.1649 374.478 78.9068 381.253 78.6765C385.955 78.5003 390.394 78.3364 394.65 79.0028C400.816 79.9494 407.057 80.6923 413.138 81.3899C415.034 81.5969 416.9 81.8475 418.752 82.0249L419.137 81.4591L419.05 81.3999Z" fill="url(#paint12_linear_566_20837)"/>
</g>
<g opacity="0.33">
<path d="M418.898 81.6151C417.265 81.3959 415.632 81.1767 413.999 80.9574C408.051 80.1588 401.869 79.3289 395.762 78.2953C391.375 77.5401 386.849 77.6448 382.017 77.7322C375.374 77.8615 368.468 78.003 361.466 75.8519C351.844 72.874 343.85 67.5024 335.859 61.7512C331.16 58.3656 327.273 55.6589 323.411 53.2882C310.043 44.9627 298.005 41.233 286.686 41.8744C275.294 42.5298 263.201 48.0543 249.231 54.4668L246.724 55.6263C233.898 61.48 219.804 62.2713 203.714 57.95C195.02 55.6666 187.851 52.6381 180.534 48.236C175.321 45.1377 170.205 41.1498 165.233 37.3238C162.566 35.2559 159.855 33.1584 157.129 31.1775C146.572 23.4907 136.401 18.2306 126.125 14.9986C119.153 12.8039 111.822 11.5111 104.366 11.1513C101.652 11.0244 98.8493 11.0281 96.104 11.1344C89.4158 11.4239 83.1088 13.1181 76.1421 15.1276C68.2389 17.3912 61.5441 23.2131 55.1434 28.7894L54.334 29.5119C39.2819 42.571 20.4239 48.7784 4.47965 49.2026L4.12453 49.7249C20.316 49.4052 39.4369 43.1855 54.6805 29.9384L55.4899 29.2159C61.8906 23.6396 68.5262 17.9048 76.2832 15.669C83.2203 13.7031 89.4837 11.9792 96.0988 11.7037C106.394 11.2573 116.455 12.5605 125.96 15.5227C136.193 18.7251 146.319 23.9556 156.833 31.6127C159.559 33.5936 162.313 35.7208 164.937 37.7591C169.952 41.6147 175.069 45.6026 180.325 48.7305C187.685 53.1621 194.884 56.1471 203.621 58.46C219.829 62.797 234.039 62.0214 246.998 56.0668L249.504 54.9072C263.445 48.5382 275.465 43.0276 286.74 42.3566C297.942 41.6995 309.834 45.4571 323.145 53.6798C326.963 56.021 330.894 58.7573 335.549 62.1133C343.613 67.8505 351.621 73.2953 361.316 76.2592C368.405 78.4696 375.341 78.2846 382.057 78.1413C386.846 78.0243 391.342 77.9631 395.686 78.6887C401.719 79.7363 407.945 80.5958 413.923 81.3509C415.483 81.584 417.029 81.7441 418.545 81.9476L418.811 81.556L418.898 81.6151Z" fill="url(#paint13_linear_566_20837)"/>
</g>
<g opacity="0.33">
<path d="M418.812 81.7474C417.486 81.5456 416.203 81.3734 414.876 81.1715C408.987 80.2859 402.894 79.3253 396.919 78.1907C392.475 77.3328 387.862 77.3784 382.942 77.4066C376.315 77.4193 369.468 77.4737 362.466 75.3226C352.961 72.3603 345.169 67.2534 336.654 61.3369C332.81 58.6598 328.327 55.6118 324.015 53.0618C310.599 45.0862 298.107 41.5567 286.917 42.4767C276.326 43.3583 265.331 48.4842 252.548 54.3674C250.775 55.1979 248.928 56.0422 247.008 56.9006C234.079 62.8117 219.827 63.3681 203.492 58.5628C194.786 56.0166 187.589 52.8418 180.171 48.3074C175.062 45.1517 169.988 41.1934 165.06 37.397C162.262 35.2403 159.451 33.0104 156.594 30.9408C145.95 23.1948 135.722 17.832 125.299 14.6279C118.458 12.522 111.36 11.2604 104.064 10.9459C101.044 10.8016 97.9784 10.8175 94.9407 10.9796C88.2959 11.2986 82.1491 13.0382 74.8308 15.1904C66.985 17.5568 60.3198 23.3351 53.9191 28.9114L53.2716 29.4894C38.4841 42.3465 19.9899 48.674 4.24761 49.3628L3.86291 49.9286C19.8089 49.3147 38.5956 42.9314 53.6181 29.9159L54.2656 29.3379C60.6662 23.7615 67.2288 18.0407 74.9719 15.7318C82.2902 13.5796 88.4074 11.8835 94.9651 11.5053C105.393 10.9579 115.512 12.1741 125.134 15.1519C135.513 18.3265 145.697 23.6597 156.298 31.3761C159.155 33.4457 162.01 35.7051 164.764 37.8322C169.663 41.6722 174.736 45.6304 179.919 48.7723C187.38 53.3362 194.577 56.511 203.327 59.0868C219.778 63.9077 234.147 63.367 247.178 57.3985C249.055 56.5105 250.902 55.6661 252.719 54.8652C265.429 48.996 276.394 43.9136 286.868 43.0163C297.942 42.0807 310.361 45.6242 323.646 53.511C327.958 56.061 332.441 59.1089 336.241 61.7564C344.452 67.4658 352.636 72.8391 362.214 75.7874C369.259 77.9682 376.15 77.9434 382.85 77.9168C387.696 77.9025 392.31 77.8569 396.711 78.6852C402.685 79.8198 408.808 80.7368 414.697 81.6225C415.907 81.8086 417.16 82.0244 418.4 82.167L418.725 81.6883L418.812 81.7474Z" fill="url(#paint14_linear_566_20837)"/>
</g>
<g opacity="0.33">
<path d="M418.751 81.8338C417.731 81.6493 416.754 81.4944 415.734 81.31C409.904 80.3373 403.914 79.3193 398.072 78.0838C393.57 77.1232 388.869 77.1096 383.892 77.0351C377.324 76.9607 370.493 76.8985 363.565 74.7334C353.448 71.5467 344.627 65.6128 337.547 60.8626C333.978 58.4361 329.262 55.3569 324.716 52.7756C311.123 45.0612 298.497 41.8224 287.216 43.0627C277.309 44.1549 267.194 48.9237 255.509 54.4082C252.9 55.6252 250.217 56.8562 247.432 58.1447C234.357 64.0836 219.99 64.4344 203.441 59.1017C194.81 56.3518 187.368 52.8829 180.009 48.2615C174.973 45.0918 169.987 41.1927 165.175 37.412C162.276 35.123 159.29 32.7747 156.303 30.6163C145.558 22.7381 135.213 17.3596 124.688 14.213C118.007 12.1523 111.04 10.9795 103.963 10.6232C100.68 10.4911 97.381 10.4756 94.0508 10.6935C86.9378 11.1396 80.2479 13.21 73.7635 15.1654C65.9612 17.5613 59.2959 23.3397 52.8953 28.9161L52.4097 29.3495C37.8868 42.0047 19.7129 48.4228 4.25959 49.4353L3.87494 50.001C19.5755 49.0929 38.0417 42.6192 52.7561 29.776L53.2417 29.3425C59.6128 23.8097 66.205 18.0453 73.9045 15.7068C80.3455 13.7218 87.0058 11.695 94.0457 11.2627C104.532 10.6283 114.828 11.773 124.523 14.737C134.975 17.8976 145.276 23.2464 155.977 31.0951C158.965 33.2535 161.95 35.6018 164.849 37.8907C169.705 41.7011 174.691 45.6002 179.727 48.7699C187.129 53.4209 194.601 56.8463 203.276 59.6258C219.971 64.9307 234.498 64.6249 247.676 58.6285C250.461 57.3401 253.144 56.1092 255.753 54.8921C267.437 49.4077 277.523 44.6823 287.314 43.5745C298.478 42.3185 310.987 45.5416 324.493 53.1968C329.039 55.7782 333.712 58.8278 337.28 61.2543C344.404 66.0341 353.226 71.968 363.429 75.2139C370.444 77.4382 377.276 77.5004 383.917 77.5608C388.85 77.6057 393.521 77.6628 397.979 78.5939C403.851 79.7859 409.885 80.8335 415.642 81.8201C416.546 81.9889 417.522 82.1438 418.426 82.3126L418.751 81.8338Z" fill="url(#paint15_linear_566_20837)"/>
</g>
<g opacity="0.33">
<path d="M418.724 81.8792C417.981 81.7556 417.267 81.5886 416.524 81.465C410.826 80.3913 404.895 79.2863 399.155 77.9933C394.566 76.9735 389.809 76.8573 384.745 76.7236C378.162 76.5761 371.42 76.3833 364.492 74.2182C354.492 71.0471 345.916 65.4074 338.268 60.4622C332.986 56.9983 328.965 54.5824 325.246 52.5633C311.476 45.11 298.701 42.0889 287.344 43.7226C278.078 44.9958 268.709 49.5087 257.874 54.6797C254.576 56.2554 251.204 57.8451 247.656 59.5061C234.478 65.5025 219.953 65.6184 203.16 59.8017C194.487 56.8324 187.017 53.2173 179.63 48.4497C174.711 45.2956 169.798 41.3826 165.029 37.6315C162 35.2537 158.913 32.7732 155.752 30.4964C144.92 22.559 134.488 17.1213 123.846 13.959C117.295 11.9871 110.518 10.816 103.558 10.4753C100.042 10.3119 96.4506 10.3522 92.8279 10.6257C85.7584 11.1015 79.2583 13.1736 72.363 15.3588C64.6043 17.7844 57.9825 23.5923 51.6114 29.1251L51.2877 29.4142C37.059 41.8238 19.2194 48.4054 3.96805 49.6825L3.52416 50.3354C6.40174 50.1281 9.42733 49.7031 12.4546 49.0883C26.7571 46.2114 40.6867 39.3899 51.6341 29.8406L51.9579 29.5516C58.2855 23.9892 64.848 18.2683 72.5337 15.8567C79.3994 13.715 85.8699 11.6864 92.8523 11.1515C103.471 10.4161 113.826 11.4738 123.637 14.4534C134.206 17.6297 144.594 23.0377 155.383 30.9455C158.471 33.2363 161.631 35.7028 164.66 38.0806C169.429 41.8317 174.342 45.7448 179.305 48.9284C186.779 53.7552 194.322 57.3565 202.965 60.3692C219.875 66.2015 234.59 66.0873 247.87 60.0335C251.461 58.4021 254.833 56.8125 258.089 55.2072C268.88 50.0065 278.219 45.5371 287.412 44.2778C298.667 42.7015 311.281 45.6776 324.964 53.0716C328.639 55.0612 332.661 57.4771 337.943 60.941C345.561 65.9296 354.21 71.5554 364.253 74.7561C371.225 76.9508 378.041 77.1296 384.666 77.3067C389.687 77.4108 394.445 77.5271 398.96 78.5608C404.7 79.8538 410.631 80.9589 416.329 82.0326C416.999 82.17 417.626 82.278 418.296 82.4154L418.681 81.8496L418.724 81.8792Z" fill="url(#paint16_linear_566_20837)"/>
</g>
<g opacity="0.33">
<path d="M418.723 81.8784C418.286 81.7722 417.82 81.7096 417.339 81.5739C411.744 80.4427 405.946 79.2367 400.309 77.8863C395.706 76.7933 390.817 76.5883 385.739 76.3815C379.217 76.147 372.46 75.8811 365.634 73.6586C355.825 70.4892 347.508 65.2168 339.453 60.122L339.279 60.0036C334.025 56.6859 329.843 54.2247 326.065 52.2926C312.074 45.0709 299.209 42.37 287.747 44.251C279.005 45.6895 270.28 50.0039 260.236 54.9486C256.394 56.8551 252.406 58.7895 248.155 60.7361C234.875 66.7899 220.147 66.6413 203.154 60.3702C194.513 57.1677 186.971 53.3767 179.513 48.4333C174.666 45.2653 169.84 41.4114 165.189 37.6759C162.058 35.1659 158.798 32.567 155.535 30.1579C144.602 22.0882 134.054 16.6349 123.339 13.4865C116.919 11.6034 110.302 10.4776 103.531 10.1386C99.7521 9.98743 95.8979 10.0399 92.0559 10.3553C85.0438 10.9337 78.5437 13.0058 71.7354 15.2502L71.4865 15.3355C63.7417 17.8342 57.1931 23.6281 50.7925 29.2045L50.6602 29.3055C39.9478 38.6963 26.354 45.4917 12.3858 48.5322C9.57788 49.1052 6.82916 49.5911 4.18485 49.8298L3.80015 50.3956C6.59069 50.129 9.57274 49.6744 12.513 49.0005C26.5978 45.9757 40.2506 39.0932 51.0658 29.6449L51.1981 29.544C57.5256 23.9816 64.0882 18.2607 71.6868 15.7899L71.9357 15.7046C78.7874 13.4898 85.2145 11.4315 92.1534 10.867C102.861 10.0011 113.332 11.0745 123.247 13.9966C133.932 17.1885 144.393 22.5826 155.283 30.6227C158.545 33.0318 161.806 35.6307 164.936 38.1407C169.588 41.8762 174.414 45.7301 179.304 48.9277C186.835 53.8572 194.391 57.7213 203.106 60.9099C220.258 67.2261 235.059 67.3608 248.486 61.2791C252.737 59.3326 256.725 57.3982 260.567 55.4918C270.611 50.5471 279.306 46.2762 287.975 44.8516C299.291 42.9985 312.069 45.6401 325.973 52.8027C329.751 54.7347 333.933 57.196 339.143 60.484L339.317 60.6024C347.416 65.7269 355.776 71.0289 365.659 74.1843C372.558 76.3929 379.358 76.6883 385.924 76.9525C391.002 77.1592 395.847 77.3348 400.45 78.4277C406.087 79.7782 411.915 80.9407 417.524 82.1449C417.918 82.2215 418.311 82.298 418.704 82.3746L418.941 82.0264L418.723 81.8784Z" fill="url(#paint17_linear_566_20837)"/>
</g>
<g opacity="0.33">
<path d="M418.753 81.8348C418.549 81.76 418.359 81.7583 418.156 81.6834C412.663 80.4948 406.997 79.1879 401.433 77.8234C396.773 76.6278 391.797 76.3636 386.589 76.068C380.082 75.7168 373.385 75.3639 366.559 73.1413C356.952 70.0468 348.707 64.9503 340.694 60.0748L339.968 59.6448C334.728 56.4003 330.487 54.0261 326.563 52.1219C312.35 45.1317 299.351 42.7216 287.843 44.9524C279.551 46.5703 271.427 50.6566 261.998 55.4463C257.642 57.6401 253.154 59.9348 248.303 62.1095C234.92 68.2208 220.034 67.8371 202.827 61.0386C194.143 57.6168 186.604 53.636 179.044 48.5602C174.344 45.3644 169.605 41.5697 164.997 37.8638C161.693 35.2354 158.331 32.5043 154.894 29.9768C143.874 21.8479 133.239 16.3354 122.407 13.1714C116.147 11.3335 109.647 10.2233 102.993 9.90001C98.9806 9.71751 94.9071 9.81184 90.7726 10.1829C83.7745 10.8345 77.3615 12.9657 70.5236 15.2537L70.0258 15.4243C62.368 17.9821 55.7758 23.7466 49.4779 29.2655C35.5573 41.5028 18.4454 48.3246 3.77374 50.0595L3.38904 50.6253C18.2504 48.8921 35.6983 42.0441 49.8539 29.6484C56.1519 24.1295 62.6413 18.4226 70.226 15.8787L70.7238 15.708C77.4886 13.434 83.9016 11.3027 90.8701 10.6947C101.667 9.69814 112.241 10.714 122.272 13.6518C133.06 16.7863 143.651 22.2693 154.598 30.4121C157.991 32.91 161.397 35.6707 164.657 38.2695C169.222 41.9458 174.005 45.7701 178.705 48.9659C186.308 54.0713 193.891 58.0816 202.618 61.533C219.985 68.3767 234.974 68.703 248.503 62.5638C253.384 60.3457 257.872 58.0509 262.227 55.8571C271.627 51.1109 279.708 46.995 287.927 45.3911C299.289 43.1882 312.215 45.6122 326.297 52.5136C330.221 54.4178 334.432 56.8355 339.658 60.007L340.384 60.4369C348.411 65.3855 356.686 70.4386 366.379 73.5923C373.249 75.8444 380.019 76.1834 386.526 76.5346C391.735 76.8301 396.593 77.0788 401.254 78.2744C406.788 79.6823 412.484 80.9457 417.976 82.1343C418.093 82.1499 418.253 82.1952 418.37 82.2108L418.666 81.7757L418.753 81.8348Z" fill="url(#paint18_linear_566_20837)"/>
</g>
<g opacity="0.33">
<path d="M419.521 80.7022C413.912 79.498 408.228 78.4975 402.513 77.7302C399.291 77.3213 396.096 77.0586 392.712 76.7943C384.631 76.1368 376.243 75.462 367.598 72.639C358.182 69.5462 350.022 64.6986 342.11 59.9554L340.832 59.2139C335.576 56.086 331.233 53.7692 327.236 51.8789C312.845 45.1499 299.669 43.0009 288.113 45.5816C280.259 47.3056 272.573 51.3083 263.758 55.9431C259.006 58.4398 254.078 61.0079 248.669 63.4402C235.14 69.5794 220.139 68.9903 202.688 61.7079C194.036 58.0528 186.395 53.9397 178.765 48.6882C174.137 45.4784 169.486 41.7429 165.008 38.1257C161.603 35.365 158.023 32.486 154.486 29.8262C143.365 21.565 132.656 16.0665 121.708 12.8867C115.535 11.108 109.195 10.0432 102.701 9.7651C98.4554 9.55128 94.1191 9.65773 89.7357 10.1141C82.7515 10.8388 76.3088 13.0137 69.5145 15.3312L68.7676 15.5871C61.1238 18.218 54.4133 24.1565 48.4687 29.3429C34.8423 41.3347 18.0212 48.2906 3.63858 50.3493L3.22431 50.9586C17.8402 48.9312 34.9678 41.9928 48.8152 29.7694C54.7163 24.5534 61.3676 18.702 68.9087 16.1285L69.6555 15.8725C76.4498 13.555 82.8194 11.3942 89.7304 10.6834C100.659 9.58593 111.336 10.5444 121.483 13.4978C132.388 16.648 143.023 22.1604 154.131 30.3485C157.698 32.9647 161.204 35.8578 164.609 38.6185C169.087 42.2356 173.753 46.0442 178.41 49.2105C186.084 54.4916 193.738 58.6777 202.42 62.2894C219.958 69.6309 235.148 70.2217 248.81 63.9816C254.248 61.5057 259.176 58.9377 263.929 56.441C272.714 51.8498 280.327 47.861 288.181 46.137C299.634 43.6137 312.65 45.7174 326.924 52.4308C330.878 54.2915 335.308 56.6674 340.477 59.7361L341.755 60.4776C349.667 65.2208 357.87 70.098 367.36 73.1769C376.049 76.0295 384.436 76.7044 392.59 77.3479C395.974 77.6123 399.212 77.9045 402.391 78.2838C408.019 78.9919 413.63 80.0064 419.122 81.195L419.478 80.6727L419.521 80.7022Z" fill="url(#paint19_linear_566_20837)"/>
</g>
<g opacity="0.33">
<path d="M419.58 80.6151C414.351 79.4143 409.003 78.3876 403.667 77.6238C400.358 77.1557 397.076 76.8339 393.562 76.4807C385.496 75.7066 377.198 74.9012 368.626 72.0643C359.413 69.0463 351.354 64.331 343.527 59.8368L341.654 58.7541C336.455 55.7289 331.922 53.4104 327.866 51.6071C313.255 45.1097 299.988 43.281 288.371 46.1386C280.807 47.9966 273.561 51.9157 265.14 56.4373C260.094 59.1795 254.799 62.007 248.979 64.6691C235.304 70.8361 220.115 70.0556 202.523 62.2318C193.872 58.3869 186.233 54.0841 178.488 48.6271C173.977 45.433 169.413 41.7567 165.052 38.1552C161.502 35.2326 157.792 32.2648 154.08 29.4867C142.872 21.1663 132.033 15.579 121.012 12.4132C114.999 10.6797 108.746 9.67403 102.399 9.3681C97.8898 9.16649 93.3637 9.2712 88.7609 9.7694C81.7472 10.5376 75.3915 12.7716 68.6112 15.1622L67.6885 15.4896C60.0882 18.1501 53.51 23.9876 47.6386 29.16C34.2768 40.9499 17.8055 47.9528 3.63876 50.3492L3.22449 50.9585C17.5949 48.6369 34.4318 41.5645 47.985 29.5865C53.7538 24.4716 60.3755 18.6636 67.8296 16.031L68.7522 15.7037C75.503 13.3565 81.8882 11.079 88.8289 10.3248C99.8465 9.09668 110.626 9.99766 120.89 12.9668C131.868 16.103 142.663 21.6607 153.828 29.9515C157.54 32.7296 161.22 35.741 164.799 38.6201C169.19 42.178 173.725 45.8979 178.279 49.1216C186.068 54.6081 193.751 58.9405 202.401 62.7854C220.11 70.6248 235.459 71.4506 249.266 65.1826C255.159 62.5065 260.381 59.693 265.457 56.9073C273.804 52.3996 281.051 48.4805 288.542 46.6364C300.012 43.8067 313.235 45.6059 327.687 52.0581C331.743 53.8613 336.247 56.2233 341.431 59.1754L343.304 60.258C351.145 64.8254 359.234 69.4973 368.49 72.5448C377.105 75.4114 385.477 76.2028 393.542 76.9769C397.057 77.33 400.339 77.6518 403.604 78.0903C408.867 78.8681 414.128 79.8356 419.284 81.0503L419.58 80.6151Z" fill="url(#paint20_linear_566_20837)"/>
</g>
<g opacity="0.33">
<path d="M419.639 80.5281C414.76 79.3743 409.791 78.3511 404.792 77.5611C401.425 76.9903 398.027 76.6529 394.425 76.2406C386.448 75.3359 378.165 74.4138 369.666 71.563C360.687 68.5763 352.714 64.11 344.987 59.748C344.145 59.3024 343.332 58.8132 342.489 58.3676C337.275 55.4591 332.712 53.1842 328.51 51.4088C313.721 45.1724 300.276 43.6049 288.613 46.8124C281.413 48.7905 274.18 52.7828 266.58 57.0344C261.166 60.036 255.62 63.1386 249.317 66.0445C235.495 72.2393 220.148 71.2237 202.399 62.9752C193.751 58.9406 186.07 54.4184 178.223 48.8292C173.829 45.6507 169.395 42.0632 165.121 38.5209C161.397 35.4799 157.572 32.3067 153.687 29.4102C142.421 20.9871 131.495 15.3407 120.284 12.1731C114.402 10.5285 108.222 9.50871 101.948 9.18885C97.2055 8.95592 92.4305 9.14607 87.6815 9.67215C80.6817 10.5135 74.2669 12.8344 67.4569 15.2686L66.388 15.6238C58.8017 18.3574 52.0616 24.3394 46.6166 29.1654C33.5925 40.7394 17.4119 47.8763 3.52027 50.5234L3.10599 51.1327C17.2309 48.517 33.7475 41.354 46.9926 29.5484C52.408 24.766 59.1481 18.7839 66.5883 16.0781L67.6571 15.723C74.4236 13.2592 80.8088 10.9817 87.7355 10.1543C98.6661 8.86705 109.884 9.68445 120.105 12.624C131.229 15.7323 142.111 21.3492 153.333 29.7427C157.219 32.6392 161.044 35.8124 164.724 38.8238C168.998 42.3661 173.476 45.9833 177.87 49.1617C185.73 54.8241 193.484 59.3323 202.133 63.3669C220.056 71.7338 235.549 72.7216 249.547 66.4553C255.894 63.579 261.44 60.4764 266.853 57.4748C274.762 53.0508 281.613 49.2448 288.74 47.2806C300.301 44.1306 313.585 45.6529 328.301 51.9032C332.46 53.6489 337.023 55.9239 342.237 58.8325C343.08 59.2781 343.892 59.7672 344.735 60.2128C352.461 64.5748 360.435 69.0411 369.457 72.0574C378.03 74.8943 386.313 75.8164 394.333 76.7506C397.934 77.163 401.303 77.544 404.699 78.0712C409.626 78.8751 414.507 79.8391 419.314 81.0069L419.639 80.5281V80.5281Z" fill="url(#paint21_linear_566_20837)"/>
</g>
<g opacity="0.33">
<path d="M419.698 80.4409C415.169 79.3341 410.536 78.2848 405.916 77.4982C402.462 76.8683 398.934 76.442 395.245 75.9705C387.327 74.9788 379.09 73.8966 370.707 71.0614C361.961 68.1061 354.103 63.845 346.491 59.6885C345.431 59.0949 344.371 58.5014 343.325 57.9809C338.081 55.1159 333.459 52.928 329.154 51.2101C314.144 45.2053 300.565 43.9285 288.841 47.4128C281.888 49.4953 275.065 53.4475 267.83 57.6295C262.165 60.9061 256.296 64.2977 249.597 67.3168C235.643 73.6126 220.137 72.3622 202.175 63.5862C193.688 59.407 185.732 54.6342 177.887 48.8552C173.58 45.7359 169.292 42.1205 165.076 38.6809C161.207 35.478 157.208 32.1864 153.178 29.1281C141.782 20.6162 130.769 14.9105 119.485 11.7569C113.719 10.1279 107.67 9.197 101.512 8.8928C96.5805 8.65814 91.5425 8.86045 86.5881 9.50143C79.5587 10.3863 73.1578 12.7804 66.3618 15.2877L65.1606 15.7438C58.1887 18.3225 52.2163 23.3627 45.6381 29.2002C32.9082 40.5287 17.048 47.7561 3.40179 50.6973L2.98752 51.3066C16.867 48.3967 33.0492 41.0701 46.0141 29.5831C52.5627 23.7892 58.5056 18.7925 65.3608 16.1982L66.562 15.742C73.358 13.2347 79.7293 10.8842 86.6856 10.0132C97.7485 8.625 109.069 9.38495 119.393 12.267C130.633 15.391 141.559 21.0375 152.912 29.5197C156.972 32.5346 160.941 35.8698 164.809 39.0726C168.996 42.5558 173.314 46.1276 177.621 49.2469C185.495 54.9824 193.465 59.8283 201.995 64.037C220.089 72.9018 235.784 74.1541 249.884 67.8303C256.612 64.7677 262.482 61.3762 268.147 58.0995C275.352 53.961 282.176 50.0088 289.012 47.9106C300.619 44.4107 314.081 45.6718 328.975 51.661C333.236 53.3493 337.872 55.6103 343.102 58.4022C344.162 58.9958 345.208 59.5162 346.269 60.1098C353.88 64.2664 361.709 68.5709 370.528 71.5122C379.027 74.3631 387.221 75.4158 395.182 76.4371C398.871 76.9086 402.37 77.3783 405.853 77.9647C410.401 78.7652 414.946 79.7554 419.403 80.8762L419.698 80.4409Z" fill="url(#paint22_linear_566_20837)"/>
</g>
<g opacity="0.33">
<path d="M419.817 80.2683C415.594 79.1789 411.355 78.2061 407.027 77.3639C403.486 76.6748 399.9 76.1458 396.051 75.629C388.179 74.4772 380.044 73.3375 371.661 70.5023C363.119 67.6218 355.448 63.5523 347.982 59.5576C346.674 58.8596 345.367 58.1616 344.103 57.4932C338.844 54.7448 334.149 52.5708 329.741 50.9104C314.51 45.1371 300.797 44.1511 289.026 47.9852C282.393 50.1583 275.862 54.0547 268.963 58.2106C263.078 61.7188 256.957 65.3854 249.921 68.6204C235.821 74.9441 220.127 73.5021 202.024 64.1847C193.538 59.8158 185.584 54.8533 177.595 48.9124C173.405 45.8088 169.247 42.2821 165.161 38.9313C161.148 35.5665 156.961 32.0835 152.757 28.9067C141.304 20.2922 130.174 14.5708 118.743 11.4451C113.108 9.90485 107.132 8.96009 101.091 8.67154C95.9261 8.40556 90.6688 8.64959 85.4951 9.33237C78.436 10.2607 71.976 12.7419 65.1939 15.3223L63.9196 15.7925C57.0348 18.4303 50.8569 23.5854 44.646 29.1634C31.8569 40.579 16.4928 47.8254 3.18088 50.9303L2.73698 51.5832C16.2091 48.5236 31.9684 41.1639 45.0221 29.5464C51.4384 23.8534 57.3081 18.8707 64.1338 16.3199L65.408 15.8497C72.1901 13.2693 78.6206 10.8318 85.6361 9.8738C96.7878 8.35499 108.182 9.10097 118.651 11.9552C129.965 15.0653 141.051 20.757 152.461 29.342C156.666 32.5187 160.809 35.9722 164.865 39.3665C168.922 42.7609 173.152 46.2736 177.299 49.3476C185.288 55.2885 193.33 60.3103 201.815 64.6791C219.875 73.9669 236.138 75.4142 250.208 69.134C257.288 65.9286 263.409 62.262 269.324 58.7102C276.193 54.5979 282.651 50.7153 289.283 48.5422C300.982 44.722 314.504 45.7064 329.619 51.464C333.983 53.0949 338.678 55.2688 343.938 58.0172C345.202 58.6856 346.509 59.3836 347.816 60.0816C355.283 64.0763 362.997 68.1753 371.54 71.0558C379.965 73.9206 388.1 75.0604 396.016 76.2418C399.835 76.8021 403.422 77.3311 406.963 78.0202C411.174 78.8468 415.369 79.79 419.549 80.8498L419.904 80.3276L419.817 80.2683Z" fill="url(#paint23_linear_566_20837)"/>
</g>
<g opacity="0.33">
<path d="M419.905 80.137C416.031 79.0945 412.099 78.1391 408.15 77.3003C404.479 76.5224 400.806 75.9342 396.826 75.3287C389.013 74.0898 380.967 72.8196 372.658 69.9704C364.392 67.1508 356.866 63.2432 349.558 59.4835C348.003 58.6811 346.449 57.8787 344.938 57.1059C339.649 54.401 334.894 52.3141 330.384 50.7111C314.932 45.1694 301.115 44.4305 289.267 48.6581C282.838 50.906 276.613 54.8198 270.037 58.8765C263.944 62.6893 257.632 66.544 250.244 69.9217C236.217 76.2315 219.898 74.4919 201.841 64.8246C193.402 60.2955 185.406 55.1136 177.302 48.9673C173.271 45.9089 169.171 42.485 165.246 39.1794C161.045 35.6232 156.713 31.9782 152.335 28.6831C140.751 19.9798 129.578 14.2289 118.03 11.0875C112.482 9.60645 106.623 8.67723 100.728 8.36082C95.3732 8.09311 89.8965 8.379 84.4739 9.1471C77.3557 10.1625 70.8661 12.6872 64.0248 15.3547L62.7209 15.8683C55.8796 18.5358 49.8045 23.6334 43.7259 29.1105C31.2606 40.2371 16.1872 47.6175 3.16426 51.0462L2.72041 51.699C15.9766 48.3017 31.4155 40.8516 44.1019 29.4934C50.1509 24.0599 56.1529 18.9762 62.9646 16.3522L64.2685 15.8386C71.1098 13.1712 77.5263 10.6604 84.5714 9.65895C95.8554 8.03916 107.352 8.72768 117.895 11.568C129.325 14.6937 140.484 20.3715 151.995 29.0888C156.374 32.3838 160.705 36.0288 164.906 39.5851C168.832 42.8906 172.932 46.3146 177.006 49.4025C185.11 55.5489 193.149 60.7603 201.633 65.3189C219.863 75.1046 236.328 76.8164 250.531 70.4352C257.963 67.0871 264.29 63.1158 270.397 59.376C276.974 55.3194 283.169 51.4491 289.525 49.2151C301.24 45.0885 314.97 45.7682 330.262 51.2647C334.699 52.8816 339.454 54.9685 344.772 57.6299C346.283 58.4027 347.838 59.2051 349.393 60.0076C356.701 63.7672 364.27 67.7045 372.58 70.5536C380.889 73.4028 388.978 74.7026 396.865 75.9276C400.771 76.547 404.488 77.1648 408.116 77.9131C412.02 78.7223 415.836 79.6621 419.666 80.675L419.992 80.1962L419.905 80.137Z" fill="url(#paint24_linear_566_20837)"/>
</g>
<g opacity="0.33">
<path d="M420.022 79.962C416.499 78.9665 412.916 78.0581 409.274 77.2367C405.516 76.3996 401.712 75.7226 397.675 75.0144C389.951 73.6449 381.964 72.2877 373.771 69.4542C365.782 66.6956 358.371 62.9933 351.281 59.3816C349.479 58.4747 347.677 57.5679 345.875 56.6611C340.527 54.0432 335.743 51.9998 331.13 50.4542C315.69 45.1754 301.33 44.7674 289.64 49.23C283.459 51.5823 277.453 55.4543 271.14 59.4987C264.899 63.5292 258.38 67.6885 250.713 71.1951C236.54 77.5328 220.106 75.5877 201.836 65.393C193.441 60.7037 185.374 55.346 177.155 48.9943C173.241 45.9516 169.315 42.646 165.476 39.3997C161.131 35.6815 156.582 31.8885 152.015 28.402C140.374 19.5959 129.041 13.7998 117.42 10.6723C111.989 9.20696 106.246 8.29343 100.438 8.0362C94.8205 7.7807 89.1542 8.06482 83.5557 8.9043C76.3783 10.0068 69.859 12.575 62.9586 15.3295L61.6252 15.8866C54.7978 18.6272 48.855 23.6239 42.8791 29.0435C30.7515 39.9542 15.9984 47.4251 3.17743 51.1184L2.70396 51.8147C15.7147 48.1232 30.8629 40.5391 43.2255 29.47C49.1718 24.0938 55.1147 19.0972 61.8393 16.4141L63.1728 15.857C70.0733 13.1025 76.549 10.5047 83.6532 9.41615C94.9964 7.70932 106.625 8.29686 117.285 11.1528C128.861 14.2507 140.078 20.0312 151.676 28.8076C156.272 32.2507 160.748 36.0575 165.093 39.7757C168.932 43.022 172.828 46.3712 176.772 49.3703C184.991 55.7221 193.101 61.1094 201.496 65.7986C219.897 76.0821 236.521 78.0289 250.87 71.6199C258.61 68.0994 265.129 63.94 271.399 59.866C277.713 55.8216 283.645 51.9635 289.797 49.6547C301.384 45.2496 315.627 45.642 330.907 50.8756C335.447 52.4351 340.261 54.4349 345.609 57.0528C347.411 57.9596 349.212 58.8665 351.014 59.7733C358.178 63.3711 365.559 67.1168 373.621 69.8616C381.858 72.7246 389.888 74.1115 397.642 75.4375C401.679 76.1457 405.483 76.8226 409.241 77.6597C412.766 78.4654 416.306 79.3443 419.786 80.3102L420.022 79.962V79.962Z" fill="url(#paint25_linear_566_20837)"/>
</g>
<g opacity="0.33">
<path d="M420.173 79.7457C416.97 78.8407 413.693 77.9496 410.401 77.1752C406.512 76.2494 402.578 75.4837 398.41 74.6867C390.745 73.2301 382.847 71.7423 374.728 68.8949C367.015 66.1971 359.792 62.6864 352.817 59.2801C350.724 58.2392 348.632 57.1983 346.553 56.2306C341.262 53.7155 336.216 51.6842 331.616 50.2118C315.999 45.1941 301.461 45.0472 289.725 49.8597C283.717 52.3304 277.961 56.1171 271.88 60.1928C265.462 64.4844 258.838 68.891 250.85 72.4968C236.501 78.9059 219.909 76.7258 201.467 66.0332C193.118 61.1838 185.052 55.6363 176.675 49.0496C172.892 46.0956 169.126 42.8354 165.418 39.6778C160.884 35.7682 156.191 31.8133 151.407 28.1788C139.664 19.2404 128.258 13.4582 116.521 10.3151C111.176 8.90891 105.55 8.011 99.8592 7.76943C94.0517 7.5122 88.166 7.8382 82.3482 8.71948C75.0681 9.8794 68.5332 12.5642 61.5735 15.4058L60.2696 15.9194C53.4858 18.6896 47.4246 23.8603 41.7725 28.9909C29.9982 39.5691 15.5359 47.174 3.00395 51.1911L2.53048 51.8874C15.3393 47.9313 30.1533 40.1836 42.1486 29.3739C47.7415 24.3303 53.8027 19.1596 60.4839 16.4469L61.7877 15.9332C68.7473 13.0917 75.2823 10.4069 82.4892 9.2609C93.9212 7.4235 105.696 7.98319 116.429 10.8252C128.079 13.9091 139.455 19.7348 151.111 28.614C155.851 32.2189 160.559 36.2469 165.122 40.113C168.83 43.2706 172.596 46.5309 176.379 49.4848C184.756 56.0715 192.865 61.6486 201.215 66.498C219.83 77.309 236.612 79.4908 251.094 72.9808C259.112 69.3314 265.765 64.8813 272.227 60.6193C278.277 56.5871 283.991 52.7708 289.968 50.3436C301.602 45.5886 315.994 45.7634 331.524 50.7219C336.123 52.1943 341.127 54.1959 346.417 56.711C348.496 57.6788 350.588 58.7197 352.681 59.7605C359.657 63.1668 366.85 66.7211 374.635 69.4049C382.755 72.2523 390.726 73.7262 398.391 75.1828C402.559 75.9798 406.45 76.7159 410.339 77.6417C413.558 78.4301 416.747 79.262 419.906 80.1374L420.173 79.7457V79.7457Z" fill="url(#paint26_linear_566_20837)"/>
</g>
<g opacity="0.33">
<path d="M420.35 79.4842C417.453 78.5966 414.541 77.8257 411.555 77.0687C407.535 76.0541 403.471 75.1996 399.172 74.3138C391.61 72.7998 383.801 71.1814 375.768 68.3931C368.303 65.7998 361.341 62.4667 354.583 59.2083C352.244 58.063 349.787 56.902 347.461 55.8299C342.141 53.3582 337.035 51.4141 332.333 49.9991C316.495 45.213 301.866 45.3864 289.996 50.4896C284.149 53.0055 278.625 56.8235 272.735 60.901C266.212 65.4398 259.411 70.1075 251.173 73.7987C236.722 80.2652 219.898 77.864 201.286 66.6735C193.025 61.6935 184.845 55.9407 176.352 49.1485C172.73 46.2399 169.065 43.1119 165.56 40.0291C160.839 35.928 155.987 31.7382 150.985 27.9557C139.156 18.9582 127.648 13.0436 115.809 9.95797C110.508 8.58135 105.041 7.7287 99.4236 7.4732C93.4264 7.21425 87.3509 7.53849 81.2981 8.5782C73.9589 9.82517 67.3213 12.5674 60.2728 15.5396L59.0125 16.0828C52.2722 18.8825 46.3137 23.9959 40.7938 29.0255C28.5183 40.1538 14.6287 47.3844 2.85568 51.4084L2.35264 52.1482C14.3154 48.1261 28.6001 40.7822 41.1699 29.4084C46.6601 24.4223 52.589 19.3525 59.2562 16.5667L60.5166 16.0235C67.5354 13.0949 74.1295 10.3231 81.3957 9.09006C92.9599 7.15168 104.794 7.62433 115.643 10.482C127.41 13.5816 138.86 19.3934 150.646 28.3613C155.604 32.1142 160.499 36.3337 165.177 40.4052C168.711 43.4444 172.39 46.6456 176.013 49.5542C184.505 56.3464 192.686 62.0992 200.99 67.1087C219.776 78.4176 236.716 80.8344 251.388 74.3261C259.655 70.5914 266.485 65.8802 273.008 61.3414C278.869 57.3075 284.349 53.4599 290.167 50.9875C301.891 45.9121 316.373 45.7665 332.095 50.537C336.797 51.952 341.83 53.9101 347.15 56.3817C349.519 57.4835 351.932 58.6148 354.272 59.7601C361.03 63.0185 368.021 66.3082 375.5 68.9746C383.533 71.7628 391.386 73.4109 398.948 74.9248C403.246 75.8106 407.341 76.6215 411.287 77.6501C414.2 78.4211 417.069 79.1625 419.922 80.0205L420.307 79.4547L420.35 79.4842Z" fill="url(#paint27_linear_566_20837)"/>
</g>
<g opacity="0.33">
<path d="M420.496 79.2648C417.92 78.4677 415.314 77.7141 412.678 77.004C408.528 75.9006 404.332 74.9574 399.904 73.9829C392.43 72.3383 384.723 70.6624 376.808 67.8899C369.663 65.3871 362.919 62.2018 356.392 59.1645C353.732 57.9287 350.985 56.6337 348.295 55.4414C342.916 53.0569 337.78 51.1562 332.976 49.7987C316.916 45.2441 302.154 45.7083 290.266 51.1179C284.549 53.7226 279.216 57.5424 273.558 61.6511C266.888 66.4076 260.026 71.352 251.553 75.2016C236.926 81.7395 220.017 79.0895 201.19 67.3715C192.975 62.2314 184.81 56.3619 176.145 49.2616C172.653 46.4417 169.192 43.3886 165.789 40.4381C160.879 36.1456 155.795 31.7346 150.62 27.8338C138.733 18.7336 127.109 12.8033 115.152 9.702C109.968 8.34104 104.589 7.54768 99.0443 7.27824C92.8138 6.98797 86.5625 7.38349 80.3338 8.49459C72.8919 9.79901 66.1655 12.6719 59.0579 15.7311L57.9003 16.2168C51.247 19.0757 45.1266 24.3335 39.9306 29.0742C28.0379 39.8264 14.453 47.2643 2.88197 51.5528L2.34935 52.3362C14.1101 48.0494 28.0902 40.4984 40.277 29.5007C45.4435 24.8035 51.4907 19.5597 58.1144 16.7443L59.2721 16.2585C66.3501 13.2429 73.0329 10.3404 80.4018 9.04994C92.0548 6.981 104.035 7.42579 114.957 10.2695C126.87 13.3413 138.378 19.2558 150.251 28.283C155.397 32.2273 160.48 36.6382 165.419 40.8872C168.823 43.8377 172.328 46.9205 175.776 49.7108C184.471 56.7675 192.649 62.7102 200.865 67.8503C219.822 79.657 236.964 82.3383 251.767 75.7291C260.283 71.9091 267.175 66.9211 273.845 62.1647C279.473 58.0994 284.807 54.2797 290.451 51.6889C302.192 46.3071 316.838 45.8273 332.781 50.3662C337.542 51.6942 342.677 53.5948 348.027 56.0229C350.717 57.2152 353.333 58.4214 356.124 59.746C362.651 62.7833 369.425 65.925 376.583 68.501C384.499 71.2735 392.249 72.9789 399.723 74.6235C404.151 75.598 408.376 76.4978 412.497 77.6447C415.089 78.3252 417.622 79.0927 420.155 79.8602L420.54 79.2945L420.496 79.2648Z" fill="url(#paint28_linear_566_20837)"/>
</g>
<g opacity="0.33">
<path d="M420.677 79.0072C418.421 78.3005 416.091 77.6079 413.762 76.9152C409.481 75.723 405.155 74.691 400.553 73.5981C393.182 71.8961 385.564 70.0897 377.765 67.3327C370.897 64.8908 364.384 61.9267 358.119 59.0669C355.008 57.6518 352.057 56.282 349.047 54.9992C343.638 52.6582 338.4 50.8151 333.536 49.5446C317.255 45.2216 302.315 45.9468 290.424 51.7359C284.881 54.459 279.694 58.2508 274.226 62.3613C267.495 67.3946 260.485 72.5567 251.837 76.4777C237.063 83.0434 219.966 80.2019 200.969 67.9861C192.886 62.745 184.606 56.67 175.826 49.3644C172.538 46.6193 169.178 43.6984 165.948 40.8663C160.851 36.3823 155.579 31.7799 150.172 27.658C138.154 18.469 126.487 12.5092 114.414 9.39224C109.317 8.09046 104.01 7.28311 98.5825 7.02934C92.1918 6.69382 85.6916 7.17479 79.2436 8.32768C71.699 9.68956 64.8838 12.6929 57.6874 15.8827L56.676 16.3406C50.0367 19.2727 44.0486 24.4294 38.9553 29.1126C27.0766 39.938 13.8572 47.3061 2.81014 51.76L2.27747 52.5434C13.5874 48.0774 27.1288 40.6099 39.3312 29.4956C44.3654 24.8994 50.3535 19.7426 56.8902 16.868L57.9015 16.4102C65.0683 13.264 71.8539 10.304 79.355 8.91256C91.1107 6.78616 103.18 7.10037 114.219 9.95977C126.205 13.0176 137.829 18.9478 149.803 28.1072C155.21 32.2291 160.482 36.8315 165.579 41.3155C168.809 44.1476 172.169 47.0685 175.501 49.8431C184.324 57.1784 192.604 63.2533 200.73 68.524C219.901 80.8582 237.158 83.745 252.138 77.0644C260.859 73.1294 267.899 67.9238 274.63 62.8906C280.112 58.8532 285.285 54.9881 290.769 52.3521C302.557 46.6204 317.307 45.8935 333.471 50.2009C338.306 51.5149 343.5 53.3284 348.909 55.6695C351.919 56.9522 354.87 58.3221 357.981 59.7372C364.29 62.6265 370.803 65.5907 377.671 68.0326C385.47 70.7895 393.088 72.596 400.502 74.3276C405.105 75.4205 409.461 76.4089 413.712 77.6446C415.998 78.3077 418.21 78.9847 420.423 79.6617L420.807 79.0959L420.677 79.0072Z" fill="url(#paint29_linear_566_20837)"/>
</g>
<g opacity="0.33">
<path d="M420.883 78.7018C418.904 78.0561 416.925 77.4104 414.916 76.8082C410.491 75.4542 405.961 74.3474 401.198 73.2092C393.959 71.4062 386.444 69.5423 378.805 66.8306C372.301 64.5088 366.049 61.7222 360.045 59.04C356.527 57.4753 353.256 56.0149 349.882 54.6121C344.414 52.3581 339.146 50.5584 334.179 49.3454C317.634 45.2242 302.604 46.2699 290.665 52.4089C285.239 55.1476 280.226 59.0579 274.905 63.1405C268.098 68.3774 261.027 73.8163 252.13 77.8226C237.224 84.4894 219.925 81.3832 200.787 68.626C192.763 63.2978 184.485 57.0332 175.504 49.4629C172.389 46.8362 169.16 44.0041 166.104 41.2904C160.819 36.6149 155.345 31.7479 149.677 27.4485C137.602 18.1568 125.774 12.1517 113.598 9.0922C108.588 7.8496 103.355 7.02831 98.0439 6.79019C91.4636 6.45294 84.7736 6.93211 78.1637 8.2295C70.4868 9.69236 63.5828 12.8264 56.2838 16.0736L55.4482 16.4601C48.8523 19.4217 42.9669 24.521 38.0059 29.1033C26.5833 39.5387 13.6981 47.0704 2.77996 51.8028L2.21772 52.6298C13.3552 47.8556 26.6356 40.2107 38.3819 29.4863C43.3569 24.9772 49.1692 19.8917 55.6919 16.944L56.5275 16.5575C63.8266 13.3103 70.7009 10.2199 78.3048 8.77093C90.1492 6.51396 102.365 6.80033 113.477 9.6458C125.579 12.7192 137.32 18.6651 149.351 27.9272C154.947 32.2406 160.45 37.064 165.735 41.7395C168.834 44.4829 172.02 47.2854 175.135 49.9121C184.16 57.5119 192.438 63.7766 200.476 69.1779C219.788 82.0534 237.276 85.1613 252.358 78.4231C261.329 74.4029 268.4 68.9641 275.235 63.6836C280.557 59.601 285.541 55.7342 290.967 52.9955C302.773 46.9575 317.73 45.9258 334.115 50.0017C339.052 51.2582 344.306 52.9847 349.744 55.2822C353.118 56.6851 356.389 58.1455 359.908 59.7102C365.956 62.422 372.163 65.179 378.711 67.5304C386.393 70.2717 393.909 72.1356 401.147 73.9386C405.881 75.1203 410.41 76.2272 414.836 77.5812C416.801 78.1538 418.737 78.7699 420.643 79.4295L421.058 78.8202L420.883 78.7018Z" fill="url(#paint30_linear_566_20837)"/>
</g>
<g opacity="0.33">
<path d="M421.088 78.3946C419.429 77.8394 417.77 77.2842 416.038 76.7429C411.438 75.2705 406.734 74.0453 401.797 72.7888C394.661 70.9284 387.322 68.9931 379.843 66.3267C373.703 64.1249 367.786 61.5019 362.043 58.9973C358.16 57.3124 354.482 55.7024 350.744 54.1795C345.247 51.969 339.876 50.2267 334.85 49.1008C318.084 45.2112 302.919 46.5475 290.964 52.993C285.639 55.864 280.772 59.7464 275.567 63.8447C268.656 69.3289 261.554 75.001 252.481 79.0787C237.399 85.8168 219.942 82.4756 200.633 69.2205C192.741 63.7914 184.422 57.3074 175.238 49.4726C172.254 46.9347 169.242 44.2505 166.361 41.6551C160.844 36.7586 155.168 31.627 149.312 27.1361C137.106 17.7556 125.235 11.7209 112.943 8.64575C108.006 7.38922 102.86 6.6271 97.6651 6.40464C90.895 6.06566 83.9857 6.58667 77.2 7.95545C69.3908 9.51928 62.3545 12.7543 54.8935 16.146L54.2633 16.4176C48.0331 19.3096 42.3252 24.1477 37.0265 28.9459C25.9277 39.0922 13.4064 46.7441 2.70411 51.8142L2.1123 52.6846C13.0775 47.6023 25.9939 39.8373 37.4026 29.3288C42.6282 24.5446 48.3065 19.7499 54.4636 16.8719L55.0938 16.6003C62.5112 13.179 69.5179 9.98758 77.254 8.43769C89.1873 6.05015 101.476 6.32259 112.734 9.1402C124.91 12.1997 136.781 18.2344 148.899 27.5557C154.756 32.0466 160.461 37.1346 165.948 42.0747C168.873 44.6997 171.885 47.3838 174.826 49.8921C184.053 57.7566 192.372 64.2406 200.264 69.6697C219.747 83.0431 237.394 86.3861 252.652 79.5766C261.798 75.4849 268.93 69.7692 275.84 64.2851C281.002 60.1572 285.869 56.2748 291.164 53.4473C303.017 47.0594 318.108 45.737 334.685 49.6248C339.681 50.7943 345.008 52.5069 350.506 54.7174C354.243 56.2403 357.878 57.8208 361.761 59.5056C367.504 62.0103 373.451 64.5897 379.634 66.821C387.127 69.5606 394.496 71.4523 401.632 73.3128C406.613 74.5989 411.243 75.838 415.872 77.2669C417.488 77.7925 419.176 78.3042 420.762 78.8733L421.088 78.3946V78.3946Z" fill="url(#paint31_linear_566_20837)"/>
</g>
</g>
<defs>
<linearGradient id="paint0_linear_566_20837" x1="-5.19632" y1="50.6873" x2="387.438" y2="77.6128" gradientUnits="userSpaceOnUse">
<stop stop-color="#FC81FF"/>
<stop offset="0.492708" stop-color="#FF4910"/>
<stop offset="1" stop-color="#FF1074"/>
</linearGradient>
<linearGradient id="paint1_linear_566_20837" x1="-4.85399" y1="50.4722" x2="387.581" y2="77.3313" gradientUnits="userSpaceOnUse">
<stop stop-color="#FC81FF"/>
<stop offset="0.492708" stop-color="#FF4910"/>
<stop offset="1" stop-color="#FF1074"/>
</linearGradient>
<linearGradient id="paint2_linear_566_20837" x1="-4.65691" y1="50.0882" x2="387.559" y2="76.3948" gradientUnits="userSpaceOnUse">
<stop stop-color="#FC81FF"/>
<stop offset="0.492708" stop-color="#FF4910"/>
<stop offset="1" stop-color="#FF1074"/>
</linearGradient>
<linearGradient id="paint3_linear_566_20837" x1="-4.37232" y1="49.7636" x2="387.577" y2="75.6491" gradientUnits="userSpaceOnUse">
<stop stop-color="#FC81FF"/>
<stop offset="0.492708" stop-color="#FF4910"/>
<stop offset="1" stop-color="#FF1074"/>
</linearGradient>
<linearGradient id="paint4_linear_566_20837" x1="-4.11813" y1="49.4784" x2="387.471" y2="74.5405" gradientUnits="userSpaceOnUse">
<stop stop-color="#FC81FF"/>
<stop offset="0.492708" stop-color="#FF4910"/>
<stop offset="1" stop-color="#FF1074"/>
</linearGradient>
<linearGradient id="paint5_linear_566_20837" x1="-3.87364" y1="48.9366" x2="387.489" y2="73.5521" gradientUnits="userSpaceOnUse">
<stop stop-color="#FC81FF"/>
<stop offset="0.492708" stop-color="#FF4910"/>
<stop offset="1" stop-color="#FF1074"/>
</linearGradient>
<linearGradient id="paint6_linear_566_20837" x1="-3.56071" y1="48.5709" x2="387.598" y2="72.8956" gradientUnits="userSpaceOnUse">
<stop stop-color="#FC81FF"/>
<stop offset="0.492708" stop-color="#FF4910"/>
<stop offset="1" stop-color="#FF1074"/>
</linearGradient>
<linearGradient id="paint7_linear_566_20837" x1="-3.34089" y1="48.3371" x2="387.772" y2="72.5721" gradientUnits="userSpaceOnUse">
<stop stop-color="#FC81FF"/>
<stop offset="0.492708" stop-color="#FF4910"/>
<stop offset="1" stop-color="#FF1074"/>
</linearGradient>
<linearGradient id="paint8_linear_566_20837" x1="-3.30949" y1="47.9107" x2="387.865" y2="71.9439" gradientUnits="userSpaceOnUse">
<stop stop-color="#FC81FF"/>
<stop offset="0.492708" stop-color="#FF4910"/>
<stop offset="1" stop-color="#FF1074"/>
</linearGradient>
<linearGradient id="paint9_linear_566_20837" x1="-2.77686" y1="47.5057" x2="388.172" y2="71.3144" gradientUnits="userSpaceOnUse">
<stop stop-color="#FC81FF"/>
<stop offset="0.492708" stop-color="#FF4910"/>
<stop offset="1" stop-color="#FF1074"/>
</linearGradient>
<linearGradient id="paint10_linear_566_20837" x1="-2.65808" y1="47.3305" x2="388.245" y2="71.0492" gradientUnits="userSpaceOnUse">
<stop stop-color="#FC81FF"/>
<stop offset="0.492708" stop-color="#FF4910"/>
<stop offset="1" stop-color="#FF1074"/>
</linearGradient>
<linearGradient id="paint11_linear_566_20837" x1="-2.73804" y1="47.4469" x2="387.576" y2="69.9252" gradientUnits="userSpaceOnUse">
<stop stop-color="#FC81FF"/>
<stop offset="0.492708" stop-color="#FF4910"/>
<stop offset="1" stop-color="#FF1074"/>
</linearGradient>
<linearGradient id="paint12_linear_566_20837" x1="-2.86663" y1="47.7407" x2="387.384" y2="70.3094" gradientUnits="userSpaceOnUse">
<stop stop-color="#FC81FF"/>
<stop offset="0.492708" stop-color="#FF4910"/>
<stop offset="1" stop-color="#FF1074"/>
</linearGradient>
<linearGradient id="paint13_linear_566_20837" x1="-3.0012" y1="47.8388" x2="387.159" y2="70.3397" gradientUnits="userSpaceOnUse">
<stop stop-color="#FC81FF"/>
<stop offset="0.492708" stop-color="#FF4910"/>
<stop offset="1" stop-color="#FF1074"/>
</linearGradient>
<linearGradient id="paint14_linear_566_20837" x1="-3.26555" y1="48.0429" x2="387.052" y2="70.6343" gradientUnits="userSpaceOnUse">
<stop stop-color="#FC81FF"/>
<stop offset="0.492708" stop-color="#FF4910"/>
<stop offset="1" stop-color="#FF1074"/>
</linearGradient>
<linearGradient id="paint15_linear_566_20837" x1="-3.25233" y1="48.1155" x2="386.998" y2="70.6842" gradientUnits="userSpaceOnUse">
<stop stop-color="#FC81FF"/>
<stop offset="0.492708" stop-color="#FF4910"/>
<stop offset="1" stop-color="#FF1074"/>
</linearGradient>
<linearGradient id="paint16_linear_566_20837" x1="-3.60759" y1="48.4528" x2="386.918" y2="71.338" gradientUnits="userSpaceOnUse">
<stop stop-color="#FC81FF"/>
<stop offset="0.492708" stop-color="#FF4910"/>
<stop offset="1" stop-color="#FF1074"/>
</linearGradient>
<linearGradient id="paint17_linear_566_20837" x1="-3.3309" y1="48.512" x2="387.148" y2="71.3067" gradientUnits="userSpaceOnUse">
<stop stop-color="#FC81FF"/>
<stop offset="0.492708" stop-color="#FF4910"/>
<stop offset="1" stop-color="#FF1074"/>
</linearGradient>
<linearGradient id="paint18_linear_566_20837" x1="-3.74432" y1="48.7469" x2="386.902" y2="71.9705" gradientUnits="userSpaceOnUse">
<stop stop-color="#FC81FF"/>
<stop offset="0.492708" stop-color="#FF4910"/>
<stop offset="1" stop-color="#FF1074"/>
</linearGradient>
<linearGradient id="paint19_linear_566_20837" x1="-3.91976" y1="49.0977" x2="387.444" y2="73.8251" gradientUnits="userSpaceOnUse">
<stop stop-color="#FC81FF"/>
<stop offset="0.492708" stop-color="#FF4910"/>
<stop offset="1" stop-color="#FF1074"/>
</linearGradient>
<linearGradient id="paint20_linear_566_20837" x1="-3.92028" y1="49.0987" x2="387.489" y2="73.9153" gradientUnits="userSpaceOnUse">
<stop stop-color="#FC81FF"/>
<stop offset="0.492708" stop-color="#FF4910"/>
<stop offset="1" stop-color="#FF1074"/>
</linearGradient>
<linearGradient id="paint21_linear_566_20837" x1="-4.04088" y1="49.276" x2="387.505" y2="74.3605" gradientUnits="userSpaceOnUse">
<stop stop-color="#FC81FF"/>
<stop offset="0.492708" stop-color="#FF4910"/>
<stop offset="1" stop-color="#FF1074"/>
</linearGradient>
<linearGradient id="paint22_linear_566_20837" x1="-4.16145" y1="49.453" x2="387.519" y2="74.8049" gradientUnits="userSpaceOnUse">
<stop stop-color="#FC81FF"/>
<stop offset="0.492708" stop-color="#FF4910"/>
<stop offset="1" stop-color="#FF1074"/>
</linearGradient>
<linearGradient id="paint23_linear_566_20837" x1="-4.41836" y1="49.7335" x2="387.641" y2="75.5079" gradientUnits="userSpaceOnUse">
<stop stop-color="#FC81FF"/>
<stop offset="0.492708" stop-color="#FF4910"/>
<stop offset="1" stop-color="#FF1074"/>
</linearGradient>
<linearGradient id="paint24_linear_566_20837" x1="-4.43583" y1="49.8524" x2="387.691" y2="75.8709" gradientUnits="userSpaceOnUse">
<stop stop-color="#FC81FF"/>
<stop offset="0.492708" stop-color="#FF4910"/>
<stop offset="1" stop-color="#FF1074"/>
</linearGradient>
<linearGradient id="paint25_linear_566_20837" x1="-4.45187" y1="49.973" x2="387.675" y2="76.3237" gradientUnits="userSpaceOnUse">
<stop stop-color="#FC81FF"/>
<stop offset="0.492708" stop-color="#FF4910"/>
<stop offset="1" stop-color="#FF1074"/>
</linearGradient>
<linearGradient id="paint26_linear_566_20837" x1="-4.62982" y1="50.0486" x2="387.762" y2="76.7091" gradientUnits="userSpaceOnUse">
<stop stop-color="#FC81FF"/>
<stop offset="0.492708" stop-color="#FF4910"/>
<stop offset="1" stop-color="#FF1074"/>
</linearGradient>
<linearGradient id="paint27_linear_566_20837" x1="-4.81187" y1="50.3156" x2="387.843" y2="77.5055" gradientUnits="userSpaceOnUse">
<stop stop-color="#FC81FF"/>
<stop offset="0.492708" stop-color="#FF4910"/>
<stop offset="1" stop-color="#FF1074"/>
</linearGradient>
<linearGradient id="paint28_linear_566_20837" x1="-4.81713" y1="50.5082" x2="387.966" y2="78.0719" gradientUnits="userSpaceOnUse">
<stop stop-color="#FC81FF"/>
<stop offset="0.492708" stop-color="#FF4910"/>
<stop offset="1" stop-color="#FF1074"/>
</linearGradient>
<linearGradient id="paint29_linear_566_20837" x1="-4.89334" y1="50.7201" x2="388.15" y2="78.7009" gradientUnits="userSpaceOnUse">
<stop stop-color="#FC81FF"/>
<stop offset="0.492708" stop-color="#FF4910"/>
<stop offset="1" stop-color="#FF1074"/>
</linearGradient>
<linearGradient id="paint30_linear_566_20837" x1="-4.95708" y1="50.8105" x2="388.323" y2="79.1636" gradientUnits="userSpaceOnUse">
<stop stop-color="#FC81FF"/>
<stop offset="0.492708" stop-color="#FF4910"/>
<stop offset="1" stop-color="#FF1074"/>
</linearGradient>
<linearGradient id="paint31_linear_566_20837" x1="-5.06314" y1="50.8717" x2="388.274" y2="79.6832" gradientUnits="userSpaceOnUse">
<stop stop-color="#FC81FF"/>
<stop offset="0.492708" stop-color="#FF4910"/>
<stop offset="1" stop-color="#FF1074"/>
</linearGradient>
</defs>
</svg>
