<svg width="295" height="68" viewBox="0 0 295 68" fill="none" xmlns="http://www.w3.org/2000/svg">
<mask id="mask0_565_6590" style="mask-type:alpha" maskUnits="userSpaceOnUse" x="0" y="0" width="295" height="68">
<rect x="294.706" y="67.6518" width="294.699" height="67.6519" transform="rotate(179.994 294.706 67.6518)" fill="#D9D9D9"/>
</mask>
<g mask="url(#mask0_565_6590)">
<g opacity="0.33">
<path d="M-180.408 -8.70886C-178.259 -8.79281 -176.178 -8.99568 -174.013 -9.29295C-159.015 -11.3983 -147.109 -18.4277 -135.563 -25.2455C-132.645 -26.9853 -129.852 -28.5834 -127.004 -30.1458C-117.148 -35.5376 -107.72 -38.679 -98.9418 -39.4169C-91.8174 -40.0447 -85.3918 -39.1941 -79.3907 -36.6858C-67.1408 -31.6561 -59.2295 -20.5309 -53.7425 -11.3623C-51.2646 -7.21211 -48.87 -2.9675 -46.5982 1.12239C-40.5446 12.0011 -34.2867 23.2365 -25.4401 32.5169C-19.6016 38.6404 -12.4743 43.5966 -4.81273 46.9669C5.3888 51.4764 16.1896 52.9539 26.3791 51.2035C36.0029 49.6043 44.8052 45.3098 53.3313 41.1325C61.4013 37.178 69.7059 33.1536 78.4898 31.5265C93.672 28.7226 106.138 32.3306 119.32 36.1083C129.463 39.017 139.868 42.0219 152.247 42.2981C167.477 42.5769 182.073 38.8689 195.529 34.7876C197.268 34.2867 198.993 33.7027 200.732 33.2017C211.179 29.9825 221.061 26.9146 232.398 26.5097C244.52 26.097 257.445 29.1857 269.88 35.3782C283.275 42.0497 295.725 52.048 304.777 63.5465C312.204 72.8672 317.891 82.9852 322.46 93.4889L322.96 92.9223C318.404 82.5017 312.731 72.4668 305.358 63.1819C296.196 51.6117 283.692 41.5776 270.241 34.8702C257.697 28.606 244.579 25.54 232.402 25.9169C220.969 26.3332 211.032 29.3653 200.543 32.6316C198.859 33.1685 197.079 33.7166 195.34 34.2176C181.926 38.2517 167.426 41.9483 152.293 41.6581C140.065 41.4064 129.66 38.4015 119.613 35.4815C106.322 31.6321 93.8142 28.0712 78.439 30.8978C69.5586 32.5363 61.1707 36.6552 53.0458 40.5738C44.5614 44.704 35.7592 48.9985 26.2735 50.539C16.2221 52.2308 5.57262 50.7779 -4.47758 46.2929C-12.0295 42.9943 -19.0603 38.0266 -24.8856 31.9862C-33.719 22.7888 -39.6497 12.0649 -45.9756 0.710642C-48.2474 -3.37924 -50.6004 -7.67112 -53.12 -11.7741C-58.6618 -20.9785 -66.641 -32.2227 -79.0555 -37.3599C-85.1531 -39.8568 -91.6884 -40.7791 -99.0058 -40.1286C-107.88 -39.3793 -117.446 -36.1793 -127.344 -30.7403C-130.15 -29.2252 -132.93 -27.5439 -135.903 -25.8399C-147.366 -19.1165 -159.23 -12.1345 -174.077 -10.0047C-176.049 -9.73012 -177.937 -9.54995 -179.838 -9.45289L-180.462 -8.74474L-180.408 -8.70886Z" fill="url(#paint0_linear_565_6590)"/>
</g>
<g opacity="0.33">
<path d="M-179.408 -9.84198C-177.948 -9.92942 -176.501 -10.1 -175.012 -10.3177C-159.82 -12.4458 -147.858 -19.7357 -136.241 -26.7309C-133.42 -28.4594 -130.723 -30.0462 -127.972 -31.5972C-118.142 -37.1551 -108.685 -40.4267 -99.8792 -41.295C-92.6716 -42.0172 -86.2459 -41.1666 -80.2032 -38.7055C-67.8567 -33.6872 -59.9873 -22.5147 -54.5003 -13.3462C-51.9675 -9.16011 -49.6144 -4.86826 -47.3294 -0.69532C-41.3174 10.2306 -35.1561 21.4773 -26.2963 30.8408C-20.4994 37.0115 -13.359 42.0508 -5.69744 45.4211C4.51729 50.0137 15.3182 51.4912 25.6173 49.8125C35.1863 48.1775 43.9886 43.8829 52.5147 39.7056C60.6812 35.7397 69.069 31.6209 77.9078 30.0297C93.1032 27.3088 105.499 31.0944 118.569 35.0968C128.794 38.2074 139.28 41.4142 151.769 41.7621C167.205 42.1012 182.382 38.0287 195.107 33.9912C196.929 33.3958 198.751 32.8004 200.573 32.205C210.994 28.8197 220.808 25.6328 232.077 25.1091C244.228 24.566 257.277 27.5132 269.808 33.6943C283.342 40.3073 295.792 50.3054 304.953 61.8756C312.572 71.47 318.367 81.9561 323.002 92.875L323.501 92.3085C318.88 81.4727 313.098 71.0696 305.493 61.5583C296.276 49.9523 283.717 39.8823 270.128 33.2335C257.446 27.0279 244.287 24.0091 231.998 24.6107C220.633 25.1459 210.722 28.344 200.301 31.7293C198.479 32.3247 196.657 32.9201 194.835 33.5155C182.151 37.5058 167.071 41.567 151.731 41.2166C139.394 40.8932 128.908 37.6863 118.738 34.6115C105.517 30.5847 93.0657 26.7632 77.6773 29.5068C68.6872 31.0736 60.2577 35.2396 52.0495 39.2526C43.5651 43.3828 34.8177 47.7132 25.332 49.2538C15.2806 50.9456 4.57622 49.4568 -5.52883 44.9359C-13.0939 41.5542 -20.1246 36.5866 -25.9083 30.499C-34.6584 21.2072 -40.5893 10.4832 -46.8186 -0.882407C-49.1036 -5.05535 -51.5114 -9.38301 -54.0025 -13.6163C-59.5027 -22.8679 -67.4952 -34.1951 -80.0478 -39.2737C-86.2418 -41.7593 -92.7639 -42.5985 -100.123 -41.9008C-109.026 -41.0212 -118.578 -37.7382 -128.492 -32.0859C-131.243 -30.5349 -133.885 -28.9123 -136.761 -27.2196C-148.281 -20.2358 -160.215 -13.0761 -175.255 -10.9236C-176.51 -10.7758 -177.709 -10.5922 -178.922 -10.4916L-179.463 -9.87786L-179.408 -9.84198Z" fill="url(#paint1_linear_565_6590)"/>
</g>
<g opacity="0.33">
<path d="M-178.411 -10.9766C-177.64 -11.0676 -176.909 -11.1114 -176.151 -11.2854C-160.821 -13.4721 -148.733 -20.9035 -137.102 -28.1121C-134.377 -29.8292 -131.777 -31.4046 -129.122 -32.9443C-119.318 -38.6683 -109.834 -42.0702 -101.041 -43.0215C-93.8461 -43.8267 -87.3372 -43.0705 -81.2397 -40.5736C-68.7551 -35.6139 -60.9139 -24.3112 -55.4686 -15.0954C-52.9774 -10.8622 -50.5564 -6.45139 -48.3131 -2.23124C-42.3975 8.70602 -36.223 20.0358 -27.4597 29.4107C-21.608 35.6172 -14.5091 40.7037 -6.83439 44.1571C3.43518 48.7855 14.2492 50.346 24.59 48.6201C34.1174 47.0323 42.9612 42.6906 51.4456 38.5604C59.6538 34.5474 68.1799 30.37 77.17 28.8032C92.337 26.2126 104.663 30.1757 117.717 34.3914C127.969 37.6681 138.591 41.1128 151.176 41.4493C166.818 41.8487 181.872 37.6214 194.571 33.4178C196.532 32.7638 198.395 32.1212 200.314 31.5144C210.612 27.9744 220.358 24.6686 231.655 24.0146C243.876 23.2941 257.008 26.1468 269.636 32.3166C283.266 38.9182 295.813 48.905 304.974 60.4752C312.839 70.379 318.741 81.2332 323.442 92.5674L323.941 92.0009C319.254 80.7498 313.365 69.9786 305.568 60.1937C296.297 48.5518 283.641 38.4933 269.956 31.8558C257.177 25.6616 243.893 22.7844 231.576 23.5163C220.237 24.2175 210.436 27.4874 200.042 31.0388C198.178 31.6814 196.218 32.3354 194.299 32.9421C181.642 37.0986 166.642 41.3617 151.193 40.9395C138.704 40.5916 128.137 37.1829 117.982 33.8948C104.777 29.6546 92.3958 25.6557 77.0359 28.269C67.9493 29.8472 59.4233 34.0245 51.1735 38.0848C42.7439 42.2508 33.9833 46.4982 24.5524 48.0746C14.4046 49.7777 3.7419 48.2417 -6.37634 43.6378C-13.9414 40.2561 -20.9854 35.2054 -26.7822 29.0348C-35.4907 19.6957 -41.3799 8.92454 -47.5676 -2.48832C-49.8658 -6.74432 -52.232 -11.1192 -54.778 -15.3883C-60.2914 -24.723 -68.2422 -36.0974 -80.8913 -41.1646C-87.0854 -43.6502 -93.7455 -44.4309 -101.091 -43.6501C-110.023 -42.6403 -119.604 -39.2269 -129.491 -33.4085C-132.146 -31.8689 -134.691 -30.2575 -137.47 -28.5763C-149.06 -21.4149 -160.997 -13.959 -176.188 -11.8309C-176.712 -11.7268 -177.25 -11.7058 -177.732 -11.649L-178.357 -10.9409L-178.411 -10.9766Z" fill="url(#paint2_linear_565_6590)"/>
</g>
<g opacity="0.33">
<path d="M-177.327 -12.2034L-177.231 -12.2149C-161.709 -14.4243 -149.606 -22.0692 -137.917 -29.5383C-135.288 -31.244 -132.785 -32.808 -130.227 -34.3363C-120.449 -40.2264 -110.936 -43.7586 -102.115 -44.8401C-94.8369 -45.7398 -88.328 -44.9836 -82.202 -42.617C-69.5112 -37.5969 -61.3716 -25.6525 -56.3629 -17.0199C-53.8586 -12.7036 -51.4791 -8.24564 -49.1261 -3.95379C-43.2522 7.03067 -37.1742 18.3718 -28.4525 27.7939C-22.6424 34.0477 -15.5304 39.2172 -7.85565 42.6706C2.42712 47.3821 13.3376 48.9313 23.6368 47.2526C33.1641 45.6648 41.9116 41.3344 50.4377 37.157C58.7291 33.0496 67.2967 28.825 76.3965 27.3299C91.5767 24.8224 103.888 28.9987 116.872 33.3919C127.204 36.8706 137.908 40.5172 150.603 40.9254C166.354 41.3965 181.382 37.0031 194.055 32.6333C196.057 31.9321 198.059 31.231 200.06 30.5298C210.291 26.8709 219.968 23.4462 231.239 22.626C243.488 21.7753 256.704 24.5336 269.512 30.5975C283.184 37.152 295.881 47.1633 305.098 58.7694C313.331 69.1375 319.341 80.3597 323.971 91.8714L324.471 91.3048C319.812 79.9234 313.857 68.737 305.637 58.452C296.353 46.727 283.6 36.6798 269.777 30.1009C256.86 23.9653 243.534 21.1353 231.092 22.0088C219.766 22.7931 210.047 26.265 199.72 29.9353C197.718 30.6365 195.771 31.3736 193.715 32.0389C181.139 36.3973 166.152 40.7434 150.552 40.2968C137.953 39.8772 127.36 36.3023 117.069 32.7764C103.975 28.3115 91.5128 24.1107 76.1945 26.6768C66.9982 28.1833 58.3889 32.455 50.0426 36.5266C41.6131 40.6927 32.9072 44.9759 23.4764 46.5523C13.3285 48.2554 2.61097 46.6835 -7.56212 42.0438C-15.1404 38.579 -22.2393 33.4925 -27.9396 27.3104C-36.6065 17.9242 -42.3992 7.14174 -48.5452 -4.31833C-50.8566 -8.65739 -53.2776 -13.0682 -55.782 -17.3845C-60.8455 -26.053 -69.0532 -38.1163 -82.0049 -43.2325C-88.2406 -45.6709 -94.9009 -46.4515 -102.275 -45.5405C-111.193 -44.4476 -120.803 -40.904 -130.663 -34.9195C-133.222 -33.3912 -135.67 -31.7912 -138.354 -30.1213C-149.821 -22.8052 -161.648 -15.2776 -176.716 -12.9947L-177.382 -12.2393L-177.327 -12.2034Z" fill="url(#paint3_linear_565_6590)"/>
</g>
<g opacity="0.33">
<path d="M-176.12 -13.5727C-161.49 -16.1423 -149.87 -23.7304 -138.692 -31.0123C-136.16 -32.7067 -133.753 -34.2595 -131.291 -35.7764C-121.54 -41.8326 -112.053 -45.5309 -103.149 -46.7069C-95.8292 -47.6538 -89.3335 -46.9806 -83.111 -44.6253C-70.2821 -39.6638 -62.1708 -27.5891 -57.1622 -18.9565C-54.603 -14.6043 -52.2652 -10.0992 -49.9406 -5.67705C-44.1083 5.35463 -38.1269 16.7072 -29.392 26.2123C-23.6236 32.5133 -16.4567 37.7187 -8.76871 41.2551C1.5689 46.0024 12.4926 47.6346 22.8334 45.9087C32.3608 44.321 41.1082 39.9905 49.5794 35.7773C57.9125 31.6226 66.5766 27.3867 75.7729 25.8803C90.9662 23.4558 103.165 27.8569 116.189 32.4992C126.562 36.2271 137.291 40.0397 150.137 40.4724C166.095 41.0039 181.788 36.1515 193.647 31.9199C195.745 31.2073 197.83 30.4117 199.819 29.6275C209.981 25.8496 219.632 22.2588 230.835 21.3198C243.154 20.2915 256.453 22.9555 269.357 29.008C283.167 35.5039 295.865 45.5152 305.191 57.1929C313.615 67.8347 319.746 79.5081 324.429 91.3519L324.929 90.7854C320.259 79.0246 314.141 67.4342 305.73 56.8756C296.391 45.1148 283.639 35.0675 269.719 28.5C256.705 22.3757 243.255 19.6874 230.784 20.6911C219.485 21.6416 209.834 25.2323 199.575 29.0216C197.531 29.77 195.446 30.5656 193.403 31.314C181.599 35.5815 165.99 40.3394 150.183 39.8325C137.53 39.377 126.8 35.5643 116.483 31.8723C103.404 27.1941 91.012 22.8158 75.6673 25.2158C66.3197 26.6978 57.6688 31.0169 49.2392 35.1829C40.8097 39.3489 32.1587 43.6679 22.7278 45.2443C12.58 46.9474 1.80765 45.3397 -8.42028 40.6641C-16.0534 37.1635 -23.1107 32.0298 -28.8243 25.7647C-37.4494 16.3312 -43.431 4.97868 -49.2501 -5.96994C-51.5615 -10.309 -53.954 -14.85 -56.4715 -19.2494C-61.4934 -27.9651 -69.6727 -40.1587 -82.7626 -45.2163C-89.0947 -47.6433 -95.7418 -48.3409 -103.199 -47.3355C-112.201 -46.1481 -121.784 -42.4384 -131.618 -36.2878C-134.08 -34.7709 -136.487 -33.2181 -139.019 -31.5238C-149.975 -24.3948 -161.278 -16.9712 -175.399 -14.2923L-176.065 -13.5369L-176.12 -13.5727Z" fill="url(#paint4_linear_565_6590)"/>
</g>
<g opacity="0.33">
<path d="M-176.285 -13.3827C-161.985 -16.1674 -150.612 -23.7686 -139.695 -31.1468C-137.205 -32.794 -134.894 -34.3353 -132.584 -35.8767C-122.818 -42.1463 -113.344 -45.9276 -104.452 -47.1866C-97.1045 -48.2638 -90.5123 -47.602 -84.2898 -45.2467C-71.3645 -40.2966 -63.2949 -28.1748 -58.273 -19.4591C-55.7006 -15.0238 -53.3496 -10.4356 -51.025 -6.01347C-45.2892 5.02957 -39.3494 16.4294 -30.6562 25.9817C-24.8745 32.3657 -17.7492 37.6184 -10.0613 41.1548C0.289553 45.9851 11.2681 47.6531 21.6506 45.88C31.1779 44.2922 39.9253 39.9619 48.3417 35.7128C56.7712 31.5468 65.4638 27.1805 74.7697 25.7458C89.9347 23.4515 102.16 28.0187 115.114 32.8386C125.567 36.7684 136.378 40.7831 149.334 41.2875C165.444 41.8434 181.068 36.8721 192.901 32.4743C195.082 31.6674 197.167 30.8718 199.294 30.029C209.43 26.085 219.013 22.3753 230.203 21.3532C242.55 20.1947 255.974 22.7169 268.975 28.7581C282.881 35.2426 295.675 45.2425 305.001 56.9203C313.48 67.5979 319.624 79.3544 324.334 91.3644L324.834 90.7978C320.095 78.918 314.061 67.2333 305.595 56.6388C296.201 44.8422 283.352 34.8063 269.336 28.2502C256.226 22.1373 242.651 19.5906 230.152 20.7246C218.866 21.7581 209.241 25.5149 199.008 29.4702C196.882 30.3131 194.797 31.1087 192.615 31.9157C180.879 36.302 165.31 41.3092 149.338 40.6947C136.534 40.2148 125.819 36.1888 115.421 32.2948C102.357 27.4033 90.0769 22.8003 74.6773 25.1644C65.2749 26.6106 56.5276 30.9409 48.0147 35.2014C39.64 39.4032 30.9341 43.6864 21.5033 45.2628C11.2589 46.9773 0.486574 45.3696 -9.71291 40.5638C-17.346 37.0632 -24.4165 31.8464 -30.0884 25.5341C-38.672 16.0534 -44.6119 4.65365 -50.3893 -6.34219C-52.7139 -10.7643 -55.0648 -15.3525 -57.6372 -19.7877C-62.6723 -28.5865 -70.8099 -40.8273 -83.9414 -45.8377C-90.2736 -48.2647 -97.0587 -48.9038 -104.503 -47.8152C-113.533 -46.4976 -123.048 -42.6691 -132.952 -36.3409C-135.318 -34.8354 -137.628 -33.2941 -140.118 -31.6469C-150.772 -24.469 -161.882 -17.0681 -175.632 -14.2213L-176.34 -13.4186L-176.285 -13.3827Z" fill="url(#paint5_linear_565_6590)"/>
</g>
<g opacity="0.33">
<path d="M-176.994 -12.5794C-162.719 -15.5302 -151.068 -23.545 -140.704 -30.6888C-138.31 -32.3246 -136.096 -33.8546 -133.827 -35.3488C-124.088 -41.7844 -114.586 -45.6961 -105.666 -47.0854C-98.2761 -48.2098 -91.697 -47.6309 -85.3781 -45.287C-72.3562 -40.3483 -64.2735 -28.1433 -59.3481 -19.4163C-56.8174 -14.9338 -54.4115 -10.3097 -52.1286 -5.84042C-46.4345 5.24983 -40.5362 16.6967 -31.9262 26.3435C-26.1314 32.8106 -19.0062 38.0632 -11.305 41.6827C-0.940997 46.5961 10.0925 48.3 20.4749 46.5269C30.0023 44.9392 38.6948 40.5729 47.1243 36.4069C55.5955 32.1936 64.3846 27.8161 73.7453 26.4171C88.9235 24.206 101.134 28.9865 114.018 33.9838C124.497 38.0798 135.39 42.2963 148.414 42.9196C164.633 43.5472 180.23 38.4098 192.078 33.7988C194.301 32.9446 196.47 32.0546 198.638 31.1646C208.706 27.1017 218.263 23.2259 229.426 22.0377C241.844 20.7017 255.364 23.2125 268.503 29.1952C282.547 35.6211 295.438 45.6097 304.777 57.3705C313.201 68.0122 319.345 79.7686 324 91.7428L324.5 91.1763C319.858 79.2851 313.727 67.6118 305.316 57.0531C295.868 45.2206 282.964 35.149 268.81 28.6514C255.561 22.5971 241.944 20.0976 229.334 21.4563C218.074 22.6559 208.462 26.4958 198.311 30.6531C196.143 31.5431 193.974 32.4332 191.751 33.2874C180.041 37.8398 164.54 42.9659 148.418 42.3269C135.503 41.7753 124.708 37.5473 114.283 33.4872C101.289 28.4182 88.9693 23.566 73.5566 25.8471C64.0445 27.2215 55.2137 31.6464 46.7009 35.9068C38.3262 40.1087 29.6752 44.4277 20.2443 46.0041C9.99999 47.7187 -0.827169 46.075 -11.0815 41.2333C-18.673 37.6855 -25.7018 32.4215 -31.4834 26.0375C-40.0253 16.5096 -45.9236 5.06267 -51.6178 -6.02758C-53.9007 -10.4969 -56.3065 -15.121 -58.8921 -19.6393C-63.8855 -28.4852 -72.0363 -40.8091 -85.306 -45.761C-91.7346 -48.1766 -98.465 -48.7797 -105.993 -47.5968C-115.009 -46.1961 -124.594 -42.1901 -134.431 -35.743C-136.699 -34.2488 -138.955 -32.6717 -141.307 -31.0831C-151.893 -23.7862 -162.838 -16.2778 -176.466 -13.2762L-177.049 -12.6153L-176.994 -12.5794Z" fill="url(#paint6_linear_565_6590)"/>
</g>
<g opacity="0.33">
<path d="M-177.743 -11.7299C-163.592 -14.8355 -152.105 -22.9577 -141.809 -30.2204C-139.511 -31.8449 -137.394 -33.3635 -135.167 -34.8105C-125.453 -41.4123 -115.978 -45.49 -106.974 -46.9737C-99.5565 -48.2284 -92.8809 -47.661 -86.562 -45.3171C-73.4569 -40.4728 -65.3609 -28.1847 -60.4223 -19.3746C-57.8784 -14.8091 -55.5143 -10.1378 -53.1765 -5.63267C-47.524 5.5048 -41.6674 16.999 -33.1539 26.6571C-27.3591 33.1242 -20.2622 38.5071 -12.561 42.1266C-2.14216 47.0758 8.89122 48.7797 19.3285 47.0424C28.8559 45.4547 37.5484 41.0884 45.9231 36.8866C54.4776 32.5789 63.3083 28.1541 72.7788 26.8269C87.9701 24.6988 100.11 29.6567 113.034 34.9032C123.595 39.2011 134.527 43.6669 147.647 44.2788C163.976 44.9781 179.589 39.6274 191.369 34.8975C193.633 33.9961 195.94 33.0474 198.15 32.1102C208.191 27.8812 217.735 23.9224 228.872 22.5681C241.318 21.1018 254.963 23.471 268.198 29.4423C282.339 35.8568 295.327 45.8341 304.679 57.678C313.09 68.2366 319.179 79.9572 323.834 91.9314L324.334 91.3648C319.692 79.4737 313.616 67.8362 305.26 57.3133C295.798 45.3978 282.798 35.3375 268.505 28.8985C255.16 22.8556 241.419 20.4977 228.779 21.9867C217.491 23.3165 208.002 27.3112 197.864 31.5515C195.654 32.4888 193.39 33.3902 191.083 34.3388C179.4 39.0574 163.925 44.3496 147.693 43.6389C134.724 43.0514 123.847 38.6216 113.382 34.3123C100.404 29.03 88.1539 24.0002 72.728 26.1983C63.1194 27.5841 54.1923 32.0202 45.6378 36.3279C37.2631 40.5298 28.6121 44.8488 19.2777 46.4139C9.03333 48.1284 -1.84875 46.449 -12.1579 41.5714C-19.7626 37.9406 -26.8462 32.6407 -32.5313 26.2453C-40.99 16.623 -46.8882 5.17604 -52.4858 -5.92558C-54.782 -10.478 -57.201 -15.185 -59.7866 -19.7033C-64.7384 -28.5965 -72.9025 -41.0034 -86.2686 -45.9439C-92.7389 -48.3123 -99.5107 -48.8683 -107.08 -47.6381C-116.18 -46.143 -125.739 -41.9708 -135.548 -35.3577C-137.721 -33.8749 -139.935 -32.345 -142.232 -30.7205C-152.75 -23.3048 -163.531 -15.6888 -177.035 -12.5325L-177.743 -11.7299Z" fill="url(#paint7_linear_565_6590)"/>
</g>
<g opacity="0.33">
<path d="M-178.449 -10.9269C-164.421 -14.1872 -153.044 -22.381 -142.912 -29.7513C-140.711 -31.3643 -138.635 -32.8359 -136.518 -34.3545C-126.776 -41.0866 -117.327 -45.3304 -108.337 -46.8971C-100.877 -48.199 -94.215 -47.7147 -87.8544 -45.418C-74.6528 -40.5851 -66.5436 -28.214 -61.6466 -19.3567C-59.1027 -14.7912 -56.6705 -10.001 -54.416 -5.40137C-48.86 5.74746 -43.045 17.2888 -34.5184 27.0301C-28.7652 33.5443 -21.6135 38.963 -13.8992 42.6656C-3.41227 47.7337 7.62114 49.4377 18.1001 47.6532C27.6274 46.0654 36.2652 41.6633 44.6399 37.4615C53.236 33.1066 62.2048 28.6232 71.7301 27.3318C86.9346 25.2867 99.0597 30.4581 111.968 35.9179C122.568 40.465 133.527 45.0968 146.757 45.7804C163.195 46.5514 178.782 41.0346 190.535 36.1385C192.883 35.1427 195.231 34.1469 197.483 33.1624C207.456 28.8145 216.974 24.6896 228.097 23.2522C240.614 21.6085 254.342 23.8833 267.674 29.8432C281.898 36.1633 294.94 46.1764 304.347 58.0561C312.703 68.5789 318.792 80.2995 323.448 92.2737L323.947 91.7071C319.305 79.816 313.229 68.1784 304.983 57.7273C295.466 45.7759 282.369 35.727 268.035 29.3352C254.552 23.3509 240.714 21.0044 228.005 22.6708C216.743 24.1668 207.226 28.2917 197.156 32.651C194.904 33.6355 192.556 34.6313 190.208 35.6271C178.551 40.5118 163.103 45.9701 146.816 45.2236C133.737 44.5645 122.833 39.9684 112.288 35.4572C99.3247 29.9615 87.09 24.7185 71.6925 26.7863C61.9743 28.1004 53.0054 32.5838 44.3677 36.9859C35.993 41.1878 27.3969 45.5426 18.0625 47.1077C7.77652 48.8694 -3.11874 47.1069 -13.4411 42.1462C-21.1006 38.4795 -28.1427 33.1325 -33.841 26.6541C-42.258 16.9846 -48.0597 5.5262 -53.6158 -5.62263C-55.9251 -10.2581 -58.3441 -14.9651 -60.9012 -19.6137C-65.8662 -28.5899 -73.9886 -41.0441 -87.4512 -45.9732C-93.9215 -48.3416 -100.832 -48.839 -108.388 -47.5257C-117.516 -45.9004 -127.061 -41.6452 -136.887 -34.8187C-139.017 -33.3831 -141.08 -31.8286 -143.336 -30.2514C-153.689 -22.7281 -164.402 -14.9932 -177.741 -11.7295L-178.449 -10.9269Z" fill="url(#paint8_linear_565_6590)"/>
</g>
<g opacity="0.33">
<path d="M-179.199 -10.0763C-165.335 -13.4441 -154.081 -21.7927 -143.963 -29.2461C-141.804 -30.8119 -139.783 -32.3193 -137.803 -33.7793C-128.088 -40.6775 -118.61 -45.0517 -109.592 -46.7487C-102.145 -48.1336 -95.3448 -47.7078 -88.9842 -45.4111C-75.6861 -40.5895 -67.6185 -28.1713 -62.7084 -19.2309C-60.1512 -14.5823 -57.7607 -9.74489 -55.4514 -5.10946C-49.937 6.08659 -44.2185 17.6393 -35.7335 27.4277C-29.9671 34.025 -22.8571 39.491 -15.1427 43.1936C-4.60098 48.2976 6.4456 50.0845 16.9246 48.3C26.4519 46.7122 35.0896 42.3102 43.4643 38.1083C52.1569 33.7421 61.1126 29.1756 70.7893 27.9087C86.007 25.9467 98.1168 31.3313 110.955 36.9686C121.582 41.6818 132.676 46.5515 145.961 47.271C162.702 48.0909 178.981 41.9849 189.796 37.3686C192.186 36.3255 194.576 35.2824 196.869 34.2508C206.871 29.7726 216.265 25.493 227.417 23.9253C240.059 22.1399 253.774 24.3316 267.244 30.2329C281.565 36.5417 294.703 46.5434 304.165 58.459C312.576 69.0177 318.597 80.6194 323.197 92.5577L323.697 91.9912C319.11 80.1359 313.06 68.6645 304.704 58.1416C295.187 46.1902 281.981 36.0696 267.509 29.7363C253.93 23.7633 239.966 21.5585 227.228 23.3553C215.98 24.9343 206.489 29.2253 196.446 33.7507C194.152 34.7823 191.763 35.8254 189.373 36.8685C178.654 41.4734 162.513 47.521 145.923 46.7255C132.79 46.0305 121.847 41.1852 111.22 36.472C98.2721 30.7631 86.1075 25.3426 70.6004 27.3387C60.7724 28.5811 51.7202 33.1589 42.986 37.5724C34.6661 41.8101 26.0152 46.1291 16.6808 47.6941C6.34 49.4201 -4.59691 47.7048 -14.9325 42.6611C-22.592 38.9944 -29.6471 33.5643 -35.3038 27.0387C-43.734 17.2861 -49.4393 5.81642 -54.9537 -5.37963C-57.2631 -10.0151 -59.6536 -14.8525 -62.2107 -19.5011C-67.1341 -28.5245 -75.2697 -41.0616 -88.8704 -45.9322C-95.4372 -48.2892 -102.292 -48.7508 -109.877 -47.3073C-118.992 -45.5989 -128.608 -41.1662 -138.365 -34.2209C-140.441 -32.7494 -142.42 -31.2894 -144.524 -29.6877C-154.768 -22.0927 -165.371 -14.2861 -178.588 -10.8676L-179.254 -10.1122L-179.199 -10.0763Z" fill="url(#paint9_linear_565_6590)"/>
</g>
<g opacity="0.33">
<path d="M-179.908 -9.2749C-166.167 -12.7975 -155.023 -21.2179 -145.027 -28.826C-142.965 -30.3805 -141.04 -31.8764 -139.06 -33.3364C-129.371 -40.4007 -119.865 -44.9051 -110.818 -46.7324C-103.289 -48.2118 -96.5432 -47.8218 -90.0861 -45.5365C-76.6499 -40.7735 -68.624 -28.308 -63.7555 -19.3204C-61.1851 -14.5888 -58.7945 -9.75139 -56.472 -5.0329C-50.9993 6.21036 -45.2808 17.7631 -36.879 27.6459C-31.1543 34.2904 -23.9894 39.7923 -16.2618 43.5779C-5.70691 48.765 5.43608 50.5406 15.9699 48.7919C25.4424 47.1683 34.135 42.8021 42.4549 38.5643C51.1892 34.1509 60.1864 29.5373 69.9727 28.3421C85.2036 26.4631 97.2982 32.061 110.121 37.9116C120.829 42.8268 131.908 47.9098 145.303 48.7009C162.154 49.5926 178.406 43.3204 189.195 38.538C191.627 37.4477 194.058 36.3575 196.434 35.2314C206.41 30.5871 215.791 26.2244 226.917 24.4906C239.586 22.575 253.427 24.6251 266.993 30.5151C281.452 36.7652 294.645 46.8028 304.162 58.7542C312.518 69.277 318.526 80.7956 323.126 92.7339L323.626 92.1674C319.039 80.3121 313.044 68.8766 304.743 58.3896C295.213 46.3551 281.91 36.2458 267.3 29.9712C253.582 24.0568 239.536 21.9464 226.769 23.8734C215.492 25.5827 206.069 29.9926 196.053 34.6841C193.718 35.763 191.299 36.9363 188.813 37.9907C178.121 42.7617 162.006 48.9754 145.307 48.1082C132.064 47.3415 121.039 42.2944 110.386 37.4151C97.4536 31.4927 85.3042 25.859 69.7838 27.772C59.901 28.9786 50.8073 33.6036 41.9349 38.0757C33.615 42.3134 25.0189 46.6682 15.6845 48.2333C5.34371 49.9592 -5.64803 48.208 -15.9968 43.0813C-23.6695 39.3316 -30.7247 33.9014 -36.3946 27.2927C-44.7831 17.4929 -50.4467 5.97605 -55.8646 -5.23136C-58.1872 -9.94986 -60.5362 -14.8344 -63.1065 -19.5661C-68.0431 -28.6726 -76.137 -41.257 -89.8342 -46.1161C-96.4426 -48.426 -103.34 -48.8404 -111.007 -47.3024C-120.151 -45.4638 -129.753 -40.948 -139.526 -33.7893C-141.505 -32.3292 -143.484 -30.8691 -145.492 -29.2788C-155.668 -21.5649 -166.106 -13.6508 -179.159 -10.1247L-179.908 -9.2749V-9.2749Z" fill="url(#paint10_linear_565_6590)"/>
</g>
<g opacity="0.33">
<path d="M-180.615 -8.47178C-166.996 -12.1491 -156.017 -20.677 -146.172 -28.3096C-144.206 -29.8527 -142.323 -31.3014 -140.44 -32.7501C-130.778 -39.9805 -121.298 -44.651 -112.209 -46.5255C-104.693 -48.0879 -97.864 -47.7924 -91.3521 -45.4713C-77.8194 -40.7196 -69.7803 -28.171 -64.9534 -19.1362C-62.4247 -14.3574 -60.021 -9.43699 -57.6852 -4.63544C-52.2125 6.60782 -46.6321 18.2191 -38.272 28.1492C-32.5889 34.8409 -25.4657 40.39 -17.6833 44.2114C-7.11516 49.4815 4.08278 51.2929 14.6166 49.5443C24.0891 47.9207 32.7268 43.5187 41.1432 39.2696C49.9607 34.7617 59.0545 30.1367 68.8956 28.9773C84.1946 27.2173 96.2607 32.9455 109.027 39.0566C119.774 44.221 130.88 49.4701 144.371 50.2499C161.331 51.2132 177.558 44.7749 188.32 39.8263C190.793 38.6889 193.253 37.4683 195.629 36.3422C205.537 31.5791 214.933 27.003 226.101 25.222C238.744 23.1403 252.722 25.1318 266.482 30.999C281.092 37.2737 294.327 47.2641 303.843 59.2154C312.186 69.6552 318.098 81.1852 322.698 93.1235L323.198 92.557C318.611 80.7017 312.671 69.302 304.383 58.8981C294.798 46.8278 281.453 36.7657 266.747 30.5024C252.836 24.6107 238.761 22.6306 225.925 24.7351C214.619 26.5746 205.223 31.1507 195.219 35.9253C192.843 37.0514 190.383 38.2719 187.91 39.4094C177.244 44.3465 161.156 50.7262 144.347 49.7873C131.048 48.9848 119.943 43.7357 109.305 38.6431C96.3876 32.5074 84.2534 26.6604 68.7199 28.4904C58.6858 29.6725 49.5504 34.3446 40.678 38.8167C32.3582 43.0544 23.8168 47.4451 14.386 49.0215C4.00352 50.7946 -7.00136 48.9605 -17.405 43.7979C-25.1325 40.0123 -32.1461 34.5349 -37.7744 27.879C-46.1213 18.032 -51.7016 6.42069 -57.1195 -4.78671C-59.4004 -9.55242 -61.859 -14.5087 -64.3877 -19.2876C-69.3243 -28.3941 -77.3898 -41.1087 -91.1835 -45.9565C-97.8467 -48.3021 -104.827 -48.6221 -112.482 -47.0012C-121.708 -45.068 -131.284 -40.3862 -141.03 -33.0614C-142.913 -31.6127 -144.796 -30.1639 -146.762 -28.6208C-156.773 -20.7994 -167.102 -12.8136 -180.032 -9.13274L-180.615 -8.47178Z" fill="url(#paint11_linear_565_6590)"/>
</g>
<g opacity="0.33">
<path d="M-181.325 -7.67132C-167.871 -11.4562 -157.001 -20.0558 -147.28 -27.8431C-145.355 -29.339 -143.527 -30.8235 -141.685 -32.225C-132.049 -39.6215 -122.541 -44.4223 -113.424 -46.4271C-105.824 -48.0839 -98.9956 -47.7885 -92.442 -45.5145C-78.8128 -40.7742 -70.8153 -28.1784 -65.9336 -19.1078C-63.35 -14.2931 -60.9331 -9.28958 -58.639 -4.44082C-53.2627 6.8138 -47.6692 18.5082 -39.3507 28.4854C-33.6128 35.213 -26.5312 40.8093 -18.7356 44.7138C-8.11261 50.0198 3.04363 51.8783 13.6739 50.1183C23.1464 48.4947 31.7842 44.0927 40.1457 39.8078C49.0049 35.2527 58.1402 30.5804 68.1327 29.4455C83.4449 27.7686 95.4958 33.7101 108.246 40.0346C119.021 45.365 130.166 50.8634 143.767 51.7148C160.837 52.7499 177.023 46.0623 187.773 41.0308C190.287 39.8461 192.789 38.5784 195.207 37.4051C205.088 32.4758 214.471 27.8167 225.612 25.8696C238.38 23.6462 252.387 25.5074 266.243 31.3632C280.936 37.5435 294.281 47.6055 303.852 59.5928C312.14 69.9967 318.094 81.4795 322.597 93.4292L323.097 92.8627C318.51 81.0074 312.625 69.6435 304.392 59.2754C294.752 47.1692 281.353 37.0713 266.549 30.8194C252.543 24.9391 238.384 23.0534 225.478 25.3354C214.199 27.341 204.761 31.9643 194.838 36.9408C192.378 38.1613 189.919 39.3819 187.404 40.5665C176.751 45.5868 160.648 52.1798 143.784 51.2051C130.376 50.3309 119.286 44.8685 108.566 39.5739C95.6644 33.2249 83.5038 27.2117 67.9987 28.9114C57.8549 30.0218 48.6778 34.7413 39.7222 39.3077C31.4023 43.5454 22.8611 47.9361 13.4851 49.5484C3.04777 51.2856 -7.95721 49.4514 -18.4157 44.253C-26.1016 40.4202 -33.1832 34.824 -38.8114 28.1681C-47.1167 18.2739 -52.6554 6.61534 -58.0316 -4.63928C-60.3257 -9.48805 -62.7428 -14.4916 -65.3263 -19.3063C-70.2212 -28.46 -78.2999 -41.2577 -92.2317 -46.0469C-98.9366 -48.3454 -105.917 -48.6653 -113.655 -46.9499C-122.868 -44.9337 -132.473 -40.1216 -142.192 -32.6307C-144.034 -31.2292 -145.862 -29.7446 -147.786 -28.2487C-157.687 -20.3556 -167.907 -12.2981 -180.617 -8.4739L-181.325 -7.67132Z" fill="url(#paint12_linear_565_6590)"/>
</g>
<g opacity="0.33">
<path d="M-182.035 -6.86873C-168.704 -10.8083 -157.998 -19.5154 -148.387 -27.3744C-146.559 -28.859 -144.772 -30.2963 -143.027 -31.6865C-133.417 -39.2491 -123.881 -44.1801 -114.735 -46.3151C-107.149 -48.055 -100.237 -47.854 -93.5867 -45.5914C-79.8194 -40.9097 -71.8504 -28.1837 -67.0103 -19.0658C-64.4136 -14.1681 -62.0382 -9.11735 -59.731 -4.18553C-54.3963 7.11631 -48.8992 18.8221 -40.5675 28.8824C-34.8712 35.6572 -27.7765 41.3364 -19.9809 45.2409C-9.34471 50.63 1.86641 52.5245 12.5383 50.7173C22.0108 49.0937 30.6486 44.6915 39.0101 40.4066C47.9109 35.8043 57.1844 31.0735 67.1901 30.0217C82.5154 28.4278 94.5511 34.5826 107.328 41.0732C118.184 46.6056 129.368 52.3531 143.024 53.2404C160.149 54.3112 176.364 47.4935 187.032 42.2599C189.588 41.0281 192.131 39.7132 194.633 38.4454C204.542 33.3859 213.857 28.6079 225.027 26.5305C237.823 24.1768 251.969 25.9795 265.949 31.6937C280.739 37.8626 294.18 47.9132 303.807 59.9363C312.04 70.3044 317.938 81.7513 322.484 93.6538L322.983 93.0873C318.451 81.2679 312.566 69.904 304.346 59.619C294.651 47.477 281.155 37.3904 266.256 31.1499C252.111 25.3281 237.869 23.5368 224.88 25.9132C213.614 28.0019 204.16 32.8385 194.251 37.8981C191.749 39.1658 189.248 40.4336 186.705 41.7485C176.079 46.9349 160.002 53.694 143.028 52.6476C129.565 51.7376 118.394 46.0732 107.69 40.5653C94.803 34.003 82.6577 27.7764 67.1393 29.3931C56.9407 30.4677 47.6255 35.2457 38.6283 39.8594C30.3632 44.1329 21.822 48.5236 12.3911 50.1C1.91215 51.8845 -9.1476 50.0145 -19.6325 44.65C-27.3732 40.7813 -34.4132 35.1378 -39.9998 28.4347C-48.2634 18.4933 -53.7605 6.78755 -59.0403 -4.47844C-61.3476 -9.41026 -63.7229 -14.461 -66.3197 -19.3587C-71.2278 -28.5955 -79.2648 -41.4404 -93.2931 -46.2183C-100.04 -48.4695 -107.061 -48.7422 -114.841 -46.9796C-124.083 -44.8332 -133.716 -39.8909 -143.409 -32.2338C-145.154 -30.8437 -146.982 -29.3591 -148.768 -27.9218C-158.56 -19.957 -168.615 -11.7919 -181.202 -7.81294L-182.035 -6.86873V-6.86873Z" fill="url(#paint13_linear_565_6590)"/>
</g>
<g opacity="0.33">
<path d="M-182.742 -6.06659C-169.631 -10.1496 -159.035 -18.9283 -149.533 -26.859C-147.801 -28.3322 -146.057 -29.7224 -144.367 -31.1484C-134.921 -38.8185 -125.177 -43.9855 -116.086 -46.1564C-108.416 -47.9907 -101.504 -47.7898 -94.8671 -45.6102C-81.0582 -40.9757 -73.0343 -28.2138 -68.2227 -18.9657C-65.6676 -14.0207 -63.2791 -8.88696 -60.9718 -3.95514C-55.6788 7.3939 -50.2234 19.1468 -41.9882 29.2185C-36.3335 36.0405 -29.1839 41.7557 -21.3751 45.7432C-10.7258 51.2153 0.581879 53.0985 11.2122 51.3385C20.6847 49.7149 29.3224 45.3127 37.6291 40.992C46.5716 36.3425 55.8867 31.5645 66.0437 30.5371C81.3823 29.0263 93.4443 35.3472 106.164 42.0984C117.005 47.8441 128.216 53.7577 141.981 54.7167C159.216 55.8593 175.404 48.8753 186.046 43.4757C188.644 42.1966 191.229 40.8345 193.717 39.4837C203.6 34.258 212.889 29.3138 224.141 27.1421C237.008 24.6109 251.237 26.3192 265.314 32.022C280.242 38.1323 293.683 48.183 303.322 60.2891C311.542 70.5742 317.386 81.9853 321.89 93.935L322.431 93.3212C317.899 81.5018 312.014 70.1379 303.903 59.9245C294.196 47.6995 280.603 37.6244 265.565 31.4424C251.324 25.632 236.902 23.9464 223.939 26.4889C212.645 28.7079 203.26 33.6634 193.335 38.9363C190.847 40.2871 188.262 41.6493 185.664 42.9284C175.064 48.2808 158.972 55.2533 141.985 54.1239C128.426 53.2252 117.257 47.2644 106.471 41.5545C93.5997 34.7789 81.4696 28.339 65.8416 29.884C55.5333 30.8868 46.1765 35.7121 37.1924 40.4089C28.9274 44.6824 20.3444 49.1203 11.01 50.6853C0.531084 52.4698 -10.5835 50.5639 -21.1232 45.1636C-28.8772 41.2118 -35.9171 35.5684 -41.5169 28.7822C-49.7389 18.7936 -55.1944 7.04063 -60.4325 -4.27257C-62.7398 -9.20439 -65.1284 -14.3381 -67.7383 -19.3189C-72.6048 -28.6029 -80.6551 -41.5309 -94.725 -46.2615C-101.417 -48.4769 -108.728 -48.7156 -116.398 -46.8813C-125.723 -44.6404 -135.33 -39.5319 -144.996 -31.7087C-146.741 -30.3186 -148.431 -28.8926 -150.163 -27.4194C-159.845 -19.383 -169.735 -11.1104 -182.158 -7.0239L-182.907 -6.17412L-182.742 -6.06659Z" fill="url(#paint14_linear_565_6590)"/>
</g>
<g opacity="0.33">
<path d="M-183.447 -5.26054C-170.458 -9.49829 -160.027 -18.3846 -150.635 -26.387C-148.945 -27.813 -147.255 -29.239 -145.648 -30.5705C-136.229 -38.4068 -126.456 -43.7042 -117.337 -46.0054C-109.777 -47.9113 -102.575 -47.7444 -95.993 -45.6007C-85.4126 -42.1089 -76.8911 -33.6362 -69.2938 -18.9203C-66.6839 -13.9396 -64.3369 -8.75859 -62.0164 -3.74371C-56.7651 7.65254 -51.3512 19.4527 -43.1577 29.5716C-37.5447 36.4408 -30.3819 42.2391 -22.5731 46.2266C-11.8689 51.7345 -0.548079 53.7007 10.1238 51.8935C19.5963 50.2699 28.1793 45.8319 36.5408 41.547C45.5797 36.8861 54.8817 32.0251 65.1484 31.0694C80.5966 29.6302 92.6017 36.2118 105.307 43.1762C115.967 49.0277 127.04 54.9999 140.501 56.2064C140.749 56.2195 141.051 56.2684 141.299 56.2815C158.643 57.4958 174.792 50.2627 185.462 44.7328C188.047 43.3706 190.674 41.9613 193.203 40.5633C203.06 35.1715 212.335 30.1443 223.562 27.8064C236.457 25.145 250.81 26.7116 264.984 32.4031C279.954 38.4662 293.588 48.4941 303.241 60.6833C311.474 71.0514 317.291 82.2964 321.781 94.163L322.323 93.5492C317.845 81.7656 311.987 70.5679 303.821 60.3187C294.059 48.0578 280.412 37.9468 265.291 31.8593C250.911 26.1074 236.448 24.4692 223.415 27.1892C212.092 29.5384 202.733 34.66 192.822 40.016C190.292 41.414 187.665 42.8233 185.081 44.1855C168.233 52.897 154.367 56.5612 141.345 55.6415C127.676 54.6711 116.535 48.5801 105.71 42.6211C92.8536 35.6321 80.7388 28.9789 65.0976 30.4408C54.7344 31.4078 45.336 36.2803 36.2138 41.0356C27.9487 45.3092 19.3659 49.7471 10.0315 51.3121C-0.502285 53.0607 -11.6169 51.1549 -22.2115 45.7186C-29.9654 41.7669 -37.0186 36.0404 -42.6184 29.2542C-50.7988 19.2184 -56.1577 7.45408 -61.4091 -3.94218C-63.7296 -8.95706 -66.0765 -14.1381 -68.6448 -19.1661C-73.4696 -28.4973 -81.5331 -41.5083 -95.7411 -46.1804C-102.488 -48.4316 -109.827 -48.5399 -117.539 -46.6584C-126.754 -44.3459 -136.611 -38.954 -146.126 -31.1064C-147.775 -29.7277 -149.464 -28.3017 -151.154 -26.8757C-160.727 -18.7675 -170.465 -10.4706 -182.669 -6.24071L-183.502 -5.29642L-183.447 -5.26054Z" fill="url(#paint15_linear_565_6590)"/>
</g>
<g opacity="0.33">
<path d="M-184.156 -4.45917C-171.387 -8.84029 -161.065 -17.7983 -151.782 -25.8724C-150.189 -27.287 -148.54 -28.6658 -146.988 -30.0332C-140.45 -35.584 -130.208 -42.8826 -118.647 -45.8946C-111.045 -47.8478 -103.857 -47.7639 -97.1782 -45.6316C-86.5014 -42.1511 -78.0214 -33.6313 -70.4109 -18.8323C-67.7878 -13.7685 -65.4276 -8.50448 -63.1488 -3.44239C-57.9391 8.00108 -52.6218 19.8127 -44.415 30.0146C-38.7888 36.9669 -31.6808 42.7292 -23.804 46.8357C-13.0866 52.4266 -1.71093 54.4287 9.00263 52.5743C18.4751 50.9506 27.0997 46.4655 35.4064 42.1448C44.487 37.4367 53.8722 32.4811 64.2069 31.6444C79.6684 30.2883 91.6582 37.0831 104.39 44.2137C115.296 50.3747 126.628 56.7394 140.503 57.7701C153.731 58.7501 167.777 54.98 184.723 45.9608C187.349 44.5514 190.017 43.0949 192.589 41.6497C202.432 36.1749 211.723 30.9343 222.978 28.4661C235.943 25.6272 250.338 27.1467 264.65 32.7796C279.758 38.7841 293.447 48.8478 303.154 61.0729C311.374 71.3579 317.191 82.6029 321.627 94.4337L322.168 93.8199C317.691 82.0363 311.887 70.8744 303.735 60.7083C293.918 48.4115 280.174 38.3119 264.957 32.2357C250.48 26.4953 235.892 24.9986 222.831 27.8489C211.479 30.3285 201.733 35.7919 192.207 41.1024C189.636 42.5476 187.022 44.04 184.341 45.4135C167.533 54.3742 153.625 58.0856 140.548 57.1301C126.825 56.1239 115.644 49.7837 104.793 43.6585C91.9518 36.4562 79.8522 29.5897 64.1561 31.0157C53.6833 31.9111 44.2016 36.8779 35.0794 41.6332C26.8143 45.9068 18.2862 50.3806 8.91022 51.9928C-1.66522 53.7886 -12.793 51.7998 -23.4008 46.2805C-31.1679 42.2457 -38.2211 36.5192 -43.8341 29.65C-51.9728 19.5669 -57.2901 7.75541 -62.445 -3.65221C-64.7238 -8.7143 -67.0839 -13.9784 -69.7071 -19.0422C-77.3439 -34.0073 -85.9885 -42.6347 -96.8715 -46.1754C-103.66 -48.3795 -111.041 -48.4406 -118.781 -46.4288C-130.439 -43.4054 -140.819 -36.0483 -147.399 -30.4502C-149.006 -29.1187 -150.599 -27.704 -152.192 -26.2894C-161.558 -18.1209 -171.242 -9.78812 -183.227 -5.41487L-184.101 -4.42339L-184.156 -4.45917Z" fill="url(#paint16_linear_565_6590)"/>
</g>
<g opacity="0.33">
<path d="M-184.822 -3.70424C-172.175 -8.24011 -162.102 -17.2112 -152.928 -25.357C-151.377 -26.7244 -149.825 -28.0918 -148.273 -29.4592C-141.706 -35.1404 -131.532 -42.5578 -119.942 -45.7C-112.312 -47.7835 -105.082 -47.7469 -98.3488 -45.5788C-87.5754 -42.1097 -79.0406 -33.5539 -71.5134 -18.6605C-68.9319 -13.5495 -66.517 -8.24961 -64.2798 -3.14031C-59.1666 8.31453 -53.836 20.2092 -45.6709 30.4583C-40.0864 37.4578 -32.9652 43.3032 -25.0883 47.4097C-14.3161 53.0365 -2.92724 55.1216 7.78632 53.2671C17.2588 51.6435 25.8834 47.1584 34.1901 42.8376C43.3123 38.0823 52.794 33.1154 63.2252 32.2673C78.6999 30.9943 90.7162 37.9552 103.432 45.2991C114.31 51.5904 125.517 58.0967 139.267 59.2691C139.419 59.2935 139.57 59.318 139.666 59.3067C152.949 60.3225 167.037 56.5053 183.944 47.2369C186.612 45.7803 189.266 44.2406 191.879 42.7482C201.696 37.1073 211.016 31.7365 222.257 29.1853C235.251 26.2162 249.771 27.5939 264.234 33.2513C279.438 39.2444 293.169 49.261 302.931 61.5219C311.042 71.7352 316.859 82.9802 321.336 94.7637L321.877 94.15C317.455 82.4023 311.609 71.2876 303.554 61.1101C293.723 48.7303 279.883 38.6421 264.527 32.6245C249.955 26.8954 235.283 25.4931 222.055 28.5322C210.675 31.142 200.9 36.7357 191.443 42.1651C188.83 43.6575 186.175 45.1972 183.507 46.6538C166.725 55.7806 152.789 59.6222 139.657 58.6308C125.865 57.5057 114.617 51.0466 103.781 44.7081C90.9549 37.2925 78.8289 30.2599 63.1064 31.5198C52.4823 32.3907 43.0005 37.3575 33.795 42.2073C25.5432 46.5639 16.9603 51.0018 7.6259 52.5668C-2.94954 54.3627 -14.1322 52.338 -24.7948 46.7828C-32.6168 42.7122 -39.6832 36.9026 -45.1997 30.022C-53.2967 19.8917 -58.5724 8.03305 -63.6856 -3.42178C-65.9777 -8.56693 -68.3378 -13.831 -70.9742 -18.9779C-78.6242 -34.026 -87.2687 -42.6534 -98.2065 -46.23C-105.091 -48.4227 -112.473 -48.4838 -120.241 -46.3418C-131.927 -43.1881 -142.281 -35.6649 -148.889 -29.9365C-150.4 -28.6164 -151.951 -27.249 -153.545 -25.8344C-162.801 -17.5942 -172.279 -9.20096 -184.14 -4.67296L-184.931 -3.776L-184.822 -3.70424Z" fill="url(#paint17_linear_565_6590)"/>
</g>
</g>
<defs>
<linearGradient id="paint0_linear_565_6590" x1="8.35079" y1="49.9231" x2="286.047" y2="45.8" gradientUnits="userSpaceOnUse">
<stop stop-color="#FF4910"/>
<stop offset="0.612452" stop-color="#FF1074"/>
<stop offset="1" stop-color="#FF5AD1"/>
</linearGradient>
<linearGradient id="paint1_linear_565_6590" x1="9.33106" y1="48.8115" x2="286.971" y2="44.6072" gradientUnits="userSpaceOnUse">
<stop stop-color="#FF4910"/>
<stop offset="0.612452" stop-color="#FF1074"/>
<stop offset="1" stop-color="#FF5AD1"/>
</linearGradient>
<linearGradient id="paint2_linear_565_6590" x1="10.3388" y1="47.8023" x2="287.805" y2="43.2917" gradientUnits="userSpaceOnUse">
<stop stop-color="#FF4910"/>
<stop offset="0.612452" stop-color="#FF1074"/>
<stop offset="1" stop-color="#FF5AD1"/>
</linearGradient>
<linearGradient id="paint3_linear_565_6590" x1="11.3409" y1="46.5704" x2="288.726" y2="41.9437" gradientUnits="userSpaceOnUse">
<stop stop-color="#FF4910"/>
<stop offset="0.612452" stop-color="#FF1074"/>
<stop offset="1" stop-color="#FF5AD1"/>
</linearGradient>
<linearGradient id="paint4_linear_565_6590" x1="12.5024" y1="45.3116" x2="289.625" y2="40.3714" gradientUnits="userSpaceOnUse">
<stop stop-color="#FF4910"/>
<stop offset="0.612452" stop-color="#FF1074"/>
<stop offset="1" stop-color="#FF5AD1"/>
</linearGradient>
<linearGradient id="paint5_linear_565_6590" x1="12.3345" y1="45.4063" x2="289.616" y2="40.6904" gradientUnits="userSpaceOnUse">
<stop stop-color="#FF4910"/>
<stop offset="0.612452" stop-color="#FF1074"/>
<stop offset="1" stop-color="#FF5AD1"/>
</linearGradient>
<linearGradient id="paint6_linear_565_6590" x1="11.7155" y1="46.1083" x2="289.265" y2="41.775" gradientUnits="userSpaceOnUse">
<stop stop-color="#FF4910"/>
<stop offset="0.612452" stop-color="#FF1074"/>
<stop offset="1" stop-color="#FF5AD1"/>
</linearGradient>
<linearGradient id="paint7_linear_565_6590" x1="11.1443" y1="46.8141" x2="289.102" y2="43.1259" gradientUnits="userSpaceOnUse">
<stop stop-color="#FF4910"/>
<stop offset="0.612452" stop-color="#FF1074"/>
<stop offset="1" stop-color="#FF5AD1"/>
</linearGradient>
<linearGradient id="paint8_linear_565_6590" x1="10.5009" y1="47.506" x2="288.684" y2="44.2046" gradientUnits="userSpaceOnUse">
<stop stop-color="#FF4910"/>
<stop offset="0.612452" stop-color="#FF1074"/>
<stop offset="1" stop-color="#FF5AD1"/>
</linearGradient>
<linearGradient id="paint9_linear_565_6590" x1="9.81921" y1="48.2208" x2="288.322" y2="45.3264" gradientUnits="userSpaceOnUse">
<stop stop-color="#FF4910"/>
<stop offset="0.612452" stop-color="#FF1074"/>
<stop offset="1" stop-color="#FF5AD1"/>
</linearGradient>
<linearGradient id="paint10_linear_565_6590" x1="9.31171" y1="48.892" x2="288.239" y2="46.6209" gradientUnits="userSpaceOnUse">
<stop stop-color="#FF4910"/>
<stop offset="0.612452" stop-color="#FF1074"/>
<stop offset="1" stop-color="#FF5AD1"/>
</linearGradient>
<linearGradient id="paint11_linear_565_6590" x1="8.64757" y1="49.6074" x2="287.735" y2="47.6334" gradientUnits="userSpaceOnUse">
<stop stop-color="#FF4910"/>
<stop offset="0.612452" stop-color="#FF1074"/>
<stop offset="1" stop-color="#FF5AD1"/>
</linearGradient>
<linearGradient id="paint12_linear_565_6590" x1="8.10772" y1="50.2945" x2="287.604" y2="48.8079" gradientUnits="userSpaceOnUse">
<stop stop-color="#FF4910"/>
<stop offset="0.612452" stop-color="#FF1074"/>
<stop offset="1" stop-color="#FF5AD1"/>
</linearGradient>
<linearGradient id="paint13_linear_565_6590" x1="7.5382" y1="50.9774" x2="287.394" y2="49.9691" gradientUnits="userSpaceOnUse">
<stop stop-color="#FF4910"/>
<stop offset="0.612452" stop-color="#FF1074"/>
<stop offset="1" stop-color="#FF5AD1"/>
</linearGradient>
<linearGradient id="paint14_linear_565_6590" x1="6.7377" y1="51.551" x2="286.831" y2="50.963" gradientUnits="userSpaceOnUse">
<stop stop-color="#FF4910"/>
<stop offset="0.612452" stop-color="#FF1074"/>
<stop offset="1" stop-color="#FF5AD1"/>
</linearGradient>
<linearGradient id="paint15_linear_565_6590" x1="6.23337" y1="52.2863" x2="286.614" y2="52.1975" gradientUnits="userSpaceOnUse">
<stop stop-color="#FF4910"/>
<stop offset="0.612452" stop-color="#FF1074"/>
<stop offset="1" stop-color="#FF5AD1"/>
</linearGradient>
<linearGradient id="paint16_linear_565_6590" x1="5.68757" y1="53.0009" x2="286.365" y2="53.3684" gradientUnits="userSpaceOnUse">
<stop stop-color="#FF4910"/>
<stop offset="0.612452" stop-color="#FF1074"/>
<stop offset="1" stop-color="#FF5AD1"/>
</linearGradient>
<linearGradient id="paint17_linear_565_6590" x1="5.05117" y1="53.6059" x2="286.04" y2="54.3262" gradientUnits="userSpaceOnUse">
<stop stop-color="#FF4910"/>
<stop offset="0.612452" stop-color="#FF1074"/>
<stop offset="1" stop-color="#FF5AD1"/>
</linearGradient>
</defs>
</svg>
