<svg width="414" height="102" viewBox="0 0 414 102" fill="none" xmlns="http://www.w3.org/2000/svg">
<mask id="mask0_423_4608" style="mask-type:alpha" maskUnits="userSpaceOnUse" x="0" y="-1" width="414" height="103">
<rect width="412" height="94.5797" transform="matrix(0.999843 -0.0177066 -0.0177066 -0.999843 1.86969 101.86)" fill="#D9D9D9"/>
</mask>
<g mask="url(#mask0_423_4608)">
<g opacity="0.33">
<path d="M664.089 -16.7088C661.083 -16.7726 658.169 -17.0044 655.136 -17.366C634.119 -19.9354 617.302 -29.4647 600.992 -38.7072C596.87 -41.0665 592.926 -43.2309 588.907 -45.3439C574.995 -52.6351 561.738 -56.7914 549.45 -57.6044C539.476 -58.3045 530.515 -56.9555 522.19 -53.2999C505.192 -45.9643 494.41 -30.2164 486.969 -17.2638C483.608 -11.4009 480.367 -5.40807 477.293 0.365393C469.102 15.7225 460.635 31.5833 448.5 44.776C440.491 53.4808 430.652 60.5862 420.026 65.488C405.879 72.0455 390.818 74.3796 376.531 72.1866C363.039 70.191 350.628 64.4072 338.607 58.7803C327.228 53.4537 315.519 48.0351 303.2 45.9794C281.909 42.4381 264.573 47.7919 246.242 53.4007C232.135 57.719 217.666 62.1784 200.37 62.8727C179.088 63.6416 158.593 58.822 139.683 53.4522C137.24 52.7953 134.813 52.0219 132.371 51.3649C117.687 47.1252 103.797 43.0829 87.9402 42.7993C70.9854 42.5242 52.9964 47.1635 35.7691 56.129C17.2107 65.7882 0.0570308 80.0739 -12.3092 96.3721C-22.4598 109.586 -30.1572 123.87 -36.2821 138.666L-36.9948 137.887C-30.8863 123.207 -23.2052 109.039 -13.1304 95.8769C-0.612569 79.4758 16.6169 65.1386 35.2509 55.428C52.6298 46.3595 70.8892 41.7472 87.9197 41.9708C103.912 42.2679 117.877 46.2588 132.62 50.5634C134.988 51.2718 137.49 51.9938 139.933 52.6507C158.783 57.9556 179.143 62.7617 200.29 61.9793C217.376 61.323 231.845 56.8636 245.816 52.5318C264.299 46.8201 281.694 41.5311 303.256 45.0994C315.71 47.1686 327.537 52.7171 338.992 57.9923C350.954 63.5543 363.365 69.338 376.663 71.2552C390.755 73.3697 405.604 71.0736 419.541 64.5542C430.015 59.7553 439.719 52.6363 447.711 44.0479C459.83 30.9717 467.853 15.8341 476.413 -0.194631C479.486 -5.96811 482.668 -12.0259 486.088 -17.8239C493.605 -30.828 504.479 -46.7439 521.704 -54.2339C530.165 -57.8759 539.277 -59.3279 549.522 -58.6007C561.945 -57.7743 575.396 -53.5396 589.368 -46.1834C593.328 -44.1353 597.255 -41.8544 601.453 -39.5466C617.644 -30.434 634.402 -20.9699 655.208 -18.3624C657.971 -18.0278 660.614 -17.8229 663.274 -17.7346L664.165 -16.7603L664.089 -16.7088Z" fill="url(#paint0_linear_423_4608)"/>
</g>
<g opacity="0.33">
<path d="M662.664 -18.2678C660.62 -18.3536 658.593 -18.556 656.506 -18.8233C635.219 -21.4197 618.315 -31.3117 601.903 -40.8005C597.917 -43.1463 594.108 -45.2973 590.224 -47.3968C576.345 -54.9209 563.045 -59.2585 550.714 -60.2529C540.621 -61.0829 531.66 -59.734 523.275 -56.1434C506.142 -48.8213 495.42 -33.0083 487.978 -20.0557C484.542 -14.1413 481.36 -8.08353 478.27 -2.19365C470.138 13.2284 461.806 29.1027 449.655 42.4117C441.705 51.1815 431.85 58.4034 421.224 63.3052C407.06 69.9791 392 72.3133 377.562 70.2232C364.145 68.1761 351.734 62.3923 339.712 56.7654C328.198 51.4253 316.371 45.8768 303.977 43.8726C282.668 40.4477 265.435 46.0479 247.266 51.968C233.051 56.5707 218.473 61.3143 201.025 62.1115C179.457 62.9699 158.14 57.6553 140.252 52.3284C137.69 51.5415 135.129 50.7546 132.567 49.9677C117.916 45.4952 104.119 41.2849 88.3538 40.8334C71.356 40.3769 53.1888 44.8214 35.8264 53.7735C17.0735 63.3542 -0.08006 77.6398 -12.5978 94.0409C-23.0085 107.642 -30.8473 122.444 -37.0541 137.822L-37.7667 137.042C-31.5762 121.781 -23.7539 107.095 -13.3597 93.6108C-0.766116 77.1582 16.5392 62.7696 35.3678 53.1374C52.9412 44.1473 71.2598 39.5999 88.4521 40.1349C104.352 40.5999 118.285 44.8235 132.936 49.2961C135.497 50.0829 138.059 50.8699 140.621 51.6567C158.45 56.9186 179.631 62.2199 201.064 61.3481C218.301 60.5888 232.879 55.8451 247.018 51.2939C265.398 45.3359 282.707 39.6842 304.286 43.1361C316.891 45.1023 328.778 50.7157 340.351 56.1207C352.314 61.6827 364.649 67.518 377.946 69.4352C392.039 71.5498 406.964 69.2021 420.977 62.6312C431.467 57.7158 441.171 50.5969 449.104 41.9436C461.103 28.7375 469.127 13.5997 477.551 -2.44243C480.641 -8.33233 483.899 -14.4416 487.276 -20.4209C494.734 -33.4899 505.624 -49.5223 523.043 -56.9338C531.64 -60.5624 540.735 -61.8979 551.039 -61.1058C563.506 -60.098 576.94 -55.7468 590.938 -48.0928C594.823 -45.9933 598.556 -43.791 602.618 -41.4966C618.895 -32.0213 635.755 -22.3106 656.832 -19.6762C658.589 -19.5009 660.27 -19.2741 661.968 -19.1638L662.74 -18.3193L662.664 -18.2678Z" fill="url(#paint1_linear_423_4608)"/>
</g>
<g opacity="0.33">
<path d="M661.242 -19.829C660.161 -19.9369 659.139 -19.98 658.075 -20.2043C636.592 -22.8792 619.511 -32.966 603.072 -42.7526C599.221 -45.0849 595.547 -47.2224 591.798 -49.3084C577.952 -57.0654 564.609 -61.5845 552.294 -62.6952C542.218 -63.6417 533.138 -62.4225 524.677 -58.7805C507.35 -51.5368 496.671 -35.5426 489.288 -22.525C485.912 -16.5457 482.637 -10.32 479.607 -4.3651C471.61 11.0704 463.261 27.0611 451.245 40.3837C443.22 49.2049 433.424 56.4917 422.782 61.51C408.543 68.2353 393.465 70.6859 378.968 68.5309C365.611 66.5487 353.141 60.7 341.178 55.1381C329.605 49.733 317.583 44.1061 304.977 42.1399C283.712 38.8964 266.581 44.7429 248.439 50.9607C234.191 55.7963 219.429 60.8757 201.846 61.6595C179.991 62.6073 158.843 57.0733 140.987 51.5136C138.231 50.6482 135.61 49.7963 132.913 48.9959C118.43 44.304 104.725 39.926 88.9166 39.293C71.8164 38.5902 53.5305 42.9048 36.0329 51.8434C17.1449 61.4106 -0.143898 75.6827 -12.6617 92.0838C-23.4082 106.123 -31.3883 121.443 -37.677 137.403L-38.3896 136.623C-32.1172 120.78 -24.1536 105.577 -13.4992 91.7052C-0.82991 75.2011 16.6106 60.826 35.5743 51.2073C53.2828 42.2307 71.7796 37.8782 89.0149 38.5945C104.882 39.2924 118.663 43.619 133.282 48.3244C135.903 49.1762 138.659 50.0415 141.355 50.8419C159.152 56.3366 180.224 61.9222 201.809 60.9474C219.257 60.1501 233.943 55.1222 248.056 50.2732C266.409 44.0174 283.616 38.1194 305.152 41.3899C317.892 43.3695 329.914 48.9964 341.547 54.4664C353.434 60.0799 365.785 65.7988 379.007 67.7674C393.234 69.8955 408.1 67.4828 422.129 60.7955C432.619 55.8801 442.34 48.6449 450.289 39.8751C462.229 26.604 470.193 11.4012 478.558 -4.70589C481.665 -10.7122 484.863 -16.8864 488.316 -22.9172C495.79 -36.1026 506.621 -52.1999 524.176 -59.598C532.772 -63.2265 542.062 -64.4837 552.35 -63.5752C564.859 -62.386 578.337 -57.8534 592.302 -49.9665C596.051 -47.8805 599.648 -45.6915 603.576 -43.4106C619.955 -33.689 636.826 -23.5642 658.114 -20.9678C658.849 -20.8354 659.6 -20.8194 660.276 -20.752L661.167 -19.7777L661.242 -19.829Z" fill="url(#paint2_linear_423_4608)"/>
</g>
<g opacity="0.33">
<path d="M659.697 -21.5169L659.562 -21.5305C637.809 -24.2323 620.701 -34.617 604.176 -44.7664C600.46 -47.0852 596.921 -49.2091 593.307 -51.2816C579.494 -59.2714 566.108 -63.9719 553.75 -65.2641C543.555 -66.3404 534.476 -65.1213 525.972 -61.6606C508.357 -54.3275 497.277 -37.4289 490.491 -25.2373C487.098 -19.1415 483.883 -12.8509 480.7 -6.79311C472.763 8.70739 464.55 24.7116 452.593 38.0991C444.627 46.9853 434.815 54.3885 424.173 59.4068C409.917 66.2486 394.705 68.6857 380.266 66.5957C366.909 64.6135 354.574 58.7782 342.552 53.1513C330.86 47.6164 318.779 41.9245 306.022 40.0613C284.741 36.9342 267.636 43.0785 249.596 49.5427C235.24 54.6625 220.369 60.0263 202.634 60.913C180.628 61.9638 159.512 56.1968 141.689 50.4042C138.874 49.4739 136.058 48.5437 133.243 47.6134C118.852 42.7536 105.239 38.2075 89.4635 37.3417C72.3204 36.4575 53.9157 40.6423 36.1642 49.4375C17.2168 58.9397 -0.282935 73.25 -12.8765 89.7026C-24.1267 104.4 -32.2481 120.236 -38.4345 136.443L-39.147 135.663C-32.9177 119.638 -24.8721 103.854 -13.6383 89.2723C-0.952577 72.6518 16.6231 58.2902 35.7814 48.7499C53.6844 39.8518 72.2406 35.5642 89.654 36.4753C105.505 37.2896 119.177 41.9006 133.703 46.7739C136.519 47.7042 139.259 48.686 142.15 49.5648C159.838 55.3439 180.894 61.0458 202.69 60.033C220.289 59.1328 235.008 53.872 249.305 48.6871C267.497 42.12 284.812 35.9378 306.288 39.1433C319.18 41.0201 331.321 46.7768 343.089 52.2603C354.976 57.8738 367.251 63.6441 380.473 65.6128C394.701 67.7408 409.642 65.2767 423.747 58.5379C434.254 53.5061 444.05 46.2193 451.864 37.436C463.745 24.1 471.574 8.88389 479.879 -7.28822C483.002 -13.411 486.276 -19.6367 489.67 -25.7325C496.532 -37.9755 507.704 -55.0421 525.681 -62.5162C534.336 -66.0798 543.627 -67.3369 553.957 -66.247C566.45 -64.9414 579.971 -60.2275 593.903 -52.1077C597.517 -50.0352 600.98 -47.8596 604.772 -45.5923C620.983 -35.6512 637.703 -25.4235 658.822 -22.6077L659.772 -21.5684L659.697 -21.5169Z" fill="url(#paint3_linear_423_4608)"/>
</g>
<g opacity="0.33">
<path d="M657.974 -23.4007C637.461 -26.6283 621.028 -36.9456 605.222 -46.8462C601.641 -49.1515 598.238 -51.2621 594.759 -53.3211C580.978 -61.5438 567.625 -66.4771 555.149 -67.8991C544.894 -69.0405 535.831 -67.9378 527.192 -64.4906C509.383 -57.2359 498.346 -40.1557 491.559 -27.9642C488.091 -21.8169 484.935 -15.4614 481.796 -9.22218C473.918 6.34328 465.84 22.361 453.867 35.8649C445.96 44.8161 436.072 52.2707 425.414 57.4054C411.082 64.2987 395.853 66.8523 381.356 64.6972C367.999 62.7151 355.664 56.8797 343.717 51.2014C331.966 45.6014 319.75 39.8962 306.857 38.0194C285.56 35.0088 268.617 41.4644 250.528 48.2778C236.122 53.747 221.219 59.3435 203.273 60.2682C180.98 61.4084 158.924 55.0165 142.242 49.3968C139.291 48.453 136.357 47.3928 133.558 46.3461C119.259 41.3184 105.679 36.5395 89.9957 35.5058C72.7502 34.3753 54.2268 38.4301 36.3402 47.2118C17.1982 56.6356 -0.301415 70.9457 -13.0465 87.5013C-24.5568 102.586 -32.836 119.056 -39.0879 135.728L-39.8004 134.949C-33.5649 118.393 -25.3021 102.04 -13.8082 87.0711C-1.04674 70.3991 16.5287 56.0375 35.8221 46.5107C53.8603 37.626 72.5946 33.5333 90.0511 34.6258C105.869 35.673 119.449 40.4519 133.883 45.4931C136.758 46.4883 139.693 47.5486 142.568 48.5438C159.174 54.215 181.111 60.4771 203.193 59.3748C220.869 58.4232 235.772 52.8265 250.102 47.4088C268.267 40.5439 285.48 34.1153 306.989 37.088C320.092 38.9267 332.292 44.7486 344.178 50.362C356.065 55.9754 368.265 61.7971 381.487 63.7658C395.714 65.8938 410.732 63.3783 424.912 56.588C435.494 51.5048 445.231 44.153 453.062 35.2534C464.883 21.8524 472.962 5.83464 480.823 -9.61439C483.946 -15.7371 487.177 -22.1442 490.587 -28.3564C497.389 -40.6644 508.519 -57.9124 526.69 -65.308C535.481 -68.8581 544.755 -69.9988 555.204 -68.779C567.816 -67.3435 581.304 -62.3967 595.203 -54.0441C598.682 -51.985 602.085 -49.8746 605.667 -47.5692C621.159 -37.877 637.143 -27.7817 656.949 -24.3887L657.899 -23.3494L657.974 -23.4007Z" fill="url(#paint4_linear_423_4608)"/>
</g>
<g opacity="0.33">
<path d="M658.21 -23.1394C638.151 -26.6757 622.065 -37.0176 606.621 -47.0591C603.1 -49.2995 599.832 -51.3965 596.563 -53.4936C582.756 -62.014 569.42 -67.0638 556.959 -68.6023C546.662 -69.925 537.464 -68.8357 528.824 -65.3885C510.88 -58.1474 499.902 -41.0023 493.1 -28.6944C489.614 -22.4307 486.442 -15.9586 483.303 -9.71945C475.561 5.8595 467.542 21.9422 455.628 35.5111C447.705 44.5787 437.876 52.0983 427.218 57.233C412.87 64.2427 397.565 66.8476 383.008 64.6276C369.651 62.6455 357.316 56.8103 345.446 51.0804C333.559 45.467 321.3 39.5802 308.256 37.8064C287.002 34.9771 270.026 41.6656 252.039 48.7254C237.525 54.4789 222.513 60.3599 204.416 61.3875C181.912 62.5657 159.949 56.0058 143.299 50.1532C140.23 49.0795 137.295 48.0194 134.302 46.8942C120.035 41.6336 106.548 36.6869 90.8808 35.5368C73.5923 34.2249 54.8907 38.0847 36.8689 46.8529C17.5918 56.2633 -0.043036 70.5599 -12.7881 87.1155C-24.3742 102.252 -32.6696 118.838 -38.9542 135.743L-39.6669 134.964C-33.3392 118.24 -25.1953 101.757 -13.6256 86.7368C-0.788412 70.0134 16.9222 55.6652 36.3507 46.1519C54.5241 37.2807 73.4366 33.3829 90.9361 34.6569C106.738 35.8204 120.285 40.8321 134.687 46.1061C137.68 47.2313 140.615 48.2915 143.684 49.3652C160.198 55.2043 182.086 61.8157 204.395 60.559C222.282 59.5694 237.158 53.6749 251.597 47.9729C269.735 40.8102 286.786 34.0703 308.371 36.9915C321.55 38.7788 333.885 44.614 345.89 50.3573C357.701 56.0222 369.977 61.7925 383.199 63.7612C397.561 65.9027 412.579 63.3872 426.716 56.4155C437.299 51.3323 447.052 43.8642 454.823 34.8995C466.585 21.4335 474.604 5.35088 482.406 -10.1631C485.546 -16.4023 488.718 -22.8743 492.203 -29.1379C499.022 -41.5623 510.092 -58.8753 528.323 -66.206C537.113 -69.7561 546.582 -70.8184 557.015 -69.4822C569.669 -67.8652 583.065 -62.7506 597.067 -54.1516C600.411 -52.1061 603.679 -50.0091 607.201 -47.7687C622.272 -38.0005 637.985 -27.9321 657.276 -24.2952L658.286 -23.1909L658.21 -23.1394Z" fill="url(#paint5_linear_423_4608)"/>
</g>
<g opacity="0.33">
<path d="M659.221 -22.0341C639.194 -25.8033 622.709 -36.7164 608.044 -46.4441C604.657 -48.671 601.524 -50.7545 598.315 -52.7866C584.541 -61.5399 571.161 -66.7711 558.658 -68.4909C548.301 -69.8786 539.119 -68.9057 530.345 -65.472C512.265 -58.2443 501.271 -40.9828 494.604 -28.6613C491.178 -22.3327 487.93 -15.8092 484.85 -9.50506C477.167 6.13885 469.207 22.2863 457.412 35.9852C449.473 45.1692 439.644 52.6888 428.97 57.9399C414.605 65.066 399.225 67.7226 384.668 65.5026C371.311 63.5205 359.052 57.6337 347.165 52.0202C335.219 46.3419 322.825 40.4417 309.705 38.7193C288.434 36.0065 271.485 42.9928 253.6 50.2989C239.054 56.2852 223.933 62.4504 205.744 63.646C183.088 64.9271 161.158 58.1344 144.482 51.984C141.353 50.8454 138.3 49.6553 135.247 48.4652C121.073 43.0368 107.617 37.8571 91.9833 36.4742C74.5924 34.9159 55.7557 38.7623 37.5394 47.452C18.0678 56.784 0.297849 71.0672 -12.4636 87.7391C-23.9739 102.824 -32.2694 119.41 -38.4783 136.264L-39.1908 135.484C-32.9983 118.747 -24.7192 102.277 -13.2253 87.3089C-0.312326 70.534 17.4741 56.1344 37.0972 46.6996C55.465 37.9069 74.4369 34.074 92.0981 35.6592C107.867 37.0556 121.398 42.1838 135.691 47.7421C138.744 48.9322 141.797 50.1224 144.926 51.261C161.408 57.3329 183.203 64.1122 205.723 62.8176C223.761 61.725 238.746 55.5462 253.218 49.6114C271.254 42.2023 288.354 35.113 309.955 37.9178C323.285 39.6022 335.739 45.5674 347.745 51.3107C359.555 56.9756 371.755 62.7975 384.977 64.7661C399.34 66.9076 414.433 64.3405 428.646 57.3174C439.169 52.1692 448.863 44.636 456.786 35.5684C468.489 22.0375 476.448 5.88996 484.132 -9.75394C487.211 -16.0581 490.459 -22.5816 493.961 -28.9617C500.72 -41.451 511.807 -58.8805 530.232 -66.1327C539.158 -69.6693 548.551 -70.68 559.102 -69.2139C571.741 -67.4806 585.239 -62.1195 599.148 -53.3527C602.357 -51.3206 605.549 -49.1721 608.877 -47.0102C623.855 -37.0741 639.342 -26.8512 658.465 -22.995L659.297 -22.0856L659.221 -22.0341Z" fill="url(#paint6_linear_423_4608)"/>
</g>
<g opacity="0.33">
<path d="M660.289 -20.8654C640.431 -24.854 624.173 -35.9213 609.599 -45.8169C606.348 -48.0303 603.35 -50.1004 600.201 -52.0675C586.459 -61.0538 573.112 -66.5177 560.49 -68.3675C550.09 -69.9365 540.773 -68.9772 531.999 -65.5435C513.801 -58.4457 502.79 -41.0678 496.106 -28.6299C492.664 -22.1848 489.476 -15.5964 486.32 -9.24078C478.696 6.46808 470.796 22.6807 459.136 36.3929C451.197 45.577 441.411 53.278 430.737 58.5291C416.296 65.7066 400.916 68.3631 386.283 66.1947C372.926 64.2125 360.667 58.3257 348.856 52.6608C336.791 46.8526 324.337 40.8875 311.066 39.2681C289.779 36.6716 272.932 43.9041 254.999 51.5596C240.343 57.8302 225.174 64.3448 206.849 65.5268C184.042 66.9109 162.085 59.8204 145.501 53.5021C142.313 52.2985 139.065 51.03 135.953 49.7749C121.811 44.1136 108.373 38.8176 92.7714 37.2018C75.3375 35.4621 56.3227 39.1136 37.9712 47.7899C18.3645 57.1084 0.459233 71.3781 -12.3186 88.1665C-23.8125 103.135 -32.0322 119.67 -38.2411 136.523L-38.9536 135.744C-32.7611 119.007 -24.5579 102.588 -13.1398 87.6713C-0.210387 70.7799 17.7112 56.3939 37.5288 47.0374C56.0318 38.2582 75.1818 34.6202 92.886 36.3868C108.698 37.9646 122.061 43.3121 136.338 48.9869C139.45 50.2419 142.638 51.4456 145.886 52.7141C162.335 59.0189 184.097 66.031 206.769 64.6334C224.883 63.4894 239.977 57.0264 254.497 50.7423C272.506 43.0354 289.504 35.6997 311.122 38.3881C324.587 40.0859 337.176 46.0645 349.241 51.8728C361.052 57.5377 373.252 63.3596 386.339 65.3148C400.701 67.4563 415.87 64.8378 430.159 57.7631C440.699 52.4985 450.468 44.9139 458.256 35.8328C469.84 22.172 477.799 6.02439 485.347 -9.633C488.444 -16.0536 491.708 -22.6934 495.21 -29.0735C501.91 -41.6279 513.013 -59.1737 531.573 -66.4124C540.558 -69.8841 550.01 -70.8299 560.621 -69.2988C573.378 -67.4355 586.844 -61.8416 600.721 -52.8419C603.794 -50.8233 606.927 -48.7399 610.179 -46.5265C625.065 -36.4225 640.324 -26.0452 659.28 -21.9696L660.289 -20.8654Z" fill="url(#paint7_linear_423_4608)"/>
</g>
<g opacity="0.33">
<path d="M661.296 -19.7604C641.606 -23.9683 625.499 -35.1385 611.153 -45.1885C608.037 -47.3885 605.098 -49.3937 602.101 -51.4637C588.316 -60.6313 575.002 -66.3281 562.397 -68.2943C551.937 -69.9283 542.636 -69.0854 533.803 -65.7167C515.47 -58.6324 504.442 -41.1381 497.818 -28.6352C494.376 -22.1901 491.095 -15.4338 488.058 -8.94825C480.57 6.77408 472.729 23.0516 461.053 36.8803C453.173 46.1293 443.311 53.8817 432.62 59.2493C418.088 66.5948 402.708 69.2513 388.015 67.0178C374.658 65.0356 362.475 59.0975 350.664 53.4326C338.54 47.5593 325.891 41.5156 312.545 39.9477C291.241 37.4677 274.421 44.9983 256.514 52.9515C241.809 59.5714 226.607 66.3187 208.131 67.6037C185.172 69.0907 163.248 61.7673 146.697 55.2161C143.39 53.8826 140.083 52.5492 136.911 51.2291C122.862 45.3999 109.456 39.8711 93.8707 38.1388C76.3344 36.1529 57.2009 39.6745 38.7142 48.3373C18.9888 57.5258 1.00788 71.847 -11.8457 88.6869C-23.2639 103.604 -31.4836 120.139 -37.6924 136.992L-38.4051 136.213C-32.2126 119.476 -24.0092 103.057 -12.7426 88.2431C0.26256 71.3003 18.3193 56.9277 38.1963 47.6363C56.8939 38.9355 76.1789 35.3109 93.9855 37.3239C109.765 39.1346 123.171 44.6635 137.355 50.5061C140.527 51.8262 143.834 53.1596 147.141 54.4932C163.557 61.0308 185.287 68.2758 208.035 66.8268C226.3 65.5798 241.426 58.8839 256.055 52.3154C274.038 44.3107 291.009 36.6773 312.584 39.1842C326.201 40.7791 338.849 46.8228 351.033 52.761C362.844 58.4259 374.968 64.2992 388.054 66.2544C402.476 68.4608 417.662 65.7258 431.967 58.5348C442.582 53.2187 452.293 45.5691 460.097 36.3716C471.621 22.6459 479.446 6.48473 486.934 -9.2376C490.047 -15.7746 493.311 -22.4144 496.77 -28.9759C503.486 -41.6466 514.53 -59.2575 533.225 -66.4827C542.211 -69.9544 551.857 -70.8217 562.452 -69.1742C575.252 -67.1295 588.701 -61.4193 602.604 -52.1218C605.619 -50.1682 608.541 -48.0466 611.733 -45.8981C626.392 -35.6397 641.559 -25.0946 660.287 -20.8646L661.296 -19.7604Z" fill="url(#paint8_linear_423_4608)"/>
</g>
<g opacity="0.33">
<path d="M662.366 -18.5901C642.903 -22.9525 626.964 -34.3421 612.635 -44.5086C609.578 -46.6436 606.715 -48.7002 603.912 -50.6918C590.16 -60.0922 576.803 -65.9705 564.154 -68.1181C553.711 -69.8685 544.216 -69.104 535.382 -65.7353C516.914 -58.6645 505.946 -41.1052 499.306 -28.4859C495.847 -21.9244 492.626 -15.103 489.513 -8.56606C482.084 7.22124 474.378 23.5122 462.762 37.4059C454.865 46.7713 445.063 54.5887 434.372 59.9563C419.764 67.3532 404.367 70.1261 389.675 67.8926C376.318 65.9105 364.135 59.9723 352.324 54.3074C340.064 48.4206 327.432 42.2606 313.874 40.7307C292.554 38.3671 275.761 46.1953 257.956 54.3949C243.219 61.2477 227.832 68.3309 209.28 69.6673C185.9 71.2303 162.993 63.1005 147.76 56.9171C144.394 55.5186 141.027 54.1201 137.796 52.7351C123.704 46.7245 110.466 40.9763 94.8383 39.0627C77.1238 36.8818 58.0066 40.2869 39.3254 48.8713C19.4648 58.0463 1.34863 72.3541 -11.5807 89.2454C-23.0747 104.214 -31.2021 120.581 -37.3352 137.383L-38.0478 136.604C-31.9311 119.918 -23.7606 103.732 -12.3424 88.8152C0.662692 71.8724 18.871 57.3968 38.9426 48.1837C57.7752 39.4964 77.2385 36.0668 95.0882 38.2612C110.851 40.1883 124.224 45.95 138.376 52.0255C141.607 53.4105 144.973 54.809 148.34 56.2075C163.437 62.3774 186.15 70.4289 209.319 68.9038C227.66 67.6054 242.836 60.5601 257.573 53.7073C275.53 45.4048 292.398 37.5251 314.124 39.9292C327.893 41.4211 340.66 47.5946 352.979 53.5463C364.714 59.2627 376.914 65.0845 390.001 67.0397C404.498 69.1947 419.743 66.5248 434.065 59.2173C444.68 53.9012 454.407 46.1352 462.151 36.8727C473.692 23.0305 481.382 6.856 488.811 -8.93131C491.923 -15.4683 495.145 -22.2897 498.603 -28.8511C505.26 -41.5869 516.32 -59.314 535.21 -66.4608C544.331 -69.919 553.902 -70.7349 564.539 -68.906C577.323 -66.7449 590.874 -60.7884 604.686 -51.323C607.624 -49.3179 610.427 -47.3263 613.409 -45.1398C627.917 -34.7785 642.932 -24.1304 661.492 -19.681L662.442 -18.6417L662.366 -18.5901Z" fill="url(#paint9_linear_423_4608)"/>
</g>
<g opacity="0.33">
<path d="M663.377 -17.4876C644.082 -22.0694 628.295 -33.562 614.133 -43.9478C611.211 -46.0693 608.484 -48.1124 605.68 -50.104C591.961 -59.7373 578.561 -65.7969 565.87 -68.1259C555.308 -70.0062 545.888 -69.2932 536.92 -65.9379C518.257 -58.9456 507.348 -41.3213 500.767 -28.6371C497.292 -21.9592 494.071 -15.1379 490.942 -8.48445C483.572 7.3678 475.866 23.6587 464.368 37.6823C456.532 47.1127 446.653 54.9817 435.946 60.4656C421.321 67.979 405.79 70.7385 391.022 68.5565C377.741 66.5229 365.481 60.6361 353.746 54.9197C341.427 48.968 328.736 42.7431 315.027 41.3161C293.69 39.0689 276.923 47.1949 259.145 55.6923C244.299 62.8294 228.94 70.2104 210.236 71.6498C186.704 73.3157 163.829 64.953 148.63 58.5368C145.204 57.0734 141.778 55.6099 138.428 54.095C124.369 47.8516 111.147 41.9869 95.5521 39.8404C77.7947 37.4782 58.4994 40.6885 39.6831 49.2594C19.6279 58.356 1.436 72.7152 -11.5691 89.658C-22.9873 104.575 -31.0984 120.825 -37.2315 137.628L-37.9441 136.848C-31.8273 120.162 -23.7327 104.028 -12.3903 89.1628C0.631252 72.1036 18.9747 57.6414 39.2408 48.5068C58.268 39.898 77.8501 36.5983 95.7427 38.974C111.549 41.0825 124.83 47.0121 138.948 53.3205C142.239 54.7704 145.648 56.3503 149.15 57.7623C164.215 64.165 186.894 72.4493 210.216 70.8213C228.708 69.4199 243.992 62.0904 258.762 55.0047C276.692 46.4044 293.534 38.227 315.277 40.5146C329.121 41.955 341.947 48.1936 354.461 54.2237C366.196 59.9401 378.32 65.8133 391.407 67.7685C405.904 69.9235 421.225 67.202 435.563 59.7781C446.195 54.3456 455.921 46.5796 463.682 37.2007C475.164 23.2935 482.794 7.05404 490.088 -8.74676C493.217 -15.4002 496.379 -22.2864 499.854 -28.9643C506.527 -41.8164 517.528 -59.6086 536.553 -66.742C545.733 -70.1352 555.363 -70.8862 566.119 -68.9274C578.946 -66.5849 592.481 -60.5118 606.319 -50.7486C609.122 -48.757 611.926 -46.7653 614.772 -44.5923C629.187 -34.0632 643.975 -23.2607 662.308 -18.6569L663.377 -17.4876Z" fill="url(#paint10_linear_423_4608)"/>
</g>
<g opacity="0.33">
<path d="M664.384 -16.3826C645.257 -21.1837 629.697 -32.8307 615.746 -43.2545C612.959 -45.3625 610.292 -47.3407 607.623 -49.3188C593.937 -59.1849 580.57 -65.4774 567.819 -67.8713C557.273 -69.8681 547.735 -69.285 538.691 -65.8783C519.893 -58.8994 508.968 -41.1587 502.446 -28.4095C499.03 -21.6666 495.793 -14.7289 492.647 -7.9591C485.277 7.89315 477.766 24.2625 466.328 38.3511C458.55 47.8464 448.732 55.7804 437.948 61.3158C423.307 68.9456 407.7 71.7564 392.932 69.5744C379.651 67.5408 367.467 61.6027 355.597 55.8728C343.159 49.7912 330.333 43.5527 316.548 42.1772C295.119 40.0979 278.395 48.4054 260.703 57.2655C245.808 64.7519 230.416 72.3658 211.577 73.7917C187.894 75.5606 165.052 66.965 149.885 60.3158C146.4 58.7875 142.931 57.1426 139.581 55.6277C125.614 49.2164 112.365 43.0539 96.711 40.8425C78.9863 38.2474 59.4963 41.3792 40.4097 49.9231C20.1437 59.0577 1.8925 73.352 -11.1126 90.2948C-22.5144 105.095 -30.4904 121.359 -36.6236 138.161L-37.3361 137.382C-31.2194 120.696 -23.2003 104.614 -11.8743 89.8646C1.22296 72.7539 19.6257 58.3567 40.0269 49.2356C59.3244 40.6537 78.9494 37.5354 96.9444 40.1574C112.793 42.4473 126.042 48.6098 140.144 55.0347C143.494 56.5495 146.963 58.1944 150.448 59.7228C165.48 66.3584 188.127 74.8754 211.6 73.1445C230.168 71.6916 245.561 64.0778 260.304 56.6943C278.207 47.7962 295.023 39.3209 316.781 41.4921C330.837 42.8946 343.723 49.198 356.236 55.2281C367.971 60.9445 380.019 66.8693 393.241 68.8379C407.798 71.0579 423.135 68.2201 437.549 60.7447C448.257 55.2607 457.924 47.4297 465.625 37.9858C477.048 24.0137 484.559 7.6443 491.853 -8.15649C494.922 -14.8749 498.236 -21.8641 501.651 -28.6069C508.325 -41.4591 519.282 -59.4326 538.443 -66.5524C547.698 -69.9971 557.447 -70.6182 568.187 -68.543C581.133 -66.0706 594.635 -59.7647 608.44 -49.7686C611.109 -47.7905 613.777 -45.8123 616.563 -43.7042C630.752 -33.0206 645.388 -22.1152 663.553 -17.292L664.384 -16.3826Z" fill="url(#paint11_linear_423_4608)"/>
</g>
<g opacity="0.33">
<path d="M665.397 -15.2813C646.497 -20.2368 631.089 -31.9868 617.306 -42.6299C614.578 -44.673 611.986 -46.7026 609.377 -48.6158C595.723 -58.7148 582.313 -65.1885 569.519 -67.7639C558.855 -69.8905 549.317 -69.3076 540.213 -65.9658C521.28 -59.0004 510.415 -41.1947 503.817 -28.394C500.325 -21.5997 497.072 -14.5455 493.986 -7.71073C486.751 8.15501 479.223 24.6408 467.844 38.7943C459.991 48.3411 450.232 56.3401 439.432 61.992C424.715 69.6732 409.167 72.5489 394.264 70.3535C380.983 68.3198 368.799 62.3817 357.005 56.6004C344.508 50.4539 331.622 44.1503 317.626 42.8128C296.181 40.85 279.484 49.4552 261.818 58.6131C246.891 66.3324 231.449 74.2956 212.459 75.8244C188.624 77.6963 165.831 68.7514 150.68 61.9859C147.136 60.3925 143.608 58.6828 140.198 57.1029C126.264 50.4588 113.032 44.1798 97.4103 41.7355C79.5075 38.9455 59.9746 41.896 40.7529 50.4264C20.368 59.4311 1.96533 73.8282 -11.1156 90.8225C-22.4416 105.572 -30.4771 121.771 -36.4751 138.586L-37.1876 137.807C-31.0709 121.121 -23.1277 105.09 -11.8775 90.3923C1.29559 73.2301 19.7742 58.7814 40.3106 49.6738C59.7432 41.1054 79.4871 38.1171 97.5844 40.9855C113.401 43.5082 126.708 49.7356 140.702 56.4448C144.171 58.0896 147.64 59.7344 151.184 61.3278C166.2 68.0798 188.873 76.8947 212.422 75.1123C231.142 73.5565 246.508 65.6449 261.36 57.9771C279.236 48.7812 296.084 40.073 317.8 42.0628C332.007 43.3624 344.952 49.7308 357.584 55.8908C369.319 61.6072 381.368 67.5319 394.514 69.552C409.147 71.7205 424.484 68.8826 438.973 61.3557C449.621 55.8068 459.381 47.808 467.082 38.3642C478.445 24.3271 485.897 7.89272 493.132 -7.97302C496.218 -14.8078 499.472 -21.862 502.963 -28.6564C509.577 -41.5735 520.551 -59.6634 539.906 -66.7048C549.221 -70.0845 558.97 -70.7056 569.829 -68.5004C582.758 -65.9116 596.303 -59.4243 610.076 -49.1954C612.684 -47.2822 615.277 -45.2526 618.004 -43.2095C632.041 -32.4229 646.526 -21.4145 664.387 -16.3855L665.397 -15.2813Z" fill="url(#paint12_linear_423_4608)"/>
</g>
<g opacity="0.33">
<path d="M666.409 -14.1771C647.677 -19.352 632.496 -31.2564 618.865 -42.0024C616.272 -44.0321 613.74 -45.9968 611.266 -47.8964C597.645 -58.2283 584.192 -64.8834 571.355 -67.6401C560.707 -69.8832 551.05 -69.4302 541.811 -66.1019C522.683 -59.2149 511.861 -41.2278 505.323 -28.3622C501.815 -21.4515 498.62 -14.3323 495.518 -7.3811C488.343 8.54959 480.95 25.049 469.554 39.3189C461.761 48.9306 451.985 57.0458 441.186 62.6977C426.452 70.4954 410.828 73.4228 395.866 71.1624C382.585 69.1287 370.401 63.1904 358.607 57.4091C346.05 51.1976 332.97 44.8157 318.958 43.5946C297.496 41.7482 280.826 50.6512 263.127 60.0421C248.091 68.0456 232.6 76.358 213.534 77.9383C189.624 79.8616 166.788 70.7354 151.746 63.6856C148.142 62.0273 144.554 60.2526 141.026 58.5429C127.049 51.7173 113.909 45.2704 98.2444 42.6448C80.2985 39.6734 60.5712 42.5455 41.1713 50.881C20.6514 59.8722 2.11327 74.2558 -11.0434 91.3016C-22.2936 105.999 -30.2532 122.147 -36.3106 138.897L-37.0231 138.118C-30.9821 121.484 -23.039 105.453 -11.8051 90.8714C1.44373 73.6578 20.0575 59.2226 40.7291 50.1285C60.3562 41.6385 80.2187 38.78 98.4348 41.7783C114.235 44.4174 127.569 50.9427 141.546 57.7683C145.075 59.478 148.603 61.1878 152.19 62.9626C167.173 69.9475 189.814 78.9952 213.514 77.1098C232.31 75.5025 247.784 67.3067 262.609 59.3411C280.459 49.8474 297.281 40.8413 319.013 42.7147C333.296 43.9628 346.435 50.4097 359.127 56.6347C370.786 62.4025 382.835 68.3272 396.056 70.2958C410.749 72.5293 426.161 69.64 440.684 61.8803C451.408 56.2799 461.108 48.216 468.75 38.7073C480.053 24.6052 487.446 8.10588 494.545 -7.77333C497.648 -14.7246 500.842 -21.8437 504.35 -28.7545C510.981 -41.788 521.895 -59.943 541.385 -66.9708C550.759 -70.2856 560.568 -70.8416 571.486 -68.5715C584.458 -65.8013 598.046 -59.1328 611.786 -48.671C614.26 -46.7713 616.852 -44.7417 619.385 -42.777C633.27 -31.8876 647.528 -20.7246 665.222 -15.4762L666.409 -14.1771Z" fill="url(#paint13_linear_423_4608)"/>
</g>
<g opacity="0.33">
<path d="M667.419 -13.0735C648.989 -18.4543 633.96 -30.4614 620.48 -41.3104C618.023 -43.3266 615.55 -45.2264 613.152 -47.1775C599.758 -57.6638 586.008 -64.6437 573.247 -67.4519C562.48 -69.8249 552.823 -69.3718 543.6 -66.16C524.414 -59.338 513.515 -41.2994 507.02 -28.2524C503.572 -21.2767 500.361 -14.0411 497.258 -7.08992C490.142 8.90575 482.809 25.47 471.549 39.7534C463.815 49.4301 453.963 57.5968 443.147 63.3651C428.398 71.2793 412.638 74.1931 397.735 71.9977C384.454 69.9641 372.271 64.0258 360.552 58.193C347.936 51.9165 334.796 45.4697 320.573 44.2866C299.095 42.5566 282.392 51.6925 264.78 61.4461C249.77 69.7475 234.246 78.2928 215.029 79.976C190.967 82.0023 168.164 72.6431 153.154 65.3604C149.491 63.6372 145.844 61.7975 142.333 59.9713C128.388 52.9129 115.281 46.2332 99.4975 43.4776C81.4493 40.2599 61.603 43.0021 42.068 51.3241C21.3535 60.2369 2.81561 74.6206 -10.3574 91.7827C-21.5913 106.364 -29.4752 122.46 -35.4732 139.276L-36.2451 138.431C-30.2042 121.797 -22.2609 105.766 -11.1786 91.2875C2.08663 73.9575 20.8355 59.5359 41.7015 50.5202C61.4639 42.0437 81.5803 39.3285 99.7637 42.5597C115.607 45.3802 128.849 52.0733 142.853 59.1967C146.364 61.0229 150.011 62.8627 153.675 64.5859C168.625 71.8037 191.292 81.1492 215.009 79.1475C233.939 77.5537 249.404 68.9434 264.337 60.6935C282.161 50.902 298.956 41.5981 320.839 43.3686C335.274 44.5137 348.473 51.0256 361.148 57.367C372.807 63.1349 384.915 69.1244 398.002 71.0796C412.694 73.3131 428.182 70.3723 442.781 62.5611C453.521 56.8443 463.221 48.7805 470.879 39.1553C482.123 24.9883 489.456 8.424 496.497 -7.52019C499.599 -14.4714 502.81 -21.7069 506.334 -28.7341C512.905 -41.8326 523.836 -60.1039 543.386 -67.0668C552.684 -70.3302 562.898 -70.8458 573.665 -68.4727C586.755 -65.5727 600.311 -58.6711 614.018 -47.9765C616.491 -46.0768 618.889 -44.1257 621.346 -42.1095C635.08 -31.1171 649.11 -19.7999 666.577 -14.3971L667.646 -13.2279L667.419 -13.0735Z" fill="url(#paint14_linear_423_4608)"/>
</g>
<g opacity="0.33">
<path d="M668.423 -11.9644C650.162 -17.5645 635.36 -29.7263 622.032 -40.6782C619.634 -42.6294 617.236 -44.5806 614.957 -46.4018C601.596 -57.121 587.803 -64.2824 574.999 -67.2719C564.384 -69.7479 554.322 -69.3352 545.175 -66.1748C530.472 -61.0304 518.771 -48.975 508.518 -28.2158C504.994 -21.1886 501.843 -13.8881 498.724 -6.82047C491.667 9.24013 484.393 25.8694 473.192 40.2177C465.517 49.9594 455.65 58.2426 444.834 64.0109C430.008 71.9765 414.233 75.0067 399.271 72.7463C385.989 70.7127 373.881 64.723 362.087 58.9416C349.336 52.6517 336.213 46.0885 321.838 45.0083C300.208 43.3812 283.591 52.8799 266.006 62.9313C251.25 71.3761 235.921 79.9998 217.135 82.0213C216.789 82.0459 216.367 82.1218 216.021 82.1463C191.808 84.2755 169.054 74.5671 154.001 67.103C150.355 65.2633 146.648 63.3587 143.077 61.4675C129.165 54.1763 116.075 47.3802 100.324 44.3917C82.2329 40.9927 62.2084 43.5399 42.5383 51.8485C21.7644 60.6963 2.95618 75.053 -10.2332 92.3316C-21.4835 107.029 -29.3346 122.892 -35.3162 139.592L-36.0882 138.747C-30.123 122.164 -22.2125 106.366 -11.0544 91.8364C2.28658 74.4549 21.1112 59.9817 42.096 51.0959C62.0528 42.6979 82.2286 40.0478 100.514 43.5253C116.4 46.5272 129.61 53.4532 143.597 60.693C147.168 62.5841 150.875 64.4888 154.522 66.3285C178.289 78.086 197.762 82.8626 215.941 81.2528C235.024 79.5561 250.445 70.7645 265.428 62.1653C283.225 52.076 299.993 42.4743 321.893 44.1283C336.403 45.222 349.662 51.7988 362.531 58.2187C374.191 63.9865 386.298 69.9761 399.385 71.9313C414.153 74.1133 429.642 71.1725 444.316 63.3099C455.056 57.593 464.772 49.4128 472.431 39.7876C483.615 25.5556 490.813 8.97785 497.87 -7.08276C500.989 -14.1504 504.14 -21.4509 507.605 -28.5431C514.117 -41.7065 525.064 -60.0943 544.808 -66.9788C554.182 -70.2936 564.439 -70.6277 575.265 -68.1897C588.204 -65.1867 602.116 -57.8954 615.612 -47.1628C617.951 -45.2766 620.348 -43.3254 622.746 -41.3743C636.328 -30.2789 650.148 -18.9238 667.311 -13.3151L668.499 -12.0159L668.423 -11.9644Z" fill="url(#paint15_linear_423_4608)"/>
</g>
<g opacity="0.33">
<path d="M669.434 -10.8619C651.476 -16.6679 636.825 -28.9325 623.649 -39.9874C621.386 -41.9251 619.047 -43.8114 616.844 -45.6841C607.566 -53.2804 593.069 -63.2274 576.833 -67.1498C566.158 -69.6907 556.113 -69.3944 546.83 -66.2475C531.993 -61.1166 520.352 -48.9963 510.082 -28.1206C506.541 -20.977 503.373 -13.5601 500.314 -6.42747C493.317 9.69809 486.178 26.3409 474.961 40.8057C467.27 50.6638 457.478 58.8954 446.569 64.8316C431.728 72.9136 415.876 75.9954 400.855 73.67C387.573 71.6364 375.406 65.5817 363.687 59.7489C350.877 53.394 337.635 46.7008 323.168 45.7885C301.522 44.2779 284.932 54.0744 267.313 64.3586C252.222 73.2421 236.54 82.421 217.171 84.2072C198.705 85.9064 178.978 80.9863 155.066 68.8011C151.359 66.8965 147.594 64.927 143.963 62.9709C130.068 55.5632 116.95 48.4692 101.157 45.2994C82.9632 41.654 62.8794 44.1363 43.0147 52.3665C22.0462 61.1358 3.16227 75.5439 -10.1029 92.874C-21.3368 107.455 -29.1878 123.318 -35.0937 139.966L-35.8656 139.122C-29.9004 122.539 -22.0658 106.792 -10.9241 92.3788C2.49266 74.9458 21.4524 60.4862 42.5724 51.6139C62.6644 43.2294 83.0183 40.7741 101.347 44.433C117.276 47.6162 131.036 55.0105 144.483 62.1963C148.114 64.1524 151.804 66.1735 155.586 68.0267C179.304 80.1335 198.836 84.975 217.092 83.3137C236.25 81.5655 251.72 72.4247 266.736 63.5927C284.506 53.2055 301.248 43.306 323.224 44.9085C337.885 45.8992 351.262 52.6059 364.132 59.0258C375.791 64.7936 387.823 70.8347 400.969 72.8549C415.797 75.1018 431.302 72.0447 445.992 64.0656C456.748 58.2324 466.465 50.0521 474.14 40.3105C485.265 26.0136 492.404 9.37085 499.325 -6.70325C502.384 -13.8359 505.552 -21.2528 509.093 -28.3965C519.395 -49.505 531.264 -61.7797 546.388 -67.0001C555.822 -70.2499 566.138 -70.5191 577.007 -67.8997C593.378 -63.9639 608.07 -53.9385 617.408 -46.2773C619.687 -44.4561 621.949 -42.5183 624.212 -40.5806C637.507 -29.3958 651.251 -17.9892 668.112 -12.1746L669.359 -10.8105L669.434 -10.8619Z" fill="url(#paint16_linear_423_4608)"/>
</g>
<g opacity="0.33">
<path d="M670.384 -9.8232C652.594 -15.8486 638.289 -28.1377 625.264 -39.2956C623.061 -41.1683 620.857 -43.0411 618.654 -44.9138C609.333 -52.6915 594.928 -62.8063 578.649 -66.91C567.931 -69.6323 557.826 -69.4011 548.468 -66.2028C533.495 -61.0854 521.778 -48.9135 511.628 -27.9079C508.146 -20.6993 504.903 -13.2309 501.903 -6.03336C495.041 10.1057 487.886 26.8649 476.728 41.3947C469.096 51.3177 459.287 59.6658 448.379 65.602C433.462 73.7355 417.594 76.9336 402.572 74.6082C389.291 72.5746 377.124 66.52 365.405 60.6872C352.535 54.2673 339.158 47.5606 324.556 46.6349C302.894 45.2407 286.27 55.27 268.679 65.852C253.63 74.917 238.127 84.2907 218.936 86.2717C218.725 86.3097 218.514 86.3477 218.379 86.3343C199.837 88.0849 180.051 83.1 156.187 70.5655C152.421 68.5959 148.672 66.5098 144.982 64.4888C131.12 56.8482 117.959 49.573 102.182 46.2867C83.9455 42.46 63.6836 44.7473 43.6079 53.0154C22.5044 61.7713 3.56106 76.1146 -9.77991 93.4961C-20.8622 107.974 -28.7133 123.838 -34.6785 140.42L-35.4504 139.576C-29.561 123.045 -21.667 107.363 -10.6604 92.936C2.77271 75.3865 21.8676 60.9404 43.1821 52.1466C63.4093 43.7755 83.882 41.4501 102.448 45.3688C118.42 48.7335 132.223 56.309 145.578 63.6628C149.268 65.6839 153.017 67.7699 156.783 69.7395C180.468 82.0792 200.044 87.102 218.375 85.3893C237.625 83.4732 253.188 74.1645 268.177 65.0347C285.92 54.3497 302.695 44.2174 324.704 45.5871C339.576 46.5398 352.953 53.2464 365.942 59.7962C377.585 65.6805 389.692 71.6701 402.779 73.6253C417.606 75.8723 433.187 72.7636 447.953 64.7331C458.785 58.8484 468.518 50.5516 476.058 40.7965C487.124 26.4346 494.203 9.72704 501.065 -6.41202C504.141 -13.661 507.309 -21.078 510.866 -28.338C521.184 -49.563 533.053 -61.8377 548.253 -67.1095C557.822 -70.3459 568.138 -70.6152 579.05 -67.8144C595.464 -63.6972 610.124 -53.4389 619.504 -45.5963C621.648 -43.7886 623.851 -41.9159 626.114 -39.9782C639.257 -28.6904 652.715 -17.1942 669.407 -11.1603L670.535 -9.92623L670.384 -9.8232Z" fill="url(#paint17_linear_423_4608)"/>
</g>
</g>
<defs>
<linearGradient id="paint0_linear_423_4608" x1="401.7" y1="69.948" x2="13.4297" y2="71.0995" gradientUnits="userSpaceOnUse">
<stop stop-color="#FF4910"/>
<stop offset="0.612452" stop-color="#FF1074"/>
<stop offset="1" stop-color="#FF5AD1"/>
</linearGradient>
<linearGradient id="paint1_linear_423_4608" x1="400.302" y1="68.4186" x2="12.1088" y2="69.4551" gradientUnits="userSpaceOnUse">
<stop stop-color="#FF4910"/>
<stop offset="0.612452" stop-color="#FF1074"/>
<stop offset="1" stop-color="#FF5AD1"/>
</linearGradient>
<linearGradient id="paint2_linear_423_4608" x1="398.868" y1="67.0329" x2="10.9098" y2="67.6371" gradientUnits="userSpaceOnUse">
<stop stop-color="#FF4910"/>
<stop offset="0.612452" stop-color="#FF1074"/>
<stop offset="1" stop-color="#FF5AD1"/>
</linearGradient>
<linearGradient id="paint3_linear_423_4608" x1="397.437" y1="65.336" x2="9.58939" y2="65.7758" gradientUnits="userSpaceOnUse">
<stop stop-color="#FF4910"/>
<stop offset="0.612452" stop-color="#FF1074"/>
<stop offset="1" stop-color="#FF5AD1"/>
</linearGradient>
<linearGradient id="paint4_linear_423_4608" x1="395.782" y1="63.6054" x2="8.29216" y2="63.6004" gradientUnits="userSpaceOnUse">
<stop stop-color="#FF4910"/>
<stop offset="0.612452" stop-color="#FF1074"/>
<stop offset="1" stop-color="#FF5AD1"/>
</linearGradient>
<linearGradient id="paint5_linear_423_4608" x1="396.019" y1="63.7335" x2="8.31405" y2="64.0459" gradientUnits="userSpaceOnUse">
<stop stop-color="#FF4910"/>
<stop offset="0.612452" stop-color="#FF1074"/>
<stop offset="1" stop-color="#FF5AD1"/>
</linearGradient>
<linearGradient id="paint6_linear_423_4608" x1="396.902" y1="64.6993" x2="8.83138" y2="65.5534" gradientUnits="userSpaceOnUse">
<stop stop-color="#FF4910"/>
<stop offset="0.612452" stop-color="#FF1074"/>
<stop offset="1" stop-color="#FF5AD1"/>
</linearGradient>
<linearGradient id="paint7_linear_423_4608" x1="397.718" y1="65.6717" x2="9.09327" y2="67.4376" gradientUnits="userSpaceOnUse">
<stop stop-color="#FF4910"/>
<stop offset="0.612452" stop-color="#FF1074"/>
<stop offset="1" stop-color="#FF5AD1"/>
</linearGradient>
<linearGradient id="paint8_linear_423_4608" x1="398.634" y1="66.6229" x2="9.70345" y2="68.935" gradientUnits="userSpaceOnUse">
<stop stop-color="#FF4910"/>
<stop offset="0.612452" stop-color="#FF1074"/>
<stop offset="1" stop-color="#FF5AD1"/>
</linearGradient>
<linearGradient id="paint9_linear_423_4608" x1="399.605" y1="67.605" x2="10.2372" y2="70.494" gradientUnits="userSpaceOnUse">
<stop stop-color="#FF4910"/>
<stop offset="0.612452" stop-color="#FF1074"/>
<stop offset="1" stop-color="#FF5AD1"/>
</linearGradient>
<linearGradient id="paint10_linear_423_4608" x1="400.331" y1="68.5305" x2="10.386" y2="72.3014" gradientUnits="userSpaceOnUse">
<stop stop-color="#FF4910"/>
<stop offset="0.612452" stop-color="#FF1074"/>
<stop offset="1" stop-color="#FF5AD1"/>
</linearGradient>
<linearGradient id="paint11_linear_423_4608" x1="401.277" y1="69.514" x2="11.116" y2="73.7042" gradientUnits="userSpaceOnUse">
<stop stop-color="#FF4910"/>
<stop offset="0.612452" stop-color="#FF1074"/>
<stop offset="1" stop-color="#FF5AD1"/>
</linearGradient>
<linearGradient id="paint12_linear_423_4608" x1="402.049" y1="70.461" x2="11.3282" y2="75.3426" gradientUnits="userSpaceOnUse">
<stop stop-color="#FF4910"/>
<stop offset="0.612452" stop-color="#FF1074"/>
<stop offset="1" stop-color="#FF5AD1"/>
</linearGradient>
<linearGradient id="paint13_linear_423_4608" x1="402.862" y1="71.4015" x2="11.6502" y2="76.9606" gradientUnits="userSpaceOnUse">
<stop stop-color="#FF4910"/>
<stop offset="0.612452" stop-color="#FF1074"/>
<stop offset="1" stop-color="#FF5AD1"/>
</linearGradient>
<linearGradient id="paint14_linear_423_4608" x1="403.995" y1="72.1833" x2="12.4624" y2="78.3359" gradientUnits="userSpaceOnUse">
<stop stop-color="#FF4910"/>
<stop offset="0.612452" stop-color="#FF1074"/>
<stop offset="1" stop-color="#FF5AD1"/>
</linearGradient>
<linearGradient id="paint15_linear_423_4608" x1="404.718" y1="73.1986" x2="12.7968" y2="80.056" gradientUnits="userSpaceOnUse">
<stop stop-color="#FF4910"/>
<stop offset="0.612452" stop-color="#FF1074"/>
<stop offset="1" stop-color="#FF5AD1"/>
</linearGradient>
<linearGradient id="paint16_linear_423_4608" x1="405.499" y1="74.1838" x2="13.1729" y2="81.6865" gradientUnits="userSpaceOnUse">
<stop stop-color="#FF4910"/>
<stop offset="0.612452" stop-color="#FF1074"/>
<stop offset="1" stop-color="#FF5AD1"/>
</linearGradient>
<linearGradient id="paint17_linear_423_4608" x1="406.404" y1="75.0136" x2="13.6524" y2="83.0172" gradientUnits="userSpaceOnUse">
<stop stop-color="#FF4910"/>
<stop offset="0.612452" stop-color="#FF1074"/>
<stop offset="1" stop-color="#FF5AD1"/>
</linearGradient>
</defs>
</svg>
