<svg width="446" height="116" viewBox="0 0 446 116" fill="none" xmlns="http://www.w3.org/2000/svg">
<path d="M94.9569 0.90647V40.5646H108.095V11.2742H120.158V40.5646H133.296V0.90647H94.9569Z" fill="white"/>
<path d="M159.391 0.90647H140.306V40.5646H153.671V30.82H159.391C170.434 30.82 177.456 25.0413 177.456 15.8632C177.456 6.68522 170.434 0.90647 159.391 0.90647ZM158.541 20.5089H153.671V11.2176H158.541C162.222 11.2176 163.978 12.9739 163.978 15.8632C163.978 18.7526 162.222 20.5089 158.541 20.5089Z" fill="white"/>
<path d="M202.221 41.4711C215.133 41.4711 224.591 32.7463 224.591 20.7355C224.591 8.72478 215.133 0 202.221 0C189.309 0 179.852 8.72478 179.852 20.7355C179.852 32.7463 189.309 41.4711 202.221 41.4711ZM202.221 30.6501C197.294 30.6501 193.33 26.9109 193.33 20.7355C193.33 14.5602 197.294 10.821 202.221 10.821C207.148 10.821 211.113 14.5602 211.113 20.7355C211.113 26.9109 207.148 30.6501 202.221 30.6501Z" fill="white"/>
<path d="M249.335 41.4711C257.094 41.4711 263.21 38.6383 267.117 33.5394L258.679 26.0044C256.357 28.9504 253.582 30.6501 250.015 30.6501C244.465 30.6501 240.727 26.7976 240.727 20.7355C240.727 14.6735 244.465 10.821 250.015 10.821C253.582 10.821 256.357 12.5206 258.679 15.4667L267.117 7.93162C263.21 2.83272 257.094 0 249.335 0C236.593 0 227.249 8.55482 227.249 20.7355C227.249 32.9162 236.593 41.4711 249.335 41.4711Z" fill="white"/>
<path d="M304.631 0.90647H268.274V11.2742H279.883V40.5646H293.022V11.2742H304.631V0.90647Z" fill="white"/>
<path d="M328.646 41.4711C341.558 41.4711 351.016 32.7463 351.016 20.7355C351.016 8.72478 341.558 0 328.646 0C315.734 0 306.277 8.72478 306.277 20.7355C306.277 32.7463 315.734 41.4711 328.646 41.4711ZM328.646 30.6501C323.719 30.6501 319.755 26.9109 319.755 20.7355C319.755 14.5602 323.719 10.821 328.646 10.821C333.573 10.821 337.537 14.5602 337.537 20.7355C337.537 26.9109 333.573 30.6501 328.646 30.6501Z" fill="white"/>
<path d="M0 75.2654V114.924H13.1385V85.6332H25.2009V114.924H38.3394V75.2654H0Z" fill="white"/>
<path d="M65.51 115.83C78.4219 115.83 87.8793 107.105 87.8793 95.0945C87.8793 83.0838 78.4219 74.359 65.51 74.359C52.5981 74.359 43.1406 83.0838 43.1406 95.0945C43.1406 107.105 52.5981 115.83 65.51 115.83ZM65.51 105.009C60.5831 105.009 56.6189 101.27 56.6189 95.0945C56.6189 88.9192 60.5831 85.18 65.51 85.18C70.4369 85.18 74.4011 88.9192 74.4011 95.0945C74.4011 101.27 70.4369 105.009 65.51 105.009Z" fill="white"/>
<path d="M92.6895 75.2654V114.924H105.828V85.6332H117.89V114.924H131.029V75.2654H92.6895Z" fill="white"/>
<path d="M157.123 75.2654H138.039V114.924H151.404V105.179H157.123C168.167 105.179 175.189 99.4002 175.189 90.2222C175.189 81.0442 168.167 75.2654 157.123 75.2654ZM156.274 94.8679H151.404V85.5765H156.274C159.955 85.5765 161.711 87.3328 161.711 90.2222C161.711 93.1116 159.955 94.8679 156.274 94.8679Z" fill="white"/>
<path d="M199.954 115.83C212.866 115.83 222.323 107.105 222.323 95.0945C222.323 83.0838 212.866 74.359 199.954 74.359C187.042 74.359 177.585 83.0838 177.585 95.0945C177.585 107.105 187.042 115.83 199.954 115.83ZM199.954 105.009C195.027 105.009 191.063 101.27 191.063 95.0945C191.063 88.9192 195.027 85.18 199.954 85.18C204.881 85.18 208.845 88.9192 208.845 95.0945C208.845 101.27 204.881 105.009 199.954 105.009Z" fill="white"/>
<path d="M227.133 114.924H248.03C258.507 114.924 264.737 110.051 264.737 101.95C264.737 94.188 259.413 89.9389 249.729 89.9389H240.272V85.3499H261.509V75.2654H227.133V114.924ZM240.272 105.576V99.2303H247.124C249.899 99.2303 251.315 100.25 251.315 102.29C251.315 104.386 249.786 105.576 247.124 105.576H240.272Z" fill="white"/>
<path d="M294.346 75.2654L286.191 91.9785L278.319 75.2654H264.218L279.395 103.253C278.149 104.782 276.847 105.462 274.865 105.462C273.732 105.462 272.43 105.236 270.787 104.782L267.673 114.414C270.334 115.49 272.939 116 275.374 116C281.944 116 287.55 112.204 291.344 105.122L307.258 75.2654H294.346Z" fill="white"/>
<path d="M329.685 72.9993C338.689 72.9993 342.144 69.5433 342.144 63.2547H333.253C333.253 65.7475 332.29 66.8806 329.685 66.8806C327.08 66.8806 326.231 65.7475 326.231 63.2547H317.34C317.34 69.5433 320.681 72.9993 329.685 72.9993ZM310.034 114.924H322.663L336.254 94.358V114.924H349.393V75.2654H336.821L323.173 95.8877V75.2654H310.034V114.924Z" fill="white"/>
<path d="M390.186 75.2654H353.829V85.6332H365.438V114.924H378.577V85.6332H390.186V75.2654Z" fill="white"/>
<path d="M407.732 104.839V99.6269H424.495V89.9956H407.732V85.3499H426.817V75.2654H394.594V114.924H427.553V104.839H407.732Z" fill="white"/>
<path d="M433.258 99.7402H443.452L446 75.2654H430.71L433.258 99.7402ZM438.355 115.49C442.772 115.49 445.83 112.431 445.83 108.692C445.83 104.896 442.772 102.006 438.355 102.006C433.938 102.006 430.879 104.896 430.879 108.692C430.879 112.431 433.938 115.49 438.355 115.49Z" fill="white"/>
</svg>
